<svg width="16" height="16" viewBox="0 0 16 16" fill="none" xmlns="http://www.w3.org/2000/svg">
<path d="M6.88879 1.66533C7.18814 0.74402 8.49155 0.744021 8.7909 1.66533L9.86047 4.95713C9.99434 5.36915 10.3783 5.64811 10.8115 5.64811H14.2727C15.2414 5.64811 15.6442 6.88773 14.8605 7.45713L12.0603 9.49157C11.7099 9.74621 11.5632 10.1976 11.6971 10.6096L12.7666 13.9014C13.066 14.8227 12.0115 15.5888 11.2278 15.0194L8.42763 12.985C8.07714 12.7303 7.60255 12.7303 7.25206 12.985L4.45189 15.0194C3.66817 15.5888 2.6137 14.8227 2.91305 13.9014L3.98262 10.6096C4.11649 10.1976 3.96983 9.74621 3.61935 9.49157L0.819176 7.45713C0.0354629 6.88773 0.438239 5.64811 1.40696 5.64811H4.86816C5.30139 5.64811 5.68534 5.36915 5.81922 4.95713L6.88879 1.66533Z" fill="url(#paint0_linear)"/>
<defs>
<linearGradient id="paint0_linear" x1="-2.16016" y1="8.73828" x2="17.8398" y2="8.73828" gradientUnits="userSpaceOnUse">
<stop stop-color="#6288E4"/>
<stop offset="1" stop-color="#AB86E4"/>
</linearGradient>
</defs>
</svg>
