<svg width="53" height="53" viewBox="0 0 53 53" fill="none" xmlns="http://www.w3.org/2000/svg">
<g clip-path="url(#clip0)">
<path d="M45.0324 17.7092C45.0318 17.7092 45.0311 17.7092 45.0306 17.7092H0.758398C0.339805 17.7087 1.5909e-05 18.0476 -0.000426813 18.4662C-0.000426813 18.4668 -0.000426813 18.4674 -0.000426813 18.468V39.7186C-0.000869535 40.1372 0.338034 40.477 0.756628 40.4775C0.757181 40.4775 0.757845 40.4775 0.758398 40.4775H30.8635C31.2825 40.4775 31.6223 40.1377 31.6223 39.7186C31.6223 39.2996 31.2825 38.9598 30.8635 38.9598H1.51722V19.2268H44.2718V21.1243C44.2713 21.5429 44.6102 21.8827 45.0288 21.8832C45.0294 21.8832 45.03 21.8832 45.0306 21.8832C45.4492 21.8836 45.789 21.5447 45.7894 21.1261C45.7894 21.1255 45.7894 21.1249 45.7894 21.1243V18.468C45.7898 18.0494 45.4509 17.7097 45.0324 17.7092Z" fill="white"/>
<path d="M39.8844 14.1862L4.46667 6.21717C4.2701 6.17323 4.06413 6.20887 3.89379 6.31634C3.72367 6.4247 3.60337 6.59592 3.55909 6.79271L1.78821 14.7617C1.69723 15.171 1.95533 15.5765 2.36463 15.6675C2.77393 15.7585 3.17946 15.5004 3.27044 15.0911L4.87575 7.86498L39.5515 15.6666C39.6064 15.6793 39.6625 15.6857 39.7188 15.6852C40.1379 15.6844 40.477 15.3441 40.4763 14.9251C40.4757 14.5708 40.23 14.2642 39.8844 14.1862Z" fill="white"/>
<path d="M35.5835 9.79533L14.3329 0.94089C13.9635 0.786934 13.538 0.945096 13.3589 1.30304L11.588 4.84481C11.388 5.21471 11.5257 5.6768 11.8957 5.8768C12.2656 6.0768 12.7277 5.93911 12.9277 5.5691C12.9355 5.55461 12.943 5.53977 12.9498 5.52472V5.52649L14.4028 2.6187L34.9974 11.1995C35.3852 11.3613 35.8308 11.1783 35.9926 10.7905C36.1544 10.4029 35.9713 9.95725 35.5835 9.79533Z" fill="white"/>
<path d="M36.1204 21.2509H29.0927C28.6736 21.2509 28.3339 21.5907 28.3339 22.0097C28.3339 22.4288 28.6736 22.7686 29.0927 22.7686H36.1204C36.5395 22.7686 36.8793 22.4288 36.8793 22.0097C36.8793 21.5907 36.5395 21.2509 36.1204 21.2509Z" fill="white"/>
<path d="M22.009 21.3025C17.7056 21.3025 14.2171 24.791 14.2171 29.0944C14.2215 33.3959 17.7075 36.8819 22.009 36.8863C26.3124 36.8863 29.8009 33.3978 29.8009 29.0944C29.8009 24.791 26.3124 21.3025 22.009 21.3025ZM22.009 35.4696C18.488 35.4696 15.6338 32.6154 15.6338 29.0944C15.6377 25.5751 18.4897 22.7231 22.009 22.7192C25.53 22.7192 28.3842 25.5734 28.3842 29.0944C28.3842 32.6154 25.53 35.4696 22.009 35.4696Z" fill="white"/>
<path d="M43.2592 23.7812C38.5663 23.7812 33.5193 24.8898 33.5193 27.323V48.5736C33.5193 51.0068 38.5663 52.1154 43.2592 52.1154C47.952 52.1154 52.999 51.0068 52.999 48.5736V27.323C52.999 24.8898 47.952 23.7812 43.2592 23.7812ZM51.2282 48.5603C51.0945 49.0518 48.439 50.3445 43.2592 50.3445C38.0793 50.3445 35.4239 49.0518 35.2902 48.5736V47.1817C37.1744 48.1309 40.2867 48.5736 43.2592 48.5736C46.2316 48.5736 49.3448 48.1265 51.2282 47.1808V48.5603ZM51.2282 45.0186C51.0945 45.51 48.439 46.8027 43.2592 46.8027C38.0793 46.8027 35.4239 45.51 35.2902 45.0319V43.6399C37.1744 44.5891 40.2867 45.0319 43.2592 45.0319C46.2316 45.0319 49.3448 44.5847 51.2282 43.6391V45.0186ZM51.2282 41.4768C51.0945 41.9682 48.439 43.261 43.2592 43.261C38.0793 43.261 35.4239 41.9682 35.2902 41.4901V40.0982C37.1744 41.0474 40.2867 41.4901 43.2592 41.4901C46.2316 41.4901 49.3448 41.0429 51.2282 40.0973V41.4768ZM51.2282 37.935C51.0945 38.4264 48.439 39.7192 43.2592 39.7192C38.0793 39.7192 35.4239 38.4264 35.2902 37.9483V36.5564C37.1744 37.5056 40.2867 37.9483 43.2592 37.9483C46.2316 37.9483 49.3448 37.5012 51.2282 36.5555V37.935ZM51.2282 34.3933C51.0945 34.8847 48.439 36.1774 43.2592 36.1774C38.0793 36.1774 35.4239 34.8847 35.2902 34.4065V33.0146C37.1744 33.9594 40.2867 34.4065 43.2592 34.4065C46.2316 34.4065 49.3448 33.9594 51.2282 33.0137V34.3933ZM51.2282 30.8515C51.0945 31.3429 48.439 32.6356 43.2592 32.6356C38.0793 32.6356 35.4239 31.3429 35.2902 30.8648V29.4728C37.1744 30.4176 40.2867 30.8648 43.2592 30.8648C46.2316 30.8648 49.3448 30.4176 51.2282 29.472V30.8515ZM43.2592 29.0939C38.0873 29.0939 35.4327 27.8047 35.2902 27.3389V27.3336C35.4327 26.8404 38.0873 25.5521 43.2592 25.5521C48.3947 25.5521 51.0511 26.8218 51.2282 27.323C51.0511 27.8242 48.3947 29.0939 43.2592 29.0939Z" fill="white"/>
<path d="M14.9253 35.4171H8.23219L5.05876 31.9462V26.1908L8.56335 22.7686H14.9253C15.3443 22.7686 15.6841 22.4288 15.6841 22.0097C15.6841 21.5907 15.3443 21.2509 14.9253 21.2509H8.25521C8.05687 21.2505 7.86617 21.3277 7.72395 21.4661L3.76867 25.3239C3.62091 25.4966 3.53989 25.7165 3.54022 25.9438V32.241C3.54022 32.4304 3.61095 32.6129 3.73856 32.7528L7.33612 36.6877C7.47989 36.8451 7.68333 36.9349 7.89661 36.9348H14.9253C15.3443 36.9348 15.6841 36.595 15.6841 36.176C15.6841 35.7569 15.3444 35.4171 14.9253 35.4171Z" fill="white"/>
<path d="M22.4513 28.2084H21.5659C21.2905 28.2084 21.1232 28.0544 21.1232 27.9871C21.1232 27.9198 21.2905 27.7657 21.5659 27.7657H23.7795C24.2685 27.7657 24.665 27.3692 24.665 26.8803C24.665 26.3913 24.2685 25.9948 23.7795 25.9948H22.8941C22.8941 25.5058 22.4976 25.1094 22.0086 25.1094C21.5196 25.1094 21.1232 25.5058 21.1232 25.9948V26.0347C20.1411 26.1733 19.3971 26.9918 19.3523 27.9826C19.4157 29.1436 20.4045 30.0355 21.5659 29.9793H22.4513C22.7267 29.9793 22.8941 30.1334 22.8941 30.2007C22.8941 30.268 22.7267 30.422 22.4513 30.422H20.2377C19.7488 30.422 19.3523 30.8185 19.3523 31.3075C19.3523 31.7965 19.7488 32.1929 20.2377 32.1929H21.1232C21.1232 32.6819 21.5196 33.0784 22.0086 33.0784C22.4976 33.0784 22.8941 32.6819 22.8941 32.1929V32.1531C23.8761 32.0144 24.6201 31.1959 24.665 30.2051C24.6015 29.0442 23.6127 28.1522 22.4513 28.2084Z" fill="white"/>
</g>
<defs>
<clipPath id="clip0">
<rect width="53" height="53" fill="white" transform="translate(-0.000427246 -0.000976562)"/>
</clipPath>
</defs>
</svg>
