<svg width="60" height="60" viewBox="0 0 60 60" fill="none" xmlns="http://www.w3.org/2000/svg">
<path d="M58.9734 29.0864H53.8973C56.0076 24.2955 55.7795 20.4172 54.981 17.7936C53.6122 13.1168 48.9924 8.04076 42.1483 8.04076C40.3232 8.04076 38.4981 8.38296 36.616 9.06737C33.365 10.2651 31.1977 11.5769 30.2281 12.2613C29.2586 11.5769 27.1483 10.2651 23.8403 9.06737C21.9582 8.38296 20.076 8.04076 18.308 8.04076C11.4639 8.04076 6.84411 13.1168 5.47529 17.7936C4.67681 20.5883 4.39163 24.8088 7.07224 30.113H0.912548C0.39924 30.113 0 30.5122 0 31.0256C0 31.5389 0.39924 31.9381 0.912548 31.9381H8.15589C8.44106 32.4514 8.78327 32.9647 9.18251 33.478C15.1141 42.0332 28.0038 51.3297 30.3422 51.9001V51.9571C30.3422 51.9571 30.3992 51.9571 30.4563 51.9001C30.5133 51.9001 30.5703 51.9001 30.6274 51.9001V51.843C32.6236 50.8735 45 42.8887 51.5019 33.421C52.1293 32.5655 52.6426 31.71 53.0989 30.8544H59.0875C59.6008 30.8544 60 30.4552 60 29.9419C60 29.4286 59.4867 29.0864 58.9734 29.0864ZM49.8479 32.4514C43.8023 41.2917 32.6806 48.421 30.2852 49.9609C27.8327 48.421 16.7681 41.2347 10.6654 32.4514C10.5513 32.2803 10.4373 32.1092 10.3232 31.9381H18.7072C19.0494 31.9381 19.3916 31.767 19.5627 31.4248L23.384 23.8963L29.3726 39.2385C29.4867 39.5807 29.8859 39.8088 30.2281 39.8088C30.2281 39.8088 30.2281 39.8088 30.2852 39.8088C30.6844 39.8088 31.0266 39.5237 31.1407 39.1244L36.3878 21.1586L39.1825 30.2271C39.2966 30.5693 39.5818 30.7974 39.924 30.8544C40.2662 30.9115 40.6084 30.7404 40.8365 30.4552L43.0608 27.2043L44.943 30.3982C45.1141 30.6833 45.3992 30.8544 45.7414 30.8544H50.8745C50.5323 31.4248 50.1901 31.9381 49.8479 32.4514ZM51.9011 29.0864H46.3118L43.9734 25.094C43.8023 24.8088 43.5171 24.6377 43.1749 24.6377C42.8327 24.6377 42.5475 24.7518 42.3764 25.037L40.4373 27.8887L37.3004 17.6795C37.1863 17.2803 36.7871 17.0522 36.3878 16.9951C35.9886 16.9951 35.5894 17.2803 35.4753 17.6795L30.1711 35.9875L24.4106 21.2727C24.2966 20.9305 23.9544 20.7024 23.6122 20.7024C23.2129 20.7024 22.9278 20.8735 22.7567 21.2157L18.251 30.056H9.18251C6.90114 25.8925 6.27376 21.9001 7.30038 18.3069C8.4981 14.2575 12.4335 9.92289 18.365 9.92289C19.962 9.92289 21.616 10.2651 23.27 10.8354C27.4335 12.3754 29.6578 14.1434 29.7148 14.1434C30.057 14.4286 30.5133 14.4286 30.8555 14.1434C30.8555 14.1434 33.0798 12.3754 37.3004 10.8354C38.9544 10.2081 40.6084 9.92289 42.2053 9.92289C48.0799 9.92289 52.0722 14.2575 53.27 18.3069C54.2395 21.6149 53.7262 25.2651 51.9011 29.0864Z" fill="white"/>
</svg>
