<svg width="60" height="60" viewBox="0 0 60 60" fill="none" xmlns="http://www.w3.org/2000/svg">
<g clip-path="url(#clip0)">
<path d="M57.4902 26.999H54.0002V20.731C54.0002 19.225 52.7742 17.999 51.2682 17.999H50.0002V-0.000976562H10.0002V1.99902H7.00024V3.99902H4.00024V10.999H2.73224C1.22624 10.999 0.000244141 12.225 0.000244141 13.731V57.418H0.00624414C0.00124414 57.981 0.176244 58.532 0.528244 58.993C1.01824 59.633 1.76024 59.999 2.56524 59.999H47.3242C48.4812 59.999 49.4992 59.219 49.7732 58.186L60.0002 30.148V29.971C60.0002 28.249 58.9442 26.999 57.4902 26.999ZM51.2682 19.999C51.6722 19.999 52.0002 20.327 52.0002 20.731V26.999H50.0002V19.999H51.2682ZM48.0002 1.99902V17.999V26.999H12.7312C12.4982 26.999 12.2742 27.038 12.0572 27.097C12.0392 27.102 12.0182 27.1 12.0002 27.105V1.99902H48.0002ZM10.0002 3.99902V29.584L9.93724 29.757L9.00024 32.325V3.99902H10.0002ZM6.00024 5.99902H7.00024V37.809L6.00024 40.55V10.999V5.99902ZM2.00024 13.731C2.00024 13.327 2.32924 12.999 2.73224 12.999H4.00024V45.942L2.00024 51.397V13.731ZM47.8682 57.583C47.8032 57.828 47.5792 57.999 47.3242 57.999H2.56524C2.32224 57.999 2.18024 57.86 2.11724 57.777C2.05424 57.695 1.95724 57.521 1.99424 57.369L4.00024 51.869V51.87L7.00024 43.645L10.0002 35.42V35.423L11.9322 30.122L12.0002 29.937L12.1602 29.498L12.1862 29.416C12.2522 29.171 12.4772 28.999 12.7312 28.999H48.0002H50.0002H54.0002H57.4902C57.8692 28.999 57.9672 29.545 57.9912 29.818L47.8682 57.583Z" fill="white"/>
<path d="M18.0002 16.999H42.0002C42.5522 16.999 43.0002 16.552 43.0002 15.999C43.0002 15.446 42.5522 14.999 42.0002 14.999H18.0002C17.4482 14.999 17.0002 15.446 17.0002 15.999C17.0002 16.552 17.4482 16.999 18.0002 16.999Z" fill="white"/>
<path d="M18.0002 9.99902H28.0002C28.5522 9.99902 29.0002 9.55202 29.0002 8.99902C29.0002 8.44602 28.5522 7.99902 28.0002 7.99902H18.0002C17.4482 7.99902 17.0002 8.44602 17.0002 8.99902C17.0002 9.55202 17.4482 9.99902 18.0002 9.99902Z" fill="white"/>
<path d="M18.0002 23.999H42.0002C42.5522 23.999 43.0002 23.552 43.0002 22.999C43.0002 22.446 42.5522 21.999 42.0002 21.999H18.0002C17.4482 21.999 17.0002 22.446 17.0002 22.999C17.0002 23.552 17.4482 23.999 18.0002 23.999Z" fill="white"/>
</g>
<defs>
<clipPath id="clip0">
<rect width="60" height="60" fill="white" transform="translate(0.000244141 -0.000976562)"/>
</clipPath>
</defs>
</svg>
