<svg width="60" height="60" viewBox="0 0 60 60" fill="none" xmlns="http://www.w3.org/2000/svg">
<path d="M23.6054 31.973C24.0603 31.973 24.4294 31.6039 24.4294 31.149V22.2864C24.4294 21.8315 24.0603 21.4624 23.6054 21.4624H19.1375C18.6825 21.4624 18.3135 21.8315 18.3135 22.2864V31.149C18.3135 31.6039 18.6825 31.973 19.1375 31.973H23.6054ZM19.9615 23.1103H22.7815V30.325H19.9615V23.1103Z" fill="white"/>
<path d="M27.6342 31.973H32.1019C32.5565 31.973 32.9258 31.6039 32.9258 31.149V22.2864C32.9258 21.8315 32.5565 21.4624 32.1019 21.4624H27.6342C27.1787 21.4624 26.8102 21.8315 26.8102 22.2864V31.149C26.8102 31.6039 27.1787 31.973 27.6342 31.973ZM28.4581 23.1103H31.2779V30.325H28.4581V23.1103Z" fill="white"/>
<path d="M12.1693 44.733C12.6241 44.733 12.9933 44.3647 12.9933 43.909V35.0472C12.9933 34.5917 12.6241 34.2232 12.1693 34.2232H7.70117C7.24634 34.2232 6.8772 34.5917 6.8772 35.0472V43.909C6.8772 44.3647 7.24634 44.733 7.70117 44.733H12.1693ZM8.52515 35.8712H11.3453V43.085H8.52515V35.8712Z" fill="white"/>
<path d="M47.566 44.733H52.0339C52.4887 44.733 52.8579 44.3647 52.8579 43.909V35.0472C52.8579 34.5917 52.4887 34.2232 52.0339 34.2232H47.566C47.1109 34.2232 46.742 34.5917 46.742 35.0472V43.909C46.742 44.3647 47.1109 44.733 47.566 44.733ZM48.39 35.8712H51.2099V43.085H48.39V35.8712Z" fill="white"/>
<path d="M36.1299 31.973H40.5981C41.0529 31.973 41.4221 31.6039 41.4221 31.149V22.2864C41.4221 21.8315 41.0529 21.4624 40.5981 21.4624H36.1299C35.6751 21.4624 35.3059 21.8315 35.3059 22.2864V31.149C35.3059 31.6039 35.6751 31.973 36.1299 31.973ZM36.9539 23.1103H39.7741V30.325H36.9539V23.1103Z" fill="white"/>
<path d="M29.0437 10.54C29.0437 10.995 29.4128 11.364 29.8677 11.364C30.3225 11.364 30.6917 10.995 30.6917 10.54V8.83711H32.3945C32.8494 8.83711 33.2185 8.46819 33.2185 8.01314C33.2185 7.55808 32.8494 7.18916 32.3945 7.18916H30.6917V5.48628C30.6917 5.03123 30.3225 4.66231 29.8677 4.66231C29.4128 4.66231 29.0437 5.03123 29.0437 5.48628V7.18916H27.3408C26.886 7.18916 26.5168 7.55808 26.5168 8.01314C26.5168 8.46819 26.886 8.83711 27.3408 8.83711H29.0437V10.54Z" fill="white"/>
<path d="M57.1687 25.7277C57.6235 25.7277 57.9927 25.3586 57.9927 24.9037V21.9374C57.9927 21.4826 57.6235 21.1135 57.1687 21.1135H52.1699C51.7151 21.1135 51.3459 21.4826 51.3459 21.9374C51.3459 22.3923 51.7151 22.7614 52.1699 22.7614H56.3447V24.0798C54.9508 24.0798 45.0387 24.0798 44.4454 24.0798V22.7614H48.0678C48.5236 22.7614 48.8918 22.3923 48.8918 21.9374C48.8918 21.4826 48.5236 21.1135 48.0678 21.1135H44.4454V17.2504H45.7102C46.1655 17.2504 46.5342 16.8822 46.5342 16.4265V13.4602C46.5342 13.0055 46.1655 12.6362 45.7102 12.6362H38.3601V2.5659C38.3601 2.11106 37.9914 1.74192 37.5361 1.74192H22.1992C21.7439 1.74192 21.3752 2.11106 21.3752 2.5659V12.6371H14.025C13.5697 12.6371 13.201 13.0055 13.201 13.461V16.4265C13.201 16.8822 13.5697 17.2504 14.025 17.2504H15.2899V21.1135H2.56665C2.11182 21.1135 1.74268 21.4826 1.74268 21.9374V24.9037C1.74268 25.3586 2.11182 25.7277 2.56665 25.7277H2.93271V31.149C2.93271 31.6039 3.30164 31.973 3.75669 31.973C4.21174 31.973 4.58066 31.6039 4.58066 31.149V25.7277H15.2899V53.2293H4.58066V35.2399C4.58066 34.7846 4.21174 34.4159 3.75669 34.4159C3.30164 34.4159 2.93271 34.7846 2.93271 35.2399V53.2287H2.56665C2.11182 53.2287 1.74268 53.5976 1.74268 54.0527V57.1679C1.74268 57.6228 2.11182 57.9919 2.56665 57.9919H57.1687C57.6235 57.9919 57.9927 57.6228 57.9927 57.1679V54.0527C57.9927 53.5976 57.6235 53.2287 57.1687 53.2287H56.8029V25.7277H57.1687ZM14.8489 14.285H27.6546C28.1094 14.285 28.4786 13.9159 28.4786 13.461C28.4786 13.0055 28.1094 12.6371 27.6546 12.6371H23.0232V3.38987H36.7122V12.6371H32.3211C31.8661 12.6371 31.4972 13.0055 31.4972 13.461C31.4972 13.9159 31.8661 14.285 32.3211 14.285H44.8862V15.6025H14.8489V14.285ZM3.39062 22.7614H15.2899V24.0798H3.39062V22.7614ZM16.9379 17.2504H42.7975V53.2287H38.0525V40.1941C38.0525 39.7392 37.6833 39.3701 37.2285 39.3701H22.5068C22.052 39.3701 21.6829 39.7392 21.6829 40.1941V53.2287H16.9379V17.2504ZM23.3308 53.2287V41.018H29.0437V53.2287H23.3308ZM30.6917 41.018H36.4045V53.2287H30.6917V41.018ZM56.3447 56.344H3.39062V54.8766H56.3447V56.344ZM55.1549 53.2287H44.4454V25.7277H55.154V53.2287H55.1549Z" fill="white"/>
</svg>
