<svg width="60" height="54" viewBox="0 0 60 54" fill="none" xmlns="http://www.w3.org/2000/svg">
<path d="M29.9998 23.8749C26.0402 23.8749 22.8184 27.0967 22.8184 31.0563V33.8807H22.0787C21.1622 33.8807 20.417 34.626 20.417 35.5424V46.873C20.417 47.789 21.1622 48.5342 22.0787 48.5342H37.921C38.8369 48.5342 39.5826 47.789 39.5826 46.873V35.5424C39.5826 34.6264 38.8369 33.8807 37.921 33.8807H37.1812V31.0563C37.1812 27.0967 33.9595 23.8749 29.9998 23.8749ZM24.5762 31.0563C24.5762 28.0658 27.0092 25.6328 29.9998 25.6328C32.9904 25.6328 35.4234 28.0658 35.4234 31.0563V33.8807H24.5762V31.0563ZM37.8248 35.6385V46.7764H22.1748V35.6385H37.8248Z" fill="white"/>
<path d="M25.9131 43.8143C26.3983 43.8143 26.792 43.4211 26.792 42.9354V40.2382C26.792 39.7525 26.3983 39.3593 25.9131 39.3593C25.4274 39.3593 25.0342 39.7525 25.0342 40.2382V42.9354C25.0342 43.4211 25.4274 43.8143 25.9131 43.8143Z" fill="white"/>
<path d="M30 43.8143C30.4852 43.8143 30.8789 43.4211 30.8789 42.9354V40.2382C30.8789 39.7525 30.4852 39.3593 30 39.3593C29.5148 39.3593 29.1211 39.7525 29.1211 40.2382V42.9354C29.1211 43.4211 29.5148 43.8143 30 43.8143Z" fill="white"/>
<path d="M34.0869 43.8143C34.5726 43.8143 34.9658 43.4211 34.9658 42.9354V40.2382C34.9658 39.7525 34.5726 39.3593 34.0869 39.3593C33.6017 39.3593 33.208 39.7525 33.208 40.2382V42.9354C33.208 43.4211 33.6017 43.8143 34.0869 43.8143Z" fill="white"/>
<path d="M59.1211 44.945C59.6063 44.945 60 44.5513 60 44.0661V20.3251C60 18.96 58.8895 17.8495 57.5244 17.8495H57.3615V9.50629C57.3615 7.86475 56.0257 6.52945 54.3842 6.52945H31.0341C30.6578 6.52945 30.2962 6.35138 30.0673 6.05292L26.9366 1.97745C26.3773 1.24869 25.4947 0.813354 24.576 0.813354H5.61584C3.9743 0.813354 2.63855 2.14865 2.63855 3.79019V8.58664C2.63855 9.07187 3.03223 9.46555 3.51746 9.46555C4.00314 9.46555 4.39636 9.07187 4.39636 8.58664V3.79019C4.39636 3.11774 4.94339 2.57117 5.61584 2.57117H24.576C24.9522 2.57117 25.3134 2.74924 25.5428 3.0477L28.6729 7.12317C29.2323 7.85193 30.1154 8.28726 31.0341 8.28726H54.3842C55.0566 8.28726 55.6036 8.83383 55.6036 9.50629V17.8495H53.524V12.6177C53.524 11.5337 52.6419 10.6516 51.5579 10.6516H8.44254C7.35809 10.6516 6.47598 11.5337 6.47598 12.6177V17.8495H4.39636V12.6951C4.39636 12.2094 4.00314 11.8162 3.51746 11.8162C3.03223 11.8162 2.63855 12.2094 2.63855 12.6951V17.8495H2.47559C1.11053 17.8495 0 18.96 0 20.3251V51.1371C0 52.5022 1.11053 53.6127 2.47559 53.6127H57.5244C58.8895 53.6127 60 52.5022 60 51.1371V48.1585C60 47.6728 59.6063 47.2796 59.1211 47.2796C58.6354 47.2796 58.2422 47.6728 58.2422 48.1585V51.1371C58.2422 51.5331 57.9199 51.8549 57.5244 51.8549H2.47559C2.07962 51.8549 1.75781 51.5331 1.75781 51.1371V20.3251C1.75781 19.9291 2.07962 19.6073 2.47559 19.6073H57.5244C57.9199 19.6073 58.2422 19.9291 58.2422 20.3251V44.0661C58.2422 44.5513 58.6359 44.945 59.1211 44.945ZM51.7662 17.8495H8.2338V12.6177C8.2338 12.5028 8.32718 12.4094 8.44208 12.4094H51.5575C51.6724 12.4094 51.7662 12.5028 51.7662 12.6177V17.8495Z" fill="white"/>
</svg>
