<svg width="12" height="37" viewBox="0 0 12 37" fill="none" xmlns="http://www.w3.org/2000/svg">
<mask maskUnits="userSpaceOnUse" x="0" y="0" width="0" height="0" fill="black">
<rect fill="white" width="0" height="0"/>
</mask>
<path d="M6.28033 0.52924C5.98744 0.236347 5.51256 0.236347 5.21967 0.52924L0.446699 5.30221C0.153806 5.5951 0.153805 6.06998 0.446699 6.36287C0.739592 6.65576 1.21447 6.65576 1.50736 6.36287L5.75 2.12023L9.99264 6.36287C10.2855 6.65576 10.7604 6.65576 11.0533 6.36287C11.3462 6.06998 11.3462 5.5951 11.0533 5.30221L6.28033 0.52924ZM5.21967 36.6845C5.51256 36.9774 5.98744 36.9774 6.28033 36.6845L11.0533 31.9115C11.3462 31.6186 11.3462 31.1437 11.0533 30.8508C10.7604 30.558 10.2855 30.558 9.99264 30.8508L5.75 35.0935L1.50736 30.8508C1.21446 30.558 0.739591 30.558 0.446698 30.8508C0.153804 31.1437 0.153804 31.6186 0.446698 31.9115L5.21967 36.6845ZM5 1.05957L5 36.1541L6.5 36.1541L6.5 1.05957L5 1.05957Z" fill="#3F4862" mask="url(#)"/>
</svg>
