<svg width="283" height="60" viewBox="0 0 283 60" fill="none" xmlns="http://www.w3.org/2000/svg">
<path d="M48.0219 18.7408C51.9828 18.7408 55.1936 21.8765 55.1936 25.7443C55.1936 29.6127 51.9828 32.7482 48.0219 32.7482C44.061 32.7482 40.8501 29.6127 40.8501 25.7443C40.8501 21.8765 44.061 18.7408 48.0219 18.7408ZM48.4999 17.8926C53.1944 17.8926 57 21.453 57 25.8446C57 30.2367 53.1944 33.7971 48.4999 33.7971C43.8056 33.7971 40 30.2367 40 25.8446C40 21.453 43.8056 17.8926 48.4999 17.8926Z" fill="white"/>
<path d="M7.00101 6.33091C6.85622 6.24432 22.2863 -1.14944 31.5588 8.97072C31.0972 8.95974 30.6151 8.96196 30.1838 8.9947C14.5598 10.1952 12.8136 32.3924 16.2526 44.1082C20.4972 58.566 26.4292 58.6478 26.4292 58.6478C23.473 58.5641 19.8632 48.7356 19.3103 46.6248C20.9885 44.2401 24.3994 40.0961 28.8781 38.2919C35.3541 35.6826 39 37.9657 39 37.9657C34.1848 32.3658 22.2436 37.1782 18.3905 42.0596C18.279 41.3387 18.2299 40.6005 18.1032 39.8684C16.6494 31.4727 19.9081 8.89294 33.8204 12.0462C36.7148 17.1383 35.5717 22.0055 34.2647 24.54C31.7054 29.5018 28.523 31.2511 23.3808 32.041C23.3808 32.041 30.8906 32.9105 35.2443 28.1273C39.5974 23.3442 39.5974 15.1908 37.0947 9.21185C32.03 -2.88505 14.291 -2.23538 7.00101 6.33091V6.33091Z" fill="white"/>
<path d="M23.9396 2.52285C3.97511 2.33461 -1.82623 27.1385 5.16741 41.2638C14.1748 59.4563 30.203 60.4326 45.5559 49.0745C57.3114 40.3779 62.6869 27.1552 59.0145 17.6157C65.7446 26.9466 60.7208 42.2261 47.7186 51.8451C30.7639 64.3881 14.6655 61.8962 4.62492 43.6511C-4.64019 26.8163 -0.854115 -2.31503 23.9396 2.52285V2.52285Z" fill="white"/>
<path d="M47.5499 18.7408C51.2778 18.7408 54.2997 21.8765 54.2997 25.7443C54.2997 29.6127 51.2778 32.7482 47.5499 32.7482C43.8221 32.7482 40.8 29.6127 40.8 25.7443C40.8 21.8765 43.8221 18.7408 47.5499 18.7408ZM47.9998 17.8926C52.4182 17.8926 56 21.453 56 25.8446C56 30.2367 52.4182 33.7971 47.9998 33.7971C43.5816 33.7971 40 30.2367 40 25.8446C40 21.453 43.5816 17.8926 47.9998 17.8926Z" fill="white"/>
<path d="M78.7579 31.2121C78.5558 31.2121 78.3739 31.1414 78.2122 31C78.0707 30.8384 78 30.6566 78 30.4545V10.7576C78 10.5354 78.0707 10.3535 78.2122 10.2121C78.3739 10.0707 78.5558 10 78.7579 10H87.2465C89.8335 10 91.8647 10.596 93.3401 11.7879C94.8357 12.9798 95.5835 14.7172 95.5835 17C95.5835 19.2626 94.8458 20.9697 93.3704 22.1212C91.895 23.2525 89.8537 23.8182 87.2465 23.8182H83.6389V30.4545C83.6389 30.6768 83.558 30.8586 83.3963 31C83.2548 31.1414 83.0729 31.2121 82.8506 31.2121H78.7579ZM87.0949 19.6364C87.9842 19.6364 88.6815 19.4141 89.1868 18.9697C89.692 18.5051 89.9447 17.8283 89.9447 16.9394C89.9447 16.1111 89.7021 15.4545 89.2171 14.9697C88.7522 14.4646 88.0448 14.2121 87.0949 14.2121H83.5479V19.6364H87.0949Z" fill="white"/>
<path d="M105.43 31.5152C103.004 31.5152 101.094 30.8586 99.6999 29.5455C98.3054 28.2323 97.5778 26.3232 97.5171 23.8182V22.7576C97.598 20.3737 98.3357 18.5152 99.7302 17.1818C101.145 15.8283 103.035 15.1515 105.399 15.1515C107.117 15.1515 108.562 15.5051 109.735 16.2121C110.927 16.899 111.816 17.8485 112.402 19.0606C113.009 20.2727 113.312 21.6667 113.312 23.2424V23.9697C113.312 24.1717 113.241 24.3535 113.1 24.5152C112.958 24.6566 112.776 24.7273 112.554 24.7273H102.853V24.9394C102.893 25.8889 103.126 26.6566 103.55 27.2424C103.975 27.8283 104.591 28.1212 105.399 28.1212C105.905 28.1212 106.319 28.0202 106.642 27.8182C106.966 27.596 107.259 27.3333 107.522 27.0303C107.703 26.8081 107.845 26.6768 107.946 26.6364C108.067 26.5758 108.249 26.5455 108.492 26.5455H112.251C112.433 26.5455 112.584 26.6061 112.706 26.7273C112.847 26.8283 112.918 26.9697 112.918 27.1515C112.918 27.6768 112.615 28.2828 112.008 28.9697C111.422 29.6566 110.563 30.2525 109.431 30.7576C108.3 31.2626 106.966 31.5152 105.43 31.5152ZM107.976 21.7273V21.6667C107.976 20.6768 107.744 19.899 107.279 19.3333C106.834 18.7475 106.208 18.4545 105.399 18.4545C104.611 18.4545 103.985 18.7475 103.52 19.3333C103.075 19.899 102.853 20.6768 102.853 21.6667V21.7273H107.976Z" fill="white"/>
<path d="M116.912 31.2121C116.69 31.2121 116.508 31.1414 116.366 31C116.225 30.8586 116.154 30.6768 116.154 30.4545V16.2121C116.154 15.9899 116.225 15.8081 116.366 15.6667C116.508 15.5253 116.69 15.4545 116.912 15.4545H130.797C131.019 15.4545 131.201 15.5253 131.343 15.6667C131.504 15.8081 131.585 15.9899 131.585 16.2121V30.4545C131.585 30.6768 131.504 30.8586 131.343 31C131.201 31.1414 131.019 31.2121 130.797 31.2121H127.22C127.018 31.2121 126.836 31.1414 126.674 31C126.532 30.8384 126.462 30.6566 126.462 30.4545V19.4242H121.247V30.4545C121.247 30.6566 121.177 30.8384 121.035 31C120.894 31.1414 120.712 31.2121 120.489 31.2121H116.912Z" fill="white"/>
<path d="M136.008 36.9697C135.806 36.9697 135.624 36.899 135.462 36.7576C135.321 36.6162 135.25 36.4343 135.25 36.2121V16.2121C135.25 15.9899 135.321 15.8081 135.462 15.6667C135.624 15.5253 135.806 15.4545 136.008 15.4545H139.434C139.656 15.4545 139.838 15.5253 139.979 15.6667C140.121 15.8081 140.191 15.9899 140.191 16.2121V17.303C141.283 15.8687 142.849 15.1515 144.891 15.1515C146.871 15.1515 148.417 15.7677 149.529 17C150.641 18.2323 151.247 19.9697 151.348 22.2121C151.368 22.4747 151.378 22.8485 151.378 23.3333C151.378 23.8182 151.368 24.1919 151.348 24.4545C151.267 26.6364 150.661 28.3636 149.529 29.6364C148.397 30.8889 146.851 31.5152 144.891 31.5152C142.91 31.5152 141.434 30.8384 140.464 29.4848V36.2121C140.464 36.4343 140.394 36.6162 140.252 36.7576C140.111 36.899 139.929 36.9697 139.706 36.9697H136.008ZM143.253 27.4545C144.203 27.4545 144.88 27.1717 145.285 26.6061C145.709 26.0404 145.952 25.2626 146.012 24.2727C146.053 23.8687 146.073 23.5556 146.073 23.3333C146.073 23.1111 146.053 22.798 146.012 22.3939C145.952 21.404 145.709 20.6263 145.285 20.0606C144.88 19.4949 144.203 19.2121 143.253 19.2121C142.324 19.2121 141.637 19.5051 141.192 20.0909C140.768 20.6566 140.525 21.3939 140.464 22.303L140.434 23.4242L140.464 24.5758C140.505 25.404 140.757 26.0909 141.222 26.6364C141.687 27.1818 142.364 27.4545 143.253 27.4545Z" fill="white"/>
<path d="M161.833 31.5152C159.327 31.5152 157.397 30.9192 156.043 29.7273C154.689 28.5354 153.951 26.8586 153.83 24.697C153.809 24.4343 153.799 23.9798 153.799 23.3333C153.799 22.6869 153.809 22.2323 153.83 21.9697C153.951 19.8283 154.709 18.1616 156.103 16.9697C157.498 15.7576 159.408 15.1515 161.833 15.1515C164.279 15.1515 166.199 15.7576 167.593 16.9697C168.988 18.1616 169.746 19.8283 169.867 21.9697C169.887 22.2323 169.897 22.6869 169.897 23.3333C169.897 23.9798 169.887 24.4343 169.867 24.697C169.746 26.8586 169.008 28.5354 167.654 29.7273C166.3 30.9192 164.36 31.5152 161.833 31.5152ZM161.833 27.8182C162.722 27.8182 163.379 27.5556 163.804 27.0303C164.228 26.4848 164.471 25.6566 164.531 24.5455C164.552 24.3434 164.562 23.9394 164.562 23.3333C164.562 22.7273 164.552 22.3232 164.531 22.1212C164.471 21.0303 164.218 20.2121 163.773 19.6667C163.349 19.1212 162.702 18.8485 161.833 18.8485C160.156 18.8485 159.266 19.9394 159.165 22.1212L159.135 23.3333L159.165 24.5455C159.206 25.6566 159.438 26.4848 159.863 27.0303C160.307 27.5556 160.964 27.8182 161.833 27.8182Z" fill="white"/>
<path d="M172.575 34.5455C172.373 34.5455 172.191 34.4747 172.029 34.3333C171.888 34.1919 171.817 34.0101 171.817 33.7879V28C171.817 27.7778 171.888 27.596 172.029 27.4545C172.191 27.3131 172.373 27.2424 172.575 27.2424H172.878C173.626 27.2222 174.141 26.6667 174.424 25.5758C174.728 24.4848 174.879 22.7879 174.879 20.4848V16.2121C174.879 15.9899 174.95 15.8081 175.091 15.6667C175.253 15.5253 175.435 15.4545 175.637 15.4545H187.551C187.774 15.4545 187.956 15.5253 188.097 15.6667C188.259 15.8081 188.34 15.9899 188.34 16.2121V27.2121H189.613C189.835 27.2121 190.017 27.2828 190.159 27.4242C190.3 27.5657 190.371 27.7475 190.371 27.9697V33.7879C190.371 34.0101 190.3 34.1919 190.159 34.3333C190.017 34.4747 189.835 34.5455 189.613 34.5455H186.036C185.833 34.5455 185.652 34.4747 185.49 34.3333C185.348 34.1919 185.278 34.0101 185.278 33.7879V31.2121H176.941V33.7879C176.941 34.0101 176.87 34.1919 176.728 34.3333C176.587 34.4747 176.405 34.5455 176.183 34.5455H172.575ZM183.216 27.2121V19.4242H179.76V21.0303C179.76 23.9394 179.396 26.0101 178.669 27.2424L183.216 27.2121Z" fill="white"/>
<path d="M207.78 15.4545C207.962 15.4545 208.114 15.5253 208.235 15.6667C208.376 15.7879 208.447 15.9293 208.447 16.0909C208.447 16.2323 208.417 16.3636 208.356 16.4848L202.596 30.3636C201.949 31.8788 201.333 33.101 200.747 34.0303C200.181 34.9596 199.494 35.6869 198.685 36.2121C197.897 36.7374 196.937 37 195.805 37H194.32C194.097 37 193.915 36.9293 193.774 36.7879C193.632 36.6465 193.562 36.4646 193.562 36.2424V33.7879C193.562 33.5657 193.632 33.3838 193.774 33.2424C193.915 33.101 194.097 33.0303 194.32 33.0303H195.381C195.906 33.0303 196.31 32.8788 196.593 32.5758C196.876 32.2727 197.2 31.697 197.563 30.8485L197.715 30.4545L191.682 16.4848C191.621 16.3232 191.591 16.202 191.591 16.1212C191.631 15.9394 191.712 15.7879 191.834 15.6667C191.975 15.5253 192.137 15.4545 192.319 15.4545H195.714C196.139 15.4545 196.432 15.6667 196.593 16.0909L200.019 24.8485L203.627 16.0909C203.788 15.6667 204.092 15.4545 204.536 15.4545H207.78Z" fill="white"/>
<path d="M226.66 30.2121C226.741 30.2929 226.782 30.4242 226.782 30.6061C226.782 30.7677 226.721 30.9091 226.6 31.0303C226.478 31.1515 226.317 31.2121 226.115 31.2121H221.84C221.476 31.2121 221.183 31.0505 220.961 30.7273L217.414 25.2121H215.807V30.4545C215.807 30.6768 215.726 30.8586 215.564 31C215.423 31.1414 215.241 31.2121 215.019 31.2121H211.532C211.31 31.2121 211.128 31.1414 210.987 31C210.845 30.8586 210.774 30.6768 210.774 30.4545V16.2121C210.774 15.9899 210.845 15.8081 210.987 15.6667C211.128 15.5253 211.31 15.4545 211.532 15.4545H215.019C215.241 15.4545 215.423 15.5253 215.564 15.6667C215.726 15.8081 215.807 15.9899 215.807 16.2121V21.2424H217.474L220.718 15.9394C220.941 15.6162 221.224 15.4545 221.567 15.4545H225.448C225.63 15.4545 225.781 15.5152 225.902 15.6364C226.044 15.7576 226.115 15.899 226.115 16.0606C226.115 16.202 226.064 16.3434 225.963 16.4848L221.84 23.0909L226.66 30.2121Z" fill="white"/>
<path d="M242.287 34.7879C242.064 34.7879 241.883 34.7071 241.741 34.5455C241.6 34.404 241.529 34.2222 241.529 34V31.2121H229.918C229.695 31.2121 229.513 31.1414 229.372 31C229.23 30.8586 229.16 30.6768 229.16 30.4545V16.2121C229.16 15.9899 229.23 15.8081 229.372 15.6667C229.513 15.5253 229.695 15.4545 229.918 15.4545H233.495C233.717 15.4545 233.899 15.5253 234.041 15.6667C234.182 15.8081 234.253 15.9899 234.253 16.2121V27.2424H239.467V16.2121C239.467 15.9899 239.538 15.8081 239.68 15.6667C239.841 15.5253 240.023 15.4545 240.225 15.4545H243.803C244.025 15.4545 244.207 15.5253 244.348 15.6667C244.51 15.8081 244.591 15.9899 244.591 16.2121L244.56 27.2424H245.864C246.086 27.2424 246.268 27.3131 246.41 27.4545C246.551 27.596 246.622 27.7778 246.622 28V34C246.622 34.2222 246.551 34.404 246.41 34.5455C246.268 34.7071 246.086 34.7879 245.864 34.7879H242.287Z" fill="white"/>
<path d="M264.365 15.4545C264.567 15.4545 264.739 15.5253 264.88 15.6667C265.022 15.8081 265.092 15.9798 265.092 16.1818V30.4545C265.092 30.6566 265.022 30.8384 264.88 31C264.739 31.1414 264.557 31.2121 264.334 31.2121H260.757C260.555 31.2121 260.373 31.1414 260.211 31C260.07 30.8384 259.999 30.6566 259.999 30.4545V21.9697L253.845 30.7273C253.623 31.0505 253.34 31.2121 252.996 31.2121H249.782C249.58 31.2121 249.409 31.1414 249.267 31C249.126 30.8586 249.055 30.6869 249.055 30.4848V16.2121C249.055 15.9899 249.126 15.8081 249.267 15.6667C249.409 15.5253 249.59 15.4545 249.813 15.4545H253.39C253.612 15.4545 253.794 15.5253 253.936 15.6667C254.077 15.8081 254.148 15.9899 254.148 16.2121V24.6667L260.272 15.9394C260.494 15.6162 260.777 15.4545 261.121 15.4545H264.365Z" fill="white"/>
<path d="M282.242 15.4545C282.464 15.4545 282.646 15.5253 282.788 15.6667C282.929 15.8081 283 15.9899 283 16.2121V30.4545C283 30.6566 282.929 30.8384 282.788 31C282.646 31.1414 282.464 31.2121 282.242 31.2121H278.543C278.341 31.2121 278.159 31.1414 277.998 31C277.856 30.8384 277.786 30.6566 277.786 30.4545V26.1515H275.603L273.087 30.7576C272.925 31.0606 272.682 31.2121 272.359 31.2121H268.751C268.549 31.2121 268.388 31.1515 268.266 31.0303C268.145 30.9091 268.084 30.7677 268.084 30.6061C268.084 30.4444 268.135 30.303 268.236 30.1818L271.268 25.2121C270.398 24.7677 269.742 24.1717 269.297 23.4242C268.852 22.6566 268.63 21.7677 268.63 20.7576C268.63 19.0404 269.196 17.7273 270.328 16.8182C271.46 15.9091 273.046 15.4545 275.087 15.4545H282.242ZM277.877 18.9394H275.36C274.612 18.9394 274.057 19.0808 273.693 19.3636C273.349 19.6465 273.177 20.1111 273.177 20.7576C273.177 21.3636 273.349 21.8384 273.693 22.1818C274.036 22.5051 274.552 22.6667 275.239 22.6667H277.877V18.9394Z" fill="white"/>
<path d="M77.2378 47.2921C77.1658 47.2921 77.1081 47.2742 77.0649 47.2382C77.0216 47.2022 77 47.1543 77 47.0944V41.2067C77 41.1468 77.0216 41.0989 77.0649 41.0629C77.1081 41.021 77.1658 41 77.2378 41H82.2864C82.3656 41 82.4269 41.018 82.4701 41.0539C82.5134 41.0899 82.535 41.1408 82.535 41.2067V47.0944C82.535 47.1543 82.5098 47.2022 82.4593 47.2382C82.4161 47.2742 82.3584 47.2921 82.2864 47.2921H82.0918C82.0197 47.2921 81.9621 47.2742 81.9188 47.2382C81.8756 47.2022 81.8539 47.1543 81.8539 47.0944V41.5393H77.6811V47.0944C77.6811 47.1543 77.6558 47.2022 77.6054 47.2382C77.5621 47.2742 77.5045 47.2921 77.4324 47.2921H77.2378Z" fill="white"/>
<path d="M84.6776 49C84.6055 49 84.5479 48.982 84.5046 48.9461C84.4614 48.9101 84.4398 48.8622 84.4398 48.8022V42.8157C84.4398 42.7558 84.4614 42.7079 84.5046 42.6719C84.5479 42.636 84.6055 42.618 84.6776 42.618H84.8614C84.9335 42.618 84.9911 42.636 85.0344 42.6719C85.0776 42.7079 85.0992 42.7558 85.0992 42.8157V43.2382C85.5172 42.7648 86.1226 42.5281 86.9154 42.5281C87.6938 42.5281 88.2667 42.7348 88.6343 43.1483C89.009 43.5558 89.2072 44.0592 89.2289 44.6584C89.2361 44.7184 89.2397 44.8172 89.2397 44.9551C89.2397 45.0929 89.2361 45.1918 89.2289 45.2517C89.2072 45.8509 89.009 46.3573 88.6343 46.7708C88.2667 47.1783 87.6938 47.382 86.9154 47.382C86.1298 47.382 85.5244 47.1453 85.0992 46.6719V48.8022C85.0992 48.8622 85.0776 48.9101 85.0344 48.9461C84.9911 48.982 84.9335 49 84.8614 49H84.6776ZM86.8505 46.8607C87.4343 46.8607 87.8595 46.7079 88.1262 46.4022C88.4001 46.0906 88.5478 45.6921 88.5694 45.2067C88.5766 45.1468 88.5802 45.0629 88.5802 44.9551C88.5802 44.3978 88.4505 43.9423 88.191 43.5888C87.9316 43.2292 87.4848 43.0494 86.8505 43.0494C86.2812 43.0494 85.8524 43.2082 85.5641 43.5258C85.2758 43.8375 85.1208 44.206 85.0992 44.6315L85.0884 44.982L85.0992 45.3326C85.1064 45.5903 85.1749 45.836 85.3046 46.0697C85.4344 46.2974 85.6289 46.4861 85.8884 46.636C86.1479 46.7858 86.4686 46.8607 86.8505 46.8607Z" fill="white"/>
<path d="M92.851 47.382C92.1015 47.382 91.5177 47.1933 91.0997 46.8157C90.6889 46.4322 90.4727 45.9378 90.451 45.3326L90.4402 44.9551L90.451 44.5775C90.4727 43.9723 90.6889 43.4809 91.0997 43.1034C91.5177 42.7199 92.1015 42.5281 92.851 42.5281C93.6005 42.5281 94.1807 42.7199 94.5915 43.1034C95.0095 43.4809 95.2293 43.9723 95.2509 44.5775C95.2581 44.6375 95.2618 44.7633 95.2618 44.9551C95.2618 45.1468 95.2581 45.2727 95.2509 45.3326C95.2293 45.9378 95.0095 46.4322 94.5915 46.8157C94.1807 47.1933 93.6005 47.382 92.851 47.382ZM92.851 46.8607C93.3627 46.8607 93.7735 46.7258 94.0834 46.4562C94.4005 46.1805 94.5699 45.791 94.5915 45.2876C94.5987 45.2277 94.6023 45.1169 94.6023 44.9551C94.6023 44.7933 94.5987 44.6824 94.5915 44.6225C94.5699 44.1191 94.4005 43.7326 94.0834 43.4629C93.7735 43.1873 93.3627 43.0494 92.851 43.0494C92.3393 43.0494 91.9249 43.1873 91.6078 43.4629C91.2979 43.7326 91.1321 44.1191 91.1105 44.6225L91.0997 44.9551L91.1105 45.2876C91.1321 45.791 91.2979 46.1805 91.6078 46.4562C91.9249 46.7258 92.3393 46.8607 92.851 46.8607Z" fill="white"/>
<path d="M96.9765 47.2921C96.9044 47.2921 96.8468 47.2742 96.8035 47.2382C96.7603 47.2022 96.7387 47.1543 96.7387 47.0944V42.8157C96.7387 42.7558 96.7603 42.7079 96.8035 42.6719C96.8468 42.636 96.9044 42.618 96.9765 42.618H100.036C100.108 42.618 100.166 42.636 100.209 42.6719C100.252 42.7079 100.274 42.7558 100.274 42.8157V42.9416C100.274 43.0015 100.252 43.0494 100.209 43.0854C100.166 43.1213 100.108 43.1393 100.036 43.1393H97.3981V47.0944C97.3981 47.1543 97.3765 47.2022 97.3332 47.2382C97.29 47.2742 97.2323 47.2921 97.1603 47.2921H96.9765Z" fill="white"/>
<path d="M101.506 49C101.434 49 101.376 48.982 101.333 48.9461C101.29 48.9101 101.268 48.8622 101.268 48.8022V42.8157C101.268 42.7558 101.29 42.7079 101.333 42.6719C101.376 42.636 101.434 42.618 101.506 42.618H101.69C101.762 42.618 101.819 42.636 101.863 42.6719C101.906 42.7079 101.927 42.7558 101.927 42.8157V43.2382C102.345 42.7648 102.951 42.5281 103.744 42.5281C104.522 42.5281 105.095 42.7348 105.462 43.1483C105.837 43.5558 106.035 44.0592 106.057 44.6584C106.064 44.7184 106.068 44.8172 106.068 44.9551C106.068 45.0929 106.064 45.1918 106.057 45.2517C106.035 45.8509 105.837 46.3573 105.462 46.7708C105.095 47.1783 104.522 47.382 103.744 47.382C102.958 47.382 102.353 47.1453 101.927 46.6719V48.8022C101.927 48.8622 101.906 48.9101 101.863 48.9461C101.819 48.982 101.762 49 101.69 49H101.506ZM103.679 46.8607C104.262 46.8607 104.688 46.7079 104.954 46.4022C105.228 46.0906 105.376 45.6921 105.398 45.2067C105.405 45.1468 105.408 45.0629 105.408 44.9551C105.408 44.3978 105.279 43.9423 105.019 43.5888C104.76 43.2292 104.313 43.0494 103.679 43.0494C103.109 43.0494 102.681 43.2082 102.392 43.5258C102.104 43.8375 101.949 44.206 101.927 44.6315L101.917 44.982L101.927 45.3326C101.935 45.5903 102.003 45.836 102.133 46.0697C102.263 46.2974 102.457 46.4861 102.717 46.636C102.976 46.7858 103.297 46.8607 103.679 46.8607Z" fill="white"/>
<path d="M109.052 47.382C108.706 47.382 108.385 47.3221 108.09 47.2022C107.795 47.0824 107.557 46.9206 107.377 46.7169C107.204 46.5131 107.117 46.2884 107.117 46.0427C107.117 45.6472 107.308 45.3236 107.69 45.0719C108.079 44.8202 108.602 44.6584 109.258 44.5865L110.966 44.3888V44.0742C110.966 43.7446 110.843 43.4929 110.598 43.3191C110.36 43.1393 109.993 43.0494 109.495 43.0494C109.128 43.0494 108.825 43.1094 108.587 43.2292C108.357 43.3491 108.209 43.4929 108.144 43.6607C108.115 43.7326 108.079 43.7835 108.036 43.8135C108 43.8375 107.949 43.8494 107.885 43.8494H107.733C107.668 43.8494 107.611 43.8315 107.56 43.7955C107.517 43.7536 107.495 43.7056 107.495 43.6517C107.495 43.5199 107.567 43.367 107.712 43.1933C107.856 43.0135 108.079 42.8577 108.382 42.7258C108.685 42.594 109.056 42.5281 109.495 42.5281C110.267 42.5281 110.814 42.6809 111.139 42.9865C111.463 43.2921 111.625 43.6637 111.625 44.1011V47.0944C111.625 47.1543 111.603 47.2022 111.56 47.2382C111.517 47.2742 111.459 47.2921 111.387 47.2921H111.203C111.131 47.2921 111.074 47.2742 111.03 47.2382C110.987 47.2022 110.966 47.1543 110.966 47.0944V46.6719C110.807 46.8697 110.573 47.0375 110.263 47.1753C109.96 47.3131 109.557 47.382 109.052 47.382ZM109.16 46.8607C109.686 46.8607 110.119 46.7169 110.458 46.4292C110.796 46.1416 110.966 45.7281 110.966 45.1888V44.8831L109.571 45.0449C108.98 45.1109 108.533 45.2247 108.231 45.3865C107.928 45.5483 107.777 45.7521 107.777 45.9978C107.777 46.2734 107.913 46.4861 108.187 46.636C108.468 46.7858 108.793 46.8607 109.16 46.8607Z" fill="white"/>
<path d="M118.545 42.618C118.603 42.618 118.653 42.636 118.697 42.6719C118.74 42.7079 118.761 42.7468 118.761 42.7888V47.0944C118.761 47.1543 118.74 47.2022 118.697 47.2382C118.653 47.2742 118.596 47.2921 118.524 47.2921H118.34C118.268 47.2921 118.21 47.2742 118.167 47.2382C118.124 47.2022 118.102 47.1543 118.102 47.0944V43.7326L116.524 46.2764C116.466 46.3603 116.412 46.4232 116.362 46.4652C116.318 46.5071 116.25 46.5281 116.156 46.5281H115.94C115.846 46.5281 115.774 46.5071 115.724 46.4652C115.68 46.4232 115.63 46.3603 115.572 46.2764L113.994 43.8045V47.0944C113.994 47.1543 113.972 47.2022 113.929 47.2382C113.886 47.2742 113.828 47.2921 113.756 47.2921H113.572C113.5 47.2921 113.443 47.2742 113.399 47.2382C113.356 47.2022 113.335 47.1543 113.335 47.0944V42.7888C113.335 42.7468 113.356 42.7079 113.399 42.6719C113.443 42.636 113.493 42.618 113.551 42.618H113.799C113.908 42.618 113.99 42.6629 114.048 42.7528L116.048 45.8989L118.048 42.7528C118.106 42.6629 118.189 42.618 118.297 42.618H118.545Z" fill="white"/>
<path d="M125.724 42.618C125.782 42.618 125.832 42.636 125.876 42.6719C125.919 42.7079 125.94 42.7468 125.94 42.7888V47.0944C125.94 47.1543 125.919 47.2022 125.876 47.2382C125.832 47.2742 125.775 47.2921 125.703 47.2921H125.519C125.447 47.2921 125.389 47.2742 125.346 47.2382C125.303 47.2022 125.281 47.1543 125.281 47.0944V43.7326L123.703 46.2764C123.645 46.3603 123.591 46.4232 123.54 46.4652C123.497 46.5071 123.429 46.5281 123.335 46.5281H123.119C123.025 46.5281 122.953 46.5071 122.903 46.4652C122.859 46.4232 122.809 46.3603 122.751 46.2764L121.173 43.8045V47.0944C121.173 47.1543 121.151 47.2022 121.108 47.2382C121.065 47.2742 121.007 47.2921 120.935 47.2921H120.751C120.679 47.2921 120.622 47.2742 120.578 47.2382C120.535 47.2022 120.513 47.1543 120.513 47.0944V42.7888C120.513 42.7468 120.535 42.7079 120.578 42.6719C120.622 42.636 120.672 42.618 120.73 42.618H120.978C121.086 42.618 121.169 42.6629 121.227 42.7528L123.227 45.8989L125.227 42.7528C125.285 42.6629 125.367 42.618 125.476 42.618H125.724Z" fill="white"/>
<path d="M127.93 47.2921C127.858 47.2921 127.8 47.2742 127.757 47.2382C127.714 47.2022 127.692 47.1543 127.692 47.0944V42.8157C127.692 42.7558 127.714 42.7079 127.757 42.6719C127.8 42.636 127.858 42.618 127.93 42.618H128.114C128.186 42.618 128.244 42.636 128.287 42.6719C128.33 42.7079 128.352 42.7558 128.352 42.8157V44.182H129.541C130.903 44.182 131.584 44.7124 131.584 45.773C131.584 46.3004 131.404 46.6869 131.044 46.9326C130.69 47.1723 130.136 47.2921 129.379 47.2921H127.93ZM132.644 47.2921C132.572 47.2921 132.514 47.2742 132.471 47.2382C132.427 47.2022 132.406 47.1543 132.406 47.0944V42.8157C132.406 42.7558 132.427 42.7079 132.471 42.6719C132.514 42.636 132.572 42.618 132.644 42.618H132.827C132.899 42.618 132.957 42.636 133 42.6719C133.044 42.7079 133.065 42.7558 133.065 42.8157V47.0944C133.065 47.1543 133.044 47.2022 133 47.2382C132.957 47.2742 132.899 47.2921 132.827 47.2921H132.644ZM129.476 46.7708C129.988 46.7708 130.355 46.6959 130.579 46.5461C130.809 46.3963 130.925 46.1386 130.925 45.773C130.925 45.4075 130.809 45.1378 130.579 44.964C130.355 44.7903 129.988 44.7034 129.476 44.7034H128.352V46.7708H129.476Z" fill="white"/>
<path d="M137.184 48.2809C137.112 48.2809 137.054 48.2629 137.011 48.227C136.968 48.191 136.946 48.1431 136.946 48.0831V46.9685C136.946 46.9086 136.968 46.8607 137.011 46.8247C137.054 46.7888 137.112 46.7708 137.184 46.7708H137.216C137.887 46.7588 138.222 45.809 138.222 43.9213V42.8157C138.222 42.7558 138.243 42.7079 138.287 42.6719C138.33 42.636 138.388 42.618 138.46 42.618H141.573C141.645 42.618 141.703 42.636 141.746 42.6719C141.789 42.7079 141.811 42.7558 141.811 42.8157V46.7528H142.341C142.413 46.7528 142.47 46.7708 142.514 46.8067C142.557 46.8427 142.578 46.8906 142.578 46.9506V48.0831C142.578 48.1431 142.557 48.191 142.514 48.227C142.47 48.2629 142.413 48.2809 142.341 48.2809H142.157C142.085 48.2809 142.027 48.2629 141.984 48.227C141.941 48.191 141.919 48.1431 141.919 48.0831V47.2921H137.606V48.0831C137.606 48.1431 137.584 48.191 137.541 48.227C137.497 48.2629 137.44 48.2809 137.368 48.2809H137.184ZM141.151 46.7528V43.1393H138.881V43.9843C138.881 45.3446 138.643 46.2734 138.168 46.7708L141.151 46.7528Z" fill="white"/>
<path d="M145.975 47.382C145.225 47.382 144.641 47.1933 144.223 46.8157C143.813 46.4322 143.596 45.9378 143.575 45.3326L143.564 44.9551L143.575 44.5775C143.596 43.9723 143.813 43.4809 144.223 43.1034C144.641 42.7199 145.225 42.5281 145.975 42.5281C146.724 42.5281 147.305 42.7199 147.715 43.1034C148.133 43.4809 148.353 43.9723 148.375 44.5775C148.382 44.6375 148.386 44.7633 148.386 44.9551C148.386 45.1468 148.382 45.2727 148.375 45.3326C148.353 45.9378 148.133 46.4322 147.715 46.8157C147.305 47.1933 146.724 47.382 145.975 47.382ZM145.975 46.8607C146.486 46.8607 146.897 46.7258 147.207 46.4562C147.524 46.1805 147.694 45.791 147.715 45.2876C147.723 45.2277 147.726 45.1169 147.726 44.9551C147.726 44.7933 147.723 44.6824 147.715 44.6225C147.694 44.1191 147.524 43.7326 147.207 43.4629C146.897 43.1873 146.486 43.0494 145.975 43.0494C145.463 43.0494 145.049 43.1873 144.732 43.4629C144.422 43.7326 144.256 44.1191 144.234 44.6225L144.223 44.9551L144.234 45.2876C144.256 45.791 144.422 46.1805 144.732 46.4562C145.049 46.7258 145.463 46.8607 145.975 46.8607Z" fill="white"/>
<path d="M149.4 47.2921C149.328 47.2921 149.267 47.2742 149.216 47.2382C149.173 47.1963 149.152 47.1453 149.152 47.0854V46.9416C149.152 46.8876 149.17 46.8427 149.206 46.8067C149.249 46.7708 149.303 46.7528 149.368 46.7528C149.735 46.7528 150.016 46.5311 150.211 46.0876C150.406 45.6442 150.503 44.9221 150.503 43.9213V42.8157C150.503 42.7558 150.524 42.7079 150.568 42.6719C150.611 42.636 150.669 42.618 150.741 42.618H153.832C153.905 42.618 153.962 42.636 154.005 42.6719C154.049 42.7079 154.07 42.7558 154.07 42.8157V47.0944C154.07 47.1543 154.049 47.2022 154.005 47.2382C153.962 47.2742 153.905 47.2921 153.832 47.2921H153.649C153.577 47.2921 153.519 47.2742 153.476 47.2382C153.432 47.2022 153.411 47.1543 153.411 47.0944V43.1393H151.162V43.9843C151.162 46.1895 150.575 47.2921 149.4 47.2921Z" fill="white"/>
<path d="M156.055 47.2921C155.982 47.2921 155.925 47.2742 155.882 47.2382C155.838 47.2022 155.817 47.1543 155.817 47.0944V42.8157C155.817 42.7558 155.838 42.7079 155.882 42.6719C155.925 42.636 155.982 42.618 156.055 42.618H159.114C159.186 42.618 159.244 42.636 159.287 42.6719C159.33 42.7079 159.352 42.7558 159.352 42.8157V42.9416C159.352 43.0015 159.33 43.0494 159.287 43.0854C159.244 43.1213 159.186 43.1393 159.114 43.1393H156.476V47.0944C156.476 47.1543 156.455 47.2022 156.411 47.2382C156.368 47.2742 156.31 47.2921 156.238 47.2921H156.055Z" fill="white"/>
<path d="M162.349 47.382C161.599 47.382 161.016 47.1933 160.598 46.8157C160.187 46.4322 159.971 45.9378 159.949 45.3326L159.938 44.9551L159.949 44.5775C159.971 43.9723 160.187 43.4809 160.598 43.1034C161.016 42.7199 161.599 42.5281 162.349 42.5281C163.099 42.5281 163.679 42.7199 164.09 43.1034C164.508 43.4809 164.727 43.9723 164.749 44.5775C164.756 44.6375 164.76 44.7633 164.76 44.9551C164.76 45.1468 164.756 45.2727 164.749 45.3326C164.727 45.9378 164.508 46.4322 164.09 46.8157C163.679 47.1933 163.099 47.382 162.349 47.382ZM162.349 46.8607C162.861 46.8607 163.272 46.7258 163.581 46.4562C163.899 46.1805 164.068 45.791 164.09 45.2876C164.097 45.2277 164.1 45.1169 164.1 44.9551C164.1 44.7933 164.097 44.6824 164.09 44.6225C164.068 44.1191 163.899 43.7326 163.581 43.4629C163.272 43.1873 162.861 43.0494 162.349 43.0494C161.837 43.0494 161.423 43.1873 161.106 43.4629C160.796 43.7326 160.63 44.1191 160.609 44.6225L160.598 44.9551L160.609 45.2876C160.63 45.791 160.796 46.1805 161.106 46.4562C161.423 46.7258 161.837 46.8607 162.349 46.8607Z" fill="white"/>
<path d="M173.134 47.0494C173.17 47.0854 173.188 47.1243 173.188 47.1663C173.188 47.2502 173.119 47.2921 172.982 47.2921H172.701C172.593 47.2921 172.5 47.2502 172.42 47.1663L170.712 45.1618H169.75V47.0944C169.75 47.1543 169.728 47.2022 169.685 47.2382C169.642 47.2742 169.584 47.2921 169.512 47.2921H169.328C169.256 47.2921 169.199 47.2742 169.156 47.2382C169.112 47.2022 169.091 47.1543 169.091 47.0944V45.1618H168.129L166.399 47.1663C166.334 47.2502 166.24 47.2921 166.118 47.2921H165.837C165.7 47.2921 165.631 47.2502 165.631 47.1663C165.631 47.1363 165.649 47.0974 165.685 47.0494L167.577 44.8382L165.891 42.8517C165.862 42.8097 165.847 42.7738 165.847 42.7438C165.847 42.6599 165.916 42.618 166.053 42.618H166.269C166.377 42.618 166.471 42.6629 166.55 42.7528L168.139 44.6404H169.091V42.8157C169.091 42.7558 169.112 42.7079 169.156 42.6719C169.199 42.636 169.256 42.618 169.328 42.618H169.512C169.584 42.618 169.642 42.636 169.685 42.6719C169.728 42.7079 169.75 42.7558 169.75 42.8157V44.6404H170.658L172.269 42.7528C172.348 42.6629 172.442 42.618 172.55 42.618H172.766C172.831 42.618 172.882 42.63 172.918 42.6539C172.961 42.6719 172.982 42.7019 172.982 42.7438C172.982 42.7678 172.964 42.8037 172.928 42.8517L171.242 44.8382L173.134 47.0494Z" fill="white"/>
<path d="M173.912 48.2809C173.84 48.2809 173.783 48.2629 173.739 48.227C173.696 48.191 173.675 48.1431 173.675 48.0831V46.9685C173.675 46.9086 173.696 46.8607 173.739 46.8247C173.783 46.7888 173.84 46.7708 173.912 46.7708H173.945C174.615 46.7588 174.95 45.809 174.95 43.9213V42.8157C174.95 42.7558 174.972 42.7079 175.015 42.6719C175.058 42.636 175.116 42.618 175.188 42.618H178.302C178.374 42.618 178.431 42.636 178.474 42.6719C178.518 42.7079 178.539 42.7558 178.539 42.8157V46.7528H179.069C179.141 46.7528 179.199 46.7708 179.242 46.8067C179.285 46.8427 179.307 46.8906 179.307 46.9506V48.0831C179.307 48.1431 179.285 48.191 179.242 48.227C179.199 48.2629 179.141 48.2809 179.069 48.2809H178.885C178.813 48.2809 178.756 48.2629 178.712 48.227C178.669 48.191 178.647 48.1431 178.647 48.0831V47.2921H174.334V48.0831C174.334 48.1431 174.312 48.191 174.269 48.227C174.226 48.2629 174.168 48.2809 174.096 48.2809H173.912ZM177.88 46.7528V43.1393H175.61V43.9843C175.61 45.3446 175.372 46.2734 174.896 46.7708L177.88 46.7528Z" fill="white"/>
<path d="M182.076 47.382C181.73 47.382 181.41 47.3221 181.114 47.2022C180.819 47.0824 180.581 46.9206 180.401 46.7169C180.228 46.5131 180.141 46.2884 180.141 46.0427C180.141 45.6472 180.332 45.3236 180.714 45.0719C181.103 44.8202 181.626 44.6584 182.282 44.5865L183.99 44.3888V44.0742C183.99 43.7446 183.867 43.4929 183.622 43.3191C183.384 43.1393 183.017 43.0494 182.52 43.0494C182.152 43.0494 181.849 43.1094 181.611 43.2292C181.381 43.3491 181.233 43.4929 181.168 43.6607C181.139 43.7326 181.103 43.7835 181.06 43.8135C181.024 43.8375 180.974 43.8494 180.909 43.8494H180.757C180.693 43.8494 180.635 43.8315 180.584 43.7955C180.541 43.7536 180.52 43.7056 180.52 43.6517C180.52 43.5199 180.592 43.367 180.736 43.1933C180.88 43.0135 181.103 42.8577 181.406 42.7258C181.709 42.594 182.08 42.5281 182.52 42.5281C183.291 42.5281 183.838 42.6809 184.163 42.9865C184.487 43.2921 184.649 43.6637 184.649 44.1011V47.0944C184.649 47.1543 184.628 47.2022 184.584 47.2382C184.541 47.2742 184.483 47.2921 184.411 47.2921H184.228C184.156 47.2921 184.098 47.2742 184.055 47.2382C184.011 47.2022 183.99 47.1543 183.99 47.0944V46.6719C183.831 46.8697 183.597 47.0375 183.287 47.1753C182.984 47.3131 182.581 47.382 182.076 47.382ZM182.184 46.8607C182.71 46.8607 183.143 46.7169 183.482 46.4292C183.82 46.1416 183.99 45.7281 183.99 45.1888V44.8831L182.595 45.0449C182.004 45.1109 181.557 45.2247 181.255 45.3865C180.952 45.5483 180.801 45.7521 180.801 45.9978C180.801 46.2734 180.938 46.4861 181.211 46.636C181.493 46.7858 181.817 46.8607 182.184 46.8607Z" fill="white"/>
<path d="M186.597 47.2921C186.524 47.2921 186.467 47.2742 186.424 47.2382C186.38 47.2022 186.359 47.1543 186.359 47.0944V42.8157C186.359 42.7558 186.38 42.7079 186.424 42.6719C186.467 42.636 186.524 42.618 186.597 42.618H186.78C186.852 42.618 186.91 42.636 186.953 42.6719C186.997 42.7079 187.018 42.7558 187.018 42.8157V44.6404H190.391V42.8157C190.391 42.7558 190.413 42.7079 190.456 42.6719C190.499 42.636 190.557 42.618 190.629 42.618H190.813C190.885 42.618 190.942 42.636 190.986 42.6719C191.029 42.7079 191.05 42.7558 191.05 42.8157V47.0944C191.05 47.1543 191.029 47.2022 190.986 47.2382C190.942 47.2742 190.885 47.2921 190.813 47.2921H190.629C190.557 47.2921 190.499 47.2742 190.456 47.2382C190.413 47.2022 190.391 47.1543 190.391 47.0944V45.1618H187.018V47.0944C187.018 47.1543 186.997 47.2022 186.953 47.2382C186.91 47.2742 186.852 47.2921 186.78 47.2921H186.597Z" fill="white"/>
<path d="M193.036 47.2921C192.964 47.2921 192.907 47.2742 192.863 47.2382C192.82 47.2022 192.799 47.1543 192.799 47.0944V42.8157C192.799 42.7558 192.82 42.7079 192.863 42.6719C192.907 42.636 192.964 42.618 193.036 42.618H193.22C193.292 42.618 193.35 42.636 193.393 42.6719C193.436 42.7079 193.458 42.7558 193.458 42.8157V44.6404H196.831V42.8157C196.831 42.7558 196.853 42.7079 196.896 42.6719C196.939 42.636 196.997 42.618 197.069 42.618H197.253C197.325 42.618 197.382 42.636 197.426 42.6719C197.469 42.7079 197.49 42.7558 197.49 42.8157V47.0944C197.49 47.1543 197.469 47.2022 197.426 47.2382C197.382 47.2742 197.325 47.2921 197.253 47.2921H197.069C196.997 47.2921 196.939 47.2742 196.896 47.2382C196.853 47.2022 196.831 47.1543 196.831 47.0944V45.1618H193.458V47.0944C193.458 47.1543 193.436 47.2022 193.393 47.2382C193.35 47.2742 193.292 47.2921 193.22 47.2921H193.036Z" fill="white"/>
<path d="M201.379 47.382C200.629 47.382 200.046 47.1933 199.628 46.8157C199.217 46.4322 199.001 45.9378 198.979 45.3326L198.968 44.9551L198.979 44.5775C199.001 43.9723 199.217 43.4809 199.628 43.1034C200.046 42.7199 200.629 42.5281 201.379 42.5281C202.129 42.5281 202.709 42.7199 203.119 43.1034C203.537 43.4809 203.757 43.9723 203.779 44.5775C203.786 44.6375 203.79 44.7633 203.79 44.9551C203.79 45.1468 203.786 45.2727 203.779 45.3326C203.757 45.9378 203.537 46.4322 203.119 46.8157C202.709 47.1933 202.129 47.382 201.379 47.382ZM201.379 46.8607C201.891 46.8607 202.301 46.7258 202.611 46.4562C202.928 46.1805 203.098 45.791 203.119 45.2876C203.127 45.2277 203.13 45.1169 203.13 44.9551C203.13 44.7933 203.127 44.6824 203.119 44.6225C203.098 44.1191 202.928 43.7326 202.611 43.4629C202.301 43.1873 201.891 43.0494 201.379 43.0494C200.867 43.0494 200.453 43.1873 200.136 43.4629C199.826 43.7326 199.66 44.1191 199.638 44.6225L199.628 44.9551L199.638 45.2876C199.66 45.791 199.826 46.1805 200.136 46.4562C200.453 46.7258 200.867 46.8607 201.379 46.8607Z" fill="white"/>
<path d="M205.504 47.2921C205.432 47.2921 205.375 47.2742 205.331 47.2382C205.288 47.2022 205.267 47.1543 205.267 47.0944V42.8157C205.267 42.7558 205.288 42.7079 205.331 42.6719C205.375 42.636 205.432 42.618 205.504 42.618H208.564C208.636 42.618 208.694 42.636 208.737 42.6719C208.78 42.7079 208.802 42.7558 208.802 42.8157V42.9416C208.802 43.0015 208.78 43.0494 208.737 43.0854C208.694 43.1213 208.636 43.1393 208.564 43.1393H205.926V47.0944C205.926 47.1543 205.904 47.2022 205.861 47.2382C205.818 47.2742 205.76 47.2921 205.688 47.2921H205.504Z" fill="white"/>
<path d="M211.799 47.382C211.049 47.382 210.466 47.1933 210.048 46.8157C209.637 46.4322 209.421 45.9378 209.399 45.3326L209.388 44.9551L209.399 44.5775C209.421 43.9723 209.637 43.4809 210.048 43.1034C210.466 42.7199 211.049 42.5281 211.799 42.5281C212.548 42.5281 213.129 42.7199 213.539 43.1034C213.957 43.4809 214.177 43.9723 214.199 44.5775C214.206 44.6375 214.21 44.7633 214.21 44.9551C214.21 45.1468 214.206 45.2727 214.199 45.3326C214.177 45.9378 213.957 46.4322 213.539 46.8157C213.129 47.1933 212.548 47.382 211.799 47.382ZM211.799 46.8607C212.311 46.8607 212.721 46.7258 213.031 46.4562C213.348 46.1805 213.518 45.791 213.539 45.2876C213.547 45.2277 213.55 45.1169 213.55 44.9551C213.55 44.7933 213.547 44.6824 213.539 44.6225C213.518 44.1191 213.348 43.7326 213.031 43.4629C212.721 43.1873 212.311 43.0494 211.799 43.0494C211.287 43.0494 210.873 43.1873 210.556 43.4629C210.246 43.7326 210.08 44.1191 210.058 44.6225L210.048 44.9551L210.058 45.2876C210.08 45.791 210.246 46.1805 210.556 46.4562C210.873 46.7258 211.287 46.8607 211.799 46.8607Z" fill="white"/>
<path d="M223.684 42.618C223.742 42.618 223.792 42.636 223.836 42.6719C223.879 42.7079 223.901 42.7468 223.901 42.7888V47.0944C223.901 47.1543 223.879 47.2022 223.836 47.2382C223.792 47.2742 223.735 47.2921 223.663 47.2921H223.479C223.407 47.2921 223.349 47.2742 223.306 47.2382C223.263 47.2022 223.241 47.1543 223.241 47.0944V43.7326L221.663 46.2764C221.605 46.3603 221.551 46.4232 221.501 46.4652C221.457 46.5071 221.389 46.5281 221.295 46.5281H221.079C220.985 46.5281 220.913 46.5071 220.863 46.4652C220.82 46.4232 220.769 46.3603 220.711 46.2764L219.133 43.8045V47.0944C219.133 47.1543 219.112 47.2022 219.068 47.2382C219.025 47.2742 218.967 47.2921 218.895 47.2921H218.712C218.639 47.2921 218.582 47.2742 218.539 47.2382C218.495 47.2022 218.474 47.1543 218.474 47.0944V42.7888C218.474 42.7468 218.495 42.7079 218.539 42.6719C218.582 42.636 218.632 42.618 218.69 42.618H218.939C219.047 42.618 219.13 42.6629 219.187 42.7528L221.187 45.8989L223.187 42.7528C223.245 42.6629 223.328 42.618 223.436 42.618H223.684Z" fill="white"/>
<path d="M227.166 47.382C226.82 47.382 226.499 47.3221 226.204 47.2022C225.908 47.0824 225.671 46.9206 225.49 46.7169C225.317 46.5131 225.231 46.2884 225.231 46.0427C225.231 45.6472 225.422 45.3236 225.804 45.0719C226.193 44.8202 226.716 44.6584 227.371 44.5865L229.08 44.3888V44.0742C229.08 43.7446 228.957 43.4929 228.712 43.3191C228.474 43.1393 228.107 43.0494 227.609 43.0494C227.242 43.0494 226.939 43.1094 226.701 43.2292C226.471 43.3491 226.323 43.4929 226.258 43.6607C226.229 43.7326 226.193 43.7835 226.15 43.8135C226.114 43.8375 226.063 43.8494 225.999 43.8494H225.847C225.782 43.8494 225.725 43.8315 225.674 43.7955C225.631 43.7536 225.609 43.7056 225.609 43.6517C225.609 43.5199 225.681 43.367 225.826 43.1933C225.97 43.0135 226.193 42.8577 226.496 42.7258C226.798 42.594 227.17 42.5281 227.609 42.5281C228.38 42.5281 228.928 42.6809 229.252 42.9865C229.577 43.2921 229.739 43.6637 229.739 44.1011V47.0944C229.739 47.1543 229.717 47.2022 229.674 47.2382C229.631 47.2742 229.573 47.2921 229.501 47.2921H229.317C229.245 47.2921 229.188 47.2742 229.144 47.2382C229.101 47.2022 229.08 47.1543 229.08 47.0944V46.6719C228.921 46.8697 228.687 47.0375 228.377 47.1753C228.074 47.3131 227.671 47.382 227.166 47.382ZM227.274 46.8607C227.8 46.8607 228.233 46.7169 228.571 46.4292C228.91 46.1416 229.08 45.7281 229.08 45.1888V44.8831L227.685 45.0449C227.094 45.1109 226.647 45.2247 226.344 45.3865C226.042 45.5483 225.89 45.7521 225.89 45.9978C225.89 46.2734 226.027 46.4861 226.301 46.636C226.582 46.7858 226.907 46.8607 227.274 46.8607Z" fill="white"/>
<path d="M233.167 47.2921C233.095 47.2921 233.038 47.2742 232.994 47.2382C232.951 47.2022 232.93 47.1543 232.93 47.0944V43.1393H230.951C230.879 43.1393 230.821 43.1213 230.778 43.0854C230.735 43.0494 230.713 43.0015 230.713 42.9416V42.8157C230.713 42.7558 230.735 42.7079 230.778 42.6719C230.821 42.636 230.879 42.618 230.951 42.618H235.567C235.639 42.618 235.697 42.636 235.74 42.6719C235.784 42.7079 235.805 42.7558 235.805 42.8157V42.9416C235.805 43.0015 235.784 43.0494 235.74 43.0854C235.697 43.1213 235.639 43.1393 235.567 43.1393H233.589V47.0944C233.589 47.1543 233.567 47.2022 233.524 47.2382C233.481 47.2742 233.423 47.2921 233.351 47.2921H233.167Z" fill="white"/>
<path d="M238.909 47.382C238.224 47.382 237.673 47.1963 237.255 46.8247C236.837 46.4472 236.599 45.9438 236.541 45.3146L236.53 44.9551L236.541 44.5955C236.599 43.9723 236.833 43.4719 237.244 43.0944C237.662 42.7169 238.217 42.5281 238.909 42.5281C239.658 42.5281 240.242 42.7348 240.66 43.1483C241.085 43.5618 241.298 44.1281 241.298 44.8472V44.982C241.298 45.0419 241.272 45.0899 241.222 45.1258C241.179 45.1618 241.121 45.1798 241.049 45.1798H237.2V45.2697C237.215 45.5513 237.291 45.815 237.427 46.0607C237.572 46.3004 237.77 46.4951 238.022 46.6449C238.274 46.7888 238.57 46.8607 238.909 46.8607C239.305 46.8607 239.626 46.7978 239.871 46.6719C240.123 46.5401 240.303 46.4082 240.411 46.2764C240.476 46.2045 240.523 46.1596 240.552 46.1416C240.588 46.1236 240.649 46.1146 240.736 46.1146H240.908C240.973 46.1146 241.027 46.1296 241.071 46.1596C241.114 46.1895 241.136 46.2285 241.136 46.2764C241.136 46.4022 241.038 46.5551 240.844 46.7348C240.656 46.9086 240.393 47.0614 240.054 47.1933C239.716 47.3191 239.334 47.382 238.909 47.382ZM240.638 44.6764V44.6404C240.638 44.179 240.48 43.7985 240.163 43.4989C239.853 43.1993 239.435 43.0494 238.909 43.0494C238.382 43.0494 237.964 43.1993 237.655 43.4989C237.352 43.7985 237.2 44.179 237.2 44.6404V44.6764H240.638Z" fill="white"/>
<path d="M242.972 49C242.9 49 242.842 48.982 242.799 48.9461C242.756 48.9101 242.734 48.8622 242.734 48.8022V42.8157C242.734 42.7558 242.756 42.7079 242.799 42.6719C242.842 42.636 242.9 42.618 242.972 42.618H243.156C243.228 42.618 243.286 42.636 243.329 42.6719C243.372 42.7079 243.394 42.7558 243.394 42.8157V43.2382C243.812 42.7648 244.417 42.5281 245.21 42.5281C245.988 42.5281 246.561 42.7348 246.929 43.1483C247.304 43.5558 247.502 44.0592 247.523 44.6584C247.531 44.7184 247.534 44.8172 247.534 44.9551C247.534 45.0929 247.531 45.1918 247.523 45.2517C247.502 45.8509 247.304 46.3573 246.929 46.7708C246.561 47.1783 245.988 47.382 245.21 47.382C244.424 47.382 243.819 47.1453 243.394 46.6719V48.8022C243.394 48.8622 243.372 48.9101 243.329 48.9461C243.286 48.982 243.228 49 243.156 49H242.972ZM245.145 46.8607C245.729 46.8607 246.154 46.7079 246.421 46.4022C246.695 46.0906 246.842 45.6921 246.864 45.2067C246.871 45.1468 246.875 45.0629 246.875 44.9551C246.875 44.3978 246.745 43.9423 246.486 43.5888C246.226 43.2292 245.779 43.0494 245.145 43.0494C244.576 43.0494 244.147 43.2082 243.859 43.5258C243.57 43.8375 243.415 44.206 243.394 44.6315L243.383 44.982L243.394 45.3326C243.401 45.5903 243.469 45.836 243.599 46.0697C243.729 46.2974 243.924 46.4861 244.183 46.636C244.442 46.7858 244.763 46.8607 245.145 46.8607Z" fill="white"/>
<path d="M253.481 42.618C253.538 42.618 253.589 42.636 253.632 42.6719C253.675 42.7079 253.697 42.7468 253.697 42.7888V47.0944C253.697 47.1543 253.675 47.2022 253.632 47.2382C253.589 47.2742 253.531 47.2921 253.459 47.2921H253.275C253.203 47.2921 253.146 47.2742 253.102 47.2382C253.059 47.2022 253.037 47.1543 253.037 47.0944V43.5348L249.708 47.1573C249.629 47.2472 249.535 47.2921 249.427 47.2921H249.221C249.164 47.2921 249.113 47.2742 249.07 47.2382C249.027 47.2022 249.005 47.1603 249.005 47.1124V42.8157C249.005 42.7558 249.027 42.7079 249.07 42.6719C249.113 42.636 249.171 42.618 249.243 42.618H249.427C249.499 42.618 249.556 42.636 249.6 42.6719C249.643 42.7079 249.665 42.7558 249.665 42.8157V46.3753L252.994 42.7528C253.073 42.6629 253.167 42.618 253.275 42.618H253.481Z" fill="white"/>
<path d="M255.683 47.2921C255.611 47.2921 255.553 47.2742 255.51 47.2382C255.467 47.2022 255.445 47.1543 255.445 47.0944V42.8157C255.445 42.7558 255.467 42.7079 255.51 42.6719C255.553 42.636 255.611 42.618 255.683 42.618H255.867C255.939 42.618 255.996 42.636 256.04 42.6719C256.083 42.7079 256.104 42.7558 256.104 42.8157V44.6404H259.477V42.8157C259.477 42.7558 259.499 42.7079 259.542 42.6719C259.585 42.636 259.643 42.618 259.715 42.618H259.899C259.971 42.618 260.029 42.636 260.072 42.6719C260.115 42.7079 260.137 42.7558 260.137 42.8157V47.0944C260.137 47.1543 260.115 47.2022 260.072 47.2382C260.029 47.2742 259.971 47.2921 259.899 47.2921H259.715C259.643 47.2921 259.585 47.2742 259.542 47.2382C259.499 47.2022 259.477 47.1543 259.477 47.0944V45.1618H256.104V47.0944C256.104 47.1543 256.083 47.2022 256.04 47.2382C255.996 47.2742 255.939 47.2921 255.867 47.2921H255.683Z" fill="white"/>
<path d="M264.015 47.382C263.265 47.382 262.685 47.2022 262.274 46.8427C261.863 46.4772 261.647 45.9678 261.625 45.3146L261.615 44.9551L261.625 44.5955C261.647 43.9423 261.863 43.436 262.274 43.0764C262.685 42.7109 263.265 42.5281 264.015 42.5281C264.49 42.5281 264.894 42.6 265.225 42.7438C265.564 42.8816 265.816 43.0614 265.982 43.2831C266.148 43.4989 266.238 43.7236 266.252 43.9573C266.26 44.0112 266.238 44.0592 266.187 44.1011C266.137 44.1371 266.079 44.1551 266.015 44.1551H265.863C265.791 44.1551 265.737 44.1431 265.701 44.1191C265.672 44.0891 265.64 44.0382 265.604 43.9663C265.46 43.6367 265.258 43.403 264.998 43.2652C264.739 43.1213 264.411 43.0494 264.015 43.0494C263.496 43.0494 263.081 43.1813 262.771 43.4449C262.469 43.7026 262.306 44.1011 262.285 44.6404L262.274 44.9551L262.285 45.2697C262.306 45.809 262.469 46.2105 262.771 46.4742C263.081 46.7318 263.496 46.8607 264.015 46.8607C264.411 46.8607 264.739 46.7918 264.998 46.6539C265.258 46.5101 265.46 46.2734 265.604 45.9438C265.64 45.8719 265.672 45.824 265.701 45.8C265.737 45.77 265.791 45.7551 265.863 45.7551H266.015C266.079 45.7551 266.137 45.776 266.187 45.818C266.238 45.8539 266.26 45.8989 266.252 45.9528C266.238 46.1865 266.148 46.4142 265.982 46.636C265.816 46.8517 265.564 47.0315 265.225 47.1753C264.894 47.3131 264.49 47.382 264.015 47.382Z" fill="white"/>
<path d="M269.4 47.2921C269.328 47.2921 269.27 47.2742 269.227 47.2382C269.183 47.2022 269.162 47.1543 269.162 47.0944V43.1393H267.183C267.111 43.1393 267.054 43.1213 267.011 43.0854C266.967 43.0494 266.946 43.0015 266.946 42.9416V42.8157C266.946 42.7558 266.967 42.7079 267.011 42.6719C267.054 42.636 267.111 42.618 267.183 42.618H271.8C271.872 42.618 271.929 42.636 271.973 42.6719C272.016 42.7079 272.037 42.7558 272.037 42.8157V42.9416C272.037 43.0015 272.016 43.0494 271.973 43.0854C271.929 43.1213 271.872 43.1393 271.8 43.1393H269.821V47.0944C269.821 47.1543 269.8 47.2022 269.756 47.2382C269.713 47.2742 269.656 47.2921 269.583 47.2921H269.4Z" fill="white"/>
<path d="M273.292 47.2921C273.22 47.2921 273.162 47.2742 273.119 47.2382C273.076 47.2022 273.054 47.1543 273.054 47.0944V42.8157C273.054 42.7558 273.076 42.7079 273.119 42.6719C273.162 42.636 273.22 42.618 273.292 42.618H275.422C276.006 42.618 276.46 42.7288 276.784 42.9506C277.116 43.1723 277.281 43.4689 277.281 43.8404C277.281 44.1101 277.22 44.3169 277.098 44.4607C276.982 44.6045 276.791 44.7273 276.525 44.8292C276.798 44.9131 277.011 45.0659 277.162 45.2876C277.314 45.5094 277.389 45.7431 277.389 45.9888C277.389 46.4082 277.216 46.7318 276.87 46.9596C276.532 47.1813 276.067 47.2921 275.476 47.2921H273.292ZM275.314 44.6764C275.71 44.6764 276.027 44.6015 276.265 44.4517C276.503 44.3019 276.622 44.0981 276.622 43.8404C276.622 43.5888 276.507 43.409 276.276 43.3011C276.053 43.1933 275.732 43.1393 275.314 43.1393H273.714V44.6764H275.314ZM275.389 46.7708C275.8 46.7708 276.125 46.7049 276.362 46.573C276.607 46.4352 276.73 46.2404 276.73 45.9888C276.73 45.7191 276.618 45.5213 276.395 45.3955C276.179 45.2637 275.843 45.1978 275.389 45.1978H273.714V46.7708H275.389Z" fill="white"/>
<path d="M280.427 47.382C280.081 47.382 279.76 47.3221 279.465 47.2022C279.169 47.0824 278.932 46.9206 278.751 46.7169C278.578 46.5131 278.492 46.2884 278.492 46.0427C278.492 45.6472 278.683 45.3236 279.065 45.0719C279.454 44.8202 279.977 44.6584 280.632 44.5865L282.341 44.3888V44.0742C282.341 43.7446 282.218 43.4929 281.973 43.3191C281.735 43.1393 281.368 43.0494 280.87 43.0494C280.503 43.0494 280.2 43.1094 279.962 43.2292C279.732 43.3491 279.584 43.4929 279.519 43.6607C279.49 43.7326 279.454 43.7835 279.411 43.8135C279.375 43.8375 279.324 43.8494 279.26 43.8494H279.108C279.043 43.8494 278.986 43.8315 278.935 43.7955C278.892 43.7536 278.87 43.7056 278.87 43.6517C278.87 43.5199 278.942 43.367 279.087 43.1933C279.231 43.0135 279.454 42.8577 279.757 42.7258C280.06 42.594 280.431 42.5281 280.87 42.5281C281.641 42.5281 282.189 42.6809 282.514 42.9865C282.838 43.2921 283 43.6637 283 44.1011V47.0944C283 47.1543 282.978 47.2022 282.935 47.2382C282.892 47.2742 282.834 47.2921 282.762 47.2921H282.578C282.506 47.2921 282.449 47.2742 282.405 47.2382C282.362 47.2022 282.341 47.1543 282.341 47.0944V46.6719C282.182 46.8697 281.948 47.0375 281.638 47.1753C281.335 47.3131 280.932 47.382 280.427 47.382ZM280.535 46.8607C281.061 46.8607 281.494 46.7169 281.832 46.4292C282.171 46.1416 282.341 45.7281 282.341 45.1888V44.8831L280.946 45.0449C280.355 45.1109 279.908 45.2247 279.605 45.3865C279.303 45.5483 279.151 45.7521 279.151 45.9978C279.151 46.2734 279.288 46.4861 279.562 46.636C279.843 46.7858 280.168 46.8607 280.535 46.8607Z" fill="white"/>
</svg>
