<svg width="295" height="60" viewBox="0 0 295 60" fill="none" xmlns="http://www.w3.org/2000/svg">
<path d="M48.0219 18.7408C51.9828 18.7408 55.1936 21.8765 55.1936 25.7443C55.1936 29.6127 51.9828 32.7482 48.0219 32.7482C44.061 32.7482 40.8501 29.6127 40.8501 25.7443C40.8501 21.8765 44.061 18.7408 48.0219 18.7408ZM48.4999 17.8926C53.1944 17.8926 57 21.453 57 25.8446C57 30.2367 53.1944 33.7971 48.4999 33.7971C43.8056 33.7971 40 30.2367 40 25.8446C40 21.453 43.8056 17.8926 48.4999 17.8926Z" fill="url(#paint0_linear)"/>
<path d="M7.00101 6.33091C6.85622 6.24432 22.2863 -1.14944 31.5588 8.97072C31.0972 8.95974 30.6151 8.96196 30.1838 8.9947C14.5598 10.1952 12.8136 32.3924 16.2526 44.1082C20.4972 58.566 26.4292 58.6478 26.4292 58.6478C23.473 58.5641 19.8632 48.7356 19.3103 46.6248C20.9885 44.2401 24.3994 40.0961 28.8781 38.2919C35.3541 35.6826 39 37.9657 39 37.9657C34.1848 32.3658 22.2436 37.1782 18.3905 42.0596C18.279 41.3387 18.2299 40.6005 18.1032 39.8684C16.6494 31.4727 19.9081 8.89294 33.8204 12.0462C36.7148 17.1383 35.5717 22.0055 34.2647 24.54C31.7054 29.5018 28.523 31.2511 23.3808 32.041C23.3808 32.041 30.8906 32.9105 35.2443 28.1273C39.5974 23.3442 39.5974 15.1908 37.0947 9.21185C32.03 -2.88505 14.291 -2.23538 7.00101 6.33091Z" fill="url(#paint1_linear)"/>
<path d="M23.9396 2.52309C3.97511 2.33485 -1.82623 27.1387 5.16741 41.264C14.1748 59.4565 30.203 60.4328 45.5559 49.0747C57.3114 40.3781 62.6869 27.1554 59.0145 17.6159C65.7446 26.9468 60.7208 42.2263 47.7186 51.8453C30.7639 64.3883 14.6655 61.8964 4.62492 43.6513C-4.64019 26.8165 -0.854113 -2.31479 23.9396 2.52309Z" fill="url(#paint2_linear)"/>
<path d="M47.5499 18.7408C51.2778 18.7408 54.2997 21.8765 54.2997 25.7443C54.2997 29.6127 51.2778 32.7482 47.5499 32.7482C43.8221 32.7482 40.8 29.6127 40.8 25.7443C40.8 21.8765 43.8221 18.7408 47.5499 18.7408ZM47.9998 17.8926C52.4182 17.8926 56 21.453 56 25.8446C56 30.2367 52.4182 33.7971 47.9998 33.7971C43.5816 33.7971 40 30.2367 40 25.8446C40 21.453 43.5816 17.8926 47.9998 17.8926Z" fill="url(#paint3_linear)"/>
<path d="M78.932 35C78.732 35 78.552 34.93 78.392 34.79C78.252 34.63 78.182 34.45 78.182 34.25V14.75C78.182 14.53 78.252 14.35 78.392 14.21C78.552 14.07 78.732 14 78.932 14H87.332C89.892 14 91.902 14.59 93.362 15.77C94.842 16.95 95.582 18.67 95.582 20.93C95.582 23.17 94.852 24.86 93.392 26C91.932 27.12 89.912 27.68 87.332 27.68H83.762V34.25C83.762 34.47 83.682 34.65 83.522 34.79C83.382 34.93 83.202 35 82.982 35H78.932ZM87.182 23.54C88.062 23.54 88.752 23.32 89.252 22.88C89.752 22.42 90.002 21.75 90.002 20.87C90.002 20.05 89.762 19.4 89.282 18.92C88.822 18.42 88.122 18.17 87.182 18.17H83.672V23.54H87.182ZM106.525 35.3C104.125 35.3 102.235 34.65 100.855 33.35C99.4755 32.05 98.7555 30.16 98.6955 27.68V26.63C98.7755 24.27 99.5055 22.43 100.885 21.11C102.285 19.77 104.155 19.1 106.495 19.1C108.195 19.1 109.625 19.45 110.785 20.15C111.965 20.83 112.845 21.77 113.425 22.97C114.025 24.17 114.325 25.55 114.325 27.11V27.83C114.325 28.03 114.255 28.21 114.115 28.37C113.975 28.51 113.795 28.58 113.575 28.58H103.975V28.79C104.015 29.73 104.245 30.49 104.665 31.07C105.085 31.65 105.695 31.94 106.495 31.94C106.995 31.94 107.405 31.84 107.725 31.64C108.045 31.42 108.335 31.16 108.595 30.86C108.775 30.64 108.915 30.51 109.015 30.47C109.135 30.41 109.315 30.38 109.555 30.38H113.275C113.455 30.38 113.605 30.44 113.725 30.56C113.865 30.66 113.935 30.8 113.935 30.98C113.935 31.5 113.635 32.1 113.035 32.78C112.455 33.46 111.605 34.05 110.485 34.55C109.365 35.05 108.045 35.3 106.525 35.3ZM109.045 25.61V25.55C109.045 24.57 108.815 23.8 108.355 23.24C107.915 22.66 107.295 22.37 106.495 22.37C105.715 22.37 105.095 22.66 104.635 23.24C104.195 23.8 103.975 24.57 103.975 25.55V25.61H109.045ZM119.088 35C118.868 35 118.688 34.93 118.548 34.79C118.408 34.65 118.338 34.47 118.338 34.25V20.15C118.338 19.93 118.408 19.75 118.548 19.61C118.688 19.47 118.868 19.4 119.088 19.4H132.828C133.048 19.4 133.228 19.47 133.368 19.61C133.528 19.75 133.608 19.93 133.608 20.15V34.25C133.608 34.47 133.528 34.65 133.368 34.79C133.228 34.93 133.048 35 132.828 35H129.288C129.088 35 128.908 34.93 128.748 34.79C128.608 34.63 128.538 34.45 128.538 34.25V23.33H123.378V34.25C123.378 34.45 123.308 34.63 123.168 34.79C123.028 34.93 122.848 35 122.628 35H119.088ZM139.184 40.7C138.984 40.7 138.804 40.63 138.644 40.49C138.504 40.35 138.434 40.17 138.434 39.95V20.15C138.434 19.93 138.504 19.75 138.644 19.61C138.804 19.47 138.984 19.4 139.184 19.4H142.574C142.794 19.4 142.974 19.47 143.114 19.61C143.254 19.75 143.324 19.93 143.324 20.15V21.23C144.404 19.81 145.954 19.1 147.974 19.1C149.934 19.1 151.464 19.71 152.564 20.93C153.664 22.15 154.264 23.87 154.364 26.09C154.384 26.35 154.394 26.72 154.394 27.2C154.394 27.68 154.384 28.05 154.364 28.31C154.284 30.47 153.684 32.18 152.564 33.44C151.444 34.68 149.914 35.3 147.974 35.3C146.014 35.3 144.554 34.63 143.594 33.29V39.95C143.594 40.17 143.524 40.35 143.384 40.49C143.244 40.63 143.064 40.7 142.844 40.7H139.184ZM146.354 31.28C147.294 31.28 147.964 31 148.364 30.44C148.784 29.88 149.024 29.11 149.084 28.13C149.124 27.73 149.144 27.42 149.144 27.2C149.144 26.98 149.124 26.67 149.084 26.27C149.024 25.29 148.784 24.52 148.364 23.96C147.964 23.4 147.294 23.12 146.354 23.12C145.434 23.12 144.754 23.41 144.314 23.99C143.894 24.55 143.654 25.28 143.594 26.18L143.564 27.29L143.594 28.43C143.634 29.25 143.884 29.93 144.344 30.47C144.804 31.01 145.474 31.28 146.354 31.28ZM165.94 35.3C163.46 35.3 161.55 34.71 160.21 33.53C158.87 32.35 158.14 30.69 158.02 28.55C158 28.29 157.99 27.84 157.99 27.2C157.99 26.56 158 26.11 158.02 25.85C158.14 23.73 158.89 22.08 160.27 20.9C161.65 19.7 163.54 19.1 165.94 19.1C168.36 19.1 170.26 19.7 171.64 20.9C173.02 22.08 173.77 23.73 173.89 25.85C173.91 26.11 173.92 26.56 173.92 27.2C173.92 27.84 173.91 28.29 173.89 28.55C173.77 30.69 173.04 32.35 171.7 33.53C170.36 34.71 168.44 35.3 165.94 35.3ZM165.94 31.64C166.82 31.64 167.47 31.38 167.89 30.86C168.31 30.32 168.55 29.5 168.61 28.4C168.63 28.2 168.64 27.8 168.64 27.2C168.64 26.6 168.63 26.2 168.61 26C168.55 24.92 168.3 24.11 167.86 23.57C167.44 23.03 166.8 22.76 165.94 22.76C164.28 22.76 163.4 23.84 163.3 26L163.27 27.2L163.3 28.4C163.34 29.5 163.57 30.32 163.99 30.86C164.43 31.38 165.08 31.64 165.94 31.64ZM177.77 38.3C177.57 38.3 177.39 38.23 177.23 38.09C177.09 37.95 177.02 37.77 177.02 37.55V31.82C177.02 31.6 177.09 31.42 177.23 31.28C177.39 31.14 177.57 31.07 177.77 31.07H178.07C178.81 31.05 179.32 30.5 179.6 29.42C179.9 28.34 180.05 26.66 180.05 24.38V20.15C180.05 19.93 180.12 19.75 180.26 19.61C180.42 19.47 180.6 19.4 180.8 19.4H192.59C192.81 19.4 192.99 19.47 193.13 19.61C193.29 19.75 193.37 19.93 193.37 20.15V31.04H194.63C194.85 31.04 195.03 31.11 195.17 31.25C195.31 31.39 195.38 31.57 195.38 31.79V37.55C195.38 37.77 195.31 37.95 195.17 38.09C195.03 38.23 194.85 38.3 194.63 38.3H191.09C190.89 38.3 190.71 38.23 190.55 38.09C190.41 37.95 190.34 37.77 190.34 37.55V35H182.09V37.55C182.09 37.77 182.02 37.95 181.88 38.09C181.74 38.23 181.56 38.3 181.34 38.3H177.77ZM188.3 31.04V23.33H184.88V24.92C184.88 27.8 184.52 29.85 183.8 31.07L188.3 31.04ZM213.808 19.4C213.988 19.4 214.138 19.47 214.258 19.61C214.398 19.73 214.468 19.87 214.468 20.03C214.468 20.17 214.438 20.3 214.378 20.42L208.678 34.16C208.038 35.66 207.428 36.87 206.848 37.79C206.288 38.71 205.608 39.43 204.808 39.95C204.028 40.47 203.078 40.73 201.958 40.73H200.488C200.268 40.73 200.088 40.66 199.948 40.52C199.808 40.38 199.738 40.2 199.738 39.98V37.55C199.738 37.33 199.808 37.15 199.948 37.01C200.088 36.87 200.268 36.8 200.488 36.8H201.538C202.058 36.8 202.458 36.65 202.738 36.35C203.018 36.05 203.338 35.48 203.698 34.64L203.848 34.25L197.878 20.42C197.818 20.26 197.788 20.14 197.788 20.06C197.828 19.88 197.908 19.73 198.028 19.61C198.168 19.47 198.328 19.4 198.508 19.4H201.868C202.288 19.4 202.578 19.61 202.738 20.03L206.128 28.7L209.698 20.03C209.858 19.61 210.158 19.4 210.598 19.4H213.808ZM233.691 34.01C233.771 34.09 233.811 34.22 233.811 34.4C233.811 34.56 233.751 34.7 233.631 34.82C233.511 34.94 233.351 35 233.151 35H228.921C228.561 35 228.271 34.84 228.051 34.52L224.541 29.06H222.951V34.25C222.951 34.47 222.871 34.65 222.711 34.79C222.571 34.93 222.391 35 222.171 35H218.721C218.501 35 218.321 34.93 218.181 34.79C218.041 34.65 217.971 34.47 217.971 34.25V20.15C217.971 19.93 218.041 19.75 218.181 19.61C218.321 19.47 218.501 19.4 218.721 19.4H222.171C222.391 19.4 222.571 19.47 222.711 19.61C222.871 19.75 222.951 19.93 222.951 20.15V25.13H224.601L227.811 19.88C228.031 19.56 228.311 19.4 228.651 19.4H232.491C232.671 19.4 232.821 19.46 232.941 19.58C233.081 19.7 233.151 19.84 233.151 20C233.151 20.14 233.101 20.28 233.001 20.42L228.921 26.96L233.691 34.01ZM250.354 38.54C250.134 38.54 249.954 38.46 249.814 38.3C249.674 38.16 249.604 37.98 249.604 37.76V35H238.114C237.894 35 237.714 34.93 237.574 34.79C237.434 34.65 237.364 34.47 237.364 34.25V20.15C237.364 19.93 237.434 19.75 237.574 19.61C237.714 19.47 237.894 19.4 238.114 19.4H241.654C241.874 19.4 242.054 19.47 242.194 19.61C242.334 19.75 242.404 19.93 242.404 20.15V31.07H247.564V20.15C247.564 19.93 247.634 19.75 247.774 19.61C247.934 19.47 248.114 19.4 248.314 19.4H251.854C252.074 19.4 252.254 19.47 252.394 19.61C252.554 19.75 252.634 19.93 252.634 20.15L252.604 31.07H253.894C254.114 31.07 254.294 31.14 254.434 31.28C254.574 31.42 254.644 31.6 254.644 31.82V37.76C254.644 37.98 254.574 38.16 254.434 38.3C254.294 38.46 254.114 38.54 253.894 38.54H250.354ZM273.402 19.4C273.602 19.4 273.772 19.47 273.912 19.61C274.052 19.75 274.122 19.92 274.122 20.12V34.25C274.122 34.45 274.052 34.63 273.912 34.79C273.772 34.93 273.592 35 273.372 35H269.832C269.632 35 269.452 34.93 269.292 34.79C269.152 34.63 269.082 34.45 269.082 34.25V25.85L262.992 34.52C262.772 34.84 262.492 35 262.152 35H258.972C258.772 35 258.602 34.93 258.462 34.79C258.322 34.65 258.252 34.48 258.252 34.28V20.15C258.252 19.93 258.322 19.75 258.462 19.61C258.602 19.47 258.782 19.4 259.002 19.4H262.542C262.762 19.4 262.942 19.47 263.082 19.61C263.222 19.75 263.292 19.93 263.292 20.15V28.52L269.352 19.88C269.572 19.56 269.852 19.4 270.192 19.4H273.402ZM292.293 19.4C292.513 19.4 292.693 19.47 292.833 19.61C292.973 19.75 293.043 19.93 293.043 20.15V34.25C293.043 34.45 292.973 34.63 292.833 34.79C292.693 34.93 292.513 35 292.293 35H288.633C288.433 35 288.253 34.93 288.093 34.79C287.953 34.63 287.883 34.45 287.883 34.25V29.99H285.723L283.233 34.55C283.073 34.85 282.833 35 282.513 35H278.943C278.743 35 278.583 34.94 278.463 34.82C278.343 34.7 278.283 34.56 278.283 34.4C278.283 34.24 278.333 34.1 278.433 33.98L281.433 29.06C280.573 28.62 279.923 28.03 279.483 27.29C279.043 26.53 278.823 25.65 278.823 24.65C278.823 22.95 279.383 21.65 280.503 20.75C281.623 19.85 283.193 19.4 285.213 19.4H292.293ZM287.973 22.85H285.483C284.743 22.85 284.193 22.99 283.833 23.27C283.493 23.55 283.323 24.01 283.323 24.65C283.323 25.25 283.493 25.72 283.833 26.06C284.173 26.38 284.683 26.54 285.363 26.54H287.973V22.85Z" fill="url(#paint4_linear)"/>
<path d="M79.2552 52.0787C79.1843 52.0787 79.124 52.0551 79.0744 52.0079C79.0248 51.9607 79 51.9034 79 51.836V45.2528C79 45.1787 79.0213 45.118 79.0638 45.0708C79.1134 45.0236 79.1772 45 79.2552 45H84.8267C84.9047 45 84.9685 45.0236 85.0181 45.0708C85.0677 45.118 85.0925 45.1787 85.0925 45.2528V51.836C85.0925 51.9101 85.0677 51.9708 85.0181 52.018C84.9685 52.0584 84.9047 52.0787 84.8267 52.0787H83.8698C83.7989 52.0787 83.7386 52.0551 83.689 52.0079C83.6394 51.9607 83.6146 51.9034 83.6146 51.836V46.264H80.4779V51.836C80.4779 51.9034 80.4531 51.9607 80.4035 52.0079C80.361 52.0551 80.3007 52.0787 80.2228 52.0787H79.2552Z" fill="url(#paint5_linear)"/>
<path d="M86.8843 54C86.8134 54 86.7531 53.9764 86.7035 53.9292C86.6539 53.8888 86.6291 53.8315 86.6291 53.7573V47.0629C86.6291 46.9888 86.6539 46.9315 86.7035 46.891C86.7531 46.8438 86.8134 46.8202 86.8843 46.8202H87.7243C87.8022 46.8202 87.8625 46.8438 87.905 46.891C87.9546 46.9315 87.9794 46.9888 87.9794 47.0629V47.4674C88.3764 46.9685 88.9435 46.7191 89.6807 46.7191C90.3966 46.7191 90.9459 46.9348 91.3287 47.3663C91.7115 47.791 91.9171 48.3674 91.9454 49.0955C91.9525 49.1764 91.956 49.2944 91.956 49.4494C91.956 49.6112 91.9525 49.7326 91.9454 49.8135C91.9171 50.5213 91.7115 51.0944 91.3287 51.5326C90.9459 51.964 90.3966 52.1798 89.6807 52.1798C88.9647 52.1798 88.4189 51.9404 88.0432 51.4618V53.7573C88.0432 53.8315 88.0184 53.8888 87.9688 53.9292C87.9263 53.9764 87.866 54 87.7881 54H86.8843ZM89.2873 51.0978C90.0528 51.0978 90.4604 50.6494 90.51 49.7528C90.5171 49.6854 90.5206 49.5843 90.5206 49.4494C90.5206 49.3146 90.5171 49.2135 90.51 49.1461C90.4604 48.2494 90.0528 47.8011 89.2873 47.8011C88.8761 47.8011 88.5713 47.9258 88.3728 48.1753C88.1744 48.4247 88.0645 48.7315 88.0432 49.0955L88.0326 49.4798L88.0432 49.8742C88.0574 50.2112 88.1673 50.5011 88.3728 50.7438C88.5855 50.9798 88.8903 51.0978 89.2873 51.0978Z" fill="url(#paint6_linear)"/>
<path d="M95.5952 52.1798C94.7658 52.1798 94.1243 51.9775 93.6706 51.573C93.217 51.1618 92.9724 50.6022 92.937 49.8944L92.9264 49.4494L92.937 49.0045C92.9724 48.3034 93.2205 47.7472 93.6813 47.336C94.142 46.9247 94.78 46.7191 95.5952 46.7191C96.4103 46.7191 97.0483 46.9247 97.509 47.336C97.9698 47.7472 98.2179 48.3034 98.2533 49.0045C98.2604 49.0854 98.264 49.2337 98.264 49.4494C98.264 49.6652 98.2604 49.8135 98.2533 49.8944C98.2179 50.6022 97.9733 51.1618 97.5197 51.573C97.066 51.9775 96.4245 52.1798 95.5952 52.1798ZM95.5952 51.1787C95.9708 51.1787 96.2615 51.0674 96.467 50.8449C96.6726 50.6157 96.786 50.282 96.8073 49.8438C96.8144 49.7764 96.8179 49.6449 96.8179 49.4494C96.8179 49.2539 96.8144 49.1225 96.8073 49.0551C96.786 48.6169 96.6726 48.2865 96.467 48.064C96.2615 47.8348 95.9708 47.7202 95.5952 47.7202C95.2195 47.7202 94.9288 47.8348 94.7233 48.064C94.5177 48.2865 94.4043 48.6169 94.383 49.0551L94.3724 49.4494L94.383 49.8438C94.4043 50.282 94.5177 50.6157 94.7233 50.8449C94.9288 51.0674 95.2195 51.1787 95.5952 51.1787Z" fill="url(#paint7_linear)"/>
<path d="M99.6972 52.0787C99.6263 52.0787 99.5661 52.0551 99.5164 52.0079C99.4668 51.9607 99.442 51.9034 99.442 51.836V47.0629C99.442 46.9955 99.4668 46.9382 99.5164 46.891C99.5661 46.8438 99.6263 46.8202 99.6972 46.8202H103.068C103.146 46.8202 103.206 46.8438 103.249 46.891C103.298 46.9315 103.323 46.9888 103.323 47.0629V47.6393C103.323 47.7135 103.298 47.7742 103.249 47.8213C103.199 47.8685 103.139 47.8921 103.068 47.8921H100.835V51.836C100.835 51.9034 100.81 51.9607 100.76 52.0079C100.718 52.0551 100.658 52.0787 100.58 52.0787H99.6972Z" fill="url(#paint8_linear)"/>
<path d="M104.443 54C104.372 54 104.312 53.9764 104.262 53.9292C104.212 53.8888 104.187 53.8315 104.187 53.7573V47.0629C104.187 46.9888 104.212 46.9315 104.262 46.891C104.312 46.8438 104.372 46.8202 104.443 46.8202H105.283C105.361 46.8202 105.421 46.8438 105.463 46.891C105.513 46.9315 105.538 46.9888 105.538 47.0629V47.4674C105.935 46.9685 106.502 46.7191 107.239 46.7191C107.955 46.7191 108.504 46.9348 108.887 47.3663C109.27 47.791 109.475 48.3674 109.504 49.0955C109.511 49.1764 109.514 49.2944 109.514 49.4494C109.514 49.6112 109.511 49.7326 109.504 49.8135C109.475 50.5213 109.27 51.0944 108.887 51.5326C108.504 51.964 107.955 52.1798 107.239 52.1798C106.523 52.1798 105.977 51.9404 105.602 51.4618V53.7573C105.602 53.8315 105.577 53.8888 105.527 53.9292C105.485 53.9764 105.424 54 105.346 54H104.443ZM106.846 51.0978C107.611 51.0978 108.019 50.6494 108.068 49.7528C108.076 49.6854 108.079 49.5843 108.079 49.4494C108.079 49.3146 108.076 49.2135 108.068 49.1461C108.019 48.2494 107.611 47.8011 106.846 47.8011C106.435 47.8011 106.13 47.9258 105.931 48.1753C105.733 48.4247 105.623 48.7315 105.602 49.0955L105.591 49.4798L105.602 49.8742C105.616 50.2112 105.726 50.5011 105.931 50.7438C106.144 50.9798 106.449 51.0978 106.846 51.0978Z" fill="url(#paint9_linear)"/>
<path d="M112.314 52.1798C111.952 52.1798 111.619 52.1124 111.314 51.9775C111.016 51.836 110.779 51.6472 110.602 51.4112C110.432 51.1753 110.347 50.9157 110.347 50.6326C110.347 50.1742 110.541 49.8034 110.931 49.5202C111.321 49.2371 111.856 49.0449 112.537 48.9438L113.994 48.7416V48.5292C113.994 48.2326 113.916 48.0101 113.76 47.8618C113.604 47.7135 113.352 47.6393 113.005 47.6393C112.771 47.6393 112.579 47.6831 112.431 47.7708C112.289 47.8517 112.175 47.9326 112.09 48.0135C112.005 48.1011 111.949 48.1584 111.92 48.1854C111.892 48.2663 111.839 48.3067 111.761 48.3067H110.942C110.878 48.3067 110.821 48.2865 110.772 48.2461C110.729 48.2056 110.708 48.1517 110.708 48.0843C110.715 47.9157 110.8 47.7236 110.963 47.5079C111.133 47.2921 111.392 47.1067 111.739 46.9517C112.087 46.7966 112.512 46.7191 113.015 46.7191C113.852 46.7191 114.461 46.8978 114.844 47.2551C115.227 47.6124 115.418 48.0809 115.418 48.6607V51.836C115.418 51.9034 115.394 51.9607 115.344 52.0079C115.301 52.0551 115.241 52.0787 115.163 52.0787H114.302C114.231 52.0787 114.171 52.0551 114.121 52.0079C114.072 51.9607 114.047 51.9034 114.047 51.836V51.4416C113.891 51.6573 113.667 51.836 113.377 51.9775C113.093 52.1124 112.739 52.1798 112.314 52.1798ZM112.675 51.2191C113.065 51.2191 113.384 51.0978 113.632 50.8551C113.88 50.6124 114.004 50.2584 114.004 49.7933V49.5809L112.941 49.7427C112.53 49.8034 112.218 49.9011 112.005 50.036C111.8 50.1708 111.697 50.336 111.697 50.5315C111.697 50.7472 111.793 50.9157 111.984 51.0371C112.175 51.1584 112.406 51.2191 112.675 51.2191Z" fill="url(#paint10_linear)"/>
<path d="M122.598 46.8202C122.655 46.8202 122.705 46.8404 122.747 46.8809C122.797 46.9213 122.822 46.9652 122.822 47.0124V51.8663C122.822 51.927 122.8 51.9775 122.758 52.018C122.715 52.0584 122.659 52.0787 122.588 52.0787H121.673C121.603 52.0787 121.546 52.0584 121.503 52.018C121.468 51.9775 121.45 51.927 121.45 51.8663V49.0348L120.312 51.027C120.263 51.1079 120.213 51.1685 120.164 51.209C120.121 51.2494 120.057 51.2697 119.972 51.2697H119.621C119.543 51.2697 119.48 51.2494 119.43 51.209C119.38 51.1685 119.334 51.1079 119.292 51.027L118.154 49.0753V51.8663C118.154 51.927 118.133 51.9775 118.09 52.018C118.048 52.0584 117.994 52.0787 117.931 52.0787H117.016C116.945 52.0787 116.889 52.0584 116.846 52.018C116.804 51.9775 116.782 51.927 116.782 51.8663V47.0124C116.782 46.9652 116.804 46.9213 116.846 46.8809C116.889 46.8404 116.938 46.8202 116.995 46.8202H117.888C118.009 46.8202 118.101 46.8775 118.165 46.9921L119.802 49.8236L121.439 46.9921C121.503 46.8775 121.595 46.8202 121.716 46.8202H122.598Z" fill="url(#paint11_linear)"/>
<path d="M130.075 46.8202C130.131 46.8202 130.181 46.8404 130.223 46.8809C130.273 46.9213 130.298 46.9652 130.298 47.0124V51.8663C130.298 51.927 130.277 51.9775 130.234 52.018C130.191 52.0584 130.135 52.0787 130.064 52.0787H129.149C129.079 52.0787 129.022 52.0584 128.979 52.018C128.944 51.9775 128.926 51.927 128.926 51.8663V49.0348L127.788 51.027C127.739 51.1079 127.689 51.1685 127.64 51.209C127.597 51.2494 127.533 51.2697 127.448 51.2697H127.097C127.019 51.2697 126.956 51.2494 126.906 51.209C126.856 51.1685 126.81 51.1079 126.768 51.027L125.63 49.0753V51.8663C125.63 51.927 125.609 51.9775 125.566 52.018C125.524 52.0584 125.471 52.0787 125.407 52.0787H124.492C124.421 52.0787 124.365 52.0584 124.322 52.018C124.28 51.9775 124.258 51.927 124.258 51.8663V47.0124C124.258 46.9652 124.28 46.9213 124.322 46.8809C124.365 46.8404 124.414 46.8202 124.471 46.8202H125.364C125.485 46.8202 125.577 46.8775 125.641 46.9921L127.278 49.8236L128.916 46.9921C128.979 46.8775 129.071 46.8202 129.192 46.8202H130.075Z" fill="url(#paint12_linear)"/>
<path d="M131.99 52.0787C131.919 52.0787 131.859 52.0551 131.809 52.0079C131.759 51.9607 131.735 51.9034 131.735 51.836V47.0629C131.735 46.9955 131.759 46.9382 131.809 46.891C131.859 46.8438 131.919 46.8202 131.99 46.8202H132.883C132.954 46.8202 133.014 46.8438 133.064 46.891C133.113 46.9382 133.138 46.9955 133.138 47.0629V48.4888H134.169C134.878 48.4888 135.417 48.6506 135.786 48.9742C136.154 49.291 136.338 49.736 136.338 50.309C136.338 50.8955 136.147 51.3371 135.764 51.6337C135.382 51.9303 134.822 52.0787 134.084 52.0787H131.99ZM137.295 52.0787C137.225 52.0787 137.164 52.0551 137.115 52.0079C137.065 51.9607 137.04 51.9034 137.04 51.836V47.0629C137.04 46.9955 137.065 46.9382 137.115 46.891C137.164 46.8438 137.225 46.8202 137.295 46.8202H138.178C138.256 46.8202 138.316 46.8438 138.359 46.891C138.408 46.9315 138.433 46.9888 138.433 47.0629V51.836C138.433 51.9034 138.408 51.9607 138.359 52.0079C138.316 52.0551 138.256 52.0787 138.178 52.0787H137.295ZM134.052 51.118C134.407 51.118 134.666 51.0573 134.829 50.936C134.992 50.8079 135.073 50.5989 135.073 50.309C135.073 50.0191 134.992 49.8034 134.829 49.6618C134.666 49.5202 134.407 49.4494 134.052 49.4494H133.117V51.118H134.052Z" fill="url(#paint13_linear)"/>
<path d="M142.082 53.191C142.011 53.191 141.951 53.1674 141.901 53.1202C141.851 53.0798 141.827 53.0225 141.827 52.9483V51.2494C141.827 51.182 141.851 51.1247 141.901 51.0775C141.951 51.0303 142.011 51.0067 142.082 51.0067H142.167C142.443 51.0067 142.645 50.7978 142.773 50.3798C142.901 49.9618 142.964 49.3112 142.964 48.4281V47.0629C142.964 46.9888 142.989 46.9315 143.039 46.891C143.088 46.8438 143.149 46.8202 143.22 46.8202H147.005C147.083 46.8202 147.143 46.8438 147.186 46.891C147.235 46.9315 147.26 46.9888 147.26 47.0629V50.9966H147.738C147.816 50.9966 147.877 51.0202 147.919 51.0674C147.969 51.1079 147.994 51.1652 147.994 51.2393V52.9483C147.994 53.0225 147.969 53.0798 147.919 53.1202C147.877 53.1674 147.816 53.191 147.738 53.191H146.867C146.789 53.191 146.725 53.1674 146.675 53.1202C146.626 53.073 146.601 53.0157 146.601 52.9483V52.0787H143.22V52.9483C143.22 53.0225 143.195 53.0798 143.145 53.1202C143.103 53.1674 143.042 53.191 142.964 53.191H142.082ZM145.878 50.9966V47.8921H144.304V48.5697C144.304 49.7292 144.137 50.5416 143.804 51.0067L145.878 50.9966Z" fill="url(#paint14_linear)"/>
<path d="M151.417 52.1798C150.587 52.1798 149.946 51.9775 149.492 51.573C149.038 51.1618 148.794 50.6022 148.758 49.8944L148.748 49.4494L148.758 49.0045C148.794 48.3034 149.042 47.7472 149.503 47.336C149.963 46.9247 150.601 46.7191 151.417 46.7191C152.232 46.7191 152.87 46.9247 153.33 47.336C153.791 47.7472 154.039 48.3034 154.075 49.0045C154.082 49.0854 154.085 49.2337 154.085 49.4494C154.085 49.6652 154.082 49.8135 154.075 49.8944C154.039 50.6022 153.795 51.1618 153.341 51.573C152.887 51.9775 152.246 52.1798 151.417 52.1798ZM151.417 51.1787C151.792 51.1787 152.083 51.0674 152.288 50.8449C152.494 50.6157 152.607 50.282 152.629 49.8438C152.636 49.7764 152.639 49.6449 152.639 49.4494C152.639 49.2539 152.636 49.1225 152.629 49.0551C152.607 48.6169 152.494 48.2865 152.288 48.064C152.083 47.8348 151.792 47.7202 151.417 47.7202C151.041 47.7202 150.75 47.8348 150.545 48.064C150.339 48.2865 150.226 48.6169 150.204 49.0551L150.194 49.4494L150.204 49.8438C150.226 50.282 150.339 50.6157 150.545 50.8449C150.75 51.0674 151.041 51.1787 151.417 51.1787Z" fill="url(#paint15_linear)"/>
<path d="M155 52.0787C154.929 52.0787 154.865 52.0551 154.808 52.0079C154.759 51.9539 154.734 51.8933 154.734 51.8258V51.1989C154.734 51.1315 154.755 51.0775 154.798 51.0371C154.84 50.9899 154.901 50.9629 154.979 50.9562C155.29 50.9427 155.514 50.7404 155.648 50.3494C155.79 49.9517 155.861 49.3112 155.861 48.4281V47.0629C155.861 46.9888 155.886 46.9315 155.936 46.891C155.985 46.8438 156.045 46.8202 156.116 46.8202H159.891C159.962 46.8202 160.022 46.8438 160.072 46.891C160.121 46.9382 160.146 46.9955 160.146 47.0629V51.836C160.146 51.9034 160.121 51.9607 160.072 52.0079C160.022 52.0551 159.962 52.0787 159.891 52.0787H159.008C158.937 52.0787 158.877 52.0551 158.828 52.0079C158.778 51.9607 158.753 51.9034 158.753 51.836V47.8921H157.19V48.5697C157.19 49.4461 157.119 50.1371 156.978 50.6427C156.843 51.1483 156.616 51.5157 156.297 51.7449C155.985 51.9674 155.553 52.0787 155 52.0787Z" fill="url(#paint16_linear)"/>
<path d="M161.832 52.0787C161.761 52.0787 161.701 52.0551 161.651 52.0079C161.601 51.9607 161.577 51.9034 161.577 51.836V47.0629C161.577 46.9955 161.601 46.9382 161.651 46.891C161.701 46.8438 161.761 46.8202 161.832 46.8202H165.202C165.28 46.8202 165.341 46.8438 165.383 46.891C165.433 46.9315 165.457 46.9888 165.457 47.0629V47.6393C165.457 47.7135 165.433 47.7742 165.383 47.8213C165.333 47.8685 165.273 47.8921 165.202 47.8921H162.969V51.836C162.969 51.9034 162.945 51.9607 162.895 52.0079C162.852 52.0551 162.792 52.0787 162.714 52.0787H161.832Z" fill="url(#paint17_linear)"/>
<path d="M168.663 52.1798C167.834 52.1798 167.193 51.9775 166.739 51.573C166.285 51.1618 166.041 50.6022 166.005 49.8944L165.995 49.4494L166.005 49.0045C166.041 48.3034 166.289 47.7472 166.75 47.336C167.21 46.9247 167.848 46.7191 168.663 46.7191C169.479 46.7191 170.117 46.9247 170.577 47.336C171.038 47.7472 171.286 48.3034 171.322 49.0045C171.329 49.0854 171.332 49.2337 171.332 49.4494C171.332 49.6652 171.329 49.8135 171.322 49.8944C171.286 50.6022 171.042 51.1618 170.588 51.573C170.134 51.9775 169.493 52.1798 168.663 52.1798ZM168.663 51.1787C169.039 51.1787 169.33 51.0674 169.535 50.8449C169.741 50.6157 169.854 50.282 169.876 49.8438C169.883 49.7764 169.886 49.6449 169.886 49.4494C169.886 49.2539 169.883 49.1225 169.876 49.0551C169.854 48.6169 169.741 48.2865 169.535 48.064C169.33 47.8348 169.039 47.7202 168.663 47.7202C168.288 47.7202 167.997 47.8348 167.792 48.064C167.586 48.2865 167.473 48.6169 167.451 49.0551L167.441 49.4494L167.451 49.8438C167.473 50.282 167.586 50.6157 167.792 50.8449C167.997 51.0674 168.288 51.1787 168.663 51.1787Z" fill="url(#paint18_linear)"/>
<path d="M180.644 51.7652C180.673 51.7989 180.687 51.8427 180.687 51.8966C180.687 51.9506 180.666 51.9944 180.623 52.0281C180.588 52.0618 180.534 52.0787 180.464 52.0787H179.4C179.273 52.0787 179.173 52.0281 179.103 51.927L177.71 49.9348H177.05V51.836C177.05 51.9034 177.026 51.9607 176.976 52.0079C176.934 52.0551 176.873 52.0787 176.795 52.0787H175.934C175.863 52.0787 175.803 52.0551 175.753 52.0079C175.704 51.9607 175.679 51.9034 175.679 51.836V49.9348H175.02L173.627 51.927C173.542 52.0281 173.442 52.0787 173.329 52.0787H172.255C172.191 52.0787 172.138 52.0618 172.096 52.0281C172.053 51.9944 172.032 51.9506 172.032 51.8966C172.032 51.8562 172.05 51.8124 172.085 51.7652L173.839 49.3483L172.308 47.1337C172.28 47.1 172.266 47.0562 172.266 47.0022C172.266 46.9483 172.283 46.9045 172.319 46.8708C172.361 46.8371 172.418 46.8202 172.489 46.8202H173.435C173.506 46.8202 173.563 46.8337 173.605 46.8607C173.648 46.8876 173.691 46.9281 173.733 46.982L175.009 48.873H175.679V47.0629C175.679 46.9888 175.704 46.9315 175.753 46.891C175.803 46.8438 175.863 46.8202 175.934 46.8202H176.795C176.873 46.8202 176.934 46.8438 176.976 46.891C177.026 46.9315 177.05 46.9888 177.05 47.0629V48.873H177.699L178.996 46.982C179.067 46.8742 179.163 46.8202 179.283 46.8202H180.24C180.304 46.8202 180.357 46.8371 180.4 46.8708C180.442 46.9045 180.464 46.9483 180.464 47.0022C180.464 47.0427 180.446 47.0865 180.41 47.1337L178.879 49.3483L180.644 51.7652Z" fill="url(#paint19_linear)"/>
<path d="M181.404 53.191C181.333 53.191 181.273 53.1674 181.223 53.1202C181.174 53.0798 181.149 53.0225 181.149 52.9483V51.2494C181.149 51.182 181.174 51.1247 181.223 51.0775C181.273 51.0303 181.333 51.0067 181.404 51.0067H181.489C181.765 51.0067 181.967 50.7978 182.095 50.3798C182.223 49.9618 182.286 49.3112 182.286 48.4281V47.0629C182.286 46.9888 182.311 46.9315 182.361 46.891C182.411 46.8438 182.471 46.8202 182.542 46.8202H186.327C186.405 46.8202 186.465 46.8438 186.508 46.891C186.557 46.9315 186.582 46.9888 186.582 47.0629V50.9966H187.061C187.138 50.9966 187.199 51.0202 187.241 51.0674C187.291 51.1079 187.316 51.1652 187.316 51.2393V52.9483C187.316 53.0225 187.291 53.0798 187.241 53.1202C187.199 53.1674 187.138 53.191 187.061 53.191H186.189C186.111 53.191 186.047 53.1674 185.997 53.1202C185.948 53.073 185.923 53.0157 185.923 52.9483V52.0787H182.542V52.9483C182.542 53.0225 182.517 53.0798 182.467 53.1202C182.425 53.1674 182.364 53.191 182.286 53.191H181.404ZM185.2 50.9966V47.8921H183.626V48.5697C183.626 49.7292 183.46 50.5416 183.126 51.0067L185.2 50.9966Z" fill="url(#paint20_linear)"/>
<path d="M189.899 52.1798C189.537 52.1798 189.204 52.1124 188.899 51.9775C188.602 51.836 188.364 51.6472 188.187 51.4112C188.017 51.1753 187.932 50.9157 187.932 50.6326C187.932 50.1742 188.127 49.8034 188.516 49.5202C188.906 49.2371 189.441 49.0449 190.122 48.9438L191.579 48.7416V48.5292C191.579 48.2326 191.501 48.0101 191.345 47.8618C191.189 47.7135 190.937 47.6393 190.59 47.6393C190.356 47.6393 190.165 47.6831 190.016 47.7708C189.874 47.8517 189.76 47.9326 189.675 48.0135C189.59 48.1011 189.534 48.1584 189.505 48.1854C189.477 48.2663 189.424 48.3067 189.346 48.3067H188.527C188.463 48.3067 188.407 48.2865 188.357 48.2461C188.314 48.2056 188.293 48.1517 188.293 48.0843C188.3 47.9157 188.385 47.7236 188.548 47.5079C188.718 47.2921 188.977 47.1067 189.325 46.9517C189.672 46.7966 190.097 46.7191 190.6 46.7191C191.437 46.7191 192.046 46.8978 192.429 47.2551C192.812 47.6124 193.003 48.0809 193.003 48.6607V51.836C193.003 51.9034 192.979 51.9607 192.929 52.0079C192.886 52.0551 192.826 52.0787 192.748 52.0787H191.887C191.816 52.0787 191.756 52.0551 191.706 52.0079C191.657 51.9607 191.632 51.9034 191.632 51.836V51.4416C191.476 51.6573 191.253 51.836 190.962 51.9775C190.678 52.1124 190.324 52.1798 189.899 52.1798ZM190.26 51.2191C190.65 51.2191 190.969 51.0978 191.217 50.8551C191.465 50.6124 191.589 50.2584 191.589 49.7933V49.5809L190.526 49.7427C190.115 49.8034 189.803 49.9011 189.59 50.036C189.385 50.1708 189.282 50.336 189.282 50.5315C189.282 50.7472 189.378 50.9157 189.569 51.0371C189.76 51.1584 189.991 51.2191 190.26 51.2191Z" fill="url(#paint21_linear)"/>
<path d="M194.623 52.0787C194.552 52.0787 194.492 52.0551 194.442 52.0079C194.392 51.9607 194.367 51.9034 194.367 51.836V47.0629C194.367 46.9955 194.392 46.9382 194.442 46.891C194.492 46.8438 194.552 46.8202 194.623 46.8202H195.505C195.583 46.8202 195.643 46.8438 195.686 46.891C195.736 46.9315 195.76 46.9888 195.76 47.0629V48.873H198.163V47.0629C198.163 46.9888 198.188 46.9315 198.238 46.891C198.287 46.8438 198.348 46.8202 198.419 46.8202H199.301C199.379 46.8202 199.439 46.8438 199.482 46.891C199.531 46.9315 199.556 46.9888 199.556 47.0629V51.836C199.556 51.9034 199.531 51.9607 199.482 52.0079C199.439 52.0551 199.379 52.0787 199.301 52.0787H198.419C198.348 52.0787 198.287 52.0551 198.238 52.0079C198.188 51.9607 198.163 51.9034 198.163 51.836V49.9348H195.76V51.836C195.76 51.9034 195.736 51.9607 195.686 52.0079C195.643 52.0551 195.583 52.0787 195.505 52.0787H194.623Z" fill="url(#paint22_linear)"/>
<path d="M201.247 52.0787C201.176 52.0787 201.116 52.0551 201.067 52.0079C201.017 51.9607 200.992 51.9034 200.992 51.836V47.0629C200.992 46.9955 201.017 46.9382 201.067 46.891C201.116 46.8438 201.176 46.8202 201.247 46.8202H202.13C202.208 46.8202 202.268 46.8438 202.311 46.891C202.36 46.9315 202.385 46.9888 202.385 47.0629V48.873H204.788V47.0629C204.788 46.9888 204.813 46.9315 204.862 46.891C204.912 46.8438 204.972 46.8202 205.043 46.8202H205.926C206.004 46.8202 206.064 46.8438 206.106 46.891C206.156 46.9315 206.181 46.9888 206.181 47.0629V51.836C206.181 51.9034 206.156 51.9607 206.106 52.0079C206.064 52.0551 206.004 52.0787 205.926 52.0787H205.043C204.972 52.0787 204.912 52.0551 204.862 52.0079C204.813 51.9607 204.788 51.9034 204.788 51.836V49.9348H202.385V51.836C202.385 51.9034 202.36 51.9607 202.311 52.0079C202.268 52.0551 202.208 52.0787 202.13 52.0787H201.247Z" fill="url(#paint23_linear)"/>
<path d="M210.062 52.1798C209.233 52.1798 208.591 51.9775 208.138 51.573C207.684 51.1618 207.44 50.6022 207.404 49.8944L207.393 49.4494L207.404 49.0045C207.44 48.3034 207.688 47.7472 208.148 47.336C208.609 46.9247 209.247 46.7191 210.062 46.7191C210.877 46.7191 211.515 46.9247 211.976 47.336C212.437 47.7472 212.685 48.3034 212.72 49.0045C212.728 49.0854 212.731 49.2337 212.731 49.4494C212.731 49.6652 212.728 49.8135 212.72 49.8944C212.685 50.6022 212.44 51.1618 211.987 51.573C211.533 51.9775 210.892 52.1798 210.062 52.1798ZM210.062 51.1787C210.438 51.1787 210.729 51.0674 210.934 50.8449C211.14 50.6157 211.253 50.282 211.274 49.8438C211.281 49.7764 211.285 49.6449 211.285 49.4494C211.285 49.2539 211.281 49.1225 211.274 49.0551C211.253 48.6169 211.14 48.2865 210.934 48.064C210.729 47.8348 210.438 47.7202 210.062 47.7202C209.687 47.7202 209.396 47.8348 209.19 48.064C208.985 48.2865 208.871 48.6169 208.85 49.0551L208.84 49.4494L208.85 49.8438C208.871 50.282 208.985 50.6157 209.19 50.8449C209.396 51.0674 209.687 51.1787 210.062 51.1787Z" fill="url(#paint24_linear)"/>
<path d="M214.164 52.0787C214.093 52.0787 214.033 52.0551 213.984 52.0079C213.934 51.9607 213.909 51.9034 213.909 51.836V47.0629C213.909 46.9955 213.934 46.9382 213.984 46.891C214.033 46.8438 214.093 46.8202 214.164 46.8202H217.535C217.613 46.8202 217.673 46.8438 217.716 46.891C217.765 46.9315 217.79 46.9888 217.79 47.0629V47.6393C217.79 47.7135 217.765 47.7742 217.716 47.8213C217.666 47.8685 217.606 47.8921 217.535 47.8921H215.302V51.836C215.302 51.9034 215.277 51.9607 215.228 52.0079C215.185 52.0551 215.125 52.0787 215.047 52.0787H214.164Z" fill="url(#paint25_linear)"/>
<path d="M220.996 52.1798C220.167 52.1798 219.525 51.9775 219.072 51.573C218.618 51.1618 218.373 50.6022 218.338 49.8944L218.327 49.4494L218.338 49.0045C218.373 48.3034 218.621 47.7472 219.082 47.336C219.543 46.9247 220.181 46.7191 220.996 46.7191C221.811 46.7191 222.449 46.9247 222.91 47.336C223.371 47.7472 223.619 48.3034 223.654 49.0045C223.661 49.0854 223.665 49.2337 223.665 49.4494C223.665 49.6652 223.661 49.8135 223.654 49.8944C223.619 50.6022 223.374 51.1618 222.921 51.573C222.467 51.9775 221.825 52.1798 220.996 52.1798ZM220.996 51.1787C221.372 51.1787 221.662 51.0674 221.868 50.8449C222.073 50.6157 222.187 50.282 222.208 49.8438C222.215 49.7764 222.219 49.6449 222.219 49.4494C222.219 49.2539 222.215 49.1225 222.208 49.0551C222.187 48.6169 222.073 48.2865 221.868 48.064C221.662 47.8348 221.372 47.7202 220.996 47.7202C220.62 47.7202 220.33 47.8348 220.124 48.064C219.919 48.2865 219.805 48.6169 219.784 49.0551L219.773 49.4494L219.784 49.8438C219.805 50.282 219.919 50.6157 220.124 50.8449C220.33 51.0674 220.62 51.1787 220.996 51.1787Z" fill="url(#paint26_linear)"/>
<path d="M233.089 46.8202C233.145 46.8202 233.195 46.8404 233.238 46.8809C233.287 46.9213 233.312 46.9652 233.312 47.0124V51.8663C233.312 51.927 233.291 51.9775 233.248 52.018C233.206 52.0584 233.149 52.0787 233.078 52.0787H232.164C232.093 52.0787 232.036 52.0584 231.994 52.018C231.958 51.9775 231.94 51.927 231.94 51.8663V49.0348L230.803 51.027C230.753 51.1079 230.703 51.1685 230.654 51.209C230.611 51.2494 230.547 51.2697 230.462 51.2697H230.112C230.034 51.2697 229.97 51.2494 229.92 51.209C229.871 51.1685 229.824 51.1079 229.782 51.027L228.644 49.0753V51.8663C228.644 51.927 228.623 51.9775 228.58 52.018C228.538 52.0584 228.485 52.0787 228.421 52.0787H227.507C227.436 52.0787 227.379 52.0584 227.336 52.018C227.294 51.9775 227.273 51.927 227.273 51.8663V47.0124C227.273 46.9652 227.294 46.9213 227.336 46.8809C227.379 46.8404 227.429 46.8202 227.485 46.8202H228.378C228.499 46.8202 228.591 46.8775 228.655 46.9921L230.292 49.8236L231.93 46.9921C231.994 46.8775 232.086 46.8202 232.206 46.8202H233.089Z" fill="url(#paint27_linear)"/>
<path d="M236.354 52.1798C235.993 52.1798 235.66 52.1124 235.355 51.9775C235.057 51.836 234.82 51.6472 234.642 51.4112C234.472 51.1753 234.387 50.9157 234.387 50.6326C234.387 50.1742 234.582 49.8034 234.972 49.5202C235.362 49.2371 235.897 49.0449 236.578 48.9438L238.034 48.7416V48.5292C238.034 48.2326 237.956 48.0101 237.8 47.8618C237.644 47.7135 237.393 47.6393 237.045 47.6393C236.811 47.6393 236.62 47.6831 236.471 47.7708C236.329 47.8517 236.216 47.9326 236.131 48.0135C236.046 48.1011 235.989 48.1584 235.961 48.1854C235.932 48.2663 235.879 48.3067 235.801 48.3067H234.983C234.919 48.3067 234.862 48.2865 234.812 48.2461C234.77 48.2056 234.749 48.1517 234.749 48.0843C234.756 47.9157 234.841 47.7236 235.004 47.5079C235.174 47.2921 235.433 47.1067 235.78 46.9517C236.127 46.7966 236.553 46.7191 237.056 46.7191C237.892 46.7191 238.502 46.8978 238.885 47.2551C239.268 47.6124 239.459 48.0809 239.459 48.6607V51.836C239.459 51.9034 239.434 51.9607 239.385 52.0079C239.342 52.0551 239.282 52.0787 239.204 52.0787H238.343C238.272 52.0787 238.211 52.0551 238.162 52.0079C238.112 51.9607 238.087 51.9034 238.087 51.836V51.4416C237.931 51.6573 237.708 51.836 237.417 51.9775C237.134 52.1124 236.78 52.1798 236.354 52.1798ZM236.716 51.2191C237.106 51.2191 237.425 51.0978 237.673 50.8551C237.921 50.6124 238.045 50.2584 238.045 49.7933V49.5809L236.982 49.7427C236.57 49.8034 236.259 49.9011 236.046 50.036C235.84 50.1708 235.738 50.336 235.738 50.5315C235.738 50.7472 235.833 50.9157 236.025 51.0371C236.216 51.1584 236.446 51.2191 236.716 51.2191Z" fill="url(#paint28_linear)"/>
<path d="M242.514 52.0787C242.443 52.0787 242.382 52.0551 242.333 52.0079C242.283 51.9607 242.258 51.9034 242.258 51.836V47.8921H240.525C240.454 47.8921 240.394 47.8685 240.345 47.8213C240.295 47.7742 240.27 47.7135 240.27 47.6393V47.0629C240.27 46.9888 240.295 46.9315 240.345 46.891C240.394 46.8438 240.454 46.8202 240.525 46.8202H245.353C245.43 46.8202 245.494 46.8438 245.544 46.891C245.594 46.9382 245.618 46.9955 245.618 47.0629V47.6393C245.618 47.7067 245.594 47.7674 245.544 47.8213C245.494 47.8685 245.43 47.8921 245.353 47.8921H243.63V51.836C243.63 51.9034 243.605 51.9607 243.556 52.0079C243.513 52.0551 243.453 52.0787 243.375 52.0787H242.514Z" fill="url(#paint29_linear)"/>
<path d="M248.843 52.1798C248.056 52.1798 247.429 51.964 246.961 51.5326C246.5 51.0944 246.256 50.4809 246.227 49.6921L246.217 49.4393L246.227 49.1865C246.263 48.418 246.511 47.8146 246.972 47.3764C247.439 46.9382 248.063 46.7191 248.843 46.7191C249.679 46.7191 250.324 46.9618 250.778 47.4472C251.239 47.9326 251.469 48.5798 251.469 49.3888V49.6011C251.469 49.6685 251.444 49.7258 251.395 49.773C251.345 49.8202 251.281 49.8438 251.203 49.8438H247.673V49.9247C247.688 50.2955 247.794 50.609 247.992 50.8652C248.198 51.1146 248.478 51.2393 248.832 51.2393C249.251 51.2393 249.587 51.0843 249.842 50.7742C249.906 50.7 249.956 50.6528 249.991 50.6326C250.034 50.6124 250.094 50.6022 250.172 50.6022H251.086C251.15 50.6022 251.203 50.6225 251.246 50.6629C251.296 50.6966 251.32 50.7404 251.32 50.7944C251.32 50.9562 251.218 51.1483 251.012 51.3708C250.814 51.5865 250.526 51.7753 250.151 51.9371C249.775 52.0989 249.339 52.1798 248.843 52.1798ZM250.023 48.9944V48.964C250.023 48.5663 249.917 48.2461 249.704 48.0034C249.499 47.7607 249.212 47.6393 248.843 47.6393C248.474 47.6393 248.187 47.7607 247.982 48.0034C247.776 48.2461 247.673 48.5663 247.673 48.964V48.9944H250.023Z" fill="url(#paint30_linear)"/>
<path d="M252.864 54C252.793 54 252.733 53.9764 252.683 53.9292C252.633 53.8888 252.608 53.8315 252.608 53.7573V47.0629C252.608 46.9888 252.633 46.9315 252.683 46.891C252.733 46.8438 252.793 46.8202 252.864 46.8202H253.704C253.782 46.8202 253.842 46.8438 253.884 46.891C253.934 46.9315 253.959 46.9888 253.959 47.0629V47.4674C254.356 46.9685 254.923 46.7191 255.66 46.7191C256.376 46.7191 256.925 46.9348 257.308 47.3663C257.691 47.791 257.896 48.3674 257.925 49.0955C257.932 49.1764 257.935 49.2944 257.935 49.4494C257.935 49.6112 257.932 49.7326 257.925 49.8135C257.896 50.5213 257.691 51.0944 257.308 51.5326C256.925 51.964 256.376 52.1798 255.66 52.1798C254.944 52.1798 254.398 51.9404 254.023 51.4618V53.7573C254.023 53.8315 253.998 53.8888 253.948 53.9292C253.906 53.9764 253.845 54 253.767 54H252.864ZM255.267 51.0978C256.032 51.0978 256.44 50.6494 256.489 49.7528C256.496 49.6854 256.5 49.5843 256.5 49.4494C256.5 49.3146 256.496 49.2135 256.489 49.1461C256.44 48.2494 256.032 47.8011 255.267 47.8011C254.856 47.8011 254.551 47.9258 254.352 48.1753C254.154 48.4247 254.044 48.7315 254.023 49.0955L254.012 49.4798L254.023 49.8742C254.037 50.2112 254.147 50.5011 254.352 50.7438C254.565 50.9798 254.87 51.0978 255.267 51.0978Z" fill="url(#paint31_linear)"/>
<path d="M264.169 46.8202C264.233 46.8202 264.289 46.8438 264.339 46.891C264.389 46.9315 264.413 46.982 264.413 47.0427V51.836C264.413 51.9034 264.389 51.9607 264.339 52.0079C264.289 52.0551 264.229 52.0787 264.158 52.0787H263.276C263.205 52.0787 263.145 52.0551 263.095 52.0079C263.045 51.9607 263.021 51.9034 263.021 51.836V48.5899L260.469 51.9169C260.405 52.0247 260.309 52.0787 260.182 52.0787H259.374C259.31 52.0787 259.253 52.0584 259.203 52.018C259.154 51.9708 259.129 51.9135 259.129 51.8461V47.0629C259.129 46.9955 259.154 46.9382 259.203 46.891C259.253 46.8438 259.313 46.8202 259.384 46.8202H260.267C260.345 46.8202 260.405 46.8438 260.447 46.891C260.497 46.9315 260.522 46.9888 260.522 47.0629V50.3191L263.074 46.982C263.152 46.8742 263.247 46.8202 263.361 46.8202H264.169Z" fill="url(#paint32_linear)"/>
<path d="M266.009 52.0787C265.938 52.0787 265.878 52.0551 265.828 52.0079C265.778 51.9607 265.754 51.9034 265.754 51.836V47.0629C265.754 46.9955 265.778 46.9382 265.828 46.891C265.878 46.8438 265.938 46.8202 266.009 46.8202H266.891C266.969 46.8202 267.03 46.8438 267.072 46.891C267.122 46.9315 267.147 46.9888 267.147 47.0629V48.873H269.55V47.0629C269.55 46.9888 269.574 46.9315 269.624 46.891C269.674 46.8438 269.734 46.8202 269.805 46.8202H270.687C270.765 46.8202 270.825 46.8438 270.868 46.891C270.918 46.9315 270.942 46.9888 270.942 47.0629V51.836C270.942 51.9034 270.918 51.9607 270.868 52.0079C270.825 52.0551 270.765 52.0787 270.687 52.0787H269.805C269.734 52.0787 269.674 52.0551 269.624 52.0079C269.574 51.9607 269.55 51.9034 269.55 51.836V49.9348H267.147V51.836C267.147 51.9034 267.122 51.9607 267.072 52.0079C267.03 52.0551 266.969 52.0787 266.891 52.0787H266.009Z" fill="url(#paint33_linear)"/>
<path d="M274.771 52.1798C273.991 52.1798 273.367 51.9742 272.899 51.5629C272.439 51.1517 272.194 50.582 272.166 49.8539L272.155 49.4494L272.166 49.0449C272.194 48.3169 272.439 47.7472 272.899 47.336C273.367 46.9247 273.991 46.7191 274.771 46.7191C275.324 46.7191 275.791 46.8135 276.174 47.0022C276.564 47.191 276.851 47.4236 277.035 47.7C277.227 47.9697 277.33 48.2258 277.344 48.4685C277.351 48.536 277.326 48.5933 277.269 48.6404C277.22 48.6876 277.159 48.7112 277.089 48.7112H276.153C276.082 48.7112 276.025 48.6978 275.983 48.6708C275.947 48.6371 275.912 48.5831 275.876 48.509C275.77 48.2461 275.628 48.0573 275.451 47.9427C275.281 47.8281 275.061 47.7708 274.792 47.7708C274.43 47.7708 274.147 47.882 273.941 48.1045C273.736 48.3202 273.626 48.6506 273.612 49.0955L273.601 49.4697L273.612 49.8034C273.64 50.6865 274.033 51.1281 274.792 51.1281C275.068 51.1281 275.292 51.0708 275.462 50.9562C275.632 50.8416 275.77 50.6528 275.876 50.3899C275.912 50.3157 275.947 50.2652 275.983 50.2382C276.025 50.2045 276.082 50.1876 276.153 50.1876H277.089C277.159 50.1876 277.22 50.2112 277.269 50.2584C277.326 50.3056 277.351 50.3629 277.344 50.4303C277.33 50.6663 277.23 50.9191 277.046 51.1888C276.862 51.4584 276.578 51.691 276.195 51.8865C275.813 52.082 275.338 52.1798 274.771 52.1798Z" fill="url(#paint34_linear)"/>
<path d="M280.143 52.0787C280.072 52.0787 280.012 52.0551 279.962 52.0079C279.913 51.9607 279.888 51.9034 279.888 51.836V47.8921H278.155C278.084 47.8921 278.024 47.8685 277.974 47.8213C277.925 47.7742 277.9 47.7135 277.9 47.6393V47.0629C277.9 46.9888 277.925 46.9315 277.974 46.891C278.024 46.8438 278.084 46.8202 278.155 46.8202H282.982C283.06 46.8202 283.124 46.8438 283.174 46.891C283.223 46.9382 283.248 46.9955 283.248 47.0629V47.6393C283.248 47.7067 283.223 47.7674 283.174 47.8213C283.124 47.8685 283.06 47.8921 282.982 47.8921H281.26V51.836C281.26 51.9034 281.235 51.9607 281.185 52.0079C281.143 52.0551 281.082 52.0787 281.004 52.0787H280.143Z" fill="url(#paint35_linear)"/>
<path d="M284.346 52.0787C284.275 52.0787 284.215 52.0551 284.165 52.0079C284.116 51.9607 284.091 51.9034 284.091 51.836V47.0629C284.091 46.9955 284.116 46.9382 284.165 46.891C284.215 46.8438 284.275 46.8202 284.346 46.8202H286.706C287.437 46.8202 287.986 46.9483 288.355 47.2045C288.73 47.4607 288.918 47.818 288.918 48.2764C288.918 48.5461 288.865 48.7618 288.759 48.9236C288.652 49.0787 288.493 49.2169 288.28 49.3382C288.528 49.4461 288.72 49.6079 288.854 49.8236C288.996 50.0393 289.067 50.282 289.067 50.5517C289.067 51.0438 288.876 51.4213 288.493 51.6843C288.11 51.9472 287.554 52.0787 286.823 52.0787H284.346ZM286.685 48.964C286.969 48.964 287.192 48.9101 287.355 48.8022C287.518 48.6876 287.6 48.5225 287.6 48.3067C287.6 48.0978 287.522 47.9494 287.366 47.8618C287.21 47.7742 286.983 47.7303 286.685 47.7303H285.452V48.964H286.685ZM286.728 51.1685C287.018 51.1685 287.245 51.118 287.408 51.0169C287.578 50.909 287.663 50.7506 287.663 50.5416C287.663 50.3191 287.585 50.1573 287.429 50.0562C287.281 49.9551 287.047 49.9045 286.728 49.9045H285.452V51.1685H286.728Z" fill="url(#paint36_linear)"/>
<path d="M291.895 52.1798C291.534 52.1798 291.201 52.1124 290.896 51.9775C290.598 51.836 290.361 51.6472 290.183 51.4112C290.013 51.1753 289.928 50.9157 289.928 50.6326C289.928 50.1742 290.123 49.8034 290.513 49.5202C290.903 49.2371 291.438 49.0449 292.119 48.9438L293.575 48.7416V48.5292C293.575 48.2326 293.497 48.0101 293.341 47.8618C293.185 47.7135 292.934 47.6393 292.586 47.6393C292.352 47.6393 292.161 47.6831 292.012 47.7708C291.87 47.8517 291.757 47.9326 291.672 48.0135C291.587 48.1011 291.53 48.1584 291.502 48.1854C291.474 48.2663 291.42 48.3067 291.342 48.3067H290.524C290.46 48.3067 290.403 48.2865 290.354 48.2461C290.311 48.2056 290.29 48.1517 290.29 48.0843C290.297 47.9157 290.382 47.7236 290.545 47.5079C290.715 47.2921 290.974 47.1067 291.321 46.9517C291.668 46.7966 292.094 46.7191 292.597 46.7191C293.433 46.7191 294.043 46.8978 294.426 47.2551C294.809 47.6124 295 48.0809 295 48.6607V51.836C295 51.9034 294.975 51.9607 294.926 52.0079C294.883 52.0551 294.823 52.0787 294.745 52.0787H293.884C293.813 52.0787 293.752 52.0551 293.703 52.0079C293.653 51.9607 293.628 51.9034 293.628 51.836V51.4416C293.472 51.6573 293.249 51.836 292.959 51.9775C292.675 52.1124 292.321 52.1798 291.895 52.1798ZM292.257 51.2191C292.647 51.2191 292.966 51.0978 293.214 50.8551C293.462 50.6124 293.586 50.2584 293.586 49.7933V49.5809L292.523 49.7427C292.111 49.8034 291.8 49.9011 291.587 50.036C291.381 50.1708 291.279 50.336 291.279 50.5315C291.279 50.7472 291.374 50.9157 291.566 51.0371C291.757 51.1584 291.987 51.2191 292.257 51.2191Z" fill="url(#paint37_linear)"/>
<defs>
<linearGradient id="paint0_linear" x1="0" y1="29.821" x2="62" y2="29.821" gradientUnits="userSpaceOnUse">
<stop stop-color="#6288E4"/>
<stop offset="1" stop-color="#AB86E4"/>
</linearGradient>
<linearGradient id="paint1_linear" x1="0" y1="29.821" x2="62" y2="29.821" gradientUnits="userSpaceOnUse">
<stop stop-color="#6288E4"/>
<stop offset="1" stop-color="#AB86E4"/>
</linearGradient>
<linearGradient id="paint2_linear" x1="0" y1="29.821" x2="62" y2="29.821" gradientUnits="userSpaceOnUse">
<stop stop-color="#6288E4"/>
<stop offset="1" stop-color="#AB86E4"/>
</linearGradient>
<linearGradient id="paint3_linear" x1="0" y1="29.821" x2="62" y2="29.821" gradientUnits="userSpaceOnUse">
<stop stop-color="#6288E4"/>
<stop offset="1" stop-color="#AB86E4"/>
</linearGradient>
<linearGradient id="paint4_linear" x1="76" y1="25" x2="295" y2="25" gradientUnits="userSpaceOnUse">
<stop stop-color="#6288E4"/>
<stop offset="1" stop-color="#AB86E4"/>
</linearGradient>
<linearGradient id="paint5_linear" x1="79" y1="49.5" x2="295" y2="49.5" gradientUnits="userSpaceOnUse">
<stop stop-color="#6288E4"/>
<stop offset="1" stop-color="#AB86E4"/>
</linearGradient>
<linearGradient id="paint6_linear" x1="79" y1="49.5" x2="295" y2="49.5" gradientUnits="userSpaceOnUse">
<stop stop-color="#6288E4"/>
<stop offset="1" stop-color="#AB86E4"/>
</linearGradient>
<linearGradient id="paint7_linear" x1="79" y1="49.5" x2="295" y2="49.5" gradientUnits="userSpaceOnUse">
<stop stop-color="#6288E4"/>
<stop offset="1" stop-color="#AB86E4"/>
</linearGradient>
<linearGradient id="paint8_linear" x1="79" y1="49.5" x2="295" y2="49.5" gradientUnits="userSpaceOnUse">
<stop stop-color="#6288E4"/>
<stop offset="1" stop-color="#AB86E4"/>
</linearGradient>
<linearGradient id="paint9_linear" x1="79" y1="49.5" x2="295" y2="49.5" gradientUnits="userSpaceOnUse">
<stop stop-color="#6288E4"/>
<stop offset="1" stop-color="#AB86E4"/>
</linearGradient>
<linearGradient id="paint10_linear" x1="79" y1="49.5" x2="295" y2="49.5" gradientUnits="userSpaceOnUse">
<stop stop-color="#6288E4"/>
<stop offset="1" stop-color="#AB86E4"/>
</linearGradient>
<linearGradient id="paint11_linear" x1="79" y1="49.5" x2="295" y2="49.5" gradientUnits="userSpaceOnUse">
<stop stop-color="#6288E4"/>
<stop offset="1" stop-color="#AB86E4"/>
</linearGradient>
<linearGradient id="paint12_linear" x1="79" y1="49.5" x2="295" y2="49.5" gradientUnits="userSpaceOnUse">
<stop stop-color="#6288E4"/>
<stop offset="1" stop-color="#AB86E4"/>
</linearGradient>
<linearGradient id="paint13_linear" x1="79" y1="49.5" x2="295" y2="49.5" gradientUnits="userSpaceOnUse">
<stop stop-color="#6288E4"/>
<stop offset="1" stop-color="#AB86E4"/>
</linearGradient>
<linearGradient id="paint14_linear" x1="79" y1="49.5" x2="295" y2="49.5" gradientUnits="userSpaceOnUse">
<stop stop-color="#6288E4"/>
<stop offset="1" stop-color="#AB86E4"/>
</linearGradient>
<linearGradient id="paint15_linear" x1="79" y1="49.5" x2="295" y2="49.5" gradientUnits="userSpaceOnUse">
<stop stop-color="#6288E4"/>
<stop offset="1" stop-color="#AB86E4"/>
</linearGradient>
<linearGradient id="paint16_linear" x1="79" y1="49.5" x2="295" y2="49.5" gradientUnits="userSpaceOnUse">
<stop stop-color="#6288E4"/>
<stop offset="1" stop-color="#AB86E4"/>
</linearGradient>
<linearGradient id="paint17_linear" x1="79" y1="49.5" x2="295" y2="49.5" gradientUnits="userSpaceOnUse">
<stop stop-color="#6288E4"/>
<stop offset="1" stop-color="#AB86E4"/>
</linearGradient>
<linearGradient id="paint18_linear" x1="79" y1="49.5" x2="295" y2="49.5" gradientUnits="userSpaceOnUse">
<stop stop-color="#6288E4"/>
<stop offset="1" stop-color="#AB86E4"/>
</linearGradient>
<linearGradient id="paint19_linear" x1="79" y1="49.5" x2="295" y2="49.5" gradientUnits="userSpaceOnUse">
<stop stop-color="#6288E4"/>
<stop offset="1" stop-color="#AB86E4"/>
</linearGradient>
<linearGradient id="paint20_linear" x1="79" y1="49.5" x2="295" y2="49.5" gradientUnits="userSpaceOnUse">
<stop stop-color="#6288E4"/>
<stop offset="1" stop-color="#AB86E4"/>
</linearGradient>
<linearGradient id="paint21_linear" x1="79" y1="49.5" x2="295" y2="49.5" gradientUnits="userSpaceOnUse">
<stop stop-color="#6288E4"/>
<stop offset="1" stop-color="#AB86E4"/>
</linearGradient>
<linearGradient id="paint22_linear" x1="79" y1="49.5" x2="295" y2="49.5" gradientUnits="userSpaceOnUse">
<stop stop-color="#6288E4"/>
<stop offset="1" stop-color="#AB86E4"/>
</linearGradient>
<linearGradient id="paint23_linear" x1="79" y1="49.5" x2="295" y2="49.5" gradientUnits="userSpaceOnUse">
<stop stop-color="#6288E4"/>
<stop offset="1" stop-color="#AB86E4"/>
</linearGradient>
<linearGradient id="paint24_linear" x1="79" y1="49.5" x2="295" y2="49.5" gradientUnits="userSpaceOnUse">
<stop stop-color="#6288E4"/>
<stop offset="1" stop-color="#AB86E4"/>
</linearGradient>
<linearGradient id="paint25_linear" x1="79" y1="49.5" x2="295" y2="49.5" gradientUnits="userSpaceOnUse">
<stop stop-color="#6288E4"/>
<stop offset="1" stop-color="#AB86E4"/>
</linearGradient>
<linearGradient id="paint26_linear" x1="79" y1="49.5" x2="295" y2="49.5" gradientUnits="userSpaceOnUse">
<stop stop-color="#6288E4"/>
<stop offset="1" stop-color="#AB86E4"/>
</linearGradient>
<linearGradient id="paint27_linear" x1="79" y1="49.5" x2="295" y2="49.5" gradientUnits="userSpaceOnUse">
<stop stop-color="#6288E4"/>
<stop offset="1" stop-color="#AB86E4"/>
</linearGradient>
<linearGradient id="paint28_linear" x1="79" y1="49.5" x2="295" y2="49.5" gradientUnits="userSpaceOnUse">
<stop stop-color="#6288E4"/>
<stop offset="1" stop-color="#AB86E4"/>
</linearGradient>
<linearGradient id="paint29_linear" x1="79" y1="49.5" x2="295" y2="49.5" gradientUnits="userSpaceOnUse">
<stop stop-color="#6288E4"/>
<stop offset="1" stop-color="#AB86E4"/>
</linearGradient>
<linearGradient id="paint30_linear" x1="79" y1="49.5" x2="295" y2="49.5" gradientUnits="userSpaceOnUse">
<stop stop-color="#6288E4"/>
<stop offset="1" stop-color="#AB86E4"/>
</linearGradient>
<linearGradient id="paint31_linear" x1="79" y1="49.5" x2="295" y2="49.5" gradientUnits="userSpaceOnUse">
<stop stop-color="#6288E4"/>
<stop offset="1" stop-color="#AB86E4"/>
</linearGradient>
<linearGradient id="paint32_linear" x1="79" y1="49.5" x2="295" y2="49.5" gradientUnits="userSpaceOnUse">
<stop stop-color="#6288E4"/>
<stop offset="1" stop-color="#AB86E4"/>
</linearGradient>
<linearGradient id="paint33_linear" x1="79" y1="49.5" x2="295" y2="49.5" gradientUnits="userSpaceOnUse">
<stop stop-color="#6288E4"/>
<stop offset="1" stop-color="#AB86E4"/>
</linearGradient>
<linearGradient id="paint34_linear" x1="79" y1="49.5" x2="295" y2="49.5" gradientUnits="userSpaceOnUse">
<stop stop-color="#6288E4"/>
<stop offset="1" stop-color="#AB86E4"/>
</linearGradient>
<linearGradient id="paint35_linear" x1="79" y1="49.5" x2="295" y2="49.5" gradientUnits="userSpaceOnUse">
<stop stop-color="#6288E4"/>
<stop offset="1" stop-color="#AB86E4"/>
</linearGradient>
<linearGradient id="paint36_linear" x1="79" y1="49.5" x2="295" y2="49.5" gradientUnits="userSpaceOnUse">
<stop stop-color="#6288E4"/>
<stop offset="1" stop-color="#AB86E4"/>
</linearGradient>
<linearGradient id="paint37_linear" x1="79" y1="49.5" x2="295" y2="49.5" gradientUnits="userSpaceOnUse">
<stop stop-color="#6288E4"/>
<stop offset="1" stop-color="#AB86E4"/>
</linearGradient>
</defs>
</svg>
