<svg width="231" height="43" viewBox="0 0 231 43" fill="none" xmlns="http://www.w3.org/2000/svg">
<path d="M59.0806 9.4C60.1966 9.4 61.1626 9.586 61.9786 9.958C62.8066 10.33 63.4426 10.858 63.8866 11.542C64.3306 12.226 64.5526 13.036 64.5526 13.972C64.5526 14.896 64.3306 15.706 63.8866 16.402C63.4426 17.086 62.8066 17.614 61.9786 17.986C61.1626 18.346 60.1966 18.526 59.0806 18.526H56.5426V22H53.6266V9.4H59.0806ZM58.9186 16.15C59.7946 16.15 60.4606 15.964 60.9166 15.592C61.3726 15.208 61.6006 14.668 61.6006 13.972C61.6006 13.264 61.3726 12.724 60.9166 12.352C60.4606 11.968 59.7946 11.776 58.9186 11.776H56.5426V16.15H58.9186ZM76.1967 17.194C76.1967 17.23 76.1787 17.482 76.1427 17.95H68.8167C68.9487 18.55 69.2607 19.024 69.7527 19.372C70.2447 19.72 70.8567 19.894 71.5887 19.894C72.0927 19.894 72.5367 19.822 72.9207 19.678C73.3167 19.522 73.6827 19.282 74.0187 18.958L75.5127 20.578C74.6007 21.622 73.2687 22.144 71.5167 22.144C70.4247 22.144 69.4587 21.934 68.6187 21.514C67.7787 21.082 67.1307 20.488 66.6747 19.732C66.2187 18.976 65.9907 18.118 65.9907 17.158C65.9907 16.21 66.2127 15.358 66.6567 14.602C67.1127 13.834 67.7307 13.24 68.5107 12.82C69.3027 12.388 70.1847 12.172 71.1567 12.172C72.1047 12.172 72.9627 12.376 73.7307 12.784C74.4987 13.192 75.0987 13.78 75.5307 14.548C75.9747 15.304 76.1967 16.186 76.1967 17.194ZM71.1747 14.296C70.5387 14.296 70.0047 14.476 69.5727 14.836C69.1407 15.196 68.8767 15.688 68.7807 16.312H73.5507C73.4547 15.7 73.1907 15.214 72.7587 14.854C72.3267 14.482 71.7987 14.296 71.1747 14.296ZM88.5191 12.316V22H85.7111V14.62H81.6791V22H78.8891V12.316H88.5191ZM147.47 12.316L143.096 22.594C142.652 23.71 142.1 24.496 141.44 24.952C140.792 25.408 140.006 25.636 139.082 25.636C138.578 25.636 138.08 25.558 137.588 25.402C137.096 25.246 136.694 25.03 136.382 24.754L137.408 22.756C137.624 22.948 137.87 23.098 138.146 23.206C138.434 23.314 138.716 23.368 138.992 23.368C139.376 23.368 139.688 23.272 139.928 23.08C140.168 22.9 140.384 22.594 140.576 22.162L140.612 22.072L136.418 12.316H139.316L142.034 18.886L144.77 12.316H147.47ZM153.631 18.328H152.173V22H149.365V12.316H152.173V16.078H153.685L156.313 12.316H159.301L155.917 16.96L159.535 22H156.223L153.631 18.328ZM172.362 19.696V24.124H169.752V22H161.454V12.316H164.244V19.696H168.15V12.316H170.958V19.696H172.362ZM174.667 12.316H177.457V18.076L182.173 12.316H184.747V22H181.957V16.24L177.259 22H174.667V12.316ZM196.591 12.316V22H194.089V19.228H192.019L190.183 22H187.195L189.409 18.832C188.737 18.568 188.221 18.19 187.861 17.698C187.513 17.194 187.339 16.588 187.339 15.88C187.339 14.74 187.747 13.864 188.563 13.252C189.391 12.628 190.525 12.316 191.965 12.316H196.591ZM192.019 14.602C191.419 14.602 190.963 14.71 190.651 14.926C190.351 15.142 190.201 15.49 190.201 15.97C190.201 16.45 190.345 16.804 190.633 17.032C190.933 17.248 191.383 17.356 191.983 17.356H194.089V14.602H192.019Z" fill="white"/>
<path d="M97.4213 9.4C98.5373 9.4 99.5033 9.586 100.319 9.958C101.147 10.33 101.783 10.858 102.227 11.542C102.671 12.226 102.893 13.036 102.893 13.972C102.893 14.896 102.671 15.706 102.227 16.402C101.783 17.086 101.147 17.614 100.319 17.986C99.5033 18.346 98.5373 18.526 97.4213 18.526H94.8833V22H91.9673V9.4H97.4213ZM97.2593 16.15C98.1353 16.15 98.8013 15.964 99.2573 15.592C99.7133 15.208 99.9413 14.668 99.9413 13.972C99.9413 13.264 99.7133 12.724 99.2573 12.352C98.8013 11.968 98.1353 11.776 97.2593 11.776H94.8833V16.15H97.2593ZM111.545 22.216C110.237 22.216 109.055 21.934 107.999 21.37C106.955 20.806 106.133 20.032 105.533 19.048C104.945 18.052 104.651 16.936 104.651 15.7C104.651 14.464 104.945 13.354 105.533 12.37C106.133 11.374 106.955 10.594 107.999 10.03C109.055 9.466 110.237 9.184 111.545 9.184C112.853 9.184 114.029 9.466 115.073 10.03C116.117 10.594 116.939 11.374 117.539 12.37C118.139 13.354 118.439 14.464 118.439 15.7C118.439 16.936 118.139 18.052 117.539 19.048C116.939 20.032 116.117 20.806 115.073 21.37C114.029 21.934 112.853 22.216 111.545 22.216ZM111.545 19.732C112.289 19.732 112.961 19.564 113.561 19.228C114.161 18.88 114.629 18.4 114.965 17.788C115.313 17.176 115.487 16.48 115.487 15.7C115.487 14.92 115.313 14.224 114.965 13.612C114.629 13 114.161 12.526 113.561 12.19C112.961 11.842 112.289 11.668 111.545 11.668C110.801 11.668 110.129 11.842 109.529 12.19C108.929 12.526 108.455 13 108.107 13.612C107.771 14.224 107.603 14.92 107.603 15.7C107.603 16.48 107.771 17.176 108.107 17.788C108.455 18.4 108.929 18.88 109.529 19.228C110.129 19.564 110.801 19.732 111.545 19.732ZM134.221 19.624V24.61H131.521V22H122.629V24.61H119.929L119.947 19.624H120.451C121.207 19.6 121.741 19.048 122.053 17.968C122.365 16.888 122.557 15.346 122.629 13.342L122.773 9.4H132.457V19.624H134.221ZM125.203 13.612C125.143 15.112 125.017 16.372 124.825 17.392C124.633 18.4 124.339 19.144 123.943 19.624H129.577V11.776H125.257L125.203 13.612Z" fill="#989BB2"/>
<path d="M97.4213 9.4C98.5373 9.4 99.5033 9.586 100.319 9.958C101.147 10.33 101.783 10.858 102.227 11.542C102.671 12.226 102.893 13.036 102.893 13.972C102.893 14.896 102.671 15.706 102.227 16.402C101.783 17.086 101.147 17.614 100.319 17.986C99.5033 18.346 98.5373 18.526 97.4213 18.526H94.8833V22H91.9673V9.4H97.4213ZM97.2593 16.15C98.1353 16.15 98.8013 15.964 99.2573 15.592C99.7133 15.208 99.9413 14.668 99.9413 13.972C99.9413 13.264 99.7133 12.724 99.2573 12.352C98.8013 11.968 98.1353 11.776 97.2593 11.776H94.8833V16.15H97.2593ZM111.545 22.216C110.237 22.216 109.055 21.934 107.999 21.37C106.955 20.806 106.133 20.032 105.533 19.048C104.945 18.052 104.651 16.936 104.651 15.7C104.651 14.464 104.945 13.354 105.533 12.37C106.133 11.374 106.955 10.594 107.999 10.03C109.055 9.466 110.237 9.184 111.545 9.184C112.853 9.184 114.029 9.466 115.073 10.03C116.117 10.594 116.939 11.374 117.539 12.37C118.139 13.354 118.439 14.464 118.439 15.7C118.439 16.936 118.139 18.052 117.539 19.048C116.939 20.032 116.117 20.806 115.073 21.37C114.029 21.934 112.853 22.216 111.545 22.216ZM111.545 19.732C112.289 19.732 112.961 19.564 113.561 19.228C114.161 18.88 114.629 18.4 114.965 17.788C115.313 17.176 115.487 16.48 115.487 15.7C115.487 14.92 115.313 14.224 114.965 13.612C114.629 13 114.161 12.526 113.561 12.19C112.961 11.842 112.289 11.668 111.545 11.668C110.801 11.668 110.129 11.842 109.529 12.19C108.929 12.526 108.455 13 108.107 13.612C107.771 14.224 107.603 14.92 107.603 15.7C107.603 16.48 107.771 17.176 108.107 17.788C108.455 18.4 108.929 18.88 109.529 19.228C110.129 19.564 110.801 19.732 111.545 19.732ZM134.221 19.624V24.61H131.521V22H122.629V24.61H119.929L119.947 19.624H120.451C121.207 19.6 121.741 19.048 122.053 17.968C122.365 16.888 122.557 15.346 122.629 13.342L122.773 9.4H132.457V19.624H134.221ZM125.203 13.612C125.143 15.112 125.017 16.372 124.825 17.392C124.633 18.4 124.339 19.144 123.943 19.624H129.577V11.776H125.257L125.203 13.612Z" fill="#CDB6F2"/>
<ellipse cx="110.918" cy="15.159" rx="1.83162" ry="1.14294" transform="rotate(120.712 110.918 15.159)" fill="#CDB6F1"/>
<path d="M58.2567 29.4V35H57.2327V30.28H54.3287V35H53.3047V29.4H58.2567ZM62.0918 30.68C62.5078 30.68 62.8784 30.7707 63.2038 30.952C63.5344 31.1333 63.7931 31.3893 63.9798 31.72C64.1664 32.0507 64.2598 32.432 64.2598 32.864C64.2598 33.296 64.1664 33.68 63.9798 34.016C63.7931 34.3467 63.5344 34.6027 63.2038 34.784C62.8784 34.9653 62.5078 35.056 62.0918 35.056C61.5158 35.056 61.0598 34.864 60.7238 34.48V36.552H59.7238V30.728H60.6758V31.288C60.8411 31.0853 61.0438 30.9333 61.2838 30.832C61.5291 30.7307 61.7984 30.68 62.0918 30.68ZM61.9798 34.2C62.3478 34.2 62.6491 34.0773 62.8838 33.832C63.1238 33.5867 63.2438 33.264 63.2438 32.864C63.2438 32.464 63.1238 32.1413 62.8838 31.896C62.6491 31.6507 62.3478 31.528 61.9798 31.528C61.7398 31.528 61.5238 31.584 61.3318 31.696C61.1398 31.8027 60.9878 31.9573 60.8758 32.16C60.7638 32.3627 60.7078 32.5973 60.7078 32.864C60.7078 33.1307 60.7638 33.3653 60.8758 33.568C60.9878 33.7707 61.1398 33.928 61.3318 34.04C61.5238 34.1467 61.7398 34.2 61.9798 34.2ZM67.159 35.056C66.727 35.056 66.3377 34.9627 65.991 34.776C65.6444 34.5893 65.3724 34.3307 65.175 34C64.983 33.664 64.887 33.2853 64.887 32.864C64.887 32.4427 64.983 32.0667 65.175 31.736C65.3724 31.4053 65.6444 31.1467 65.991 30.96C66.3377 30.7733 66.727 30.68 67.159 30.68C67.5964 30.68 67.9884 30.7733 68.335 30.96C68.6817 31.1467 68.951 31.4053 69.143 31.736C69.3404 32.0667 69.439 32.4427 69.439 32.864C69.439 33.2853 69.3404 33.664 69.143 34C68.951 34.3307 68.6817 34.5893 68.335 34.776C67.9884 34.9627 67.5964 35.056 67.159 35.056ZM67.159 34.2C67.527 34.2 67.831 34.0773 68.071 33.832C68.311 33.5867 68.431 33.264 68.431 32.864C68.431 32.464 68.311 32.1413 68.071 31.896C67.831 31.6507 67.527 31.528 67.159 31.528C66.791 31.528 66.487 31.6507 66.247 31.896C66.0124 32.1413 65.895 32.464 65.895 32.864C65.895 33.264 66.0124 33.5867 66.247 33.832C66.487 34.0773 66.791 34.2 67.159 34.2ZM73.7069 31.576H71.4269V35H70.4269V30.728H73.7069V31.576ZM76.8027 30.68C77.2187 30.68 77.5894 30.7707 77.9147 30.952C78.2454 31.1333 78.504 31.3893 78.6907 31.72C78.8774 32.0507 78.9707 32.432 78.9707 32.864C78.9707 33.296 78.8774 33.68 78.6907 34.016C78.504 34.3467 78.2454 34.6027 77.9147 34.784C77.5894 34.9653 77.2187 35.056 76.8027 35.056C76.2267 35.056 75.7707 34.864 75.4347 34.48V36.552H74.4347V30.728H75.3867V31.288C75.552 31.0853 75.7547 30.9333 75.9947 30.832C76.24 30.7307 76.5094 30.68 76.8027 30.68ZM76.6907 34.2C77.0587 34.2 77.36 34.0773 77.5947 33.832C77.8347 33.5867 77.9547 33.264 77.9547 32.864C77.9547 32.464 77.8347 32.1413 77.5947 31.896C77.36 31.6507 77.0587 31.528 76.6907 31.528C76.4507 31.528 76.2347 31.584 76.0427 31.696C75.8507 31.8027 75.6987 31.9573 75.5867 32.16C75.4747 32.3627 75.4187 32.5973 75.4187 32.864C75.4187 33.1307 75.4747 33.3653 75.5867 33.568C75.6987 33.7707 75.8507 33.928 76.0427 34.04C76.2347 34.1467 76.4507 34.2 76.6907 34.2ZM81.5033 30.68C82.1326 30.68 82.6126 30.832 82.9433 31.136C83.2793 31.4347 83.4473 31.888 83.4473 32.496V35H82.5033V34.48C82.3806 34.6667 82.2046 34.8107 81.9753 34.912C81.7513 35.008 81.4793 35.056 81.1593 35.056C80.8393 35.056 80.5593 35.0027 80.3193 34.896C80.0793 34.784 79.8926 34.632 79.7593 34.44C79.6313 34.2427 79.5673 34.0213 79.5673 33.776C79.5673 33.392 79.7086 33.0853 79.9913 32.856C80.2793 32.6213 80.7299 32.504 81.3433 32.504H82.4473V32.44C82.4473 32.1413 82.3566 31.912 82.1753 31.752C81.9993 31.592 81.7353 31.512 81.3833 31.512C81.1433 31.512 80.9059 31.5493 80.6713 31.624C80.4419 31.6987 80.2473 31.8027 80.0873 31.936L79.6953 31.208C79.9193 31.0373 80.1886 30.9067 80.5033 30.816C80.8179 30.7253 81.1513 30.68 81.5033 30.68ZM81.3673 34.328C81.6179 34.328 81.8393 34.272 82.0313 34.16C82.2286 34.0427 82.3673 33.8773 82.4473 33.664V33.168H81.4153C80.8393 33.168 80.5513 33.3573 80.5513 33.736C80.5513 33.9173 80.6233 34.0613 80.7673 34.168C80.9113 34.2747 81.1113 34.328 81.3673 34.328ZM88.8847 35V32.168L87.4447 34.552H87.0127L85.5967 32.16V35H84.6847V30.728H85.7327L87.2527 33.4L88.8447 30.728H89.7807L89.7887 35H88.8847ZM95.33 35V32.168L93.89 34.552H93.458L92.042 32.16V35H91.13V30.728H92.178L93.698 33.4L95.29 30.728H96.226L96.234 35H95.33ZM99.6553 32.136C100.199 32.136 100.615 32.2587 100.903 32.504C101.191 32.7493 101.335 33.096 101.335 33.544C101.335 34.0133 101.175 34.376 100.855 34.632C100.541 34.888 100.093 35.0133 99.5113 35.008L97.5753 35V30.728H98.5753V32.128L99.6553 32.136ZM101.887 30.728H102.887V35H101.887V30.728ZM99.4233 34.272C99.7167 34.2773 99.9407 34.216 100.095 34.088C100.25 33.96 100.327 33.7733 100.327 33.528C100.327 33.288 100.253 33.112 100.103 33C99.954 32.888 99.7273 32.8293 99.4233 32.824L98.5753 32.816V34.264L99.4233 34.272ZM111.003 34.152V35.952H110.067V35H106.771V35.952H105.843V34.152H106.043C106.315 34.1413 106.499 33.968 106.595 33.632C106.696 33.2907 106.763 32.8107 106.795 32.192L106.851 30.728H110.371V34.152H111.003ZM107.707 32.264C107.685 32.7547 107.645 33.1547 107.587 33.464C107.528 33.7733 107.421 34.0027 107.267 34.152H109.371V31.576H107.731L107.707 32.264ZM113.8 35.056C113.368 35.056 112.978 34.9627 112.632 34.776C112.285 34.5893 112.013 34.3307 111.816 34C111.624 33.664 111.528 33.2853 111.528 32.864C111.528 32.4427 111.624 32.0667 111.816 31.736C112.013 31.4053 112.285 31.1467 112.632 30.96C112.978 30.7733 113.368 30.68 113.8 30.68C114.237 30.68 114.629 30.7733 114.976 30.96C115.322 31.1467 115.592 31.4053 115.784 31.736C115.981 32.0667 116.08 32.4427 116.08 32.864C116.08 33.2853 115.981 33.664 115.784 34C115.592 34.3307 115.322 34.5893 114.976 34.776C114.629 34.9627 114.237 35.056 113.8 35.056ZM113.8 34.2C114.168 34.2 114.472 34.0773 114.712 33.832C114.952 33.5867 115.072 33.264 115.072 32.864C115.072 32.464 114.952 32.1413 114.712 31.896C114.472 31.6507 114.168 31.528 113.8 31.528C113.432 31.528 113.128 31.6507 112.888 31.896C112.653 32.1413 112.536 32.464 112.536 32.864C112.536 33.264 112.653 33.5867 112.888 33.832C113.128 34.0773 113.432 34.2 113.8 34.2ZM120.893 30.728V35H119.893V31.576H118.293L118.253 32.424C118.226 32.9893 118.173 33.464 118.093 33.848C118.018 34.2267 117.887 34.528 117.701 34.752C117.519 34.9707 117.269 35.08 116.949 35.08C116.799 35.08 116.615 35.0507 116.397 34.992L116.445 34.152C116.519 34.168 116.583 34.176 116.637 34.176C116.839 34.176 116.991 34.096 117.093 33.936C117.194 33.7707 117.258 33.576 117.285 33.352C117.317 33.1227 117.343 32.7973 117.365 32.376L117.437 30.728H120.893ZM125.519 31.576H123.239V35H122.239V30.728H125.519V31.576ZM127.964 35.056C127.532 35.056 127.142 34.9627 126.796 34.776C126.449 34.5893 126.177 34.3307 125.98 34C125.788 33.664 125.692 33.2853 125.692 32.864C125.692 32.4427 125.788 32.0667 125.98 31.736C126.177 31.4053 126.449 31.1467 126.796 30.96C127.142 30.7733 127.532 30.68 127.964 30.68C128.401 30.68 128.793 30.7733 129.14 30.96C129.486 31.1467 129.756 31.4053 129.948 31.736C130.145 32.0667 130.244 32.4427 130.244 32.864C130.244 33.2853 130.145 33.664 129.948 34C129.756 34.3307 129.486 34.5893 129.14 34.776C128.793 34.9627 128.401 35.056 127.964 35.056ZM127.964 34.2C128.332 34.2 128.636 34.0773 128.876 33.832C129.116 33.5867 129.236 33.264 129.236 32.864C129.236 32.464 129.116 32.1413 128.876 31.896C128.636 31.6507 128.332 31.528 127.964 31.528C127.596 31.528 127.292 31.6507 127.052 31.896C126.817 32.1413 126.7 32.464 126.7 32.864C126.7 33.264 126.817 33.5867 127.052 33.832C127.292 34.0773 127.596 34.2 127.964 34.2ZM135.147 33.288H134.427V35H133.435V33.288H132.715L131.675 35H130.491L131.891 32.792L130.595 30.728H131.659L132.699 32.456H133.435V30.728H134.427V32.456H135.155L136.203 30.728H137.267L135.971 32.792L137.379 35H136.187L135.147 33.288ZM142.682 34.152V35.952H141.746V35H138.45V35.952H137.522V34.152H137.722C137.994 34.1413 138.178 33.968 138.274 33.632C138.376 33.2907 138.442 32.8107 138.474 32.192L138.53 30.728H142.05V34.152H142.682ZM139.386 32.264C139.365 32.7547 139.325 33.1547 139.266 33.464C139.208 33.7733 139.101 34.0027 138.946 34.152H141.05V31.576H139.41L139.386 32.264ZM145.167 30.68C145.797 30.68 146.277 30.832 146.607 31.136C146.943 31.4347 147.111 31.888 147.111 32.496V35H146.167V34.48C146.045 34.6667 145.869 34.8107 145.639 34.912C145.415 35.008 145.143 35.056 144.823 35.056C144.503 35.056 144.223 35.0027 143.983 34.896C143.743 34.784 143.557 34.632 143.423 34.44C143.295 34.2427 143.231 34.0213 143.231 33.776C143.231 33.392 143.373 33.0853 143.655 32.856C143.943 32.6213 144.394 32.504 145.007 32.504H146.111V32.44C146.111 32.1413 146.021 31.912 145.839 31.752C145.663 31.592 145.399 31.512 145.047 31.512C144.807 31.512 144.57 31.5493 144.335 31.624C144.106 31.6987 143.911 31.8027 143.751 31.936L143.359 31.208C143.583 31.0373 143.853 30.9067 144.167 30.816C144.482 30.7253 144.815 30.68 145.167 30.68ZM145.031 34.328C145.282 34.328 145.503 34.272 145.695 34.16C145.893 34.0427 146.031 33.8773 146.111 33.664V33.168H145.079C144.503 33.168 144.215 33.3573 144.215 33.736C144.215 33.9173 144.287 34.0613 144.431 34.168C144.575 34.2747 144.775 34.328 145.031 34.328ZM148.349 30.728H149.349V32.464H151.501V30.728H152.501V35H151.501V33.312H149.349V35H148.349V30.728ZM153.841 30.728H154.841V32.464H156.993V30.728H157.993V35H156.993V33.312H154.841V35H153.841V30.728ZM161.237 35.056C160.805 35.056 160.416 34.9627 160.069 34.776C159.722 34.5893 159.45 34.3307 159.253 34C159.061 33.664 158.965 33.2853 158.965 32.864C158.965 32.4427 159.061 32.0667 159.253 31.736C159.45 31.4053 159.722 31.1467 160.069 30.96C160.416 30.7733 160.805 30.68 161.237 30.68C161.674 30.68 162.066 30.7733 162.413 30.96C162.76 31.1467 163.029 31.4053 163.221 31.736C163.418 32.0667 163.517 32.4427 163.517 32.864C163.517 33.2853 163.418 33.664 163.221 34C163.029 34.3307 162.76 34.5893 162.413 34.776C162.066 34.9627 161.674 35.056 161.237 35.056ZM161.237 34.2C161.605 34.2 161.909 34.0773 162.149 33.832C162.389 33.5867 162.509 33.264 162.509 32.864C162.509 32.464 162.389 32.1413 162.149 31.896C161.909 31.6507 161.605 31.528 161.237 31.528C160.869 31.528 160.565 31.6507 160.325 31.896C160.09 32.1413 159.973 32.464 159.973 32.864C159.973 33.264 160.09 33.5867 160.325 33.832C160.565 34.0773 160.869 34.2 161.237 34.2ZM167.785 31.576H165.505V35H164.505V30.728H167.785V31.576ZM170.229 35.056C169.797 35.056 169.408 34.9627 169.061 34.776C168.715 34.5893 168.443 34.3307 168.245 34C168.053 33.664 167.957 33.2853 167.957 32.864C167.957 32.4427 168.053 32.0667 168.245 31.736C168.443 31.4053 168.715 31.1467 169.061 30.96C169.408 30.7733 169.797 30.68 170.229 30.68C170.667 30.68 171.059 30.7733 171.405 30.96C171.752 31.1467 172.021 31.4053 172.213 31.736C172.411 32.0667 172.509 32.4427 172.509 32.864C172.509 33.2853 172.411 33.664 172.213 34C172.021 34.3307 171.752 34.5893 171.405 34.776C171.059 34.9627 170.667 35.056 170.229 35.056ZM170.229 34.2C170.597 34.2 170.901 34.0773 171.141 33.832C171.381 33.5867 171.501 33.264 171.501 32.864C171.501 32.464 171.381 32.1413 171.141 31.896C170.901 31.6507 170.597 31.528 170.229 31.528C169.861 31.528 169.557 31.6507 169.317 31.896C169.083 32.1413 168.965 32.464 168.965 32.864C168.965 33.264 169.083 33.5867 169.317 33.832C169.557 34.0773 169.861 34.2 170.229 34.2ZM179.908 35V32.168L178.468 34.552H178.036L176.62 32.16V35H175.708V30.728H176.756L178.276 33.4L179.868 30.728H180.804L180.812 35H179.908ZM183.745 30.68C184.375 30.68 184.855 30.832 185.185 31.136C185.521 31.4347 185.689 31.888 185.689 32.496V35H184.745V34.48C184.623 34.6667 184.447 34.8107 184.217 34.912C183.993 35.008 183.721 35.056 183.401 35.056C183.081 35.056 182.801 35.0027 182.561 34.896C182.321 34.784 182.135 34.632 182.001 34.44C181.873 34.2427 181.809 34.0213 181.809 33.776C181.809 33.392 181.951 33.0853 182.233 32.856C182.521 32.6213 182.972 32.504 183.585 32.504H184.689V32.44C184.689 32.1413 184.599 31.912 184.417 31.752C184.241 31.592 183.977 31.512 183.625 31.512C183.385 31.512 183.148 31.5493 182.913 31.624C182.684 31.6987 182.489 31.8027 182.329 31.936L181.937 31.208C182.161 31.0373 182.431 30.9067 182.745 30.816C183.06 30.7253 183.393 30.68 183.745 30.68ZM183.609 34.328C183.86 34.328 184.081 34.272 184.273 34.16C184.471 34.0427 184.609 33.8773 184.689 33.664V33.168H183.657C183.081 33.168 182.793 33.3573 182.793 33.736C182.793 33.9173 182.865 34.0613 183.009 34.168C183.153 34.2747 183.353 34.328 183.609 34.328ZM190.311 31.576H188.815V35H187.815V31.576H186.311V30.728H190.311V31.576ZM194.849 32.888C194.849 32.9573 194.843 33.056 194.833 33.184H191.481C191.539 33.4987 191.691 33.7493 191.937 33.936C192.187 34.1173 192.497 34.208 192.865 34.208C193.334 34.208 193.721 34.0533 194.025 33.744L194.561 34.36C194.369 34.5893 194.126 34.7627 193.833 34.88C193.539 34.9973 193.209 35.056 192.841 35.056C192.371 35.056 191.958 34.9627 191.601 34.776C191.243 34.5893 190.966 34.3307 190.769 34C190.577 33.664 190.481 33.2853 190.481 32.864C190.481 32.448 190.574 32.0747 190.761 31.744C190.953 31.408 191.217 31.1467 191.553 30.96C191.889 30.7733 192.267 30.68 192.689 30.68C193.105 30.68 193.475 30.7733 193.801 30.96C194.131 31.1413 194.387 31.4 194.569 31.736C194.755 32.0667 194.849 32.4507 194.849 32.888ZM192.689 31.48C192.369 31.48 192.097 31.576 191.873 31.768C191.654 31.9547 191.521 32.2053 191.473 32.52H193.897C193.854 32.2107 193.723 31.96 193.505 31.768C193.286 31.576 193.014 31.48 192.689 31.48ZM198.311 30.68C198.727 30.68 199.097 30.7707 199.423 30.952C199.753 31.1333 200.012 31.3893 200.199 31.72C200.385 32.0507 200.479 32.432 200.479 32.864C200.479 33.296 200.385 33.68 200.199 34.016C200.012 34.3467 199.753 34.6027 199.423 34.784C199.097 34.9653 198.727 35.056 198.311 35.056C197.735 35.056 197.279 34.864 196.943 34.48V36.552H195.943V30.728H196.895V31.288C197.06 31.0853 197.263 30.9333 197.503 30.832C197.748 30.7307 198.017 30.68 198.311 30.68ZM198.199 34.2C198.567 34.2 198.868 34.0773 199.103 33.832C199.343 33.5867 199.463 33.264 199.463 32.864C199.463 32.464 199.343 32.1413 199.103 31.896C198.868 31.6507 198.567 31.528 198.199 31.528C197.959 31.528 197.743 31.584 197.551 31.696C197.359 31.8027 197.207 31.9573 197.095 32.16C196.983 32.3627 196.927 32.5973 196.927 32.864C196.927 33.1307 196.983 33.3653 197.095 33.568C197.207 33.7707 197.359 33.928 197.551 34.04C197.743 34.1467 197.959 34.2 198.199 34.2ZM201.474 30.728H202.474V33.544L204.834 30.728H205.746V35H204.746V32.184L202.394 35H201.474V30.728ZM207.091 30.728H208.091V32.464H210.243V30.728H211.243V35H210.243V33.312H208.091V35H207.091V30.728ZM214.527 35.056C214.084 35.056 213.687 34.9627 213.335 34.776C212.983 34.5893 212.708 34.3307 212.511 34C212.314 33.664 212.215 33.2853 212.215 32.864C212.215 32.4427 212.314 32.0667 212.511 31.736C212.708 31.4053 212.98 31.1467 213.327 30.96C213.679 30.7733 214.079 30.68 214.527 30.68C214.948 30.68 215.316 30.7653 215.631 30.936C215.951 31.1067 216.191 31.352 216.351 31.672L215.583 32.12C215.46 31.9227 215.306 31.776 215.119 31.68C214.938 31.5787 214.738 31.528 214.519 31.528C214.146 31.528 213.836 31.6507 213.591 31.896C213.346 32.136 213.223 32.4587 213.223 32.864C213.223 33.2693 213.343 33.5947 213.583 33.84C213.828 34.08 214.14 34.2 214.519 34.2C214.738 34.2 214.938 34.152 215.119 34.056C215.306 33.9547 215.46 33.8053 215.583 33.608L216.351 34.056C216.186 34.376 215.943 34.624 215.623 34.8C215.308 34.9707 214.943 35.056 214.527 35.056ZM220.577 31.576H219.081V35H218.081V31.576H216.577V30.728H220.577V31.576ZM224.398 32.776C224.926 32.936 225.19 33.2773 225.19 33.8C225.19 34.184 225.046 34.48 224.758 34.688C224.47 34.896 224.043 35 223.478 35H221.302V30.728H223.39C223.913 30.728 224.321 30.824 224.614 31.016C224.907 31.208 225.054 31.48 225.054 31.832C225.054 32.0507 224.995 32.24 224.878 32.4C224.766 32.56 224.606 32.6853 224.398 32.776ZM222.254 32.512H223.302C223.819 32.512 224.078 32.3333 224.078 31.976C224.078 31.6293 223.819 31.456 223.302 31.456H222.254V32.512ZM223.398 34.272C223.947 34.272 224.222 34.0933 224.222 33.736C224.222 33.5493 224.158 33.4107 224.03 33.32C223.902 33.224 223.702 33.176 223.43 33.176H222.254V34.272H223.398ZM227.847 30.68C228.476 30.68 228.956 30.832 229.287 31.136C229.623 31.4347 229.791 31.888 229.791 32.496V35H228.847V34.48C228.724 34.6667 228.548 34.8107 228.319 34.912C228.095 35.008 227.823 35.056 227.503 35.056C227.183 35.056 226.903 35.0027 226.663 34.896C226.423 34.784 226.236 34.632 226.103 34.44C225.975 34.2427 225.911 34.0213 225.911 33.776C225.911 33.392 226.052 33.0853 226.335 32.856C226.623 32.6213 227.074 32.504 227.687 32.504H228.791V32.44C228.791 32.1413 228.7 31.912 228.519 31.752C228.343 31.592 228.079 31.512 227.727 31.512C227.487 31.512 227.25 31.5493 227.015 31.624C226.786 31.6987 226.591 31.8027 226.431 31.936L226.039 31.208C226.263 31.0373 226.532 30.9067 226.847 30.816C227.162 30.7253 227.495 30.68 227.847 30.68ZM227.711 34.328C227.962 34.328 228.183 34.272 228.375 34.16C228.572 34.0427 228.711 33.8773 228.791 33.664V33.168H227.759C227.183 33.168 226.895 33.3573 226.895 33.736C226.895 33.9173 226.967 34.0613 227.111 34.168C227.255 34.2747 227.455 34.328 227.711 34.328Z" fill="white"/>
<path d="M34.0799 13.3803C36.8908 13.3803 39.1694 15.619 39.1694 18.3803C39.1694 21.1421 36.8908 23.3807 34.0799 23.3807C31.2689 23.3807 28.9901 21.1421 28.9901 18.3803C28.9901 15.619 31.2689 13.3803 34.0799 13.3803ZM34.4191 12.7747C37.7506 12.7747 40.4514 15.3166 40.4514 18.4519C40.4514 21.5876 37.7506 24.1295 34.4191 24.1295C31.0876 24.1295 28.3869 21.5876 28.3869 18.4519C28.3869 15.3166 31.0876 12.7747 34.4191 12.7747Z" fill="white"/>
<path d="M4.96888 4.51989C4.86613 4.45806 15.8165 -0.82063 22.397 6.40455C22.0694 6.39671 21.7272 6.39829 21.4212 6.42167C10.3332 7.27873 9.09395 23.1262 11.5345 31.4906C14.5468 41.8126 18.7567 41.871 18.7567 41.871C16.6587 41.8112 14.0969 34.7942 13.7045 33.2872C14.8955 31.5847 17.3161 28.6262 20.4946 27.3381C25.0904 25.4752 27.6778 27.1052 27.6778 27.1052C24.2606 23.1072 15.7862 26.543 13.0518 30.028C12.9726 29.5133 12.9378 28.9863 12.8478 28.4636C11.8161 22.4696 14.1288 6.34902 24.002 8.60024C26.0561 12.2357 25.2449 15.7106 24.3173 17.5201C22.501 21.0625 20.2425 22.3114 16.5933 22.8753C16.5933 22.8753 21.9228 23.4961 25.0125 20.0812C28.1018 16.6663 28.1018 10.8453 26.3257 6.5767C22.7314 -2.05975 10.1424 -1.59593 4.96888 4.51989Z" fill="white"/>
<path d="M16.9896 1.80223C2.82118 1.66784 -1.2959 19.3763 3.66733 29.461C10.0596 42.4493 21.4345 43.1463 32.3301 35.0373C40.6727 28.8285 44.4876 19.3883 41.8814 12.5776C46.6576 19.2393 43.0923 30.148 33.8649 37.0153C21.8326 45.9703 10.4079 44.1912 3.28233 31.1653C-3.29291 19.1462 -0.606016 -1.65172 16.9896 1.80223Z" fill="white"/>
<path d="M33.7448 13.3803C36.3905 13.3803 38.5351 15.619 38.5351 18.3803C38.5351 21.1421 36.3905 23.3807 33.7448 23.3807C31.0993 23.3807 28.9546 21.1421 28.9546 18.3803C28.9546 15.619 31.0993 13.3803 33.7448 13.3803ZM34.0641 12.7747C37.1998 12.7747 39.7417 15.3166 39.7417 18.4519C39.7417 21.5876 37.1998 24.1295 34.0641 24.1295C30.9287 24.1295 28.3869 21.5876 28.3869 18.4519C28.3869 15.3166 30.9287 12.7747 34.0641 12.7747Z" fill="white"/>
</svg>
