<svg width="15" height="20" viewBox="0 0 15 20" fill="none" xmlns="http://www.w3.org/2000/svg">
<path d="M11.4251 0H1.35907C0.683191 0 0.132812 0.550761 0.132812 1.22652V18.7733C0.132812 19.4501 0.683191 20 1.35907 20H13.6891C14.3656 20 14.9154 19.4501 14.9154 18.7733V3.79247L11.4251 0ZM11.7146 1.83533L13.2444 3.49799H11.7146V1.83533ZM13.8855 18.7734C13.8855 18.8814 13.7971 18.9701 13.6885 18.9701H1.35907C1.2507 18.9701 1.16276 18.8814 1.16276 18.7734V1.22652C1.16276 1.11823 1.2507 1.03046 1.35907 1.03046H10.6841V4.01318C10.6841 4.29716 10.9154 4.52739 11.1996 4.52739H13.8855V18.7734ZM2.97961 5.47786H11.7256C11.9386 5.47786 12.1114 5.65067 12.1114 5.86372C12.1114 6.07678 11.9386 6.24958 11.7256 6.24958H2.97961C2.7666 6.24958 2.59375 6.07678 2.59375 5.86372C2.59375 5.65071 2.7666 5.47786 2.97961 5.47786ZM12.1114 8.45671C12.1114 8.66972 11.9386 8.84257 11.7256 8.84257H2.97961C2.7666 8.84257 2.59375 8.66976 2.59375 8.45671C2.59375 8.24365 2.7666 8.07085 2.97961 8.07085H11.7256C11.9386 8.07085 12.1114 8.2437 12.1114 8.45671ZM12.1114 10.9648C12.1114 11.1778 11.9386 11.3506 11.7256 11.3506H2.97961C2.7666 11.3506 2.59375 11.1778 2.59375 10.9648C2.59375 10.7517 2.7666 10.5789 2.97961 10.5789H11.7256C11.9386 10.5789 12.1114 10.7517 12.1114 10.9648ZM12.1114 13.5156C12.1114 13.7286 11.9386 13.9014 11.7256 13.9014H2.97961C2.7666 13.9014 2.59375 13.7286 2.59375 13.5156C2.59375 13.3025 2.7666 13.1297 2.97961 13.1297H11.7256C11.9386 13.1297 12.1114 13.3025 12.1114 13.5156Z" fill="white"/>
</svg>
