<svg width="96" height="96" viewBox="0 0 96 96" fill="none" xmlns="http://www.w3.org/2000/svg">
<g clip-path="url(#clip0)">
<path d="M75.5282 50.8105H21.5164C20.7479 50.8105 20.125 51.4336 20.125 52.202C20.125 52.9703 20.7479 53.5934 21.5164 53.5934H75.528C76.2965 53.5934 76.9194 52.9703 76.9194 52.202C76.9194 51.4336 76.2967 50.8105 75.5282 50.8105Z" fill="#AB86E4"/>
<path d="M75.5282 60.417H21.5164C20.7479 60.417 20.125 61.0401 20.125 61.8084C20.125 62.5769 20.7479 63.1998 21.5164 63.1998H75.528C76.2965 63.1998 76.9194 62.5768 76.9194 61.8084C76.9196 61.0399 76.2967 60.417 75.5282 60.417Z" fill="#AB86E4"/>
<path d="M76.9196 71.4158C76.9196 70.6473 76.2967 70.0244 75.5282 70.0244H21.5164C20.7479 70.0244 20.125 70.6475 20.125 71.4158C20.125 72.1844 20.7479 72.8072 21.5164 72.8072H75.528C76.2967 72.8072 76.9196 72.1842 76.9196 71.4158V71.4158Z" fill="#AB86E4"/>
<path d="M21.5164 79.6299C20.7479 79.6299 20.125 80.2529 20.125 81.0213C20.125 81.7896 20.7479 82.4127 21.5164 82.4127H48.46C49.2286 82.4127 49.8515 81.7896 49.8515 81.0213C49.8515 80.2529 49.2286 79.6299 48.46 79.6299H21.5164Z" fill="#AB86E4"/>
<path d="M75.5283 34.5459H55.6815C54.9129 34.5459 54.29 35.169 54.29 35.9373C54.29 36.7059 54.9129 37.3287 55.6815 37.3287H75.5283C76.2968 37.3287 76.9197 36.7057 76.9197 35.9373C76.9197 35.1688 76.2968 34.5459 75.5283 34.5459Z" fill="#AB86E4"/>
<path d="M75.5283 27.001H55.6815C54.9129 27.001 54.29 27.624 54.29 28.3924C54.29 29.1607 54.9129 29.7838 55.6815 29.7838H75.5283C76.2968 29.7838 76.9197 29.1607 76.9197 28.3924C76.9197 27.624 76.2968 27.001 75.5283 27.001Z" fill="#AB86E4"/>
<path d="M84.7323 79.1606C85.5008 79.1606 86.1237 78.5375 86.1237 77.7692V21.3579C86.1237 19.447 85.3476 17.7299 84.1074 16.4895C69.3592 1.79479 69.7407 1.99035 68.8042 1.34539C67.6627 0.553662 66.3106 0.125977 64.8919 0.125977H17.6816C13.8853 0.125977 10.7969 3.21459 10.7969 7.01088V88.2411C10.7969 92.0374 13.8853 95.126 17.6816 95.126H79.239C83.0353 95.126 86.1237 92.0374 86.1237 88.2411V84.2993C86.1237 83.5308 85.5008 82.9079 84.7323 82.9079C83.9638 82.9079 83.3409 83.531 83.3409 84.2993V88.2411C83.3409 90.5029 81.5008 92.343 79.239 92.343H17.6816C15.42 92.343 13.5797 90.5029 13.5797 88.2411V7.01088C13.5797 4.74906 15.4198 2.90899 17.6816 2.90899H64.8919C65.1931 2.90899 65.4885 2.94425 65.7757 3.00715V15.6768C65.7757 18.322 67.9279 20.474 70.5728 20.474H83.2425C83.3054 20.7614 83.3407 21.0566 83.3407 21.3579V77.7692C83.3409 78.5375 83.9638 79.1606 84.7323 79.1606V79.1606ZM70.573 17.691C69.4623 17.691 68.5587 16.7873 68.5587 15.6767V4.87672L81.373 17.691H70.573Z" fill="#AB86E4"/>
<path d="M21.3924 23.2555C20.6239 23.2555 20.001 23.8786 20.001 24.6469V37.1025C20.001 39.6361 22.062 41.6974 24.5959 41.6974H40.9392C43.4728 41.6974 45.5341 39.6361 45.5341 37.1025V16.8371C45.5341 14.3034 43.473 12.2422 40.9392 12.2422H24.5959C22.0622 12.2422 20.001 14.3034 20.001 16.8371V18.1417C20.001 18.9102 20.6239 19.5331 21.3924 19.5331C22.1609 19.5331 22.7838 18.91 22.7838 18.1417V16.8371C22.7838 15.8381 23.5967 15.0252 24.5957 15.0252H40.939C41.938 15.0252 42.7509 15.8381 42.7509 16.8371V33.1624C41.4828 31.7324 39.9154 30.5857 38.145 29.8094C38.8492 28.7713 39.2613 27.5194 39.2613 26.1732C39.2613 22.5925 36.3482 19.6793 32.7675 19.6793C29.1868 19.6793 26.2736 22.5924 26.2736 26.1732C26.2736 27.5196 26.6855 28.7713 27.3898 29.8094C25.6195 30.5859 24.052 31.7324 22.784 33.1624V24.6469C22.784 23.8784 22.1611 23.2555 21.3924 23.2555V23.2555ZM32.7675 22.4623C34.8136 22.4623 36.4783 24.127 36.4783 26.1732C36.4783 28.2194 34.8136 29.8842 32.7675 29.8842C30.7213 29.8842 29.0566 28.2194 29.0566 26.1732C29.0566 24.127 30.7213 22.4623 32.7675 22.4623ZM29.7307 31.9109C30.6376 32.3929 31.6709 32.6672 32.7675 32.6672C33.8641 32.6672 34.8976 32.3929 35.8044 31.9109C38.8462 32.8201 41.3045 35.0405 42.523 37.9803C42.2133 38.5368 41.6198 38.9146 40.9392 38.9146H24.5959C23.9153 38.9146 23.3217 38.537 23.012 37.9805C24.2303 35.0405 26.6885 32.8201 29.7307 31.9109Z" fill="#AB86E4"/>
</g>
<defs>
<clipPath id="clip0">
<rect width="95" height="95" fill="white" transform="translate(0.959961 0.125977)"/>
</clipPath>
</defs>
</svg>
