<svg width="96" height="96" viewBox="0 0 96 96" fill="none" xmlns="http://www.w3.org/2000/svg">
<g clip-path="url(#clip0)">
<path d="M75.0282 50.8105H21.0164C20.2479 50.8105 19.625 51.4336 19.625 52.202C19.625 52.9703 20.2479 53.5934 21.0164 53.5934H75.028C75.7965 53.5934 76.4194 52.9703 76.4194 52.202C76.4194 51.4336 75.7967 50.8105 75.0282 50.8105Z" fill="#7DBC91"/>
<path d="M75.0282 60.417H21.0164C20.2479 60.417 19.625 61.0401 19.625 61.8084C19.625 62.5769 20.2479 63.1998 21.0164 63.1998H75.028C75.7965 63.1998 76.4194 62.5768 76.4194 61.8084C76.4196 61.0399 75.7967 60.417 75.0282 60.417Z" fill="#7DBC91"/>
<path d="M76.4196 71.4158C76.4196 70.6473 75.7967 70.0244 75.0282 70.0244H21.0164C20.2479 70.0244 19.625 70.6475 19.625 71.4158C19.625 72.1844 20.2479 72.8072 21.0164 72.8072H75.028C75.7967 72.8072 76.4196 72.1842 76.4196 71.4158V71.4158Z" fill="#7DBC91"/>
<path d="M21.0164 79.6299C20.2479 79.6299 19.625 80.2529 19.625 81.0213C19.625 81.7896 20.2479 82.4127 21.0164 82.4127H47.96C48.7286 82.4127 49.3515 81.7896 49.3515 81.0213C49.3515 80.2529 48.7286 79.6299 47.96 79.6299H21.0164Z" fill="#7DBC91"/>
<path d="M75.0283 34.5459H55.1815C54.4129 34.5459 53.79 35.169 53.79 35.9373C53.79 36.7059 54.4129 37.3287 55.1815 37.3287H75.0283C75.7968 37.3287 76.4197 36.7057 76.4197 35.9373C76.4197 35.1688 75.7968 34.5459 75.0283 34.5459Z" fill="#7DBC91"/>
<path d="M75.0283 27.001H55.1815C54.4129 27.001 53.79 27.624 53.79 28.3924C53.79 29.1607 54.4129 29.7838 55.1815 29.7838H75.0283C75.7968 29.7838 76.4197 29.1607 76.4197 28.3924C76.4197 27.624 75.7968 27.001 75.0283 27.001Z" fill="#7DBC91"/>
<path d="M84.2323 79.1606C85.0008 79.1606 85.6237 78.5375 85.6237 77.7692V21.3579C85.6237 19.447 84.8476 17.7299 83.6074 16.4895C68.8592 1.79479 69.2407 1.99035 68.3042 1.34539C67.1627 0.553662 65.8106 0.125977 64.3919 0.125977H17.1816C13.3853 0.125977 10.2969 3.21459 10.2969 7.01088V88.2411C10.2969 92.0374 13.3853 95.126 17.1816 95.126H78.739C82.5353 95.126 85.6237 92.0374 85.6237 88.2411V84.2993C85.6237 83.5308 85.0008 82.9079 84.2323 82.9079C83.4638 82.9079 82.8409 83.531 82.8409 84.2993V88.2411C82.8409 90.5029 81.0008 92.343 78.739 92.343H17.1816C14.92 92.343 13.0797 90.5029 13.0797 88.2411V7.01088C13.0797 4.74906 14.9198 2.90899 17.1816 2.90899H64.3919C64.6931 2.90899 64.9885 2.94425 65.2757 3.00715V15.6768C65.2757 18.322 67.4279 20.474 70.0728 20.474H82.7425C82.8054 20.7614 82.8407 21.0566 82.8407 21.3579V77.7692C82.8409 78.5375 83.4638 79.1606 84.2323 79.1606V79.1606ZM70.073 17.691C68.9623 17.691 68.0587 16.7873 68.0587 15.6767V4.87672L80.873 17.691H70.073Z" fill="#7DBC91"/>
<path d="M20.8924 23.2555C20.1239 23.2555 19.501 23.8786 19.501 24.6469V37.1025C19.501 39.6361 21.562 41.6974 24.0959 41.6974H40.4392C42.9728 41.6974 45.0341 39.6361 45.0341 37.1025V16.8371C45.0341 14.3034 42.973 12.2422 40.4392 12.2422H24.0959C21.5622 12.2422 19.501 14.3034 19.501 16.8371V18.1417C19.501 18.9102 20.1239 19.5331 20.8924 19.5331C21.6609 19.5331 22.2838 18.91 22.2838 18.1417V16.8371C22.2838 15.8381 23.0967 15.0252 24.0957 15.0252H40.439C41.438 15.0252 42.2509 15.8381 42.2509 16.8371V33.1624C40.9828 31.7324 39.4154 30.5857 37.645 29.8094C38.3492 28.7713 38.7613 27.5194 38.7613 26.1732C38.7613 22.5925 35.8482 19.6793 32.2675 19.6793C28.6868 19.6793 25.7736 22.5924 25.7736 26.1732C25.7736 27.5196 26.1855 28.7713 26.8898 29.8094C25.1195 30.5859 23.552 31.7324 22.284 33.1624V24.6469C22.284 23.8784 21.6611 23.2555 20.8924 23.2555V23.2555ZM32.2675 22.4623C34.3136 22.4623 35.9783 24.127 35.9783 26.1732C35.9783 28.2194 34.3136 29.8842 32.2675 29.8842C30.2213 29.8842 28.5566 28.2194 28.5566 26.1732C28.5566 24.127 30.2213 22.4623 32.2675 22.4623ZM29.2307 31.9109C30.1376 32.3929 31.1709 32.6672 32.2675 32.6672C33.3641 32.6672 34.3976 32.3929 35.3044 31.9109C38.3462 32.8201 40.8045 35.0405 42.023 37.9803C41.7133 38.5368 41.1198 38.9146 40.4392 38.9146H24.0959C23.4153 38.9146 22.8217 38.537 22.512 37.9805C23.7303 35.0405 26.1885 32.8201 29.2307 31.9109Z" fill="#7DBC91"/>
</g>
<defs>
<clipPath id="clip0">
<rect width="95" height="95" fill="white" transform="translate(0.459961 0.125977)"/>
</clipPath>
</defs>
</svg>
