<svg width="96" height="96" viewBox="0 0 96 96" fill="none" xmlns="http://www.w3.org/2000/svg">
<g clip-path="url(#clip0)">
<path d="M56.1633 89.2372C55.2126 88.8559 54.132 89.3179 53.7507 90.2692C53.4321 91.0639 52.6242 91.5979 51.7407 91.5979H44.9623C44.0787 91.5979 43.2708 91.0639 42.9522 90.2692C42.5709 89.3179 41.4909 88.8569 40.5396 89.2372C39.5885 89.6187 39.1264 90.6988 39.5077 91.6499C40.3989 93.8727 42.5398 95.3089 44.9623 95.3089H51.7407C54.1632 95.3089 56.304 93.8727 57.195 91.6499C57.5765 90.6988 57.1145 89.6187 56.1633 89.2372Z" fill="#7DBC91"/>
<path d="M77.9545 79.6795C77.4505 77.0811 75.8496 74.8315 73.5613 73.503C73.9775 73.1631 74.3678 72.7872 74.7241 72.3732C76.4814 70.3316 77.2596 67.6328 76.8586 64.9693C76.2075 60.6416 74.3656 56.598 71.5321 53.2754C69.4106 50.7878 66.8029 48.7831 63.8844 47.3745C67.456 43.5644 69.647 38.4452 69.647 32.8233C69.6468 23.0944 63.0883 14.8681 54.1603 12.3338C55.3764 10.8818 56.0399 9.06794 56.0399 7.15124C56.0401 3.3787 52.9708 0.30957 49.1984 0.30957C49.1982 0.30957 49.198 0.30957 49.1979 0.30957C47.6751 0.30957 46.2488 0.804795 45.1821 1.70377C44.0031 2.69719 43.3539 4.09343 43.3537 5.63514C43.3537 6.65973 44.1844 7.49061 45.2092 7.49061C46.2337 7.49061 47.0646 6.65991 47.0646 5.63514C47.0646 5.19372 47.2357 4.82578 47.5734 4.54115C47.9719 4.20531 48.5488 4.02032 49.198 4.02032H49.1982C50.9246 4.02032 52.3291 5.42454 52.3291 7.15087C52.3291 8.32019 51.8738 9.41937 51.047 10.2462C50.2202 11.0728 49.1212 11.5281 47.9523 11.5281C47.9521 11.5281 47.9521 11.5281 47.9519 11.5281C47.9064 11.5281 47.8619 11.5316 47.8174 11.535C36.3216 11.82 27.0575 21.26 27.0573 32.8231C27.0573 38.445 29.2482 43.5643 32.8198 47.3743C29.9015 48.783 27.2939 50.7874 25.1723 53.2752C22.3388 56.5978 20.4969 60.6414 19.8456 64.9689C19.4449 67.6327 20.2229 70.3314 21.9802 72.373C22.3364 72.787 22.7268 73.1631 23.143 73.5028C20.8546 74.8313 19.2536 77.0809 18.7498 79.6793C18.2445 82.2844 18.8929 84.9772 20.5281 87.067L24.5016 92.1445C26.1069 94.1959 28.5456 95.299 31.0191 95.299C32.4233 95.299 33.839 94.9435 35.1197 94.2041C38.6564 92.1621 40.1719 87.7662 38.6451 83.9788L36.2346 77.999C36.0736 77.5995 35.8832 77.2163 35.6707 76.8482H49.2799C50.3046 76.8482 51.1353 76.0173 51.1353 74.9927C51.1353 73.9682 50.3046 73.1373 49.2799 73.1373H32.1435V69.2258C32.1435 68.722 32.5532 68.3123 33.0569 68.3123H63.6475C64.1511 68.3123 64.5609 68.722 64.5609 69.2258V73.3939C62.72 74.4031 61.2666 76.0218 60.4695 77.999L58.059 83.9786C56.5321 87.7662 58.0477 92.1621 61.5844 94.2041C62.8652 94.9435 64.2804 95.299 65.685 95.299C68.1583 95.299 70.5973 94.1957 72.2027 92.1445L76.176 87.067C77.8116 84.9772 78.4597 82.2845 77.9545 79.6795ZM30.768 32.8233C30.7682 23.1276 38.6566 15.2394 48.3521 15.2392C58.0477 15.2394 65.936 23.1276 65.9362 32.8233C65.9362 42.5191 58.0481 50.4072 48.3521 50.4074C38.6564 50.4072 30.768 42.5191 30.768 32.8233ZM32.7933 79.3865L35.2037 85.3665C36.0433 87.4496 35.2095 89.8675 33.2644 90.9906C31.3195 92.1137 28.8085 91.627 27.4241 89.8578L23.4506 84.7803C22.4778 83.5374 22.0922 81.9357 22.3928 80.386C22.6934 78.8363 23.6499 77.4948 25.017 76.7055C26.3839 75.9162 28.024 75.7591 29.5163 76.2732C31.0087 76.7877 32.2031 77.9227 32.7933 79.3865ZM63.6597 60.8906C62.635 60.8906 61.8043 61.7215 61.8043 62.7461V64.6016H34.9122V62.7461C34.9122 61.7215 34.0815 60.8906 33.0568 60.8906C32.032 60.8906 31.2013 61.7215 31.2013 62.7461V64.9914C29.5727 65.7078 28.4324 67.3358 28.4324 69.2259V71.8461C27.0272 71.7056 25.7234 71.0335 24.7925 69.9522C23.741 68.7304 23.2755 67.1154 23.5152 65.5213C24.5775 58.4607 29.2851 52.6269 35.8941 50.0827C39.3995 52.6199 43.7038 54.1182 48.3521 54.1182C53.0004 54.1182 57.3048 52.6199 60.8101 50.0827C67.4191 52.6269 72.1268 58.4607 73.1891 65.5213C73.4288 67.1154 72.9633 68.7304 71.9116 69.9522C70.9809 71.0335 69.6768 71.7056 68.2717 71.8461V69.2259C68.2717 67.3406 67.1371 65.7161 65.5152 64.997V62.7461C65.5152 61.7215 64.6845 60.8906 63.6597 60.8906ZM73.2536 84.7802L69.2803 89.8576C67.896 91.6265 65.3853 92.1133 63.4401 90.9904C61.4948 89.8673 60.6611 87.4494 61.5009 85.3659L63.9113 79.3861C64.5016 77.9222 65.6959 76.7874 67.1883 76.2728C67.7663 76.0737 68.3663 75.9752 68.9642 75.9752C69.9099 75.9752 70.8501 76.2218 71.6876 76.7053C73.0547 77.4947 74.011 78.8362 74.3118 80.3858C74.612 81.9355 74.2265 83.5372 73.2536 84.7802Z" fill="#7DBC91"/>
<path d="M57.9612 73.6804C57.6161 73.3353 57.1374 73.1367 56.6494 73.1367C56.1614 73.1367 55.6827 73.3351 55.3376 73.6804C54.9925 74.0257 54.7939 74.5042 54.7939 74.9922C54.7939 75.482 54.9925 75.9589 55.3376 76.3038C55.6827 76.6508 56.1614 76.8477 56.6494 76.8477C57.1374 76.8477 57.6161 76.6508 57.9612 76.3038C58.3063 75.9589 58.5049 75.4802 58.5049 74.9922C58.5049 74.5042 58.3063 74.0255 57.9612 73.6804Z" fill="#7DBC91"/>
<path d="M53.4672 39.1601C52.6712 38.5148 51.5028 38.6374 50.8574 39.4332C50.2409 40.194 49.3274 40.6302 48.3516 40.6302C47.3758 40.6302 46.4622 40.1938 45.8458 39.4332C45.2007 38.6371 44.0323 38.5152 43.2361 39.1601C42.4399 39.8053 42.3176 40.9737 42.963 41.7698C44.2874 43.4039 46.2516 44.3409 48.3516 44.3409C50.4516 44.3409 52.416 43.4038 53.7403 41.7698C54.3856 40.9737 54.2633 39.8053 53.4672 39.1601Z" fill="#7DBC91"/>
<path d="M43.6634 31.5113C41.9803 29.8282 39.2416 29.8282 37.5581 31.5113C36.8336 32.2359 36.8334 33.4106 37.5581 34.1353C38.2827 34.8601 39.4576 34.8601 40.1821 34.1355C40.4183 33.8993 40.803 33.8993 41.0394 34.1355C41.4017 34.4977 41.8766 34.679 42.3514 34.679C42.8262 34.679 43.3012 34.4977 43.6634 34.1355C44.3879 33.411 44.3879 32.2361 43.6634 31.5113Z" fill="#7DBC91"/>
<path d="M59.1457 31.5112C57.4625 29.8283 54.7236 29.8283 53.0405 31.5112C52.3159 32.2358 52.3159 33.4106 53.0405 34.1354C53.4027 34.4978 53.8777 34.6789 54.3525 34.6789C54.8273 34.6789 55.3023 34.4976 55.6645 34.1354C55.9007 33.8994 56.2853 33.899 56.5217 34.1354C57.2463 34.8601 58.4212 34.8599 59.1457 34.1352C59.8703 33.4106 59.8703 32.2359 59.1457 31.5112Z" fill="#7DBC91"/>
</g>
<defs>
<clipPath id="clip0">
<rect width="95" height="95" fill="white" transform="translate(0.851562 0.30957)"/>
</clipPath>
</defs>
</svg>
