<svg width="96" height="96" viewBox="0 0 96 96" fill="none" xmlns="http://www.w3.org/2000/svg">
<g clip-path="url(#clip0)">
<path d="M55.6633 89.2372C54.7126 88.8559 53.632 89.3179 53.2507 90.2692C52.9321 91.0639 52.1242 91.5979 51.2407 91.5979H44.4623C43.5787 91.5979 42.7708 91.0639 42.4522 90.2692C42.0709 89.3179 40.9909 88.8569 40.0396 89.2372C39.0885 89.6187 38.6264 90.6988 39.0077 91.6499C39.8989 93.8727 42.0398 95.3089 44.4623 95.3089H51.2407C53.6632 95.3089 55.804 93.8727 56.695 91.6499C57.0765 90.6988 56.6145 89.6187 55.6633 89.2372Z" fill="#AB86E4"/>
<path d="M77.4545 79.6795C76.9505 77.0811 75.3496 74.8315 73.0613 73.503C73.4775 73.1631 73.8678 72.7872 74.2241 72.3732C75.9814 70.3316 76.7596 67.6328 76.3586 64.9693C75.7075 60.6416 73.8656 56.598 71.0321 53.2754C68.9106 50.7878 66.3029 48.7831 63.3844 47.3745C66.956 43.5644 69.147 38.4452 69.147 32.8233C69.1468 23.0944 62.5883 14.8681 53.6603 12.3338C54.8764 10.8818 55.5399 9.06794 55.5399 7.15124C55.5401 3.3787 52.4708 0.30957 48.6984 0.30957C48.6982 0.30957 48.698 0.30957 48.6979 0.30957C47.1751 0.30957 45.7488 0.804795 44.6821 1.70377C43.5031 2.69719 42.8539 4.09343 42.8537 5.63514C42.8537 6.65973 43.6844 7.49061 44.7092 7.49061C45.7337 7.49061 46.5646 6.65991 46.5646 5.63514C46.5646 5.19372 46.7357 4.82578 47.0734 4.54115C47.4719 4.20531 48.0488 4.02032 48.698 4.02032H48.6982C50.4246 4.02032 51.8291 5.42454 51.8291 7.15087C51.8291 8.32019 51.3738 9.41937 50.547 10.2462C49.7202 11.0728 48.6212 11.5281 47.4523 11.5281C47.4521 11.5281 47.4521 11.5281 47.4519 11.5281C47.4064 11.5281 47.3619 11.5316 47.3174 11.535C35.8216 11.82 26.5575 21.26 26.5573 32.8231C26.5573 38.445 28.7482 43.5643 32.3198 47.3743C29.4015 48.783 26.7939 50.7874 24.6723 53.2752C21.8388 56.5978 19.9969 60.6414 19.3456 64.9689C18.9449 67.6327 19.7229 70.3314 21.4802 72.373C21.8364 72.787 22.2268 73.1631 22.643 73.5028C20.3546 74.8313 18.7536 77.0809 18.2498 79.6793C17.7445 82.2844 18.3929 84.9772 20.0281 87.067L24.0016 92.1445C25.6069 94.1959 28.0456 95.299 30.5191 95.299C31.9233 95.299 33.339 94.9435 34.6197 94.2041C38.1564 92.1621 39.6719 87.7662 38.1451 83.9788L35.7346 77.999C35.5736 77.5995 35.3832 77.2163 35.1707 76.8482H48.7799C49.8046 76.8482 50.6353 76.0173 50.6353 74.9927C50.6353 73.9682 49.8046 73.1373 48.7799 73.1373H31.6435V69.2258C31.6435 68.722 32.0532 68.3123 32.5569 68.3123H63.1475C63.6511 68.3123 64.0609 68.722 64.0609 69.2258V73.3939C62.22 74.4031 60.7666 76.0218 59.9695 77.999L57.559 83.9786C56.0321 87.7662 57.5477 92.1621 61.0844 94.2041C62.3652 94.9435 63.7804 95.299 65.185 95.299C67.6583 95.299 70.0973 94.1957 71.7027 92.1445L75.676 87.067C77.3116 84.9772 77.9597 82.2845 77.4545 79.6795ZM30.268 32.8233C30.2682 23.1276 38.1566 15.2394 47.8521 15.2392C57.5477 15.2394 65.436 23.1276 65.4362 32.8233C65.4362 42.5191 57.5481 50.4072 47.8521 50.4074C38.1564 50.4072 30.268 42.5191 30.268 32.8233ZM32.2933 79.3865L34.7037 85.3665C35.5433 87.4496 34.7095 89.8675 32.7644 90.9906C30.8195 92.1137 28.3085 91.627 26.9241 89.8578L22.9506 84.7803C21.9778 83.5374 21.5922 81.9357 21.8928 80.386C22.1934 78.8363 23.1499 77.4948 24.517 76.7055C25.8839 75.9162 27.524 75.7591 29.0163 76.2732C30.5087 76.7877 31.7031 77.9227 32.2933 79.3865ZM63.1597 60.8906C62.135 60.8906 61.3043 61.7215 61.3043 62.7461V64.6016H34.4122V62.7461C34.4122 61.7215 33.5815 60.8906 32.5568 60.8906C31.532 60.8906 30.7013 61.7215 30.7013 62.7461V64.9914C29.0727 65.7078 27.9324 67.3358 27.9324 69.2259V71.8461C26.5272 71.7056 25.2234 71.0335 24.2925 69.9522C23.241 68.7304 22.7755 67.1154 23.0152 65.5213C24.0775 58.4607 28.7851 52.6269 35.3941 50.0827C38.8995 52.6199 43.2038 54.1182 47.8521 54.1182C52.5004 54.1182 56.8048 52.6199 60.3101 50.0827C66.9191 52.6269 71.6268 58.4607 72.6891 65.5213C72.9288 67.1154 72.4633 68.7304 71.4116 69.9522C70.4809 71.0335 69.1768 71.7056 67.7717 71.8461V69.2259C67.7717 67.3406 66.6371 65.7161 65.0152 64.997V62.7461C65.0152 61.7215 64.1845 60.8906 63.1597 60.8906ZM72.7536 84.7802L68.7803 89.8576C67.396 91.6265 64.8853 92.1133 62.9401 90.9904C60.9948 89.8673 60.1611 87.4494 61.0009 85.3659L63.4113 79.3861C64.0016 77.9222 65.1959 76.7874 66.6883 76.2728C67.2663 76.0737 67.8663 75.9752 68.4642 75.9752C69.4099 75.9752 70.3501 76.2218 71.1876 76.7053C72.5547 77.4947 73.511 78.8362 73.8118 80.3858C74.112 81.9355 73.7265 83.5372 72.7536 84.7802Z" fill="#AB86E4"/>
<path d="M57.4612 73.6804C57.1161 73.3353 56.6374 73.1367 56.1494 73.1367C55.6614 73.1367 55.1827 73.3351 54.8376 73.6804C54.4925 74.0257 54.2939 74.5042 54.2939 74.9922C54.2939 75.482 54.4925 75.9589 54.8376 76.3038C55.1827 76.6508 55.6614 76.8477 56.1494 76.8477C56.6374 76.8477 57.1161 76.6508 57.4612 76.3038C57.8063 75.9589 58.0049 75.4802 58.0049 74.9922C58.0049 74.5042 57.8063 74.0255 57.4612 73.6804Z" fill="#AB86E4"/>
<path d="M52.9672 39.1601C52.1712 38.5148 51.0028 38.6374 50.3574 39.4332C49.7409 40.194 48.8274 40.6302 47.8516 40.6302C46.8758 40.6302 45.9622 40.1938 45.3458 39.4332C44.7007 38.6371 43.5323 38.5152 42.7361 39.1601C41.9399 39.8053 41.8176 40.9737 42.463 41.7698C43.7874 43.4039 45.7516 44.3409 47.8516 44.3409C49.9516 44.3409 51.916 43.4038 53.2403 41.7698C53.8856 40.9737 53.7633 39.8053 52.9672 39.1601Z" fill="#AB86E4"/>
<path d="M43.1634 31.5113C41.4803 29.8282 38.7416 29.8282 37.0581 31.5113C36.3336 32.2359 36.3334 33.4106 37.0581 34.1353C37.7827 34.8601 38.9576 34.8601 39.6821 34.1355C39.9183 33.8993 40.303 33.8993 40.5394 34.1355C40.9017 34.4977 41.3766 34.679 41.8514 34.679C42.3262 34.679 42.8012 34.4977 43.1634 34.1355C43.8879 33.411 43.8879 32.2361 43.1634 31.5113Z" fill="#AB86E4"/>
<path d="M58.6457 31.5112C56.9625 29.8283 54.2236 29.8283 52.5405 31.5112C51.8159 32.2358 51.8159 33.4106 52.5405 34.1354C52.9027 34.4978 53.3777 34.6789 53.8525 34.6789C54.3273 34.6789 54.8023 34.4976 55.1645 34.1354C55.4007 33.8994 55.7853 33.899 56.0217 34.1354C56.7463 34.8601 57.9212 34.8599 58.6457 34.1352C59.3703 33.4106 59.3703 32.2359 58.6457 31.5112Z" fill="#AB86E4"/>
</g>
<defs>
<clipPath id="clip0">
<rect width="95" height="95" fill="white" transform="translate(0.351562 0.30957)"/>
</clipPath>
</defs>
</svg>
