<svg width="95" height="95" viewBox="0 0 95 95" fill="none" xmlns="http://www.w3.org/2000/svg">
<g clip-path="url(#clip0)">
<path d="M26.5695 40.6301L35.244 30.1942C35.7353 29.603 35.6544 28.7258 35.0632 28.2344C34.4725 27.7433 33.5948 27.8242 33.1035 28.4152L25.6679 37.3606L24.0427 34.7206C23.6399 34.0662 22.7828 33.8619 22.128 34.2651C21.4736 34.6681 21.2697 35.5253 21.6725 36.1795L24.314 40.4699C24.8135 41.2808 25.9612 41.3619 26.5695 40.6301V40.6301Z" fill="white"/>
<path d="M21.6727 54.5489L24.3141 58.8393C24.8132 59.6502 25.961 59.7313 26.5692 58.9993L35.2437 48.5634C35.7351 47.9722 35.6542 47.095 35.063 46.6036C34.4722 46.1125 33.5946 46.1932 33.1033 46.7844L25.6677 55.7298L24.0425 53.0898C23.6396 52.4354 22.7826 52.2311 22.1278 52.6343C21.4736 53.0375 21.2696 53.8947 21.6727 54.5489V54.5489Z" fill="white"/>
<path d="M21.6727 73.0421L24.3141 77.3325C24.8132 78.1433 25.961 78.2244 26.5692 77.4924L35.2437 67.0565C35.7351 66.4654 35.6542 65.5881 35.063 65.0968C34.4722 64.6057 33.5946 64.6864 33.1033 65.2775L25.6677 74.2229L24.0425 71.583C23.6396 70.9285 22.7826 70.7244 22.1278 71.1274C21.4736 71.5306 21.2696 72.3879 21.6727 73.0421V73.0421Z" fill="white"/>
<path d="M83.2178 78.5618C82.4492 78.5618 81.8262 79.1846 81.8262 79.9534V90.0833C81.8262 91.2598 80.8689 92.2171 79.6924 92.2171H15.3076C14.1311 92.2171 13.1738 91.2598 13.1738 90.0833V29.0957C13.1738 28.327 12.5508 27.7041 11.7822 27.7041C11.0137 27.7041 10.3906 28.327 10.3906 29.0957V90.0833C10.3906 92.7945 12.5964 95.0003 15.3076 95.0003H79.6924C82.4036 95.0003 84.6094 92.7945 84.6094 90.0833V79.9534C84.6094 79.1848 83.9863 78.5618 83.2178 78.5618Z" fill="white"/>
<path d="M79.6924 10.7229H72.885V4.97266C72.885 2.23083 70.6544 0 67.9124 0C65.1704 0 62.9397 2.23064 62.9397 4.97266V10.7229H52.4727V4.97266C52.4727 2.23064 50.2418 0 47.5 0C44.7582 0 42.5273 2.23064 42.5273 4.97266V10.7229H32.0601V4.97266C32.0601 2.23083 29.8294 0 27.0874 0C24.3456 0 22.1148 2.23064 22.1148 4.97266V10.7229H15.3076C12.5964 10.7229 10.3906 12.9287 10.3906 15.6399V22.6013C10.3906 23.37 11.0137 23.9929 11.7822 23.9929C12.5508 23.9929 13.1738 23.37 13.1738 22.6013V15.6399C13.1738 14.4634 14.1311 13.5061 15.3076 13.5061H22.1148V15.7158C22.1148 18.4576 24.3454 20.6885 27.0874 20.6885C29.8294 20.6885 32.0601 18.4578 32.0601 15.7158V13.5061H42.5273V15.7158C42.5273 18.4576 44.758 20.6885 47.5 20.6885C50.242 20.6885 52.4727 18.4578 52.4727 15.7158V13.5061H62.9399V15.7158C62.9399 18.4576 65.1706 20.6885 67.9126 20.6885C70.6544 20.6885 72.8852 18.4578 72.8852 15.7158V13.5061H79.6924C80.8689 13.5061 81.8262 14.4634 81.8262 15.6399V73.4589C81.8262 74.2277 82.4492 74.8505 83.2178 74.8505C83.9863 74.8505 84.6094 74.2277 84.6094 73.4589V15.6399C84.6094 12.9287 82.4036 10.7229 79.6924 10.7229V10.7229ZM29.2771 15.7158C29.2771 16.9232 28.295 17.9053 27.0876 17.9053C25.8805 17.9053 24.8982 16.9232 24.8982 15.7158C24.8982 12.7495 24.8982 5.90113 24.8982 4.97266C24.8982 3.7653 25.8803 2.7832 27.0876 2.7832C28.295 2.7832 29.2771 3.7653 29.2771 4.97266V15.7158ZM49.6895 15.7158C49.6895 16.9232 48.7074 17.9053 47.5 17.9053C46.2926 17.9053 45.3105 16.9232 45.3105 15.7158C45.3105 12.7495 45.3105 5.90113 45.3105 4.97266C45.3105 3.7653 46.2926 2.7832 47.5 2.7832C48.7074 2.7832 49.6895 3.7653 49.6895 4.97266V15.7158ZM70.102 15.7158C70.102 16.9232 69.1199 17.9053 67.9126 17.9053C66.7052 17.9053 65.7231 16.9232 65.7231 15.7158C65.7231 12.7495 65.7231 5.90113 65.7231 4.97266C65.7231 3.7653 66.7052 2.7832 67.9126 2.7832C69.1197 2.7832 70.102 3.7653 70.102 4.97266V15.7158Z" fill="white"/>
<path d="M41.1431 41.7822H70.4595C72.8638 41.7822 74.8198 39.8262 74.8198 37.4219C74.8198 35.0176 72.8638 33.0615 70.4595 33.0615H41.1431C38.7388 33.0615 36.7827 35.0176 36.7827 37.4219C36.7827 39.8262 38.7388 41.7822 41.1431 41.7822V41.7822ZM41.1431 35.8447H70.4595C71.3291 35.8447 72.0366 36.5522 72.0366 37.4219C72.0366 38.2915 71.3291 38.999 70.4595 38.999H41.1431C40.2734 38.999 39.5659 38.2915 39.5659 37.4219C39.5659 36.5522 40.2734 35.8447 41.1431 35.8447V35.8447Z" fill="white"/>
<path d="M41.1431 60.1904H70.4595C72.8638 60.1904 74.8198 58.2344 74.8198 55.8301C74.8198 53.4258 72.8638 51.4697 70.4595 51.4697H41.1431C38.7388 51.4697 36.7827 53.4258 36.7827 55.8301C36.7827 58.2344 38.7388 60.1904 41.1431 60.1904V60.1904ZM41.1431 54.2529H70.4595C71.3291 54.2529 72.0366 54.9604 72.0366 55.8301C72.0366 56.6997 71.3291 57.4072 70.4595 57.4072H41.1431C40.2734 57.4072 39.5659 56.6997 39.5659 55.8301C39.5659 54.9604 40.2734 54.2529 41.1431 54.2529V54.2529Z" fill="white"/>
<path d="M41.1431 78.5986H70.4595C72.8638 78.5986 74.8198 76.6426 74.8198 74.2383C74.8198 71.834 72.8638 69.8779 70.4595 69.8779H41.1431C38.7388 69.8779 36.7827 71.834 36.7827 74.2383C36.7827 76.6426 38.7388 78.5986 41.1431 78.5986V78.5986ZM41.1431 72.6611H70.4595C71.3291 72.6611 72.0366 73.3686 72.0366 74.2383C72.0366 75.1079 71.3291 75.8154 70.4595 75.8154H41.1431C40.2734 75.8154 39.5659 75.1079 39.5659 74.2383C39.5659 73.3686 40.2734 72.6611 41.1431 72.6611V72.6611Z" fill="white"/>
</g>
<defs>
<clipPath id="clip0">
<rect width="95" height="95" fill="white"/>
</clipPath>
</defs>
</svg>
