<svg width="95" height="95" viewBox="0 0 95 95" fill="none" xmlns="http://www.w3.org/2000/svg">
<g clip-path="url(#clip0)">
<path d="M94.8254 22.5275C94.4984 21.3116 93.7007 20.275 92.6093 19.6466C91.5171 19.0151 90.2185 18.8442 89.0002 19.1712C87.7836 19.4989 86.747 20.2959 86.1186 21.3873L85.327 22.7648C84.5749 22.3327 83.6141 22.587 83.1743 23.3352L79.1532 30.1893L77.7758 29.3977C77.411 29.1867 76.9765 29.1295 76.5699 29.2393C76.1626 29.3498 75.8163 29.6173 75.6068 29.9836C75.1778 30.7404 75.4391 31.702 76.1927 32.1364L77.5702 32.9279L64.1141 56.2464L60.7896 65.128L59.2065 68.0877C58.2797 69.7002 58.3786 71.7045 59.46 73.2172L55.8981 77.5861L54.901 75.0855C54.4511 73.9709 53.4099 73.2072 52.2126 73.1136C51.0144 73.0193 49.8666 73.6114 49.249 74.6418L48.6793 75.6073L48.1413 69.275C48.0176 67.777 46.8574 66.5727 45.3655 66.3918C43.8729 66.2117 42.4599 67.106 41.9829 68.5314L38.0887 80.2142C37.8166 81.0405 38.2618 81.931 39.0858 82.2093C39.2404 82.2812 39.4066 82.3245 39.5767 82.3353C40.2569 82.3376 40.8629 81.904 41.0809 81.2593L44.9589 69.5765L45.5131 76.003C45.6276 77.3743 46.6131 78.5144 47.9534 78.8252C49.2938 79.1359 50.6805 78.5454 51.3863 77.365L51.9722 76.3988L52.9539 78.8847C53.3705 79.9321 54.3128 80.6796 55.4282 80.8457C56.5436 81.0119 57.6629 80.5721 58.3678 79.6917L62.0565 75.0221C62.4646 75.1288 62.8851 75.1821 63.3072 75.1806C65.0038 75.1937 66.5792 74.3002 67.4387 72.8369L69.0218 70.1933L75.0534 62.8639L88.6516 39.2602L90.0291 40.0517C90.3962 40.262 90.6637 40.609 90.7727 41.0179C90.8824 41.4238 90.8252 41.8566 90.615 42.2207L84.2827 53.1916C84.0439 53.5518 83.9627 53.994 84.0586 54.416C84.1544 54.8373 84.418 55.2014 84.789 55.4232C85.1539 55.635 85.5883 55.6922 85.9949 55.5824C86.4023 55.4719 86.7486 55.2045 86.958 54.8381L93.2903 43.8671C93.9218 42.7749 94.0926 41.4763 93.7649 40.2581C93.4371 39.0414 92.6402 38.0049 91.5488 37.3764L90.1713 36.5849L94.129 29.7301C94.5611 28.978 94.3067 28.018 93.5593 27.5774L94.3508 26.1999C94.9993 25.0907 95.1709 23.7658 94.8254 22.5275V22.5275ZM88.8572 22.9704C89.0667 22.604 89.4146 22.3358 89.8235 22.2268C90.2301 22.1263 90.6598 22.1827 91.0262 22.3853C91.3934 22.5947 91.6608 22.9426 91.7706 23.3507C91.8711 23.7573 91.8147 24.1871 91.6121 24.5535L90.8206 25.9309L88.0657 24.3479L88.8572 22.9704ZM67.2803 67.1702L66.4887 66.711L64.1458 65.349L66.3937 59.3337L71.3802 62.2146L67.2803 67.1702ZM62.5311 71.7447C61.8625 71.2786 61.6568 70.3819 62.0565 69.6708L62.848 68.2941L65.6021 69.8772L64.8106 71.2384C64.5888 71.6233 64.2162 71.897 63.7825 71.9936C63.3489 72.0894 62.8952 71.9998 62.5311 71.7447ZM73.1851 59.6189L67.7077 56.4528L80.3722 34.511L85.8496 37.6771L73.1851 59.6189ZM87.4326 34.9385L81.9553 31.7723L85.1214 26.295L90.5988 29.4611L87.4326 34.9385Z" fill="white"/>
<path d="M24.9807 70.9529L19.3774 76.5415L16.0211 73.1853C15.4035 72.5715 14.4064 72.5715 13.7887 73.1853C13.4888 73.4829 13.3203 73.8871 13.3203 74.3092C13.3203 74.7312 13.4888 75.1363 13.7887 75.4331L17.145 78.7894C17.7387 79.3784 18.541 79.7084 19.3774 79.7077C20.2184 79.7123 21.0277 79.3822 21.6252 78.7894L27.2131 73.1853C27.7511 72.5568 27.7148 71.6208 27.1304 71.0364C26.5452 70.4512 25.6092 70.4149 24.9807 70.9529Z" fill="white"/>
<path d="M6.33252 75.2115C6.33252 82.6437 12.3571 88.6675 19.7886 88.6675C27.22 88.6675 33.2446 82.6437 33.2446 75.2115C33.2446 74.3372 32.5358 73.6284 31.6615 73.6284C30.7873 73.6284 30.0785 74.3372 30.0785 75.2115C30.0785 80.8944 25.4715 85.5014 19.7886 85.5014C14.1056 85.5014 9.49865 80.8944 9.49865 75.2115C9.49865 69.5285 14.1056 64.9216 19.7886 64.9216C22.0163 64.9154 24.1845 65.6381 25.9624 66.98C26.6619 67.5049 27.6544 67.3626 28.1785 66.6631C28.7033 65.9635 28.5619 64.9718 27.8623 64.4469C23.7849 61.389 18.3292 60.8974 13.7709 63.1762C9.21187 65.4557 6.33252 70.1152 6.33252 75.2115Z" fill="white"/>
<path d="M56.9908 12.6808C57.865 12.6808 58.5738 11.9727 58.5738 11.0977C58.5738 10.2235 57.865 9.51465 56.9908 9.51465H15.8311C14.9569 9.51465 14.248 10.2235 14.248 11.0977V17.43C14.248 18.305 14.9569 19.013 15.8311 19.013H56.9908C57.865 19.013 58.5738 18.305 58.5738 17.43C58.5738 16.5557 57.865 15.8469 56.9908 15.8469H17.4142V12.6808H56.9908Z" fill="white"/>
<path d="M20.5801 22.1787C19.7059 22.1787 18.9971 22.8875 18.9971 23.7618C18.9971 24.6368 19.7059 25.3448 20.5801 25.3448H52.2414C53.1156 25.3448 53.8245 24.6368 53.8245 23.7618C53.8245 22.8875 53.1156 22.1787 52.2414 22.1787H20.5801Z" fill="white"/>
<path d="M61.7391 33.2598H26.9117C26.0374 33.2598 25.3286 33.9686 25.3286 34.8428C25.3286 35.7178 26.0374 36.4259 26.9117 36.4259H61.7391C62.6133 36.4259 63.3221 35.7178 63.3221 34.8428C63.3221 33.9686 62.6133 33.2598 61.7391 33.2598Z" fill="white"/>
<path d="M45.9089 44.3418C45.9089 43.4676 45.2001 42.7588 44.3259 42.7588H12.6646C11.7904 42.7588 11.0815 43.4676 11.0815 44.3418C11.0815 45.2169 11.7904 45.9249 12.6646 45.9249H44.3259C45.2001 45.9249 45.9089 45.2169 45.9089 44.3418Z" fill="white"/>
<path d="M61.7392 42.7588H50.6578C49.7835 42.7588 49.0747 43.4676 49.0747 44.3418C49.0747 45.2169 49.7835 45.9249 50.6578 45.9249H61.7392C62.6135 45.9249 63.3223 45.2169 63.3223 44.3418C63.3223 43.4676 62.6135 42.7588 61.7392 42.7588Z" fill="white"/>
<path d="M28.4952 53.8399C29.3695 53.8399 30.0783 53.1319 30.0783 52.2569C30.0783 51.3826 29.3695 50.6738 28.4952 50.6738H12.6646C11.7904 50.6738 11.0815 51.3826 11.0815 52.2569C11.0815 53.1319 11.7904 53.8399 12.6646 53.8399H28.4952Z" fill="white"/>
<path d="M34.8272 53.8399H45.9087C46.7829 53.8399 47.4917 53.1319 47.4917 52.2569C47.4917 51.3826 46.7829 50.6738 45.9087 50.6738H34.8272C33.953 50.6738 33.2441 51.3826 33.2441 52.2569C33.2441 53.1319 33.953 53.8399 34.8272 53.8399Z" fill="white"/>
<path d="M71.2379 72.8366C70.3636 72.8366 69.6548 73.5454 69.6548 74.4196V90.2503C69.6548 91.1253 68.946 91.8333 68.0717 91.8333H4.74919C3.87495 91.8333 3.16613 91.1253 3.16613 90.2503V4.76482C3.16613 3.89058 3.87495 3.18175 4.74919 3.18175H68.0717C68.946 3.18175 69.6548 3.89058 69.6548 4.76482V34.4952C69.6548 35.3694 70.3636 36.0782 71.2379 36.0782C72.1121 36.0782 72.8209 35.3694 72.8209 34.4952V4.76482C72.8209 2.14209 70.6945 0.015625 68.0717 0.015625H4.74919C2.12647 0.015625 0 2.14209 0 4.76482V90.2503C0 92.8737 2.12647 94.9994 4.74919 94.9994H68.0717C70.6945 94.9994 72.8209 92.8737 72.8209 90.2503V74.4196C72.8209 73.5454 72.1121 72.8366 71.2379 72.8366Z" fill="white"/>
</g>
<defs>
<clipPath id="clip0">
<rect width="95" height="95" fill="white"/>
</clipPath>
</defs>
</svg>
