<svg width="96" height="95" viewBox="0 0 96 95" fill="none" xmlns="http://www.w3.org/2000/svg">
<g clip-path="url(#clip0)">
<path d="M95.5344 22.5275C95.2074 21.3116 94.4097 20.275 93.3183 19.6466C92.226 19.0151 90.9274 18.8442 89.7092 19.1712C88.4926 19.4989 87.456 20.2959 86.8276 21.3873L86.036 22.7648C85.2839 22.3327 84.3231 22.587 83.8833 23.3352L79.8622 30.1893L78.4848 29.3977C78.1199 29.1867 77.6855 29.1295 77.2789 29.2393C76.8716 29.3498 76.5253 29.6173 76.3158 29.9836C75.8868 30.7404 76.1481 31.702 76.9017 32.1364L78.2792 32.9279L64.8231 56.2464L61.4985 65.128L59.9155 68.0877C58.9887 69.7002 59.0876 71.7045 60.169 73.2172L56.6071 77.5861L55.61 75.0855C55.1601 73.9709 54.1189 73.2072 52.9216 73.1136C51.7234 73.0193 50.5756 73.6114 49.9579 74.6418L49.3883 75.6073L48.8503 69.275C48.7266 67.777 47.5663 66.5727 46.0745 66.3918C44.5819 66.2117 43.1689 67.106 42.6919 68.5314L38.7977 80.2142C38.5256 81.0405 38.9708 81.931 39.7948 82.2093C39.9494 82.2812 40.1156 82.3245 40.2856 82.3353C40.9659 82.3376 41.5719 81.904 41.7899 81.2593L45.6679 69.5765L46.2221 76.003C46.3365 77.3743 47.3221 78.5144 48.6624 78.8252C50.0028 79.1359 51.3895 78.5454 52.0952 77.365L52.6812 76.3988L53.6628 78.8847C54.0795 79.9321 55.0217 80.6796 56.1371 80.8457C57.2526 81.0119 58.3718 80.5721 59.0768 79.6917L62.7655 75.0221C63.1736 75.1288 63.5941 75.1821 64.0161 75.1806C65.7128 75.1937 67.2882 74.3002 68.1477 72.8369L69.7308 70.1933L75.7623 62.8639L89.3606 39.2602L90.7381 40.0517C91.1052 40.262 91.3727 40.609 91.4817 41.0179C91.5914 41.4238 91.5342 41.8566 91.324 42.2207L84.9917 53.1916C84.7529 53.5518 84.6717 53.994 84.7676 54.416C84.8634 54.8373 85.127 55.2014 85.498 55.4232C85.8629 55.635 86.2973 55.6922 86.7039 55.5824C87.1112 55.4719 87.4575 55.2045 87.667 54.8381L93.9993 43.8671C94.6308 42.7749 94.8016 41.4763 94.4739 40.2581C94.1461 39.0414 93.3492 38.0049 92.2577 37.3764L90.8803 36.5849L94.8379 29.7301C95.27 28.978 95.0157 28.018 94.2683 27.5774L95.0598 26.1999C95.7083 25.0907 95.8799 23.7658 95.5344 22.5275V22.5275ZM89.5662 22.9704C89.7757 22.604 90.1235 22.3358 90.5324 22.2268C90.939 22.1263 91.3688 22.1827 91.7352 22.3853C92.1024 22.5947 92.3698 22.9426 92.4796 23.3507C92.5801 23.7573 92.5236 24.1871 92.3211 24.5535L91.5296 25.9309L88.7747 24.3479L89.5662 22.9704ZM67.9893 67.1702L67.1977 66.711L64.8548 65.349L67.1026 59.3337L72.0891 62.2146L67.9893 67.1702ZM63.2401 71.7447C62.5714 71.2786 62.3658 70.3819 62.7655 69.6708L63.557 68.2941L66.3111 69.8772L65.5196 71.2384C65.2977 71.6233 64.9252 71.897 64.4915 71.9936C64.0579 72.0894 63.6041 71.9998 63.2401 71.7447ZM73.8941 59.6189L68.4167 56.4528L81.0812 34.511L86.5586 37.6771L73.8941 59.6189ZM88.1416 34.9385L82.6643 31.7723L85.8304 26.295L91.3077 29.4611L88.1416 34.9385Z" fill="#7DBC91"/>
<path d="M25.6897 70.9529L20.0864 76.5415L16.7301 73.1853C16.1125 72.5715 15.1153 72.5715 14.4977 73.1853C14.1978 73.4829 14.0293 73.8871 14.0293 74.3092C14.0293 74.7312 14.1978 75.1363 14.4977 75.4331L17.854 78.7894C18.4477 79.3784 19.25 79.7084 20.0864 79.7077C20.9274 79.7123 21.7367 79.3822 22.3342 78.7894L27.9221 73.1853C28.4601 72.5568 28.4237 71.6208 27.8394 71.0364C27.2542 70.4512 26.3181 70.4149 25.6897 70.9529Z" fill="#7DBC91"/>
<path d="M7.04199 75.2115C7.04199 82.6437 13.0666 88.6675 20.498 88.6675C27.9295 88.6675 33.9541 82.6437 33.9541 75.2115C33.9541 74.3372 33.2452 73.6284 32.371 73.6284C31.4968 73.6284 30.7879 74.3372 30.7879 75.2115C30.7879 80.8944 26.181 85.5014 20.498 85.5014C14.8151 85.5014 10.2081 80.8944 10.2081 75.2115C10.2081 69.5285 14.8151 64.9216 20.498 64.9216C22.7258 64.9154 24.894 65.6381 26.6718 66.98C27.3714 67.5049 28.3639 67.3626 28.888 66.6631C29.4128 65.9635 29.2714 64.9718 28.5718 64.4469C24.4943 61.389 19.0386 60.8974 14.4804 63.1762C9.92134 65.4557 7.04199 70.1152 7.04199 75.2115Z" fill="#7DBC91"/>
<path d="M57.6998 12.6808C58.574 12.6808 59.2828 11.9727 59.2828 11.0977C59.2828 10.2235 58.574 9.51465 57.6998 9.51465H16.5401C15.6659 9.51465 14.957 10.2235 14.957 11.0977V17.43C14.957 18.305 15.6659 19.013 16.5401 19.013H57.6998C58.574 19.013 59.2828 18.305 59.2828 17.43C59.2828 16.5557 58.574 15.8469 57.6998 15.8469H18.1232V12.6808H57.6998Z" fill="#7DBC91"/>
<path d="M21.2891 22.1787C20.4149 22.1787 19.7061 22.8875 19.7061 23.7618C19.7061 24.6368 20.4149 25.3448 21.2891 25.3448H52.9504C53.8246 25.3448 54.5334 24.6368 54.5334 23.7618C54.5334 22.8875 53.8246 22.1787 52.9504 22.1787H21.2891Z" fill="#7DBC91"/>
<path d="M62.4486 33.2598H27.6211C26.7469 33.2598 26.0381 33.9686 26.0381 34.8428C26.0381 35.7178 26.7469 36.4259 27.6211 36.4259H62.4486C63.3228 36.4259 64.0316 35.7178 64.0316 34.8428C64.0316 33.9686 63.3228 33.2598 62.4486 33.2598Z" fill="#7DBC91"/>
<path d="M46.6184 44.3418C46.6184 43.4676 45.9096 42.7588 45.0354 42.7588H13.3741C12.4998 42.7588 11.791 43.4676 11.791 44.3418C11.791 45.2169 12.4998 45.9249 13.3741 45.9249H45.0354C45.9096 45.9249 46.6184 45.2169 46.6184 44.3418Z" fill="#7DBC91"/>
<path d="M62.4487 42.7588H51.3672C50.493 42.7588 49.7842 43.4676 49.7842 44.3418C49.7842 45.2169 50.493 45.9249 51.3672 45.9249H62.4487C63.3229 45.9249 64.0318 45.2169 64.0318 44.3418C64.0318 43.4676 63.3229 42.7588 62.4487 42.7588Z" fill="#7DBC91"/>
<path d="M29.2047 53.8399C30.079 53.8399 30.7878 53.1319 30.7878 52.2569C30.7878 51.3826 30.079 50.6738 29.2047 50.6738H13.3741C12.4998 50.6738 11.791 51.3826 11.791 52.2569C11.791 53.1319 12.4998 53.8399 13.3741 53.8399H29.2047Z" fill="#7DBC91"/>
<path d="M35.5362 53.8399H46.6176C47.4919 53.8399 48.2007 53.1319 48.2007 52.2569C48.2007 51.3826 47.4919 50.6738 46.6176 50.6738H35.5362C34.6619 50.6738 33.9531 51.3826 33.9531 52.2569C33.9531 53.1319 34.6619 53.8399 35.5362 53.8399Z" fill="#7DBC91"/>
<path d="M71.9468 72.8366C71.0726 72.8366 70.3638 73.5454 70.3638 74.4196V90.2503C70.3638 91.1253 69.655 91.8333 68.7807 91.8333H5.45817C4.58393 91.8333 3.87511 91.1253 3.87511 90.2503V4.76482C3.87511 3.89058 4.58393 3.18175 5.45817 3.18175H68.7807C69.655 3.18175 70.3638 3.89058 70.3638 4.76482V34.4952C70.3638 35.3694 71.0726 36.0782 71.9468 36.0782C72.8211 36.0782 73.5299 35.3694 73.5299 34.4952V4.76482C73.5299 2.14209 71.4034 0.015625 68.7807 0.015625H5.45817C2.83545 0.015625 0.708984 2.14209 0.708984 4.76482V90.2503C0.708984 92.8737 2.83545 94.9994 5.45817 94.9994H68.7807C71.4034 94.9994 73.5299 92.8737 73.5299 90.2503V74.4196C73.5299 73.5454 72.8211 72.8366 71.9468 72.8366Z" fill="#7DBC91"/>
</g>
<defs>
<clipPath id="clip0">
<rect width="95" height="95" fill="white" transform="translate(0.708984)"/>
</clipPath>
</defs>
</svg>
