<svg width="95" height="95" viewBox="0 0 95 95" fill="none" xmlns="http://www.w3.org/2000/svg">
<path d="M84.6094 11.875H77.1875V8.90625C77.1875 7.33153 76.5619 5.8213 75.4484 4.7078C74.3349 3.59431 72.8247 2.96875 71.25 2.96875C69.6753 2.96875 68.1651 3.59431 67.0516 4.7078C65.9381 5.8213 65.3125 7.33153 65.3125 8.90625V11.875H53.4375V8.90625C53.4375 7.33153 52.8119 5.8213 51.6984 4.7078C50.5849 3.59431 49.0747 2.96875 47.5 2.96875C45.9253 2.96875 44.4151 3.59431 43.3016 4.7078C42.1881 5.8213 41.5625 7.33153 41.5625 8.90625V11.875H29.6875V8.90625C29.6875 7.33153 29.0619 5.8213 27.9484 4.7078C26.8349 3.59431 25.3247 2.96875 23.75 2.96875C22.1753 2.96875 20.6651 3.59431 19.5516 4.7078C18.4381 5.8213 17.8125 7.33153 17.8125 8.90625V11.875H10.3906C8.42222 11.875 6.53444 12.6569 5.14257 14.0488C3.7507 15.4407 2.96875 17.3285 2.96875 19.2969V78.6719C2.96875 80.6403 3.7507 82.5281 5.14257 83.9199C6.53444 85.3118 8.42222 86.0938 10.3906 86.0938H51.9531C52.3468 86.0938 52.7244 85.9374 53.0027 85.659C53.2811 85.3806 53.4375 85.0031 53.4375 84.6094C53.4375 84.2157 53.2811 83.8381 53.0027 83.5598C52.7244 83.2814 52.3468 83.125 51.9531 83.125H10.3906C9.21067 83.1215 8.08004 82.6512 7.24568 81.8168C6.41132 80.9825 5.94102 79.8518 5.9375 78.6719V32.6562H89.0625V57.8906C89.0625 58.2843 89.2189 58.6619 89.4973 58.9402C89.7756 59.2186 90.1532 59.375 90.5469 59.375C90.9406 59.375 91.3181 59.2186 91.5965 58.9402C91.8749 58.6619 92.0312 58.2843 92.0312 57.8906V19.2969C92.0312 17.3285 91.2493 15.4407 89.8574 14.0488C88.4656 12.6569 86.5778 11.875 84.6094 11.875ZM68.2812 8.90625C68.2812 8.11889 68.594 7.36378 69.1508 6.80703C69.7075 6.25028 70.4626 5.9375 71.25 5.9375C72.0374 5.9375 72.7925 6.25028 73.3492 6.80703C73.906 7.36378 74.2188 8.11889 74.2188 8.90625V17.8125C74.2188 18.5999 73.906 19.355 73.3492 19.9117C72.7925 20.4685 72.0374 20.7812 71.25 20.7812C70.4626 20.7812 69.7075 20.4685 69.1508 19.9117C68.594 19.355 68.2812 18.5999 68.2812 17.8125V8.90625ZM44.5312 8.90625C44.5312 8.11889 44.844 7.36378 45.4008 6.80703C45.9575 6.25028 46.7126 5.9375 47.5 5.9375C48.2874 5.9375 49.0425 6.25028 49.5992 6.80703C50.156 7.36378 50.4688 8.11889 50.4688 8.90625V17.8125C50.4688 18.5999 50.156 19.355 49.5992 19.9117C49.0425 20.4685 48.2874 20.7812 47.5 20.7812C46.7126 20.7812 45.9575 20.4685 45.4008 19.9117C44.844 19.355 44.5312 18.5999 44.5312 17.8125V8.90625ZM20.7812 8.90625C20.7812 8.11889 21.094 7.36378 21.6508 6.80703C22.2075 6.25028 22.9626 5.9375 23.75 5.9375C24.5374 5.9375 25.2925 6.25028 25.8492 6.80703C26.406 7.36378 26.7188 8.11889 26.7188 8.90625V17.8125C26.7188 18.5999 26.406 19.355 25.8492 19.9117C25.2925 20.4685 24.5374 20.7812 23.75 20.7812C22.9626 20.7812 22.2075 20.4685 21.6508 19.9117C21.094 19.355 20.7812 18.5999 20.7812 17.8125V8.90625ZM89.0625 29.6875H5.9375V19.2969C5.94102 18.1169 6.41132 16.9863 7.24568 16.1519C8.08004 15.3176 9.21067 14.8473 10.3906 14.8438H17.8125V17.8125C17.8125 19.3872 18.4381 20.8974 19.5516 22.0109C20.6651 23.1244 22.1753 23.75 23.75 23.75C25.3247 23.75 26.8349 23.1244 27.9484 22.0109C29.0619 20.8974 29.6875 19.3872 29.6875 17.8125V14.8438H41.5625V17.8125C41.5625 19.3872 42.1881 20.8974 43.3016 22.0109C44.4151 23.1244 45.9253 23.75 47.5 23.75C49.0747 23.75 50.5849 23.1244 51.6984 22.0109C52.8119 20.8974 53.4375 19.3872 53.4375 17.8125V14.8438H65.3125V17.8125C65.3125 19.3872 65.9381 20.8974 67.0516 22.0109C68.1651 23.1244 69.6753 23.75 71.25 23.75C72.8247 23.75 74.3349 23.1244 75.4484 22.0109C76.5619 20.8974 77.1875 19.3872 77.1875 17.8125V14.8438H84.6094C85.7893 14.8473 86.92 15.3176 87.7543 16.1519C88.5887 16.9863 89.059 18.1169 89.0625 19.2969V29.6875Z" fill="white"/>
<path d="M44.5312 43.0469C44.5312 42.2595 44.2185 41.5044 43.6617 40.9477C43.105 40.3909 42.3499 40.0781 41.5625 40.0781H35.625C34.8376 40.0781 34.0825 40.3909 33.5258 40.9477C32.969 41.5044 32.6562 42.2595 32.6562 43.0469V47.5C32.6562 48.2874 32.969 49.0425 33.5258 49.5992C34.0825 50.156 34.8376 50.4688 35.625 50.4688H41.5625C42.3499 50.4688 43.105 50.156 43.6617 49.5992C44.2185 49.0425 44.5312 48.2874 44.5312 47.5V43.0469ZM35.625 47.5V43.0469H41.5625V47.5H35.625Z" fill="white"/>
<path d="M26.7188 43.0469C26.7188 42.2595 26.406 41.5044 25.8492 40.9477C25.2925 40.3909 24.5374 40.0781 23.75 40.0781H17.8125C17.0251 40.0781 16.27 40.3909 15.7133 40.9477C15.1565 41.5044 14.8438 42.2595 14.8438 43.0469V47.5C14.8438 48.2874 15.1565 49.0425 15.7133 49.5992C16.27 50.156 17.0251 50.4688 17.8125 50.4688H23.75C24.5374 50.4688 25.2925 50.156 25.8492 49.5992C26.406 49.0425 26.7188 48.2874 26.7188 47.5V43.0469ZM17.8125 47.5V43.0469H23.75V47.5H17.8125Z" fill="white"/>
<path d="M77.1875 50.4688C77.9749 50.4688 78.73 50.156 79.2867 49.5992C79.8435 49.0425 80.1562 48.2874 80.1562 47.5V43.0469C80.1562 42.2595 79.8435 41.5044 79.2867 40.9477C78.73 40.3909 77.9749 40.0781 77.1875 40.0781H71.25C70.4626 40.0781 69.7075 40.3909 69.1508 40.9477C68.594 41.5044 68.2812 42.2595 68.2812 43.0469V47.5C68.2812 48.2874 68.594 49.0425 69.1508 49.5992C69.7075 50.156 70.4626 50.4688 71.25 50.4688H77.1875ZM71.25 43.0469H77.1875V47.5H71.25V43.0469Z" fill="white"/>
<path d="M44.5312 56.4062C44.5312 55.6189 44.2185 54.8638 43.6617 54.307C43.105 53.7503 42.3499 53.4375 41.5625 53.4375H35.625C34.8376 53.4375 34.0825 53.7503 33.5258 54.307C32.969 54.8638 32.6562 55.6189 32.6562 56.4062V60.8594C32.6562 61.6467 32.969 62.4019 33.5258 62.9586C34.0825 63.5153 34.8376 63.8281 35.625 63.8281H41.5625C42.3499 63.8281 43.105 63.5153 43.6617 62.9586C44.2185 62.4019 44.5312 61.6467 44.5312 60.8594V56.4062ZM35.625 60.8594V56.4062H41.5625V60.8594H35.625Z" fill="white"/>
<path d="M26.7188 56.4062C26.7188 55.6189 26.406 54.8638 25.8492 54.307C25.2925 53.7503 24.5374 53.4375 23.75 53.4375H17.8125C17.0251 53.4375 16.27 53.7503 15.7133 54.307C15.1565 54.8638 14.8438 55.6189 14.8438 56.4062V60.8594C14.8438 61.6467 15.1565 62.4019 15.7133 62.9586C16.27 63.5153 17.0251 63.8281 17.8125 63.8281H23.75C24.5374 63.8281 25.2925 63.5153 25.8492 62.9586C26.406 62.4019 26.7188 61.6467 26.7188 60.8594V56.4062ZM17.8125 60.8594V56.4062H23.75V60.8594H17.8125Z" fill="white"/>
<path d="M41.5625 66.7969H35.625C34.8376 66.7969 34.0825 67.1097 33.5258 67.6664C32.969 68.2231 32.6562 68.9783 32.6562 69.7656V74.2188C32.6562 75.0061 32.969 75.7612 33.5258 76.318C34.0825 76.8747 34.8376 77.1875 35.625 77.1875H41.5625C42.3499 77.1875 43.105 76.8747 43.6617 76.318C44.2185 75.7612 44.5312 75.0061 44.5312 74.2188V69.7656C44.5312 68.9783 44.2185 68.2231 43.6617 67.6664C43.105 67.1097 42.3499 66.7969 41.5625 66.7969ZM35.625 74.2188V69.7656H41.5625V74.2188H35.625Z" fill="white"/>
<path d="M53.4375 50.4688H59.375C60.1624 50.4688 60.9175 50.156 61.4742 49.5992C62.031 49.0425 62.3438 48.2874 62.3438 47.5V43.0469C62.3438 42.2595 62.031 41.5044 61.4742 40.9477C60.9175 40.3909 60.1624 40.0781 59.375 40.0781H53.4375C52.6501 40.0781 51.895 40.3909 51.3383 40.9477C50.7815 41.5044 50.4688 42.2595 50.4688 43.0469V47.5C50.4688 48.2874 50.7815 49.0425 51.3383 49.5992C51.895 50.156 52.6501 50.4688 53.4375 50.4688ZM53.4375 43.0469H59.375V47.5H53.4375V43.0469Z" fill="white"/>
<path d="M50.4688 60.8594C50.4688 61.6467 50.7815 62.4019 51.3383 62.9586C51.895 63.5153 52.6501 63.8281 53.4375 63.8281C53.8312 63.8281 54.2087 63.6717 54.4871 63.3934C54.7655 63.115 54.9219 62.7374 54.9219 62.3438C54.9219 61.9501 54.7655 61.5725 54.4871 61.2941C54.2087 61.0158 53.8312 60.8594 53.4375 60.8594V56.4062H59.375C59.7687 56.4062 60.1462 56.2499 60.4246 55.9715C60.703 55.6931 60.8594 55.3156 60.8594 54.9219C60.8594 54.5282 60.703 54.1506 60.4246 53.8723C60.1462 53.5939 59.7687 53.4375 59.375 53.4375H53.4375C52.6501 53.4375 51.895 53.7503 51.3383 54.307C50.7815 54.8638 50.4688 55.6189 50.4688 56.4062V60.8594Z" fill="white"/>
<path d="M23.75 66.7969H17.8125C17.0251 66.7969 16.27 67.1097 15.7133 67.6664C15.1565 68.2231 14.8438 68.9783 14.8438 69.7656V74.2188C14.8438 75.0061 15.1565 75.7612 15.7133 76.318C16.27 76.8747 17.0251 77.1875 17.8125 77.1875H23.75C24.5374 77.1875 25.2925 76.8747 25.8492 76.318C26.406 75.7612 26.7188 75.0061 26.7188 74.2188V69.7656C26.7188 68.9783 26.406 68.2231 25.8492 67.6664C25.2925 67.1097 24.5374 66.7969 23.75 66.7969V66.7969ZM17.8125 74.2188V69.7656H23.75V74.2188H17.8125Z" fill="white"/>
<path d="M72.7344 53.4375C68.9178 53.4375 65.187 54.5692 62.0136 56.6896C58.8403 58.81 56.3669 61.8237 54.9064 65.3498C53.4459 68.8758 53.0637 72.7558 53.8083 76.499C54.5529 80.2422 56.3907 83.6806 59.0894 86.3793C61.7881 89.078 65.2265 90.9159 68.9697 91.6605C72.713 92.405 76.5929 92.0229 80.119 90.5623C83.645 89.1018 86.6588 86.6285 88.7791 83.4551C90.8995 80.2818 92.0312 76.5509 92.0312 72.7344C92.0254 67.6183 89.9904 62.7135 86.3728 59.0959C82.7552 55.4783 77.8504 53.4434 72.7344 53.4375V53.4375ZM72.7344 89.0625C69.505 89.0625 66.3481 88.1049 63.663 86.3107C60.9778 84.5165 58.885 81.9664 57.6492 78.9829C56.4133 75.9993 56.09 72.7163 56.72 69.5489C57.35 66.3816 58.9051 63.4722 61.1887 61.1886C63.4722 58.9051 66.3816 57.35 69.5489 56.72C72.7163 56.09 75.9993 56.4133 78.9829 57.6492C81.9665 58.885 84.5166 60.9778 86.3107 63.663C88.1049 66.3481 89.0625 69.505 89.0625 72.7344C89.0574 77.0633 87.3355 81.2134 84.2745 84.2745C81.2135 87.3355 77.0633 89.0574 72.7344 89.0625Z" fill="white"/>
<path d="M81.3113 66.5114L69.7658 78.0569L64.5185 72.8081C64.2386 72.5377 63.8636 72.3881 63.4744 72.3915C63.0852 72.3949 62.7129 72.551 62.4377 72.8262C62.1625 73.1014 62.0064 73.4737 62.003 73.8629C61.9996 74.2521 62.1492 74.6271 62.4196 74.907L68.7163 81.2052C68.9947 81.4835 69.3722 81.6398 69.7658 81.6398C70.1594 81.6398 70.5369 81.4835 70.8152 81.2052L83.4102 68.6103C83.6805 68.3304 83.8302 67.9554 83.8268 67.5662C83.8234 67.177 83.6673 66.8047 83.3921 66.5295C83.1169 66.2543 82.7446 66.0982 82.3554 66.0948C81.9662 66.0914 81.5912 66.241 81.3113 66.5114Z" fill="white"/>
</svg>
