<svg width="96" height="96" viewBox="0 0 96 96" fill="none" xmlns="http://www.w3.org/2000/svg">
<path d="M85.4609 12.5654H78.0391V9.59668C78.0391 8.02196 77.4135 6.51173 76.3 5.39823C75.1865 4.28474 73.6763 3.65918 72.1016 3.65918C70.5268 3.65918 69.0166 4.28474 67.9031 5.39823C66.7896 6.51173 66.1641 8.02196 66.1641 9.59668V12.5654H54.2891V9.59668C54.2891 8.02196 53.6635 6.51173 52.55 5.39823C51.4365 4.28474 49.9263 3.65918 48.3516 3.65918C46.7768 3.65918 45.2666 4.28474 44.1531 5.39823C43.0396 6.51173 42.4141 8.02196 42.4141 9.59668V12.5654H30.5391V9.59668C30.5391 8.02196 29.9135 6.51173 28.8 5.39823C27.6865 4.28474 26.1763 3.65918 24.6016 3.65918C23.0268 3.65918 21.5166 4.28474 20.4031 5.39823C19.2896 6.51173 18.6641 8.02196 18.6641 9.59668V12.5654H11.2422C9.27378 12.5654 7.386 13.3474 5.99413 14.7392C4.60226 16.1311 3.82031 18.0189 3.82031 19.9873V79.3623C3.82031 81.3307 4.60226 83.2185 5.99413 84.6104C7.386 86.0022 9.27378 86.7842 11.2422 86.7842H52.8047C53.1984 86.7842 53.5759 86.6278 53.8543 86.3494C54.1327 86.071 54.2891 85.6935 54.2891 85.2998C54.2891 84.9061 54.1327 84.5286 53.8543 84.2502C53.5759 83.9718 53.1984 83.8154 52.8047 83.8154H11.2422C10.0622 83.8119 8.93161 83.3416 8.09725 82.5072C7.26289 81.6729 6.79259 80.5423 6.78906 79.3623V33.3467H89.9141V58.5811C89.9141 58.9747 90.0705 59.3523 90.3488 59.6307C90.6272 59.909 91.0048 60.0654 91.3984 60.0654C91.7921 60.0654 92.1697 59.909 92.4481 59.6307C92.7264 59.3523 92.8828 58.9747 92.8828 58.5811V19.9873C92.8828 18.0189 92.1009 16.1311 90.709 14.7392C89.3171 13.3474 87.4293 12.5654 85.4609 12.5654ZM69.1328 9.59668C69.1328 8.80932 69.4456 8.0542 70.0023 7.49746C70.5591 6.94071 71.3142 6.62793 72.1016 6.62793C72.8889 6.62793 73.644 6.94071 74.2008 7.49746C74.7575 8.0542 75.0703 8.80932 75.0703 9.59668V18.5029C75.0703 19.2903 74.7575 20.0454 74.2008 20.6022C73.644 21.1589 72.8889 21.4717 72.1016 21.4717C71.3142 21.4717 70.5591 21.1589 70.0023 20.6022C69.4456 20.0454 69.1328 19.2903 69.1328 18.5029V9.59668ZM45.3828 9.59668C45.3828 8.80932 45.6956 8.0542 46.2523 7.49746C46.8091 6.94071 47.5642 6.62793 48.3516 6.62793C49.1389 6.62793 49.894 6.94071 50.4508 7.49746C51.0075 8.0542 51.3203 8.80932 51.3203 9.59668V18.5029C51.3203 19.2903 51.0075 20.0454 50.4508 20.6022C49.894 21.1589 49.1389 21.4717 48.3516 21.4717C47.5642 21.4717 46.8091 21.1589 46.2523 20.6022C45.6956 20.0454 45.3828 19.2903 45.3828 18.5029V9.59668ZM21.6328 9.59668C21.6328 8.80932 21.9456 8.0542 22.5023 7.49746C23.0591 6.94071 23.8142 6.62793 24.6016 6.62793C25.3889 6.62793 26.144 6.94071 26.7008 7.49746C27.2575 8.0542 27.5703 8.80932 27.5703 9.59668V18.5029C27.5703 19.2903 27.2575 20.0454 26.7008 20.6022C26.144 21.1589 25.3889 21.4717 24.6016 21.4717C23.8142 21.4717 23.0591 21.1589 22.5023 20.6022C21.9456 20.0454 21.6328 19.2903 21.6328 18.5029V9.59668ZM89.9141 30.3779H6.78906V19.9873C6.79259 18.8073 7.26289 17.6767 8.09725 16.8424C8.93161 16.008 10.0622 15.5377 11.2422 15.5342H18.6641V18.5029C18.6641 20.0777 19.2896 21.5879 20.4031 22.7014C21.5166 23.8149 23.0268 24.4404 24.6016 24.4404C26.1763 24.4404 27.6865 23.8149 28.8 22.7014C29.9135 21.5879 30.5391 20.0777 30.5391 18.5029V15.5342H42.4141V18.5029C42.4141 20.0777 43.0396 21.5879 44.1531 22.7014C45.2666 23.8149 46.7768 24.4404 48.3516 24.4404C49.9263 24.4404 51.4365 23.8149 52.55 22.7014C53.6635 21.5879 54.2891 20.0777 54.2891 18.5029V15.5342H66.1641V18.5029C66.1641 20.0777 66.7896 21.5879 67.9031 22.7014C69.0166 23.8149 70.5268 24.4404 72.1016 24.4404C73.6763 24.4404 75.1865 23.8149 76.3 22.7014C77.4135 21.5879 78.0391 20.0777 78.0391 18.5029V15.5342H85.4609C86.6409 15.5377 87.7715 16.008 88.6059 16.8424C89.4402 17.6767 89.9105 18.8073 89.9141 19.9873V30.3779Z" fill="#7DBC91"/>
<path d="M45.3828 43.7373C45.3828 42.9499 45.07 42.1948 44.5133 41.6381C43.9565 41.0813 43.2014 40.7686 42.4141 40.7686H36.4766C35.6892 40.7686 34.9341 41.0813 34.3773 41.6381C33.8206 42.1948 33.5078 42.9499 33.5078 43.7373V48.1904C33.5078 48.9778 33.8206 49.7329 34.3773 50.2897C34.9341 50.8464 35.6892 51.1592 36.4766 51.1592H42.4141C43.2014 51.1592 43.9565 50.8464 44.5133 50.2897C45.07 49.7329 45.3828 48.9778 45.3828 48.1904V43.7373ZM36.4766 48.1904V43.7373H42.4141V48.1904H36.4766Z" fill="#7DBC91"/>
<path d="M27.5703 43.7373C27.5703 42.9499 27.2575 42.1948 26.7008 41.6381C26.144 41.0813 25.3889 40.7686 24.6016 40.7686H18.6641C17.8767 40.7686 17.1216 41.0813 16.5648 41.6381C16.0081 42.1948 15.6953 42.9499 15.6953 43.7373V48.1904C15.6953 48.9778 16.0081 49.7329 16.5648 50.2897C17.1216 50.8464 17.8767 51.1592 18.6641 51.1592H24.6016C25.3889 51.1592 26.144 50.8464 26.7008 50.2897C27.2575 49.7329 27.5703 48.9778 27.5703 48.1904V43.7373ZM18.6641 48.1904V43.7373H24.6016V48.1904H18.6641Z" fill="#7DBC91"/>
<path d="M78.0391 51.1592C78.8264 51.1592 79.5815 50.8464 80.1383 50.2897C80.695 49.7329 81.0078 48.9778 81.0078 48.1904V43.7373C81.0078 42.9499 80.695 42.1948 80.1383 41.6381C79.5815 41.0813 78.8264 40.7686 78.0391 40.7686H72.1016C71.3142 40.7686 70.5591 41.0813 70.0023 41.6381C69.4456 42.1948 69.1328 42.9499 69.1328 43.7373V48.1904C69.1328 48.9778 69.4456 49.7329 70.0023 50.2897C70.5591 50.8464 71.3142 51.1592 72.1016 51.1592H78.0391ZM72.1016 43.7373H78.0391V48.1904H72.1016V43.7373Z" fill="#7DBC91"/>
<path d="M45.3828 57.0967C45.3828 56.3093 45.07 55.5542 44.5133 54.9975C43.9565 54.4407 43.2014 54.1279 42.4141 54.1279H36.4766C35.6892 54.1279 34.9341 54.4407 34.3773 54.9975C33.8206 55.5542 33.5078 56.3093 33.5078 57.0967V61.5498C33.5078 62.3372 33.8206 63.0923 34.3773 63.649C34.9341 64.2058 35.6892 64.5186 36.4766 64.5186H42.4141C43.2014 64.5186 43.9565 64.2058 44.5133 63.649C45.07 63.0923 45.3828 62.3372 45.3828 61.5498V57.0967ZM36.4766 61.5498V57.0967H42.4141V61.5498H36.4766Z" fill="#7DBC91"/>
<path d="M27.5703 57.0967C27.5703 56.3093 27.2575 55.5542 26.7008 54.9975C26.144 54.4407 25.3889 54.1279 24.6016 54.1279H18.6641C17.8767 54.1279 17.1216 54.4407 16.5648 54.9975C16.0081 55.5542 15.6953 56.3093 15.6953 57.0967V61.5498C15.6953 62.3372 16.0081 63.0923 16.5648 63.649C17.1216 64.2058 17.8767 64.5186 18.6641 64.5186H24.6016C25.3889 64.5186 26.144 64.2058 26.7008 63.649C27.2575 63.0923 27.5703 62.3372 27.5703 61.5498V57.0967ZM18.6641 61.5498V57.0967H24.6016V61.5498H18.6641Z" fill="#7DBC91"/>
<path d="M42.4141 67.4873H36.4766C35.6892 67.4873 34.9341 67.8001 34.3773 68.3568C33.8206 68.9136 33.5078 69.6687 33.5078 70.4561V74.9092C33.5078 75.6965 33.8206 76.4517 34.3773 77.0084C34.9341 77.5652 35.6892 77.8779 36.4766 77.8779H42.4141C43.2014 77.8779 43.9565 77.5652 44.5133 77.0084C45.07 76.4517 45.3828 75.6965 45.3828 74.9092V70.4561C45.3828 69.6687 45.07 68.9136 44.5133 68.3568C43.9565 67.8001 43.2014 67.4873 42.4141 67.4873ZM36.4766 74.9092V70.4561H42.4141V74.9092H36.4766Z" fill="#7DBC91"/>
<path d="M54.2891 51.1592H60.2266C61.0139 51.1592 61.769 50.8464 62.3258 50.2897C62.8825 49.7329 63.1953 48.9778 63.1953 48.1904V43.7373C63.1953 42.9499 62.8825 42.1948 62.3258 41.6381C61.769 41.0813 61.0139 40.7686 60.2266 40.7686H54.2891C53.5017 40.7686 52.7466 41.0813 52.1898 41.6381C51.6331 42.1948 51.3203 42.9499 51.3203 43.7373V48.1904C51.3203 48.9778 51.6331 49.7329 52.1898 50.2897C52.7466 50.8464 53.5017 51.1592 54.2891 51.1592ZM54.2891 43.7373H60.2266V48.1904H54.2891V43.7373Z" fill="#7DBC91"/>
<path d="M51.3203 61.5498C51.3203 62.3372 51.6331 63.0923 52.1898 63.649C52.7466 64.2058 53.5017 64.5186 54.2891 64.5186C54.6827 64.5186 55.0603 64.3622 55.3387 64.0838C55.617 63.8054 55.7734 63.4279 55.7734 63.0342C55.7734 62.6405 55.617 62.2629 55.3387 61.9846C55.0603 61.7062 54.6827 61.5498 54.2891 61.5498V57.0967H60.2266C60.6202 57.0967 60.9978 56.9403 61.2762 56.6619C61.5545 56.3835 61.7109 56.006 61.7109 55.6123C61.7109 55.2186 61.5545 54.8411 61.2762 54.5627C60.9978 54.2843 60.6202 54.1279 60.2266 54.1279H54.2891C53.5017 54.1279 52.7466 54.4407 52.1898 54.9975C51.6331 55.5542 51.3203 56.3093 51.3203 57.0967V61.5498Z" fill="#7DBC91"/>
<path d="M24.6016 67.4873H18.6641C17.8767 67.4873 17.1216 67.8001 16.5648 68.3568C16.0081 68.9136 15.6953 69.6687 15.6953 70.4561V74.9092C15.6953 75.6965 16.0081 76.4517 16.5648 77.0084C17.1216 77.5652 17.8767 77.8779 18.6641 77.8779H24.6016C25.3889 77.8779 26.144 77.5652 26.7008 77.0084C27.2575 76.4517 27.5703 75.6965 27.5703 74.9092V70.4561C27.5703 69.6687 27.2575 68.9136 26.7008 68.3568C26.144 67.8001 25.3889 67.4873 24.6016 67.4873V67.4873ZM18.6641 74.9092V70.4561H24.6016V74.9092H18.6641Z" fill="#7DBC91"/>
<path d="M73.5859 54.1279C69.7694 54.1279 66.0385 55.2597 62.8652 57.38C59.6918 59.5004 57.2185 62.5142 55.758 66.0402C54.2974 69.5662 53.9153 73.4462 54.6599 77.1894C55.4044 80.9327 57.2423 84.371 59.941 87.0697C62.6397 89.7685 66.0781 91.6063 69.8213 92.3509C73.5645 93.0955 77.4445 92.7133 80.9705 91.2528C84.4966 89.7922 87.5103 87.3189 89.6307 84.1456C91.7511 80.9722 92.8828 77.2414 92.8828 73.4248C92.8769 68.3088 90.842 63.4039 87.2244 59.7864C83.6068 56.1688 78.702 54.1338 73.5859 54.1279V54.1279ZM73.5859 89.7529C70.3565 89.7529 67.1997 88.7953 64.5145 87.0011C61.8294 85.207 59.7366 82.6569 58.5007 79.6733C57.2649 76.6897 56.9415 73.4067 57.5716 70.2393C58.2016 67.072 59.7567 64.1626 62.0402 61.8791C64.3237 59.5955 67.2331 58.0404 70.4005 57.4104C73.5678 56.7804 76.8509 57.1037 79.8344 58.3396C82.818 59.5754 85.3681 61.6682 87.1623 64.3534C88.9564 67.0385 89.9141 70.1954 89.9141 73.4248C89.9089 77.7537 88.187 81.9039 85.126 84.9649C82.065 88.0259 77.9149 89.7478 73.5859 89.7529Z" fill="#7DBC91"/>
<path d="M82.1628 67.2018L70.6173 78.7473L65.3701 73.4986C65.0901 73.2282 64.7152 73.0786 64.326 73.0819C63.9368 73.0853 63.5645 73.2414 63.2893 73.5166C63.014 73.7919 62.8579 74.1642 62.8545 74.5534C62.8512 74.9426 63.0008 75.3175 63.2712 75.5975L69.5679 81.8957C69.8463 82.174 70.2237 82.3303 70.6173 82.3303C71.0109 82.3303 71.3884 82.174 71.6668 81.8957L84.2617 69.3007C84.5321 69.0208 84.6817 68.6458 84.6783 68.2566C84.675 67.8674 84.5189 67.4951 84.2436 67.2199C83.9684 66.9447 83.5961 66.7886 83.2069 66.7852C82.8177 66.7818 82.4428 66.9314 82.1628 67.2018Z" fill="#7DBC91"/>
</svg>
