<svg width="96" height="95" viewBox="0 0 96 95" fill="none" xmlns="http://www.w3.org/2000/svg">
<g clip-path="url(#clip0)">
<path d="M48.0006 83.8672C47.2321 83.8672 46.609 84.4903 46.609 85.2588C46.609 86.0273 47.2321 86.6504 48.0006 86.6504C48.7691 86.6504 49.3922 86.0273 49.3922 85.2588C49.3922 84.4903 48.7691 83.8672 48.0006 83.8672ZM48.0006 75.5176C47.2321 75.5176 46.609 76.1406 46.609 76.9092C46.609 77.6777 47.2321 78.3008 48.0006 78.3008C48.7691 78.3008 49.3922 77.6777 49.3922 76.9092C49.3922 76.1406 48.7691 75.5176 48.0006 75.5176ZM48.0006 92.2168C47.2321 92.2168 46.609 92.8399 46.609 93.6084C46.609 94.3769 47.2321 95 48.0006 95C48.7691 95 49.3922 94.3769 49.3922 93.6084C49.3922 92.8399 48.7691 92.2168 48.0006 92.2168ZM75.3394 63.6671L69.1451 61.5826C72.5694 59.1436 74.7156 55.1406 74.7156 50.8196C74.7245 50.8018 74.7156 26.7152 74.7156 26.7152C74.7156 19.5817 71.9371 12.8732 66.8917 7.826C61.8454 2.77931 55.1364 0 48.0006 0C43.4172 0 38.8953 1.18063 34.9233 3.41443C34.2534 3.79109 34.0157 4.6396 34.3924 5.30942C34.7691 5.97943 35.6178 6.21675 36.2874 5.84027C39.8438 3.84045 43.8941 2.7832 48.0006 2.7832C54.3929 2.7832 60.4029 5.27287 64.9236 9.79354C69.4433 14.3151 71.9324 20.3246 71.9324 26.715V26.7213C71.1242 26.2575 70.189 25.9907 69.1923 25.9907H67.855C64.1319 25.3513 60.4801 24.2961 56.9996 22.8516C54.3507 21.7522 51.7767 20.4165 49.349 18.8816C48.4988 18.3439 47.3896 18.3938 46.589 19.0058C44.6951 20.4525 42.65 21.7036 40.5101 22.7241C36.6654 24.5577 32.5282 25.6563 28.2129 25.9907H26.8091C25.8123 25.9907 24.8772 26.2575 24.0689 26.7213V26.715C24.0689 20.2398 26.6139 14.1749 31.2351 9.63749C31.7836 9.09903 31.7916 8.21806 31.2531 7.66958C30.7149 7.12129 29.8337 7.11294 29.2852 7.65158C24.1266 12.7165 21.2857 19.4869 21.2857 26.715V50.8194C21.2857 55.1405 23.432 59.1436 26.8562 61.5825L20.6617 63.6671C15.5592 65.3845 12.1309 70.1551 12.1309 75.538V93.6084C12.1309 94.3769 12.7539 95 13.5225 95C14.291 95 14.9141 94.3769 14.9141 93.6084V75.538C14.9141 71.3513 17.5807 67.6407 21.5496 66.305L23.968 65.4912C23.6101 66.962 23.4518 68.4781 23.5075 69.979C23.5602 71.404 23.8006 72.8047 24.2168 74.1631C21.5136 74.9747 19.5379 77.4847 19.5379 80.4489V86.1123C19.5379 87.5134 20.6777 88.653 22.0786 88.653H23.6381C24.4066 88.653 25.0297 88.0299 25.0297 87.2614C25.0297 86.4929 24.4066 85.8698 23.6381 85.8698H22.3209V80.4487C22.3209 78.3655 24.015 76.6708 26.0977 76.6695C26.0988 76.6695 26.0998 76.6696 26.1009 76.6696C26.102 76.6696 26.1031 76.6695 26.1042 76.6695C28.1864 76.6717 29.8797 78.3661 29.8797 80.4487V85.8698H28.5627C27.7942 85.8698 27.1711 86.4929 27.1711 87.2614C27.1711 88.0299 27.7942 88.653 28.5627 88.653H30.1222C31.5231 88.653 32.6629 87.5132 32.6629 86.1123V80.4489C32.6629 77.1632 30.2358 74.4342 27.0804 73.9597C26.6082 72.6425 26.3402 71.273 26.2885 69.876C26.22 68.0235 26.5434 66.1415 27.2244 64.3953L36.7171 61.2008L46.6775 71.1609C47.4911 71.9824 48.8786 71.9862 49.6952 71.1609L52.4441 68.4121C52.9875 67.8686 52.9875 66.9874 52.4441 66.4442C51.9006 65.9007 51.0194 65.9007 50.4762 66.4442L48.1861 68.7336L39.3651 59.9125C40.673 58.7755 41.269 57.0423 41.1354 55.2935C43.2667 56.0368 45.551 56.4448 47.9262 56.4532C50.3201 56.4615 52.6643 56.071 54.8658 55.3163C54.6385 57.0911 55.4607 59.0225 56.8415 60.0782L55.0586 61.8611C54.5151 62.4046 54.5151 63.2858 55.0586 63.8291C55.6021 64.3725 56.4832 64.3725 57.0265 63.8291L59.5616 61.2939L68.0361 64.1458C68.677 65.7756 69.0078 67.5385 68.9913 69.283C68.9763 70.8646 68.6742 72.4618 68.1172 73.9508C64.4996 74.4243 61.6965 77.5246 61.6965 81.2693C61.6965 85.3406 65.0087 88.6528 69.08 88.6528C73.1513 88.6528 76.4635 85.3408 76.4635 81.2695C76.4635 77.8612 74.1415 74.9862 70.9969 74.1399C71.4923 72.5783 71.7591 70.937 71.7745 69.3095C71.7875 67.9471 71.6246 66.5751 71.299 65.2437L74.4518 66.3046C78.4208 67.6406 81.0873 71.3511 81.0873 75.5378V93.6082C81.0873 94.3767 81.7104 94.9998 82.4789 94.9998C83.2474 94.9998 83.8705 94.3767 83.8705 93.6082V75.5378C83.8705 70.1551 80.4422 65.3847 75.3394 63.6671V63.6671ZM69.1208 28.7739H69.1923C70.6998 28.7739 71.9265 29.9977 71.9324 31.5038V31.5252C71.9257 33.0515 70.654 34.2989 69.1208 34.2551V28.7739ZM24.0688 31.504C24.0732 29.9768 25.3488 28.731 26.8804 28.7741V34.2555C25.3472 34.2978 24.0753 33.0554 24.0688 31.5255V31.504ZM38.3522 56.0481C38.3522 57.0455 37.718 57.9283 36.7728 58.2454L30.3883 60.394C26.5896 58.7679 24.0689 54.9803 24.0689 50.8196V36.3082C24.9421 36.8129 25.9072 37.0559 26.9672 37.0389C27.6279 44.4661 32.0816 50.8191 38.3522 54.0904V56.0481ZM47.9357 53.67C37.8605 53.6351 29.6636 45.3131 29.6636 35.119V28.6505C33.876 28.1879 37.9221 27.0416 41.7081 25.2362C43.946 24.1691 46.0876 22.8688 48.0776 21.3698C50.5751 22.9319 53.2167 24.2949 55.9327 25.4221C59.2776 26.8106 62.7725 27.8591 66.3374 28.5447V35.3331C66.3374 40.2431 64.422 44.8558 60.9442 48.3218C57.4071 51.8468 52.9888 53.6876 47.9357 53.67V53.67ZM65.6131 60.3938L59.2271 58.2448C58.2832 57.9283 57.649 57.0455 57.649 56.0481V54.1309C59.565 53.1449 61.3384 51.8583 62.9089 50.2932C66.5093 46.7053 68.6547 42.0501 69.0524 37.0385C70.0757 37.0532 71.0943 36.7949 71.9326 36.3078V50.8192C71.9324 54.9801 69.4118 58.7679 65.6131 60.3938ZM73.6803 81.2695C73.6803 83.8061 71.6166 85.8698 69.0802 85.8698C66.5436 85.8698 64.4799 83.8061 64.4799 81.2695C64.4799 78.7348 66.5408 76.6724 69.0748 76.6695C69.0763 76.6695 69.0778 76.6696 69.0793 76.6696C69.0806 76.6696 69.0819 76.6695 69.0832 76.6695C71.6183 76.6709 73.6803 78.7338 73.6803 81.2695V81.2695ZM56.9991 29.909C56.2305 29.909 55.6075 30.5321 55.6075 31.3006V34.4841C55.6075 35.2526 56.2305 35.8757 56.9991 35.8757C57.7676 35.8757 58.3907 35.2526 58.3907 34.4841V31.3006C58.3907 30.5321 57.7676 29.909 56.9991 29.909ZM49.9765 43.1307C49.6633 43.3532 49.0061 43.7312 48.1231 43.7627C47.127 43.7974 46.3787 43.3814 46.0234 43.1296C45.3964 42.6852 44.5277 42.8335 44.0833 43.4606C43.6389 44.0876 43.7872 44.9563 44.4143 45.4007C45.0302 45.8371 46.2958 46.5481 48.0017 46.5481C49.4963 46.5481 50.8842 45.8998 51.5881 45.3998C52.2147 44.9547 52.3619 44.0859 51.9167 43.4593C51.4718 42.8328 50.6031 42.6856 49.9765 43.1307V43.1307ZM39.0021 29.909C38.2336 29.909 37.6105 30.5321 37.6105 31.3006V34.4841C37.6105 35.2526 38.2336 35.8757 39.0021 35.8757C39.7707 35.8757 40.3937 35.2526 40.3937 34.4841V31.3006C40.3937 30.5321 39.7708 29.909 39.0021 29.909Z" fill="#AB86E4"/>
</g>
<defs>
<clipPath id="clip0">
<rect width="95" height="95" fill="white" transform="translate(0.5)"/>
</clipPath>
</defs>
</svg>
