<svg width="150" height="150" viewBox="0 0 150 150" fill="none" xmlns="http://www.w3.org/2000/svg">
<path d="M75 0C33.6433 0 0 33.6433 0 75C0 116.357 33.6433 150 75 150C116.357 150 150 116.357 150 75C150 33.6433 116.357 0 75 0Z" fill="url(#paint0_linear)"/>
<path d="M113.012 59.1074L72.3869 99.7316C71.1681 100.95 69.5682 101.564 67.9683 101.564C66.3684 101.564 64.7686 100.95 63.5498 99.7316L43.2376 79.4195C40.7932 76.9762 40.7932 73.0257 43.2376 70.5824C45.681 68.1379 49.6303 68.1379 52.0748 70.5824L67.9683 86.4759L104.175 50.2702C106.618 47.8258 110.568 47.8258 113.012 50.2702C115.456 52.7135 115.456 56.6629 113.012 59.1074Z" fill="#FAFAFA"/>
<defs>
<linearGradient id="paint0_linear" x1="0" y1="75" x2="150" y2="75" gradientUnits="userSpaceOnUse">
<stop stop-color="#6288E4"/>
<stop offset="1" stop-color="#AB86E4"/>
</linearGradient>
</defs>
</svg>
