<svg width="96" height="95" viewBox="0 0 96 95" fill="none" xmlns="http://www.w3.org/2000/svg">
<g clip-path="url(#clip0)">
<path d="M79.8078 84.0651V93.4168C79.8078 94.2911 79.099 95 78.2247 95C77.3504 95 76.6415 94.2911 76.6415 93.4168V84.0651C76.6415 76.7837 70.7494 70.8912 63.4674 70.8913C60.0219 70.8913 56.8958 69.1361 55.1047 66.1958C54.65 65.4492 54.8864 64.4749 55.6333 64.0202C56.3799 63.5652 57.3539 63.8019 57.8089 64.5488C59.0204 66.5378 61.1356 67.7251 63.4674 67.7251C72.4985 67.7247 79.8078 75.0332 79.8078 84.0651V84.0651ZM52.1811 68.1957C52.3673 69.05 51.8257 69.8934 50.9714 70.0796C46.805 70.9873 42.5675 70.0786 39.1937 67.7758C35.8537 71.355 31.4411 70.8913 32.0318 70.8913C24.7504 70.8912 18.8577 76.7832 18.8577 84.0651V93.4168C18.8577 94.2911 18.1488 95 17.2745 95C16.4003 95 15.6914 94.2911 15.6914 93.4168V84.0651C15.6914 75.0342 22.9993 67.7251 32.0314 67.7251C35.6849 67.7251 38.6467 64.7815 38.6467 61.127V60.7101C31.7366 57.4059 26.8863 50.4625 26.5906 42.3769C23.7469 41.6932 21.6281 39.1479 21.6281 36.1196V27.9125C21.5416 23.8953 22.1381 13.8339 29.4741 6.7625C38.5325 -1.96963 53.0593 -1.41494 63.7411 3.72725C64.7822 4.2289 64.9403 5.63551 64.0757 6.36395C69.487 7.68388 74.1533 11.0104 77.1511 15.7713C77.3059 16.0165 77.5892 16.4014 77.5152 17.0154C77.4693 17.3975 77.3555 17.7209 77.0611 18.0197C75.1316 19.9765 74.0692 22.5694 74.0692 25.3211V36.12C74.0692 36.9943 73.3603 37.7031 72.486 37.7031C71.6118 37.7031 70.9029 36.9943 70.9029 36.12V25.3211C70.9029 22.1475 71.9872 19.1352 73.9785 16.7154C70.9433 12.3745 66.2078 9.58264 60.852 9.00915L58.0695 8.71113C56.4424 8.53698 56.1232 6.29548 57.6353 5.67311L58.9008 5.15206C42.4193 -0.593692 24.7942 5.79046 24.7942 27.8952V36.1196C24.7942 37.3758 25.5177 38.4676 26.5752 39.0159V28.7527C26.5752 22.6422 31.5466 17.6708 37.6571 17.6708H57.8419C63.9524 17.6708 68.9238 22.6418 68.9238 28.7521V41.7145C68.9238 55.4826 55.4696 65.9403 41.7791 61.9099C41.6901 63.0394 41.4089 64.1294 40.9508 65.1426C43.614 66.9715 46.9771 67.7093 50.2971 66.9858C51.1514 66.7998 51.9949 67.3414 52.1811 68.1957V68.1957ZM47.7495 59.6023C57.6793 59.6023 65.7576 51.524 65.7576 41.5942V28.7521C65.7576 24.3878 62.2066 20.8371 57.8419 20.8371H37.6571C33.2924 20.8371 29.7414 24.388 29.7414 28.7527V41.5942C29.7414 51.524 37.8197 59.6023 47.7495 59.6023ZM63.7787 86.8865H59.0293C58.155 86.8865 57.4462 87.5953 57.4462 88.4696C57.4462 89.3439 58.155 90.0527 59.0293 90.0527H63.7787C64.6529 90.0527 65.3618 89.3439 65.3618 88.4696C65.3618 87.5953 64.6529 86.8865 63.7787 86.8865Z" fill="#AB86E4"/>
</g>
<defs>
<clipPath id="clip0">
<rect width="95" height="95" fill="white" transform="translate(0.25)"/>
</clipPath>
</defs>
</svg>
