<svg width="63" height="85" viewBox="0 0 63 85" fill="none" xmlns="http://www.w3.org/2000/svg">
<path d="M59.1855 4.98047H50.3037V2.24121C50.3037 1.00539 49.2983 0 48.0625 0H42.2915C41.6037 0 41.0463 0.55748 41.0463 1.24512C41.0463 1.93275 41.6037 2.49023 42.2915 2.49023H47.8135V4.98047H15.4404V2.49023H36.979C37.6668 2.49023 38.2241 1.93275 38.2241 1.24512C38.2241 0.55748 37.6668 0 36.979 0H15.1914C13.9556 0 12.9502 1.00539 12.9502 2.24121V4.98047H4.06836C2.28336 4.98047 0.831055 6.43277 0.831055 8.21777V15.8077C0.831055 16.4953 1.38837 17.0528 2.07617 17.0528C2.76397 17.0528 3.32129 16.4953 3.32129 15.8077V8.21777C3.32129 7.80589 3.65647 7.4707 4.06836 7.4707H17.5986V9.96094H7.05664C6.36884 9.96094 5.81152 10.5184 5.81152 11.2061V78.7744C5.81152 79.4621 6.36884 80.0195 7.05664 80.0195H56.1973C56.8851 80.0195 57.4424 79.4621 57.4424 78.7744V74.3224C57.4424 73.6347 56.8851 73.0773 56.1973 73.0773C55.5095 73.0773 54.9521 73.6347 54.9521 74.3224V77.5293H8.30176V12.4512H17.5986V12.7439C17.5986 14.7794 19.2548 16.4355 21.2903 16.4355H41.9634C43.9991 16.4355 45.6551 14.7794 45.6551 12.7439V12.4512H54.952V69.0175C54.952 69.7051 55.5093 70.2626 56.1971 70.2626C56.8849 70.2626 57.4422 69.7051 57.4422 69.0175V11.2061C57.4422 10.5184 56.8849 9.96094 56.1971 9.96094H45.6551V7.4707H59.1855C59.5974 7.4707 59.9326 7.80589 59.9326 8.21777V81.7627C59.9326 82.1746 59.5974 82.5098 59.1855 82.5098H4.06836C3.65647 82.5098 3.32129 82.1746 3.32129 81.7627V21.1356C3.32129 20.448 2.76397 19.8905 2.07617 19.8905C1.38837 19.8905 0.831055 20.448 0.831055 21.1356V81.7627C0.831055 83.5477 2.28336 85 4.06836 85H59.1855C60.9705 85 62.4229 83.5477 62.4229 81.7627V8.21777C62.4229 6.43277 60.9705 4.98047 59.1855 4.98047ZM43.165 12.7439C43.165 13.4064 42.626 13.9453 41.9636 13.9453H21.2903C20.6279 13.9453 20.0889 13.4063 20.0889 12.7439V12.4512H43.165V12.7439ZM43.165 9.96094H20.0889V7.4707H43.165V9.96094Z" fill="#7DBC91"/>
<path d="M22.2275 22.0762C19.7102 22.0762 17.6621 24.1241 17.6621 26.6416V27.8867H16.417C13.8997 27.8867 11.8516 29.9347 11.8516 32.4521C11.8516 34.9696 13.8997 37.0176 16.417 37.0176H17.6621V38.2627C17.6621 40.7802 19.7102 42.8281 22.2275 42.8281C24.7448 42.8281 26.793 40.7802 26.793 38.2627V37.0176H28.0381C30.5554 37.0176 32.6035 34.9696 32.6035 32.4521C32.6035 29.9347 30.5554 27.8867 28.0381 27.8867H26.793V26.6416C26.793 24.1243 24.7448 22.0762 22.2275 22.0762ZM28.0381 30.377C29.1824 30.377 30.1133 31.3078 30.1133 32.4521C30.1133 33.5965 29.1824 34.5273 28.0381 34.5273H26.2119C25.1592 34.5273 24.3027 35.3838 24.3027 36.4365V38.2627C24.3027 39.407 23.3719 40.3379 22.2275 40.3379C21.0832 40.3379 20.1523 39.407 20.1523 38.2627V36.4365C20.1523 35.3838 19.2959 34.5273 18.2432 34.5273H16.417C15.2726 34.5273 14.3418 33.5965 14.3418 32.4521C14.3418 31.3078 15.2726 30.377 16.417 30.377H18.2432C19.2959 30.377 20.1523 29.5205 20.1523 28.4678V26.6416C20.1523 25.4973 21.0832 24.5664 22.2275 24.5664C23.3719 24.5664 24.3027 25.4973 24.3027 26.6416V28.4678C24.3027 29.5205 25.1592 30.377 26.2119 30.377H28.0381Z" fill="#7DBC91"/>
<path d="M37.1836 26.8242H48.7144C49.4022 26.8242 49.9595 26.2667 49.9595 25.5791C49.9595 24.8915 49.4022 24.334 48.7144 24.334H37.1836C36.4958 24.334 35.9385 24.8915 35.9385 25.5791C35.9385 26.2667 36.4958 26.8242 37.1836 26.8242Z" fill="#7DBC91"/>
<path d="M37.1836 31.8047H48.7144C49.4022 31.8047 49.9595 31.2472 49.9595 30.5596C49.9595 29.8719 49.4022 29.3145 48.7144 29.3145H37.1836C36.4958 29.3145 35.9385 29.8719 35.9385 30.5596C35.9385 31.2472 36.4958 31.8047 37.1836 31.8047Z" fill="#7DBC91"/>
<path d="M37.1836 36.7852H48.7144C49.4022 36.7852 49.9595 36.2277 49.9595 35.54C49.9595 34.8524 49.4022 34.2949 48.7144 34.2949H37.1836C36.4958 34.2949 35.9385 34.8524 35.9385 35.54C35.9385 36.2277 36.4958 36.7852 37.1836 36.7852Z" fill="#7DBC91"/>
<path d="M37.1836 41.7656H44.0786C44.7664 41.7656 45.3237 41.2081 45.3237 40.5205C45.3237 39.8329 44.7664 39.2754 44.0786 39.2754H37.1836C36.4958 39.2754 35.9385 39.8329 35.9385 40.5205C35.9385 41.2081 36.4958 41.7656 37.1836 41.7656Z" fill="#7DBC91"/>
<path d="M49.2025 49.8262H14.0557C13.3679 49.8262 12.8105 50.3837 12.8105 51.0713C12.8105 51.7589 13.3679 52.3164 14.0557 52.3164H49.2023C49.8901 52.3164 50.4475 51.7589 50.4475 51.0713C50.4475 50.3837 49.8901 49.8262 49.2025 49.8262V49.8262Z" fill="#7DBC91"/>
<path d="M49.2025 54.8066H14.0557C13.3679 54.8066 12.8105 55.3641 12.8105 56.0518C12.8105 56.7394 13.3679 57.2969 14.0557 57.2969H49.2023C49.8901 57.2969 50.4475 56.7394 50.4475 56.0518C50.4475 55.3641 49.8901 54.8066 49.2025 54.8066V54.8066Z" fill="#7DBC91"/>
<path d="M50.4476 61.0322C50.4476 60.3446 49.8903 59.7871 49.2025 59.7871H14.0557C13.3679 59.7871 12.8105 60.3446 12.8105 61.0322C12.8105 61.7199 13.3679 62.2773 14.0557 62.2773H49.2023C49.8901 62.2773 50.4476 61.7199 50.4476 61.0322V61.0322Z" fill="#7DBC91"/>
<path d="M14.0557 64.7676C13.3679 64.7676 12.8105 65.3251 12.8105 66.0127C12.8105 66.7003 13.3679 67.2578 14.0557 67.2578H35.0721C35.7599 67.2578 36.3172 66.7003 36.3172 66.0127C36.3172 65.3251 35.7599 64.7676 35.0721 64.7676H14.0557Z" fill="#7DBC91"/>
</svg>
