<svg width="62" height="85" viewBox="0 0 62 85" fill="none" xmlns="http://www.w3.org/2000/svg">
<path d="M58.6777 4.98047H49.7959V2.24121C49.7959 1.00539 48.7905 0 47.5547 0H41.7837C41.0959 0 40.5385 0.55748 40.5385 1.24512C40.5385 1.93275 41.0959 2.49023 41.7837 2.49023H47.3057V4.98047H14.9326V2.49023H36.4712C37.159 2.49023 37.7163 1.93275 37.7163 1.24512C37.7163 0.55748 37.159 0 36.4712 0H14.6836C13.4478 0 12.4424 1.00539 12.4424 2.24121V4.98047H3.56055C1.77555 4.98047 0.323242 6.43277 0.323242 8.21777V15.8077C0.323242 16.4953 0.880557 17.0528 1.56836 17.0528C2.25616 17.0528 2.81348 16.4953 2.81348 15.8077V8.21777C2.81348 7.80589 3.14866 7.4707 3.56055 7.4707H17.0908V9.96094H6.54883C5.86103 9.96094 5.30371 10.5184 5.30371 11.2061V78.7744C5.30371 79.4621 5.86103 80.0195 6.54883 80.0195H55.6895C56.3773 80.0195 56.9346 79.4621 56.9346 78.7744V74.3224C56.9346 73.6347 56.3773 73.0773 55.6895 73.0773C55.0017 73.0773 54.4443 73.6347 54.4443 74.3224V77.5293H7.79395V12.4512H17.0908V12.7439C17.0908 14.7794 18.747 16.4355 20.7825 16.4355H41.4556C43.4913 16.4355 45.1473 14.7794 45.1473 12.7439V12.4512H54.4442V69.0175C54.4442 69.7051 55.0015 70.2626 55.6893 70.2626C56.3771 70.2626 56.9344 69.7051 56.9344 69.0175V11.2061C56.9344 10.5184 56.3771 9.96094 55.6893 9.96094H45.1473V7.4707H58.6777C59.0896 7.4707 59.4248 7.80589 59.4248 8.21777V81.7627C59.4248 82.1746 59.0896 82.5098 58.6777 82.5098H3.56055C3.14866 82.5098 2.81348 82.1746 2.81348 81.7627V21.1356C2.81348 20.448 2.25616 19.8905 1.56836 19.8905C0.880557 19.8905 0.323242 20.448 0.323242 21.1356V81.7627C0.323242 83.5477 1.77555 85 3.56055 85H58.6777C60.4627 85 61.915 83.5477 61.915 81.7627V8.21777C61.915 6.43277 60.4627 4.98047 58.6777 4.98047ZM42.6572 12.7439C42.6572 13.4064 42.1182 13.9453 41.4558 13.9453H20.7825C20.1201 13.9453 19.5811 13.4063 19.5811 12.7439V12.4512H42.6572V12.7439ZM42.6572 9.96094H19.5811V7.4707H42.6572V9.96094Z" fill="white"/>
<path d="M21.7197 22.0762C19.2024 22.0762 17.1543 24.1241 17.1543 26.6416V27.8867H15.9092C13.3919 27.8867 11.3438 29.9347 11.3438 32.4521C11.3438 34.9696 13.3919 37.0176 15.9092 37.0176H17.1543V38.2627C17.1543 40.7802 19.2024 42.8281 21.7197 42.8281C24.237 42.8281 26.2852 40.7802 26.2852 38.2627V37.0176H27.5303C30.0476 37.0176 32.0957 34.9696 32.0957 32.4521C32.0957 29.9347 30.0476 27.8867 27.5303 27.8867H26.2852V26.6416C26.2852 24.1243 24.237 22.0762 21.7197 22.0762ZM27.5303 30.377C28.6746 30.377 29.6055 31.3078 29.6055 32.4521C29.6055 33.5965 28.6746 34.5273 27.5303 34.5273H25.7041C24.6514 34.5273 23.7949 35.3838 23.7949 36.4365V38.2627C23.7949 39.407 22.8641 40.3379 21.7197 40.3379C20.5754 40.3379 19.6445 39.407 19.6445 38.2627V36.4365C19.6445 35.3838 18.7881 34.5273 17.7354 34.5273H15.9092C14.7648 34.5273 13.834 33.5965 13.834 32.4521C13.834 31.3078 14.7648 30.377 15.9092 30.377H17.7354C18.7881 30.377 19.6445 29.5205 19.6445 28.4678V26.6416C19.6445 25.4973 20.5754 24.5664 21.7197 24.5664C22.8641 24.5664 23.7949 25.4973 23.7949 26.6416V28.4678C23.7949 29.5205 24.6514 30.377 25.7041 30.377H27.5303Z" fill="white"/>
<path d="M36.6753 26.8242H48.2061C48.8939 26.8242 49.4512 26.2667 49.4512 25.5791C49.4512 24.8915 48.8939 24.334 48.2061 24.334H36.6753C35.9875 24.334 35.4302 24.8915 35.4302 25.5791C35.4302 26.2667 35.9875 26.8242 36.6753 26.8242Z" fill="white"/>
<path d="M36.6753 31.8047H48.2061C48.8939 31.8047 49.4512 31.2472 49.4512 30.5596C49.4512 29.8719 48.8939 29.3145 48.2061 29.3145H36.6753C35.9875 29.3145 35.4302 29.8719 35.4302 30.5596C35.4302 31.2472 35.9875 31.8047 36.6753 31.8047Z" fill="white"/>
<path d="M36.6753 36.7852H48.2061C48.8939 36.7852 49.4512 36.2277 49.4512 35.54C49.4512 34.8524 48.8939 34.2949 48.2061 34.2949H36.6753C35.9875 34.2949 35.4302 34.8524 35.4302 35.54C35.4302 36.2277 35.9875 36.7852 36.6753 36.7852Z" fill="white"/>
<path d="M36.6753 41.7656H43.5703C44.2581 41.7656 44.8154 41.2081 44.8154 40.5205C44.8154 39.8329 44.2581 39.2754 43.5703 39.2754H36.6753C35.9875 39.2754 35.4302 39.8329 35.4302 40.5205C35.4302 41.2081 35.9875 41.7656 36.6753 41.7656Z" fill="white"/>
<path d="M48.6903 49.8262H13.5435C12.8557 49.8262 12.2983 50.3837 12.2983 51.0713C12.2983 51.7589 12.8557 52.3164 13.5435 52.3164H48.6901C49.3779 52.3164 49.9352 51.7589 49.9352 51.0713C49.9352 50.3837 49.3779 49.8262 48.6903 49.8262V49.8262Z" fill="white"/>
<path d="M48.6903 54.8066H13.5435C12.8557 54.8066 12.2983 55.3641 12.2983 56.0518C12.2983 56.7394 12.8557 57.2969 13.5435 57.2969H48.6901C49.3779 57.2969 49.9352 56.7394 49.9352 56.0518C49.9352 55.3641 49.3779 54.8066 48.6903 54.8066V54.8066Z" fill="white"/>
<path d="M49.9354 61.0322C49.9354 60.3446 49.3781 59.7871 48.6903 59.7871H13.5435C12.8557 59.7871 12.2983 60.3446 12.2983 61.0322C12.2983 61.7199 12.8557 62.2773 13.5435 62.2773H48.6901C49.3779 62.2773 49.9354 61.7199 49.9354 61.0322V61.0322Z" fill="white"/>
<path d="M13.5435 64.7676C12.8557 64.7676 12.2983 65.3251 12.2983 66.0127C12.2983 66.7003 12.8557 67.2578 13.5435 67.2578H34.5599C35.2477 67.2578 35.805 66.7003 35.805 66.0127C35.805 65.3251 35.2477 64.7676 34.5599 64.7676H13.5435Z" fill="white"/>
</svg>
