<svg width="96" height="96" viewBox="0 0 96 96" fill="none" xmlns="http://www.w3.org/2000/svg">
<g clip-path="url(#clip0)">
<path d="M95.8516 32.4814C95.8493 31.0392 95.4252 29.5765 94.4872 28.3708L86.96 18.7395C85.6992 17.1386 83.7808 16.3235 81.8637 16.3203C80.7228 16.3203 79.5611 16.6127 78.5347 17.2529L71.1952 21.8192C70.4233 22.3114 69.1 22.6493 67.8217 22.6406C66.8287 22.6449 65.869 22.4461 65.2354 22.1331L58.0481 18.6517C56.8888 18.0936 55.5964 17.8648 54.2969 17.8626C52.4304 17.8713 50.5403 18.33 49.0214 19.3826L48.1827 19.9709C47.5123 19.6364 46.4879 19.1267 45.3275 18.5493C43.9359 17.867 42.2996 17.5919 40.6467 17.5865C39.1536 17.5908 37.6609 17.8208 36.3502 18.3745L31.4547 20.4634C30.658 20.8089 29.3907 21.0345 28.132 21.0289C26.8732 21.0343 25.6082 20.8087 24.8114 20.4634L19.9115 18.3734C19.0177 17.9923 18.0623 17.8294 17.1155 17.8283C16.0252 17.8294 14.9414 18.0442 13.9341 18.4522C12.9281 18.8625 11.9942 19.4681 11.2505 20.2992L2.32945 30.2901C1.34067 31.3943 0.849528 32.7848 0.851569 34.1536C0.849528 35.7859 1.54793 37.4233 2.895 38.5709L11.2168 45.6707L7.26908 49.7889C6.18085 50.9246 5.63905 52.3971 5.63905 53.8531C5.63701 55.4022 6.25228 56.9664 7.47095 58.1181L8.27177 58.879C9.02639 59.5949 9.93316 60.0502 10.882 60.2931C10.4061 61.1685 10.146 62.1283 10.148 63.09C10.146 64.6402 10.7613 66.2033 11.9777 67.3563L11.9757 67.3552L12.7789 68.1194C13.9222 69.2032 15.4044 69.743 16.8646 69.742C17.6495 69.7432 18.4353 69.5854 19.1738 69.2767C19.433 70.3282 19.9683 71.3277 20.8103 72.1265L21.6135 72.8908C22.7569 73.9746 24.2366 74.5143 25.6993 74.5134C26.8426 74.5145 27.9911 74.1775 28.9799 73.5235C29.2692 74.454 29.7648 75.3359 30.5192 76.0527L31.3224 76.8169C32.4634 77.9007 33.9455 78.4405 35.4061 78.4396C36.9616 78.4407 38.5324 77.8297 39.6927 76.6184L43.1817 72.975L47.9218 77.3621C49.0565 78.4145 50.5128 78.9381 51.9504 78.935C53.5298 78.9383 55.1231 78.3056 56.2857 77.0609L57.0424 76.2503C57.6955 75.5487 58.1219 74.7184 58.3692 73.8517L60.2054 75.5465C61.3421 76.5947 62.7964 77.116 64.232 77.1149C65.8134 77.116 67.4111 76.4833 68.5749 75.2378L69.3273 74.428C70.1962 73.4997 70.6853 72.3499 70.8363 71.1756C71.321 71.2997 71.8121 71.3839 72.3075 71.3839C73.8889 71.3839 75.4822 70.7523 76.6471 69.5079L77.4017 68.6982C78.4564 67.5678 78.9811 66.1181 78.9789 64.6889C78.9789 64.2452 78.9152 63.8038 78.8169 63.3676C80.1285 63.1937 81.4002 62.6087 82.3673 61.5702L83.124 60.7595C84.1786 59.6292 84.7011 58.1795 84.7011 56.7491C84.7032 55.1753 84.0686 53.5872 82.8163 52.4301L81.4012 51.123L94.1739 37.001C95.3205 35.7296 95.8495 34.0931 95.8516 32.4814ZM12.3581 57.2881C11.6814 57.2861 11.0195 57.0441 10.5024 56.5541L9.7003 55.7932C9.14533 55.2685 8.87128 54.5702 8.86905 53.8533C8.87128 53.1809 9.11193 52.5244 9.60753 52.0073L17.6929 43.5699C18.2197 43.0203 18.9225 42.7452 19.6436 42.7442C20.3182 42.7453 20.9778 42.9882 21.4992 43.4794L22.298 44.2414C22.298 44.2414 23.125 45.4643 23.127 46.1822C23.125 46.7198 22.963 47.2434 22.6489 47.6968C22.622 47.7237 13.9222 56.7905 13.9222 56.7905C13.4602 57.1174 12.914 57.2857 12.3581 57.2881ZM18.8155 65.704C18.2898 66.2513 17.5881 66.5254 16.867 66.5276C16.1904 66.5265 15.5306 66.2836 15.0114 65.7936L14.2082 65.0303L14.2061 65.0292C13.6556 64.5067 13.3791 63.8062 13.3791 63.0893C13.3791 62.4168 13.622 61.7604 14.1152 61.2433C14.1152 61.2433 24.8929 50.0242 24.9836 49.916C25.4987 49.4206 26.1624 49.1647 26.8478 49.1636C27.5245 49.1647 28.1843 49.4065 28.7035 49.8976L29.5067 50.6619C30.0592 51.1844 30.3337 51.8839 30.3357 52.6018C30.3335 53.2742 30.0908 53.9316 29.5972 54.4487L18.8155 65.704ZM27.6488 70.474C27.1243 71.0227 26.4227 71.2971 25.7015 71.2992C25.0248 71.298 24.365 71.0552 23.8458 70.564L23.0404 69.8007C22.4878 69.2771 22.2114 68.5777 22.2114 67.8608C22.2114 67.2607 22.4155 66.6787 22.806 66.194L30.3118 58.36C30.8181 57.9034 31.4527 57.6628 32.1103 57.6628C32.787 57.6639 33.4468 57.9056 33.9659 58.3968L34.7714 59.161C35.3219 59.6835 35.5984 60.3831 35.6004 61.0998C35.5982 61.7735 35.3533 62.4309 34.8619 62.9468L27.6488 70.474ZM41.9103 69.6472L37.3559 74.4006C36.8311 74.9489 36.1285 75.2233 35.4074 75.2253C34.7308 75.2242 34.071 74.9813 33.5518 74.4902L32.7486 73.7268C32.198 73.2043 31.9216 72.5039 31.9195 71.787C31.9216 71.1132 32.1645 70.4558 32.658 69.9409L37.2104 65.1878C37.7372 64.6395 38.44 64.3642 39.1611 64.363C39.8357 64.3642 40.4976 64.6059 41.0167 65.0982L41.8222 65.8615C42.3727 66.384 42.6469 67.0835 42.6492 67.8003C42.6466 68.4738 42.4037 69.1312 41.9103 69.6472ZM81.476 56.7534C81.475 57.4136 81.2385 58.0602 80.7592 58.574L80.0046 59.3837C79.4778 59.9472 78.7631 60.2322 78.0313 60.2333C77.3674 60.2322 76.7174 59.999 76.2016 59.5221L63.4851 47.762L61.2862 50.1164L74.8976 62.726C75.4644 63.2507 75.7492 63.9632 75.7535 64.6907C75.7492 65.3535 75.5149 65.999 75.0367 66.513L74.2843 67.3227C73.7576 67.8862 73.0428 68.1701 72.3111 68.1723C71.6472 68.1703 70.9952 67.9359 70.4834 67.462L57.7636 55.7021L55.5669 58.0565L66.8552 68.4954C67.3993 69.0167 67.6779 69.7109 67.6779 70.4232C67.6779 71.0839 67.4436 71.7304 66.9654 72.2432L66.2108 73.0529C65.6861 73.6164 64.9693 73.9014 64.2355 73.9035C63.5694 73.9014 62.9196 73.6671 62.4058 73.1932L51.1402 62.7922H51.1381L51.1361 62.7902L48.9437 65.1488L48.9459 65.1509L48.988 65.1908L54.6305 70.3983C55.1303 70.9121 55.3894 71.5706 55.3914 72.2517C55.3894 72.9091 55.1571 73.5524 54.6789 74.0655L53.9243 74.8761C53.3975 75.4396 52.685 75.7224 51.9553 75.7246C51.2914 75.7226 50.6414 75.4894 50.1276 75.0134L45.2149 70.4644C45.6424 69.6257 45.881 68.7156 45.881 67.8023C45.8831 66.2532 45.2678 64.6913 44.0513 63.5374L43.2459 62.7731C42.1049 61.6902 40.6248 61.1496 39.1644 61.1516C39.051 61.1516 38.9367 61.1776 38.8256 61.1841C38.8256 61.1572 38.8319 61.129 38.8319 61.1021C38.8339 59.5529 37.0022 56.8348 37.0022 56.8348L36.199 56.0728C35.3451 55.2631 34.3033 54.758 33.2197 54.555C33.4431 53.9225 33.5694 53.264 33.5694 52.6044C33.5694 51.0552 32.9562 49.492 31.7397 48.3394L30.9365 47.5751C29.7932 46.4913 28.3134 45.9505 26.8528 45.9516C26.6823 45.9516 26.514 45.9861 26.3444 46.0013C26.298 44.5138 25.6989 43.0274 24.5331 41.9198V41.9187L23.7321 41.1578C22.5888 40.0729 21.109 39.532 19.6484 39.5332C18.0905 39.532 16.5221 40.143 15.3619 41.3543L13.4534 43.346L4.99873 36.1349C4.39106 35.6146 4.08769 34.8956 4.08547 34.1573C4.08751 33.5387 4.2981 32.9331 4.74713 32.4302L13.668 22.4395C14.0221 22.0422 14.5457 21.6828 15.1589 21.4332C15.7721 21.1839 16.4683 21.0469 17.1192 21.0479C17.6861 21.0479 18.218 21.1505 18.6435 21.334L23.5412 23.4238C24.9218 24.0057 26.5248 24.2443 28.1357 24.2495C29.7485 24.2441 31.3494 24.0055 32.7302 23.4238L37.6257 21.3349C38.3803 21.0057 39.519 20.8016 40.6514 20.8059C41.9036 20.7983 43.1579 21.0575 43.8855 21.4288C44.3475 21.6587 44.7857 21.8769 45.1926 22.0808L40.1999 25.5904C38.5957 26.7185 37.731 28.5126 37.7333 30.323C37.7312 31.5212 38.1111 32.741 38.884 33.7762L38.882 33.774L39.5414 34.6601C40.7937 36.3249 42.7464 37.1808 44.6981 37.1851C45.8003 37.1851 46.923 36.9066 47.9237 36.3063L50.9095 34.5132C51.5185 34.1408 52.4381 33.9055 53.389 33.9098C54.5063 33.9033 55.6322 34.2337 56.3091 34.7312L64.5695 40.6533C66.4079 41.9703 69.4022 44.4132 71.0616 45.9505L80.6226 54.7905C81.1887 55.3154 81.4737 56.0248 81.476 56.7534ZM91.7766 34.852L79.0395 48.9361L73.2566 43.5905C71.4453 41.9184 68.4584 39.4799 66.4548 38.0408L58.1967 32.1187C56.7965 31.1268 55.0823 30.698 53.3875 30.6917C51.9452 30.6959 50.4922 31.0102 49.2379 31.7571L46.2543 33.5502C45.7966 33.8254 45.257 33.9658 44.6965 33.9669C43.6945 33.9703 42.6918 33.5027 42.1328 32.7416L41.4754 31.8565L41.4732 31.8543C41.1234 31.3826 40.9605 30.8536 40.9581 30.3182C40.9623 29.5084 41.3359 28.7226 42.0593 28.212L50.8874 22.0092C51.6508 21.4566 53.0088 21.069 54.2987 21.0787C55.1947 21.0744 56.0507 21.2546 56.6368 21.544L63.824 25.0254C65.0493 25.6138 66.4322 25.8545 67.8234 25.8578C69.611 25.8491 71.418 25.4605 72.9068 24.5462L80.2486 19.9789C80.7171 19.6865 81.2795 19.5353 81.8658 19.5353C82.8568 19.5332 83.8498 19.9823 84.4122 20.7152L91.9395 30.3465C92.3735 30.8982 92.6249 31.6764 92.6249 32.4829C92.6262 33.3849 92.3076 34.2723 91.7766 34.852Z" fill="#7DBC91"/>
</g>
<defs>
<clipPath id="clip0">
<rect width="95" height="95" fill="white" transform="translate(0.851562 0.126953)"/>
</clipPath>
</defs>
</svg>
