<svg width="26" height="25" viewBox="0 0 26 25" fill="none" xmlns="http://www.w3.org/2000/svg">
<path d="M12.9999 0C6.09863 0 0.499878 5.59169 0.499878 12.4934C0.499878 19.4018 6.09863 25 12.9998 25C19.9049 25 25.4989 19.4017 25.4989 12.4934C25.4989 5.59169 19.9049 0 12.9999 0ZM13.8907 19.4488C13.6003 19.7071 13.2639 19.837 12.8827 19.837C12.4884 19.837 12.1444 19.7094 11.8508 19.4539C11.5567 19.1989 11.4094 18.8417 11.4094 18.3829C11.4094 17.9759 11.552 17.6333 11.8362 17.3557C12.1204 17.078 12.4691 16.9392 12.8827 16.9392C13.2898 16.9392 13.6324 17.078 13.9105 17.3557C14.1881 17.6333 14.3274 17.9758 14.3274 18.3829C14.3269 18.8351 14.1814 19.1905 13.8907 19.4488ZM17.5107 10.4742C17.2876 10.8879 17.0227 11.2445 16.7154 11.5453C16.4091 11.8459 15.8581 12.3513 15.0628 13.0618C14.8435 13.2623 14.6671 13.4383 14.5349 13.5898C14.4026 13.7418 14.3038 13.8806 14.2393 14.0067C14.1744 14.1328 14.1245 14.259 14.0892 14.385C14.0539 14.5107 14.0008 14.7323 13.9287 15.049C13.8064 15.721 13.422 16.0569 12.7759 16.0569C12.4399 16.0569 12.1576 15.9473 11.9274 15.7275C11.6983 15.5078 11.5839 15.1817 11.5839 14.7488C11.5839 14.2062 11.6681 13.7361 11.8361 13.3385C12.0032 12.9409 12.2267 12.5922 12.5044 12.2915C12.7825 11.9908 13.157 11.6341 13.629 11.2205C14.0426 10.8586 14.3414 10.5857 14.5254 10.4017C14.7099 10.2173 14.8647 10.0121 14.9903 9.78621C15.1169 9.55986 15.1791 9.3147 15.1791 9.0498C15.1791 8.53267 14.9876 8.09693 14.6026 7.74166C14.2182 7.38639 13.7222 7.2085 13.1147 7.2085C12.4037 7.2085 11.8804 7.38778 11.5444 7.74635C11.2084 8.10492 10.9247 8.63287 10.6918 9.33074C10.4716 10.0611 10.0546 10.4262 9.44148 10.4262C9.07961 10.4262 8.77424 10.2987 8.52531 10.0436C8.27685 9.78853 8.15262 9.51234 8.15262 9.21496C8.15262 8.60132 8.34979 7.97924 8.74367 7.34917C9.13802 6.7191 9.71304 6.19722 10.4692 5.78406C11.2249 5.37044 12.1072 5.16336 13.1147 5.16336C14.0516 5.16336 14.8784 5.33651 15.5955 5.6824C16.3126 6.02778 16.8669 6.4979 17.258 7.09266C17.6486 7.68695 17.8443 8.33306 17.8443 9.03092C17.8452 9.5792 17.7337 10.0606 17.5107 10.4742Z" fill="url(#paint0_linear)"/>
<defs>
<linearGradient id="paint0_linear" x1="0.499878" y1="12.5" x2="25.4989" y2="12.5" gradientUnits="userSpaceOnUse">
<stop stop-color="#6288E4"/>
<stop offset="1" stop-color="#AB86E4"/>
</linearGradient>
</defs>
</svg>
