<svg width="28" height="28" viewBox="0 0 28 28" fill="none" xmlns="http://www.w3.org/2000/svg">
<circle cx="14" cy="14" r="14" fill="url(#paint0_linear)"/>
<path d="M14.6224 14.1905L20.8509 14.1905C21.2377 14.1906 21.5514 13.877 21.5512 13.4902C21.5512 13.1032 21.2379 12.7898 20.8509 12.7898L14.6224 12.7898L14.6222 6.5611C14.6222 6.17413 14.3088 5.86079 13.9219 5.86079C13.5351 5.86062 13.2214 6.1743 13.2216 6.5611L13.2217 12.7898L6.99299 12.7897C6.60618 12.7895 6.29251 13.1032 6.29267 13.49C6.29284 13.6833 6.37126 13.8585 6.49788 13.9851C6.62451 14.1117 6.79967 14.1901 6.99316 14.1901L13.2219 14.1903L13.2219 20.4189C13.2219 20.6124 13.3003 20.7875 13.4269 20.9141C13.5536 21.0408 13.7287 21.1192 13.9222 21.1192C14.309 21.1194 14.6227 20.8057 14.6225 20.4189L14.6224 14.1905Z" fill="white"/>
<defs>
<linearGradient id="paint0_linear" x1="0" y1="14" x2="28" y2="14" gradientUnits="userSpaceOnUse">
<stop stop-color="#6288E4"/>
<stop offset="1" stop-color="#AB86E4"/>
</linearGradient>
</defs>
</svg>
