<svg width="28" height="28" viewBox="0 0 28 28" fill="none" xmlns="http://www.w3.org/2000/svg">
<circle cx="14" cy="14" r="14" fill="url(#paint0_linear)"/>
<path d="M13.8251 17.7362H14.6634C14.6634 17.7362 14.916 17.7088 15.0449 17.5705C15.1674 17.4416 15.1674 17.203 15.1674 17.203C15.1674 17.203 15.1493 16.0789 15.6743 15.9139C16.1917 15.7499 16.848 16.9989 17.5474 17.4789C18.0817 17.8459 18.4837 17.7671 18.4837 17.7671L20.3568 17.7415C20.3568 17.7415 21.3379 17.6802 20.8742 16.9096C20.8386 16.8484 20.6111 16.3409 19.4911 15.2996C18.3174 14.214 18.4749 14.389 19.8854 12.5072C20.7423 11.3609 21.0929 10.6603 20.9792 10.3628C20.8823 10.0828 20.2442 10.1522 20.2442 10.1522L18.143 10.1703C18.143 10.1703 17.9855 10.1522 17.8717 10.2228C17.758 10.2922 17.6886 10.4509 17.6886 10.4509C17.6886 10.4509 17.3549 11.3428 16.9092 12.0959C15.9625 13.6878 15.5862 13.7753 15.4375 13.6703C15.0851 13.4423 15.1756 12.7487 15.1756 12.2517C15.1756 10.7111 15.4112 10.0642 14.72 9.89791C14.4925 9.84482 14.3227 9.8104 13.7371 9.80107C12.9845 9.7929 12.3499 9.8069 11.99 9.98249C11.7537 10.1009 11.57 10.3628 11.6755 10.3762C11.8155 10.3937 12.13 10.4614 12.2962 10.6895C12.515 10.9847 12.5056 11.6438 12.5056 11.6438C12.5056 11.6438 12.6287 13.4615 12.2175 13.6873C11.9287 13.8401 11.5437 13.5239 10.7037 12.0796C10.2749 11.3446 9.95061 10.5221 9.95061 10.5221C9.95061 10.5221 9.88936 10.3727 9.7762 10.2852C9.64378 10.189 9.45128 10.154 9.45128 10.154L7.44752 10.1715C7.44752 10.1715 7.15002 10.1808 7.0456 10.3115C6.94876 10.4252 7.03626 10.6702 7.03626 10.6702C7.03626 10.6702 8.60311 14.3377 10.38 16.1845C12.0075 17.8774 13.8543 17.7683 13.8543 17.7683L13.8251 17.7362Z" fill="#424A4E"/>
<path d="M13.8251 17.7362H14.6634C14.6634 17.7362 14.916 17.7088 15.0449 17.5705C15.1674 17.4416 15.1674 17.203 15.1674 17.203C15.1674 17.203 15.1493 16.0789 15.6743 15.9139C16.1917 15.7499 16.848 16.9989 17.5474 17.4789C18.0817 17.8459 18.4837 17.7671 18.4837 17.7671L20.3568 17.7415C20.3568 17.7415 21.3379 17.6802 20.8742 16.9096C20.8386 16.8484 20.6111 16.3409 19.4911 15.2996C18.3174 14.214 18.4749 14.389 19.8854 12.5072C20.7423 11.3609 21.0929 10.6603 20.9792 10.3628C20.8823 10.0828 20.2442 10.1522 20.2442 10.1522L18.143 10.1703C18.143 10.1703 17.9855 10.1522 17.8717 10.2228C17.758 10.2922 17.6886 10.4509 17.6886 10.4509C17.6886 10.4509 17.3549 11.3428 16.9092 12.0959C15.9625 13.6878 15.5862 13.7753 15.4375 13.6703C15.0851 13.4423 15.1756 12.7487 15.1756 12.2517C15.1756 10.7111 15.4112 10.0642 14.72 9.89791C14.4925 9.84482 14.3227 9.8104 13.7371 9.80107C12.9845 9.7929 12.3499 9.8069 11.99 9.98249C11.7537 10.1009 11.57 10.3628 11.6755 10.3762C11.8155 10.3937 12.13 10.4614 12.2962 10.6895C12.515 10.9847 12.5056 11.6438 12.5056 11.6438C12.5056 11.6438 12.6287 13.4615 12.2175 13.6873C11.9287 13.8401 11.5437 13.5239 10.7037 12.0796C10.2749 11.3446 9.95061 10.5221 9.95061 10.5221C9.95061 10.5221 9.88936 10.3727 9.7762 10.2852C9.64378 10.189 9.45128 10.154 9.45128 10.154L7.44752 10.1715C7.44752 10.1715 7.15002 10.1808 7.0456 10.3115C6.94876 10.4252 7.03626 10.6702 7.03626 10.6702C7.03626 10.6702 8.60311 14.3377 10.38 16.1845C12.0075 17.8774 13.8543 17.7683 13.8543 17.7683L13.8251 17.7362Z" fill="white"/>
<defs>
<linearGradient id="paint0_linear" x1="0" y1="14" x2="28" y2="14" gradientUnits="userSpaceOnUse">
<stop stop-color="#6288E4"/>
<stop offset="1" stop-color="#AB86E4"/>
</linearGradient>
</defs>
</svg>
