<svg width="26" height="26" viewBox="0 0 26 26" fill="none" xmlns="http://www.w3.org/2000/svg">
<circle cx="12.751" cy="13.1836" r="12.5" fill="url(#paint0_linear)"/>
<path d="M15.4868 13.941C15.3383 13.8665 14.6078 13.5075 14.4718 13.4575C14.3353 13.408 14.2363 13.3835 14.1368 13.5325C14.0383 13.681 13.7533 14.0155 13.6668 14.1145C13.5803 14.214 13.4933 14.226 13.3448 14.152C13.1963 14.077 12.7173 13.9205 12.1498 13.4145C11.7083 13.0205 11.4098 12.534 11.3233 12.385C11.2368 12.2365 11.3143 12.156 11.3883 12.082C11.4553 12.0155 11.5373 11.9085 11.6113 11.822C11.6858 11.735 11.7103 11.673 11.7603 11.5735C11.8098 11.4745 11.7853 11.388 11.7478 11.3135C11.7103 11.239 11.4133 10.5075 11.2898 10.21C11.1688 9.92052 11.0463 9.96002 10.9553 9.95502C10.8688 9.95102 10.7698 9.95002 10.6703 9.95002C10.5713 9.95002 10.4103 9.98702 10.2743 10.136C10.1383 10.2845 9.75429 10.644 9.75429 11.3755C9.75429 12.1065 10.2868 12.813 10.3608 12.9125C10.4353 13.0115 11.4088 14.5125 12.8993 15.156C13.2538 15.309 13.5303 15.4005 13.7463 15.4685C14.1023 15.582 14.4263 15.566 14.6818 15.5275C14.9673 15.485 15.5608 15.168 15.6848 14.821C15.8088 14.474 15.8088 14.1765 15.7713 14.1145C15.7343 14.0525 15.6353 14.0155 15.4863 13.941H15.4868ZM12.7758 17.6425H12.7738C11.8887 17.6426 11.0198 17.4046 10.2583 16.9535L10.0778 16.8465L8.20729 17.3375L8.70629 15.5135L8.58879 15.3265C8.09401 14.5386 7.83227 13.6269 7.8338 12.6965C7.8343 9.97152 10.0518 7.75452 12.7778 7.75452C14.0978 7.75452 15.3388 8.26952 16.2718 9.20352C16.7321 9.66182 17.097 10.2069 17.3453 10.8071C17.5936 11.4074 17.7204 12.0509 17.7183 12.7005C17.7168 15.4255 15.4998 17.6425 12.7758 17.6425V17.6425ZM16.9823 8.49402C16.4314 7.93948 15.7759 7.49979 15.0538 7.20042C14.3318 6.90105 13.5575 6.74796 12.7758 6.75002C9.49829 6.75002 6.8308 9.41752 6.8293 12.696C6.8293 13.744 7.1028 14.767 7.6233 15.6685L6.7793 18.75L9.93179 17.923C10.8036 18.398 11.7805 18.6469 12.7733 18.647H12.7758C16.0528 18.647 18.7208 15.9795 18.7223 12.7005C18.7247 11.9191 18.5722 11.1451 18.2735 10.423C17.9748 9.701 17.536 9.04535 16.9823 8.49402V8.49402Z" fill="white"/>
<defs>
<linearGradient id="paint0_linear" x1="0.250977" y1="13.1836" x2="25.251" y2="13.1836" gradientUnits="userSpaceOnUse">
<stop stop-color="#6288E4"/>
<stop offset="1" stop-color="#AB86E4"/>
</linearGradient>
</defs>
</svg>
