<svg width="30" height="30" viewBox="0 0 30 30" fill="none" xmlns="http://www.w3.org/2000/svg">
<path d="M15.0088 0.226562C8.84021 0.226562 7.03612 0.232926 6.68543 0.262017C5.41953 0.367244 4.6318 0.566562 3.77362 0.993835C3.11225 1.32224 2.59066 1.70293 2.07589 2.23656C1.13839 3.20974 0.570208 4.40702 0.364526 5.8302C0.264526 6.52111 0.235435 6.66202 0.229526 10.1911C0.227253 11.3675 0.229526 12.9157 0.229526 14.9922C0.229526 21.1559 0.236344 22.9582 0.265889 23.3082C0.368162 24.54 0.561344 25.315 0.970435 26.1627C1.75225 27.7854 3.24543 29.0036 5.00453 29.4582C5.61362 29.615 6.28634 29.7013 7.14998 29.7422C7.51589 29.7582 11.2454 29.7695 14.9773 29.7695C18.7091 29.7695 22.4409 29.765 22.7977 29.7468C23.7977 29.6997 24.3784 29.6218 25.0204 29.4559C26.7909 28.9991 28.2568 27.7991 29.0545 26.1536C29.4557 25.3263 29.6591 24.5218 29.7511 23.3543C29.7711 23.0997 29.7795 19.0413 29.7795 14.9884C29.7795 10.9347 29.7704 6.88384 29.7504 6.62929C29.6573 5.44293 29.4538 4.6452 29.0398 3.80202C28.7 3.11179 28.3227 2.59634 27.775 2.06929C26.7975 1.13565 25.602 0.567472 24.1775 0.362017C23.4873 0.262244 23.3498 0.232699 19.8179 0.226562H15.0088Z" fill="url(#paint0_radial)"/>
<path d="M15.0088 0.226562C8.84021 0.226562 7.03612 0.232926 6.68543 0.262017C5.41953 0.367244 4.6318 0.566562 3.77362 0.993835C3.11225 1.32224 2.59066 1.70293 2.07589 2.23656C1.13839 3.20974 0.570208 4.40702 0.364526 5.8302C0.264526 6.52111 0.235435 6.66202 0.229526 10.1911C0.227253 11.3675 0.229526 12.9157 0.229526 14.9922C0.229526 21.1559 0.236344 22.9582 0.265889 23.3082C0.368162 24.54 0.561344 25.315 0.970435 26.1627C1.75225 27.7854 3.24543 29.0036 5.00453 29.4582C5.61362 29.615 6.28634 29.7013 7.14998 29.7422C7.51589 29.7582 11.2454 29.7695 14.9773 29.7695C18.7091 29.7695 22.4409 29.765 22.7977 29.7468C23.7977 29.6997 24.3784 29.6218 25.0204 29.4559C26.7909 28.9991 28.2568 27.7991 29.0545 26.1536C29.4557 25.3263 29.6591 24.5218 29.7511 23.3543C29.7711 23.0997 29.7795 19.0413 29.7795 14.9884C29.7795 10.9347 29.7704 6.88384 29.7504 6.62929C29.6573 5.44293 29.4538 4.6452 29.0398 3.80202C28.7 3.11179 28.3227 2.59634 27.775 2.06929C26.7975 1.13565 25.602 0.567472 24.1775 0.362017C23.4873 0.262244 23.3498 0.232699 19.8179 0.226562H15.0088Z" fill="url(#paint1_radial)"/>
<path d="M15.0018 4.0918C12.0391 4.0918 11.6673 4.10475 10.5036 4.15771C9.34225 4.21089 8.54952 4.39475 7.85589 4.66452C7.13839 4.94316 6.52975 5.31589 5.92339 5.92248C5.31657 6.52884 4.94384 7.13748 4.6643 7.85475C4.39384 8.54862 4.20975 9.34157 4.15748 10.5025C4.10543 11.6661 4.0918 12.0382 4.0918 15.0009C4.0918 17.9636 4.10498 18.3343 4.15771 19.4979C4.21112 20.6593 4.39498 21.452 4.66452 22.1457C4.94339 22.8632 5.31612 23.4718 5.92271 24.0782C6.52884 24.685 7.13748 25.0586 7.85452 25.3373C8.54862 25.607 9.34157 25.7909 10.5027 25.8441C11.6663 25.897 12.0379 25.91 15.0004 25.91C17.9634 25.91 18.3341 25.897 19.4977 25.8441C20.6591 25.7909 21.4527 25.607 22.1468 25.3373C22.8641 25.0586 23.4718 24.685 24.0779 24.0782C24.6848 23.4718 25.0575 22.8632 25.337 22.1459C25.6052 21.452 25.7893 20.6591 25.8438 19.4982C25.8961 18.3345 25.9098 17.9636 25.9098 15.0009C25.9098 12.0382 25.8961 11.6663 25.8438 10.5027C25.7893 9.34134 25.6052 8.54862 25.337 7.85498C25.0575 7.13748 24.6848 6.52884 24.0779 5.92248C23.4711 5.31566 22.8643 4.94293 22.1461 4.66452C21.4507 4.39475 20.6575 4.21089 19.4961 4.15771C18.3325 4.10475 17.962 4.0918 14.9984 4.0918H15.0018ZM14.0232 6.05771C14.3136 6.05725 14.6377 6.05771 15.0018 6.05771C17.9145 6.05771 18.2598 6.06816 19.41 6.12043C20.4736 6.16907 21.0509 6.3468 21.4354 6.49612C21.9445 6.69384 22.3075 6.93021 22.6891 7.31202C23.0709 7.69384 23.3073 8.05748 23.5054 8.56657C23.6548 8.95066 23.8327 9.52793 23.8811 10.5916C23.9334 11.7416 23.9448 12.087 23.9448 14.9984C23.9448 17.9098 23.9334 18.2552 23.8811 19.4052C23.8325 20.4688 23.6548 21.0461 23.5054 21.4302C23.3077 21.9393 23.0709 22.3018 22.6891 22.6834C22.3073 23.0652 21.9448 23.3016 21.4354 23.4993C21.0513 23.6493 20.4736 23.8266 19.41 23.8752C18.26 23.9275 17.9145 23.9388 15.0018 23.9388C12.0888 23.9388 11.7436 23.9275 10.5936 23.8752C9.52998 23.8261 8.95271 23.6484 8.56793 23.4991C8.05884 23.3013 7.69521 23.065 7.31339 22.6832C6.93157 22.3013 6.69521 21.9386 6.49702 21.4293C6.34771 21.0452 6.16975 20.4679 6.12134 19.4043C6.06907 18.2543 6.05861 17.9088 6.05861 14.9957C6.05861 12.0825 6.06907 11.7388 6.12134 10.5888C6.16998 9.52521 6.34771 8.94793 6.49702 8.56339C6.69475 8.0543 6.93157 7.69066 7.31339 7.30884C7.69521 6.92702 8.05884 6.69066 8.56793 6.49248C8.95248 6.34248 9.52998 6.16521 10.5936 6.11634C11.6 6.07089 11.99 6.05725 14.0232 6.05498V6.05771ZM20.825 7.86907C20.1023 7.86907 19.5159 8.45475 19.5159 9.17771C19.5159 9.90043 20.1023 10.4868 20.825 10.4868C21.5477 10.4868 22.1341 9.90043 22.1341 9.17771C22.1341 8.45498 21.5477 7.86862 20.825 7.86862V7.86907ZM15.0018 9.39862C11.9079 9.39862 9.39952 11.907 9.39952 15.0009C9.39952 18.0948 11.9079 20.602 15.0018 20.602C18.0957 20.602 20.6032 18.0948 20.6032 15.0009C20.6032 11.907 18.0954 9.39862 15.0016 9.39862H15.0018ZM15.0018 11.3645C17.01 11.3645 18.6382 12.9925 18.6382 15.0009C18.6382 17.0091 17.01 18.6373 15.0018 18.6373C12.9934 18.6373 11.3654 17.0091 11.3654 15.0009C11.3654 12.9925 12.9934 11.3645 15.0018 11.3645V11.3645Z" fill="white"/>
<defs>
<radialGradient id="paint0_radial" cx="0" cy="0" r="1" gradientUnits="userSpaceOnUse" gradientTransform="translate(8.07804 32.0449) rotate(-90) scale(29.2793 27.2394)">
<stop stop-color="#FFDD55"/>
<stop offset="0.1" stop-color="#FFDD55"/>
<stop offset="0.5" stop-color="#FF543E"/>
<stop offset="1" stop-color="#C837AB"/>
</radialGradient>
<radialGradient id="paint1_radial" cx="0" cy="0" r="1" gradientUnits="userSpaceOnUse" gradientTransform="translate(-4.72143 2.35479) rotate(78.6776) scale(13.0881 53.9632)">
<stop stop-color="#3771C8"/>
<stop offset="0.128" stop-color="#3771C8"/>
<stop offset="1" stop-color="#6600FF" stop-opacity="0"/>
</radialGradient>
</defs>
</svg>
