<svg width="95" height="95" viewBox="0 0 95 95" fill="none" xmlns="http://www.w3.org/2000/svg">
<path d="M89.8975 12.8508H65.5682C62.9648 5.37771 55.8491 0 47.5 0C44.4591 0 41.5504 0.693574 38.855 2.06161C37.2506 2.87598 38.5099 5.35729 40.1147 4.54349C42.4162 3.37547 44.9009 2.7832 47.5 2.7832C56.512 2.7832 63.8439 10.1151 63.8439 19.1271C63.8439 28.1391 56.512 35.471 47.5 35.471C38.488 35.471 31.1561 28.1391 31.1561 19.1271C31.1561 15.2297 32.5507 11.4555 35.083 8.4999C36.2538 7.13372 34.1401 5.32223 32.9695 6.68896C31.4046 8.5153 30.2152 10.6103 29.4368 12.8506H5.10254C2.28891 12.8506 0 15.1395 0 17.9531V89.8975C0 92.7111 2.28891 95 5.10254 95H89.8975C92.7111 95 95 92.7111 95 89.8975V29.6875V17.9533C95 15.1397 92.7111 12.8508 89.8975 12.8508ZM89.8975 15.634C91.1764 15.634 92.2168 16.6744 92.2168 17.9533V28.2959H64.282C66.3874 24.4579 67.104 19.9379 66.3063 15.634H89.8975ZM5.10254 15.634H28.6969C27.8968 19.9392 28.6117 24.4562 30.7178 28.2959H2.7832V17.9533C2.7832 16.6744 3.82356 15.634 5.10254 15.634ZM89.8975 92.2168H5.10254C3.82356 92.2168 2.7832 91.1764 2.7832 89.8975V31.0791H32.5789C36.0872 35.4502 41.472 38.2542 47.5 38.2542C53.539 38.2542 58.9325 35.4402 62.4404 31.0554C62.5217 31.0702 92.2168 31.0791 92.2168 31.0791V89.8975C92.2168 91.1764 91.1764 92.2168 89.8975 92.2168Z" fill="#AB86E4"/>
<path d="M77.033 67.2227H17.9675C7.67331 67.2227 7.65568 83.2161 17.9675 83.2161H77.0328C87.3271 83.2161 87.3447 67.2227 77.033 67.2227ZM77.033 80.4329H17.9675C11.259 80.4329 11.2128 70.0059 17.9675 70.0059H77.0328C83.7414 70.0059 83.7874 80.4329 77.033 80.4329Z" fill="#AB86E4"/>
<path d="M22.4791 73.8281C20.6882 73.8281 20.6852 76.6113 22.4791 76.6113C24.2698 76.6113 24.2727 73.8281 22.4791 73.8281Z" fill="#AB86E4"/>
<path d="M29.6285 73.8281C27.8376 73.8281 27.8346 76.6113 29.6285 76.6113C31.4194 76.6113 31.4223 73.8281 29.6285 73.8281Z" fill="#AB86E4"/>
<path d="M36.7769 73.8281C34.986 73.8281 34.983 76.6113 36.7769 76.6113C38.5678 76.6113 38.5708 73.8281 36.7769 73.8281Z" fill="#AB86E4"/>
<path d="M43.9253 73.8281C42.1344 73.8281 42.1315 76.6113 43.9253 76.6113C45.7162 76.6113 45.7192 73.8281 43.9253 73.8281Z" fill="#AB86E4"/>
<path d="M51.0748 73.8281C49.2839 73.8281 49.2809 76.6113 51.0748 76.6113C52.8657 76.6113 52.8686 73.8281 51.0748 73.8281Z" fill="#AB86E4"/>
<path d="M58.2232 73.8281C56.4323 73.8281 56.4293 76.6113 58.2232 76.6113C60.0139 76.6113 60.0169 73.8281 58.2232 73.8281Z" fill="#AB86E4"/>
<path d="M65.3716 73.8281C63.5807 73.8281 63.5778 76.6113 65.3716 76.6113C67.1625 76.6113 67.1655 73.8281 65.3716 73.8281Z" fill="#AB86E4"/>
<path d="M72.5211 73.8281C70.7301 73.8281 70.7272 76.6113 72.5211 76.6113C74.312 76.6113 74.3149 73.8281 72.5211 73.8281Z" fill="#AB86E4"/>
<path d="M77.033 46.2227H17.9675C7.67331 46.2227 7.65568 62.2161 17.9675 62.2161H64.8112C66.6104 62.2161 66.6104 59.4329 64.8112 59.4329H17.9675C11.259 59.4329 11.2128 49.0059 17.9675 49.0059H77.0328C83.7412 49.0059 83.7874 59.4329 77.0328 59.4329H72.233C70.4338 59.4329 70.4338 62.2161 72.233 62.2161H77.0328C87.3271 62.2161 87.3447 46.2227 77.033 46.2227V46.2227Z" fill="#AB86E4"/>
<path d="M47.4999 7.8125C44.7711 7.8125 42.5512 10.0324 42.5512 12.7612V16.0435C40.9208 16.2148 39.6455 17.5973 39.6455 19.2722V26.4538C39.6455 28.2442 41.1022 29.7009 42.8926 29.7009H52.1072C53.8975 29.7009 55.3543 28.2442 55.3543 26.4538V19.2722C55.3543 17.5971 54.0792 16.2148 52.4486 16.0435V12.7612C52.4486 10.0324 50.2287 7.8125 47.4999 7.8125ZM45.3344 12.761C45.3344 10.0521 49.6656 9.92811 49.6656 12.761V16.025H45.3344V12.761ZM52.5711 26.4538C52.5711 26.7095 52.3629 26.9177 52.1072 26.9177H42.8926C42.6369 26.9177 42.4287 26.7095 42.4287 26.4538V19.2722C42.4287 19.0166 42.6369 18.8084 42.8926 18.8084H52.1072C52.3629 18.8084 52.5711 19.0166 52.5711 19.2722V26.4538Z" fill="#AB86E4"/>
<path d="M73.9129 54.2197C73.9129 53.4512 73.2898 52.8281 72.5213 52.8281H22.4793C20.6801 52.8281 20.6801 55.6113 22.4793 55.6113H72.5213C73.2898 55.6113 73.9129 54.9883 73.9129 54.2197Z" fill="#AB86E4"/>
<path d="M47.5005 21.4707C45.7096 21.4707 45.7067 24.2539 47.5005 24.2539C49.2914 24.2539 49.2944 21.4707 47.5005 21.4707V21.4707Z" fill="#AB86E4"/>
</svg>
