<svg width="86" height="98" viewBox="0 0 86 98" fill="none" xmlns="http://www.w3.org/2000/svg">
<path d="M33.625 38.0625C34.4879 38.0625 35.1875 37.3629 35.1875 36.5C35.1875 35.6371 34.4879 34.9375 33.625 34.9375C32.7621 34.9375 32.0625 35.6371 32.0625 36.5C32.0625 37.3629 32.7621 38.0625 33.625 38.0625Z" fill="#7DBC91"/>
<path d="M52.375 38.0625C53.2379 38.0625 53.9375 37.3629 53.9375 36.5C53.9375 35.6371 53.2379 34.9375 52.375 34.9375C51.5121 34.9375 50.8125 35.6371 50.8125 36.5C50.8125 37.3629 51.5121 38.0625 52.375 38.0625Z" fill="#7DBC91"/>
<path d="M43 52.125C41.2766 52.125 39.875 50.7234 39.875 49H36.75C36.75 52.4469 39.5531 55.25 43 55.25C46.4469 55.25 49.25 52.4469 49.25 49H46.125C46.125 50.7234 44.7234 52.125 43 52.125Z" fill="#7DBC91"/>
<path d="M72.3672 74.1562C76.425 70.9328 78.625 67.15 78.7313 66.9625L79.55 65.5281L78.0734 64.7891C72.8234 62.1656 69.5625 56.8922 69.5625 51.0297L69.5641 25.3297C69.5641 18.7125 66.9859 12.4922 62.3016 7.81563C57.6156 3.1375 51.3828 0.5625 44.7484 0.5625H44.3422C38.0203 0.5625 32.075 3.02656 27.6047 7.49844L24.9281 10.175C19.7594 12.3812 16.4375 17.3953 16.4375 23.0391V51.0187C16.4375 56.8891 13.1766 62.1656 7.92656 64.7891L6.45 65.5281L7.26875 66.9625C7.375 67.1484 9.57344 70.9312 13.6328 74.1562C5.76563 78.4922 0.8125 86.725 0.8125 95.875V97.4375H85.1875V95.875C85.1875 86.725 80.2344 78.4906 72.3672 74.1562V74.1562ZM44.3406 3.6875H44.7469C50.5469 3.6875 55.9969 5.93906 60.0922 10.0266C64.1844 14.1125 66.4391 19.5469 66.4391 25.3281L66.4375 51.0297C66.4375 57.4937 69.7312 63.3625 75.1422 66.7281C74.0656 68.2203 72.0125 70.6938 69.1469 72.6406L53.7234 66.3297C51.9547 65.6062 50.8125 63.9031 50.8125 61.9906V60.8688C58.5016 55.5547 63.3125 46.7453 63.3125 37.0469V27.2719L45.4063 25.4812C37.3734 24.6797 30.5 19.3828 27.6281 11.8937L29.8141 9.70781C33.6938 5.825 38.8531 3.6875 44.3406 3.6875V3.6875ZM55.5 70.875C55.5 73.4594 53.0469 75.5625 50.0312 75.5625C48.2234 75.5625 46.6 74.8016 45.5969 73.6C48.1641 72.8609 50.2812 71.0672 51.4312 68.6563C51.7828 68.8703 52.1531 69.0625 52.5422 69.2219L55.4328 70.4047C55.4516 70.5625 55.5 70.7156 55.5 70.875ZM30.5672 70.4047L33.4578 69.2219C33.8484 69.0625 34.2172 68.8703 34.5688 68.6563C35.7188 71.0672 37.8359 72.8609 40.4031 73.6C39.4 74.8016 37.7766 75.5625 35.9688 75.5625C32.9531 75.5625 30.5 73.4594 30.5 70.875C30.5 70.7156 30.5484 70.5625 30.5672 70.4047ZM43 61.4094C32.6969 57.7453 25.8125 48.0219 25.8125 37.0484V33.8344C25.8125 31.1484 27.1656 28.6844 29.4312 27.2438L33.7797 24.4766C37.0875 26.7266 40.9578 28.1797 45.0938 28.5922L60.1875 30.1016V37.0484C60.1875 48.0234 53.3031 57.7469 43 61.4094V61.4094ZM42.5063 64.5453L43 64.7094L43.4938 64.5453C44.9734 64.0516 46.3922 63.4484 47.7422 62.7453C47.8672 64.0453 48.2922 65.2703 48.9906 66.3219C48.2422 68.9875 45.8281 70.875 43 70.875C40.1703 70.875 37.7563 68.9875 37.0078 66.3219C37.7078 65.2703 38.1328 64.0453 38.2563 62.7453C39.6063 63.4469 41.0266 64.0516 42.5063 64.5453V64.5453ZM43 75.3516C43.4312 75.9094 43.9437 76.4047 44.5125 76.8391L47.4078 94.3125H38.5922L41.4875 76.8391C42.0562 76.4047 42.5688 75.9109 43 75.3516ZM10.8578 66.7281C16.2687 63.3609 19.5625 57.4891 19.5625 51.0187V23.0391C19.5625 19.1109 21.6359 15.5781 24.9562 13.6531C26.3719 17.0516 28.5109 20.0359 31.1734 22.4297L27.7547 24.6047C24.5813 26.625 22.6875 30.075 22.6875 33.8344V37.0484C22.6875 46.7453 27.4984 55.5563 35.1875 60.8703V61.9922C35.1875 63.9047 34.0453 65.6062 32.275 66.3297L16.8516 72.6391C13.9875 70.6922 11.9344 68.2203 10.8578 66.7281V66.7281ZM17.4281 75.7797L27.4234 71.6906C27.8734 75.6172 31.5328 78.6875 35.9688 78.6875C36.6891 78.6875 37.3828 78.5813 38.0578 78.4266L35.425 94.3125H19.5625V84.9375H16.4375V94.3125H3.99219C4.575 86.1016 9.71875 78.9344 17.4281 75.7797V75.7797ZM69.5625 94.3125V84.9375H66.4375V94.3125H50.575L47.9422 78.4266C48.6172 78.5813 49.3109 78.6875 50.0312 78.6875C54.4672 78.6875 58.1266 75.6172 58.5766 71.6922L68.5719 75.7812C76.2813 78.9344 81.425 86.1016 82.0078 94.3125H69.5625Z" fill="#7DBC91"/>
<path d="M59.9496 24.2576L63.0324 23.742C62.8402 22.5936 62.5449 21.4529 62.1559 20.3545L59.209 21.3967C59.5371 22.3248 59.7871 23.2873 59.9496 24.2576V24.2576Z" fill="#7DBC91"/>
<path d="M57.8891 18.5312L60.5938 16.9688C56.9703 10.7031 50.2297 6.8125 43 6.8125V9.9375C49.1172 9.9375 54.8219 13.2313 57.8891 18.5312V18.5312Z" fill="#7DBC91"/>
</svg>
