<svg width="35" height="35" viewBox="0 0 35 35" fill="none" xmlns="http://www.w3.org/2000/svg">
<circle cx="17.5" cy="17.5" r="17.5" fill="#3F4862"/>
<path d="M18.6055 17.4999L23.521 12.5844C23.8263 12.2793 23.8263 11.7842 23.521 11.479C23.2156 11.1737 22.721 11.1737 22.4156 11.479L17.5001 16.3945L12.5844 11.479C12.279 11.1737 11.7844 11.1737 11.479 11.479C11.1737 11.7842 11.1737 12.2793 11.479 12.5844L16.3948 17.4999L11.479 22.4153C11.1737 22.7205 11.1737 23.2156 11.479 23.5207C11.6317 23.6731 11.8319 23.7495 12.0317 23.7495C12.2316 23.7495 12.4317 23.6731 12.5844 23.5204L17.5001 18.605L22.4156 23.5204C22.5683 23.6731 22.7684 23.7495 22.9683 23.7495C23.1681 23.7495 23.3683 23.6731 23.521 23.5204C23.8263 23.2153 23.8263 22.7202 23.521 22.4151L18.6055 17.4999Z" fill="white"/>
</svg>
