<svg width="95" height="95" viewBox="0 0 95 95" fill="none" xmlns="http://www.w3.org/2000/svg">
<g clip-path="url(#clip0)">
<g clip-path="url(#clip1)">
<path d="M50.8235 43.3769C54.8003 43.3769 58.0356 40.026 58.0356 35.9072C58.0356 31.7884 54.8003 28.4375 50.8235 28.4375C50.808 28.4375 50.7925 28.4378 50.7772 28.4384H44.8858C44.8852 28.4384 44.8847 28.4383 44.8842 28.4383C44.1813 28.4383 43.6115 29.0285 43.6115 29.7565V29.7566V42.0587V46.0133H42.3386C41.6358 46.0133 41.0659 46.6035 41.0659 47.3314C41.0659 48.0594 41.6358 48.6496 42.3386 48.6496H43.6114V56.1193C43.6114 56.8473 44.1812 57.4375 44.8841 57.4375C45.587 57.4375 46.1568 56.8473 46.1568 56.1193V48.6496H50.8235C51.5264 48.6496 52.0962 48.0594 52.0962 47.3314C52.0962 46.6035 51.5264 46.0133 50.8235 46.0133H46.1568V43.3769H50.8235ZM50.8235 31.0747C50.8372 31.0747 50.851 31.0745 50.8646 31.074C53.419 31.0969 55.4902 33.2562 55.4902 35.9072C55.4902 38.5723 53.3967 40.7405 50.8235 40.7405H46.1568V31.0747H50.8235Z" fill="white"/>
</g>
<path d="M26.0142 43.3397C26.0142 55.8195 36.1308 65.9362 48.6107 65.9362C61.0905 65.9362 71.2071 55.8195 71.2071 43.3397C71.2071 30.8598 61.0905 20.7432 48.6107 20.7432C36.1369 20.7569 26.0286 30.8659 26.0142 43.3397ZM48.6107 23.8597C59.3694 23.8597 68.0906 32.5809 68.0906 43.3397C68.0906 54.0984 59.3694 62.8196 48.6107 62.8196C37.8519 62.8196 29.1307 54.0984 29.1307 43.3397C29.1429 32.5862 37.8572 23.8719 48.6107 23.8597Z" fill="white"/>
<path d="M78.8893 69.7779L66.6826 75.5454C64.9972 72.4106 61.7643 70.4155 58.2064 70.3151L46.9378 70.0054C45.1536 69.9544 43.4028 69.5025 41.8164 68.683L40.6697 68.0888C34.7988 65.0285 27.801 65.0361 21.9362 68.1086L22.0077 65.5109C22.0313 64.6504 21.3534 63.9336 20.4928 63.91L8.1362 63.5699C7.27565 63.5463 6.55967 64.2243 6.53608 65.0848L5.78966 92.2009C5.76607 93.0615 6.44401 93.7782 7.30456 93.8018L19.6612 94.1419H19.7038C20.5484 94.1419 21.2392 93.4701 21.2621 92.6263L21.2978 91.329L24.508 89.6102C25.768 88.9322 27.241 88.7709 28.6175 89.1605L47.787 94.5406C47.8205 94.5505 47.8539 94.5581 47.8882 94.5657C49.2737 94.8556 50.6859 95.001 52.1011 95.0002C55.099 95.0017 58.0618 94.3557 60.7865 93.1049C60.8535 93.0744 60.9182 93.0387 60.9798 92.9983L88.7738 75.0204C89.4662 74.5722 89.6899 73.663 89.2844 72.9447C87.2209 69.2834 82.6442 67.8887 78.8893 69.7779V69.7779ZM8.94806 90.7294L9.6085 66.7283L18.8493 66.9825L18.1889 90.9843L8.94806 90.7294ZM59.3827 90.3216C55.9976 91.8494 52.2168 92.2709 48.5783 91.5276L29.4605 86.1611C27.3088 85.5532 25.0056 85.805 23.0372 86.8634L21.3967 87.7422L21.8358 71.7844C27.0341 68.3269 33.7009 67.9716 39.237 70.8561L40.3837 71.4503C42.3878 72.4851 44.5981 73.0558 46.8526 73.1212L58.122 73.4309C61.2872 73.5222 63.9754 75.7759 64.6175 78.8772L47.8319 78.4139C46.9713 78.3903 46.2553 79.069 46.231 79.9288C46.2074 80.7893 46.8861 81.5061 47.7459 81.5297L66.2702 82.0394H66.3135C67.1574 82.0387 67.8475 81.3668 67.8703 80.5238C67.8893 79.8466 67.8391 79.1687 67.7196 78.5021L80.2399 72.5863C80.252 72.581 80.2642 72.5749 80.2764 72.5688C82.0523 71.6702 84.1995 71.9708 85.6603 73.3228L59.3827 90.3216Z" fill="white"/>
<path d="M50.1693 16.3619V1.55827C50.1693 0.697723 49.4716 0 48.611 0C47.7505 0 47.0527 0.697723 47.0527 1.55827V16.3619C47.0527 17.2224 47.7505 17.9202 48.611 17.9202C49.4716 17.9202 50.1693 17.2224 50.1693 16.3619Z" fill="white"/>
<path d="M61.8563 16.3615V9.34929C61.8563 8.48874 61.1586 7.79102 60.298 7.79102C59.4375 7.79102 58.7397 8.48874 58.7397 9.34929V16.3615C58.7397 17.2221 59.4375 17.9198 60.298 17.9198C61.1586 17.9198 61.8563 17.2221 61.8563 16.3615Z" fill="white"/>
<path d="M38.4823 16.3615V9.34929C38.4823 8.48874 37.7845 7.79102 36.924 7.79102C36.0634 7.79102 35.3657 8.48874 35.3657 9.34929V16.3615C35.3657 17.2221 36.0634 17.9198 36.924 17.9198C37.7845 17.9198 38.4823 17.2221 38.4823 16.3615Z" fill="white"/>
</g>
<defs>
<clipPath id="clip0">
<rect width="95" height="95" fill="white"/>
</clipPath>
<clipPath id="clip1">
<rect width="28" height="29" fill="white" transform="translate(35.5508 28.4375)"/>
</clipPath>
</defs>
</svg>
