<svg width="12" height="21" viewBox="0 0 12 21" fill="none" xmlns="http://www.w3.org/2000/svg">
<path d="M7.88075 15.321C8.9433 15.0794 9.95834 14.6594 10.8809 14.0793C11.5759 13.6143 11.7626 12.6743 11.2976 11.9792C10.8509 11.3109 9.96084 11.1092 9.26831 11.5184C7.14322 12.8476 4.44311 12.8476 2.31802 11.5184C1.61216 11.0734 0.680455 11.285 0.234603 11.9892C0.234603 11.9909 0.234603 11.9926 0.232936 11.9934C-0.212082 12.6993 -0.000406868 13.6318 0.705456 14.0768L0.707123 14.0785C1.62799 14.6577 2.6422 15.0785 3.70391 15.3185L0.816294 18.2062C0.227103 18.7854 0.216269 19.7312 0.79296 20.3204L0.817961 20.3454C1.10464 20.6404 1.49299 20.7871 1.87967 20.7871C2.26719 20.7871 2.6547 20.6404 2.94222 20.3454L5.79317 17.5086L8.62995 20.3471C9.22998 20.9263 10.1883 20.9104 10.7684 20.3096C11.3334 19.7237 11.3334 18.7945 10.7684 18.2095L7.88075 15.321ZM5.79317 11.1109C8.64329 11.1075 10.9517 8.79911 10.9559 5.94982C10.9559 3.10387 8.63912 0.787109 5.79317 0.787109C2.94722 0.787109 0.630453 3.10387 0.630453 5.95149C0.634619 8.80161 2.94388 11.11 5.79317 11.1117V11.1109ZM5.79317 3.81307C6.97322 3.81474 7.92909 4.77144 7.92992 5.95066C7.92992 7.13071 6.97322 8.08658 5.79317 8.08825C4.61395 8.08658 3.65808 7.13154 3.65558 5.95149C3.65725 4.77061 4.61395 3.81474 5.79317 3.81224V3.81307Z" fill="#424A4E"/>
<path d="M7.88075 15.321C8.9433 15.0794 9.95834 14.6594 10.8809 14.0793C11.5759 13.6143 11.7626 12.6743 11.2976 11.9792C10.8509 11.3109 9.96084 11.1092 9.26831 11.5184C7.14322 12.8476 4.44311 12.8476 2.31802 11.5184C1.61216 11.0734 0.680455 11.285 0.234603 11.9892C0.234603 11.9909 0.234603 11.9926 0.232936 11.9934C-0.212082 12.6993 -0.000406868 13.6318 0.705456 14.0768L0.707123 14.0785C1.62799 14.6577 2.6422 15.0785 3.70391 15.3185L0.816294 18.2062C0.227103 18.7854 0.216269 19.7312 0.79296 20.3204L0.817961 20.3454C1.10464 20.6404 1.49299 20.7871 1.87967 20.7871C2.26719 20.7871 2.6547 20.6404 2.94222 20.3454L5.79317 17.5086L8.62995 20.3471C9.22998 20.9263 10.1883 20.9104 10.7684 20.3096C11.3334 19.7237 11.3334 18.7945 10.7684 18.2095L7.88075 15.321ZM5.79317 11.1109C8.64329 11.1075 10.9517 8.79911 10.9559 5.94982C10.9559 3.10387 8.63912 0.787109 5.79317 0.787109C2.94722 0.787109 0.630453 3.10387 0.630453 5.95149C0.634619 8.80161 2.94388 11.11 5.79317 11.1117V11.1109ZM5.79317 3.81307C6.97322 3.81474 7.92909 4.77144 7.92992 5.95066C7.92992 7.13071 6.97322 8.08658 5.79317 8.08825C4.61395 8.08658 3.65808 7.13154 3.65558 5.95149C3.65725 4.77061 4.61395 3.81474 5.79317 3.81224V3.81307Z" fill="url(#paint0_linear)"/>
<defs>
<linearGradient id="paint0_linear" x1="0" y1="10.7871" x2="11.5534" y2="10.7871" gradientUnits="userSpaceOnUse">
<stop stop-color="#6288E4"/>
<stop offset="1" stop-color="#AB86E4"/>
</linearGradient>
</defs>
</svg>
