<svg width="21" height="21" viewBox="0 0 21 21" fill="none" xmlns="http://www.w3.org/2000/svg">
<path d="M20.5262 16.2198L17.4375 13.1307C16.8223 12.518 15.8035 12.5366 15.1669 13.1735L13.6108 14.7292C13.5125 14.6751 13.4107 14.6185 13.3037 14.5584C12.3211 14.0139 10.9762 13.2677 9.56089 11.8514C8.14144 10.4321 7.39447 9.08509 6.84833 8.1018C6.7907 7.99763 6.73548 7.8972 6.68095 7.80181L7.72532 6.759L8.23877 6.24492C8.87639 5.60713 8.89397 4.58862 8.2802 3.9741L5.19151 0.884724C4.57774 0.271066 3.55848 0.289683 2.92087 0.927473L2.05037 1.80297L2.07416 1.82658C1.78227 2.19903 1.53836 2.62859 1.35684 3.09182C1.18952 3.53276 1.08535 3.95353 1.03772 4.37516C0.629878 7.75625 2.17494 10.8463 6.36803 15.0395C12.1642 20.8352 16.8351 20.3974 17.0366 20.376C17.4755 20.3235 17.8961 20.2187 18.3235 20.0527C18.7827 19.8733 19.212 19.6297 19.5842 19.3385L19.6032 19.3553L20.4851 18.4918C21.1214 17.8541 21.1397 16.8353 20.5262 16.2198Z" fill="url(#paint0_linear)"/>
<defs>
<linearGradient id="paint0_linear" x1="0.974609" y1="10.4139" x2="20.9746" y2="10.4139" gradientUnits="userSpaceOnUse">
<stop stop-color="#6288E4"/>
<stop offset="1" stop-color="#AB86E4"/>
</linearGradient>
</defs>
</svg>
