<svg width="19" height="20" viewBox="0 0 19 20" fill="none" xmlns="http://www.w3.org/2000/svg">
<path d="M18.3695 17.8004L13.998 13.4289C15.0816 12.1078 15.7347 10.4156 15.7347 8.57129C15.7347 4.34082 12.3021 0.908203 8.07166 0.908203C3.83748 0.908203 0.408569 4.34082 0.408569 8.57129C0.408569 12.8018 3.83748 16.2344 8.07166 16.2344C9.91599 16.2344 11.6045 15.585 12.9256 14.5014L17.297 18.8691C17.5939 19.166 18.0726 19.166 18.3695 18.8691C18.6664 18.576 18.6664 18.0936 18.3695 17.8004ZM8.07166 14.7092C4.68357 14.7092 1.93005 11.9557 1.93005 8.57129C1.93005 5.18691 4.68357 2.42969 8.07166 2.42969C11.456 2.42969 14.2133 5.18691 14.2133 8.57129C14.2133 11.9557 11.456 14.7092 8.07166 14.7092Z" fill="#D1CDCD"/>
</svg>
