<svg width="95" height="95" viewBox="0 0 95 95" fill="none" xmlns="http://www.w3.org/2000/svg">
<g clip-path="url(#clip0)">
<path d="M77.0961 82.7416L73.5489 72.0986C72.3093 68.3828 69.1467 65.6401 65.2916 64.9383L55.0515 63.0751V62.2814C56.8335 61.2471 58.3842 59.8635 59.6192 58.2255H62.7128C65.2471 58.2255 67.3096 56.1631 67.3096 53.6287V35.2416C67.3096 24.2584 58.3734 15.3223 47.3902 15.3223C36.407 15.3223 27.4708 24.2584 27.4708 35.2416V45.9674C27.4708 48.9216 29.5716 51.3932 32.3572 51.9693C33.2168 56.373 35.9687 60.0994 39.7289 62.2814V63.0751L29.4873 64.9383C25.6337 65.6401 22.4696 68.3828 21.2315 72.0986L20.6186 73.9388L15.3997 68.7199C14.8021 68.1223 14.8021 67.1494 15.3997 66.5518L21.4521 60.5009L10.092 49.1407L3.25197 55.9807C1.22632 58.0064 0.11084 60.7001 0.11084 63.5654C0.11084 66.4307 1.22632 69.1229 3.25197 71.1486L23.9604 91.857C25.9861 93.8827 28.6798 94.9997 31.5451 94.9997C34.4104 94.9997 37.1026 93.8827 39.0808 91.903L46.5444 85.0645L44.2169 82.7416H77.0961ZM64.245 53.6287C64.245 54.4745 63.5571 55.161 62.7128 55.161H61.4242C61.8685 54.1482 62.2056 53.0802 62.4232 51.9693C63.079 51.8329 63.6827 51.5724 64.245 51.2445V53.6287ZM62.7128 48.606V43.3289C63.6245 43.8606 64.245 44.8382 64.245 45.9674C64.245 47.0967 63.6245 48.0743 62.7128 48.606ZM32.0676 48.606C31.1559 48.0743 30.5354 47.0967 30.5354 45.9674C30.5354 44.8382 31.1559 43.8606 32.0676 43.3289V48.606ZM32.0676 38.3061V40.056C31.5221 40.1985 31.0104 40.413 30.5354 40.6903V35.2416C30.5354 25.9485 38.0971 18.3868 47.3902 18.3868C56.6833 18.3868 64.245 25.9485 64.245 35.2416V40.6903C63.77 40.413 63.2583 40.1969 62.7128 40.056V38.3061H61.1805C56.6496 38.3061 52.39 36.541 49.1845 33.337L47.3902 31.5428L45.5959 33.337C42.3904 36.541 38.1308 38.3061 33.5999 38.3061H32.0676ZM35.1321 49.0319V41.3124C39.7335 40.9661 44.0238 39.0677 47.3902 35.8668C50.7566 39.0677 55.0469 40.9677 59.6483 41.3124V49.0319C59.6483 51.266 59.0384 53.356 57.9904 55.161H47.3902V58.2255H55.4713C53.3108 60.127 50.4869 61.29 47.3902 61.29C40.6314 61.29 35.1321 55.7907 35.1321 49.0319ZM51.987 63.6482V63.7202L47.3902 68.3169L42.7934 63.7202V63.6482C44.246 64.1048 45.789 64.3545 47.3902 64.3545C48.9914 64.3545 50.5344 64.1048 51.987 63.6482ZM24.1366 73.0669C25.0208 70.4131 27.2808 68.4533 30.0343 67.9507L40.7448 66.0048L47.3902 72.6502L54.0341 66.0063L64.743 67.9523C67.4965 68.4548 69.7566 70.4131 70.6407 73.0685L72.8456 79.6771H41.1524L35.1842 73.709L28.5526 79.7078C27.975 80.2885 26.9652 80.2885 26.386 79.7078L23.0396 76.3613L24.1366 73.0669ZM10.0904 53.474L17.1174 60.5009L15.4533 62.1649L8.4264 55.138L10.0904 53.474ZM36.9586 89.6935C35.5121 91.1369 33.5876 91.9352 31.5421 91.9352C29.4965 91.9352 27.572 91.1369 26.124 89.6904L5.41552 68.9835C3.96907 67.537 3.17229 65.6125 3.17229 63.5669C3.17229 61.5198 3.96907 59.5953 5.41552 58.1489L6.25826 57.3061L13.2852 64.3331L13.23 64.3882C11.4388 66.181 11.4388 69.0969 13.23 70.8896L24.2179 81.8774C25.0866 82.7447 26.2404 83.2243 27.4693 83.2243C28.6982 83.2243 29.852 82.7462 30.6641 81.9311L30.779 81.8284L37.8381 88.8875L36.9586 89.6935ZM40.0997 86.8128L33.0559 79.769L35.08 77.9395L42.1116 84.9711L40.0997 86.8128Z" fill="white"/>
<path d="M90.2935 0H68.8419C66.3075 0 64.2451 2.06242 64.2451 4.59677V16.8548C64.2451 19.3892 66.3075 21.4516 68.8419 21.4516H72.9346L71.3502 30.6927L86.1365 21.4516H90.2935C92.8279 21.4516 94.8903 19.3892 94.8903 16.8548V4.59677C94.8903 2.06242 92.8279 0 90.2935 0ZM91.8258 16.8548C91.8258 17.6991 91.1378 18.3871 90.2935 18.3871H85.257L75.5256 24.4686L76.5691 18.3871H68.8419C67.9976 18.3871 67.3096 17.6991 67.3096 16.8548V4.59677C67.3096 3.7525 67.9976 3.06452 68.8419 3.06452H90.2935C91.1378 3.06452 91.8258 3.7525 91.8258 4.59677V16.8548Z" fill="white"/>
<path d="M88.7611 6.12891H70.374V9.19342H88.7611V6.12891Z" fill="white"/>
<path d="M82.6321 12.2578H70.374V15.3223H82.6321V12.2578Z" fill="white"/>
<path d="M88.7613 12.2578H85.6968V15.3223H88.7613V12.2578Z" fill="white"/>
<path d="M47.3907 4.59668C27.3703 4.59668 10.1247 18.4452 5.64131 37.7624L2.73769 32.922L0.109863 34.4987L5.49575 43.4731L14.4702 38.0872L12.8935 35.4594L8.74107 37.9509C13.0835 20.2793 28.9745 7.6612 47.3907 7.6612C51.416 7.6612 55.3876 8.25878 59.1953 9.43861L60.1024 6.512C56.0005 5.24023 51.724 4.59668 47.3907 4.59668Z" fill="white"/>
<path d="M94.1454 33.9279L85.171 28.542L79.7866 37.518L82.4145 39.0946L85.0959 34.6251C86.5071 38.7545 87.2288 43.0739 87.2288 47.5006C87.2288 56.613 84.0724 65.5215 78.3433 72.5837L80.7229 74.5143C86.8948 66.9082 90.2933 57.3132 90.2933 47.5006C90.2933 42.8134 89.5379 38.2366 88.0654 33.8543L92.5687 36.5557L94.1454 33.9279Z" fill="white"/>
</g>
<defs>
<clipPath id="clip0">
<rect width="95" height="95" fill="white"/>
</clipPath>
</defs>
</svg>
