<svg width="32" height="33" viewBox="0 0 32 33" fill="none" xmlns="http://www.w3.org/2000/svg">
<g clip-path="url(#clip0)">
<path d="M29.2473 28.9931L25.0108 18.7655C24.9029 18.505 24.6042 18.3812 24.3437 18.4892C24.0831 18.5971 23.9593 18.8958 24.0673 19.1563L27.8972 28.4023L24.4038 27.3901C24.1745 27.3236 23.9296 27.4251 23.8145 27.6343L22.06 30.8202L17.9506 20.8991C22.6936 19.9844 26.2874 15.8027 26.2874 10.7968C26.2874 5.12344 21.6719 0.507812 15.9986 0.507812C10.3252 0.507812 5.7096 5.12344 5.7096 10.7968C5.7096 13.0947 6.46698 15.219 7.74507 16.9335L2.74981 28.9931C2.67471 29.1745 2.71018 29.3828 2.84111 29.5291C2.97197 29.6753 3.1752 29.7336 3.36373 29.679L7.48512 28.4847L9.55491 32.2435C9.64506 32.4071 9.81683 32.5078 10.0021 32.5078C10.0115 32.5078 10.021 32.5075 10.0304 32.5071C10.2264 32.4962 10.3988 32.374 10.474 32.1926L14.4322 22.6366C14.5401 22.3761 14.4164 22.0774 14.1558 21.9695C13.8953 21.8615 13.5966 21.9853 13.4887 22.2458L9.937 30.8202L8.18266 27.6343C8.06746 27.4251 7.82242 27.3236 7.59324 27.3901L4.09993 28.4023L8.48441 17.8172C10.3634 19.8271 13.0366 21.0856 15.9986 21.0856C16.3043 21.0856 16.6068 21.0714 16.9058 21.0452L21.5232 32.1926C21.5983 32.374 21.7707 32.4962 21.9667 32.507C21.9762 32.5075 21.9856 32.5078 21.9951 32.5078C22.1803 32.5078 22.3521 32.4071 22.4422 32.2435L24.5121 28.4847L28.6334 29.679C28.8221 29.7337 29.0251 29.6753 29.1561 29.5291C29.287 29.3828 29.3224 29.1745 29.2473 28.9931ZM6.73088 10.7968C6.73088 5.68657 10.8884 1.52909 15.9986 1.52909C21.1087 1.52909 25.2662 5.68657 25.2662 10.7968C25.2662 15.907 21.1087 20.0644 15.9986 20.0644C10.8884 20.0644 6.73088 15.907 6.73088 10.7968Z" fill="white"/>
<path d="M21.8976 8.87948C21.8389 8.69851 21.6842 8.5652 21.4965 8.53368L18.0604 7.95706L16.4503 4.86743C16.3623 4.69865 16.1878 4.59277 15.9975 4.59277C15.8072 4.59277 15.6326 4.69865 15.5446 4.86743L13.9344 7.95706L10.4984 8.53368C10.3107 8.56513 10.1561 8.69844 10.0973 8.87948C10.0385 9.06052 10.0852 9.25919 10.2185 9.39502L12.6594 11.8811L12.146 15.3272C12.118 15.5155 12.197 15.7037 12.351 15.8156C12.5048 15.9274 12.7083 15.9443 12.8787 15.8596L15.9975 14.3064L19.1162 15.8596C19.1883 15.8954 19.2662 15.9131 19.3438 15.9131C19.4498 15.9131 19.5551 15.8802 19.644 15.8157C19.798 15.7037 19.8769 15.5155 19.8489 15.3273L19.3356 11.8812L21.7764 9.39502C21.9098 9.25919 21.9565 9.06052 21.8976 8.87948ZM18.4286 11.3472C18.3164 11.4615 18.2643 11.6217 18.288 11.7801L18.6944 14.5086L16.2251 13.2789C16.1534 13.2432 16.0755 13.2253 15.9975 13.2253C15.9195 13.2253 15.8415 13.2431 15.7699 13.2789L13.3005 14.5086L13.707 11.7801C13.7306 11.6217 13.6786 11.4614 13.5663 11.3472L11.6338 9.37868L14.3542 8.9221C14.5122 8.89562 14.6486 8.79655 14.7226 8.65453L15.9975 6.2083L17.2724 8.65459C17.3464 8.79662 17.4827 8.89568 17.6407 8.92217L20.3612 9.37875L18.4286 11.3472Z" fill="white"/>
<path d="M23.7356 11.3122C23.456 11.2749 23.1993 11.4718 23.1623 11.7514C22.6886 15.3263 19.6096 18.0223 16.0003 18.0223C12.0164 18.0223 8.77518 14.7812 8.77518 10.7972C8.77518 6.81318 12.0164 3.57206 16.0003 3.57206C19.6097 3.57206 22.6886 6.26796 23.1623 9.84297C23.1993 10.1226 23.4564 10.3196 23.7356 10.2821C24.0151 10.2451 24.2118 9.9884 24.1747 9.70884C23.6341 5.62809 20.1199 2.55078 16.0003 2.55078C11.4532 2.55078 7.75391 6.25005 7.75391 10.7972C7.75391 15.3443 11.4532 19.0435 16.0003 19.0435C20.1199 19.0435 23.6341 15.9662 24.1747 11.8855C24.2118 11.606 24.0151 11.3493 23.7356 11.3122Z" fill="white"/>
</g>
<defs>
<clipPath id="clip0">
<rect y="0.507812" width="32" height="32" fill="white"/>
</clipPath>
</defs>
</svg>
