<svg width="30" height="31" viewBox="0 0 30 31" fill="none" xmlns="http://www.w3.org/2000/svg">
<g clip-path="url(#clip0)">
<path d="M10.1113 23.4699C10.1037 23.4324 10.0926 23.3955 10.0779 23.3598C10.0633 23.3246 10.0451 23.2906 10.024 23.259C10.0029 23.2268 9.97832 23.1969 9.95137 23.1699C9.92441 23.143 9.89453 23.1184 9.8623 23.0973C9.83066 23.0762 9.79668 23.058 9.76094 23.0434C9.72578 23.0287 9.68887 23.017 9.65137 23.01C9.57578 22.9947 9.49785 22.9947 9.42285 23.01C9.38535 23.017 9.34844 23.0287 9.3127 23.0434C9.27754 23.058 9.24355 23.0762 9.21191 23.0973C9.17969 23.1184 9.1498 23.143 9.12285 23.1699C9.0959 23.1969 9.07129 23.2268 9.0502 23.259C9.02852 23.2906 9.01094 23.3246 8.99629 23.3598C8.98164 23.3955 8.96992 23.4324 8.96289 23.4699C8.95527 23.5074 8.95117 23.5461 8.95117 23.5842C8.95117 23.6223 8.95527 23.6609 8.96289 23.6984C8.96992 23.7359 8.98164 23.7728 8.99629 23.808C9.01094 23.8437 9.02852 23.8777 9.0502 23.9094C9.07129 23.9416 9.0959 23.9715 9.12285 23.9984C9.1498 24.0254 9.17969 24.05 9.21191 24.0711C9.24355 24.0922 9.27754 24.1104 9.3127 24.1251C9.34844 24.1397 9.38535 24.1514 9.42285 24.1585C9.46035 24.1661 9.49902 24.1702 9.53711 24.1702C9.5752 24.1702 9.61387 24.1661 9.65137 24.1585C9.68887 24.1514 9.72578 24.1397 9.76094 24.1251C9.79668 24.1104 9.83066 24.0922 9.8623 24.0711C9.89453 24.05 9.92441 24.0254 9.95137 23.9984C9.97832 23.9715 10.0029 23.9416 10.024 23.9094C10.0451 23.8777 10.0633 23.8437 10.0779 23.808C10.0926 23.7728 10.1037 23.7359 10.1113 23.6984C10.1189 23.6609 10.123 23.6223 10.123 23.5842C10.123 23.5461 10.1189 23.5074 10.1113 23.4699Z" fill="white"/>
<path d="M26.9527 23.651C26.9504 23.6451 26.9481 23.6393 26.9456 23.6336C26.4063 22.3716 25.1415 21.9052 23.6447 22.4165L19.5626 23.5453C19.3266 22.8306 18.7379 22.2224 17.9055 21.9135C17.9003 21.9116 17.8952 21.9097 17.89 21.908L13.4028 20.385C13.0293 19.9023 11.8594 18.667 9.66902 18.667C8.13826 18.667 6.7841 19.7171 6.00937 20.8617H0.585938C0.262324 20.8617 0 21.1241 0 21.4477V28.835C0 29.1586 0.262324 29.4209 0.585938 29.4209H4.06975C4.39336 29.4209 4.65568 29.1586 4.65568 28.835V28.3291H6.28945C6.61307 28.3291 6.87539 28.0668 6.87539 27.7432V27.5745C7.82777 27.6576 8.14102 27.8383 9.0157 28.3426C9.68836 28.7305 10.705 29.3168 12.5358 30.1399C12.5443 30.1437 12.5529 30.1474 12.5616 30.1508C12.9129 30.289 13.5998 30.5062 14.4467 30.5062C15.0362 30.5062 15.7032 30.4009 16.388 30.0905L25.4109 26.8599C25.4269 26.8541 25.4428 26.8477 25.4582 26.8405C26.3205 26.4438 27.6056 25.3256 26.9527 23.651ZM3.48381 28.249H1.17188V22.0336H3.48381V28.249ZM5.70352 27.1572H4.65568V22.0336H5.70352V27.1572ZM24.99 25.7657L15.9711 28.9949C15.9632 28.9977 15.9525 29.0019 15.9447 29.0051C15.9368 29.0083 15.9289 29.0117 15.9211 29.0153C14.665 29.5926 13.4711 29.247 13.0031 29.065C11.2346 28.2693 10.2908 27.725 9.60111 27.3273C8.64228 26.7744 8.18027 26.5079 6.87539 26.4002V21.6809C7.4308 20.7706 8.50787 19.8388 9.66908 19.8388C11.6604 19.8388 12.5043 21.134 12.5374 21.1863C12.609 21.3027 12.7189 21.3904 12.8483 21.4343L17.505 23.0148C18.2487 23.2939 18.6418 23.9308 18.4611 24.566C18.3778 24.8593 18.1851 25.1026 17.9187 25.251C17.6546 25.3981 17.3494 25.4345 17.0584 25.354L11.8088 23.6904C11.5001 23.5926 11.171 23.7635 11.0732 24.072C10.9754 24.3805 11.1463 24.7098 11.4548 24.8076L16.7135 26.474C16.7191 26.4758 16.7246 26.4775 16.7303 26.4791C16.9402 26.5388 17.154 26.5683 17.3664 26.5683C17.7554 26.5683 18.14 26.4692 18.4891 26.2747C19.029 25.9739 19.4193 25.4809 19.5883 24.8865C19.6018 24.839 19.6137 24.7916 19.6241 24.7441L24.0235 23.5254C24.6589 23.3083 25.493 23.2301 25.8643 24.0854C26.2487 25.0895 25.2497 25.6419 24.99 25.7657Z" fill="white"/>
<path d="M21.0377 8.21504C21.0301 8.17754 21.0189 8.14062 21.0037 8.10488C20.9891 8.06973 20.9715 8.03574 20.9498 8.0041C20.9287 7.97187 20.9041 7.94199 20.8771 7.91504C20.8502 7.88809 20.8203 7.86348 20.7881 7.84238C20.7564 7.82129 20.7225 7.80312 20.6873 7.78848C20.6516 7.77383 20.6146 7.76211 20.5777 7.75508C20.5021 7.73984 20.4242 7.73984 20.3486 7.75508C20.3111 7.76211 20.2742 7.77383 20.2391 7.78848C20.2033 7.80312 20.1693 7.82129 20.1377 7.84238C20.1055 7.86348 20.0756 7.88809 20.0486 7.91504C20.0217 7.94199 19.9971 7.97187 19.976 8.0041C19.9549 8.03574 19.9367 8.06973 19.9221 8.10488C19.9074 8.14062 19.8957 8.17754 19.8887 8.21504C19.8811 8.25254 19.877 8.29121 19.877 8.3293C19.877 8.36738 19.8811 8.40605 19.8887 8.44355C19.8957 8.48105 19.9074 8.51797 19.9221 8.55312C19.9367 8.58887 19.9549 8.62285 19.976 8.65449C19.9971 8.68672 20.0217 8.7166 20.0486 8.74355C20.0756 8.77051 20.1055 8.79512 20.1377 8.81621C20.1693 8.8373 20.2033 8.85547 20.2391 8.87012C20.2742 8.88477 20.3111 8.8959 20.3486 8.90352C20.3861 8.91113 20.4248 8.91523 20.4629 8.91523C20.501 8.91523 20.5396 8.91113 20.5777 8.90352C20.6146 8.8959 20.6516 8.88477 20.6873 8.87012C20.7225 8.85547 20.7564 8.8373 20.7881 8.81621C20.8203 8.79512 20.8502 8.77051 20.8771 8.74355C20.9041 8.7166 20.9287 8.68672 20.9498 8.65449C20.9715 8.62285 20.9891 8.58887 21.0037 8.55312C21.0189 8.51797 21.0301 8.48105 21.0377 8.44355C21.0453 8.40605 21.0488 8.36738 21.0488 8.3293C21.0488 8.29121 21.0453 8.25254 21.0377 8.21504Z" fill="white"/>
<path d="M29.4146 2.49274H25.9308C25.6072 2.49274 25.3449 2.75506 25.3449 3.07868V3.58458H23.7111C23.3875 3.58458 23.1252 3.8469 23.1252 4.17051V4.33915C22.1728 4.256 21.8595 4.07541 20.9849 3.57104C20.3122 3.18315 19.2956 2.59692 17.4647 1.77374C17.4562 1.76987 17.4477 1.76629 17.4389 1.7629C16.843 1.5284 15.281 1.06704 13.6128 1.82307L11.255 2.66729L9.26755 0.679907C9.03875 0.451099 8.66773 0.451099 8.43892 0.679907L1.91404 7.20473C1.70298 7.41584 1.6625 7.78188 1.91404 8.03342L13.0637 19.1831C13.2421 19.3615 13.6599 19.4155 13.8924 19.1831L19.8493 13.2262C20.0042 13.2395 20.1649 13.2467 20.3315 13.2467C21.8623 13.2467 23.2164 12.1966 23.9911 11.0521H29.4146C29.7382 11.0521 30.0005 10.7897 30.0005 10.4661V3.07868C30.0005 2.75506 29.7382 2.49274 29.4146 2.49274ZM8.85318 1.92286L10.1886 3.25833C9.79168 3.50383 9.33271 3.6352 8.85318 3.6352C8.37359 3.6352 7.91468 3.50389 7.51771 3.25833L8.85318 1.92286ZM4.49252 8.95458L3.15705 7.61905L4.49252 6.28358C4.73802 6.68055 4.86939 7.13952 4.86939 7.61905C4.86939 8.09858 4.73808 8.55754 4.49252 8.95458ZM13.478 17.94L12.1428 16.6048C12.958 16.1017 13.9979 16.1017 14.8132 16.6048L13.478 17.94ZM15.6574 15.7607C14.3626 14.8214 12.5935 14.8214 11.2986 15.7607L5.33668 9.79868C5.79423 9.16938 6.04127 8.41346 6.04127 7.61905C6.04127 6.82458 5.79429 6.06872 5.33668 5.43942L6.67361 4.10254C7.30291 4.5601 8.05877 4.80713 8.85324 4.80713C9.64771 4.80713 10.4036 4.5601 11.0329 4.10254L12.3002 5.36987C12.0267 5.41024 11.7601 5.50036 11.5114 5.63893C11.0914 5.87295 10.7619 6.2234 10.5567 6.64739C9.89574 6.76979 9.28384 7.08977 8.80384 7.56971C7.5016 8.87202 7.5016 10.9909 8.8039 12.2932C9.455 12.9443 10.3103 13.2699 11.1656 13.2699C12.0209 13.2699 12.8763 12.9444 13.5274 12.2932C13.9511 11.8696 14.2478 11.3489 14.3965 10.7815L16.3749 11.453C16.1521 12.4847 16.3802 13.5701 16.9955 14.4226L15.6574 15.7607ZM12.0951 10.0002C12.1002 10.0021 12.1054 10.0039 12.1106 10.0057L13.2822 10.4034C13.1937 10.8027 12.9935 11.1698 12.6988 11.4646C11.8534 12.3099 10.4779 12.31 9.63259 11.4646C8.7872 10.6193 8.7872 9.24379 9.63259 8.3984C9.8365 8.19438 10.0771 8.03495 10.3394 7.92684C10.4475 8.82696 11.0956 9.62928 12.0951 10.0002ZM17.8398 13.5783C17.6136 13.2097 17.4857 12.7891 17.4655 12.3598C17.7461 12.5627 18.0891 12.7615 18.4988 12.9193L17.8398 13.5783ZM23.1251 10.2325C22.5697 11.1429 21.4927 12.0748 20.3315 12.0748C20.1142 12.0748 19.9106 12.0593 19.7202 12.0317C19.7194 12.0316 19.7187 12.0315 19.7179 12.0314C18.4525 11.8476 17.7719 11.1284 17.5475 10.8436C17.5355 10.8261 17.4846 10.7594 17.4771 10.7484C17.4088 10.6264 17.2969 10.5283 17.1542 10.4798L12.4955 8.89868C11.752 8.61965 11.3591 7.98303 11.5392 7.34811C11.5393 7.3477 11.5394 7.34729 11.5395 7.34688C11.5397 7.34641 11.5398 7.34588 11.5399 7.34542C11.6237 7.05303 11.816 6.81051 12.0818 6.66245C12.3458 6.51532 12.651 6.47881 12.9421 6.5595L18.1917 8.22303C18.5002 8.32094 18.8295 8.14997 18.9273 7.84147C19.025 7.53297 18.8542 7.20368 18.5457 7.10588L14.3706 5.78284L14.3342 5.74639C14.3338 5.74604 14.3335 5.74563 14.333 5.74528L12.1715 3.58376L14.0294 2.91848C14.0357 2.9162 14.0434 2.91333 14.0496 2.91081C14.0512 2.91016 14.0543 2.90899 14.0558 2.90834C14.0637 2.90512 14.0716 2.90172 14.0794 2.89815C15.3354 2.32088 16.5293 2.66641 16.9973 2.8484C18.7658 3.64417 19.7098 4.18844 20.3994 4.58612C21.3583 5.13907 21.8203 5.40549 23.1251 5.51325V10.2325ZM25.3449 9.88006H24.297V4.75645H25.3449V9.88006ZM28.8287 9.88006H26.5167V3.66461H28.8287V9.88006Z" fill="white"/>
</g>
<defs>
<clipPath id="clip0">
<rect y="0.507812" width="30" height="30" fill="white"/>
</clipPath>
</defs>
</svg>
