<svg width="30" height="31" viewBox="0 0 30 31" fill="none" xmlns="http://www.w3.org/2000/svg">
<g clip-path="url(#clip0)">
<path d="M27.0056 14.6772C27.0056 13.1699 25.8691 11.9239 24.4082 11.7489V4.18382C24.4082 3.72064 24.1078 3.32841 23.6605 3.20789C23.2134 3.08748 22.7565 3.27544 22.5238 3.67582C20.9258 6.42515 18.4088 8.30437 15.0428 9.26138C12.4976 9.98502 10.3972 9.88013 10.377 9.8789C10.3461 9.87714 10.3155 9.87861 10.2851 9.88166H4.90324C2.19961 9.88166 0 12.0813 0 14.7849C0 17.3314 1.95158 19.43 4.43754 19.6654L6.06082 26.3405C6.27574 27.2244 7.06113 27.8416 7.97074 27.8416H9.09738C9.70435 27.8416 10.2676 27.5679 10.6427 27.0907C11.0179 26.6135 11.1507 26.0014 11.0073 25.4116L9.61541 19.6881H10.2841C10.3146 19.6912 10.3454 19.6927 10.3764 19.6909C10.3973 19.6897 12.4976 19.5847 15.0428 20.3084C18.4087 21.2654 20.9257 23.1446 22.5238 25.8939C22.7096 26.2137 23.0382 26.3979 23.3907 26.3979C23.4798 26.3979 23.5703 26.3862 23.6605 26.3619C24.1078 26.2414 24.4082 25.8492 24.4082 25.386V17.8209C25.8691 17.6459 27.0056 16.3999 27.0056 14.8926V14.6772ZM9.68344 24.9273L9.86854 25.6886C9.92648 25.9267 9.87287 26.1739 9.72135 26.3666C9.56994 26.5593 9.34248 26.6698 9.09738 26.6698H7.97074C7.60342 26.6698 7.28631 26.4206 7.19953 26.0637L5.64908 19.6881H8.40938L8.82322 21.39H8.54314C8.21953 21.39 7.95721 21.6523 7.95721 21.9759C7.95721 22.2995 8.21953 22.5619 8.54314 22.5619H9.10816L9.39844 23.7554H9.2148C8.89119 23.7554 8.62887 24.0178 8.62887 24.3414C8.62887 24.665 8.89119 24.9273 9.2148 24.9273H9.68344ZM9.75779 16.0298H6.11643C5.79281 16.0298 5.53049 16.2921 5.53049 16.6157C5.53049 16.9393 5.79281 17.2017 6.11643 17.2017H9.75779V18.5163H8.9018C8.89107 18.5157 8.88041 18.5149 8.86951 18.5149H4.90324C4.89768 18.5149 4.89217 18.5157 4.8866 18.5159C2.83682 18.5068 1.17187 16.8368 1.17187 14.7849C1.17187 12.7274 2.84578 11.0535 4.90324 11.0535H9.75779V16.0298ZM23.2362 12.313V17.2568V24.8136C21.4803 22.0828 18.7566 20.137 15.3237 19.1701C13.423 18.6346 11.7813 18.5277 10.9297 18.5138V16.6157V11.056C11.7814 11.0421 13.4232 10.9351 15.3237 10.3997C18.7565 9.43271 21.4803 7.48705 23.2362 4.75623V12.313ZM25.8336 14.8926C25.8336 15.7524 25.2203 16.4716 24.4081 16.6357V12.9341C25.2203 13.0982 25.8336 13.8174 25.8336 14.6772V14.8926Z" fill="white"/>
<path d="M27.1798 11.3653C27.3206 11.3653 27.4619 11.3148 27.5742 11.2126L29.2642 9.67344C29.5034 9.45553 29.5208 9.08498 29.3029 8.84568C29.085 8.60645 28.7144 8.58916 28.4751 8.80701L26.7852 10.3461C26.5459 10.564 26.5286 10.9346 26.7465 11.1738C26.8622 11.3008 27.0207 11.3653 27.1798 11.3653Z" fill="white"/>
<path d="M27.5742 18.3573C27.3349 18.1395 26.9644 18.1567 26.7465 18.396C26.5286 18.6352 26.5459 19.0058 26.7852 19.2237L28.4751 20.7628C28.5875 20.8651 28.7287 20.9156 28.8695 20.9156C29.0287 20.9156 29.1873 20.8511 29.3029 20.7241C29.5208 20.4849 29.5034 20.1143 29.2642 19.8964L27.5742 18.3573Z" fill="white"/>
<path d="M29.4149 14.1997H28.1172C27.7936 14.1997 27.5312 14.462 27.5312 14.7856C27.5312 15.1093 27.7936 15.3716 28.1172 15.3716H29.4149C29.7385 15.3716 30.0008 15.1093 30.0008 14.7856C30.0008 14.462 29.7385 14.1997 29.4149 14.1997Z" fill="white"/>
<path d="M4.24258 16.3906C4.22793 16.3549 4.20977 16.3209 4.18867 16.2893C4.16699 16.257 4.14297 16.2271 4.11602 16.2002C4.08848 16.1732 4.05859 16.1486 4.02637 16.1275C3.99473 16.1064 3.96074 16.0883 3.92559 16.0736C3.88984 16.059 3.85293 16.0479 3.81602 16.0402C3.74043 16.025 3.6625 16.025 3.58691 16.0402C3.54941 16.0479 3.5125 16.059 3.47734 16.0736C3.44219 16.0883 3.40762 16.1064 3.37598 16.1275C3.34375 16.1486 3.31387 16.1732 3.28691 16.2002C3.25996 16.2271 3.23535 16.257 3.21426 16.2893C3.19316 16.3209 3.175 16.3549 3.16035 16.3906C3.1457 16.4258 3.13457 16.4627 3.12695 16.5002C3.11934 16.5377 3.11523 16.5764 3.11523 16.6145C3.11523 16.6525 3.11934 16.6912 3.12695 16.7293C3.13457 16.7662 3.1457 16.8031 3.16035 16.8389C3.175 16.874 3.19316 16.908 3.21426 16.9396C3.23535 16.9719 3.25996 17.0018 3.28691 17.0287C3.31387 17.0557 3.34375 17.0803 3.37598 17.102C3.40762 17.123 3.44219 17.1412 3.47734 17.1559C3.5125 17.1705 3.54941 17.1816 3.58691 17.1893C3.625 17.1969 3.66309 17.2004 3.70117 17.2004C3.73984 17.2004 3.77793 17.1969 3.81602 17.1893C3.85352 17.1816 3.88984 17.1705 3.92559 17.1559C3.96074 17.1412 3.99473 17.123 4.02637 17.102C4.05859 17.0803 4.08848 17.0557 4.11602 17.0287C4.14297 17.0018 4.16699 16.9719 4.18867 16.9396C4.20977 16.908 4.22793 16.874 4.24258 16.8389C4.25723 16.8031 4.26836 16.7662 4.27598 16.7293C4.28359 16.6912 4.28711 16.6525 4.28711 16.6145C4.28711 16.5764 4.28359 16.5377 4.27598 16.5002C4.26836 16.4627 4.25723 16.4258 4.24258 16.3906Z" fill="white"/>
</g>
<defs>
<clipPath id="clip0">
<rect y="0.507812" width="30" height="30" fill="white"/>
</clipPath>
</defs>
</svg>
