<svg width="30" height="31" viewBox="0 0 30 31" fill="none" xmlns="http://www.w3.org/2000/svg">
<g clip-path="url(#clip0)">
<path d="M15.7427 14.7675C15.5136 14.5384 15.1427 14.5384 14.9136 14.7675C14.6851 14.996 14.6851 15.3669 14.9136 15.596C15.1427 15.8246 15.5136 15.8246 15.7427 15.596C15.9712 15.3669 15.9712 14.996 15.7427 14.7675Z" fill="white"/>
<path d="M23.2009 7.30789C22.056 6.16303 20.2026 6.16297 19.0576 7.30789C17.9157 8.44982 17.9156 10.3084 19.0578 11.4513C20.2001 12.5929 22.0587 12.5934 23.2009 11.4512C24.3457 10.3064 24.346 8.45286 23.2009 7.30789ZM22.3723 10.6225C21.6872 11.3077 20.5719 11.3077 19.8864 10.6226C19.2012 9.93692 19.2011 8.82165 19.8863 8.13652C20.5732 7.44962 21.6853 7.44951 22.3723 8.13652C23.0592 8.82335 23.0593 9.93552 22.3723 10.6225Z" fill="white"/>
<path d="M29.8272 0.679439C29.7122 0.56442 29.5551 0.502076 29.3919 0.508228C29.2594 0.512974 26.105 0.639771 22.3553 1.9651C19.3506 3.026 16.8462 4.54492 14.9115 6.47968C14.4779 6.91322 14.056 7.37294 13.6524 7.85054C11.7394 6.72449 10.2065 7.07757 9.23742 7.59618C7.00611 8.79032 5.625 12.0327 5.625 14.3518C5.62518 14.5887 5.76797 14.8024 5.98687 14.8931C6.05935 14.9231 6.13553 14.9377 6.211 14.9377C6.36351 14.9377 6.51334 14.8781 6.62543 14.7661C7.80217 13.5894 9.25359 13.663 9.72773 13.7253L9.93292 13.9305C9.5291 14.8914 9.20378 15.847 8.96519 16.7763C8.87906 17.1127 8.90812 17.4686 9.03615 17.7941C8.47201 18.0541 7.92773 18.4358 7.45383 18.9097C5.94557 20.4181 5.6393 24.0939 5.62699 24.2496C5.61352 24.4205 5.67551 24.5888 5.79674 24.71C5.90707 24.8203 6.05631 24.8817 6.211 24.8817C6.22635 24.8817 6.24176 24.8811 6.25717 24.8798C6.41291 24.8676 10.0888 24.5613 11.5971 23.0531C12.0708 22.5793 12.4525 22.0351 12.7125 21.4711C13.0571 21.6066 13.4119 21.6233 13.7308 21.5416C14.6598 21.3031 15.6152 20.9779 16.5763 20.574L16.7815 20.7792C16.8438 21.2534 16.9173 22.7048 15.7407 23.8814C15.5731 24.049 15.523 24.301 15.6137 24.5199C15.7043 24.7389 15.918 24.8816 16.155 24.8816C18.4741 24.8816 21.7164 23.5005 22.9105 21.2692C23.4292 20.3002 23.7822 18.7673 22.6562 16.8543C23.1335 16.4508 23.5933 16.0289 24.027 15.5952C25.9618 13.6604 27.4807 11.156 28.5416 8.15153C29.867 4.40166 29.9937 1.24721 29.9984 1.11479C30.0043 0.952192 29.9422 0.794517 29.8272 0.679439ZM6.93504 13.0915C7.29902 11.33 8.35623 9.39706 9.7906 8.62936C10.7491 8.11644 11.7968 8.16671 12.9108 8.77649C11.9618 10.0247 11.1367 11.3694 10.449 12.7894C10.4403 12.784 10.3348 12.6514 10.1389 12.6072C10.0583 12.589 8.50798 12.2555 6.93504 13.0915ZM10.7685 22.2244C9.96281 23.03 8.07287 23.455 6.87832 23.6285C7.05187 22.4338 7.47685 20.544 8.28246 19.7384C8.73363 19.2872 9.25675 18.9451 9.78257 18.7525L11.7544 20.7243C11.5617 21.2501 11.2197 21.7732 10.7685 22.2244ZM13.4398 20.4064C13.2702 20.4498 13.0738 20.3861 12.9278 20.2403C12.1697 19.4823 11.8732 19.1857 11.7801 19.0927C11.6095 18.9221 11.1911 18.5037 10.2669 17.5794C10.1208 17.433 10.057 17.2367 10.1003 17.0674C10.288 16.3365 10.5334 15.5866 10.8319 14.8295L15.6773 19.6749C14.9201 19.9734 14.1704 20.2188 13.4398 20.4064ZM21.8775 20.7162C21.1098 22.1505 19.1769 23.2078 17.4155 23.5717C17.9771 22.5149 18.1009 21.1695 17.8957 20.3537C17.848 20.1642 17.7244 20.069 17.7175 20.0578C19.1374 19.37 20.4821 18.545 21.7303 17.5959C22.3401 18.71 22.3903 19.7579 21.8775 20.7162ZM23.1985 14.7666C22.6705 15.2945 22.102 15.8046 21.5087 16.2825C20.0824 17.4309 18.5126 18.4037 16.8377 19.1781L11.3287 13.6692C12.1031 11.9943 13.0759 10.4244 14.2242 8.99833C14.7026 8.4046 15.2126 7.83601 15.7403 7.30831C17.4762 5.57242 19.7164 4.1909 22.4007 3.19645L27.3104 8.10612C26.3161 10.7904 24.9345 13.0306 23.1985 14.7666ZM27.732 6.87033L23.6365 2.77486C25.8678 2.08182 27.809 1.82231 28.7779 1.72903C28.6845 2.69811 28.425 4.63926 27.732 6.87033Z" fill="white"/>
<path d="M14.085 24.7106C13.8561 24.4818 13.485 24.4819 13.2563 24.7107L11.5993 26.3683C11.3705 26.5972 11.3706 26.9682 11.5994 27.197C11.8283 27.4257 12.1993 27.4257 12.4281 27.1969L14.0851 25.5392C14.3138 25.3104 14.3138 24.9394 14.085 24.7106Z" fill="white"/>
<path d="M5.80052 16.4217C5.57177 16.1928 5.20081 16.1928 4.97189 16.4215L3.31427 18.0786C3.08541 18.3073 3.08535 18.6783 3.3141 18.9072C3.54279 19.1359 3.91374 19.1362 4.14273 18.9073L5.80034 17.2503C6.02921 17.0215 6.02927 16.6505 5.80052 16.4217Z" fill="white"/>
<path d="M9.94013 25.5403C9.71143 25.3115 9.34036 25.3115 9.11149 25.5402L5.14236 29.5088C4.91349 29.7376 4.91349 30.1086 5.1423 30.3374C5.37099 30.5662 5.74207 30.5663 5.97093 30.3375L9.94007 26.3689C10.1689 26.1401 10.1689 25.7691 9.94013 25.5403Z" fill="white"/>
<path d="M5.25262 25.5403C5.02387 25.3115 4.6528 25.3115 4.42399 25.5402L0.45486 29.5088C0.225994 29.7376 0.225994 30.1086 0.454802 30.3374C0.683493 30.5662 1.05457 30.5663 1.28343 30.3375L5.25257 26.3689C5.48143 26.1401 5.48143 25.7691 5.25262 25.5403Z" fill="white"/>
<path d="M4.97073 20.5661C4.74198 20.3373 4.37091 20.3373 4.1421 20.5661L0.173552 24.5353C-0.0552562 24.7641 -0.0552562 25.1351 0.173611 25.364C0.402419 25.5928 0.773434 25.5928 1.00224 25.3639L4.97079 21.3948C5.1996 21.1659 5.1996 20.795 4.97073 20.5661Z" fill="white"/>
<path d="M18.2272 12.2795C17.9984 12.0507 17.6275 12.0507 17.3986 12.2795L16.57 13.108C16.3412 13.3368 16.3412 13.7079 16.57 13.9367C16.7989 14.1655 17.1699 14.1655 17.3987 13.9367L18.2272 13.1082C18.456 12.8794 18.456 12.5084 18.2272 12.2795Z" fill="white"/>
</g>
<defs>
<clipPath id="clip0">
<rect y="0.507812" width="30" height="30" fill="white"/>
</clipPath>
</defs>
</svg>
