<svg width="29" height="30" viewBox="0 0 29 30" fill="none" xmlns="http://www.w3.org/2000/svg">
<path d="M28.5841 12.9161C28.8115 12.9161 28.9961 12.7237 28.9961 12.4867V10.9408C28.9961 10.7037 28.8115 10.5113 28.5841 10.5113H26.0847C25.8573 10.5113 25.6727 10.7037 25.6727 10.9408C25.6727 11.1778 25.8573 11.3702 26.0847 11.3702H28.1721V12.0573C27.4751 12.0573 22.5191 12.0573 22.2225 12.0573V11.3702H24.0337C24.2615 11.3702 24.4457 11.1778 24.4457 10.9408C24.4457 10.7037 24.2615 10.5113 24.0337 10.5113H22.2225V8.49806H22.8548C23.0825 8.49806 23.2668 8.30613 23.2668 8.06863V6.52269C23.2668 6.28576 23.0825 6.09326 22.8548 6.09326H19.1798V0.844956C19.1798 0.607911 18.9955 0.415527 18.7678 0.415527H11.0994C10.8717 0.415527 10.6874 0.607911 10.6874 0.844956V6.09372H7.01223C6.7846 6.09372 6.60024 6.28576 6.60024 6.52314V8.06863C6.60024 8.30613 6.7846 8.49806 7.01223 8.49806H7.64472V10.5113H1.28308C1.05566 10.5113 0.871094 10.7037 0.871094 10.9408V12.4867C0.871094 12.7237 1.05566 12.9161 1.28308 12.9161H1.46611V15.7415C1.46611 15.9786 1.65057 16.171 1.8781 16.171C2.10563 16.171 2.29009 15.9786 2.29009 15.7415V12.9161H7.64472V27.2491H2.29009V17.8736C2.29009 17.6363 2.10563 17.4441 1.8781 17.4441C1.65057 17.4441 1.46611 17.6363 1.46611 17.8736V27.2487H1.28308C1.05566 27.2487 0.871094 27.441 0.871094 27.6782V29.3017C0.871094 29.5388 1.05566 29.7312 1.28308 29.7312H28.5841C28.8115 29.7312 28.9961 29.5388 28.9961 29.3017V27.6782C28.9961 27.441 28.8115 27.2487 28.5841 27.2487H28.4012V12.9161H28.5841ZM7.42422 6.95257H13.8271C14.0545 6.95257 14.239 6.76019 14.239 6.52314C14.239 6.28576 14.0545 6.09372 13.8271 6.09372H11.5114V1.27438H18.3558V6.09372H16.1603C15.9328 6.09372 15.7483 6.28576 15.7483 6.52314C15.7483 6.76019 15.9328 6.95257 16.1603 6.95257H22.4429V7.6392H7.42422V6.95257ZM1.69507 11.3702H7.64472V12.0573H1.69507V11.3702ZM8.46869 8.49806H21.3985V27.2487H19.026V20.4555C19.026 20.2185 18.8414 20.0261 18.614 20.0261H11.2532C11.0258 20.0261 10.8412 20.2185 10.8412 20.4555V27.2487H8.46869V8.49806ZM11.6652 27.2487V20.8849H14.5216V27.2487H11.6652ZM15.3456 20.8849H18.202V27.2487H15.3456V20.8849ZM28.1721 28.8723H1.69507V28.1076H28.1721V28.8723ZM27.5772 27.2487H22.2225V12.9161H27.5768V27.2487H27.5772Z" fill="white"/>
</svg>
