<svg width="13" height="13" viewBox="0 0 13 13" fill="none" xmlns="http://www.w3.org/2000/svg">
<path d="M9.16823 7.76016C9.01146 7.68203 8.24792 7.30859 8.10573 7.25703C7.96354 7.20443 7.85937 7.17891 7.75521 7.33516C7.6526 7.4888 7.35365 7.83724 7.26354 7.94036C7.1724 8.04193 7.08177 8.04974 6.92708 7.97943C6.77083 7.9013 6.26927 7.73724 5.67552 7.20599C5.21302 6.79193 4.9026 6.28411 4.81094 6.12786C4.72031 5.97161 4.80104 5.88568 4.87865 5.80755C4.94948 5.73724 5.03542 5.62786 5.11354 5.53516C5.18958 5.44089 5.21458 5.37839 5.26823 5.27682C5.32031 5.16745 5.29375 5.08151 5.25521 5.00391C5.21615 4.92578 4.90521 4.16016 4.775 3.85495C4.65 3.55078 4.52135 3.58932 4.425 3.58932C4.33542 3.58151 4.23177 3.58151 4.1276 3.58151C4.02344 3.58151 3.85521 3.62005 3.7125 3.76849C3.57031 3.92474 3.16823 4.29974 3.16823 5.05755C3.16823 5.81536 3.72552 6.54974 3.80312 6.65911C3.88073 6.76068 4.89948 8.32318 6.45937 8.99505C6.83125 9.1513 7.12083 9.24505 7.34687 9.32266C7.71875 9.44088 8.05781 9.42422 8.32604 9.38568C8.625 9.33828 9.24635 9.01016 9.37604 8.64297C9.50885 8.27578 9.50885 7.97109 9.46979 7.90078C9.43125 7.83047 9.32917 7.79141 9.17292 7.72109L9.16823 7.76016ZM6.33646 11.5977H6.32812C5.40625 11.5977 4.49271 11.3477 3.69531 10.8789L3.50781 10.7674L1.55469 11.2753L2.07812 9.37682L1.95365 9.18151C1.43802 8.36068 1.16406 7.41536 1.16406 6.44193C1.16406 3.60599 3.48437 1.29349 6.34219 1.29349C7.72448 1.29349 9.02187 1.83255 9.99896 2.80911C10.9755 3.77734 11.5141 5.07474 11.5141 6.44974C11.512 9.28516 9.19115 11.5982 6.33958 11.5982L6.33646 11.5977ZM10.7422 2.06589C9.55469 0.917969 7.99219 0.269531 6.32812 0.269531C2.9 0.269531 0.108854 3.04766 0.107292 6.4638C0.107292 7.55547 0.393229 8.62005 0.938021 9.56016L0.0546875 12.7695L3.35417 11.9091C4.26354 12.4003 5.28646 12.6612 6.32812 12.6628H6.33125C9.76094 12.6628 12.5531 9.88359 12.5547 6.46693C12.5547 4.81276 11.9089 3.25599 10.7344 2.0862" fill="white"/>
</svg>
