<svg width="45" height="45" viewBox="0 0 45 45" fill="none" xmlns="http://www.w3.org/2000/svg">
<path d="M16.0369 7.53712C18.6799 6.33652 21.6635 5.92438 24.5485 6.30966C27.4783 6.69492 30.2827 7.94926 32.5226 9.87559C34.6729 11.6854 36.3125 14.0866 37.2175 16.7386C38.2568 19.7581 38.3374 23.1 37.4504 26.1463C36.4642 29.5299 34.3727 32.4857 31.5101 34.5416C29.6755 35.8545 27.5789 36.756 25.3639 37.1845C21.6008 37.9014 17.6048 37.2026 14.3435 35.2136C14.1374 35.1239 13.9403 34.8999 13.6984 34.9985L7.97314 36.4768L9.49629 30.8861C9.58588 30.6888 9.40669 30.5275 9.3171 30.3484C7.58788 27.7143 6.69192 24.5425 6.78151 21.3888C6.87111 14.9378 10.9926 9.83079 16.01 7.50129" fill="#40C351"/>
<path d="M16.8433 13.093C17.2643 13.102 17.5421 13.4783 17.7034 13.8098C18.241 14.9745 18.671 16.1752 19.1818 17.3488C19.2893 17.5907 19.361 17.8595 19.2713 18.1193C19.0025 18.8809 18.3754 19.4275 17.8736 20.0368C17.6945 20.2427 17.7124 20.5385 17.8558 20.7535C19.2334 23.4296 21.5933 25.4684 24.4411 26.4428C24.7099 26.5594 25.0324 26.5325 25.2206 26.2996C25.7578 25.6999 26.2661 25.075 26.7437 24.427C27.1558 23.8894 27.5143 24.0416 28.0519 24.2657L31.4923 25.9232C31.7611 26.0396 32.0299 26.2367 32.003 26.5504C32.1823 28.8799 30.0946 30.6898 27.9085 30.7615C22.2638 30.3493 18.4112 27.2134 15.6337 23.5937C14.7199 22.3214 13.7522 21.0403 13.2505 19.526C12.7756 18.2 12.7577 16.6858 13.3222 15.3778C14.1912 13.6306 14.9528 12.9586 16.8701 13.0661L16.8433 13.093ZM11.5571 6.40911C15.6965 3.45243 21.0544 2.32352 26.0717 3.32699C29.321 3.96993 32.3416 5.46321 34.8253 7.6545C38.3405 10.7362 40.5827 15.0161 41.1149 19.6604C41.4713 22.7267 41.0714 25.8335 39.9502 28.7096C38.6242 32.1143 36.2768 35.1068 33.3022 37.2214C30.4358 39.2665 27.0511 40.462 23.5361 40.6708C20.0182 40.8872 16.5101 40.1111 13.4118 38.4308L3.37695 41.0291L6.02006 31.3528C6.0738 31.2362 5.99318 31.1377 5.93045 31.0481C3.9476 27.5086 3.1619 23.423 3.69054 19.4006C4.0395 16.8142 4.91528 14.3267 6.2637 12.0922C7.61214 9.85764 9.40458 7.92342 11.5302 6.40911H11.5571ZM15.9832 7.53803C12.9817 8.88197 10.4282 11.1936 8.79753 14.0517C7.50735 16.2916 6.79058 18.845 6.73682 21.4255C6.64722 24.5792 7.54319 27.742 9.2724 30.3851C9.362 30.5464 9.52328 30.7166 9.45159 30.9227L7.92845 36.5135C9.83685 36.0296 11.7453 35.51 13.6626 35.0261C13.9045 34.9366 14.1106 35.1337 14.3077 35.2412C17.6123 37.235 21.5362 37.9402 25.328 37.2214C27.5449 36.7982 29.6425 35.8961 31.4744 34.5782C34.337 32.5223 36.4283 29.5666 37.4146 26.183C38.3021 23.0972 38.2207 19.8134 37.1816 16.7755C36.2629 14.1069 34.6409 11.7358 32.4868 9.91233C30.2204 7.98654 27.4505 6.74924 24.5038 6.3464C21.6367 5.96112 18.6442 6.37328 15.9922 7.57386L15.9832 7.53803Z" fill="#FCFCFC"/>
</svg>
