<svg width="30" height="30" viewBox="0 0 30 30" fill="none" xmlns="http://www.w3.org/2000/svg">
<path d="M10.6919 5.02475C12.4539 4.22435 14.443 3.94959 16.3663 4.20644C18.3195 4.46328 20.1891 5.29951 21.6824 6.58373C23.1159 7.7903 24.209 9.39109 24.8123 11.1591C25.5052 13.1721 25.5589 15.4 24.9676 17.4309C24.3101 19.6866 22.9158 21.6571 21.0074 23.0277C19.7843 23.903 18.3866 24.504 16.9099 24.7897C14.4012 25.2676 11.7372 24.8017 9.56296 23.4757C9.42558 23.4159 9.29417 23.2666 9.1329 23.3323L5.31608 24.3179L6.33151 20.5907C6.39124 20.4592 6.27178 20.3517 6.21205 20.2323C5.05924 18.4762 4.46193 16.3617 4.52166 14.2592C4.58139 9.95853 7.32902 6.55386 10.674 5.00086" fill="#40C351"/>
<path d="M11.2295 8.72802C11.5102 8.73399 11.6954 8.98486 11.8029 9.20586C12.1613 9.98237 12.448 10.7828 12.7885 11.5652C12.8602 11.7265 12.908 11.9057 12.8482 12.0789C12.669 12.5866 12.2509 12.951 11.9164 13.3572C11.797 13.4945 11.8089 13.6917 11.9045 13.835C12.8229 15.6191 14.3962 16.9783 16.2947 17.6279C16.4739 17.7056 16.6889 17.6877 16.8144 17.5324C17.1725 17.1326 17.5114 16.716 17.8298 16.284C18.1045 15.9256 18.3435 16.0271 18.7019 16.1765L20.9955 17.2815C21.1747 17.3591 21.3539 17.4905 21.336 17.6996C21.4555 19.2526 20.0637 20.4592 18.6063 20.507C14.8432 20.2322 12.2748 18.1416 10.4231 15.7285C9.81389 14.8803 9.1688 14.0262 8.8343 13.0167C8.51773 12.1327 8.50578 11.1232 8.88209 10.2512C9.46148 9.0864 9.96919 8.63842 11.2474 8.7101L11.2295 8.72802ZM7.70539 4.27209C10.465 2.30097 14.0369 1.54836 17.3818 2.21734C19.548 2.64597 21.5617 3.64149 23.2175 5.10235C25.561 7.15679 27.0558 10.0101 27.4106 13.1063C27.6482 15.1505 27.3816 17.2217 26.6341 19.1391C25.7501 21.4089 24.1852 23.4039 22.2021 24.8136C20.2912 26.177 18.0347 26.974 15.6914 27.1132C13.3461 27.2575 11.0074 26.7401 8.94182 25.6199L2.25195 27.3521L4.01402 20.9012C4.04985 20.8235 3.9961 20.7578 3.95428 20.6981C2.63238 18.3384 2.10858 15.6147 2.46101 12.9331C2.69365 11.2088 3.2775 9.55051 4.17645 8.06081C5.07541 6.57111 6.27037 5.28163 7.68747 4.27209H7.70539ZM10.6561 5.0247C8.65511 5.92066 6.95278 7.46172 5.86567 9.36714C5.00555 10.8604 4.5277 12.5627 4.49186 14.283C4.43213 16.3855 5.02944 18.494 6.18225 20.2561C6.24198 20.3636 6.3495 20.4771 6.30171 20.6145L5.28628 24.3417C6.55855 24.0191 7.83082 23.6727 9.10907 23.3501C9.27034 23.2904 9.40772 23.4218 9.53913 23.4935C11.7422 24.8227 14.3581 25.2928 16.886 24.8136C18.3639 24.5315 19.7623 23.9301 20.9836 23.0515C22.892 21.6809 24.2862 19.7104 24.9437 17.4547C25.5354 15.3975 25.4811 13.2083 24.7884 11.183C24.1759 9.40393 23.0946 7.82321 21.6585 6.60757C20.1476 5.32371 18.301 4.49884 16.3365 4.23028C14.4251 3.97343 12.4301 4.2482 10.6621 5.04859L10.6561 5.0247Z" fill="#FCFCFC"/>
</svg>
