<svg width="95" height="95" viewBox="0 0 95 95" fill="none" xmlns="http://www.w3.org/2000/svg">
<g clip-path="url(#clip0)">
<path d="M77.593 68.0598C76.3407 61.7874 70.4567 60.7197 70.4381 60.7112V60.7114C70.3748 60.6928 70.9779 60.844 56.0877 57.1531V56.6479H67.0489C69.3083 56.6479 71.1463 54.8097 71.1463 52.5505V31.6456C71.3306 30.8684 71.331 30.0603 71.1463 29.2814V21.6519C71.1463 20.883 70.5231 20.2601 69.7546 20.2601C68.9857 20.2601 68.3628 20.883 68.3628 21.6519V25.6462C67.628 25.2075 66.7888 24.893 65.8844 24.7374C65.5579 23.2869 64.3533 22.1403 62.8257 21.9397C61.2333 21.7304 60.0265 20.8021 59.2389 19.1808C58.8702 18.4217 58.148 17.9231 57.3075 17.8467C56.4662 17.7706 55.6697 18.13 55.1711 18.8088C52.7787 22.0647 46.1278 29.3677 34.643 29.3673C33.7692 29.3673 33.1768 29.3259 32.9704 29.3167C30.86 29.1896 29.0756 30.8758 29.0756 32.9905V36.1884C29.0756 41.2996 31.1961 46.2549 34.8929 49.7832C36.119 50.9535 37.4714 51.9296 38.9137 52.708V53.8647H28.0026C27.2781 53.8647 26.6886 53.2752 26.6886 52.5508V21.2769C26.6886 11.1381 34.9552 2.78364 44.941 2.78364C44.9733 2.78364 45.0056 2.78382 45.0377 2.78401C48.6154 2.80312 52.7462 3.81936 55.5612 5.3722C57.3452 6.3569 58.4471 5.57426 60.2089 5.57426C64.509 5.57426 67.9549 9.99584 68.368 13.9727C68.3706 14.0309 68.3767 14.2642 68.3774 15.1578C68.3784 16.5013 69.8958 16.6045 69.7703 16.5484C70.5392 16.5479 71.1616 15.9241 71.161 15.1555C71.1608 14.9084 71.1629 13.9393 71.1397 13.7144C70.5801 8.17823 65.8577 2.79069 60.2091 2.79069C58.0029 2.79069 57.6591 3.34993 56.906 2.93504C53.714 1.17402 49.0613 0.0219562 45.0527 0.00043274C33.4983 -0.0743427 23.9048 9.55127 23.9048 21.2767V52.5507C23.9048 54.8101 25.743 56.6481 28.0024 56.6481H38.9137V57.1533L24.6195 60.696C24.6006 60.7006 24.5821 60.706 24.5633 60.7114L23.5191 61.0194C23.4877 61.0287 23.4569 61.0389 23.4263 61.0502C21.5627 61.7456 18.3028 63.5809 17.4083 68.0605C13.1722 89.3394 13.3505 88.4308 13.3403 88.5037C12.8301 92.1128 14.6367 94.9997 18.9828 94.9997H34.0334C34.8024 94.9997 35.4252 94.3766 35.4252 93.6079C35.4252 92.839 34.8022 92.2161 34.0334 92.2161H28.796V79.0887C28.796 78.3198 28.173 77.6969 27.4042 77.6969C26.6355 77.6969 26.0124 78.32 26.0124 79.0887V92.2161H18.9828C17.134 92.2161 16.0604 91.6209 16.0426 89.6788C16.0348 88.7314 15.9975 89.6548 20.1382 68.6047C20.7615 65.4833 23.0281 64.1794 24.3561 63.6746L25.3213 63.3899L33.5299 61.3554C42.6612 72.1127 42.1205 71.5427 42.6482 72.0574C45.696 75.0304 50.0448 74.8205 52.9071 71.4592L61.5025 61.363L69.6798 63.3897C69.9164 63.4985 73.9869 64.2145 74.8632 68.6042C78.9683 89.4721 78.9668 88.7269 78.959 89.6777C78.9449 91.5799 77.9158 92.2163 76.0188 92.2163H69.0391V79.0887C69.0391 78.3198 68.4162 77.6969 67.6473 77.6969C66.8784 77.6969 66.2555 78.32 66.2555 79.0887V92.2161H40.5285C39.7596 92.2161 39.1367 92.8392 39.1367 93.6079C39.1367 94.3768 39.7598 94.9997 40.5285 94.9997H76.019C79.4575 94.9997 81.711 93.1077 81.7427 89.6999C81.7544 88.1085 81.6596 88.8689 77.593 68.0598ZM65.9755 27.6087C67.1378 27.9544 68.0342 28.7203 68.363 29.6662V31.2608C68.0342 32.2069 67.1378 32.9729 65.9755 33.3183V27.6087ZM65.9755 36.4307V36.1737C66.8454 36.013 67.6531 35.705 68.363 35.2811V52.5507C68.363 53.2752 67.7735 53.8643 67.0491 53.8643H56.0877V52.7887C61.9889 49.7036 65.9755 43.5266 65.9755 36.4307ZM36.815 47.7693C33.6657 44.7632 31.8596 40.5422 31.8596 36.188C31.9423 33.1577 31.659 32.7905 32.1425 32.3351C32.3138 32.1737 32.5441 32.08 32.8033 32.0948C42.7827 32.6957 51.3661 28.3086 57.0331 20.9631C58.5611 23.6462 60.8019 24.4815 62.4633 24.6999C62.8786 24.7544 63.192 25.1088 63.192 25.5246C63.192 29.3749 63.192 32.6083 63.192 36.4309C63.192 50.2794 46.613 57.1207 36.815 47.7693ZM50.7872 69.6546C48.8481 71.9325 46.1335 71.9264 44.199 69.643L41.295 66.2154H53.7151L50.7872 69.6546ZM56.0853 63.4317H38.9369L36.545 60.6084L40.6408 59.5931C41.262 59.4393 41.6976 58.8682 41.6976 58.2284L41.6978 53.9226C45.5275 55.1991 49.5719 55.1852 53.3042 53.9623C53.3303 58.4108 53.2444 58.3089 53.3817 58.7013C53.5335 59.1352 53.8951 59.4775 54.3608 59.5929L58.4835 60.6147L56.0853 63.4317Z" fill="white"/>
</g>
<defs>
<clipPath id="clip0">
<rect width="95" height="95" fill="white"/>
</clipPath>
</defs>
</svg>
