<svg width="96" height="95" viewBox="0 0 96 95" fill="none" xmlns="http://www.w3.org/2000/svg">
<g clip-path="url(#clip0)">
<path d="M77.945 68.0598C76.6928 61.7874 70.8087 60.7197 70.7902 60.7112V60.7114C70.7269 60.6928 71.3299 60.844 56.4398 57.1531V56.6479H67.401C69.6604 56.6479 71.4984 54.8097 71.4984 52.5505V31.6456C71.6826 30.8684 71.683 30.0603 71.4984 29.2814V21.6519C71.4984 20.883 70.8751 20.2601 70.1066 20.2601C69.3377 20.2601 68.7148 20.883 68.7148 21.6519V25.6462C67.9801 25.2075 67.1408 24.893 66.2365 24.7374C65.9099 23.2869 64.7053 22.1403 63.1777 21.9397C61.5854 21.7304 60.3786 20.8021 59.5909 19.1808C59.2222 18.4217 58.5001 17.9231 57.6596 17.8467C56.8183 17.7706 56.0217 18.13 55.5232 18.8088C53.1307 22.0647 46.4798 29.3677 34.995 29.3673C34.1213 29.3673 33.5288 29.3259 33.3225 29.3167C31.2121 29.1896 29.4277 30.8758 29.4277 32.9905V36.1884C29.4277 41.2996 31.5481 46.2549 35.245 49.7832C36.471 50.9535 37.8235 51.9296 39.2658 52.708V53.8647H28.3547C27.6301 53.8647 27.0406 53.2752 27.0406 52.5508V21.2769C27.0406 11.1381 35.3073 2.78364 45.2931 2.78364C45.3253 2.78364 45.3576 2.78382 45.3897 2.78401C48.9674 2.80312 53.0983 3.81936 55.9132 5.3722C57.6972 6.3569 58.7992 5.57426 60.561 5.57426C64.861 5.57426 68.307 9.99584 68.72 13.9727C68.7226 14.0309 68.7287 14.2642 68.7295 15.1578C68.7304 16.5013 70.2478 16.6045 70.1224 16.5484C70.8913 16.5479 71.5136 15.9241 71.5131 15.1555C71.5129 14.9084 71.5149 13.9393 71.4917 13.7144C70.9321 8.17823 66.2098 2.79069 60.5612 2.79069C58.355 2.79069 58.0112 3.34993 57.258 2.93504C54.0661 1.17402 49.4133 0.0219562 45.4048 0.00043274C33.8504 -0.0743427 24.2569 9.55127 24.2569 21.2767V52.5507C24.2569 54.8101 26.0951 56.6481 28.3545 56.6481H39.2658V57.1533L24.9716 60.696C24.9527 60.7006 24.9341 60.706 24.9154 60.7114L23.8711 61.0194C23.8398 61.0287 23.809 61.0389 23.7783 61.0502C21.9147 61.7456 18.6548 63.5809 17.7603 68.0605C13.5243 89.3394 13.7026 88.4308 13.6924 88.5037C13.1821 92.1128 14.9888 94.9997 19.3349 94.9997H34.3855C35.1544 94.9997 35.7773 94.3766 35.7773 93.6079C35.7773 92.839 35.1542 92.2161 34.3855 92.2161H29.1481V79.0887C29.1481 78.3198 28.525 77.6969 27.7563 77.6969C26.9876 77.6969 26.3645 78.32 26.3645 79.0887V92.2161H19.3349C17.4861 92.2161 16.4125 91.6209 16.3947 89.6788C16.3869 88.7314 16.3496 89.6548 20.4903 68.6047C21.1135 65.4833 23.3802 64.1794 24.7081 63.6746L25.6733 63.3899L33.8819 61.3554C43.0132 72.1127 42.4726 71.5427 43.0003 72.0574C46.048 75.0304 50.3969 74.8205 53.2591 71.4592L61.8546 61.363L70.0318 63.3897C70.2684 63.4985 74.3389 64.2145 75.2153 68.6042C79.3203 89.4721 79.3188 88.7269 79.311 89.6777C79.2969 91.5799 78.2679 92.2163 76.3709 92.2163H69.3911V79.0887C69.3911 78.3198 68.7683 77.6969 67.9994 77.6969C67.2305 77.6969 66.6076 78.32 66.6076 79.0887V92.2161H40.8806C40.1117 92.2161 39.4888 92.8392 39.4888 93.6079C39.4888 94.3768 40.1118 94.9997 40.8806 94.9997H76.371C79.8096 94.9997 82.0631 93.1077 82.0948 89.6999C82.1065 88.1085 82.0117 88.8689 77.945 68.0598ZM66.3276 27.6087C67.4898 27.9544 68.3862 28.7203 68.715 29.6662V31.2608C68.3862 32.2069 67.4898 32.9729 66.3276 33.3183V27.6087ZM66.3276 36.4307V36.1737C67.1974 36.013 68.0051 35.705 68.715 35.2811V52.5507C68.715 53.2752 68.1255 53.8643 67.4011 53.8643H56.4398V52.7887C62.3409 49.7036 66.3276 43.5266 66.3276 36.4307ZM37.167 47.7693C34.0177 44.7632 32.2116 40.5422 32.2116 36.188C32.2944 33.1577 32.0111 32.7905 32.4946 32.3351C32.6658 32.1737 32.8961 32.08 33.1553 32.0948C43.1348 32.6957 51.7182 28.3086 57.3851 20.9631C58.9131 23.6462 61.154 24.4815 62.8154 24.6999C63.2306 24.7544 63.544 25.1088 63.544 25.5246C63.544 29.3749 63.544 32.6083 63.544 36.4309C63.544 50.2794 46.965 57.1207 37.167 47.7693ZM51.1393 69.6546C49.2001 71.9325 46.4856 71.9264 44.5511 69.643L41.6471 66.2154H54.0672L51.1393 69.6546ZM56.4374 63.4317H39.2889L36.8971 60.6084L40.9928 59.5931C41.614 59.4393 42.0497 58.8682 42.0497 58.2284L42.0499 53.9226C45.8796 55.1991 49.9239 55.1852 53.6562 53.9623C53.6824 58.4108 53.5965 58.3089 53.7338 58.7013C53.8855 59.1352 54.2472 59.4775 54.7129 59.5929L58.8356 60.6147L56.4374 63.4317Z" fill="#AB86E4"/>
</g>
<defs>
<clipPath id="clip0">
<rect width="95" height="95" fill="white" transform="translate(0.351562)"/>
</clipPath>
</defs>
</svg>
