<svg width="96" height="95" viewBox="0 0 96 95" fill="none" xmlns="http://www.w3.org/2000/svg">
<g clip-path="url(#clip0)">
<path d="M78.445 68.0598C77.1928 61.7874 71.3087 60.7197 71.2902 60.7112V60.7114C71.2269 60.6928 71.8299 60.844 56.9398 57.1531V56.6479H67.901C70.1604 56.6479 71.9984 54.8097 71.9984 52.5505V31.6456C72.1826 30.8684 72.183 30.0603 71.9984 29.2814V21.6519C71.9984 20.883 71.3751 20.2601 70.6066 20.2601C69.8377 20.2601 69.2148 20.883 69.2148 21.6519V25.6462C68.4801 25.2075 67.6408 24.893 66.7365 24.7374C66.4099 23.2869 65.2053 22.1403 63.6777 21.9397C62.0854 21.7304 60.8786 20.8021 60.0909 19.1808C59.7222 18.4217 59.0001 17.9231 58.1596 17.8467C57.3183 17.7706 56.5217 18.13 56.0232 18.8088C53.6307 22.0647 46.9798 29.3677 35.495 29.3673C34.6213 29.3673 34.0288 29.3259 33.8225 29.3167C31.7121 29.1896 29.9277 30.8758 29.9277 32.9905V36.1884C29.9277 41.2996 32.0481 46.2549 35.745 49.7832C36.971 50.9535 38.3235 51.9296 39.7658 52.708V53.8647H28.8547C28.1301 53.8647 27.5406 53.2752 27.5406 52.5508V21.2769C27.5406 11.1381 35.8073 2.78364 45.7931 2.78364C45.8253 2.78364 45.8576 2.78382 45.8897 2.78401C49.4674 2.80312 53.5983 3.81936 56.4132 5.3722C58.1972 6.3569 59.2992 5.57426 61.061 5.57426C65.361 5.57426 68.807 9.99584 69.22 13.9727C69.2226 14.0309 69.2287 14.2642 69.2295 15.1578C69.2304 16.5013 70.7478 16.6045 70.6224 16.5484C71.3913 16.5479 72.0136 15.9241 72.0131 15.1555C72.0129 14.9084 72.0149 13.9393 71.9917 13.7144C71.4321 8.17823 66.7098 2.79069 61.0612 2.79069C58.855 2.79069 58.5112 3.34993 57.758 2.93504C54.5661 1.17402 49.9133 0.0219562 45.9048 0.00043274C34.3504 -0.0743427 24.7569 9.55127 24.7569 21.2767V52.5507C24.7569 54.8101 26.5951 56.6481 28.8545 56.6481H39.7658V57.1533L25.4716 60.696C25.4527 60.7006 25.4341 60.706 25.4154 60.7114L24.3711 61.0194C24.3398 61.0287 24.309 61.0389 24.2783 61.0502C22.4147 61.7456 19.1548 63.5809 18.2603 68.0605C14.0243 89.3394 14.2026 88.4308 14.1924 88.5037C13.6821 92.1128 15.4888 94.9997 19.8349 94.9997H34.8855C35.6544 94.9997 36.2773 94.3766 36.2773 93.6079C36.2773 92.839 35.6542 92.2161 34.8855 92.2161H29.6481V79.0887C29.6481 78.3198 29.025 77.6969 28.2563 77.6969C27.4876 77.6969 26.8645 78.32 26.8645 79.0887V92.2161H19.8349C17.9861 92.2161 16.9125 91.6209 16.8947 89.6788C16.8869 88.7314 16.8496 89.6548 20.9903 68.6047C21.6135 65.4833 23.8802 64.1794 25.2081 63.6746L26.1733 63.3899L34.3819 61.3554C43.5132 72.1127 42.9726 71.5427 43.5003 72.0574C46.548 75.0304 50.8969 74.8205 53.7591 71.4592L62.3546 61.363L70.5318 63.3897C70.7684 63.4985 74.8389 64.2145 75.7153 68.6042C79.8203 89.4721 79.8188 88.7269 79.811 89.6777C79.7969 91.5799 78.7679 92.2163 76.8709 92.2163H69.8911V79.0887C69.8911 78.3198 69.2683 77.6969 68.4994 77.6969C67.7305 77.6969 67.1076 78.32 67.1076 79.0887V92.2161H41.3806C40.6117 92.2161 39.9888 92.8392 39.9888 93.6079C39.9888 94.3768 40.6118 94.9997 41.3806 94.9997H76.871C80.3096 94.9997 82.5631 93.1077 82.5948 89.6999C82.6065 88.1085 82.5117 88.8689 78.445 68.0598ZM66.8276 27.6087C67.9898 27.9544 68.8862 28.7203 69.215 29.6662V31.2608C68.8862 32.2069 67.9898 32.9729 66.8276 33.3183V27.6087ZM66.8276 36.4307V36.1737C67.6974 36.013 68.5051 35.705 69.215 35.2811V52.5507C69.215 53.2752 68.6255 53.8643 67.9011 53.8643H56.9398V52.7887C62.8409 49.7036 66.8276 43.5266 66.8276 36.4307ZM37.667 47.7693C34.5177 44.7632 32.7116 40.5422 32.7116 36.188C32.7944 33.1577 32.5111 32.7905 32.9946 32.3351C33.1658 32.1737 33.3961 32.08 33.6553 32.0948C43.6348 32.6957 52.2182 28.3086 57.8851 20.9631C59.4131 23.6462 61.654 24.4815 63.3154 24.6999C63.7306 24.7544 64.044 25.1088 64.044 25.5246C64.044 29.3749 64.044 32.6083 64.044 36.4309C64.044 50.2794 47.465 57.1207 37.667 47.7693ZM51.6393 69.6546C49.7001 71.9325 46.9856 71.9264 45.0511 69.643L42.1471 66.2154H54.5672L51.6393 69.6546ZM56.9374 63.4317H39.7889L37.3971 60.6084L41.4928 59.5931C42.114 59.4393 42.5497 58.8682 42.5497 58.2284L42.5499 53.9226C46.3796 55.1991 50.4239 55.1852 54.1562 53.9623C54.1824 58.4108 54.0965 58.3089 54.2338 58.7013C54.3855 59.1352 54.7472 59.4775 55.2129 59.5929L59.3356 60.6147L56.9374 63.4317Z" fill="#7DBC91"/>
</g>
<defs>
<clipPath id="clip0">
<rect width="95" height="95" fill="white" transform="translate(0.851562)"/>
</clipPath>
</defs>
</svg>
