<svg width="20" height="15" viewBox="0 0 20 15" fill="none" xmlns="http://www.w3.org/2000/svg">
<path d="M19.5825 2.94542C19.4665 2.53007 19.2454 2.15164 18.9405 1.84672C18.6356 1.5418 18.2572 1.3207 17.8418 1.20478C16.2829 0.787121 10.0089 0.787121 10.0089 0.787121C10.0089 0.787121 3.75074 0.778785 2.17599 1.20478C1.76064 1.3207 1.38221 1.5418 1.07729 1.84672C0.772366 2.15164 0.55126 2.53007 0.435342 2.94542C0.139832 4.54144 -0.00585506 6.16159 0.000180061 7.78472C-0.00471415 9.40173 0.140969 11.0157 0.435342 12.6057C0.55126 13.021 0.772366 13.3995 1.07729 13.7044C1.38221 14.0093 1.76064 14.2304 2.17599 14.3463C3.73323 14.7648 10.0089 14.7648 10.0089 14.7648C10.0089 14.7648 16.2662 14.7648 17.8418 14.3463C18.2572 14.2304 18.6356 14.0093 18.9405 13.7044C19.2454 13.3995 19.4665 13.021 19.5825 12.6057C19.8707 11.0151 20.0102 9.40116 19.9993 7.78472C20.0114 6.16216 19.8718 4.54202 19.5825 2.94542ZM8.00649 10.7783V4.78194L13.2284 7.78472L8.00649 10.7783Z" fill="#424A4E"/>
<path d="M19.5825 2.94542C19.4665 2.53007 19.2454 2.15164 18.9405 1.84672C18.6356 1.5418 18.2572 1.3207 17.8418 1.20478C16.2829 0.787121 10.0089 0.787121 10.0089 0.787121C10.0089 0.787121 3.75074 0.778785 2.17599 1.20478C1.76064 1.3207 1.38221 1.5418 1.07729 1.84672C0.772366 2.15164 0.55126 2.53007 0.435342 2.94542C0.139832 4.54144 -0.00585506 6.16159 0.000180061 7.78472C-0.00471415 9.40173 0.140969 11.0157 0.435342 12.6057C0.55126 13.021 0.772366 13.3995 1.07729 13.7044C1.38221 14.0093 1.76064 14.2304 2.17599 14.3463C3.73323 14.7648 10.0089 14.7648 10.0089 14.7648C10.0089 14.7648 16.2662 14.7648 17.8418 14.3463C18.2572 14.2304 18.6356 14.0093 18.9405 13.7044C19.2454 13.3995 19.4665 13.021 19.5825 12.6057C19.8707 11.0151 20.0102 9.40116 19.9993 7.78472C20.0114 6.16216 19.8718 4.54202 19.5825 2.94542ZM8.00649 10.7783V4.78194L13.2284 7.78472L8.00649 10.7783Z" fill="url(#paint0_linear)"/>
<defs>
<linearGradient id="paint0_linear" x1="0" y1="7.77596" x2="20" y2="7.77596" gradientUnits="userSpaceOnUse">
<stop stop-color="#6288E4"/>
<stop offset="1" stop-color="#AB86E4"/>
</linearGradient>
</defs>
</svg>
