<svg width="60" height="60" viewBox="0 0 60 60" fill="none" xmlns="http://www.w3.org/2000/svg">
<g clip-path="url(#clip0)">
<path d="M34.7365 17.8067C34.0897 17.8067 33.5651 18.3318 33.5651 18.9786C33.5651 19.625 34.0897 20.15 34.7365 20.15C35.3833 20.15 35.9079 19.625 35.9079 18.9786C35.9079 18.3318 35.3833 17.8067 34.7365 17.8067Z" fill="white"/>
<path d="M27.632 40.6945C28.0893 40.2363 28.0893 39.4947 27.632 39.0365C27.1743 38.5796 26.4327 38.5796 25.9745 39.0365C25.5176 39.4947 25.5176 40.2363 25.9745 40.6945C26.4327 41.1513 27.1743 41.1513 27.632 40.6945Z" fill="white"/>
<path d="M13.553 59.6536C14.0071 60.1113 14.7464 60.1164 15.2065 59.6632L20.8864 54.0675C21.8514 53.1025 22.1448 51.6738 21.7204 50.4319L22.9422 49.2536C23.6 48.6183 24.4661 48.2681 25.3816 48.2681H40.9561C43.7192 48.2681 46.3307 47.207 48.3106 45.2803C48.3921 45.2011 47.6921 46.0255 58.9357 32.5874C60.6034 30.6144 60.3539 27.6518 58.3791 25.9823C56.4167 24.3284 53.4769 24.566 51.8047 26.5051L44.8915 33.6105C44.0186 32.5361 42.6874 31.8664 41.2491 31.8664H28.185C26.326 31.0887 24.3535 30.695 22.3183 30.695C16.6786 30.695 11.7517 33.2987 9.10722 38.1858C7.99348 37.9748 6.81886 38.3117 5.97383 39.1567L0.400552 44.7465C-0.0544655 45.2029 -0.055381 45.9413 0.398721 46.3986L13.553 59.6536ZM22.3178 33.0378C24.1123 33.0378 25.8472 33.399 27.4755 34.1113C27.6238 34.1763 27.7835 34.2097 27.9451 34.2097H41.2491C42.5194 34.2097 43.5924 35.2456 43.5924 36.5525C43.5924 37.8448 42.5414 38.8958 41.2491 38.8958H31.6905C31.0437 38.8958 30.5191 39.4204 30.5191 40.0672C30.5191 40.7145 31.0437 41.2387 31.6905 41.2387H41.2491C43.8332 41.2387 45.9352 39.1366 45.9352 36.5525C45.9352 36.3465 45.9206 36.1424 45.894 35.94C52.5815 29.0658 53.5245 28.0999 53.5648 28.0519C54.3997 27.0663 55.882 26.9413 56.868 27.7726C57.855 28.6071 57.9799 30.0884 57.1427 31.0795L46.6347 43.6415C45.1003 45.1145 43.0857 45.9252 40.9561 45.9252H25.3816C23.8555 45.9252 22.4108 46.5089 21.3149 47.5677L20.3192 48.5285L11.1411 39.3508C13.2861 35.3266 17.3113 33.0378 22.3178 33.0378ZM7.63185 40.8125C8.0182 40.4261 8.61146 40.3565 9.0825 40.6477C9.26149 40.7566 19.2819 50.8018 19.3437 50.8847C19.6866 51.3465 19.6376 52.0025 19.2362 52.4044L14.3939 57.1748L2.88255 45.5755L7.63185 40.8125Z" fill="white"/>
<path d="M18.3348 24.8362H46.452C48.3902 24.8362 49.9667 23.2596 49.9667 21.3215C49.9667 18.3684 49.9667 5.63755 49.9667 3.51398C49.9667 1.57581 48.3902 -0.000732422 46.452 -0.000732422H18.3348C16.3966 -0.000732422 14.8201 1.57581 14.8201 3.51398V21.3215C14.8201 23.2596 16.3966 24.8362 18.3348 24.8362ZM47.6234 9.37152H17.1634V7.02869H47.6234V9.37152ZM46.452 22.4933H18.3348C17.6889 22.4933 17.1634 21.9674 17.1634 21.3215V11.7148H47.6234V21.3215C47.6234 21.9674 47.0979 22.4933 46.452 22.4933ZM18.3348 2.34256H46.452C47.0979 2.34256 47.6234 2.86807 47.6234 3.51398V4.6854H17.1634V3.51398C17.1634 2.86807 17.6889 2.34256 18.3348 2.34256Z" fill="white"/>
<path d="M44.1088 17.8067H39.4226C38.7758 17.8067 38.2512 18.3313 38.2512 18.9786C38.2512 19.6254 38.7758 20.15 39.4226 20.15H44.1088C44.756 20.15 45.2806 19.6254 45.2806 18.9786C45.2806 18.3313 44.756 17.8067 44.1088 17.8067Z" fill="white"/>
</g>
<defs>
<clipPath id="clip0">
<rect width="59.8828" height="60" fill="white" transform="translate(0 -0.000732422)"/>
</clipPath>
</defs>
</svg>
