<svg width="76" height="20" viewBox="0 0 76 20" fill="none" xmlns="http://www.w3.org/2000/svg">
<path d="M7.33103 18.999C7.1577 18.999 7.01036 18.947 6.88903 18.843C6.78503 18.7217 6.73303 18.5744 6.73303 18.401V3.84102L2.41703 7.16902C2.2957 7.27302 2.1657 7.32502 2.02703 7.32502C1.87103 7.32502 1.7237 7.23836 1.58503 7.06502L0.909029 6.20702C0.822363 6.08569 0.779029 5.96436 0.779029 5.84302C0.779029 5.63502 0.865696 5.47036 1.03903 5.34902L6.70703 0.981023C6.8977 0.859689 7.12303 0.799022 7.38303 0.799022H8.70903C8.88236 0.799022 9.02103 0.859689 9.12503 0.981023C9.24636 1.08502 9.30703 1.22369 9.30703 1.39702V18.401C9.30703 18.5744 9.24636 18.7217 9.12503 18.843C9.02103 18.947 8.88236 18.999 8.70903 18.999H7.33103ZM13.1481 18.999C12.9748 18.999 12.8275 18.947 12.7061 18.843C12.6021 18.7217 12.5501 18.5744 12.5501 18.401V17.569C12.5501 17.1704 12.7668 16.789 13.2001 16.425L18.7121 10.913C20.0468 9.80369 20.9655 8.90236 21.4681 8.20902C21.9708 7.49836 22.2221 6.75302 22.2221 5.97302C22.2221 4.96769 21.9361 4.17902 21.3641 3.60702C20.8095 3.03502 19.9948 2.74902 18.9201 2.74902C17.9148 2.74902 17.1088 3.05236 16.5021 3.65902C15.8955 4.24836 15.5228 5.03702 15.3841 6.02502C15.3495 6.23302 15.2628 6.38902 15.1241 6.49302C15.0028 6.57969 14.8641 6.62302 14.7081 6.62302H13.3561C13.2001 6.62302 13.0701 6.57969 12.9661 6.49302C12.8621 6.38902 12.8101 6.26769 12.8101 6.12902C12.8448 5.19302 13.0961 4.30036 13.5641 3.45102C14.0321 2.58436 14.7168 1.88236 15.6181 1.34502C16.5368 0.790356 17.6375 0.513023 18.9201 0.513023C20.8788 0.513023 22.3521 1.02436 23.3401 2.04702C24.3455 3.05236 24.8481 4.33502 24.8481 5.89502C24.8481 6.98702 24.5708 7.97502 24.0161 8.85902C23.4788 9.72569 22.6381 10.6617 21.4941 11.667L16.5021 16.737H24.6141C24.8048 16.737 24.9521 16.7977 25.0561 16.919C25.1775 17.023 25.2381 17.1617 25.2381 17.335V18.401C25.2381 18.5744 25.1775 18.7217 25.0561 18.843C24.9348 18.947 24.7875 18.999 24.6141 18.999H13.1481ZM34.1829 18.999C34.0096 18.999 33.8623 18.9384 33.7409 18.817C33.6196 18.6957 33.5589 18.5484 33.5589 18.375V17.413C33.5589 17.2397 33.6109 17.101 33.7149 16.997C33.8189 16.893 33.9489 16.841 34.1049 16.841C34.9369 16.8064 35.5523 16.217 35.9509 15.073C36.3669 13.9117 36.5749 12.0224 36.5749 9.40502V6.07702C36.5749 5.90369 36.6269 5.76502 36.7309 5.66102C36.8523 5.53969 36.9996 5.47902 37.1729 5.47902H45.4409C45.6143 5.47902 45.7529 5.53969 45.8569 5.66102C45.9783 5.76502 46.0389 5.90369 46.0389 6.07702V18.401C46.0389 18.5744 45.9783 18.7217 45.8569 18.843C45.7529 18.947 45.6143 18.999 45.4409 18.999H44.1929C44.0196 18.999 43.8809 18.947 43.7769 18.843C43.6729 18.7217 43.6209 18.5744 43.6209 18.401V7.55902H38.9409V9.69102C38.9409 13.0017 38.5596 15.385 37.7969 16.841C37.0343 18.2797 35.8296 18.999 34.1829 18.999ZM55.323 19.259C53.5376 19.259 52.1076 18.713 51.033 17.621C49.9756 16.5117 49.395 15.0037 49.291 13.097L49.265 12.213L49.291 11.355C49.4123 9.48302 50.0016 7.99236 51.059 6.88302C52.1336 5.77369 53.5463 5.21902 55.297 5.21902C57.221 5.21902 58.7116 5.83436 59.769 7.06502C60.8263 8.27836 61.355 9.92502 61.355 12.005V12.447C61.355 12.6204 61.2943 12.7677 61.173 12.889C61.069 12.993 60.9303 13.045 60.757 13.045H51.761V13.279C51.813 14.4057 52.151 15.3677 52.775 16.165C53.4163 16.945 54.257 17.335 55.297 17.335C56.0943 17.335 56.7443 17.179 57.247 16.867C57.767 16.5377 58.1483 16.1997 58.391 15.853C58.547 15.645 58.6596 15.5237 58.729 15.489C58.8156 15.437 58.963 15.411 59.171 15.411H60.445C60.601 15.411 60.731 15.4544 60.835 15.541C60.939 15.6277 60.991 15.749 60.991 15.905C60.991 16.2864 60.7483 16.7457 60.263 17.283C59.795 17.8204 59.1276 18.2884 58.261 18.687C57.4116 19.0684 56.4323 19.259 55.323 19.259ZM58.885 11.251V11.173C58.885 9.97702 58.5556 9.00636 57.897 8.26102C57.2556 7.49836 56.389 7.11702 55.297 7.11702C54.205 7.11702 53.3383 7.49836 52.697 8.26102C52.073 9.00636 51.761 9.97702 51.761 11.173V11.251H58.885ZM68.5978 18.999C68.4245 18.999 68.2771 18.947 68.1558 18.843C68.0518 18.7217 67.9998 18.5744 67.9998 18.401V7.55902H63.4758C63.3025 7.55902 63.1551 7.50702 63.0338 7.40302C62.9298 7.28169 62.8778 7.13436 62.8778 6.96102V6.07702C62.8778 5.90369 62.9298 5.76502 63.0338 5.66102C63.1551 5.53969 63.3025 5.47902 63.4758 5.47902H74.9158C75.0891 5.47902 75.2278 5.53969 75.3318 5.66102C75.4531 5.76502 75.5138 5.90369 75.5138 6.07702V6.96102C75.5138 7.13436 75.4531 7.28169 75.3318 7.40302C75.2278 7.50702 75.0891 7.55902 74.9158 7.55902H70.3918V18.401C70.3918 18.5744 70.3398 18.7217 70.2358 18.843C70.1318 18.947 69.9931 18.999 69.8198 18.999H68.5978Z" fill="white"/>
</svg>
