<svg width="60" height="60" viewBox="0 0 60 60" fill="none" xmlns="http://www.w3.org/2000/svg">
<g clip-path="url(#clip0)">
<path d="M20.2203 45.9247C20.2051 45.8497 20.1828 45.7758 20.1535 45.7043C20.1242 45.634 20.0879 45.5661 20.0457 45.5028C20.0035 45.4383 19.9543 45.3786 19.9004 45.3247C19.8465 45.2708 19.7867 45.2215 19.7223 45.1793C19.659 45.1372 19.591 45.1008 19.5196 45.0715C19.4492 45.0422 19.3754 45.0188 19.3004 45.0047C19.1492 44.9743 18.9934 44.9743 18.8434 45.0047C18.7684 45.0188 18.6946 45.0422 18.6231 45.0715C18.5528 45.1008 18.4848 45.1372 18.4215 45.1793C18.3571 45.2215 18.2973 45.2708 18.2434 45.3247C18.1895 45.3786 18.1403 45.4383 18.0981 45.5028C18.0547 45.5661 18.0196 45.634 17.9903 45.7043C17.961 45.7758 17.9375 45.8497 17.9235 45.9247C17.9082 45.9997 17.9 46.077 17.9 46.1532C17.9 46.2293 17.9082 46.3067 17.9235 46.3817C17.9375 46.4567 17.961 46.5305 17.9903 46.6008C18.0196 46.6723 18.0547 46.7403 18.0981 46.8036C18.1403 46.868 18.1895 46.9278 18.2434 46.9817C18.2973 47.0356 18.3571 47.0848 18.4215 47.127C18.4848 47.1693 18.5528 47.2056 18.6231 47.2349C18.6946 47.2642 18.7684 47.2877 18.8434 47.3017C18.9184 47.317 18.9957 47.3252 19.0719 47.3252C19.1481 47.3252 19.2254 47.317 19.3004 47.3017C19.3754 47.2877 19.4492 47.2642 19.5196 47.2349C19.591 47.2056 19.659 47.1692 19.7223 47.127C19.7867 47.0848 19.8465 47.0356 19.9004 46.9817C19.9543 46.9278 20.0035 46.868 20.0457 46.8036C20.0879 46.7403 20.1242 46.6723 20.1535 46.6008C20.1828 46.5305 20.2051 46.4567 20.2203 46.3817C20.2356 46.3067 20.2438 46.2293 20.2438 46.1532C20.2438 46.077 20.2356 45.9997 20.2203 45.9247Z" fill="white"/>
<path d="M53.9051 46.2861C53.9005 46.2744 53.8958 46.2628 53.8909 46.2513C52.8123 43.7274 50.2827 42.7946 47.289 43.8171L39.1248 46.0748C38.6528 44.6453 37.4754 43.4289 35.8106 42.8111C35.8003 42.8074 35.79 42.8036 35.7796 42.8001L26.8052 39.7542C26.0583 38.7887 23.7185 36.3181 19.3377 36.3181C16.2762 36.3181 13.5678 38.4183 12.0184 40.7076H1.17151C0.524282 40.7076 -0.000366211 41.2323 -0.000366211 41.8795V56.6541C-0.000366211 57.3014 0.524282 57.826 1.17151 57.826H8.13913C8.78635 57.826 9.311 57.3014 9.311 56.6541V55.6423H12.5785C13.2258 55.6423 13.7504 55.1177 13.7504 54.4705V54.1332C15.6552 54.2994 16.2817 54.6607 18.031 55.6694C19.3764 56.4452 21.4097 57.6176 25.0713 59.264C25.0883 59.2716 25.1055 59.2789 25.1228 59.2857C25.8255 59.5621 27.1993 59.9964 28.893 59.9964C30.0719 59.9964 31.4061 59.7858 32.7756 59.1651L50.8214 52.7039C50.8535 52.6924 50.8851 52.6795 50.9161 52.6652C52.6407 51.8717 55.2108 49.6354 53.9051 46.2861ZM6.96725 55.4821H2.34338V43.0512H6.96725V55.4821ZM11.4067 53.2985H9.311V43.0512H11.4067V53.2985ZM49.9796 50.5156L31.9419 56.9739C31.9261 56.9796 31.9046 56.988 31.889 56.9943C31.8732 57.0008 31.8574 57.0076 31.8418 57.0147C29.3297 58.1692 26.9417 57.4781 26.0059 57.1142C22.4689 55.5227 20.5812 54.4341 19.2019 53.6388C17.2842 52.533 16.3602 52 13.7504 51.7845V42.346C14.8612 40.5254 17.0154 38.6617 19.3378 38.6617C23.3205 38.6617 25.0082 41.2522 25.0745 41.3567C25.2176 41.5894 25.4375 41.7649 25.6962 41.8526L35.0096 45.0137C36.4971 45.5719 37.2832 46.8458 36.9219 48.1161C36.7551 48.7027 36.3698 49.1893 35.8371 49.4861C35.3089 49.7804 34.6984 49.8532 34.1164 49.6921L23.6173 46.365C22.9999 46.1694 22.3415 46.5111 22.1461 47.1281C21.9505 47.7451 22.2922 48.4037 22.9092 48.5992L33.4267 51.9322C33.4378 51.9357 33.4489 51.9391 33.4602 51.9423C33.8801 52.0617 34.3076 52.1207 34.7325 52.1207C35.5104 52.1207 36.2797 51.9226 36.9779 51.5335C38.0576 50.932 38.8383 49.946 39.1762 48.7571C39.2032 48.6622 39.2271 48.5673 39.2478 48.4723L48.0466 46.0348C49.3174 45.6008 50.9856 45.4443 51.7283 47.1549C52.4971 49.1632 50.499 50.2679 49.9796 50.5156Z" fill="white"/>
<path d="M42.077 15.4142C42.0617 15.3392 42.0395 15.2653 42.009 15.1939C41.9797 15.1236 41.9446 15.0556 41.9012 14.9923C41.859 14.9279 41.8098 14.8681 41.7559 14.8142C41.702 14.7603 41.6422 14.7111 41.5778 14.6689C41.5145 14.6267 41.4465 14.5904 41.3762 14.5611C41.3047 14.5318 41.2309 14.5083 41.1571 14.4943C41.0059 14.4638 40.85 14.4638 40.6989 14.4943C40.6239 14.5083 40.55 14.5318 40.4797 14.5611C40.4082 14.5904 40.3403 14.6267 40.277 14.6689C40.2125 14.7111 40.1528 14.7603 40.0989 14.8142C40.0449 14.8681 39.9957 14.9279 39.9535 14.9923C39.9114 15.0556 39.875 15.1236 39.8457 15.1939C39.8164 15.2653 39.793 15.3392 39.7789 15.4142C39.7637 15.4892 39.7555 15.5665 39.7555 15.6427C39.7555 15.7189 39.7637 15.7962 39.7789 15.8712C39.793 15.9462 39.8164 16.02 39.8457 16.0904C39.875 16.1618 39.9114 16.2298 39.9535 16.2931C39.9957 16.3575 40.0449 16.4173 40.0989 16.4712C40.1528 16.5251 40.2125 16.5743 40.277 16.6165C40.3403 16.6587 40.4082 16.695 40.4797 16.7243C40.55 16.7536 40.6239 16.7759 40.6989 16.7911C40.7739 16.8064 40.8512 16.8146 40.9274 16.8146C41.0035 16.8146 41.0809 16.8064 41.1571 16.7911C41.2309 16.7759 41.3047 16.7536 41.3762 16.7243C41.4465 16.695 41.5145 16.6587 41.5778 16.6165C41.6422 16.5743 41.702 16.5251 41.7559 16.4712C41.8098 16.4173 41.859 16.3575 41.9012 16.2931C41.9446 16.2298 41.9797 16.1618 42.009 16.0904C42.0395 16.02 42.0617 15.9462 42.077 15.8712C42.0922 15.7962 42.0992 15.7189 42.0992 15.6427C42.0992 15.5665 42.0922 15.4892 42.077 15.4142Z" fill="white"/>
<path d="M58.828 3.97046H51.8604C51.2131 3.97046 50.6885 4.49511 50.6885 5.14234V6.15414H47.421C46.7737 6.15414 46.2491 6.67878 46.2491 7.32601V7.66328C44.3443 7.49699 43.7178 7.13582 41.9686 6.12707C40.6233 5.35128 38.5899 4.17882 34.9282 2.53246C34.9112 2.52472 34.8941 2.51757 34.8766 2.51078C33.6847 2.04179 30.5608 1.11906 27.2244 2.63113L22.5088 4.31957L18.5339 0.3448C18.0763 -0.112817 17.3342 -0.112817 16.8766 0.3448L3.82686 13.3944C3.40475 13.8167 3.32377 14.5487 3.82686 15.0518L26.1261 37.3511C26.483 37.708 27.3185 37.816 27.7835 37.3511L39.6974 25.4373C40.0071 25.4641 40.3285 25.4785 40.6617 25.4785C43.7233 25.4785 46.4315 23.3782 47.9809 21.0891H58.828C59.4752 21.0891 59.9999 20.5644 59.9999 19.9172V5.14234C59.9999 4.49511 59.4752 3.97046 58.828 3.97046ZM17.7051 2.8307L20.3761 5.50164C19.5821 5.99265 18.6642 6.25539 17.7051 6.25539C16.746 6.25539 15.8281 5.99277 15.0342 5.50164L17.7051 2.8307ZM8.98381 16.8941L6.31287 14.2231L8.98381 11.5521C9.47483 12.3461 9.73756 13.264 9.73756 14.2231C9.73756 15.1821 9.47494 16.1001 8.98381 16.8941ZM26.9549 34.8651L24.2844 32.1946C25.9148 31.1884 27.9947 31.1884 29.6252 32.1946L26.9549 34.8651ZM31.3137 30.5064C28.724 28.6279 25.1857 28.6279 22.5961 30.5064L10.6721 18.5823C11.5872 17.3237 12.0813 15.8119 12.0813 14.2231C12.0813 12.6341 11.5874 11.1224 10.6721 9.86382L13.346 7.19007C14.6046 8.10519 16.1163 8.59925 17.7053 8.59925C19.2942 8.59925 20.8059 8.10519 22.0645 7.19007L24.5992 9.72472C24.0522 9.80546 23.5189 9.9857 23.0216 10.2628C22.1816 10.7309 21.5225 11.4318 21.1121 12.2798C19.7903 12.5246 18.5665 13.1645 17.6065 14.1244C15.002 16.729 15.002 20.9669 17.6066 23.5715C18.9088 24.8737 20.6194 25.5249 22.3301 25.5249C24.0406 25.5249 25.7513 24.8738 27.0537 23.5715C27.9009 22.7242 28.4945 21.6829 28.7918 20.548L32.7485 21.8909C32.3031 23.9543 32.7593 26.1251 33.9899 27.8302L31.3137 30.5064ZM24.1889 18.9853C24.1992 18.9891 24.2095 18.9928 24.2199 18.9964L26.5632 19.7917C26.3863 20.5903 25.9858 21.3246 25.3964 21.9142C23.7056 23.6048 20.9545 23.605 19.264 21.9142C17.5732 20.2235 17.5732 17.4726 19.264 15.7818C19.6718 15.3737 20.1531 15.0549 20.6775 14.8387C20.8938 16.6389 22.19 18.2435 24.1889 18.9853ZM35.6784 26.1415C35.2261 25.4044 34.9701 24.5631 34.9297 23.7045C35.491 24.1103 36.1771 24.5079 36.9964 24.8235L35.6784 26.1415ZM46.249 19.45C45.1383 21.2709 42.9841 23.1345 40.6617 23.1345C40.2272 23.1345 39.8199 23.1035 39.4392 23.0485C39.4377 23.0482 39.4362 23.048 39.4346 23.0478C36.9039 22.6802 35.5425 21.2418 35.0938 20.6723C35.0699 20.6371 34.968 20.5039 34.9529 20.4817C34.8164 20.2377 34.5926 20.0416 34.3071 19.9446L24.9897 16.7823C23.5029 16.2243 22.7169 14.951 23.0771 13.6812C23.0774 13.6804 23.0776 13.6796 23.0778 13.6787C23.0782 13.6778 23.0784 13.6768 23.0787 13.6758C23.2461 13.0911 23.6307 12.606 24.1623 12.3099C24.6903 12.0156 25.3008 11.9426 25.883 12.104L36.3821 15.431C36.9992 15.6269 37.6578 15.2849 37.8533 14.6679C38.0488 14.0509 37.7072 13.3923 37.0902 13.1968L28.74 10.5507L28.6671 10.4778C28.6664 10.4771 28.6657 10.4762 28.6649 10.4755L24.3418 6.1525L28.0576 4.82195C28.0701 4.81738 28.0856 4.81164 28.098 4.8066C28.1012 4.80531 28.1073 4.80296 28.1103 4.80167C28.1263 4.79523 28.142 4.78843 28.1576 4.78128C30.6696 3.62675 33.0574 4.31781 33.9934 4.68179C37.5305 6.27332 39.4183 7.36187 40.7976 8.15722C42.7153 9.26312 43.6393 9.79597 46.249 10.0115V19.45ZM50.6885 18.7451H48.5928V8.49789H50.6885V18.7451ZM57.6561 18.7451H53.0322V6.31421H57.6561V18.7451Z" fill="white"/>
</g>
<defs>
<clipPath id="clip0">
<rect width="60" height="60" fill="white" transform="translate(-0.000366211 -0.000976562)"/>
</clipPath>
</defs>
</svg>
