<svg width="60" height="60" viewBox="0 0 60 60" fill="none" xmlns="http://www.w3.org/2000/svg">
<g clip-path="url(#clip0)">
<path d="M27.6643 41.8258C27.4465 41.6067 27.1441 41.4825 26.8359 41.4825C26.5277 41.4825 26.2254 41.6067 26.0074 41.8258C25.7895 42.0438 25.6641 42.345 25.6641 42.6544C25.6641 42.9626 25.7893 43.2649 26.0074 43.4829C26.2254 43.7008 26.5277 43.8262 26.8359 43.8262C27.1441 43.8262 27.4465 43.7008 27.6643 43.4829C27.8823 43.2649 28.0078 42.9626 28.0078 42.6544C28.0078 42.3462 27.8824 42.0438 27.6643 41.8258Z" fill="white"/>
<path d="M52.5 31.4081C51.8529 31.4081 51.3281 31.9327 51.3281 32.58V37.7337H31.1719V34.8412C31.1719 30.385 27.821 26.6992 23.5072 26.1646C24.3598 25.1125 24.872 23.7739 24.872 22.3173V14.0731C24.872 13.4259 24.3472 12.9012 23.7001 12.9012H17.5686C14.8445 12.9012 12.6282 15.1175 12.6282 17.8416V22.3173C12.6282 23.7738 13.1404 25.1124 13.993 26.1646C9.67898 26.6994 6.32812 30.3851 6.32812 34.8413V37.7339H2.34375V9.58003C2.34375 9.07893 2.75402 8.67136 3.2584 8.67136H27.6172C28.2643 8.67136 28.7891 8.14671 28.7891 7.49948C28.7891 6.85225 28.2643 6.32761 27.6172 6.32761H3.2584C1.4618 6.32761 0 7.78659 0 9.58003V44.3252C0 46.1186 1.4618 47.5776 3.2584 47.5776H21.0914V52.991C18.1351 53.2904 15.8203 55.7937 15.8203 58.8276C15.8203 59.4748 16.3451 59.9995 16.9922 59.9995H36.6797C37.3268 59.9995 37.8516 59.4748 37.8516 58.8276C37.8516 55.7939 35.5368 53.2905 32.5806 52.991V47.5776H50.4136C52.2102 47.5776 53.672 46.1186 53.672 44.3252V32.58C53.6719 31.9328 53.1471 31.4081 52.5 31.4081ZM14.9719 17.8419C14.9719 16.4101 16.1367 15.2452 17.5685 15.2452H22.5281V17.1162C22.5281 18.0458 21.7719 18.802 20.8423 18.802H14.9719V17.8419ZM14.9719 21.1457H20.8424C21.4441 21.1457 22.015 21.0123 22.5282 20.7747V22.3175H22.5281C22.5281 24.4007 20.8332 26.0956 18.75 26.0956C16.6668 26.0956 14.9719 24.4007 14.9719 22.3175V21.1457ZM20.1175 28.4394L18.75 29.8068L17.3825 28.4394H20.1175ZM8.67188 34.8413C8.67188 31.6296 11.0496 28.9633 14.137 28.5085L17.9212 32.2927C18.1501 32.5216 18.45 32.636 18.7499 32.636C19.0498 32.636 19.3496 32.5216 19.5785 32.2927L23.3627 28.5085C26.4504 28.9633 28.8281 31.6296 28.8281 34.8413V37.7339H8.67188V34.8413ZM35.3073 57.6557H18.3643C18.8483 56.2874 20.1548 55.3046 21.687 55.3046H22.2633H31.4087H31.9848C33.5168 55.3046 34.8233 56.2873 35.3073 57.6557ZM23.4352 52.9608V47.5776H30.2368V52.9608H23.4352ZM51.3281 44.3252C51.3281 44.8262 50.9179 45.2339 50.4135 45.2339H3.2584C2.75402 45.2339 2.34375 44.8262 2.34375 44.3252V40.0776H51.3281V44.3252Z" fill="white"/>
<path d="M53.3284 27.3373C53.1105 27.1193 52.8082 26.994 52.5 26.994C52.1918 26.994 51.8895 27.1193 51.6715 27.3373C51.4535 27.5565 51.3281 27.8576 51.3281 28.1658C51.3281 28.4752 51.4534 28.7764 51.6715 28.9943C51.8895 29.2135 52.1918 29.3377 52.5 29.3377C52.8082 29.3377 53.1105 29.2135 53.3284 28.9943C53.5464 28.7764 53.6719 28.4752 53.6719 28.1658C53.6719 27.8576 53.5465 27.5553 53.3284 27.3373Z" fill="white"/>
<path d="M52.5 5.51004H43.7109C43.0638 5.51004 42.5391 6.03469 42.5391 6.68192C42.5391 7.32914 43.0638 7.85379 43.7109 7.85379H52.5C53.1471 7.85379 53.6719 7.32914 53.6719 6.68192C53.6719 6.03469 53.1471 5.51004 52.5 5.51004Z" fill="white"/>
<path d="M39.7346 5.8534C39.5168 5.63543 39.2145 5.51004 38.9062 5.51004C38.598 5.51004 38.2957 5.63543 38.0777 5.8534C37.8598 6.07137 37.7344 6.37371 37.7344 6.68192C37.7344 6.99012 37.8596 7.29247 38.0777 7.51043C38.2958 7.7284 38.598 7.85379 38.9062 7.85379C39.2145 7.85379 39.5168 7.7284 39.7346 7.51043C39.9526 7.29247 40.0781 6.99012 40.0781 6.68192C40.0781 6.37371 39.9527 6.07137 39.7346 5.8534Z" fill="white"/>
<path d="M52.5 10.6663H38.9062C38.2591 10.6663 37.7344 11.1909 37.7344 11.8382C37.7344 12.4854 38.2591 13.01 38.9062 13.01H52.5C53.1471 13.01 53.6719 12.4854 53.6719 11.8382C53.6719 11.1909 53.1471 10.6663 52.5 10.6663Z" fill="white"/>
<path d="M52.5 15.8225H38.9062C38.2591 15.8225 37.7344 16.3472 37.7344 16.9944C37.7344 17.6416 38.2591 18.1663 38.9062 18.1663H52.5C53.1471 18.1663 53.6719 17.6416 53.6719 16.9944C53.6719 16.3472 53.1471 15.8225 52.5 15.8225Z" fill="white"/>
<path d="M54.1406 0.00222778H37.2656C34.0348 0.00222778 31.4062 2.63074 31.4062 5.8616V18.4007C31.4062 21.4071 33.682 23.892 36.6015 24.2227V27.2678C36.6015 27.7417 36.8871 28.1691 37.3249 28.3505C37.4699 28.4106 37.6222 28.4398 37.7732 28.4398C38.0782 28.4398 38.3779 28.3206 38.602 28.0965L42.4384 24.26H54.1406C57.3715 24.26 60 21.6315 60 18.4007V5.8616C60 2.63074 57.3715 0.00222778 54.1406 0.00222778ZM57.6562 18.4007C57.6562 20.3392 56.0791 21.9163 54.1406 21.9163H41.9531C41.6423 21.9163 41.3443 22.0398 41.1245 22.2595L38.9453 24.4388V23.0882C38.9453 22.4409 38.4205 21.9163 37.7734 21.9163H37.2656C35.3271 21.9163 33.75 20.3392 33.75 18.4007V5.8616C33.75 3.92309 35.3271 2.34598 37.2656 2.34598H54.1406C56.0791 2.34598 57.6562 3.92309 57.6562 5.8616V18.4007Z" fill="white"/>
</g>
<defs>
<clipPath id="clip0">
<rect width="60" height="60" fill="white" transform="translate(0 0.000854492)"/>
</clipPath>
</defs>
</svg>
