<svg width="60" height="60" viewBox="0 0 60 60" fill="none" xmlns="http://www.w3.org/2000/svg">
<g clip-path="url(#clip0)">
<path d="M57.3871 12.9091L55.9326 12.4546C55.5689 12.3636 55.2052 12.2727 54.7508 12.2727C53.1144 12.2727 51.6599 13.3636 51.1144 14.9091L50.2962 17.3636V15.5453V15.4546C50.2962 15.1818 50.1144 14.9091 49.9326 14.7272L35.0235 0.272749C34.8417 0.0909162 34.5689 0 34.3871 0H5.2053C4.6598 0 4.29626 0.363665 4.29626 0.909041V3.7272H0.932601C0.387104 3.7272 0.0235596 4.09087 0.0235596 4.63624V59.0908C0.0235596 59.6363 0.387224 59.9999 0.932601 59.9999H45.1144C45.6599 59.9999 46.0234 59.6362 46.0234 59.0908V56.2727H49.3871C49.9326 56.2727 50.2961 55.909 50.2961 55.3636V43.0909L52.8415 39.6363L52.9324 39.3636L59.7507 17.6363C60.478 15.6364 59.3871 13.5454 57.3871 12.9091ZM35.2962 3.09091L47.2052 14.5455H35.2962V3.09091ZM44.2053 58.1818H1.84164V5.54541H4.29614V55.3636C4.29614 55.9091 4.6598 56.2727 5.20518 56.2727H44.2052V58.1818H44.2053ZM48.569 54.4546H48.478H6.11434V1.8182H33.478V15.4546C33.478 16 33.8416 16.3636 34.387 16.3636H48.5688V23.1818L44.2961 36.6363V36.9091L44.478 48.4546C44.478 48.8183 44.7507 49.1819 45.1144 49.2727C45.478 49.3636 45.9325 49.2727 46.1143 48.9091L48.5688 45.6363V54.4546H48.569ZM46.2053 45.6363L46.0234 38.0909L50.5689 39.5454L46.2053 45.6363ZM58.1144 17.0909L51.569 37.9092L46.2962 36.1819L52.8417 15.4546C53.2053 14.4546 54.2962 13.8182 55.2962 14.1818L56.7507 14.6364C57.8417 14.9091 58.478 16.091 58.1144 17.0909Z" fill="white"/>
<path d="M12.296 16.3628H25.387C25.9325 16.3628 26.296 15.9992 26.296 15.4538V6.18105C26.296 5.63555 25.9324 5.27201 25.387 5.27201H12.296C11.7505 5.27201 11.387 5.63568 11.387 6.18105V15.4538C11.387 15.9084 11.8415 16.3628 12.296 16.3628ZM13.2052 7.09009H24.4779V14.5446H13.2052V7.09009Z" fill="white"/>
<path d="M10.4784 24.9091H38.1147C38.6602 24.9091 39.0238 24.5454 39.0238 24C39.0238 23.4545 38.6601 23.091 38.1147 23.091H10.4784C9.93288 23.091 9.56934 23.4547 9.56934 24C9.56922 24.5454 9.93288 24.9091 10.4784 24.9091Z" fill="white"/>
<path d="M10.4784 31.5456H38.1147C38.6602 31.5456 39.0238 31.1819 39.0238 30.6366C39.0238 30.0912 38.6601 29.7275 38.1147 29.7275H10.4784C9.93288 29.7275 9.56934 30.0912 9.56934 30.6366C9.56934 31.1819 9.93288 31.5456 10.4784 31.5456Z" fill="white"/>
<path d="M10.4784 38.1811H38.1147C38.6602 38.1811 39.0238 37.8175 39.0238 37.2721C39.0238 36.7267 38.6601 36.3631 38.1147 36.3631H10.4784C9.93288 36.3631 9.56934 36.7267 9.56934 37.2721C9.56934 37.8175 9.93288 38.1811 10.4784 38.1811Z" fill="white"/>
<path d="M38.9329 43.9086C38.9329 43.3631 38.5692 42.9996 38.0238 42.9996H10.4784C9.93288 42.9996 9.56934 43.3633 9.56934 43.9086C9.56934 44.454 9.933 44.8177 10.4784 44.8177H38.1147C38.5692 44.8177 38.9329 44.3631 38.9329 43.9086Z" fill="white"/>
<path d="M41.9327 49.6368H28.2054C27.6599 49.6368 27.2964 50.0005 27.2964 50.5459C27.2964 51.0913 27.6601 51.4549 28.2054 51.4549H41.8418C42.3873 51.4549 42.7508 51.0913 42.7508 50.5459C42.7508 50.0005 42.3873 49.6368 41.9327 49.6368Z" fill="white"/>
</g>
<defs>
<clipPath id="clip0">
<rect width="60" height="60" fill="white" transform="translate(0.000488281)"/>
</clipPath>
</defs>
</svg>
