<svg width="60" height="61" viewBox="0 0 60 61" fill="none" xmlns="http://www.w3.org/2000/svg">
<g clip-path="url(#clip0)">
<path d="M59.9998 35.8393C59.9998 35.8374 59.9996 35.8357 59.9996 35.8338C59.9878 27.2498 53.0009 20.2699 44.4141 20.2699C43.767 20.2699 43.2423 20.7945 43.2423 21.4418V34.6674H35.5039L30.8282 29.9991C30.6085 29.7798 30.3107 29.6566 30.0003 29.6566H26.5676C26.5834 29.2809 26.5413 28.8997 26.4364 28.5246L23.5751 18.2922C22.7794 15.4464 20.5127 13.2938 17.7435 12.5664C18.8981 11.4194 19.6141 9.83164 19.6141 8.07969V7.14219C19.6141 3.65281 16.7752 0.814178 13.2861 0.814178C9.79694 0.814178 6.95808 3.65293 6.95808 7.14219V8.07969C6.95808 9.83176 7.67421 11.4195 8.82862 12.5664C6.05937 13.2938 3.79273 15.4466 2.99691 18.2923L0.135656 28.5246C-0.171493 29.6231 0.0477653 30.7743 0.737297 31.6831C1.42683 32.5919 2.47648 33.113 3.61718 33.113C4.00284 33.113 4.34386 32.9259 4.55737 32.6384L2.85101 43.0456C2.79534 43.385 2.89167 43.7318 3.11421 43.9939C3.33687 44.2561 3.66359 44.4071 4.00741 44.4071H7.42683V53.885C4.74745 54.4297 2.7248 56.8037 2.7248 59.6412C2.7248 60.2884 3.24956 60.8131 3.89667 60.8131H13.2862H22.6757C23.3228 60.8131 23.8476 60.2884 23.8476 59.6412C23.8476 56.8036 21.8248 54.4297 19.1456 53.885V44.4071H22.565C22.9089 44.4071 23.2355 44.2561 23.4582 43.9939C23.6807 43.7319 23.7771 43.3851 23.7214 43.0456L22.0437 32.8135C22.251 32.9991 22.524 33.1129 22.8242 33.1129H22.9553C23.9558 33.1129 24.886 32.7119 25.5649 32.0002H29.5157L32.1873 34.6675H30.0007C29.3535 34.6675 28.8288 35.1923 28.8288 35.8394C28.8288 42.0945 33.097 47.3708 38.8737 48.9109C38.9042 48.9503 38.9364 48.9888 38.9726 49.025L42.1255 52.1778L40.5411 53.7622C40.0385 53.5089 39.4715 53.3653 38.8713 53.3653C36.8179 53.3653 35.1473 55.0359 35.1473 57.0893C35.1473 59.1426 36.8179 60.8132 38.8713 60.8132C40.9246 60.8132 42.5953 59.1426 42.5953 57.0893C42.5953 56.489 42.4517 55.9221 42.1983 55.4195L43.7827 53.8351L45.3671 55.4195C45.1139 55.9221 44.9702 56.489 44.9702 57.0893C44.9702 59.1426 46.6408 60.8132 48.6942 60.8132C50.7475 60.8132 52.4182 59.1426 52.4182 57.0893C52.4182 55.0359 50.7475 53.3653 48.6942 53.3653C48.0939 53.3653 47.527 53.5088 47.0244 53.7622L45.44 52.1778L48.388 49.23C54.9362 48.2982 59.9892 42.6603 60 35.8613C60 35.8595 60.0002 35.8577 60.0002 35.8558C60.0003 35.853 60.0002 35.8503 60.0002 35.8475C59.9997 35.8448 59.9998 35.842 59.9998 35.8393ZM9.30183 7.14207C9.30183 4.94504 11.0892 3.15769 13.2861 3.15769C15.4831 3.15769 17.2703 4.94504 17.2703 7.14207V8.07957C17.2703 10.2766 15.483 12.0638 13.2861 12.0638C11.0892 12.0638 9.30183 10.2765 9.30183 8.07957V7.14207ZM12.1143 58.4694H5.26835C5.75269 57.0971 7.06273 56.111 8.5987 56.111H12.1143V58.4694ZM12.1143 53.7673H9.77058V44.4071H12.1143V53.7673ZM21.3038 58.4694H14.458V56.111H17.9736C19.5096 56.111 20.8195 57.0971 21.3038 58.4694ZM14.458 53.7673V44.4071H16.8017V53.7673H14.458ZM23.9676 30.2664C23.7251 30.586 23.356 30.7693 22.9549 30.7693H22.824C22.3873 30.7693 22.0073 31.0086 21.8056 31.3627L20.301 22.1866C20.1963 21.5479 19.5945 21.1148 18.955 21.2198C18.3164 21.3246 17.8835 21.9271 17.9882 22.5658L21.185 42.0634H5.38718L5.77144 39.7196H12.5786C13.2257 39.7196 13.7505 39.1948 13.7505 38.5477C13.7505 37.9006 13.2257 37.3759 12.5786 37.3759H6.15569L8.58382 22.5657C8.68859 21.927 8.2557 21.3243 7.61702 21.2197C6.97788 21.1146 6.37566 21.5479 6.27101 22.1865L4.73116 31.5785C4.57835 31.1089 4.13761 30.7692 3.61718 30.7692C3.21605 30.7692 2.84691 30.5859 2.60433 30.2662C2.36198 29.9466 2.28476 29.5418 2.3928 29.1555L5.25405 18.9232C5.95894 16.4023 8.27937 14.6418 10.8967 14.6418H15.6751C18.2927 14.6418 20.613 16.4025 21.3178 18.9232L24.179 29.1555C24.2872 29.542 24.2101 29.9468 23.9676 30.2664ZM38.8708 58.4694C38.1098 58.4694 37.4906 57.8502 37.4906 57.0891C37.4906 56.3281 38.1098 55.7089 38.8708 55.7089C39.6318 55.7089 40.251 56.3281 40.251 57.0891C40.251 57.8502 39.6318 58.4694 38.8708 58.4694ZM48.6938 55.7089C49.4548 55.7089 50.0741 56.328 50.0741 57.0891C50.0741 57.8502 49.4548 58.4694 48.6938 58.4694C47.9328 58.4694 47.3136 57.8502 47.3136 57.0891C47.3136 56.3281 47.9328 55.7089 48.6938 55.7089ZM45.586 22.6652C48.3587 22.9093 50.888 24.0124 52.9076 25.705L45.586 33.0267V22.6652ZM43.7823 50.5203L42.6278 49.3659H44.9368L43.7823 50.5203ZM46.4732 47.0221H42.355C36.5844 47.0221 31.8205 42.629 31.2332 37.0111H34.5344L38.6254 41.0955C38.8542 41.3239 39.1538 41.4382 39.4534 41.4382C39.7536 41.4382 40.0538 41.3234 40.2826 41.0942C40.7398 40.6362 40.7392 39.8942 40.2813 39.437L37.8513 37.0108H44.2255C44.2326 37.012 44.2398 37.0129 44.2469 37.0139C44.264 37.0163 44.281 37.0196 44.2984 37.0212C44.3368 37.025 44.3753 37.0271 44.414 37.0271H52.4578C52.1602 38.514 51.3154 39.862 50.0707 40.7716C49.5481 41.1535 49.4341 41.8868 49.8159 42.4093C50.0455 42.7234 50.4017 42.8899 50.763 42.8899C51.0029 42.8899 51.245 42.8164 51.4536 42.6641C53.3019 41.3134 54.5156 39.2639 54.8362 37.0272H57.5929C56.9981 42.6375 52.2383 47.0221 46.4732 47.0221ZM47.2597 34.6675L54.5649 27.3623C56.2542 29.3778 57.3559 31.9013 57.603 34.6675H47.2597Z" fill="white"/>
<path d="M46.5427 41.9438L46.4732 41.9442C45.8261 41.9442 45.3013 42.469 45.3013 43.1161C45.3013 43.7632 45.8261 44.2879 46.4732 44.2879L46.5629 44.2876C47.21 44.282 47.7302 43.7529 47.7247 43.1056C47.7189 42.4585 47.1884 41.9404 46.5427 41.9438Z" fill="white"/>
<path d="M17.2764 37.7192C17.0583 37.5012 16.7561 37.3758 16.4479 37.3758C16.1397 37.3758 15.8373 37.5011 15.6195 37.7192C15.4015 37.9372 15.276 38.2395 15.276 38.5477C15.276 38.8559 15.4014 39.1582 15.6195 39.3761C15.8373 39.5941 16.1397 39.7196 16.4479 39.7196C16.7561 39.7196 17.0584 39.5942 17.2764 39.3761C17.4944 39.1582 17.6198 38.8559 17.6198 38.5477C17.6198 38.2382 17.4945 37.9372 17.2764 37.7192Z" fill="white"/>
</g>
<defs>
<clipPath id="clip0">
<rect width="60" height="60" fill="white" transform="translate(0 0.813477)"/>
</clipPath>
</defs>
</svg>
