<svg width="61" height="63" viewBox="0 0 61 63" fill="none" xmlns="http://www.w3.org/2000/svg">
<path d="M25.0693 24.7813C25.5871 24.7813 26.0068 24.3466 26.0068 23.8104C26.0068 23.2741 25.5871 22.8394 25.0693 22.8394C24.5516 22.8394 24.1318 23.2741 24.1318 23.8104C24.1318 24.3466 24.5516 24.7813 25.0693 24.7813Z" fill="white"/>
<path d="M36.3193 24.7813C36.8371 24.7813 37.2568 24.3466 37.2568 23.8104C37.2568 23.2741 36.8371 22.8394 36.3193 22.8394C35.8016 22.8394 35.3818 23.2741 35.3818 23.8104C35.3818 24.3466 35.8016 24.7813 36.3193 24.7813Z" fill="white"/>
<path d="M30.6943 33.5193C29.6603 33.5193 28.8193 32.6484 28.8193 31.5775H26.9443C26.9443 33.7193 28.6262 35.4611 30.6943 35.4611C32.7625 35.4611 34.4443 33.7193 34.4443 31.5775H32.5693C32.5693 32.6484 31.7284 33.5193 30.6943 33.5193Z" fill="white"/>
<path d="M48.3146 47.2091C50.7493 45.2062 52.0693 42.8556 52.1331 42.7391L52.6243 41.8478L51.7384 41.3886C48.5884 39.7584 46.6318 36.4816 46.6318 32.8388L46.6328 16.8693C46.6328 12.7575 45.0859 8.89235 42.2753 5.98643C39.4637 3.07954 35.724 1.47949 31.7434 1.47949H31.4996C27.7065 1.47949 24.1393 3.01061 21.4571 5.78934L19.8512 7.4525C16.75 8.82342 14.7568 11.9391 14.7568 15.446V32.832C14.7568 36.4797 12.8003 39.7584 9.65027 41.3886L8.76434 41.8478L9.25559 42.7391C9.31934 42.8546 10.6384 45.2052 13.074 47.2091C8.35371 49.9034 5.38184 55.0191 5.38184 60.7047V61.6756H56.0068V60.7047C56.0068 55.0191 53.035 49.9024 48.3146 47.2091ZM31.4987 3.4213H31.7425C35.2225 3.4213 38.4925 4.82038 40.9496 7.36027C43.405 9.89918 44.7578 13.276 44.7578 16.8683L44.7568 32.8388C44.7568 36.8554 46.7331 40.5021 49.9796 42.5934C49.3337 43.5207 48.1018 45.0576 46.3825 46.2674L37.1284 42.3459C36.0671 41.8963 35.3818 40.8381 35.3818 39.6497V38.9526C39.9953 35.6505 42.8818 30.1765 42.8818 24.1501V18.0761L32.1381 16.9635C27.3184 16.4654 23.1943 13.174 21.4712 8.5205L22.7828 7.1622C25.1106 4.7495 28.2062 3.4213 31.4987 3.4213ZM38.1943 45.1702C38.1943 46.7761 36.7225 48.0829 34.9131 48.0829C33.8284 48.0829 32.8543 47.6101 32.2525 46.8635C33.7928 46.4043 35.0631 45.2897 35.7531 43.7915C35.964 43.9246 36.1862 44.044 36.4196 44.143L38.154 44.878C38.1653 44.9761 38.1943 45.0712 38.1943 45.1702ZM23.2346 44.878L24.969 44.143C25.2034 44.044 25.4246 43.9246 25.6356 43.7915C26.3256 45.2897 27.5959 46.4043 29.1362 46.8635C28.5343 47.6101 27.5603 48.0829 26.4756 48.0829C24.6662 48.0829 23.1943 46.7761 23.1943 45.1702C23.1943 45.0712 23.2234 44.9761 23.2346 44.878ZM30.6943 39.2885C24.5125 37.0117 20.3818 30.9698 20.3818 24.1511V22.1539C20.3818 20.485 21.1937 18.9538 22.5531 18.0587L25.1621 16.3392C27.1468 17.7373 29.469 18.6402 31.9506 18.8966L41.0068 19.8345V24.1511C41.0068 30.9707 36.8762 37.0127 30.6943 39.2885ZM30.3981 41.2371L30.6943 41.339L30.9906 41.2371C31.8784 40.9303 32.7296 40.5555 33.5396 40.1186C33.6146 40.9264 33.8696 41.6876 34.2887 42.341C33.8396 43.9974 32.3912 45.1702 30.6943 45.1702C28.9965 45.1702 27.5481 43.9974 27.099 42.341C27.519 41.6876 27.774 40.9264 27.8481 40.1186C28.6581 40.5545 29.5103 40.9303 30.3981 41.2371ZM30.6943 47.9519C30.9531 48.2985 31.2606 48.6063 31.6018 48.8762L33.339 59.7338H28.0496L29.7868 48.8762C30.1281 48.6063 30.4356 48.2995 30.6943 47.9519ZM11.409 42.5934C14.6556 40.5011 16.6318 36.8525 16.6318 32.832V15.446C16.6318 13.0051 17.8759 10.8099 19.8681 9.61374C20.7175 11.7255 22.0009 13.5799 23.5984 15.0673L21.5471 16.4188C19.6431 17.6742 18.5068 19.818 18.5068 22.1539V24.1511C18.5068 30.1765 21.3934 35.6515 26.0068 38.9535V39.6506C26.0068 40.839 25.3215 41.8963 24.2593 42.3459L15.0053 46.2664C13.2868 45.0566 12.055 43.5207 11.409 42.5934ZM15.3512 48.2179L21.3484 45.677C21.6184 48.1169 23.814 50.0248 26.4756 50.0248C26.9078 50.0248 27.324 49.9587 27.729 49.8626L26.1493 59.7338H16.6318V53.9084H14.7568V59.7338H7.28965C7.63934 54.6317 10.7256 50.1782 15.3512 48.2179ZM46.6318 59.7338V53.9084H44.7568V59.7338H35.2393L33.6596 49.8626C34.0646 49.9587 34.4809 50.0248 34.9131 50.0248C37.5746 50.0248 39.7703 48.1169 40.0403 45.678L46.0375 48.2189C50.6631 50.1782 53.7493 54.6317 54.099 59.7338H46.6318Z" fill="white"/>
<path d="M40.8642 16.2031L42.7139 15.8827C42.5985 15.1691 42.4214 14.4603 42.1879 13.7778L40.4198 14.4254C40.6167 15.0021 40.7667 15.6002 40.8642 16.2031Z" fill="white"/>
<path d="M39.6278 12.6448L41.2506 11.6739C39.0765 7.78056 35.0321 5.36301 30.6943 5.36301V7.30482C34.3646 7.30482 37.7875 9.35149 39.6278 12.6448Z" fill="white"/>
</svg>
