<svg width="8" height="8" viewBox="0 0 8 8" fill="none" xmlns="http://www.w3.org/2000/svg">
<path d="M4.63282 3.60749L7.44166 0.798647C7.61617 0.624286 7.61617 0.341377 7.44166 0.167015C7.26715 -0.00749474 6.98454 -0.00749474 6.81003 0.167015L4.00119 2.97586L1.1922 0.167015C1.01769 -0.00749474 0.73508 -0.00749474 0.56057 0.167015C0.38606 0.341377 0.38606 0.624286 0.56057 0.798647L3.36956 3.60749L0.56057 6.41633C0.38606 6.59069 0.38606 6.8736 0.56057 7.04796C0.647825 7.13507 0.76218 7.17869 0.876386 7.17869C0.990592 7.17869 1.10495 7.13507 1.1922 7.04781L4.00119 4.23897L6.81003 7.04781C6.89729 7.13507 7.01164 7.17869 7.12585 7.17869C7.24005 7.17869 7.35441 7.13507 7.44166 7.04781C7.61617 6.87345 7.61617 6.59054 7.44166 6.41618L4.63282 3.60749Z" fill="white"/>
</svg>
