<svg width="417" height="64" viewBox="0 0 417 64" fill="none" xmlns="http://www.w3.org/2000/svg">
<path d="M100.197 12.0235C102.165 12.0235 103.869 12.3514 105.308 13.0074C106.768 13.6634 107.889 14.5944 108.672 15.8006C109.455 17.0067 109.846 18.435 109.846 20.0855C109.846 21.7148 109.455 23.1431 108.672 24.3704C107.889 25.5766 106.768 26.5076 105.308 27.1636C103.869 27.7984 102.165 28.1158 100.197 28.1158H95.722V34.2417H90.5801V12.0235H100.197ZM99.9117 23.9261C101.456 23.9261 102.631 23.5981 103.435 22.9421C104.239 22.265 104.641 21.3128 104.641 20.0855C104.641 18.837 104.239 17.8848 103.435 17.2289C102.631 16.5517 101.456 16.2132 99.9117 16.2132H95.722V23.9261H99.9117Z" fill="#3F4862"/>
<path d="M130.379 25.767C130.379 25.8305 130.347 26.2749 130.284 27.1001H117.365C117.598 28.1581 118.148 28.9939 119.016 29.6076C119.883 30.2212 120.963 30.528 122.253 30.528C123.142 30.528 123.925 30.4011 124.602 30.1472C125.3 29.8721 125.946 29.4489 126.538 28.8776L129.173 31.7342C127.565 33.5751 125.216 34.4956 122.126 34.4956C120.201 34.4956 118.497 34.1253 117.016 33.3847C115.535 32.6229 114.392 31.5755 113.588 30.2424C112.784 28.9093 112.382 27.3963 112.382 25.7035C112.382 24.0319 112.774 22.5295 113.557 21.1964C114.361 19.8422 115.45 18.7947 116.826 18.0541C118.222 17.2923 119.778 16.9115 121.492 16.9115C123.163 16.9115 124.676 17.2712 126.031 17.9906C127.385 18.7101 128.443 19.7469 129.205 21.1012C129.987 22.4343 130.379 23.9895 130.379 25.767ZM121.523 20.6568C120.402 20.6568 119.46 20.9742 118.698 21.609C117.937 22.2438 117.471 23.1114 117.302 24.2117H125.713C125.544 23.1326 125.078 22.2756 124.317 21.6408C123.555 20.9848 122.624 20.6568 121.523 20.6568Z" fill="#3F4862"/>
<path d="M152.108 17.1654V34.2417H147.156V21.2281H140.046V34.2417H135.127V17.1654H152.108Z" fill="#3F4862"/>
<path d="M167.805 12.0235C169.773 12.0235 171.477 12.3514 172.916 13.0074C174.376 13.6634 175.497 14.5944 176.28 15.8006C177.063 17.0067 177.454 18.435 177.454 20.0855C177.454 21.7148 177.063 23.1431 176.28 24.3704C175.497 25.5766 174.376 26.5076 172.916 27.1636C171.477 27.7984 169.773 28.1158 167.805 28.1158H163.33V34.2417H158.188V12.0235H167.805ZM167.52 23.9261C169.064 23.9261 170.239 23.5981 171.043 22.9421C171.847 22.265 172.249 21.3128 172.249 20.0855C172.249 18.837 171.847 17.8848 171.043 17.2289C170.239 16.5517 169.064 16.2132 167.52 16.2132H163.33V23.9261H167.52Z" fill="#3F4862"/>
<path d="M192.71 34.6225C190.403 34.6225 188.319 34.1253 186.457 33.1308C184.616 32.1362 183.167 30.7714 182.109 29.0363C181.072 27.28 180.553 25.3121 180.553 23.1326C180.553 20.9531 181.072 18.9957 182.109 17.2606C183.167 15.5043 184.616 14.1289 186.457 13.1344C188.319 12.1398 190.403 11.6426 192.71 11.6426C195.016 11.6426 197.09 12.1398 198.931 13.1344C200.772 14.1289 202.221 15.5043 203.279 17.2606C204.337 18.9957 204.866 20.9531 204.866 23.1326C204.866 25.3121 204.337 27.28 203.279 29.0363C202.221 30.7714 200.772 32.1362 198.931 33.1308C197.09 34.1253 195.016 34.6225 192.71 34.6225ZM192.71 30.2424C194.022 30.2424 195.207 29.9461 196.265 29.3537C197.323 28.74 198.148 27.8936 198.741 26.8144C199.354 25.7353 199.661 24.508 199.661 23.1326C199.661 21.7571 199.354 20.5299 198.741 19.4507C198.148 18.3715 197.323 17.5357 196.265 16.9432C195.207 16.3296 194.022 16.0227 192.71 16.0227C191.398 16.0227 190.213 16.3296 189.155 16.9432C188.097 17.5357 187.261 18.3715 186.648 19.4507C186.055 20.5299 185.759 21.7571 185.759 23.1326C185.759 24.508 186.055 25.7353 186.648 26.8144C187.261 27.8936 188.097 28.74 189.155 29.3537C190.213 29.9461 191.398 30.2424 192.71 30.2424Z" fill="#3F4862"/>
<path d="M232.696 30.0519V38.844H227.935V34.2417H212.255V38.844H207.494L207.526 30.0519H208.415C209.748 30.0096 210.69 29.0363 211.24 27.1318C211.79 25.2274 212.129 22.5083 212.255 18.9746L212.509 12.0235H229.586V30.0519H232.696ZM216.794 19.4507C216.689 22.0957 216.466 24.3175 216.128 26.1161C215.789 27.8936 215.271 29.2055 214.573 30.0519H224.507V16.2132H216.89L216.794 19.4507Z" fill="#3F4862"/>
<path d="M256.059 17.1654L248.346 35.2891C247.563 37.257 246.59 38.643 245.426 39.4471C244.283 40.2512 242.897 40.6532 241.268 40.6532C240.379 40.6532 239.501 40.5157 238.633 40.2406C237.766 39.9655 237.057 39.5846 236.507 39.0979L238.316 35.5748C238.697 35.9133 239.131 36.1778 239.617 36.3683C240.125 36.5587 240.622 36.6539 241.109 36.6539C241.786 36.6539 242.336 36.4846 242.76 36.1461C243.183 35.8287 243.564 35.2891 243.902 34.5273L243.966 34.3686L236.57 17.1654H241.68L246.473 28.7506L251.298 17.1654H256.059Z" fill="#3F4862"/>
<path d="M266.922 27.7666H264.351V34.2417H259.4V17.1654H264.351V23.7991H267.017L271.651 17.1654H276.92L270.953 25.3544L277.333 34.2417H271.493L266.922 27.7666Z" fill="#3F4862"/>
<path d="M299.951 30.1789V37.987H295.349V34.2417H280.717V17.1654H285.636V30.1789H292.524V17.1654H297.475V30.1789H299.951Z" fill="#3F4862"/>
<path d="M304.017 17.1654H308.937V27.3223L317.253 17.1654H321.792V34.2417H316.872V24.0848L308.588 34.2417H304.017V17.1654Z" fill="#3F4862"/>
<path d="M342.676 17.1654V34.2417H338.264V29.3537H334.614L331.376 34.2417H326.107L330.011 28.6554C328.826 28.1898 327.916 27.5233 327.282 26.6557C326.668 25.767 326.361 24.6984 326.361 23.45C326.361 21.4397 327.081 19.8951 328.519 18.8159C329.979 17.7156 331.979 17.1654 334.518 17.1654H342.676ZM334.614 21.1964C333.556 21.1964 332.751 21.3868 332.201 21.7677C331.672 22.1486 331.408 22.7623 331.408 23.6087C331.408 24.4551 331.662 25.0793 332.17 25.4813C332.699 25.8622 333.492 26.0527 334.55 26.0527H338.264V21.1964H334.614Z" fill="#3F4862"/>
<path d="M167.805 12.0235C169.773 12.0235 171.476 12.3514 172.915 13.0074C174.375 13.6634 175.497 14.5944 176.279 15.8006C177.062 17.0067 177.454 18.435 177.454 20.0855C177.454 21.7148 177.062 23.1431 176.279 24.3704C175.497 25.5766 174.375 26.5076 172.915 27.1636C171.476 27.7984 169.773 28.1158 167.805 28.1158H163.329V34.2417H158.188V12.0235H167.805ZM167.519 23.9261C169.064 23.9261 170.238 23.5981 171.042 22.9421C171.846 22.265 172.248 21.3128 172.248 20.0855C172.248 18.837 171.846 17.8848 171.042 17.2289C170.238 16.5517 169.064 16.2132 167.519 16.2132H163.329V23.9261H167.519Z" fill="#CDB6F1"/>
<path d="M192.709 34.6225C190.403 34.6225 188.319 34.1253 186.456 33.1308C184.616 32.1362 183.166 30.7714 182.108 29.0363C181.071 27.28 180.553 25.3121 180.553 23.1326C180.553 20.9531 181.071 18.9957 182.108 17.2606C183.166 15.5043 184.616 14.1289 186.456 13.1344C188.319 12.1398 190.403 11.6426 192.709 11.6426C195.016 11.6426 197.089 12.1398 198.93 13.1344C200.771 14.1289 202.221 15.5043 203.279 17.2606C204.337 18.9957 204.866 20.9531 204.866 23.1326C204.866 25.3121 204.337 27.28 203.279 29.0363C202.221 30.7714 200.771 32.1362 198.93 33.1308C197.089 34.1253 195.016 34.6225 192.709 34.6225ZM192.709 30.2424C194.021 30.2424 195.206 29.9461 196.264 29.3537C197.322 28.74 198.147 27.8936 198.74 26.8144C199.354 25.7353 199.66 24.508 199.66 23.1326C199.66 21.7571 199.354 20.5299 198.74 19.4507C198.147 18.3715 197.322 17.5357 196.264 16.9432C195.206 16.3296 194.021 16.0227 192.709 16.0227C191.397 16.0227 190.212 16.3296 189.154 16.9432C188.096 17.5357 187.261 18.3715 186.647 19.4507C186.054 20.5299 185.758 21.7571 185.758 23.1326C185.758 24.508 186.054 25.7353 186.647 26.8144C187.261 27.8936 188.096 28.74 189.154 29.3537C190.212 29.9461 191.397 30.2424 192.709 30.2424Z" fill="#CDB6F1"/>
<path d="M232.696 30.0519V38.844H227.935V34.2417H212.255V38.844H207.494L207.526 30.0519H208.414C209.747 30.0096 210.689 29.0363 211.239 27.1318C211.789 25.2274 212.128 22.5083 212.255 18.9746L212.509 12.0235H229.585V30.0519H232.696ZM216.794 19.4507C216.688 22.0957 216.466 24.3175 216.127 26.1161C215.789 27.8936 215.27 29.2055 214.572 30.0519H224.507V16.2132H216.889L216.794 19.4507Z" fill="#CDB6F1"/>
<ellipse rx="2.75599" ry="1.71976" transform="matrix(-0.51072 0.859747 -0.859752 -0.510712 192.553 23.1337)" fill="#CDB6F1"/>
<path d="M98.4031 47.1484V57.5169H96.5071V48.7778H91.1303V57.5169H89.2344V47.1484H98.4031Z" fill="#3F4862"/>
<path d="M105.504 49.5184C106.274 49.5184 106.96 49.6862 107.563 50.022C108.175 50.3577 108.654 50.8317 108.999 51.444C109.345 52.0562 109.518 52.7622 109.518 53.5621C109.518 54.3619 109.345 55.0729 108.999 55.695C108.654 56.3073 108.175 56.7813 107.563 57.117C106.96 57.4527 106.274 57.6206 105.504 57.6206C104.437 57.6206 103.593 57.2651 102.971 56.5541V60.3905H101.119V49.6073H102.882V50.6441C103.188 50.2689 103.563 49.9874 104.008 49.7998C104.462 49.6122 104.961 49.5184 105.504 49.5184ZM105.296 56.0357C105.978 56.0357 106.536 55.8086 106.97 55.3544C107.415 54.9001 107.637 54.3027 107.637 53.5621C107.637 52.8215 107.415 52.2241 106.97 51.7698C106.536 51.3156 105.978 51.0885 105.296 51.0885C104.852 51.0885 104.452 51.1922 104.097 51.3995C103.741 51.597 103.46 51.8834 103.252 52.2586C103.045 52.6339 102.941 53.0684 102.941 53.5621C102.941 54.0558 103.045 54.4903 103.252 54.8656C103.46 55.2408 103.741 55.5321 104.097 55.7395C104.452 55.937 104.852 56.0357 105.296 56.0357Z" fill="#3F4862"/>
<path d="M114.886 57.6206C114.086 57.6206 113.365 57.4478 112.723 57.1022C112.081 56.7566 111.578 56.2776 111.212 55.6654C110.857 55.0433 110.679 54.3422 110.679 53.5621C110.679 52.782 110.857 52.0858 111.212 51.4736C111.578 50.8613 112.081 50.3824 112.723 50.0368C113.365 49.6912 114.086 49.5184 114.886 49.5184C115.696 49.5184 116.421 49.6912 117.063 50.0368C117.705 50.3824 118.204 50.8613 118.559 51.4736C118.925 52.0858 119.107 52.782 119.107 53.5621C119.107 54.3422 118.925 55.0433 118.559 55.6654C118.204 56.2776 117.705 56.7566 117.063 57.1022C116.421 57.4478 115.696 57.6206 114.886 57.6206ZM114.886 56.0357C115.567 56.0357 116.13 55.8086 116.574 55.3544C117.019 54.9001 117.241 54.3027 117.241 53.5621C117.241 52.8215 117.019 52.2241 116.574 51.7698C116.13 51.3156 115.567 51.0885 114.886 51.0885C114.205 51.0885 113.642 51.3156 113.197 51.7698C112.763 52.2241 112.546 52.8215 112.546 53.5621C112.546 54.3027 112.763 54.9001 113.197 55.3544C113.642 55.8086 114.205 56.0357 114.886 56.0357Z" fill="#3F4862"/>
<path d="M127.009 51.1773H122.788V57.5169H120.936V49.6073H127.009V51.1773Z" fill="#3F4862"/>
<path d="M132.741 49.5184C133.512 49.5184 134.198 49.6862 134.8 50.022C135.412 50.3577 135.891 50.8317 136.237 51.444C136.583 52.0562 136.755 52.7622 136.755 53.5621C136.755 54.3619 136.583 55.0729 136.237 55.695C135.891 56.3073 135.412 56.7813 134.8 57.117C134.198 57.4527 133.512 57.6206 132.741 57.6206C131.675 57.6206 130.831 57.2651 130.208 56.5541V60.3905H128.357V49.6073H130.12V50.6441C130.426 50.2689 130.801 49.9874 131.245 49.7998C131.7 49.6122 132.198 49.5184 132.741 49.5184ZM132.534 56.0357C133.215 56.0357 133.773 55.8086 134.208 55.3544C134.652 54.9001 134.874 54.3027 134.874 53.5621C134.874 52.8215 134.652 52.2241 134.208 51.7698C133.773 51.3156 133.215 51.0885 132.534 51.0885C132.09 51.0885 131.69 51.1922 131.334 51.3995C130.979 51.597 130.697 51.8834 130.49 52.2586C130.283 52.6339 130.179 53.0684 130.179 53.5621C130.179 54.0558 130.283 54.4903 130.49 54.8656C130.697 55.2408 130.979 55.5321 131.334 55.7395C131.69 55.937 132.09 56.0357 132.534 56.0357Z" fill="#3F4862"/>
<path d="M141.444 49.5184C142.61 49.5184 143.498 49.7998 144.111 50.3627C144.733 50.9157 145.044 51.755 145.044 52.8807V57.5169H143.296V56.5541C143.069 56.8998 142.743 57.1664 142.318 57.354C141.904 57.5317 141.4 57.6206 140.808 57.6206C140.215 57.6206 139.697 57.5219 139.252 57.3244C138.808 57.117 138.462 56.8356 138.215 56.4801C137.978 56.1147 137.86 55.7049 137.86 55.2507C137.86 54.5397 138.122 53.9719 138.645 53.5473C139.178 53.1128 140.013 52.8955 141.148 52.8955H143.192V52.777C143.192 52.2241 143.024 51.7994 142.689 51.5032C142.363 51.207 141.874 51.0588 141.222 51.0588C140.778 51.0588 140.339 51.128 139.904 51.2662C139.479 51.4045 139.119 51.597 138.823 51.8439L138.097 50.496C138.512 50.18 139.01 49.9381 139.593 49.7702C140.176 49.6023 140.793 49.5184 141.444 49.5184ZM141.193 56.2727C141.657 56.2727 142.067 56.169 142.422 55.9617C142.787 55.7444 143.044 55.4383 143.192 55.0433V54.125H141.282C140.215 54.125 139.682 54.4755 139.682 55.1766C139.682 55.5124 139.815 55.779 140.082 55.9765C140.348 56.174 140.719 56.2727 141.193 56.2727Z" fill="#3F4862"/>
<path d="M155.111 57.5169V52.2734L152.445 56.6875H151.645L149.024 52.2586V57.5169H147.335V49.6073H149.275L152.09 54.5545L155.037 49.6073H156.77L156.785 57.5169H155.111Z" fill="#3F4862"/>
<path d="M167.045 57.5169V52.2734L164.379 56.6875H163.579L160.957 52.2586V57.5169H159.269V49.6073H161.209L164.023 54.5545L166.971 49.6073H168.704L168.719 57.5169H167.045Z" fill="#3F4862"/>
<path d="M175.053 52.2142C176.061 52.2142 176.831 52.4413 177.364 52.8955C177.897 53.3498 178.164 53.9916 178.164 54.8211C178.164 55.6901 177.868 56.3616 177.275 56.8356C176.693 57.3096 175.863 57.5416 174.787 57.5317L171.202 57.5169V49.6073H173.054V52.1994L175.053 52.2142ZM179.186 49.6073H181.037V57.5169H179.186V49.6073ZM174.624 56.169C175.167 56.1789 175.582 56.0653 175.868 55.8283C176.154 55.5914 176.298 55.2457 176.298 54.7915C176.298 54.3471 176.159 54.0213 175.883 53.8139C175.606 53.6065 175.187 53.4979 174.624 53.488L173.054 53.4732V56.1542L174.624 56.169Z" fill="#3F4862"/>
<path d="M196.063 55.9468V59.2796H194.33V57.5169H188.227V59.2796H186.509V55.9468H186.879C187.383 55.9271 187.724 55.6062 187.901 54.9841C188.089 54.3521 188.212 53.4633 188.272 52.3179L188.375 49.6073H194.893V55.9468H196.063ZM189.96 52.4512C189.921 53.3597 189.847 54.1003 189.738 54.673C189.629 55.2457 189.432 55.6704 189.146 55.9468H193.041V51.1773H190.005L189.96 52.4512Z" fill="#3F4862"/>
<path d="M201.242 57.6206C200.442 57.6206 199.721 57.4478 199.079 57.1022C198.437 56.7566 197.934 56.2776 197.568 55.6654C197.213 55.0433 197.035 54.3422 197.035 53.5621C197.035 52.782 197.213 52.0858 197.568 51.4736C197.934 50.8613 198.437 50.3824 199.079 50.0368C199.721 49.6912 200.442 49.5184 201.242 49.5184C202.052 49.5184 202.777 49.6912 203.419 50.0368C204.061 50.3824 204.56 50.8613 204.915 51.4736C205.281 52.0858 205.463 52.782 205.463 53.5621C205.463 54.3422 205.281 55.0433 204.915 55.6654C204.56 56.2776 204.061 56.7566 203.419 57.1022C202.777 57.4478 202.052 57.6206 201.242 57.6206ZM201.242 56.0357C201.923 56.0357 202.486 55.8086 202.93 55.3544C203.375 54.9001 203.597 54.3027 203.597 53.5621C203.597 52.8215 203.375 52.2241 202.93 51.7698C202.486 51.3156 201.923 51.0885 201.242 51.0885C200.56 51.0885 199.998 51.3156 199.553 51.7698C199.119 52.2241 198.901 52.8215 198.901 53.5621C198.901 54.3027 199.119 54.9001 199.553 55.3544C199.998 55.8086 200.56 56.0357 201.242 56.0357Z" fill="#3F4862"/>
<path d="M214.375 49.6073V57.5169H212.523V51.1773H209.561L209.487 52.7474C209.437 53.7941 209.338 54.673 209.19 55.384C209.052 56.0851 208.81 56.643 208.465 57.0578C208.129 57.4626 207.665 57.6651 207.072 57.6651C206.796 57.6651 206.455 57.6107 206.05 57.5021L206.139 55.9468C206.277 55.9765 206.396 55.9913 206.495 55.9913C206.87 55.9913 207.151 55.8432 207.339 55.5469C207.526 55.2408 207.645 54.8804 207.694 54.4656C207.754 54.041 207.803 53.4387 207.842 52.6586L207.976 49.6073H214.375Z" fill="#3F4862"/>
<path d="M222.941 51.1773H218.72V57.5169H216.868V49.6073H222.941V51.1773Z" fill="#3F4862"/>
<path d="M227.467 57.6206C226.667 57.6206 225.946 57.4478 225.304 57.1022C224.662 56.7566 224.159 56.2776 223.793 55.6654C223.438 55.0433 223.26 54.3422 223.26 53.5621C223.26 52.782 223.438 52.0858 223.793 51.4736C224.159 50.8613 224.662 50.3824 225.304 50.0368C225.946 49.6912 226.667 49.5184 227.467 49.5184C228.276 49.5184 229.002 49.6912 229.644 50.0368C230.286 50.3824 230.785 50.8613 231.14 51.4736C231.506 52.0858 231.688 52.782 231.688 53.5621C231.688 54.3422 231.506 55.0433 231.14 55.6654C230.785 56.2776 230.286 56.7566 229.644 57.1022C229.002 57.4478 228.276 57.6206 227.467 57.6206ZM227.467 56.0357C228.148 56.0357 228.711 55.8086 229.155 55.3544C229.6 54.9001 229.822 54.3027 229.822 53.5621C229.822 52.8215 229.6 52.2241 229.155 51.7698C228.711 51.3156 228.148 51.0885 227.467 51.0885C226.785 51.0885 226.223 51.3156 225.778 51.7698C225.344 52.2241 225.126 52.8215 225.126 53.5621C225.126 54.3027 225.344 54.9001 225.778 55.3544C226.223 55.8086 226.785 56.0357 227.467 56.0357Z" fill="#3F4862"/>
<path d="M240.767 54.3471H239.434V57.5169H237.597V54.3471H236.264L234.338 57.5169H232.146L234.738 53.4288L232.339 49.6073H234.309L236.234 52.8067H237.597V49.6073H239.434V52.8067H240.781L242.722 49.6073H244.692L242.292 53.4288L244.899 57.5169H242.692L240.767 54.3471Z" fill="#3F4862"/>
<path d="M254.718 55.9468V59.2796H252.985V57.5169H246.883V59.2796H245.165V55.9468H245.535C246.038 55.9271 246.379 55.6062 246.557 54.9841C246.744 54.3521 246.868 53.4633 246.927 52.3179L247.031 49.6073H253.548V55.9468H254.718ZM248.616 52.4512C248.576 53.3597 248.502 54.1003 248.394 54.673C248.285 55.2457 248.087 55.6704 247.801 55.9468H251.697V51.1773H248.66L248.616 52.4512Z" fill="#3F4862"/>
<path d="M259.32 49.5184C260.485 49.5184 261.374 49.7998 261.986 50.3627C262.608 50.9157 262.919 51.755 262.919 52.8807V57.5169H261.171V56.5541C260.944 56.8998 260.618 57.1664 260.193 57.354C259.779 57.5317 259.275 57.6206 258.683 57.6206C258.09 57.6206 257.572 57.5219 257.127 57.3244C256.683 57.117 256.337 56.8356 256.091 56.4801C255.854 56.1147 255.735 55.7049 255.735 55.2507C255.735 54.5397 255.997 53.9719 256.52 53.5473C257.053 53.1128 257.888 52.8955 259.023 52.8955H261.067V52.777C261.067 52.2241 260.9 51.7994 260.564 51.5032C260.238 51.207 259.749 51.0588 259.097 51.0588C258.653 51.0588 258.214 51.128 257.779 51.2662C257.354 51.4045 256.994 51.597 256.698 51.8439L255.972 50.496C256.387 50.18 256.885 49.9381 257.468 49.7702C258.051 49.6023 258.668 49.5184 259.32 49.5184ZM259.068 56.2727C259.532 56.2727 259.942 56.169 260.297 55.9617C260.663 55.7444 260.919 55.4383 261.067 55.0433V54.125H259.157C258.09 54.125 257.557 54.4755 257.557 55.1766C257.557 55.5124 257.69 55.779 257.957 55.9765C258.223 56.174 258.594 56.2727 259.068 56.2727Z" fill="#3F4862"/>
<path d="M265.21 49.6073H267.062V52.8215H271.046V49.6073H272.898V57.5169H271.046V54.3916H267.062V57.5169H265.21V49.6073Z" fill="#3F4862"/>
<path d="M275.379 49.6073H277.23V52.8215H281.215V49.6073H283.066V57.5169H281.215V54.3916H277.23V57.5169H275.379V49.6073Z" fill="#3F4862"/>
<path d="M289.073 57.6206C288.273 57.6206 287.552 57.4478 286.911 57.1022C286.269 56.7566 285.765 56.2776 285.4 55.6654C285.044 55.0433 284.866 54.3422 284.866 53.5621C284.866 52.782 285.044 52.0858 285.4 51.4736C285.765 50.8613 286.269 50.3824 286.911 50.0368C287.552 49.6912 288.273 49.5184 289.073 49.5184C289.883 49.5184 290.609 49.6912 291.25 50.0368C291.892 50.3824 292.391 50.8613 292.747 51.4736C293.112 52.0858 293.295 52.782 293.295 53.5621C293.295 54.3422 293.112 55.0433 292.747 55.6654C292.391 56.2776 291.892 56.7566 291.25 57.1022C290.609 57.4478 289.883 57.6206 289.073 57.6206ZM289.073 56.0357C289.754 56.0357 290.317 55.8086 290.762 55.3544C291.206 54.9001 291.428 54.3027 291.428 53.5621C291.428 52.8215 291.206 52.2241 290.762 51.7698C290.317 51.3156 289.754 51.0885 289.073 51.0885C288.392 51.0885 287.829 51.3156 287.385 51.7698C286.95 52.2241 286.733 52.8215 286.733 53.5621C286.733 54.3027 286.95 54.9001 287.385 55.3544C287.829 55.8086 288.392 56.0357 289.073 56.0357Z" fill="#3F4862"/>
<path d="M301.197 51.1773H296.975V57.5169H295.124V49.6073H301.197V51.1773Z" fill="#3F4862"/>
<path d="M305.722 57.6206C304.922 57.6206 304.202 57.4478 303.56 57.1022C302.918 56.7566 302.414 56.2776 302.049 55.6654C301.693 55.0433 301.516 54.3422 301.516 53.5621C301.516 52.782 301.693 52.0858 302.049 51.4736C302.414 50.8613 302.918 50.3824 303.56 50.0368C304.202 49.6912 304.922 49.5184 305.722 49.5184C306.532 49.5184 307.258 49.6912 307.9 50.0368C308.542 50.3824 309.04 50.8613 309.396 51.4736C309.761 52.0858 309.944 52.782 309.944 53.5621C309.944 54.3422 309.761 55.0433 309.396 55.6654C309.04 56.2776 308.542 56.7566 307.9 57.1022C307.258 57.4478 306.532 57.6206 305.722 57.6206ZM305.722 56.0357C306.404 56.0357 306.967 55.8086 307.411 55.3544C307.855 54.9001 308.077 54.3027 308.077 53.5621C308.077 52.8215 307.855 52.2241 307.411 51.7698C306.967 51.3156 306.404 51.0885 305.722 51.0885C305.041 51.0885 304.478 51.3156 304.034 51.7698C303.599 52.2241 303.382 52.8215 303.382 53.5621C303.382 54.3027 303.599 54.9001 304.034 55.3544C304.478 55.8086 305.041 56.0357 305.722 56.0357Z" fill="#3F4862"/>
<path d="M323.643 57.5169V52.2734L320.977 56.6875H320.177L317.555 52.2586V57.5169H315.866V49.6073H317.807L320.621 54.5545L323.569 49.6073H325.302L325.317 57.5169H323.643Z" fill="#3F4862"/>
<path d="M330.748 49.5184C331.913 49.5184 332.802 49.7998 333.414 50.3627C334.036 50.9157 334.347 51.755 334.347 52.8807V57.5169H332.599V56.5541C332.372 56.8998 332.046 57.1664 331.622 57.354C331.207 57.5317 330.703 57.6206 330.111 57.6206C329.518 57.6206 329 57.5219 328.555 57.3244C328.111 57.117 327.765 56.8356 327.519 56.4801C327.282 56.1147 327.163 55.7049 327.163 55.2507C327.163 54.5397 327.425 53.9719 327.948 53.5473C328.481 53.1128 329.316 52.8955 330.451 52.8955H332.495V52.777C332.495 52.2241 332.328 51.7994 331.992 51.5032C331.666 51.207 331.177 51.0588 330.525 51.0588C330.081 51.0588 329.642 51.128 329.207 51.2662C328.783 51.4045 328.422 51.597 328.126 51.8439L327.4 50.496C327.815 50.18 328.313 49.9381 328.896 49.7702C329.479 49.6023 330.096 49.5184 330.748 49.5184ZM330.496 56.2727C330.96 56.2727 331.37 56.169 331.725 55.9617C332.091 55.7444 332.347 55.4383 332.495 55.0433V54.125H330.585C329.518 54.125 328.985 54.4755 328.985 55.1766C328.985 55.5124 329.118 55.779 329.385 55.9765C329.652 56.174 330.022 56.2727 330.496 56.2727Z" fill="#3F4862"/>
<path d="M342.904 51.1773H340.134V57.5169H338.282V51.1773H335.498V49.6073H342.904V51.1773Z" fill="#3F4862"/>
<path d="M351.306 53.6065C351.306 53.7349 351.296 53.9176 351.276 54.1546H345.07C345.178 54.7372 345.46 55.2013 345.914 55.5469C346.378 55.8827 346.951 56.0505 347.632 56.0505C348.501 56.0505 349.217 55.7642 349.78 55.1914L350.772 56.332C350.417 56.7566 349.968 57.0775 349.424 57.2947C348.881 57.512 348.269 57.6206 347.588 57.6206C346.719 57.6206 345.953 57.4478 345.292 57.1022C344.63 56.7566 344.117 56.2776 343.751 55.6654C343.396 55.0433 343.218 54.3422 343.218 53.5621C343.218 52.7919 343.391 52.1006 343.737 51.4884C344.092 50.8663 344.581 50.3824 345.203 50.0368C345.825 49.6912 346.526 49.5184 347.306 49.5184C348.077 49.5184 348.763 49.6912 349.365 50.0368C349.977 50.3725 350.451 50.8515 350.787 51.4736C351.133 52.0858 351.306 52.7968 351.306 53.6065ZM347.306 50.9996C346.714 50.9996 346.21 51.1773 345.795 51.5328C345.391 51.8784 345.144 52.3426 345.055 52.9252H349.543C349.464 52.3524 349.222 51.8883 348.817 51.5328C348.412 51.1773 347.909 50.9996 347.306 50.9996Z" fill="#3F4862"/>
<path d="M357.715 49.5184C358.485 49.5184 359.172 49.6862 359.774 50.022C360.386 50.3577 360.865 50.8317 361.211 51.444C361.556 52.0562 361.729 52.7622 361.729 53.5621C361.729 54.3619 361.556 55.0729 361.211 55.695C360.865 56.3073 360.386 56.7813 359.774 57.117C359.172 57.4527 358.485 57.6206 357.715 57.6206C356.649 57.6206 355.804 57.2651 355.182 56.5541V60.3905H353.331V49.6073H355.093V50.6441C355.399 50.2689 355.775 49.9874 356.219 49.7998C356.673 49.6122 357.172 49.5184 357.715 49.5184ZM357.508 56.0357C358.189 56.0357 358.747 55.8086 359.181 55.3544C359.626 54.9001 359.848 54.3027 359.848 53.5621C359.848 52.8215 359.626 52.2241 359.181 51.7698C358.747 51.3156 358.189 51.0885 357.508 51.0885C357.063 51.0885 356.663 51.1922 356.308 51.3995C355.952 51.597 355.671 51.8834 355.464 52.2586C355.256 52.6339 355.153 53.0684 355.153 53.5621C355.153 54.0558 355.256 54.4903 355.464 54.8656C355.671 55.2408 355.952 55.5321 356.308 55.7395C356.663 55.937 357.063 56.0357 357.508 56.0357Z" fill="#3F4862"/>
<path d="M363.572 49.6073H365.423V54.8211L369.793 49.6073H371.482V57.5169H369.63V52.3031L365.275 57.5169H363.572V49.6073Z" fill="#3F4862"/>
<path d="M373.972 49.6073H375.824V52.8215H379.808V49.6073H381.66V57.5169H379.808V54.3916H375.824V57.5169H373.972V49.6073Z" fill="#3F4862"/>
<path d="M387.74 57.6206C386.921 57.6206 386.185 57.4478 385.533 57.1022C384.882 56.7566 384.373 56.2776 384.008 55.6654C383.642 55.0433 383.46 54.3422 383.46 53.5621C383.46 52.782 383.642 52.0858 384.008 51.4736C384.373 50.8613 384.877 50.3824 385.519 50.0368C386.17 49.6912 386.911 49.5184 387.74 49.5184C388.521 49.5184 389.202 49.6764 389.785 49.9924C390.377 50.3084 390.821 50.7626 391.118 51.3551L389.696 52.1846C389.469 51.8192 389.182 51.5476 388.837 51.3699C388.501 51.1823 388.13 51.0885 387.726 51.0885C387.034 51.0885 386.462 51.3156 386.007 51.7698C385.553 52.2142 385.326 52.8116 385.326 53.5621C385.326 54.3126 385.548 54.9149 385.993 55.3692C386.447 55.8135 387.025 56.0357 387.726 56.0357C388.13 56.0357 388.501 55.9468 388.837 55.7691C389.182 55.5815 389.469 55.305 389.696 54.9396L391.118 55.7691C390.811 56.3616 390.362 56.8208 389.77 57.1466C389.187 57.4626 388.511 57.6206 387.74 57.6206Z" fill="#3F4862"/>
<path d="M398.941 51.1773H396.171V57.5169H394.32V51.1773H391.535V49.6073H398.941V51.1773Z" fill="#3F4862"/>
<path d="M406.016 53.3992C406.994 53.6954 407.483 54.3274 407.483 55.2951C407.483 56.0061 407.216 56.5541 406.683 56.9393C406.15 57.3244 405.36 57.5169 404.313 57.5169H400.284V49.6073H404.15C405.118 49.6073 405.873 49.785 406.416 50.1405C406.959 50.496 407.231 50.9996 407.231 51.6513C407.231 52.0562 407.122 52.4067 406.905 52.703C406.698 52.9992 406.401 53.2313 406.016 53.3992ZM402.047 52.9104H403.987C404.945 52.9104 405.424 52.5796 405.424 51.9179C405.424 51.2761 404.945 50.9552 403.987 50.9552H402.047V52.9104ZM404.165 56.169C405.182 56.169 405.69 55.8382 405.69 55.1766C405.69 54.831 405.572 54.5743 405.335 54.4064C405.098 54.2286 404.728 54.1398 404.224 54.1398H402.047V56.169H404.165Z" fill="#3F4862"/>
<path d="M412.402 49.5184C413.568 49.5184 414.456 49.7998 415.069 50.3627C415.691 50.9157 416.002 51.755 416.002 52.8807V57.5169H414.254V56.5541C414.027 56.8998 413.701 57.1664 413.276 57.354C412.862 57.5317 412.358 57.6206 411.765 57.6206C411.173 57.6206 410.655 57.5219 410.21 57.3244C409.766 57.117 409.42 56.8356 409.173 56.4801C408.936 56.1147 408.818 55.7049 408.818 55.2507C408.818 54.5397 409.08 53.9719 409.603 53.5473C410.136 53.1128 410.971 52.8955 412.106 52.8955H414.15V52.777C414.15 52.2241 413.982 51.7994 413.647 51.5032C413.321 51.207 412.832 51.0588 412.18 51.0588C411.736 51.0588 411.296 51.128 410.862 51.2662C410.437 51.4045 410.077 51.597 409.781 51.8439L409.055 50.496C409.47 50.18 409.968 49.9381 410.551 49.7702C411.134 49.6023 411.751 49.5184 412.402 49.5184ZM412.151 56.2727C412.615 56.2727 413.025 56.169 413.38 55.9617C413.745 55.7444 414.002 55.4383 414.15 55.0433V54.125H412.24C411.173 54.125 410.64 54.4755 410.64 55.1766C410.64 55.5124 410.773 55.779 411.04 55.9765C411.306 56.174 411.677 56.2727 412.151 56.2727Z" fill="#3F4862"/>
<path d="M50.8086 19.8291C54.9993 19.8291 58.3963 23.1467 58.3963 27.2388C58.3963 31.3317 54.9993 34.649 50.8086 34.649C46.6179 34.649 43.2207 31.3317 43.2207 27.2388C43.2207 23.1467 46.6179 19.8291 50.8086 19.8291ZM51.3143 18.9316C56.2811 18.9316 60.3075 22.6986 60.3075 27.345C60.3075 31.9919 56.2811 35.7587 51.3143 35.7587C46.3477 35.7587 42.3213 31.9919 42.3213 27.345C42.3213 22.6986 46.3477 18.9316 51.3143 18.9316Z" fill="#CDB6F1"/>
<path d="M7.40634 6.69816C7.25316 6.60655 23.5784 -1.21612 33.3888 9.49111C32.9003 9.47949 32.3903 9.48183 31.934 9.51648C15.4036 10.7866 13.5561 34.2715 17.1946 46.6669C21.6855 61.9634 27.9616 62.0499 27.9616 62.0499C24.8339 61.9613 21.0147 51.5627 20.4297 49.3294C22.2053 46.8065 25.814 42.422 30.5525 40.5132C37.4042 37.7525 41.2616 40.1681 41.2616 40.1681C36.1671 34.2434 23.5332 39.3349 19.4565 44.4995C19.3385 43.7368 19.2866 42.9557 19.1525 42.1811C17.6144 33.2984 21.0622 9.40881 35.7815 12.745C38.8439 18.1325 37.6345 23.282 36.2516 25.9636C33.5438 31.2132 30.1768 33.064 24.7364 33.8997C24.7364 33.8997 32.6817 34.8196 37.288 29.759C41.8936 24.6984 41.8936 16.0721 39.2457 9.74623C33.8872 -3.05241 15.1192 -2.36505 7.40634 6.69816Z" fill="#CDB6F1"/>
<path d="M25.3284 2.66935C4.20571 2.47019 -1.93217 28.713 5.46717 43.6577C14.997 62.9055 31.955 63.9384 48.1986 51.9215C60.636 42.7204 66.3233 28.7306 62.4379 18.6377C69.5584 28.5099 64.2432 44.6758 50.4867 54.8527C32.5485 68.1234 15.5163 65.4869 4.89321 46.1834C-4.90936 28.372 -0.903662 -2.44917 25.3284 2.66935Z" fill="#CDB6F1"/>
<path d="M50.3091 19.8291C54.2533 19.8291 57.4506 23.1467 57.4506 27.2388C57.4506 31.3317 54.2533 34.649 50.3091 34.649C46.3651 34.649 43.1677 31.3317 43.1677 27.2388C43.1677 23.1467 46.3651 19.8291 50.3091 19.8291ZM50.7851 18.9316C55.4598 18.9316 59.2494 22.6986 59.2494 27.345C59.2494 31.9919 55.4598 35.7587 50.7851 35.7587C46.1107 35.7587 42.3213 31.9919 42.3213 27.345C42.3213 22.6986 46.1107 18.9316 50.7851 18.9316Z" fill="#CDB6F1"/>
</svg>
