<svg width="394" height="61" viewBox="0 0 394 61" fill="none" xmlns="http://www.w3.org/2000/svg">
<path d="M94.7007 12.0001C96.5607 12.0001 98.1707 12.3101 99.5307 12.9301C100.911 13.5501 101.971 14.4301 102.711 15.5701C103.451 16.7101 103.821 18.0601 103.821 19.6201C103.821 21.1601 103.451 22.5101 102.711 23.6701C101.971 24.8101 100.911 25.6901 99.5307 26.3101C98.1707 26.9101 96.5607 27.2101 94.7007 27.2101H90.4707V33.0001H85.6107V12.0001H94.7007ZM94.4307 23.2501C95.8907 23.2501 97.0007 22.9401 97.7607 22.3201C98.5207 21.6801 98.9007 20.7801 98.9007 19.6201C98.9007 18.4401 98.5207 17.5401 97.7607 16.9201C97.0007 16.2801 95.8907 15.9601 94.4307 15.9601H90.4707V23.2501H94.4307Z" fill="white"/>
<path d="M123.227 24.9901C123.227 25.0501 123.197 25.4701 123.137 26.2501H110.927C111.147 27.2501 111.667 28.0401 112.487 28.6201C113.307 29.2001 114.327 29.4901 115.547 29.4901C116.387 29.4901 117.127 29.3701 117.767 29.1301C118.427 28.8701 119.037 28.4701 119.597 27.9301L122.087 30.6301C120.567 32.3701 118.347 33.2401 115.427 33.2401C113.607 33.2401 111.997 32.8901 110.597 32.1901C109.197 31.4701 108.117 30.4801 107.357 29.2201C106.597 27.9601 106.217 26.5301 106.217 24.9301C106.217 23.3501 106.587 21.9301 107.327 20.6701C108.087 19.3901 109.117 18.4001 110.417 17.7001C111.737 16.9801 113.207 16.6201 114.827 16.6201C116.407 16.6201 117.837 16.9601 119.117 17.6401C120.397 18.3201 121.397 19.3001 122.117 20.5801C122.857 21.8401 123.227 23.3101 123.227 24.9901ZM114.857 20.1601C113.797 20.1601 112.907 20.4601 112.187 21.0601C111.467 21.6601 111.027 22.4801 110.867 23.5201H118.817C118.657 22.5001 118.217 21.6901 117.497 21.0901C116.777 20.4701 115.897 20.1601 114.857 20.1601Z" fill="white"/>
<path d="M143.765 16.8601V33.0001H139.085V20.7001H132.365V33.0001H127.715V16.8601H143.765Z" fill="white"/>
<path d="M158.602 12.0001C160.462 12.0001 162.072 12.3101 163.432 12.9301C164.812 13.5501 165.872 14.4301 166.612 15.5701C167.352 16.7101 167.722 18.0601 167.722 19.6201C167.722 21.1601 167.352 22.5101 166.612 23.6701C165.872 24.8101 164.812 25.6901 163.432 26.3101C162.072 26.9101 160.462 27.2101 158.602 27.2101H154.372V33.0001H149.512V12.0001H158.602ZM158.332 23.2501C159.792 23.2501 160.902 22.9401 161.662 22.3201C162.422 21.6801 162.802 20.7801 162.802 19.6201C162.802 18.4401 162.422 17.5401 161.662 16.9201C160.902 16.2801 159.792 15.9601 158.332 15.9601H154.372V23.2501H158.332Z" fill="white"/>
<path d="M182.141 33.3601C179.961 33.3601 177.991 32.8901 176.231 31.9501C174.491 31.0101 173.121 29.7201 172.121 28.0801C171.141 26.4201 170.651 24.5601 170.651 22.5001C170.651 20.4401 171.141 18.5901 172.121 16.9501C173.121 15.2901 174.491 13.9901 176.231 13.0501C177.991 12.1101 179.961 11.6401 182.141 11.6401C184.321 11.6401 186.281 12.1101 188.021 13.0501C189.761 13.9901 191.131 15.2901 192.131 16.9501C193.131 18.5901 193.631 20.4401 193.631 22.5001C193.631 24.5601 193.131 26.4201 192.131 28.0801C191.131 29.7201 189.761 31.0101 188.021 31.9501C186.281 32.8901 184.321 33.3601 182.141 33.3601ZM182.141 29.2201C183.381 29.2201 184.501 28.9401 185.501 28.3801C186.501 27.8001 187.281 27.0001 187.841 25.9801C188.421 24.9601 188.711 23.8001 188.711 22.5001C188.711 21.2001 188.421 20.0401 187.841 19.0201C187.281 18.0001 186.501 17.2101 185.501 16.6501C184.501 16.0701 183.381 15.7801 182.141 15.7801C180.901 15.7801 179.781 16.0701 178.781 16.6501C177.781 17.2101 176.991 18.0001 176.411 19.0201C175.851 20.0401 175.571 21.2001 175.571 22.5001C175.571 23.8001 175.851 24.9601 176.411 25.9801C176.991 27.0001 177.781 27.8001 178.781 28.3801C179.781 28.9401 180.901 29.2201 182.141 29.2201Z" fill="white"/>
<path d="M219.935 29.0401V37.3501H215.435V33.0001H200.615V37.3501H196.115L196.145 29.0401H196.985C198.245 29.0001 199.135 28.0801 199.655 26.2801C200.175 24.4801 200.495 21.9101 200.615 18.5701L200.855 12.0001H216.995V29.0401H219.935ZM204.905 19.0201C204.805 21.5201 204.595 23.6201 204.275 25.3201C203.955 27.0001 203.465 28.2401 202.805 29.0401H212.195V15.9601H204.995L204.905 19.0201Z" fill="white"/>
<path d="M242.016 16.8601L234.726 33.9901C233.986 35.8501 233.066 37.1601 231.966 37.9201C230.886 38.6801 229.576 39.0601 228.036 39.0601C227.196 39.0601 226.366 38.9301 225.546 38.6701C224.726 38.4101 224.056 38.0501 223.536 37.5901L225.246 34.2601C225.606 34.5801 226.016 34.8301 226.476 35.0101C226.956 35.1901 227.426 35.2801 227.886 35.2801C228.526 35.2801 229.046 35.1201 229.446 34.8001C229.846 34.5001 230.206 33.9901 230.526 33.2701L230.586 33.1201L223.596 16.8601H228.426L232.956 27.8101L237.516 16.8601H242.016Z" fill="white"/>
<path d="M252.284 26.8801H249.854V33.0001H245.174V16.8601H249.854V23.1301H252.374L256.754 16.8601H261.734L256.094 24.6001L262.124 33.0001H256.604L252.284 26.8801Z" fill="white"/>
<path d="M283.502 29.1601V36.5401H279.152V33.0001H265.322V16.8601H269.972V29.1601H276.482V16.8601H281.162V29.1601H283.502Z" fill="white"/>
<path d="M287.345 16.8601H291.995V26.4601L299.855 16.8601H304.145V33.0001H299.495V23.4001L291.665 33.0001H287.345V16.8601Z" fill="white"/>
<path d="M323.884 16.8601V33.0001H319.714V28.3801H316.264L313.204 33.0001H308.224L311.914 27.7201C310.794 27.2801 309.934 26.6501 309.334 25.8301C308.754 24.9901 308.464 23.9801 308.464 22.8001C308.464 20.9001 309.144 19.4401 310.504 18.4201C311.884 17.3801 313.774 16.8601 316.174 16.8601H323.884ZM316.264 20.6701C315.264 20.6701 314.504 20.8501 313.984 21.2101C313.484 21.5701 313.234 22.1501 313.234 22.9501C313.234 23.7501 313.474 24.3401 313.954 24.7201C314.454 25.0801 315.204 25.2601 316.204 25.2601H319.714V20.6701H316.264Z" fill="white"/>
<path d="M158.603 12.0001C160.463 12.0001 162.073 12.3101 163.433 12.9301C164.813 13.5501 165.873 14.4301 166.613 15.5701C167.353 16.7101 167.723 18.0601 167.723 19.6201C167.723 21.1601 167.353 22.5101 166.613 23.6701C165.873 24.8101 164.813 25.6901 163.433 26.3101C162.073 26.9101 160.463 27.2101 158.603 27.2101H154.373V33.0001H149.513V12.0001H158.603ZM158.333 23.2501C159.793 23.2501 160.903 22.9401 161.663 22.3201C162.423 21.6801 162.803 20.7801 162.803 19.6201C162.803 18.4401 162.423 17.5401 161.663 16.9201C160.903 16.2801 159.793 15.9601 158.333 15.9601H154.373V23.2501H158.333Z" fill="#CDB6F1"/>
<path d="M182.142 33.3601C179.962 33.3601 177.992 32.8901 176.232 31.9501C174.492 31.0101 173.122 29.7201 172.122 28.0801C171.142 26.4201 170.652 24.5601 170.652 22.5001C170.652 20.4401 171.142 18.5901 172.122 16.9501C173.122 15.2901 174.492 13.9901 176.232 13.0501C177.992 12.1101 179.962 11.6401 182.142 11.6401C184.322 11.6401 186.282 12.1101 188.022 13.0501C189.762 13.9901 191.132 15.2901 192.132 16.9501C193.132 18.5901 193.632 20.4401 193.632 22.5001C193.632 24.5601 193.132 26.4201 192.132 28.0801C191.132 29.7201 189.762 31.0101 188.022 31.9501C186.282 32.8901 184.322 33.3601 182.142 33.3601ZM182.142 29.2201C183.382 29.2201 184.502 28.9401 185.502 28.3801C186.502 27.8001 187.282 27.0001 187.842 25.9801C188.422 24.9601 188.712 23.8001 188.712 22.5001C188.712 21.2001 188.422 20.0401 187.842 19.0201C187.282 18.0001 186.502 17.2101 185.502 16.6501C184.502 16.0701 183.382 15.7801 182.142 15.7801C180.902 15.7801 179.782 16.0701 178.782 16.6501C177.782 17.2101 176.992 18.0001 176.412 19.0201C175.852 20.0401 175.572 21.2001 175.572 22.5001C175.572 23.8001 175.852 24.9601 176.412 25.9801C176.992 27.0001 177.782 27.8001 178.782 28.3801C179.782 28.9401 180.902 29.2201 182.142 29.2201Z" fill="#CDB6F1"/>
<path d="M219.936 29.0401V37.3501H215.436V33.0001H200.616V37.3501H196.116L196.146 29.0401H196.986C198.246 29.0001 199.136 28.0801 199.656 26.2801C200.176 24.4801 200.496 21.9101 200.616 18.5701L200.856 12.0001H216.996V29.0401H219.936ZM204.906 19.0201C204.806 21.5201 204.596 23.6201 204.276 25.3201C203.956 27.0001 203.466 28.2401 202.806 29.0401H212.196V15.9601H204.996L204.906 19.0201Z" fill="#CDB6F1"/>
<ellipse cx="181.996" cy="22.4988" rx="2.60488" ry="1.62547" transform="rotate(120.712 181.996 22.4988)" fill="#CDB6F1"/>
<path d="M93.0051 45.2002V55.0002H91.2131V46.7402H86.1311V55.0002H84.3391V45.2002H93.0051Z" fill="white"/>
<path d="M99.7165 47.4402C100.444 47.4402 101.093 47.5989 101.662 47.9162C102.241 48.2335 102.694 48.6815 103.02 49.2602C103.347 49.8389 103.51 50.5062 103.51 51.2622C103.51 52.0182 103.347 52.6902 103.02 53.2782C102.694 53.8569 102.241 54.3049 101.662 54.6222C101.093 54.9395 100.444 55.0982 99.7165 55.0982C98.7085 55.0982 97.9105 54.7622 97.3225 54.0902V57.7162H95.5725V47.5242H97.2385V48.5042C97.5278 48.1495 97.8825 47.8835 98.3025 47.7062C98.7318 47.5289 99.2031 47.4402 99.7165 47.4402ZM99.5205 53.6002C100.164 53.6002 100.692 53.3855 101.102 52.9562C101.522 52.5269 101.732 51.9622 101.732 51.2622C101.732 50.5622 101.522 49.9975 101.102 49.5682C100.692 49.1389 100.164 48.9242 99.5205 48.9242C99.1005 48.9242 98.7225 49.0222 98.3865 49.2182C98.0505 49.4049 97.7845 49.6755 97.5885 50.0302C97.3925 50.3849 97.2945 50.7955 97.2945 51.2622C97.2945 51.7289 97.3925 52.1395 97.5885 52.4942C97.7845 52.8489 98.0505 53.1242 98.3865 53.3202C98.7225 53.5069 99.1005 53.6002 99.5205 53.6002Z" fill="white"/>
<path d="M108.584 55.0982C107.828 55.0982 107.147 54.9349 106.54 54.6082C105.933 54.2815 105.457 53.8289 105.112 53.2502C104.776 52.6622 104.608 51.9995 104.608 51.2622C104.608 50.5249 104.776 49.8669 105.112 49.2882C105.457 48.7095 105.933 48.2569 106.54 47.9302C107.147 47.6035 107.828 47.4402 108.584 47.4402C109.349 47.4402 110.035 47.6035 110.642 47.9302C111.249 48.2569 111.72 48.7095 112.056 49.2882C112.401 49.8669 112.574 50.5249 112.574 51.2622C112.574 51.9995 112.401 52.6622 112.056 53.2502C111.72 53.8289 111.249 54.2815 110.642 54.6082C110.035 54.9349 109.349 55.0982 108.584 55.0982ZM108.584 53.6002C109.228 53.6002 109.76 53.3855 110.18 52.9562C110.6 52.5269 110.81 51.9622 110.81 51.2622C110.81 50.5622 110.6 49.9975 110.18 49.5682C109.76 49.1389 109.228 48.9242 108.584 48.9242C107.94 48.9242 107.408 49.1389 106.988 49.5682C106.577 49.9975 106.372 50.5622 106.372 51.2622C106.372 51.9622 106.577 52.5269 106.988 52.9562C107.408 53.3855 107.94 53.6002 108.584 53.6002Z" fill="white"/>
<path d="M120.043 49.0082H116.053V55.0002H114.303V47.5242H120.043V49.0082Z" fill="white"/>
<path d="M125.461 47.4402C126.189 47.4402 126.837 47.5989 127.407 47.9162C127.985 48.2335 128.438 48.6815 128.765 49.2602C129.091 49.8389 129.255 50.5062 129.255 51.2622C129.255 52.0182 129.091 52.6902 128.765 53.2782C128.438 53.8569 127.985 54.3049 127.407 54.6222C126.837 54.9395 126.189 55.0982 125.461 55.0982C124.453 55.0982 123.655 54.7622 123.067 54.0902V57.7162H121.317V47.5242H122.983V48.5042C123.272 48.1495 123.627 47.8835 124.047 47.7062C124.476 47.5289 124.947 47.4402 125.461 47.4402ZM125.265 53.6002C125.909 53.6002 126.436 53.3855 126.847 52.9562C127.267 52.5269 127.477 51.9622 127.477 51.2622C127.477 50.5622 127.267 49.9975 126.847 49.5682C126.436 49.1389 125.909 48.9242 125.265 48.9242C124.845 48.9242 124.467 49.0222 124.131 49.2182C123.795 49.4049 123.529 49.6755 123.333 50.0302C123.137 50.3849 123.039 50.7955 123.039 51.2622C123.039 51.7289 123.137 52.1395 123.333 52.4942C123.529 52.8489 123.795 53.1242 124.131 53.3202C124.467 53.5069 124.845 53.6002 125.265 53.6002Z" fill="white"/>
<path d="M133.687 47.4402C134.788 47.4402 135.628 47.7062 136.207 48.2382C136.795 48.7609 137.089 49.5542 137.089 50.6182V55.0002H135.437V54.0902C135.222 54.4169 134.914 54.6689 134.513 54.8462C134.121 55.0142 133.645 55.0982 133.085 55.0982C132.525 55.0982 132.035 55.0049 131.615 54.8182C131.195 54.6222 130.868 54.3562 130.635 54.0202C130.411 53.6749 130.299 53.2875 130.299 52.8582C130.299 52.1862 130.546 51.6495 131.041 51.2482C131.545 50.8375 132.333 50.6322 133.407 50.6322H135.339V50.5202C135.339 49.9975 135.18 49.5962 134.863 49.3162C134.555 49.0362 134.093 48.8962 133.477 48.8962C133.057 48.8962 132.641 48.9615 132.231 49.0922C131.829 49.2229 131.489 49.4049 131.209 49.6382L130.523 48.3642C130.915 48.0655 131.386 47.8369 131.937 47.6782C132.487 47.5195 133.071 47.4402 133.687 47.4402ZM133.449 53.8242C133.887 53.8242 134.275 53.7262 134.611 53.5302C134.956 53.3249 135.199 53.0355 135.339 52.6622V51.7942H133.533C132.525 51.7942 132.021 52.1255 132.021 52.7882C132.021 53.1055 132.147 53.3575 132.399 53.5442C132.651 53.7309 133.001 53.8242 133.449 53.8242Z" fill="white"/>
<path d="M146.604 55.0002V50.0442L144.084 54.2162H143.328L140.85 50.0302V55.0002H139.254V47.5242H141.088L143.748 52.2002L146.534 47.5242H148.172L148.186 55.0002H146.604Z" fill="white"/>
<path d="M157.883 55.0002V50.0442L155.363 54.2162H154.607L152.129 50.0302V55.0002H150.533V47.5242H152.367L155.027 52.2002L157.813 47.5242H159.451L159.465 55.0002H157.883Z" fill="white"/>
<path d="M165.453 49.9882C166.405 49.9882 167.133 50.2029 167.637 50.6322C168.141 51.0615 168.393 51.6682 168.393 52.4522C168.393 53.2735 168.113 53.9082 167.553 54.3562C167.002 54.8042 166.218 55.0235 165.201 55.0142L161.813 55.0002V47.5242H163.563V49.9742L165.453 49.9882ZM169.359 47.5242H171.109V55.0002H169.359V47.5242ZM165.047 53.7262C165.56 53.7355 165.952 53.6282 166.223 53.4042C166.493 53.1802 166.629 52.8535 166.629 52.4242C166.629 52.0042 166.498 51.6962 166.237 51.5002C165.975 51.3042 165.579 51.2015 165.047 51.1922L163.563 51.1782V53.7122L165.047 53.7262Z" fill="white"/>
<path d="M185.31 53.5162V56.6662H183.672V55.0002H177.904V56.6662H176.28V53.5162H176.63C177.106 53.4975 177.428 53.1942 177.596 52.6062C177.774 52.0089 177.89 51.1689 177.946 50.0862L178.044 47.5242H184.204V53.5162H185.31ZM179.542 50.2122C179.505 51.0709 179.435 51.7709 179.332 52.3122C179.23 52.8535 179.043 53.2549 178.772 53.5162H182.454V49.0082H179.584L179.542 50.2122Z" fill="white"/>
<path d="M190.205 55.0982C189.449 55.0982 188.768 54.9349 188.161 54.6082C187.555 54.2815 187.079 53.8289 186.733 53.2502C186.397 52.6622 186.229 51.9995 186.229 51.2622C186.229 50.5249 186.397 49.8669 186.733 49.2882C187.079 48.7095 187.555 48.2569 188.161 47.9302C188.768 47.6035 189.449 47.4402 190.205 47.4402C190.971 47.4402 191.657 47.6035 192.263 47.9302C192.87 48.2569 193.341 48.7095 193.677 49.2882C194.023 49.8669 194.195 50.5249 194.195 51.2622C194.195 51.9995 194.023 52.6622 193.677 53.2502C193.341 53.8289 192.87 54.2815 192.263 54.6082C191.657 54.9349 190.971 55.0982 190.205 55.0982ZM190.205 53.6002C190.849 53.6002 191.381 53.3855 191.801 52.9562C192.221 52.5269 192.431 51.9622 192.431 51.2622C192.431 50.5622 192.221 49.9975 191.801 49.5682C191.381 49.1389 190.849 48.9242 190.205 48.9242C189.561 48.9242 189.029 49.1389 188.609 49.5682C188.199 49.9975 187.993 50.5622 187.993 51.2622C187.993 51.9622 188.199 52.5269 188.609 52.9562C189.029 53.3855 189.561 53.6002 190.205 53.6002Z" fill="white"/>
<path d="M202.618 47.5242V55.0002H200.868V49.0082H198.068L197.998 50.4922C197.951 51.4815 197.858 52.3122 197.718 52.9842C197.587 53.6469 197.359 54.1742 197.032 54.5662C196.715 54.9489 196.276 55.1402 195.716 55.1402C195.455 55.1402 195.133 55.0889 194.75 54.9862L194.834 53.5162C194.965 53.5442 195.077 53.5582 195.17 53.5582C195.525 53.5582 195.791 53.4182 195.968 53.1382C196.145 52.8489 196.257 52.5082 196.304 52.1162C196.36 51.7149 196.407 51.1455 196.444 50.4082L196.57 47.5242H202.618Z" fill="white"/>
<path d="M210.715 49.0082H206.725V55.0002H204.975V47.5242H210.715V49.0082Z" fill="white"/>
<path d="M214.992 55.0982C214.236 55.0982 213.555 54.9349 212.948 54.6082C212.342 54.2815 211.866 53.8289 211.52 53.2502C211.184 52.6622 211.016 51.9995 211.016 51.2622C211.016 50.5249 211.184 49.8669 211.52 49.2882C211.866 48.7095 212.342 48.2569 212.948 47.9302C213.555 47.6035 214.236 47.4402 214.992 47.4402C215.758 47.4402 216.444 47.6035 217.05 47.9302C217.657 48.2569 218.128 48.7095 218.464 49.2882C218.81 49.8669 218.982 50.5249 218.982 51.2622C218.982 51.9995 218.81 52.6622 218.464 53.2502C218.128 53.8289 217.657 54.2815 217.05 54.6082C216.444 54.9349 215.758 55.0982 214.992 55.0982ZM214.992 53.6002C215.636 53.6002 216.168 53.3855 216.588 52.9562C217.008 52.5269 217.218 51.9622 217.218 51.2622C217.218 50.5622 217.008 49.9975 216.588 49.5682C216.168 49.1389 215.636 48.9242 214.992 48.9242C214.348 48.9242 213.816 49.1389 213.396 49.5682C212.986 49.9975 212.78 50.5622 212.78 51.2622C212.78 51.9622 212.986 52.5269 213.396 52.9562C213.816 53.3855 214.348 53.6002 214.992 53.6002Z" fill="white"/>
<path d="M227.563 52.0042H226.303V55.0002H224.567V52.0042H223.307L221.487 55.0002H219.415L221.865 51.1362L219.597 47.5242H221.459L223.279 50.5482H224.567V47.5242H226.303V50.5482H227.577L229.411 47.5242H231.273L229.005 51.1362L231.469 55.0002H229.383L227.563 52.0042Z" fill="white"/>
<path d="M240.75 53.5162V56.6662H239.112V55.0002H233.344V56.6662H231.72V53.5162H232.07C232.546 53.4975 232.868 53.1942 233.036 52.6062C233.213 52.0089 233.33 51.1689 233.386 50.0862L233.484 47.5242H239.644V53.5162H240.75ZM234.982 50.2122C234.944 51.0709 234.874 51.7709 234.772 52.3122C234.669 52.8535 234.482 53.2549 234.212 53.5162H237.894V49.0082H235.024L234.982 50.2122Z" fill="white"/>
<path d="M245.099 47.4402C246.2 47.4402 247.04 47.7062 247.619 48.2382C248.207 48.7609 248.501 49.5542 248.501 50.6182V55.0002H246.849V54.0902C246.634 54.4169 246.326 54.6689 245.925 54.8462C245.533 55.0142 245.057 55.0982 244.497 55.0982C243.937 55.0982 243.447 55.0049 243.027 54.8182C242.607 54.6222 242.28 54.3562 242.047 54.0202C241.823 53.6749 241.711 53.2875 241.711 52.8582C241.711 52.1862 241.958 51.6495 242.453 51.2482C242.957 50.8375 243.745 50.6322 244.819 50.6322H246.751V50.5202C246.751 49.9975 246.592 49.5962 246.275 49.3162C245.967 49.0362 245.505 48.8962 244.889 48.8962C244.469 48.8962 244.053 48.9615 243.643 49.0922C243.241 49.2229 242.901 49.4049 242.621 49.6382L241.935 48.3642C242.327 48.0655 242.798 47.8369 243.349 47.6782C243.899 47.5195 244.483 47.4402 245.099 47.4402ZM244.861 53.8242C245.299 53.8242 245.687 53.7262 246.023 53.5302C246.368 53.3249 246.611 53.0355 246.751 52.6622V51.7942H244.945C243.937 51.7942 243.433 52.1255 243.433 52.7882C243.433 53.1055 243.559 53.3575 243.811 53.5442C244.063 53.7309 244.413 53.8242 244.861 53.8242Z" fill="white"/>
<path d="M250.666 47.5242H252.416V50.5622H256.182V47.5242H257.932V55.0002H256.182V52.0462H252.416V55.0002H250.666V47.5242Z" fill="white"/>
<path d="M260.278 47.5242H262.028V50.5622H265.794V47.5242H267.544V55.0002H265.794V52.0462H262.028V55.0002H260.278V47.5242Z" fill="white"/>
<path d="M273.221 55.0982C272.465 55.0982 271.784 54.9349 271.177 54.6082C270.57 54.2815 270.094 53.8289 269.749 53.2502C269.413 52.6622 269.245 51.9995 269.245 51.2622C269.245 50.5249 269.413 49.8669 269.749 49.2882C270.094 48.7095 270.57 48.2569 271.177 47.9302C271.784 47.6035 272.465 47.4402 273.221 47.4402C273.986 47.4402 274.672 47.6035 275.279 47.9302C275.886 48.2569 276.357 48.7095 276.693 49.2882C277.038 49.8669 277.211 50.5249 277.211 51.2622C277.211 51.9995 277.038 52.6622 276.693 53.2502C276.357 53.8289 275.886 54.2815 275.279 54.6082C274.672 54.9349 273.986 55.0982 273.221 55.0982ZM273.221 53.6002C273.865 53.6002 274.397 53.3855 274.817 52.9562C275.237 52.5269 275.447 51.9622 275.447 51.2622C275.447 50.5622 275.237 49.9975 274.817 49.5682C274.397 49.1389 273.865 48.9242 273.221 48.9242C272.577 48.9242 272.045 49.1389 271.625 49.5682C271.214 49.9975 271.009 50.5622 271.009 51.2622C271.009 51.9622 271.214 52.5269 271.625 52.9562C272.045 53.3855 272.577 53.6002 273.221 53.6002Z" fill="white"/>
<path d="M284.68 49.0082H280.69V55.0002H278.94V47.5242H284.68V49.0082Z" fill="white"/>
<path d="M288.957 55.0982C288.201 55.0982 287.52 54.9349 286.913 54.6082C286.307 54.2815 285.831 53.8289 285.485 53.2502C285.149 52.6622 284.981 51.9995 284.981 51.2622C284.981 50.5249 285.149 49.8669 285.485 49.2882C285.831 48.7095 286.307 48.2569 286.913 47.9302C287.52 47.6035 288.201 47.4402 288.957 47.4402C289.723 47.4402 290.409 47.6035 291.015 47.9302C291.622 48.2569 292.093 48.7095 292.429 49.2882C292.775 49.8669 292.947 50.5249 292.947 51.2622C292.947 51.9995 292.775 52.6622 292.429 53.2502C292.093 53.8289 291.622 54.2815 291.015 54.6082C290.409 54.9349 289.723 55.0982 288.957 55.0982ZM288.957 53.6002C289.601 53.6002 290.133 53.3855 290.553 52.9562C290.973 52.5269 291.183 51.9622 291.183 51.2622C291.183 50.5622 290.973 49.9975 290.553 49.5682C290.133 49.1389 289.601 48.9242 288.957 48.9242C288.313 48.9242 287.781 49.1389 287.361 49.5682C286.951 49.9975 286.745 50.5622 286.745 51.2622C286.745 51.9622 286.951 52.5269 287.361 52.9562C287.781 53.3855 288.313 53.6002 288.957 53.6002Z" fill="white"/>
<path d="M305.895 55.0002V50.0442L303.375 54.2162H302.619L300.141 50.0302V55.0002H298.545V47.5242H300.379L303.039 52.2002L305.825 47.5242H307.463L307.477 55.0002H305.895Z" fill="white"/>
<path d="M312.61 47.4402C313.712 47.4402 314.552 47.7062 315.13 48.2382C315.718 48.7609 316.012 49.5542 316.012 50.6182V55.0002H314.36V54.0902C314.146 54.4169 313.838 54.6689 313.436 54.8462C313.044 55.0142 312.568 55.0982 312.008 55.0982C311.448 55.0982 310.958 55.0049 310.538 54.8182C310.118 54.6222 309.792 54.3562 309.558 54.0202C309.334 53.6749 309.222 53.2875 309.222 52.8582C309.222 52.1862 309.47 51.6495 309.964 51.2482C310.468 50.8375 311.257 50.6322 312.33 50.6322H314.262V50.5202C314.262 49.9975 314.104 49.5962 313.786 49.3162C313.478 49.0362 313.016 48.8962 312.4 48.8962C311.98 48.8962 311.565 48.9615 311.154 49.0922C310.753 49.2229 310.412 49.4049 310.132 49.6382L309.446 48.3642C309.838 48.0655 310.31 47.8369 310.86 47.6782C311.411 47.5195 311.994 47.4402 312.61 47.4402ZM312.372 53.8242C312.811 53.8242 313.198 53.7262 313.534 53.5302C313.88 53.3249 314.122 53.0355 314.262 52.6622V51.7942H312.456C311.448 51.7942 310.944 52.1255 310.944 52.7882C310.944 53.1055 311.07 53.3575 311.322 53.5442C311.574 53.7309 311.924 53.8242 312.372 53.8242Z" fill="white"/>
<path d="M324.1 49.0082H321.482V55.0002H319.732V49.0082H317.1V47.5242H324.1V49.0082Z" fill="white"/>
<path d="M332.041 51.3042C332.041 51.4255 332.032 51.5982 332.013 51.8222H326.147C326.25 52.3729 326.516 52.8115 326.945 53.1382C327.384 53.4555 327.925 53.6142 328.569 53.6142C329.391 53.6142 330.067 53.3435 330.599 52.8022L331.537 53.8802C331.201 54.2815 330.777 54.5849 330.263 54.7902C329.75 54.9955 329.171 55.0982 328.527 55.0982C327.706 55.0982 326.983 54.9349 326.357 54.6082C325.732 54.2815 325.247 53.8289 324.901 53.2502C324.565 52.6622 324.397 51.9995 324.397 51.2622C324.397 50.5342 324.561 49.8809 324.887 49.3022C325.223 48.7142 325.685 48.2569 326.273 47.9302C326.861 47.6035 327.524 47.4402 328.261 47.4402C328.989 47.4402 329.638 47.6035 330.207 47.9302C330.786 48.2475 331.234 48.7002 331.551 49.2882C331.878 49.8669 332.041 50.5389 332.041 51.3042ZM328.261 48.8402C327.701 48.8402 327.225 49.0082 326.833 49.3442C326.451 49.6709 326.217 50.1095 326.133 50.6602H330.375C330.301 50.1189 330.072 49.6802 329.689 49.3442C329.307 49.0082 328.831 48.8402 328.261 48.8402Z" fill="white"/>
<path d="M338.099 47.4402C338.827 47.4402 339.476 47.5989 340.045 47.9162C340.624 48.2335 341.077 48.6815 341.403 49.2602C341.73 49.8389 341.893 50.5062 341.893 51.2622C341.893 52.0182 341.73 52.6902 341.403 53.2782C341.077 53.8569 340.624 54.3049 340.045 54.6222C339.476 54.9395 338.827 55.0982 338.099 55.0982C337.091 55.0982 336.293 54.7622 335.705 54.0902V57.7162H333.955V47.5242H335.621V48.5042C335.911 48.1495 336.265 47.8835 336.685 47.7062C337.115 47.5289 337.586 47.4402 338.099 47.4402ZM337.903 53.6002C338.547 53.6002 339.075 53.3855 339.485 52.9562C339.905 52.5269 340.115 51.9622 340.115 51.2622C340.115 50.5622 339.905 49.9975 339.485 49.5682C339.075 49.1389 338.547 48.9242 337.903 48.9242C337.483 48.9242 337.105 49.0222 336.769 49.2182C336.433 49.4049 336.167 49.6755 335.971 50.0302C335.775 50.3849 335.677 50.7955 335.677 51.2622C335.677 51.7289 335.775 52.1395 335.971 52.4942C336.167 52.8489 336.433 53.1242 336.769 53.3202C337.105 53.5069 337.483 53.6002 337.903 53.6002Z" fill="white"/>
<path d="M343.635 47.5242H345.385V52.4522L349.515 47.5242H351.111V55.0002H349.361V50.0722L345.245 55.0002H343.635V47.5242Z" fill="white"/>
<path d="M353.465 47.5242H355.215V50.5622H358.981V47.5242H360.731V55.0002H358.981V52.0462H355.215V55.0002H353.465V47.5242Z" fill="white"/>
<path d="M366.478 55.0982C365.704 55.0982 365.008 54.9349 364.392 54.6082C363.776 54.2815 363.296 53.8289 362.95 53.2502C362.605 52.6622 362.432 51.9995 362.432 51.2622C362.432 50.5249 362.605 49.8669 362.95 49.2882C363.296 48.7095 363.772 48.2569 364.378 47.9302C364.994 47.6035 365.694 47.4402 366.478 47.4402C367.216 47.4402 367.86 47.5895 368.41 47.8882C368.97 48.1869 369.39 48.6162 369.67 49.1762L368.326 49.9602C368.112 49.6149 367.841 49.3582 367.514 49.1902C367.197 49.0129 366.847 48.9242 366.464 48.9242C365.811 48.9242 365.27 49.1389 364.84 49.5682C364.411 49.9882 364.196 50.5529 364.196 51.2622C364.196 51.9715 364.406 52.5409 364.826 52.9702C365.256 53.3902 365.802 53.6002 366.464 53.6002C366.847 53.6002 367.197 53.5162 367.514 53.3482C367.841 53.1709 368.112 52.9095 368.326 52.5642L369.67 53.3482C369.381 53.9082 368.956 54.3422 368.396 54.6502C367.846 54.9489 367.206 55.0982 366.478 55.0982Z" fill="white"/>
<path d="M377.065 49.0082H374.447V55.0002H372.697V49.0082H370.065V47.5242H377.065V49.0082Z" fill="white"/>
<path d="M383.752 51.1082C384.676 51.3882 385.138 51.9855 385.138 52.9002C385.138 53.5722 384.886 54.0902 384.382 54.4542C383.878 54.8182 383.132 55.0002 382.142 55.0002H378.334V47.5242H381.988C382.903 47.5242 383.617 47.6922 384.13 48.0282C384.644 48.3642 384.9 48.8402 384.9 49.4562C384.9 49.8389 384.798 50.1702 384.592 50.4502C384.396 50.7302 384.116 50.9495 383.752 51.1082ZM380 50.6462H381.834C382.74 50.6462 383.192 50.3335 383.192 49.7082C383.192 49.1015 382.74 48.7982 381.834 48.7982H380V50.6462ZM382.002 53.7262C382.964 53.7262 383.444 53.4135 383.444 52.7882C383.444 52.4615 383.332 52.2189 383.108 52.0602C382.884 51.8922 382.534 51.8082 382.058 51.8082H380V53.7262H382.002Z" fill="white"/>
<path d="M389.788 47.4402C390.889 47.4402 391.729 47.7062 392.308 48.2382C392.896 48.7609 393.19 49.5542 393.19 50.6182V55.0002H391.538V54.0902C391.324 54.4169 391.016 54.6689 390.614 54.8462C390.222 55.0142 389.746 55.0982 389.186 55.0982C388.626 55.0982 388.136 55.0049 387.716 54.8182C387.296 54.6222 386.97 54.3562 386.736 54.0202C386.512 53.6749 386.4 53.2875 386.4 52.8582C386.4 52.1862 386.648 51.6495 387.142 51.2482C387.646 50.8375 388.435 50.6322 389.508 50.6322H391.44V50.5202C391.44 49.9975 391.281 49.5962 390.964 49.3162C390.656 49.0362 390.194 48.8962 389.578 48.8962C389.158 48.8962 388.743 48.9615 388.332 49.0922C387.931 49.2229 387.59 49.4049 387.31 49.6382L386.624 48.3642C387.016 48.0655 387.488 47.8369 388.038 47.6782C388.589 47.5195 389.172 47.4402 389.788 47.4402ZM389.55 53.8242C389.989 53.8242 390.376 53.7262 390.712 53.5302C391.057 53.3249 391.3 53.0355 391.44 52.6622V51.7942H389.634C388.626 51.7942 388.122 52.1255 388.122 52.7882C388.122 53.1055 388.248 53.3575 388.5 53.5442C388.752 53.7309 389.102 53.8242 389.55 53.8242Z" fill="white"/>
<path d="M48.0219 19.3768C51.9828 19.3768 55.1936 22.5125 55.1936 26.3803C55.1936 30.2487 51.9828 33.3842 48.0219 33.3842C44.061 33.3842 40.8501 30.2487 40.8501 26.3803C40.8501 22.5125 44.061 19.3768 48.0219 19.3768ZM48.4999 18.5286C53.1944 18.5286 57 22.0889 57 26.4806C57 30.8727 53.1944 34.4331 48.4999 34.4331C43.8056 34.4331 40 30.8727 40 26.4806C40 22.0889 43.8056 18.5286 48.4999 18.5286Z" fill="#CDB6F1"/>
<path d="M7.00101 6.9669C6.85622 6.8803 22.2863 -0.513453 31.5588 9.60671C31.0972 9.59572 30.6151 9.59794 30.1838 9.63069C14.5598 10.8311 12.8136 33.0284 16.2526 44.7442C20.4972 59.202 26.4292 59.2838 26.4292 59.2838C23.473 59.2001 19.8632 49.3716 19.3103 47.2607C20.9885 44.8761 24.3994 40.7321 28.8781 38.9279C35.3541 36.3186 39 38.6017 39 38.6017C34.1848 33.0018 22.2436 37.8142 18.3905 42.6956C18.279 41.9747 18.2299 41.2365 18.1032 40.5044C16.6494 32.1086 19.9081 9.52892 33.8204 12.6822C36.7148 17.7743 35.5717 22.6414 34.2647 25.176C31.7054 30.1378 28.523 31.8871 23.3808 32.677C23.3808 32.677 30.8906 33.5465 35.2443 28.7633C39.5974 23.9802 39.5974 15.8268 37.0947 9.84784C32.03 -2.24906 14.291 -1.59939 7.00101 6.9669Z" fill="#CDB6F1"/>
<path d="M23.9396 3.15884C3.97511 2.97059 -1.82623 27.7745 5.16741 41.8998C14.1748 60.0923 30.203 61.0686 45.5559 49.7105C57.3114 41.0139 62.6869 27.7912 59.0145 18.2517C65.7446 27.5826 60.7208 42.8621 47.7186 52.4811C30.7639 65.0241 14.6655 62.5322 4.62492 44.2871C-4.64019 27.4522 -0.854115 -1.67905 23.9396 3.15884Z" fill="#CDB6F1"/>
<path d="M47.5499 19.3768C51.2778 19.3768 54.2997 22.5125 54.2997 26.3803C54.2997 30.2487 51.2778 33.3842 47.5499 33.3842C43.8221 33.3842 40.8 30.2487 40.8 26.3803C40.8 22.5125 43.8221 19.3768 47.5499 19.3768ZM47.9998 18.5286C52.4182 18.5286 56 22.0889 56 26.4806C56 30.8727 52.4182 34.4331 47.9998 34.4331C43.5816 34.4331 40 30.8727 40 26.4806C40 22.0889 43.5816 18.5286 47.9998 18.5286Z" fill="#CDB6F1"/>
</svg>
