<svg width="197" height="55" viewBox="0 0 197 55" fill="none" xmlns="http://www.w3.org/2000/svg">
<path d="M66.0508 44.6671V20.4219H70.8583L76.5717 37.5885C77.0987 39.1878 77.4828 40.3838 77.7244 41.1776C77.9984 40.2955 78.4267 39.0003 79.0086 37.2914L84.7878 20.4219H89.0854V44.6671H86.0063V24.3746L78.9922 44.6676H76.1106L69.1294 24.0275V44.6676H66.0508V44.6671ZM91.5876 44.6671L100.857 20.4219H104.298L114.177 44.6671H110.539L107.723 37.324H97.6301L94.9793 44.6671H91.5876ZM98.5524 34.7109H106.736L104.216 27.9963C103.448 25.9564 102.877 24.2806 102.504 22.9689C102.197 24.5229 101.764 26.0674 101.204 27.5997L98.5524 34.7109ZM119.232 20.4219H134.346V44.6671H131.152V23.2829H122.426V35.7691C122.426 38.3052 122.308 40.1628 122.072 41.3429C121.836 42.5229 121.339 43.4408 120.582 44.0967C119.825 44.7526 118.864 45.0807 117.7 45.0807C116.998 45.0807 116.153 44.9481 115.165 44.6836L115.708 41.8391C116.235 42.0597 116.685 42.1697 117.058 42.1697C117.783 42.1697 118.326 41.8967 118.688 41.3509C119.05 40.8055 119.231 39.5178 119.231 37.4893V20.4219H119.232ZM139.763 20.4219H142.957V30.7747H148.72C152.496 30.7747 154.979 31.4754 156.171 32.875C157.362 34.2755 157.957 35.8635 157.957 37.6385C157.957 39.5126 157.32 41.153 156.047 42.5583C154.773 43.9645 152.408 44.6671 148.951 44.6671H139.763V20.4219ZM142.957 41.9383H148.802C150.811 41.9383 152.268 41.5993 153.174 40.9207C154.08 40.2431 154.532 39.1599 154.532 37.6711C154.532 36.6568 154.258 35.8083 153.709 35.1241C153.16 34.4408 152.452 34.0055 151.585 33.8175C150.718 33.6301 149.269 33.5366 147.238 33.5366H142.957V41.9383ZM160.855 20.4219H164.049V44.6671H160.855V20.4219ZM169.499 20.4219H172.693V41.8061H180.711V20.4219H183.905V41.8061H191.924V20.4219H195.118V44.6671H169.499V20.4219H169.499Z" fill="#701313"/>
<path d="M65.6137 15.2986V7.06401H67.2463L69.1868 12.8946C69.366 13.4377 69.4962 13.8438 69.5784 14.1134C69.6715 13.814 69.8172 13.3739 70.0147 12.7936L71.9773 7.06448H73.4369V15.2991H72.3914V8.40645L70.0095 15.2986H69.0308L66.6597 8.2884V15.2986H65.6137ZM75.2096 15.2986V7.06401H81.1368V8.03578H76.2945V10.5578H80.8294V11.5239H76.2945V14.3268H81.3272V15.2986H75.2096ZM83.5691 7.06401H88.5571V14.3268H89.2952V17.2195H88.3277V15.2986H82.9091V17.2195H81.9416V14.3268H82.5791C83.2391 13.3272 83.5686 11.3067 83.5686 8.26621V7.06401H83.5691ZM87.4722 8.03578H84.6145V8.45698C84.6145 9.15724 84.552 10.1148 84.4274 11.3303C84.3029 12.5457 84.0575 13.5444 83.6922 14.3268H87.4722V8.03578ZM90.5982 7.06401H91.5826V13.5855L95.944 7.06401H97.0346V15.2986H96.0502V8.79412L91.6832 15.2986H90.5982V7.06401ZM98.8181 7.06401H99.9031V14.3268H104.175V7.06401H105.266V14.3268H106.015V17.5845H105.053V15.2986H98.8186V7.06401H98.8181ZM107.301 7.06401H108.286V13.5855L112.647 7.06401H113.738V15.2986H112.753V8.79412L108.386 15.2986H107.301V7.06401ZM115.549 15.2986V7.06401H116.634V10.4454H120.895V7.06401H121.98V15.2986H120.895V11.4172H116.634V15.2986H115.549ZM129.635 12.4116L130.72 12.6869C130.492 13.5817 130.083 14.2645 129.492 14.7343C128.902 15.2041 128.18 15.4393 127.326 15.4393C126.443 15.4393 125.724 15.2584 125.17 14.8972C124.616 14.536 124.195 14.0123 123.906 13.3272C123.617 12.642 123.473 11.9059 123.473 11.1197C123.473 10.2622 123.636 9.51422 123.962 8.87581C124.289 8.23741 124.753 7.75246 125.355 7.42098C125.957 7.08951 126.619 6.92377 127.343 6.92377C128.163 6.92377 128.853 7.13342 129.412 7.55273C129.971 7.97203 130.36 8.5618 130.58 9.32203L129.512 9.57466C129.322 8.97544 129.046 8.53914 128.684 8.26574C128.323 7.99234 127.868 7.85587 127.32 7.85587C126.69 7.85587 126.164 8.00745 125.741 8.31107C125.318 8.61422 125.02 9.02172 124.849 9.53263C124.677 10.0435 124.592 10.571 124.592 11.114C124.592 11.8143 124.693 12.4258 124.896 12.948C125.1 13.4702 125.415 13.8608 125.844 14.119C126.273 14.3773 126.737 14.5067 127.237 14.5067C127.844 14.5067 128.359 14.3306 128.78 13.9788C129.201 13.6265 129.486 13.1043 129.635 12.4116ZM132.073 7.06401H133.158V10.6701C133.654 10.6701 134.002 10.5738 134.204 10.3807C134.405 10.188 134.662 9.72434 134.976 8.99055C135.203 8.45131 135.39 8.07025 135.537 7.84737C135.684 7.6245 135.894 7.43751 136.166 7.28547C136.438 7.13389 136.738 7.05787 137.066 7.05787C137.484 7.05787 137.704 7.06165 137.726 7.0692V8.01264C137.689 8.01264 137.616 8.01075 137.508 8.00698C137.389 8.0032 137.317 8.00131 137.29 8.00131C136.943 8.00131 136.686 8.08536 136.518 8.25393C136.347 8.42251 136.151 8.78184 135.931 9.33242C135.655 10.0289 135.423 10.468 135.232 10.6494C135.042 10.8307 134.815 10.9761 134.55 11.0847C135.079 11.2306 135.601 11.7212 136.116 12.5566L137.805 15.2976H136.457L135.087 13.0623C134.71 12.4442 134.395 12.0201 134.142 11.7902C133.889 11.5598 133.561 11.4445 133.158 11.4445V15.2976H132.073V7.06401H132.073ZM138.744 7.06401H139.729V13.5855L144.09 7.06401H145.181V15.2986H144.196V8.79412L139.829 15.2986H138.744V7.06401ZM146.975 7.06401H147.96V13.5855L152.321 7.06401H153.412V15.2986H152.427V8.79412L148.06 15.2986H146.975V7.06401ZM151.052 5.10393H151.74C151.684 5.57188 151.513 5.93169 151.228 6.18242C150.943 6.43316 150.564 6.55876 150.09 6.55876C149.613 6.55876 149.232 6.4341 148.946 6.18526C148.661 5.93641 148.491 5.57565 148.435 5.10393H149.123C149.175 5.35845 149.278 5.54874 149.433 5.67387C149.588 5.79947 149.795 5.8618 150.056 5.8618C150.358 5.8618 150.587 5.80089 150.741 5.67906C150.896 5.55724 151 5.366 151.052 5.10393ZM158.377 7.06401H159.462V14.3268H163.734V7.06401H164.825V14.3268H165.574V17.5845H164.612V15.2986H158.378V7.06401H158.377ZM166.866 15.2986V7.06401H172.793V8.03578H167.951V10.5578H172.485V11.5239H167.951V14.3268H172.983V15.2986H166.866ZM174.515 15.2986V7.06401H175.6V10.4454H179.861V7.06401H180.946V15.2986H179.861V11.4172H175.6V15.2986H174.515ZM184.838 15.2986V8.03578H182.137V7.06401H188.635V8.03578H185.923V15.2986H184.838ZM189.748 15.2986V7.06401H192.84C193.384 7.06401 193.8 7.09045 194.087 7.14286C194.49 7.21039 194.827 7.33835 195.099 7.5277C195.371 7.71705 195.59 7.98195 195.756 8.3224C195.922 8.66285 196.005 9.03777 196.005 9.44575C196.005 10.146 195.783 10.7386 195.339 11.2236C194.896 11.7085 194.094 11.9507 192.935 11.9507H190.832V15.2986H189.748ZM190.832 10.979H192.951C193.652 10.979 194.15 10.8477 194.444 10.5856C194.739 10.3236 194.886 9.95477 194.886 9.47927C194.886 9.13457 194.8 8.83992 194.626 8.59438C194.453 8.34932 194.225 8.18735 193.941 8.1085C193.759 8.05986 193.422 8.03531 192.929 8.03531H190.832V10.979ZM53.8038 27.9571C53.8038 28.2796 53.8071 28.6026 53.8029 28.9251C53.7883 30.0688 53.6492 31.1983 53.4738 32.3282C53.3088 33.3921 53.07 34.4361 52.779 35.4683C52.2939 37.1885 51.6334 38.8421 50.8061 40.4263C50.085 41.807 49.2487 43.1126 48.3114 44.3569C47.3989 45.568 46.3864 46.6871 45.2836 47.7194C44.3406 48.6024 43.3369 49.4155 42.2698 50.1507C41.1567 50.918 40.0125 51.6272 38.7903 52.2009C37.8247 52.6542 36.8249 53.0244 35.8198 53.3828C34.5675 53.8291 33.2823 54.1502 31.9802 54.3924C31.2248 54.5331 30.459 54.6285 29.6904 54.6965C28.8903 54.7673 28.0893 54.8155 27.2888 54.875C26.4779 54.9354 25.6665 54.9477 24.8626 54.9009C23.922 54.8462 22.9861 54.6988 22.053 54.534C20.669 54.289 19.3175 53.9334 17.9952 53.4697C16.5765 52.9725 15.2076 52.3553 13.8928 51.6178C12.7068 50.952 11.5734 50.213 10.4955 49.3791C9.411 48.5396 8.39091 47.6329 7.44605 46.6413C6.53267 45.6833 5.69969 44.6581 4.93157 43.5759C4.07743 42.3722 3.32106 41.111 2.68034 39.7846C1.90423 38.1778 1.28842 36.509 0.846071 34.7732C0.598336 33.8024 0.397141 32.824 0.248594 31.8371C0.151757 31.1921 0.102868 30.5358 0.0525693 29.8818C-0.0264048 28.85 0.0144925 27.8197 0.0144925 26.7894C0.0144925 25.8257 0.145176 24.8704 0.28244 23.9152C0.470944 22.601 0.761926 21.3129 1.14175 20.0436C1.66026 18.3107 2.35645 16.6495 3.21482 15.0611C3.91572 13.7644 4.71251 12.5273 5.62917 11.369C6.22242 10.6191 6.84152 9.89669 7.49917 9.20257C8.45908 8.18877 9.50689 7.2831 10.6041 6.42513C12.1422 5.22198 13.8096 4.23793 15.5653 3.40357C17.1904 2.63153 18.8902 2.05404 20.6366 1.63379C21.5603 1.41186 22.5014 1.25178 23.443 1.12287C23.9479 1.05393 24.4645 1.02749 24.975 0.984521C25.9927 0.899054 27.0095 0.936357 28.0254 0.946746C29.1047 0.957606 30.1746 1.09926 31.244 1.26548C32.9175 1.52565 34.5417 1.9596 36.131 2.53284C37.5916 3.05981 38.9835 3.73268 40.335 4.50142C41.2596 5.02791 42.1396 5.6191 42.9928 6.24758C43.5833 6.68295 44.1652 7.13767 44.6997 7.64669C45.1275 8.0542 45.5919 8.42581 46 8.85173C47.5221 10.4411 48.8957 12.1457 50.0145 14.0529C50.9481 15.6442 51.7355 17.2978 52.3362 19.045C52.8002 20.3945 53.1659 21.7653 53.4094 23.1715C53.5302 23.8698 53.613 24.5715 53.6985 25.2746C53.8076 26.1689 53.7987 27.0623 53.8038 27.9571ZM17.5279 26.168C17.5909 25.9928 17.6234 25.8908 17.6469 25.803C17.7672 25.3568 17.7893 24.8954 17.7964 24.4431C17.8062 23.8198 17.6868 23.2026 17.5952 22.5831C17.4513 21.6057 16.9413 20.8917 16.1732 20.344C15.4079 19.7986 14.5885 19.6305 13.6709 20.0016C12.6936 20.3973 11.9913 21.1165 11.3745 21.9135C10.5204 23.017 9.92198 24.2712 9.47305 25.5938C9.12472 26.6208 8.84925 27.6634 8.7322 28.7476C8.63724 29.6235 8.53476 30.4904 8.61138 31.3796C8.68237 32.1993 8.79378 33.0016 9.01284 33.7958C9.31087 34.8771 9.81245 35.8489 10.5326 36.6946C11.3449 37.6484 12.3725 38.3147 13.5477 38.7335C13.803 38.8247 14.0545 38.988 14.3708 38.8799C15.8765 38.3638 17.4015 37.9133 18.9565 37.571C19.9089 37.3613 20.8735 37.2178 21.8447 37.164C22.4323 37.1314 23.0256 37.1248 23.6193 37.1998C24.2821 37.2839 24.9341 37.383 25.5509 37.6541C25.6966 37.7183 25.8315 37.7169 25.9909 37.6281C27.1021 37.0086 27.8524 36.0916 28.2971 34.9026C28.5857 34.1311 28.7117 33.3274 28.7991 32.5162C28.824 32.2819 28.857 32.0326 28.6412 31.8315C28.0644 31.2946 27.5873 30.6704 27.2065 29.9843C26.8361 29.3161 26.5996 28.604 26.8802 27.8268C26.995 27.5095 27.1966 27.2734 27.5511 27.2498C27.8665 27.2285 28.18 27.2427 28.4903 27.3442C29.6622 27.7272 30.6823 28.3986 31.701 29.064C31.9863 29.25 32.1189 29.1693 32.3191 28.9879C33.1864 28.2031 33.7012 27.1993 34.0744 26.1175C34.6841 24.3519 34.9149 22.5175 34.9798 20.6589C34.9854 20.4988 35.0094 20.394 35.1824 20.3666C35.5477 20.3081 35.912 20.2467 36.2768 20.1848C36.9692 20.0677 37.6795 20.013 38.3489 19.817C39.2796 19.5445 40.1159 19.0459 40.7985 18.3456C41.2827 17.8484 41.6841 17.2761 41.9511 16.6236C42.5806 15.0842 42.8871 13.5 42.6398 11.8303C42.3949 10.1739 41.592 8.84134 40.3082 7.80582C39.1358 6.86049 37.773 6.32266 36.2824 6.18951C35.1034 6.08421 33.9442 6.21973 32.8818 6.83169C31.6027 7.56831 30.9437 8.6841 30.8525 10.1451C30.8369 10.3911 30.7782 10.546 30.5582 10.6829C29.7172 11.2066 28.9853 11.8676 28.4334 12.6907C27.6808 13.8126 27.5647 15.062 27.866 16.3601C27.9915 16.9003 28.1861 17.4187 28.4123 17.9244C28.439 17.9844 28.4931 18.0411 28.4484 18.1039C28.3991 18.1733 28.3521 18.093 28.3032 18.0831C27.1252 17.8418 25.9344 17.702 24.7324 17.685C24.2102 17.6775 23.6893 17.7493 23.1675 17.7856C22.6556 17.821 22.155 17.9103 21.6534 18.0009C20.7259 18.1686 19.8313 18.4533 18.965 18.8221C18.2566 19.1238 17.5905 19.5006 17.0358 20.0215C18.0446 21.4782 18.4408 23.0784 18.2857 24.8298C18.8066 24.5385 19.279 24.1668 19.7731 23.8264C20.198 23.5336 20.6004 23.205 21.063 22.9675C21.1438 22.9259 21.2317 22.8844 21.2938 22.9453C21.3549 23.0057 21.3342 23.1002 21.2731 23.1743C21.2444 23.2092 21.2284 23.2546 21.2045 23.2938C20.834 23.8897 20.3146 24.3416 19.781 24.7802C19.137 25.3081 18.3285 25.8049 17.5279 26.168ZM38.857 29.0238C38.701 29.1877 38.6084 29.3893 38.4979 29.5786C38.2929 29.9295 38.2079 30.3412 37.954 30.6675C37.9235 30.7067 37.9296 30.7964 37.8468 30.7624C37.7956 30.7417 37.7702 30.6921 37.7599 30.6288C37.7378 30.4914 37.7956 30.3696 37.8205 30.2425C38.0198 29.2155 38.2267 28.1895 38.426 27.162C38.5726 26.4046 38.6596 25.6391 38.6055 24.8671C38.5891 24.632 38.5078 24.3987 38.4344 24.1716C38.4081 24.0903 38.3273 23.9874 38.2539 23.9709C38.1721 23.9525 38.1026 24.0653 38.0593 24.1413C37.9864 24.2688 37.9235 24.4048 37.8764 24.5441C37.6513 25.2109 37.5074 25.8984 37.3485 26.5831C37.0576 27.8367 36.8305 29.1027 36.5748 30.3634C36.5518 30.4763 36.5776 30.6052 36.4098 30.6C36.2523 30.5953 36.2015 30.5018 36.1691 30.3478C36.0831 29.9432 36.186 29.555 36.2316 29.1612C36.3247 28.3585 36.4963 27.5699 36.6627 26.7809C36.8192 26.0372 36.9588 25.2907 37.0839 24.5413C37.1746 23.9969 37.2616 23.4543 37.2583 22.8985C37.2564 22.5874 37.2945 22.2729 37.1464 21.9877C37.0453 21.7927 37.0035 21.4886 36.7182 21.5056C36.4399 21.5221 36.3769 21.8111 36.2918 22.0278C35.9106 23.0015 35.7 24.0257 35.4438 25.0347C35.0334 26.6534 34.4162 28.1791 33.508 29.5786C32.7845 30.6935 31.8222 30.8715 30.7537 30.0348C29.9687 29.4195 29.1602 28.8312 28.2444 28.4166C28.0381 28.3231 27.8251 28.1687 27.5967 28.3278C27.4787 28.41 27.5971 28.8109 27.7852 29.0361C27.7974 29.0507 27.8115 29.0635 27.8246 29.0767C28.613 29.879 29.1987 30.8238 29.713 31.8159C30.2874 32.9232 30.711 34.0989 31.2196 35.2365C31.7992 36.5322 32.5039 37.7405 33.4309 38.8166C33.5282 38.9295 33.6734 39.0343 33.6781 39.2057C33.6852 39.4593 33.7209 39.7129 33.728 39.9631C33.7585 41.0973 33.7599 42.2329 33.7783 43.3676C33.8004 44.7393 33.8629 46.1106 33.8502 47.4833C33.8497 47.5116 33.8521 47.5404 33.8502 47.5687C33.8455 47.6499 33.8789 47.6759 33.9635 47.6887C34.4787 47.7647 34.9939 47.8393 35.5152 47.8568C36.1616 47.8785 36.8028 47.8133 37.4327 47.6806C38.2299 47.5125 38.9877 47.2316 39.6703 46.7698C39.7855 46.6919 39.8188 46.6272 39.7723 46.477C39.2336 44.7408 38.6605 43.0135 38.2887 41.2295C38.1256 40.4471 37.9996 39.6586 37.923 38.8605C37.8905 38.5215 37.8995 38.1834 37.868 37.8477C37.8478 37.6338 37.7782 37.4232 37.8459 37.2093C38.0508 36.5633 38.1561 35.8938 38.2629 35.2289C38.4326 34.1736 38.6098 33.1191 38.7372 32.0558C38.8443 31.1614 38.9675 30.2718 38.9529 29.369C38.9511 29.2505 38.9609 29.131 38.857 29.0238ZM27.4298 48.7926C27.1383 48.2751 27.0105 47.6962 27.0029 47.1145C26.9907 46.1989 26.9884 45.2824 27.0311 44.3644C27.0866 43.1754 27.1238 41.9742 26.821 40.8008C26.578 39.8588 26.0712 39.1552 25.1362 38.7755C24.4635 38.5021 23.7847 38.3067 23.0627 38.2273C22.2086 38.1334 21.3539 38.1362 20.5092 38.2453C19.5418 38.3699 18.5936 38.607 17.6793 38.9687C17.119 39.1906 16.5901 39.4668 16.0787 39.7813C15.9071 39.8866 15.9461 39.9768 16.1003 40.0524C16.1572 40.0802 16.2202 40.0972 16.2822 40.1119C16.9704 40.2733 17.6737 40.3399 18.3741 40.3862C19.0458 40.4306 19.7181 40.4877 20.3898 40.5302C20.7377 40.5519 21.094 40.5283 21.4466 40.6091C21.6614 40.6582 21.7427 40.747 21.7761 40.9372C21.816 41.1663 21.7032 41.2975 21.5016 41.3589C21.1824 41.4562 20.8632 41.4005 20.5365 41.3764C19.5798 41.306 18.6284 41.205 17.6765 41.0869C16.7951 40.9779 15.9217 40.8244 15.0788 40.5562C14.0597 40.2313 13.0856 39.7818 12.1525 39.2562C11.5974 38.9432 11.0525 38.6041 10.5792 38.1697C10.4301 38.0328 10.2863 37.9818 10.1171 38.0852C9.93937 38.1938 9.96993 38.3586 10.0216 38.5333C10.2115 39.1779 10.6986 39.5863 11.1762 39.9957C11.5969 40.356 12.129 40.5156 12.6264 40.7295C14.0944 41.3603 15.6161 41.8198 17.1881 42.1036C17.4499 42.1508 17.5331 42.3378 17.5759 42.5488C17.6229 42.7826 17.4339 42.8369 17.2642 42.9058C17.119 42.9653 16.969 42.9828 16.8252 42.9549C16.2465 42.843 15.6636 42.7415 15.0948 42.5899C13.921 42.2773 12.7632 41.9142 11.6603 41.3906C11.5541 41.34 11.4413 41.2177 11.2815 41.2829C11.053 41.3759 11.0206 41.7367 11.249 41.9114C11.564 42.1527 11.8959 42.3718 12.2465 42.5588C13.5435 43.2515 14.9335 43.6618 16.3701 43.9361C16.4796 43.9569 16.6273 43.9531 16.686 44.1217C16.7321 44.2539 16.7683 44.3828 16.6949 44.4957C16.5868 44.6638 16.4021 44.6964 16.2192 44.6652C15.6006 44.5599 14.9867 44.4168 14.3647 44.346C14.0714 44.3125 13.7428 44.1222 13.457 44.4003C13.5252 44.5339 13.645 44.6067 13.7724 44.6652C14.7154 45.1006 15.7017 45.4028 16.7321 45.5142C17.5134 45.5983 18.3008 45.6304 19.0891 45.6408C19.8139 45.6502 20.5341 45.5492 21.2599 45.5718C21.4856 45.5789 21.5598 45.6167 21.5566 45.8622C21.5415 46.9818 21.5528 48.1014 21.5467 49.2209C21.5457 49.3758 21.5754 49.4339 21.7455 49.4717C22.1893 49.5708 22.6345 49.6327 23.0853 49.6912C23.993 49.8088 24.8608 49.6473 25.7281 49.4315C26.318 49.2837 26.8718 49.0354 27.4298 48.7926ZM11.5503 19.9001C11.4352 19.8888 11.3689 19.8911 11.3054 19.9015C10.5284 20.0252 9.82796 20.3222 9.17972 20.7765C8.85912 21.0013 8.7148 21.227 8.66826 21.6496C8.64429 21.9452 8.64335 22.0212 8.62032 22.2058C8.53476 22.8891 8.44591 23.5719 8.33874 24.2518C8.24237 24.8643 8.12438 25.4739 8.00827 26.0835C7.9166 26.5646 7.81694 27.0444 7.7154 27.5237C7.66746 27.7498 7.83528 27.8244 7.98241 27.8613C8.14224 27.9009 8.35002 27.8863 8.38903 27.6752C8.43181 27.4457 8.50797 27.2285 8.56343 27.0047C8.95078 25.4394 9.52852 23.9444 10.2083 22.4882C10.6111 21.625 11.037 20.7732 11.5503 19.9001ZM65.6838 51.6395H195.297V49.2715H65.6838V51.6395Z" fill="#701313"/>
</svg>
