<svg width="13" height="13" viewBox="0 0 13 13" fill="none" xmlns="http://www.w3.org/2000/svg">
<path d="M12.2576 9.98361L10.4002 8.12599C10.0302 7.75751 9.41753 7.76871 9.03467 8.1517L8.0989 9.08726C8.03978 9.05468 7.97859 9.02065 7.91425 8.98454C7.32332 8.65711 6.51453 8.20833 5.66345 7.35663C4.80984 6.50313 4.36065 5.69309 4.03222 5.10178C3.99757 5.03914 3.96436 4.97874 3.93157 4.92138L4.55961 4.29427L4.86838 3.98512C5.25182 3.60158 5.26239 2.98909 4.89329 2.61954L3.03588 0.761717C2.66678 0.392688 2.05384 0.403883 1.6704 0.787425L1.14692 1.31391L1.16122 1.32811C0.985693 1.55209 0.839014 1.81041 0.72986 2.08898C0.629241 2.35414 0.566596 2.60717 0.537952 2.86073C0.292692 4.89398 1.22183 6.75222 3.74339 9.27382C7.22895 12.7591 10.0379 12.4958 10.159 12.483C10.423 12.4514 10.6759 12.3884 10.9329 12.2886C11.2091 12.1807 11.4672 12.0342 11.6911 11.8591L11.7025 11.8692L12.2328 11.3499C12.6155 10.9664 12.6265 10.3537 12.2576 9.98361Z" fill="url(#paint0_linear)"/>
<defs>
<linearGradient id="paint0_linear" x1="0.5" y1="6.49219" x2="12.5272" y2="6.49219" gradientUnits="userSpaceOnUse">
<stop stop-color="#6288E4"/>
<stop offset="1" stop-color="#AB86E4"/>
</linearGradient>
</defs>
</svg>
