<svg width="95" height="95" viewBox="0 0 95 95" fill="none" xmlns="http://www.w3.org/2000/svg">
<g clip-path="url(#clip0)">
<path d="M74.5682 50.6846H20.5565C19.7879 50.6846 19.165 51.3076 19.165 52.076C19.165 52.8443 19.7879 53.4674 20.5565 53.4674H74.568C75.3366 53.4674 75.9595 52.8443 75.9595 52.076C75.9595 51.3076 75.3368 50.6846 74.5682 50.6846Z" fill="white"/>
<path d="M74.5682 60.291H20.5565C19.7879 60.291 19.165 60.9141 19.165 61.6824C19.165 62.451 19.7879 63.0739 20.5565 63.0739H74.568C75.3366 63.0739 75.9595 62.4508 75.9595 61.6824C75.9596 60.9139 75.3368 60.291 74.5682 60.291Z" fill="white"/>
<path d="M75.9596 71.2899C75.9596 70.5213 75.3368 69.8984 74.5682 69.8984H20.5565C19.7879 69.8984 19.165 70.5215 19.165 71.2899C19.165 72.0584 19.7879 72.6813 20.5565 72.6813H74.568C75.3368 72.6813 75.9596 72.0582 75.9596 71.2899V71.2899Z" fill="white"/>
<path d="M20.5565 79.5039C19.7879 79.5039 19.165 80.127 19.165 80.8953C19.165 81.6637 19.7879 82.2867 20.5565 82.2867H47.5001C48.2686 82.2867 48.8915 81.6637 48.8915 80.8953C48.8915 80.127 48.2686 79.5039 47.5001 79.5039H20.5565Z" fill="white"/>
<path d="M74.5683 34.4199H54.7215C53.953 34.4199 53.3301 35.043 53.3301 35.8113C53.3301 36.5799 53.953 37.2028 54.7215 37.2028H74.5683C75.3369 37.2028 75.9597 36.5797 75.9597 35.8113C75.9597 35.0428 75.3369 34.4199 74.5683 34.4199Z" fill="white"/>
<path d="M74.5683 26.875H54.7215C53.953 26.875 53.3301 27.4981 53.3301 28.2664C53.3301 29.0348 53.953 29.6578 54.7215 29.6578H74.5683C75.3369 29.6578 75.9597 29.0348 75.9597 28.2664C75.9597 27.4981 75.3369 26.875 74.5683 26.875Z" fill="white"/>
<path d="M83.7723 79.0346C84.5409 79.0346 85.1637 78.4116 85.1637 77.6432V21.2319C85.1637 19.321 84.3876 17.6039 83.1474 16.3636C68.3992 1.66881 68.7807 1.86438 67.8442 1.21941C66.7028 0.427686 65.3507 0 63.932 0H16.7216C12.9253 0 9.83691 3.08861 9.83691 6.8849V88.1151C9.83691 91.9114 12.9253 95 16.7216 95H78.279C82.0753 95 85.1637 91.9114 85.1637 88.1151V84.1733C85.1637 83.4048 84.5409 82.7819 83.7723 82.7819C83.0038 82.7819 82.3809 83.405 82.3809 84.1733V88.1151C82.3809 90.3769 80.5408 92.217 78.279 92.217H16.7216C14.46 92.217 12.6197 90.3769 12.6197 88.1151V6.8849C12.6197 4.62309 14.4598 2.78302 16.7216 2.78302H63.932C64.2331 2.78302 64.5285 2.81827 64.8157 2.88117V15.5509C64.8157 18.196 66.9679 20.348 69.6129 20.348H82.2826C82.3455 20.6354 82.3807 20.9306 82.3807 21.2319V77.6432C82.3809 78.4116 83.0038 79.0346 83.7723 79.0346V79.0346ZM69.6131 17.565C68.5024 17.565 67.5988 16.6614 67.5988 15.5507V4.75074L80.413 17.565H69.6131Z" fill="white"/>
<path d="M20.4324 23.1295C19.6639 23.1295 19.041 23.7526 19.041 24.5209V36.9765C19.041 39.5102 21.1021 41.5714 23.6359 41.5714H39.9792C42.5129 41.5714 44.5741 39.5102 44.5741 36.9765V16.7111C44.5741 14.1775 42.5131 12.1162 39.9792 12.1162H23.6359C21.1023 12.1162 19.041 14.1775 19.041 16.7111V18.0157C19.041 18.7842 19.6639 19.4071 20.4324 19.4071C21.201 19.4071 21.8238 18.784 21.8238 18.0157V16.7111C21.8238 15.7121 22.6367 14.8992 23.6357 14.8992H39.9791C40.978 14.8992 41.7909 15.7121 41.7909 16.7111V33.0364C40.5229 31.6064 38.9554 30.4597 37.1851 29.6834C37.8892 28.6453 38.3013 27.3934 38.3013 26.0473C38.3013 22.4666 35.3883 19.5533 31.8076 19.5533C28.2269 19.5533 25.3136 22.4664 25.3136 26.0473C25.3136 27.3936 25.7255 28.6453 26.4299 29.6834C24.6596 30.4599 23.0921 31.6064 21.824 33.0364V24.5209C21.824 23.7524 21.2012 23.1295 20.4324 23.1295V23.1295ZM31.8076 22.3363C33.8536 22.3363 35.5183 24.001 35.5183 26.0473C35.5183 28.0935 33.8536 29.7582 31.8076 29.7582C29.7614 29.7582 28.0966 28.0935 28.0966 26.0473C28.0966 24.001 29.7614 22.3363 31.8076 22.3363ZM28.7707 31.7849C29.6777 32.267 30.711 32.5412 31.8076 32.5412C32.9042 32.5412 33.9376 32.267 34.8444 31.7849C37.8863 32.6941 40.3446 34.9145 41.5631 37.8543C41.2534 38.4108 40.6598 38.7886 39.9792 38.7886H23.6359C22.9553 38.7886 22.3617 38.411 22.0521 37.8545C23.2704 34.9145 25.7285 32.6941 28.7707 31.7849Z" fill="white"/>
</g>
<defs>
<clipPath id="clip0">
<rect width="95" height="95" fill="white"/>
</clipPath>
</defs>
</svg>
