<svg width="95" height="95" viewBox="0 0 95 95" fill="none" xmlns="http://www.w3.org/2000/svg">
<path d="M55.3118 88.9277C54.361 88.5464 53.2804 89.0084 52.8991 89.9597C52.5805 90.7544 51.7727 91.2884 50.8891 91.2884H44.1107C43.2271 91.2884 42.4193 90.7544 42.1007 89.9597C41.7194 89.0084 40.6393 88.5473 39.688 88.9277C38.7369 89.3091 38.2749 90.3892 38.6562 91.3403C39.5474 93.5632 41.6882 94.9993 44.1107 94.9993H50.8891C53.3116 94.9993 55.4524 93.5632 56.3434 91.3403C56.7249 90.3892 56.2629 89.3091 55.3118 88.9277Z" fill="white"/>
<path d="M77.1024 79.3699C76.5985 76.7715 74.9976 74.5219 72.7092 73.1934C73.1254 72.8535 73.5158 72.4776 73.872 72.0636C75.6294 70.0221 76.4075 67.3233 76.0066 64.6597C75.3555 60.332 73.5136 56.2884 70.6801 52.9658C68.5585 50.4782 65.9509 48.4736 63.0324 47.0649C66.604 43.2549 68.7949 38.1356 68.7949 32.5137C68.7947 22.7848 62.2362 14.5586 53.3083 12.0242C54.5243 10.5723 55.1878 8.75837 55.1878 6.84167C55.188 3.06913 52.1187 0 48.3464 0C48.3462 0 48.346 0 48.3458 0C46.823 0 45.3967 0.495225 44.33 1.3942C43.151 2.38762 42.5018 3.78386 42.5016 5.32557C42.5016 6.35016 43.3323 7.18104 44.3571 7.18104C45.3817 7.18104 46.2126 6.35034 46.2126 5.32557C46.2126 4.88415 46.3836 4.51621 46.7213 4.23158C47.1199 3.89574 47.6968 3.71075 48.346 3.71075H48.3462C50.0725 3.71075 51.4771 5.11497 51.4771 6.8413C51.4771 8.01061 51.0218 9.1098 50.195 9.93659C49.3682 10.7632 48.2692 11.2185 47.1002 11.2185C47.1 11.2185 47.1 11.2185 47.0999 11.2185C47.0544 11.2185 47.0099 11.2221 46.9653 11.2254C35.4696 11.5104 26.2054 20.9505 26.2052 32.5136C26.2052 38.1354 28.3962 43.2547 31.9678 47.0647C29.0495 48.4734 26.4418 50.4778 24.3203 52.9657C21.4868 56.2882 19.6449 60.3319 18.9936 64.6594C18.5928 67.3231 19.3708 70.0219 21.1281 72.0634C21.4844 72.4774 21.8748 72.8535 22.2909 73.1932C20.0026 74.5217 18.4015 76.7713 17.8977 79.3697C17.3925 81.9748 18.0408 84.6676 19.676 86.7575L23.6495 91.8349C25.2549 93.8863 27.6935 94.9894 30.167 94.9894C31.5712 94.9894 32.987 94.6339 34.2676 93.8945C37.8043 91.8526 39.3199 87.4566 37.793 83.6692L35.3826 77.6894C35.2215 77.2899 35.0311 76.9068 34.8187 76.5386H48.4278C49.4526 76.5386 50.2833 75.7078 50.2833 74.6832C50.2833 73.6586 49.4526 72.8277 48.4278 72.8277H31.2914V68.9162C31.2914 68.4124 31.7011 68.0027 32.2049 68.0027H62.7954C63.299 68.0027 63.7089 68.4124 63.7089 68.9162V73.0843C61.8679 74.0935 60.4145 75.7122 59.6174 77.6894L57.207 83.669C55.6801 87.4566 57.1956 91.8526 60.7324 93.8945C62.0132 94.6339 63.4284 94.9894 64.8329 94.9894C67.3063 94.9894 69.7453 93.8862 71.3506 91.8349L75.3239 86.7575C76.9595 84.6676 77.6077 81.975 77.1024 79.3699ZM29.916 32.5137C29.9162 22.818 37.8045 14.9298 47.5001 14.9297C57.1956 14.9298 65.084 22.818 65.0842 32.5137C65.0842 42.2095 57.196 50.0977 47.5001 50.0978C37.8043 50.0977 29.916 42.2095 29.916 32.5137ZM31.9412 79.0769L34.3517 85.0569C35.1913 87.14 34.3574 89.5579 32.4123 90.681C30.4674 91.8041 27.9564 91.3175 26.5721 89.5483L22.5986 84.4708C21.6258 83.2278 21.2402 81.6262 21.5408 80.0765C21.8414 78.5268 22.7978 77.1853 24.165 76.396C25.5319 75.6066 27.1719 75.4495 28.6643 75.9636C30.1566 76.4782 31.351 77.6131 31.9412 79.0769ZM62.8077 60.5811C61.7829 60.5811 60.9522 61.4119 60.9522 62.4365V64.292H34.0602V62.4365C34.0602 61.4119 33.2295 60.5811 32.2047 60.5811C31.1799 60.5811 30.3492 61.4119 30.3492 62.4365V64.6818C28.7207 65.3982 27.5803 67.0262 27.5803 68.9164V71.5365C26.1752 71.396 24.8713 70.724 23.9404 69.6426C22.889 68.4208 22.4234 66.8058 22.6631 65.2117C23.7254 58.1511 28.4331 52.3174 35.0421 49.7731C38.5474 52.3103 42.8518 53.8086 47.5001 53.8086C52.1484 53.8086 56.4527 52.3103 59.9581 49.7731C66.5671 52.3174 71.2748 58.1511 72.337 65.2117C72.5767 66.8058 72.1112 68.4208 71.0595 69.6426C70.1288 70.724 68.8248 71.396 67.4196 71.5365V68.9164C67.4196 67.031 66.285 65.4066 64.6632 64.6874V62.4365C64.6632 61.4119 63.8325 60.5811 62.8077 60.5811ZM72.4016 84.4706L68.4283 89.5481C67.0439 91.3169 64.5333 91.8038 62.588 90.6808C60.6427 89.5577 59.8091 87.1399 60.6489 85.0564L63.0593 79.0766C63.6495 77.6126 64.8439 76.4778 66.3362 75.9633C66.9142 75.7642 67.5143 75.6656 68.1121 75.6656C69.0578 75.6656 69.998 75.9122 70.8356 76.3958C72.2027 77.1851 73.159 78.5266 73.4598 80.0763C73.76 81.626 73.3744 83.2276 72.4016 84.4706Z" fill="white"/>
<path d="M57.1092 73.3708C56.7641 73.0257 56.2854 72.8271 55.7974 72.8271C55.3094 72.8271 54.8307 73.0255 54.4855 73.3708C54.1404 73.7161 53.9419 74.1946 53.9419 74.6826C53.9419 75.1725 54.1404 75.6493 54.4855 75.9942C54.8307 76.3412 55.3094 76.5381 55.7974 76.5381C56.2854 76.5381 56.7641 76.3412 57.1092 75.9942C57.4543 75.6493 57.6528 75.1706 57.6528 74.6826C57.6528 74.1946 57.4543 73.7159 57.1092 73.3708Z" fill="white"/>
<path d="M52.6156 38.8505C51.8196 38.2052 50.6512 38.3279 50.0059 39.1237C49.3893 39.8844 48.4759 40.3206 47.5001 40.3206C46.5243 40.3206 45.6106 39.8842 44.9943 39.1237C44.3491 38.3275 43.1807 38.2056 42.3845 38.8505C41.5884 39.4957 41.4661 40.6641 42.1114 41.4603C43.4358 43.0944 45.4 44.0314 47.5001 44.0314C49.6001 44.0314 51.5645 43.0942 52.8887 41.4603C53.534 40.6641 53.4118 39.4957 52.6156 38.8505Z" fill="white"/>
<path d="M42.8113 31.2018C41.1282 29.5187 38.3896 29.5187 36.7061 31.2018C35.9815 31.9263 35.9813 33.101 36.7061 33.8258C37.4306 34.5505 38.6055 34.5505 39.3301 33.826C39.5663 33.5898 39.9509 33.5898 40.1873 33.826C40.5497 34.1881 41.0245 34.3694 41.4993 34.3694C41.9741 34.3694 42.4491 34.1881 42.8113 33.826C43.5359 33.1014 43.5359 31.9265 42.8113 31.2018Z" fill="white"/>
<path d="M58.2937 31.2016C56.6104 29.5187 53.8715 29.5187 52.1884 31.2016C51.4639 31.9262 51.4639 33.1011 52.1884 33.8258C52.5506 34.1882 53.0256 34.3693 53.5004 34.3693C53.9753 34.3693 54.4503 34.188 54.8124 33.8258C55.0487 33.5898 55.4333 33.5894 55.6697 33.8258C56.3942 34.5506 57.5691 34.5504 58.2937 33.8256C59.0182 33.1011 59.0182 31.9264 58.2937 31.2016Z" fill="white"/>
</svg>
