<svg width="20" height="21" viewBox="0 0 20 21" fill="none" xmlns="http://www.w3.org/2000/svg">
<g clip-path="url(#clip0)">
<path d="M17.6562 1.74609H16.7188V0.183594H15.1562V1.74609H4.84375V0.183594H3.28125V1.74609H2.34375C1.05141 1.74609 0 2.7975 0 4.08984V17.8398C0 19.1322 1.05141 20.1836 2.34375 20.1836H17.6562C18.9486 20.1836 20 19.1322 20 17.8398V4.08984C20 2.7975 18.9486 1.74609 17.6562 1.74609ZM18.4375 17.8398C18.4375 18.2706 18.087 18.6211 17.6562 18.6211H2.34375C1.91297 18.6211 1.5625 18.2706 1.5625 17.8398V7.52734H18.4375V17.8398ZM18.4375 5.96484H1.5625V4.08984C1.5625 3.65906 1.91297 3.30859 2.34375 3.30859H3.28125V4.87109H4.84375V3.30859H15.1562V4.87109H16.7188V3.30859H17.6562C18.087 3.30859 18.4375 3.65906 18.4375 4.08984V5.96484Z" fill="#3F4862"/>
<path d="M4.53125 9.16797H2.96875V10.7305H4.53125V9.16797Z" fill="#3F4862"/>
<path d="M7.65625 9.16797H6.09375V10.7305H7.65625V9.16797Z" fill="#3F4862"/>
<path d="M10.7812 9.16797H9.21875V10.7305H10.7812V9.16797Z" fill="#3F4862"/>
<path d="M13.9062 9.16797H12.3438V10.7305H13.9062V9.16797Z" fill="#3F4862"/>
<path d="M17.0312 9.16797H15.4688V10.7305H17.0312V9.16797Z" fill="#3F4862"/>
<path d="M4.53125 12.293H2.96875V13.8555H4.53125V12.293Z" fill="#3F4862"/>
<path d="M7.65625 12.293H6.09375V13.8555H7.65625V12.293Z" fill="#3F4862"/>
<path d="M10.7812 12.293H9.21875V13.8555H10.7812V12.293Z" fill="#3F4862"/>
<path d="M13.9062 12.293H12.3438V13.8555H13.9062V12.293Z" fill="#3F4862"/>
<path d="M4.53125 15.418H2.96875V16.9805H4.53125V15.418Z" fill="#3F4862"/>
<path d="M7.65625 15.418H6.09375V16.9805H7.65625V15.418Z" fill="#3F4862"/>
<path d="M10.7812 15.418H9.21875V16.9805H10.7812V15.418Z" fill="#3F4862"/>
<path d="M13.9062 15.418H12.3438V16.9805H13.9062V15.418Z" fill="#3F4862"/>
<path d="M17.0312 12.293H15.4688V13.8555H17.0312V12.293Z" fill="#3F4862"/>
</g>
<defs>
<clipPath id="clip0">
<rect y="0.183594" width="20" height="20" fill="white"/>
</clipPath>
</defs>
</svg>
