<svg width="96" height="95" viewBox="0 0 96 95" fill="none" xmlns="http://www.w3.org/2000/svg">
<g clip-path="url(#clip0)">
<path d="M27.2003 40.6301L35.8748 30.1942C36.3662 29.603 36.2853 28.7258 35.6941 28.2344C35.1033 27.7433 34.2257 27.8242 33.7344 28.4152L26.2988 37.3606L24.6736 34.7206C24.2707 34.0662 23.4137 33.8619 22.7589 34.2651C22.1045 34.6681 21.9006 35.5253 22.3034 36.1795L24.9448 40.4699C25.4443 41.2808 26.5921 41.3619 27.2003 40.6301V40.6301Z" fill="#AB86E4"/>
<path d="M22.3035 54.5489L24.945 58.8393C25.4441 59.6502 26.5919 59.7313 27.2001 58.9993L35.8746 48.5634C36.3659 47.9722 36.285 47.095 35.6939 46.6036C35.1031 46.1125 34.2255 46.1932 33.7341 46.7844L26.2985 55.7298L24.6733 53.0898C24.2705 52.4354 23.4135 52.2311 22.7587 52.6343C22.1044 53.0375 21.9005 53.8947 22.3035 54.5489V54.5489Z" fill="#AB86E4"/>
<path d="M22.3035 73.0421L24.945 77.3325C25.4441 78.1433 26.5919 78.2244 27.2001 77.4924L35.8746 67.0565C36.3659 66.4654 36.285 65.5881 35.6939 65.0968C35.1031 64.6057 34.2255 64.6864 33.7341 65.2775L26.2985 74.2229L24.6733 71.583C24.2705 70.9285 23.4135 70.7244 22.7587 71.1274C22.1044 71.5306 21.9005 72.3879 22.3035 73.0421V73.0421Z" fill="#AB86E4"/>
<path d="M83.8486 78.5618C83.0801 78.5618 82.457 79.1846 82.457 79.9534V90.0833C82.457 91.2598 81.4998 92.2171 80.3232 92.2171H15.9385C14.7619 92.2171 13.8047 91.2598 13.8047 90.0833V29.0957C13.8047 28.327 13.1816 27.7041 12.4131 27.7041C11.6446 27.7041 11.0215 28.327 11.0215 29.0957V90.0833C11.0215 92.7945 13.2273 95.0003 15.9385 95.0003H80.3232C83.0345 95.0003 85.2402 92.7945 85.2402 90.0833V79.9534C85.2402 79.1848 84.6172 78.5618 83.8486 78.5618Z" fill="#AB86E4"/>
<path d="M80.3232 10.7229H73.5159V4.97266C73.5159 2.23083 71.2853 0 68.5432 0C65.8012 0 63.5706 2.23064 63.5706 4.97266V10.7229H53.1035V4.97266C53.1035 2.23064 50.8727 0 48.1309 0C45.389 0 43.1582 2.23064 43.1582 4.97266V10.7229H32.6909V4.97266C32.6909 2.23083 30.4603 0 27.7183 0C24.9765 0 22.7456 2.23064 22.7456 4.97266V10.7229H15.9385C13.2273 10.7229 11.0215 12.9287 11.0215 15.6399V22.6013C11.0215 23.37 11.6446 23.9929 12.4131 23.9929C13.1816 23.9929 13.8047 23.37 13.8047 22.6013V15.6399C13.8047 14.4634 14.7619 13.5061 15.9385 13.5061H22.7456V15.7158C22.7456 18.4576 24.9763 20.6885 27.7183 20.6885C30.4603 20.6885 32.6909 18.4578 32.6909 15.7158V13.5061H43.1582V15.7158C43.1582 18.4576 45.3888 20.6885 48.1309 20.6885C50.8729 20.6885 53.1035 18.4578 53.1035 15.7158V13.5061H63.5708V15.7158C63.5708 18.4576 65.8014 20.6885 68.5434 20.6885C71.2853 20.6885 73.5161 18.4578 73.5161 15.7158V13.5061H80.3232C81.4998 13.5061 82.457 14.4634 82.457 15.6399V73.4589C82.457 74.2277 83.0801 74.8505 83.8486 74.8505C84.6172 74.8505 85.2402 74.2277 85.2402 73.4589V15.6399C85.2402 12.9287 83.0345 10.7229 80.3232 10.7229V10.7229ZM29.9079 15.7158C29.9079 16.9232 28.9258 17.9053 27.7185 17.9053C26.5113 17.9053 25.529 16.9232 25.529 15.7158C25.529 12.7495 25.529 5.90113 25.529 4.97266C25.529 3.7653 26.5111 2.7832 27.7185 2.7832C28.9258 2.7832 29.9079 3.7653 29.9079 4.97266V15.7158ZM50.3203 15.7158C50.3203 16.9232 49.3382 17.9053 48.1309 17.9053C46.9235 17.9053 45.9414 16.9232 45.9414 15.7158C45.9414 12.7495 45.9414 5.90113 45.9414 4.97266C45.9414 3.7653 46.9235 2.7832 48.1309 2.7832C49.3382 2.7832 50.3203 3.7653 50.3203 4.97266V15.7158ZM70.7329 15.7158C70.7329 16.9232 69.7508 17.9053 68.5434 17.9053C67.3361 17.9053 66.354 16.9232 66.354 15.7158C66.354 12.7495 66.354 5.90113 66.354 4.97266C66.354 3.7653 67.3361 2.7832 68.5434 2.7832C69.7506 2.7832 70.7329 3.7653 70.7329 4.97266V15.7158Z" fill="#AB86E4"/>
<path d="M41.7744 41.7822H71.0908C73.4952 41.7822 75.4512 39.8262 75.4512 37.4219C75.4512 35.0176 73.4952 33.0615 71.0908 33.0615H41.7744C39.3701 33.0615 37.4141 35.0176 37.4141 37.4219C37.4141 39.8262 39.3701 41.7822 41.7744 41.7822V41.7822ZM41.7744 35.8447H71.0908C71.9605 35.8447 72.668 36.5522 72.668 37.4219C72.668 38.2915 71.9605 38.999 71.0908 38.999H41.7744C40.9048 38.999 40.1973 38.2915 40.1973 37.4219C40.1973 36.5522 40.9048 35.8447 41.7744 35.8447V35.8447Z" fill="#AB86E4"/>
<path d="M41.7744 60.1904H71.0908C73.4952 60.1904 75.4512 58.2344 75.4512 55.8301C75.4512 53.4258 73.4952 51.4697 71.0908 51.4697H41.7744C39.3701 51.4697 37.4141 53.4258 37.4141 55.8301C37.4141 58.2344 39.3701 60.1904 41.7744 60.1904V60.1904ZM41.7744 54.2529H71.0908C71.9605 54.2529 72.668 54.9604 72.668 55.8301C72.668 56.6997 71.9605 57.4072 71.0908 57.4072H41.7744C40.9048 57.4072 40.1973 56.6997 40.1973 55.8301C40.1973 54.9604 40.9048 54.2529 41.7744 54.2529V54.2529Z" fill="#AB86E4"/>
<path d="M41.7744 78.5986H71.0908C73.4952 78.5986 75.4512 76.6426 75.4512 74.2383C75.4512 71.834 73.4952 69.8779 71.0908 69.8779H41.7744C39.3701 69.8779 37.4141 71.834 37.4141 74.2383C37.4141 76.6426 39.3701 78.5986 41.7744 78.5986V78.5986ZM41.7744 72.6611H71.0908C71.9605 72.6611 72.668 73.3686 72.668 74.2383C72.668 75.1079 71.9605 75.8154 71.0908 75.8154H41.7744C40.9048 75.8154 40.1973 75.1079 40.1973 74.2383C40.1973 73.3686 40.9048 72.6611 41.7744 72.6611V72.6611Z" fill="#AB86E4"/>
</g>
<defs>
<clipPath id="clip0">
<rect width="95" height="95" fill="white" transform="translate(0.630859)"/>
</clipPath>
</defs>
</svg>
