<svg width="96" height="95" viewBox="0 0 96 95" fill="none" xmlns="http://www.w3.org/2000/svg">
<g clip-path="url(#clip0)">
<path d="M26.7003 40.6301L35.3748 30.1942C35.8662 29.603 35.7853 28.7258 35.1941 28.2344C34.6033 27.7433 33.7257 27.8242 33.2344 28.4152L25.7988 37.3606L24.1736 34.7206C23.7707 34.0662 22.9137 33.8619 22.2589 34.2651C21.6045 34.6681 21.4006 35.5253 21.8034 36.1795L24.4448 40.4699C24.9443 41.2808 26.0921 41.3619 26.7003 40.6301V40.6301Z" fill="#7DBC91"/>
<path d="M21.8035 54.5489L24.445 58.8393C24.9441 59.6502 26.0919 59.7313 26.7001 58.9993L35.3746 48.5634C35.8659 47.9722 35.785 47.095 35.1939 46.6036C34.6031 46.1125 33.7255 46.1932 33.2341 46.7844L25.7985 55.7298L24.1733 53.0898C23.7705 52.4354 22.9135 52.2311 22.2587 52.6343C21.6044 53.0375 21.4005 53.8947 21.8035 54.5489V54.5489Z" fill="#7DBC91"/>
<path d="M21.8035 73.0421L24.445 77.3325C24.9441 78.1433 26.0919 78.2244 26.7001 77.4924L35.3746 67.0565C35.8659 66.4654 35.785 65.5881 35.1939 65.0968C34.6031 64.6057 33.7255 64.6864 33.2341 65.2775L25.7985 74.2229L24.1733 71.583C23.7705 70.9285 22.9135 70.7244 22.2587 71.1274C21.6044 71.5306 21.4005 72.3879 21.8035 73.0421V73.0421Z" fill="#7DBC91"/>
<path d="M83.3486 78.5618C82.5801 78.5618 81.957 79.1846 81.957 79.9534V90.0833C81.957 91.2598 80.9998 92.2171 79.8232 92.2171H15.4385C14.2619 92.2171 13.3047 91.2598 13.3047 90.0833V29.0957C13.3047 28.327 12.6816 27.7041 11.9131 27.7041C11.1446 27.7041 10.5215 28.327 10.5215 29.0957V90.0833C10.5215 92.7945 12.7273 95.0003 15.4385 95.0003H79.8232C82.5345 95.0003 84.7402 92.7945 84.7402 90.0833V79.9534C84.7402 79.1848 84.1172 78.5618 83.3486 78.5618Z" fill="#7DBC91"/>
<path d="M79.8232 10.7229H73.0159V4.97266C73.0159 2.23083 70.7853 0 68.0432 0C65.3012 0 63.0706 2.23064 63.0706 4.97266V10.7229H52.6035V4.97266C52.6035 2.23064 50.3727 0 47.6309 0C44.889 0 42.6582 2.23064 42.6582 4.97266V10.7229H32.1909V4.97266C32.1909 2.23083 29.9603 0 27.2183 0C24.4765 0 22.2456 2.23064 22.2456 4.97266V10.7229H15.4385C12.7273 10.7229 10.5215 12.9287 10.5215 15.6399V22.6013C10.5215 23.37 11.1446 23.9929 11.9131 23.9929C12.6816 23.9929 13.3047 23.37 13.3047 22.6013V15.6399C13.3047 14.4634 14.2619 13.5061 15.4385 13.5061H22.2456V15.7158C22.2456 18.4576 24.4763 20.6885 27.2183 20.6885C29.9603 20.6885 32.1909 18.4578 32.1909 15.7158V13.5061H42.6582V15.7158C42.6582 18.4576 44.8888 20.6885 47.6309 20.6885C50.3729 20.6885 52.6035 18.4578 52.6035 15.7158V13.5061H63.0708V15.7158C63.0708 18.4576 65.3014 20.6885 68.0434 20.6885C70.7853 20.6885 73.0161 18.4578 73.0161 15.7158V13.5061H79.8232C80.9998 13.5061 81.957 14.4634 81.957 15.6399V73.4589C81.957 74.2277 82.5801 74.8505 83.3486 74.8505C84.1172 74.8505 84.7402 74.2277 84.7402 73.4589V15.6399C84.7402 12.9287 82.5345 10.7229 79.8232 10.7229V10.7229ZM29.4079 15.7158C29.4079 16.9232 28.4258 17.9053 27.2185 17.9053C26.0113 17.9053 25.029 16.9232 25.029 15.7158C25.029 12.7495 25.029 5.90113 25.029 4.97266C25.029 3.7653 26.0111 2.7832 27.2185 2.7832C28.4258 2.7832 29.4079 3.7653 29.4079 4.97266V15.7158ZM49.8203 15.7158C49.8203 16.9232 48.8382 17.9053 47.6309 17.9053C46.4235 17.9053 45.4414 16.9232 45.4414 15.7158C45.4414 12.7495 45.4414 5.90113 45.4414 4.97266C45.4414 3.7653 46.4235 2.7832 47.6309 2.7832C48.8382 2.7832 49.8203 3.7653 49.8203 4.97266V15.7158ZM70.2329 15.7158C70.2329 16.9232 69.2508 17.9053 68.0434 17.9053C66.8361 17.9053 65.854 16.9232 65.854 15.7158C65.854 12.7495 65.854 5.90113 65.854 4.97266C65.854 3.7653 66.8361 2.7832 68.0434 2.7832C69.2506 2.7832 70.2329 3.7653 70.2329 4.97266V15.7158Z" fill="#7DBC91"/>
<path d="M41.2744 41.7822H70.5908C72.9952 41.7822 74.9512 39.8262 74.9512 37.4219C74.9512 35.0176 72.9952 33.0615 70.5908 33.0615H41.2744C38.8701 33.0615 36.9141 35.0176 36.9141 37.4219C36.9141 39.8262 38.8701 41.7822 41.2744 41.7822V41.7822ZM41.2744 35.8447H70.5908C71.4605 35.8447 72.168 36.5522 72.168 37.4219C72.168 38.2915 71.4605 38.999 70.5908 38.999H41.2744C40.4048 38.999 39.6973 38.2915 39.6973 37.4219C39.6973 36.5522 40.4048 35.8447 41.2744 35.8447V35.8447Z" fill="#7DBC91"/>
<path d="M41.2744 60.1904H70.5908C72.9952 60.1904 74.9512 58.2344 74.9512 55.8301C74.9512 53.4258 72.9952 51.4697 70.5908 51.4697H41.2744C38.8701 51.4697 36.9141 53.4258 36.9141 55.8301C36.9141 58.2344 38.8701 60.1904 41.2744 60.1904V60.1904ZM41.2744 54.2529H70.5908C71.4605 54.2529 72.168 54.9604 72.168 55.8301C72.168 56.6997 71.4605 57.4072 70.5908 57.4072H41.2744C40.4048 57.4072 39.6973 56.6997 39.6973 55.8301C39.6973 54.9604 40.4048 54.2529 41.2744 54.2529V54.2529Z" fill="#7DBC91"/>
<path d="M41.2744 78.5986H70.5908C72.9952 78.5986 74.9512 76.6426 74.9512 74.2383C74.9512 71.834 72.9952 69.8779 70.5908 69.8779H41.2744C38.8701 69.8779 36.9141 71.834 36.9141 74.2383C36.9141 76.6426 38.8701 78.5986 41.2744 78.5986V78.5986ZM41.2744 72.6611H70.5908C71.4605 72.6611 72.168 73.3686 72.168 74.2383C72.168 75.1079 71.4605 75.8154 70.5908 75.8154H41.2744C40.4048 75.8154 39.6973 75.1079 39.6973 74.2383C39.6973 73.3686 40.4048 72.6611 41.2744 72.6611V72.6611Z" fill="#7DBC91"/>
</g>
<defs>
<clipPath id="clip0">
<rect width="95" height="95" fill="white" transform="translate(0.130859)"/>
</clipPath>
</defs>
</svg>
