<svg width="96" height="95" viewBox="0 0 96 95" fill="none" xmlns="http://www.w3.org/2000/svg">
<g clip-path="url(#clip0)">
<path d="M95.0344 22.5275C94.7074 21.3116 93.9097 20.275 92.8183 19.6466C91.726 19.0151 90.4274 18.8442 89.2092 19.1712C87.9926 19.4989 86.956 20.2959 86.3276 21.3873L85.536 22.7648C84.7839 22.3327 83.8231 22.587 83.3833 23.3352L79.3622 30.1893L77.9848 29.3977C77.6199 29.1867 77.1855 29.1295 76.7789 29.2393C76.3716 29.3498 76.0253 29.6173 75.8158 29.9836C75.3868 30.7404 75.6481 31.702 76.4017 32.1364L77.7792 32.9279L64.3231 56.2464L60.9985 65.128L59.4155 68.0877C58.4887 69.7002 58.5876 71.7045 59.669 73.2172L56.1071 77.5861L55.11 75.0855C54.6601 73.9709 53.6189 73.2072 52.4216 73.1136C51.2234 73.0193 50.0756 73.6114 49.4579 74.6418L48.8883 75.6073L48.3503 69.275C48.2266 67.777 47.0663 66.5727 45.5745 66.3918C44.0819 66.2117 42.6689 67.106 42.1919 68.5314L38.2977 80.2142C38.0256 81.0405 38.4708 81.931 39.2948 82.2093C39.4494 82.2812 39.6156 82.3245 39.7856 82.3353C40.4659 82.3376 41.0719 81.904 41.2899 81.2593L45.1679 69.5765L45.7221 76.003C45.8365 77.3743 46.8221 78.5144 48.1624 78.8252C49.5028 79.1359 50.8895 78.5454 51.5952 77.365L52.1812 76.3988L53.1628 78.8847C53.5795 79.9321 54.5217 80.6796 55.6371 80.8457C56.7526 81.0119 57.8718 80.5721 58.5768 79.6917L62.2655 75.0221C62.6736 75.1288 63.0941 75.1821 63.5161 75.1806C65.2128 75.1937 66.7882 74.3002 67.6477 72.8369L69.2308 70.1933L75.2623 62.8639L88.8606 39.2602L90.2381 40.0517C90.6052 40.262 90.8727 40.609 90.9817 41.0179C91.0914 41.4238 91.0342 41.8566 90.824 42.2207L84.4917 53.1916C84.2529 53.5518 84.1717 53.994 84.2676 54.416C84.3634 54.8373 84.627 55.2014 84.998 55.4232C85.3629 55.635 85.7973 55.6922 86.2039 55.5824C86.6112 55.4719 86.9575 55.2045 87.167 54.8381L93.4993 43.8671C94.1308 42.7749 94.3016 41.4763 93.9739 40.2581C93.6461 39.0414 92.8492 38.0049 91.7577 37.3764L90.3803 36.5849L94.3379 29.7301C94.77 28.978 94.5157 28.018 93.7683 27.5774L94.5598 26.1999C95.2083 25.0907 95.3799 23.7658 95.0344 22.5275V22.5275ZM89.0662 22.9704C89.2757 22.604 89.6235 22.3358 90.0324 22.2268C90.439 22.1263 90.8688 22.1827 91.2352 22.3853C91.6024 22.5947 91.8698 22.9426 91.9796 23.3507C92.0801 23.7573 92.0236 24.1871 91.8211 24.5535L91.0296 25.9309L88.2747 24.3479L89.0662 22.9704ZM67.4893 67.1702L66.6977 66.711L64.3548 65.349L66.6026 59.3337L71.5891 62.2146L67.4893 67.1702ZM62.7401 71.7447C62.0714 71.2786 61.8658 70.3819 62.2655 69.6708L63.057 68.2941L65.8111 69.8772L65.0196 71.2384C64.7977 71.6233 64.4252 71.897 63.9915 71.9936C63.5579 72.0894 63.1041 71.9998 62.7401 71.7447ZM73.3941 59.6189L67.9167 56.4528L80.5812 34.511L86.0586 37.6771L73.3941 59.6189ZM87.6416 34.9385L82.1643 31.7723L85.3304 26.295L90.8077 29.4611L87.6416 34.9385Z" fill="#AB86E4"/>
<path d="M25.1897 70.9529L19.5864 76.5415L16.2301 73.1853C15.6125 72.5715 14.6153 72.5715 13.9977 73.1853C13.6978 73.4829 13.5293 73.8871 13.5293 74.3092C13.5293 74.7312 13.6978 75.1363 13.9977 75.4331L17.354 78.7894C17.9477 79.3784 18.75 79.7084 19.5864 79.7077C20.4274 79.7123 21.2367 79.3822 21.8342 78.7894L27.4221 73.1853C27.9601 72.5568 27.9237 71.6208 27.3394 71.0364C26.7542 70.4512 25.8181 70.4149 25.1897 70.9529Z" fill="#AB86E4"/>
<path d="M6.54199 75.2115C6.54199 82.6437 12.5666 88.6675 19.998 88.6675C27.4295 88.6675 33.4541 82.6437 33.4541 75.2115C33.4541 74.3372 32.7452 73.6284 31.871 73.6284C30.9968 73.6284 30.2879 74.3372 30.2879 75.2115C30.2879 80.8944 25.681 85.5014 19.998 85.5014C14.3151 85.5014 9.70812 80.8944 9.70812 75.2115C9.70812 69.5285 14.3151 64.9216 19.998 64.9216C22.2258 64.9154 24.394 65.6381 26.1718 66.98C26.8714 67.5049 27.8639 67.3626 28.388 66.6631C28.9128 65.9635 28.7714 64.9718 28.0718 64.4469C23.9943 61.389 18.5386 60.8974 13.9804 63.1762C9.42134 65.4557 6.54199 70.1152 6.54199 75.2115Z" fill="#AB86E4"/>
<path d="M57.1998 12.6808C58.074 12.6808 58.7828 11.9727 58.7828 11.0977C58.7828 10.2235 58.074 9.51465 57.1998 9.51465H16.0401C15.1659 9.51465 14.457 10.2235 14.457 11.0977V17.43C14.457 18.305 15.1659 19.013 16.0401 19.013H57.1998C58.074 19.013 58.7828 18.305 58.7828 17.43C58.7828 16.5557 58.074 15.8469 57.1998 15.8469H17.6232V12.6808H57.1998Z" fill="#AB86E4"/>
<path d="M20.7891 22.1787C19.9149 22.1787 19.2061 22.8875 19.2061 23.7618C19.2061 24.6368 19.9149 25.3448 20.7891 25.3448H52.4504C53.3246 25.3448 54.0334 24.6368 54.0334 23.7618C54.0334 22.8875 53.3246 22.1787 52.4504 22.1787H20.7891Z" fill="#AB86E4"/>
<path d="M61.9486 33.2598H27.1211C26.2469 33.2598 25.5381 33.9686 25.5381 34.8428C25.5381 35.7178 26.2469 36.4259 27.1211 36.4259H61.9486C62.8228 36.4259 63.5316 35.7178 63.5316 34.8428C63.5316 33.9686 62.8228 33.2598 61.9486 33.2598Z" fill="#AB86E4"/>
<path d="M46.1184 44.3418C46.1184 43.4676 45.4096 42.7588 44.5354 42.7588H12.8741C11.9998 42.7588 11.291 43.4676 11.291 44.3418C11.291 45.2169 11.9998 45.9249 12.8741 45.9249H44.5354C45.4096 45.9249 46.1184 45.2169 46.1184 44.3418Z" fill="#AB86E4"/>
<path d="M61.9487 42.7588H50.8672C49.993 42.7588 49.2842 43.4676 49.2842 44.3418C49.2842 45.2169 49.993 45.9249 50.8672 45.9249H61.9487C62.8229 45.9249 63.5318 45.2169 63.5318 44.3418C63.5318 43.4676 62.8229 42.7588 61.9487 42.7588Z" fill="#AB86E4"/>
<path d="M28.7047 53.8399C29.579 53.8399 30.2878 53.1319 30.2878 52.2569C30.2878 51.3826 29.579 50.6738 28.7047 50.6738H12.8741C11.9998 50.6738 11.291 51.3826 11.291 52.2569C11.291 53.1319 11.9998 53.8399 12.8741 53.8399H28.7047Z" fill="#AB86E4"/>
<path d="M35.0362 53.8399H46.1176C46.9919 53.8399 47.7007 53.1319 47.7007 52.2569C47.7007 51.3826 46.9919 50.6738 46.1176 50.6738H35.0362C34.1619 50.6738 33.4531 51.3826 33.4531 52.2569C33.4531 53.1319 34.1619 53.8399 35.0362 53.8399Z" fill="#AB86E4"/>
<path d="M71.4468 72.8366C70.5726 72.8366 69.8638 73.5454 69.8638 74.4196V90.2503C69.8638 91.1253 69.155 91.8333 68.2807 91.8333H4.95817C4.08393 91.8333 3.37511 91.1253 3.37511 90.2503V4.76482C3.37511 3.89058 4.08393 3.18175 4.95817 3.18175H68.2807C69.155 3.18175 69.8638 3.89058 69.8638 4.76482V34.4952C69.8638 35.3694 70.5726 36.0782 71.4468 36.0782C72.3211 36.0782 73.0299 35.3694 73.0299 34.4952V4.76482C73.0299 2.14209 70.9034 0.015625 68.2807 0.015625H4.95817C2.33545 0.015625 0.208984 2.14209 0.208984 4.76482V90.2503C0.208984 92.8737 2.33545 94.9994 4.95817 94.9994H68.2807C70.9034 94.9994 73.0299 92.8737 73.0299 90.2503V74.4196C73.0299 73.5454 72.3211 72.8366 71.4468 72.8366Z" fill="#AB86E4"/>
</g>
<defs>
<clipPath id="clip0">
<rect width="95" height="95" fill="white" transform="translate(0.208984)"/>
</clipPath>
</defs>
</svg>
