<svg width="96" height="96" viewBox="0 0 96 96" fill="none" xmlns="http://www.w3.org/2000/svg">
<path d="M84.9609 12.5654H77.5391V9.59668C77.5391 8.02196 76.9135 6.51173 75.8 5.39823C74.6865 4.28474 73.1763 3.65918 71.6016 3.65918C70.0268 3.65918 68.5166 4.28474 67.4031 5.39823C66.2896 6.51173 65.6641 8.02196 65.6641 9.59668V12.5654H53.7891V9.59668C53.7891 8.02196 53.1635 6.51173 52.05 5.39823C50.9365 4.28474 49.4263 3.65918 47.8516 3.65918C46.2768 3.65918 44.7666 4.28474 43.6531 5.39823C42.5396 6.51173 41.9141 8.02196 41.9141 9.59668V12.5654H30.0391V9.59668C30.0391 8.02196 29.4135 6.51173 28.3 5.39823C27.1865 4.28474 25.6763 3.65918 24.1016 3.65918C22.5268 3.65918 21.0166 4.28474 19.9031 5.39823C18.7896 6.51173 18.1641 8.02196 18.1641 9.59668V12.5654H10.7422C8.77378 12.5654 6.886 13.3474 5.49413 14.7392C4.10226 16.1311 3.32031 18.0189 3.32031 19.9873V79.3623C3.32031 81.3307 4.10226 83.2185 5.49413 84.6104C6.886 86.0022 8.77378 86.7842 10.7422 86.7842H52.3047C52.6984 86.7842 53.0759 86.6278 53.3543 86.3494C53.6327 86.071 53.7891 85.6935 53.7891 85.2998C53.7891 84.9061 53.6327 84.5286 53.3543 84.2502C53.0759 83.9718 52.6984 83.8154 52.3047 83.8154H10.7422C9.56223 83.8119 8.43161 83.3416 7.59725 82.5072C6.76289 81.6729 6.29259 80.5423 6.28906 79.3623V33.3467H89.4141V58.5811C89.4141 58.9747 89.5705 59.3523 89.8488 59.6307C90.1272 59.909 90.5048 60.0654 90.8984 60.0654C91.2921 60.0654 91.6697 59.909 91.9481 59.6307C92.2264 59.3523 92.3828 58.9747 92.3828 58.5811V19.9873C92.3828 18.0189 91.6009 16.1311 90.209 14.7392C88.8171 13.3474 86.9293 12.5654 84.9609 12.5654ZM68.6328 9.59668C68.6328 8.80932 68.9456 8.0542 69.5023 7.49746C70.0591 6.94071 70.8142 6.62793 71.6016 6.62793C72.3889 6.62793 73.144 6.94071 73.7008 7.49746C74.2575 8.0542 74.5703 8.80932 74.5703 9.59668V18.5029C74.5703 19.2903 74.2575 20.0454 73.7008 20.6022C73.144 21.1589 72.3889 21.4717 71.6016 21.4717C70.8142 21.4717 70.0591 21.1589 69.5023 20.6022C68.9456 20.0454 68.6328 19.2903 68.6328 18.5029V9.59668ZM44.8828 9.59668C44.8828 8.80932 45.1956 8.0542 45.7523 7.49746C46.3091 6.94071 47.0642 6.62793 47.8516 6.62793C48.6389 6.62793 49.394 6.94071 49.9508 7.49746C50.5075 8.0542 50.8203 8.80932 50.8203 9.59668V18.5029C50.8203 19.2903 50.5075 20.0454 49.9508 20.6022C49.394 21.1589 48.6389 21.4717 47.8516 21.4717C47.0642 21.4717 46.3091 21.1589 45.7523 20.6022C45.1956 20.0454 44.8828 19.2903 44.8828 18.5029V9.59668ZM21.1328 9.59668C21.1328 8.80932 21.4456 8.0542 22.0023 7.49746C22.5591 6.94071 23.3142 6.62793 24.1016 6.62793C24.8889 6.62793 25.644 6.94071 26.2008 7.49746C26.7575 8.0542 27.0703 8.80932 27.0703 9.59668V18.5029C27.0703 19.2903 26.7575 20.0454 26.2008 20.6022C25.644 21.1589 24.8889 21.4717 24.1016 21.4717C23.3142 21.4717 22.5591 21.1589 22.0023 20.6022C21.4456 20.0454 21.1328 19.2903 21.1328 18.5029V9.59668ZM89.4141 30.3779H6.28906V19.9873C6.29259 18.8073 6.76289 17.6767 7.59725 16.8424C8.43161 16.008 9.56223 15.5377 10.7422 15.5342H18.1641V18.5029C18.1641 20.0777 18.7896 21.5879 19.9031 22.7014C21.0166 23.8149 22.5268 24.4404 24.1016 24.4404C25.6763 24.4404 27.1865 23.8149 28.3 22.7014C29.4135 21.5879 30.0391 20.0777 30.0391 18.5029V15.5342H41.9141V18.5029C41.9141 20.0777 42.5396 21.5879 43.6531 22.7014C44.7666 23.8149 46.2768 24.4404 47.8516 24.4404C49.4263 24.4404 50.9365 23.8149 52.05 22.7014C53.1635 21.5879 53.7891 20.0777 53.7891 18.5029V15.5342H65.6641V18.5029C65.6641 20.0777 66.2896 21.5879 67.4031 22.7014C68.5166 23.8149 70.0268 24.4404 71.6016 24.4404C73.1763 24.4404 74.6865 23.8149 75.8 22.7014C76.9135 21.5879 77.5391 20.0777 77.5391 18.5029V15.5342H84.9609C86.1409 15.5377 87.2715 16.008 88.1059 16.8424C88.9402 17.6767 89.4105 18.8073 89.4141 19.9873V30.3779Z" fill="#AB86E4"/>
<path d="M44.8828 43.7373C44.8828 42.9499 44.57 42.1948 44.0133 41.6381C43.4565 41.0813 42.7014 40.7686 41.9141 40.7686H35.9766C35.1892 40.7686 34.4341 41.0813 33.8773 41.6381C33.3206 42.1948 33.0078 42.9499 33.0078 43.7373V48.1904C33.0078 48.9778 33.3206 49.7329 33.8773 50.2897C34.4341 50.8464 35.1892 51.1592 35.9766 51.1592H41.9141C42.7014 51.1592 43.4565 50.8464 44.0133 50.2897C44.57 49.7329 44.8828 48.9778 44.8828 48.1904V43.7373ZM35.9766 48.1904V43.7373H41.9141V48.1904H35.9766Z" fill="#AB86E4"/>
<path d="M27.0703 43.7373C27.0703 42.9499 26.7575 42.1948 26.2008 41.6381C25.644 41.0813 24.8889 40.7686 24.1016 40.7686H18.1641C17.3767 40.7686 16.6216 41.0813 16.0648 41.6381C15.5081 42.1948 15.1953 42.9499 15.1953 43.7373V48.1904C15.1953 48.9778 15.5081 49.7329 16.0648 50.2897C16.6216 50.8464 17.3767 51.1592 18.1641 51.1592H24.1016C24.8889 51.1592 25.644 50.8464 26.2008 50.2897C26.7575 49.7329 27.0703 48.9778 27.0703 48.1904V43.7373ZM18.1641 48.1904V43.7373H24.1016V48.1904H18.1641Z" fill="#AB86E4"/>
<path d="M77.5391 51.1592C78.3264 51.1592 79.0815 50.8464 79.6383 50.2897C80.195 49.7329 80.5078 48.9778 80.5078 48.1904V43.7373C80.5078 42.9499 80.195 42.1948 79.6383 41.6381C79.0815 41.0813 78.3264 40.7686 77.5391 40.7686H71.6016C70.8142 40.7686 70.0591 41.0813 69.5023 41.6381C68.9456 42.1948 68.6328 42.9499 68.6328 43.7373V48.1904C68.6328 48.9778 68.9456 49.7329 69.5023 50.2897C70.0591 50.8464 70.8142 51.1592 71.6016 51.1592H77.5391ZM71.6016 43.7373H77.5391V48.1904H71.6016V43.7373Z" fill="#AB86E4"/>
<path d="M44.8828 57.0967C44.8828 56.3093 44.57 55.5542 44.0133 54.9975C43.4565 54.4407 42.7014 54.1279 41.9141 54.1279H35.9766C35.1892 54.1279 34.4341 54.4407 33.8773 54.9975C33.3206 55.5542 33.0078 56.3093 33.0078 57.0967V61.5498C33.0078 62.3372 33.3206 63.0923 33.8773 63.649C34.4341 64.2058 35.1892 64.5186 35.9766 64.5186H41.9141C42.7014 64.5186 43.4565 64.2058 44.0133 63.649C44.57 63.0923 44.8828 62.3372 44.8828 61.5498V57.0967ZM35.9766 61.5498V57.0967H41.9141V61.5498H35.9766Z" fill="#AB86E4"/>
<path d="M27.0703 57.0967C27.0703 56.3093 26.7575 55.5542 26.2008 54.9975C25.644 54.4407 24.8889 54.1279 24.1016 54.1279H18.1641C17.3767 54.1279 16.6216 54.4407 16.0648 54.9975C15.5081 55.5542 15.1953 56.3093 15.1953 57.0967V61.5498C15.1953 62.3372 15.5081 63.0923 16.0648 63.649C16.6216 64.2058 17.3767 64.5186 18.1641 64.5186H24.1016C24.8889 64.5186 25.644 64.2058 26.2008 63.649C26.7575 63.0923 27.0703 62.3372 27.0703 61.5498V57.0967ZM18.1641 61.5498V57.0967H24.1016V61.5498H18.1641Z" fill="#AB86E4"/>
<path d="M41.9141 67.4873H35.9766C35.1892 67.4873 34.4341 67.8001 33.8773 68.3568C33.3206 68.9136 33.0078 69.6687 33.0078 70.4561V74.9092C33.0078 75.6965 33.3206 76.4517 33.8773 77.0084C34.4341 77.5652 35.1892 77.8779 35.9766 77.8779H41.9141C42.7014 77.8779 43.4565 77.5652 44.0133 77.0084C44.57 76.4517 44.8828 75.6965 44.8828 74.9092V70.4561C44.8828 69.6687 44.57 68.9136 44.0133 68.3568C43.4565 67.8001 42.7014 67.4873 41.9141 67.4873ZM35.9766 74.9092V70.4561H41.9141V74.9092H35.9766Z" fill="#AB86E4"/>
<path d="M53.7891 51.1592H59.7266C60.5139 51.1592 61.269 50.8464 61.8258 50.2897C62.3825 49.7329 62.6953 48.9778 62.6953 48.1904V43.7373C62.6953 42.9499 62.3825 42.1948 61.8258 41.6381C61.269 41.0813 60.5139 40.7686 59.7266 40.7686H53.7891C53.0017 40.7686 52.2466 41.0813 51.6898 41.6381C51.1331 42.1948 50.8203 42.9499 50.8203 43.7373V48.1904C50.8203 48.9778 51.1331 49.7329 51.6898 50.2897C52.2466 50.8464 53.0017 51.1592 53.7891 51.1592ZM53.7891 43.7373H59.7266V48.1904H53.7891V43.7373Z" fill="#AB86E4"/>
<path d="M50.8203 61.5498C50.8203 62.3372 51.1331 63.0923 51.6898 63.649C52.2466 64.2058 53.0017 64.5186 53.7891 64.5186C54.1827 64.5186 54.5603 64.3622 54.8387 64.0838C55.117 63.8054 55.2734 63.4279 55.2734 63.0342C55.2734 62.6405 55.117 62.2629 54.8387 61.9846C54.5603 61.7062 54.1827 61.5498 53.7891 61.5498V57.0967H59.7266C60.1202 57.0967 60.4978 56.9403 60.7762 56.6619C61.0545 56.3835 61.2109 56.006 61.2109 55.6123C61.2109 55.2186 61.0545 54.8411 60.7762 54.5627C60.4978 54.2843 60.1202 54.1279 59.7266 54.1279H53.7891C53.0017 54.1279 52.2466 54.4407 51.6898 54.9975C51.1331 55.5542 50.8203 56.3093 50.8203 57.0967V61.5498Z" fill="#AB86E4"/>
<path d="M24.1016 67.4873H18.1641C17.3767 67.4873 16.6216 67.8001 16.0648 68.3568C15.5081 68.9136 15.1953 69.6687 15.1953 70.4561V74.9092C15.1953 75.6965 15.5081 76.4517 16.0648 77.0084C16.6216 77.5652 17.3767 77.8779 18.1641 77.8779H24.1016C24.8889 77.8779 25.644 77.5652 26.2008 77.0084C26.7575 76.4517 27.0703 75.6965 27.0703 74.9092V70.4561C27.0703 69.6687 26.7575 68.9136 26.2008 68.3568C25.644 67.8001 24.8889 67.4873 24.1016 67.4873V67.4873ZM18.1641 74.9092V70.4561H24.1016V74.9092H18.1641Z" fill="#AB86E4"/>
<path d="M73.0859 54.1279C69.2694 54.1279 65.5385 55.2597 62.3652 57.38C59.1918 59.5004 56.7185 62.5142 55.258 66.0402C53.7974 69.5662 53.4153 73.4462 54.1599 77.1894C54.9044 80.9327 56.7423 84.371 59.441 87.0697C62.1397 89.7685 65.5781 91.6063 69.3213 92.3509C73.0645 93.0955 76.9445 92.7133 80.4705 91.2528C83.9966 89.7922 87.0103 87.3189 89.1307 84.1456C91.2511 80.9722 92.3828 77.2414 92.3828 73.4248C92.3769 68.3088 90.342 63.4039 86.7244 59.7864C83.1068 56.1688 78.202 54.1338 73.0859 54.1279V54.1279ZM73.0859 89.7529C69.8565 89.7529 66.6997 88.7953 64.0145 87.0011C61.3294 85.207 59.2366 82.6569 58.0007 79.6733C56.7649 76.6897 56.4415 73.4067 57.0716 70.2393C57.7016 67.072 59.2567 64.1626 61.5402 61.8791C63.8237 59.5955 66.7331 58.0404 69.9005 57.4104C73.0678 56.7804 76.3509 57.1037 79.3344 58.3396C82.318 59.5754 84.8681 61.6682 86.6623 64.3534C88.4564 67.0385 89.4141 70.1954 89.4141 73.4248C89.4089 77.7537 87.687 81.9039 84.626 84.9649C81.565 88.0259 77.4149 89.7478 73.0859 89.7529Z" fill="#AB86E4"/>
<path d="M81.6628 67.2018L70.1173 78.7473L64.8701 73.4986C64.5901 73.2282 64.2152 73.0786 63.826 73.0819C63.4368 73.0853 63.0645 73.2414 62.7893 73.5166C62.514 73.7919 62.3579 74.1642 62.3545 74.5534C62.3512 74.9426 62.5008 75.3175 62.7712 75.5975L69.0679 81.8957C69.3463 82.174 69.7237 82.3303 70.1173 82.3303C70.5109 82.3303 70.8884 82.174 71.1668 81.8957L83.7617 69.3007C84.0321 69.0208 84.1817 68.6458 84.1783 68.2566C84.175 67.8674 84.0189 67.4951 83.7436 67.2199C83.4684 66.9447 83.0961 66.7886 82.7069 66.7852C82.3177 66.7818 81.9428 66.9314 81.6628 67.2018Z" fill="#AB86E4"/>
</svg>
