<svg width="95" height="95" viewBox="0 0 95 95" fill="none" xmlns="http://www.w3.org/2000/svg">
<g clip-path="url(#clip0)">
<path d="M47.5006 83.8672C46.7321 83.8672 46.109 84.4903 46.109 85.2588C46.109 86.0273 46.7321 86.6504 47.5006 86.6504C48.2691 86.6504 48.8922 86.0273 48.8922 85.2588C48.8922 84.4903 48.2691 83.8672 47.5006 83.8672ZM47.5006 75.5176C46.7321 75.5176 46.109 76.1406 46.109 76.9092C46.109 77.6777 46.7321 78.3008 47.5006 78.3008C48.2691 78.3008 48.8922 77.6777 48.8922 76.9092C48.8922 76.1406 48.2691 75.5176 47.5006 75.5176ZM47.5006 92.2168C46.7321 92.2168 46.109 92.8399 46.109 93.6084C46.109 94.3769 46.7321 95 47.5006 95C48.2691 95 48.8922 94.3769 48.8922 93.6084C48.8922 92.8399 48.2691 92.2168 47.5006 92.2168ZM74.8394 63.6671L68.6451 61.5826C72.0694 59.1436 74.2156 55.1406 74.2156 50.8196C74.2245 50.8018 74.2156 26.7152 74.2156 26.7152C74.2156 19.5817 71.4371 12.8732 66.3917 7.826C61.3454 2.77931 54.6364 0 47.5006 0C42.9172 0 38.3953 1.18063 34.4233 3.41443C33.7534 3.79109 33.5157 4.6396 33.8924 5.30942C34.2691 5.97943 35.1178 6.21675 35.7874 5.84027C39.3438 3.84045 43.3941 2.7832 47.5006 2.7832C53.8929 2.7832 59.9029 5.27287 64.4236 9.79354C68.9433 14.3151 71.4324 20.3246 71.4324 26.715V26.7213C70.6242 26.2575 69.689 25.9907 68.6923 25.9907H67.355C63.6319 25.3513 59.9801 24.2961 56.4996 22.8516C53.8507 21.7522 51.2767 20.4165 48.849 18.8816C47.9988 18.3439 46.8896 18.3938 46.089 19.0058C44.1951 20.4525 42.15 21.7036 40.0101 22.7241C36.1654 24.5577 32.0282 25.6563 27.7129 25.9907H26.3091C25.3123 25.9907 24.3772 26.2575 23.5689 26.7213V26.715C23.5689 20.2398 26.1139 14.1749 30.7351 9.63749C31.2836 9.09903 31.2916 8.21806 30.7531 7.66958C30.2149 7.12129 29.3337 7.11294 28.7852 7.65158C23.6266 12.7165 20.7857 19.4869 20.7857 26.715V50.8194C20.7857 55.1405 22.932 59.1436 26.3562 61.5825L20.1617 63.6671C15.0592 65.3845 11.6309 70.1551 11.6309 75.538V93.6084C11.6309 94.3769 12.2539 95 13.0225 95C13.791 95 14.4141 94.3769 14.4141 93.6084V75.538C14.4141 71.3513 17.0807 67.6407 21.0496 66.305L23.468 65.4912C23.1101 66.962 22.9518 68.4781 23.0075 69.979C23.0602 71.404 23.3006 72.8047 23.7168 74.1631C21.0136 74.9747 19.0379 77.4847 19.0379 80.4489V86.1123C19.0379 87.5134 20.1777 88.653 21.5786 88.653H23.1381C23.9066 88.653 24.5297 88.0299 24.5297 87.2614C24.5297 86.4929 23.9066 85.8698 23.1381 85.8698H21.8209V80.4487C21.8209 78.3655 23.515 76.6708 25.5977 76.6695C25.5988 76.6695 25.5998 76.6696 25.6009 76.6696C25.602 76.6696 25.6031 76.6695 25.6042 76.6695C27.6864 76.6717 29.3797 78.3661 29.3797 80.4487V85.8698H28.0627C27.2942 85.8698 26.6711 86.4929 26.6711 87.2614C26.6711 88.0299 27.2942 88.653 28.0627 88.653H29.6222C31.0231 88.653 32.1629 87.5132 32.1629 86.1123V80.4489C32.1629 77.1632 29.7358 74.4342 26.5804 73.9597C26.1082 72.6425 25.8402 71.273 25.7885 69.876C25.72 68.0235 26.0434 66.1415 26.7244 64.3953L36.2171 61.2008L46.1775 71.1609C46.9911 71.9824 48.3786 71.9862 49.1952 71.1609L51.9441 68.4121C52.4875 67.8686 52.4875 66.9874 51.9441 66.4442C51.4006 65.9007 50.5194 65.9007 49.9762 66.4442L47.6861 68.7336L38.8651 59.9125C40.173 58.7755 40.769 57.0423 40.6354 55.2935C42.7667 56.0368 45.051 56.4448 47.4262 56.4532C49.8201 56.4615 52.1643 56.071 54.3658 55.3163C54.1385 57.0911 54.9607 59.0225 56.3415 60.0782L54.5586 61.8611C54.0151 62.4046 54.0151 63.2858 54.5586 63.8291C55.1021 64.3725 55.9832 64.3725 56.5265 63.8291L59.0616 61.2939L67.5361 64.1458C68.177 65.7756 68.5078 67.5385 68.4913 69.283C68.4763 70.8646 68.1742 72.4618 67.6172 73.9508C63.9996 74.4243 61.1965 77.5246 61.1965 81.2693C61.1965 85.3406 64.5087 88.6528 68.58 88.6528C72.6513 88.6528 75.9635 85.3408 75.9635 81.2695C75.9635 77.8612 73.6415 74.9862 70.4969 74.1399C70.9923 72.5783 71.2591 70.937 71.2745 69.3095C71.2875 67.9471 71.1246 66.5751 70.799 65.2437L73.9518 66.3046C77.9208 67.6406 80.5873 71.3511 80.5873 75.5378V93.6082C80.5873 94.3767 81.2104 94.9998 81.9789 94.9998C82.7474 94.9998 83.3705 94.3767 83.3705 93.6082V75.5378C83.3705 70.1551 79.9422 65.3847 74.8394 63.6671V63.6671ZM68.6208 28.7739H68.6923C70.1998 28.7739 71.4265 29.9977 71.4324 31.5038V31.5252C71.4257 33.0515 70.154 34.2989 68.6208 34.2551V28.7739ZM23.5688 31.504C23.5732 29.9768 24.8488 28.731 26.3804 28.7741V34.2555C24.8472 34.2978 23.5753 33.0554 23.5688 31.5255V31.504ZM37.8522 56.0481C37.8522 57.0455 37.218 57.9283 36.2728 58.2454L29.8883 60.394C26.0896 58.7679 23.5689 54.9803 23.5689 50.8196V36.3082C24.4421 36.8129 25.4072 37.0559 26.4672 37.0389C27.1279 44.4661 31.5816 50.8191 37.8522 54.0904V56.0481ZM47.4357 53.67C37.3605 53.6351 29.1636 45.3131 29.1636 35.119V28.6505C33.376 28.1879 37.4221 27.0416 41.2081 25.2362C43.446 24.1691 45.5876 22.8688 47.5776 21.3698C50.0751 22.9319 52.7167 24.2949 55.4327 25.4221C58.7776 26.8106 62.2725 27.8591 65.8374 28.5447V35.3331C65.8374 40.2431 63.922 44.8558 60.4442 48.3218C56.9071 51.8468 52.4888 53.6876 47.4357 53.67V53.67ZM65.1131 60.3938L58.7271 58.2448C57.7832 57.9283 57.149 57.0455 57.149 56.0481V54.1309C59.065 53.1449 60.8384 51.8583 62.4089 50.2932C66.0093 46.7053 68.1547 42.0501 68.5524 37.0385C69.5757 37.0532 70.5943 36.7949 71.4326 36.3078V50.8192C71.4324 54.9801 68.9118 58.7679 65.1131 60.3938ZM73.1803 81.2695C73.1803 83.8061 71.1166 85.8698 68.5802 85.8698C66.0436 85.8698 63.9799 83.8061 63.9799 81.2695C63.9799 78.7348 66.0408 76.6724 68.5748 76.6695C68.5763 76.6695 68.5778 76.6696 68.5793 76.6696C68.5806 76.6696 68.5819 76.6695 68.5832 76.6695C71.1183 76.6709 73.1803 78.7338 73.1803 81.2695V81.2695ZM56.4991 29.909C55.7305 29.909 55.1075 30.5321 55.1075 31.3006V34.4841C55.1075 35.2526 55.7305 35.8757 56.4991 35.8757C57.2676 35.8757 57.8907 35.2526 57.8907 34.4841V31.3006C57.8907 30.5321 57.2676 29.909 56.4991 29.909ZM49.4765 43.1307C49.1633 43.3532 48.5061 43.7312 47.6231 43.7627C46.627 43.7974 45.8787 43.3814 45.5234 43.1296C44.8964 42.6852 44.0277 42.8335 43.5833 43.4606C43.1389 44.0876 43.2872 44.9563 43.9143 45.4007C44.5302 45.8371 45.7958 46.5481 47.5017 46.5481C48.9963 46.5481 50.3842 45.8998 51.0881 45.3998C51.7147 44.9547 51.8619 44.0859 51.4167 43.4593C50.9718 42.8328 50.1031 42.6856 49.4765 43.1307V43.1307ZM38.5021 29.909C37.7336 29.909 37.1105 30.5321 37.1105 31.3006V34.4841C37.1105 35.2526 37.7336 35.8757 38.5021 35.8757C39.2707 35.8757 39.8937 35.2526 39.8937 34.4841V31.3006C39.8937 30.5321 39.2708 29.909 38.5021 29.909Z" fill="#7DBC91"/>
</g>
<defs>
<clipPath id="clip0">
<rect width="95" height="95" fill="white"/>
</clipPath>
</defs>
</svg>
