<svg width="95" height="95" viewBox="0 0 95 95" fill="none" xmlns="http://www.w3.org/2000/svg">
<g clip-path="url(#clip0)">
<path d="M47.5001 83.8672C46.7316 83.8672 46.1085 84.4903 46.1085 85.2588C46.1085 86.0273 46.7316 86.6504 47.5001 86.6504C48.2686 86.6504 48.8917 86.0273 48.8917 85.2588C48.8917 84.4903 48.2686 83.8672 47.5001 83.8672ZM47.5001 75.5176C46.7316 75.5176 46.1085 76.1406 46.1085 76.9092C46.1085 77.6777 46.7316 78.3008 47.5001 78.3008C48.2686 78.3008 48.8917 77.6777 48.8917 76.9092C48.8917 76.1406 48.2686 75.5176 47.5001 75.5176ZM47.5001 92.2168C46.7316 92.2168 46.1085 92.8399 46.1085 93.6084C46.1085 94.3769 46.7316 95 47.5001 95C48.2686 95 48.8917 94.3769 48.8917 93.6084C48.8917 92.8399 48.2686 92.2168 47.5001 92.2168ZM74.839 63.6671L68.6447 61.5826C72.0689 59.1436 74.2151 55.1406 74.2151 50.8196C74.224 50.8018 74.2151 26.7152 74.2151 26.7152C74.2151 19.5817 71.4366 12.8732 66.3912 7.826C61.3449 2.77931 54.6359 0 47.5001 0C42.9167 0 38.3948 1.18063 34.4228 3.41443C33.7529 3.79109 33.5153 4.6396 33.8919 5.30942C34.2686 5.97943 35.1173 6.21675 35.7869 5.84027C39.3433 3.84045 43.3936 2.7832 47.5001 2.7832C53.8924 2.7832 59.9024 5.27287 64.4231 9.79354C68.9428 14.3151 71.4319 20.3246 71.4319 26.715V26.7213C70.6237 26.2575 69.6885 25.9907 68.6918 25.9907H67.3545C63.6314 25.3513 59.9796 24.2961 56.4991 22.8516C53.8503 21.7522 51.2762 20.4165 48.8485 18.8816C47.9983 18.3439 46.8891 18.3938 46.0885 19.0058C44.1946 20.4525 42.1495 21.7036 40.0096 22.7241C36.1649 24.5577 32.0277 25.6563 27.7125 25.9907H26.3086C25.3119 25.9907 24.3767 26.2575 23.5685 26.7213V26.715C23.5685 20.2398 26.1134 14.1749 30.7346 9.63749C31.2831 9.09903 31.2911 8.21806 30.7526 7.66958C30.2144 7.12129 29.3332 7.11294 28.7847 7.65158C23.6262 12.7165 20.7853 19.4869 20.7853 26.715V50.8194C20.7853 55.1405 22.9315 59.1436 26.3557 61.5825L20.1613 63.6671C15.0587 65.3845 11.6304 70.1551 11.6304 75.538V93.6084C11.6304 94.3769 12.2534 95 13.022 95C13.7905 95 14.4136 94.3769 14.4136 93.6084V75.538C14.4136 71.3513 17.0803 67.6407 21.0491 66.305L23.4675 65.4912C23.1096 66.962 22.9513 68.4781 23.007 69.979C23.0597 71.404 23.3002 72.8047 23.7163 74.1631C21.0131 74.9747 19.0374 77.4847 19.0374 80.4489V86.1123C19.0374 87.5134 20.1772 88.653 21.5781 88.653H23.1376C23.9062 88.653 24.5292 88.0299 24.5292 87.2614C24.5292 86.4929 23.9062 85.8698 23.1376 85.8698H21.8204V80.4487C21.8204 78.3655 23.5145 76.6708 25.5972 76.6695C25.5983 76.6695 25.5993 76.6696 25.6004 76.6696C25.6015 76.6696 25.6026 76.6695 25.6037 76.6695C27.6859 76.6717 29.3792 78.3661 29.3792 80.4487V85.8698H28.0622C27.2937 85.8698 26.6706 86.4929 26.6706 87.2614C26.6706 88.0299 27.2937 88.653 28.0622 88.653H29.6217C31.0226 88.653 32.1624 87.5132 32.1624 86.1123V80.4489C32.1624 77.1632 29.7353 74.4342 26.5799 73.9597C26.1077 72.6425 25.8397 71.273 25.788 69.876C25.7195 68.0235 26.0429 66.1415 26.7239 64.3953L36.2166 61.2008L46.177 71.1609C46.9906 71.9824 48.3781 71.9862 49.1947 71.1609L51.9436 68.4121C52.487 67.8686 52.487 66.9874 51.9436 66.4442C51.4001 65.9007 50.519 65.9007 49.9757 66.4442L47.6857 68.7336L38.8646 59.9125C40.1725 58.7755 40.7685 57.0423 40.6349 55.2935C42.7662 56.0368 45.0505 56.4448 47.4257 56.4532C49.8196 56.4615 52.1638 56.071 54.3653 55.3163C54.138 57.0911 54.9602 59.0225 56.341 60.0782L54.5581 61.8611C54.0147 62.4046 54.0147 63.2858 54.5581 63.8291C55.1016 64.3725 55.9827 64.3725 56.526 63.8291L59.0612 61.2939L67.5356 64.1458C68.1765 65.7756 68.5073 67.5385 68.4908 69.283C68.4758 70.8646 68.1737 72.4618 67.6167 73.9508C63.9991 74.4243 61.1961 77.5246 61.1961 81.2693C61.1961 85.3406 64.5083 88.6528 68.5795 88.6528C72.6508 88.6528 75.963 85.3408 75.963 81.2695C75.963 77.8612 73.6411 74.9862 70.4964 74.1399C70.9918 72.5783 71.2586 70.937 71.274 69.3095C71.287 67.9471 71.1241 66.5751 70.7985 65.2437L73.9513 66.3046C77.9203 67.6406 80.5868 71.3511 80.5868 75.5378V93.6082C80.5868 94.3767 81.2099 94.9998 81.9784 94.9998C82.747 94.9998 83.37 94.3767 83.37 93.6082V75.5378C83.37 70.1551 79.9417 65.3847 74.839 63.6671V63.6671ZM68.6203 28.7739H68.6918C70.1994 28.7739 71.426 29.9977 71.4319 31.5038V31.5252C71.4253 33.0515 70.1535 34.2989 68.6203 34.2551V28.7739ZM23.5683 31.504C23.5727 29.9768 24.8484 28.731 26.3799 28.7741V34.2555C24.8467 34.2978 23.5748 33.0554 23.5683 31.5255V31.504ZM37.8517 56.0481C37.8517 57.0455 37.2175 57.9283 36.2723 58.2454L29.8878 60.394C26.0891 58.7679 23.5685 54.9803 23.5685 50.8196V36.3082C24.4416 36.8129 25.4067 37.0559 26.4667 37.0389C27.1274 44.4661 31.5811 50.8191 37.8517 54.0904V56.0481ZM47.4352 53.67C37.36 53.6351 29.1631 45.3131 29.1631 35.119V28.6505C33.3755 28.1879 37.4216 27.0416 41.2077 25.2362C43.4455 24.1691 45.5871 22.8688 47.5771 21.3698C50.0746 22.9319 52.7162 24.2949 55.4322 25.4221C58.7771 26.8106 62.272 27.8591 65.837 28.5447V35.3331C65.837 40.2431 63.9216 44.8558 60.4437 48.3218C56.9066 51.8468 52.4883 53.6876 47.4352 53.67V53.67ZM65.1126 60.3938L58.7266 58.2448C57.7827 57.9283 57.1485 57.0455 57.1485 56.0481V54.1309C59.0645 53.1449 60.838 51.8583 62.4084 50.2932C66.0088 46.7053 68.1543 42.0501 68.5519 37.0385C69.5752 37.0532 70.5938 36.7949 71.4321 36.3078V50.8192C71.4319 54.9801 68.9113 58.7679 65.1126 60.3938ZM73.1798 81.2695C73.1798 83.8061 71.1161 85.8698 68.5797 85.8698C66.0431 85.8698 63.9794 83.8061 63.9794 81.2695C63.9794 78.7348 66.0403 76.6724 68.5743 76.6695C68.5758 76.6695 68.5773 76.6696 68.5788 76.6696C68.5801 76.6696 68.5814 76.6695 68.5827 76.6695C71.1178 76.6709 73.1798 78.7338 73.1798 81.2695V81.2695ZM56.4986 29.909C55.73 29.909 55.107 30.5321 55.107 31.3006V34.4841C55.107 35.2526 55.73 35.8757 56.4986 35.8757C57.2671 35.8757 57.8902 35.2526 57.8902 34.4841V31.3006C57.8902 30.5321 57.2671 29.909 56.4986 29.909ZM49.476 43.1307C49.1628 43.3532 48.5056 43.7312 47.6226 43.7627C46.6266 43.7974 45.8782 43.3814 45.5229 43.1296C44.896 42.6852 44.0272 42.8335 43.5828 43.4606C43.1385 44.0876 43.2867 44.9563 43.9139 45.4007C44.5297 45.8371 45.7953 46.5481 47.5012 46.5481C48.9958 46.5481 50.3837 45.8998 51.0877 45.3998C51.7142 44.9547 51.8614 44.0859 51.4163 43.4593C50.9713 42.8328 50.1026 42.6856 49.476 43.1307V43.1307ZM38.5016 29.909C37.7331 29.909 37.11 30.5321 37.11 31.3006V34.4841C37.11 35.2526 37.7331 35.8757 38.5016 35.8757C39.2702 35.8757 39.8932 35.2526 39.8932 34.4841V31.3006C39.8932 30.5321 39.2704 29.909 38.5016 29.909Z" fill="white"/>
</g>
<defs>
<clipPath id="clip0">
<rect width="95" height="95" fill="white"/>
</clipPath>
</defs>
</svg>
