<svg width="95" height="95" viewBox="0 0 95 95" fill="none" xmlns="http://www.w3.org/2000/svg">
<g clip-path="url(#clip0)">
<path d="M79.5583 84.0651V93.4168C79.5583 94.2911 78.8494 95 77.9752 95C77.1009 95 76.392 94.2911 76.392 93.4168V84.0651C76.392 76.7837 70.4998 70.8912 63.2179 70.8913C59.7724 70.8913 56.6463 69.1361 54.8552 66.1958C54.4004 65.4492 54.6369 64.4749 55.3838 64.0202C56.1304 63.5652 57.1044 63.8019 57.5594 64.5488C58.7709 66.5378 60.8861 67.7251 63.2179 67.7251C72.249 67.7247 79.5583 75.0332 79.5583 84.0651V84.0651ZM51.9316 68.1957C52.1178 69.05 51.5761 69.8934 50.7218 70.0796C46.5555 70.9873 42.318 70.0786 38.9442 67.7758C35.6042 71.355 31.1916 70.8913 31.7823 70.8913C24.5009 70.8912 18.6081 76.7832 18.6081 84.0651V93.4168C18.6081 94.2911 17.8993 95 17.025 95C16.1507 95 15.4419 94.2911 15.4419 93.4168V84.0651C15.4419 75.0342 22.7498 67.7251 31.7819 67.7251C35.4354 67.7251 38.3972 64.7815 38.3972 61.127V60.7101C31.4871 57.4059 26.6368 50.4625 26.3411 42.3769C23.4974 41.6932 21.3786 39.1479 21.3786 36.1196V27.9125C21.2921 23.8953 21.8886 13.8339 29.2246 6.7625C38.283 -1.96963 52.8098 -1.41494 63.4915 3.72725C64.5326 4.2289 64.6908 5.63551 63.8262 6.36395C69.2375 7.68388 73.9038 11.0104 76.9016 15.7713C77.0564 16.0165 77.3397 16.4014 77.2657 17.0154C77.2198 17.3975 77.106 17.7209 76.8116 18.0197C74.8821 19.9765 73.8197 22.5694 73.8197 25.3211V36.12C73.8197 36.9943 73.1108 37.7031 72.2365 37.7031C71.3622 37.7031 70.6534 36.9943 70.6534 36.12V25.3211C70.6534 22.1475 71.7376 19.1352 73.729 16.7154C70.6938 12.3745 65.9582 9.58264 60.6025 9.00915L57.82 8.71113C56.1929 8.53698 55.8737 6.29548 57.3858 5.67311L58.6513 5.15206C42.1698 -0.593692 24.5447 5.79046 24.5447 27.8952V36.1196C24.5447 37.3758 25.2682 38.4676 26.3257 39.0159V28.7527C26.3257 22.6422 31.2971 17.6708 37.4076 17.6708H57.5924C63.7029 17.6708 68.6743 22.6418 68.6743 28.7521V41.7145C68.6743 55.4826 55.2201 65.9403 41.5296 61.9099C41.4406 63.0394 41.1594 64.1294 40.7013 65.1426C43.3645 66.9715 46.7276 67.7093 50.0476 66.9858C50.9019 66.7998 51.7453 67.3414 51.9316 68.1957V68.1957ZM47.5 59.6023C57.4297 59.6023 65.508 51.524 65.508 41.5942V28.7521C65.508 24.3878 61.9571 20.8371 57.5924 20.8371H37.4076C33.0429 20.8371 29.4919 24.388 29.4919 28.7527V41.5942C29.4919 51.524 37.5702 59.6023 47.5 59.6023ZM63.5291 86.8865H58.7798C57.9055 86.8865 57.1966 87.5953 57.1966 88.4696C57.1966 89.3439 57.9055 90.0527 58.7798 90.0527H63.5291C64.4034 90.0527 65.1123 89.3439 65.1123 88.4696C65.1123 87.5953 64.4034 86.8865 63.5291 86.8865Z" fill="white"/>
</g>
<defs>
<clipPath id="clip0">
<rect width="95" height="95" fill="white"/>
</clipPath>
</defs>
</svg>
