<svg width="96" height="95" viewBox="0 0 96 95" fill="none" xmlns="http://www.w3.org/2000/svg">
<g clip-path="url(#clip0)">
<path d="M80.3078 84.0651V93.4168C80.3078 94.2911 79.599 95 78.7247 95C77.8504 95 77.1415 94.2911 77.1415 93.4168V84.0651C77.1415 76.7837 71.2494 70.8912 63.9674 70.8913C60.5219 70.8913 57.3958 69.1361 55.6047 66.1958C55.15 65.4492 55.3864 64.4749 56.1333 64.0202C56.8799 63.5652 57.8539 63.8019 58.3089 64.5488C59.5204 66.5378 61.6356 67.7251 63.9674 67.7251C72.9985 67.7247 80.3078 75.0332 80.3078 84.0651V84.0651ZM52.6811 68.1957C52.8673 69.05 52.3257 69.8934 51.4714 70.0796C47.305 70.9873 43.0675 70.0786 39.6937 67.7758C36.3537 71.355 31.9411 70.8913 32.5318 70.8913C25.2504 70.8912 19.3577 76.7832 19.3577 84.0651V93.4168C19.3577 94.2911 18.6488 95 17.7745 95C16.9003 95 16.1914 94.2911 16.1914 93.4168V84.0651C16.1914 75.0342 23.4993 67.7251 32.5314 67.7251C36.1849 67.7251 39.1467 64.7815 39.1467 61.127V60.7101C32.2366 57.4059 27.3863 50.4625 27.0906 42.3769C24.2469 41.6932 22.1281 39.1479 22.1281 36.1196V27.9125C22.0416 23.8953 22.6381 13.8339 29.9741 6.7625C39.0325 -1.96963 53.5593 -1.41494 64.2411 3.72725C65.2822 4.2289 65.4403 5.63551 64.5757 6.36395C69.987 7.68388 74.6533 11.0104 77.6511 15.7713C77.8059 16.0165 78.0892 16.4014 78.0152 17.0154C77.9693 17.3975 77.8555 17.7209 77.5611 18.0197C75.6316 19.9765 74.5692 22.5694 74.5692 25.3211V36.12C74.5692 36.9943 73.8603 37.7031 72.986 37.7031C72.1118 37.7031 71.4029 36.9943 71.4029 36.12V25.3211C71.4029 22.1475 72.4872 19.1352 74.4785 16.7154C71.4433 12.3745 66.7078 9.58264 61.352 9.00915L58.5695 8.71113C56.9424 8.53698 56.6232 6.29548 58.1353 5.67311L59.4008 5.15206C42.9193 -0.593692 25.2942 5.79046 25.2942 27.8952V36.1196C25.2942 37.3758 26.0177 38.4676 27.0752 39.0159V28.7527C27.0752 22.6422 32.0466 17.6708 38.1571 17.6708H58.3419C64.4524 17.6708 69.4238 22.6418 69.4238 28.7521V41.7145C69.4238 55.4826 55.9696 65.9403 42.2791 61.9099C42.1901 63.0394 41.9089 64.1294 41.4508 65.1426C44.114 66.9715 47.4771 67.7093 50.7971 66.9858C51.6514 66.7998 52.4949 67.3414 52.6811 68.1957V68.1957ZM48.2495 59.6023C58.1793 59.6023 66.2576 51.524 66.2576 41.5942V28.7521C66.2576 24.3878 62.7066 20.8371 58.3419 20.8371H38.1571C33.7924 20.8371 30.2414 24.388 30.2414 28.7527V41.5942C30.2414 51.524 38.3197 59.6023 48.2495 59.6023ZM64.2787 86.8865H59.5293C58.655 86.8865 57.9462 87.5953 57.9462 88.4696C57.9462 89.3439 58.655 90.0527 59.5293 90.0527H64.2787C65.1529 90.0527 65.8618 89.3439 65.8618 88.4696C65.8618 87.5953 65.1529 86.8865 64.2787 86.8865Z" fill="#7DBC91"/>
</g>
<defs>
<clipPath id="clip0">
<rect width="95" height="95" fill="white" transform="translate(0.75)"/>
</clipPath>
</defs>
</svg>
