<svg width="95" height="95" viewBox="0 0 95 95" fill="none" xmlns="http://www.w3.org/2000/svg">
<g clip-path="url(#clip0)">
<path d="M57.2371 32.8071C56.6129 32.359 55.7433 32.5017 55.295 33.126C54.9319 33.632 54.2251 33.9462 53.4507 33.9462C52.6762 33.9462 51.9694 33.632 51.6063 33.126C51.158 32.5019 50.2884 32.359 49.6642 32.8071C49.0398 33.2554 48.897 34.1248 49.3453 34.7494C50.2353 35.9894 51.7704 36.7297 53.4509 36.7297C55.1313 36.7297 56.6664 35.9896 57.5564 34.7494C58.0044 34.1248 57.8615 33.2552 57.2371 32.8071Z" fill="white"/>
<path d="M81.5352 32.3186C80.7273 23.4151 73.7184 16.1431 64.8693 15.0276C58.8743 14.2721 53.0055 16.2688 48.7685 20.5061C44.5315 24.7434 42.5345 30.6117 43.2902 36.6069C43.812 40.747 45.7493 44.6836 48.7455 47.6913C50.2983 49.2503 52.1033 50.5226 54.0564 51.4642C53.0506 51.9051 51.8299 52.3461 50.5707 52.8002C49.9814 53.0126 49.3715 53.2341 48.7487 53.4655L37.7674 44.0832C36.2775 42.8075 34.1125 42.8072 32.6206 44.0822C31.8162 44.7695 31.3275 45.7288 31.2447 46.7838C31.1618 47.8386 31.4948 48.8627 32.1821 49.6668L39.4502 58.1736C38.3222 59.0163 37.3355 59.9194 36.4783 60.8932C31.8847 58.7237 28.6771 55.2106 27.4371 50.9786C26.2227 46.8339 26.9402 42.3873 29.4575 38.4577C33.4169 32.277 31.4601 28.3655 29.7336 24.9147C29.012 23.4726 28.3305 22.1101 28.0414 20.5887C27.2276 16.307 28.0426 12.653 30.4638 9.72823C34.5014 4.85057 42.2508 2.94649 46.8861 2.79026C58.0037 2.64015 68.6721 6.57115 77.0087 13.9086C77.5856 14.4164 78.4649 14.3604 78.9729 13.7834C79.4808 13.2065 79.4248 12.3272 78.8477 11.8192C69.7949 3.85159 58.1514 -0.33806 46.0645 0.0213442C33.9225 0.38279 22.5023 5.315 13.9085 13.9088C5.31473 22.5026 0.382343 33.923 0.0208975 46.0652C-0.338878 58.1528 3.85096 69.7953 11.8191 78.8482C12.0941 79.1608 12.4781 79.3204 12.8643 79.3204C13.1908 79.3204 13.5187 79.2061 13.7831 78.9734C14.36 78.4657 14.4162 77.5862 13.9083 77.0092C6.40835 68.488 2.46436 57.5279 2.80299 46.1479C3.14328 34.7177 7.78603 23.9673 15.8766 15.8771C19.9189 11.8346 24.6255 8.65299 29.7494 6.43848C29.2451 6.91126 28.7658 7.41446 28.3198 7.9531C25.3445 11.5471 24.3311 15.9732 25.307 21.1084C25.6685 23.01 26.4697 24.6113 27.2445 26.1601C28.9068 29.483 30.2201 32.108 27.1139 36.9565C24.1555 41.5744 23.3219 46.8322 24.7662 51.7616C25.6234 54.6872 27.2553 57.3119 29.5243 59.4904C28.9029 59.5175 28.2864 59.6138 27.695 59.7812C27.1454 59.9326 26.5905 60.1589 26.0453 60.4536C26.0346 60.4593 26.024 60.4653 26.0136 60.4714C25.7793 60.6063 25.5468 60.7508 25.3224 60.9015C25.2905 60.9228 25.2594 60.9457 25.2293 60.9698L23.5577 62.3061C23.2024 61.755 22.8541 61.2362 22.483 60.7173C21.6674 59.5815 20.3023 58.9976 18.9211 59.1924C16.8802 59.4808 15.4547 61.3758 15.7428 63.4166C15.9497 64.8811 16.8622 69.0155 17.0109 69.6532C17.0109 69.6532 17.0775 69.9061 17.1023 69.9677L17.2575 70.3531C17.264 70.3694 17.2708 70.3855 17.2781 70.4015C17.4328 70.7477 17.6198 71.0795 17.8267 71.3775C18.2487 71.9972 18.8062 72.5555 19.4352 72.989C20.7131 73.8762 22.2691 74.2637 23.8119 74.0807C24.5693 73.9944 25.3443 73.754 26.0611 73.3814L27.3612 72.695L29.5023 79.4473C30.648 83.0604 33.9904 85.4009 37.6129 85.4009C38.3074 85.4009 39.0123 85.3148 39.714 85.1352C48.1371 82.9786 63.8509 75.5107 74.4539 49.7243C74.6974 49.1324 75.1004 48.5656 75.6522 48.0394C79.9274 43.9624 82.0718 38.2325 81.5352 32.3186ZM73.7314 46.0253C72.8955 46.8224 72.2725 47.7108 71.8799 48.666C61.739 73.3289 46.9416 80.4118 39.024 82.4389C36.0923 83.1894 33.0751 81.5059 32.1558 78.606L29.5113 70.2666C29.3867 69.8734 29.0941 69.556 28.7126 69.3995C28.3313 69.2431 27.8999 69.2641 27.5351 69.4565L24.7697 70.9162C24.3598 71.1292 23.9197 71.2674 23.4907 71.3162C22.6177 71.42 21.7419 71.2019 21.0191 70.7002C20.6663 70.457 20.3581 70.1497 20.1208 69.8011C20.0095 69.6408 19.9115 69.4678 19.8288 69.2867L19.718 69.0067C19.5299 68.1994 18.6808 64.3161 18.4988 63.0273C18.4253 62.5061 18.7891 62.0222 19.3104 61.9487C19.6636 61.8984 20.0125 62.0493 20.2205 62.3387C20.8272 63.1874 21.3809 64.0558 22.0258 65.0986C22.2353 65.4372 22.5799 65.6699 22.9723 65.7378C23.3647 65.8055 23.7674 65.7022 24.0783 65.4535L26.9202 63.1819C27.0718 63.0815 27.2278 62.9848 27.385 62.8939C27.7397 62.7035 28.0928 62.5592 28.4441 62.4623C29.1911 62.2506 29.9938 62.2077 30.7721 62.3397C32.3274 62.5942 33.768 63.596 34.5309 64.9535C34.7326 65.3129 34.8931 65.684 35.0119 66.0681L35.1874 66.6188L36.6191 71.6705C36.8286 72.4099 37.5979 72.8394 38.3374 72.6299C39.0768 72.4204 39.5064 71.6512 39.2969 70.9116L37.8591 65.8385C37.855 65.8241 37.8508 65.8098 37.8461 65.7955L37.6672 65.2346C37.575 64.9364 37.463 64.6403 37.3344 64.3482C38.3224 62.8388 39.6181 61.5019 41.263 60.2961L43.1511 62.5059C43.5047 62.9167 43.9556 63.2361 44.4566 63.4307C44.8457 63.5927 48.4638 65.0268 54.8932 65.2307C54.9083 65.231 54.9233 65.2312 54.9381 65.2312C55.6863 65.2312 56.3043 64.6369 56.3282 63.8838C56.3526 63.1156 55.7497 62.4731 54.9816 62.4488C48.8913 62.2556 45.5547 60.8733 45.5255 60.8609C45.5068 60.8529 45.488 60.8453 45.4691 60.838C45.3916 60.8085 45.3173 60.756 45.2639 60.6939L34.2981 47.8592C34.0938 47.6201 33.9949 47.3158 34.0194 47.0022C34.0441 46.6888 34.1894 46.4034 34.4285 46.1991C34.8651 45.8262 35.5223 45.8258 35.9584 46.1991L47.4415 56.0103C47.7077 56.2378 48.0503 56.3563 48.3998 56.3428C51.2882 56.2302 54.3409 56.7022 57.4718 57.7459C58.201 57.9888 58.989 57.5949 59.2321 56.8657C59.4751 56.1367 59.081 55.3485 58.3518 55.1056C57.1779 54.7143 56.0115 54.3972 54.8567 54.1526C55.9006 53.7123 56.7916 53.2592 57.4946 52.7361C58.2553 52.9356 59.0281 53.0874 59.8087 53.1885C61.1528 53.3627 62.5088 53.4002 63.8386 53.3002C64.6049 53.2425 65.1796 52.5743 65.1219 51.808C65.064 51.0417 64.3955 50.4667 63.6297 50.5248C62.4884 50.6107 61.3232 50.5782 60.1665 50.4283C57.0404 50.0231 54.1614 48.6868 51.8217 46.7181C53.1344 46.2131 54.2004 45.2883 54.7843 44.1041C55.1242 43.4148 54.8411 42.5804 54.1518 42.2405C53.4625 41.9004 52.6281 42.1839 52.288 42.873C51.9306 43.5976 51.1042 44.1481 50.1308 44.3095C49.9245 44.3437 49.7187 44.3578 49.5153 44.3555C47.6743 42.0572 46.4308 39.2719 46.0512 36.2598C45.404 31.1242 47.1114 26.0998 50.7362 22.4751C54.3609 18.8505 59.3859 17.1432 64.5211 17.7902C72.0827 18.7432 78.0723 24.9594 78.7629 32.5709C79.2229 37.6335 77.3887 42.5377 73.7314 46.0253Z" fill="white"/>
<path d="M83.1808 16.1519C82.6731 15.5751 81.7936 15.5188 81.2166 16.0267C80.6397 16.5343 80.5835 17.4138 81.0913 17.9909C88.5913 26.5121 92.5353 37.4722 92.1965 48.852C91.8564 60.2822 87.2135 71.0326 79.1229 79.123C71.0327 87.2132 60.2821 91.8562 48.852 92.1964C37.4711 92.5351 26.512 88.5913 17.9909 81.0913C17.4143 80.5836 16.5348 80.6395 16.0267 81.2165C15.5189 81.7934 15.5749 82.6729 16.152 83.1807C24.8454 90.8323 35.9274 94.9999 47.4986 94.9999C47.9766 94.9999 48.4555 94.9928 48.935 94.9785C61.0771 94.6173 72.497 89.6853 81.0912 81.0911C89.6851 72.4971 94.6173 61.0771 94.9786 48.9347C95.3384 36.8471 91.1485 25.2046 83.1808 16.1519Z" fill="white"/>
</g>
<defs>
<clipPath id="clip0">
<rect width="95" height="95" fill="white"/>
</clipPath>
</defs>
</svg>
