<svg width="96" height="95" viewBox="0 0 96 95" fill="none" xmlns="http://www.w3.org/2000/svg">
<g clip-path="url(#clip0)">
<path d="M57.5887 32.8071C56.9645 32.359 56.0948 32.5017 55.6466 33.126C55.2834 33.632 54.5767 33.9462 53.8022 33.9462C53.0278 33.9462 52.321 33.632 51.9579 33.126C51.5096 32.5019 50.64 32.359 50.0158 32.8071C49.3914 33.2554 49.2485 34.1248 49.6968 34.7494C50.5869 35.9894 52.1219 36.7297 53.8024 36.7297C55.4829 36.7297 57.0179 35.9896 57.908 34.7494C58.3559 34.1248 58.213 33.2552 57.5887 32.8071Z" fill="#AB86E4"/>
<path d="M81.8872 32.3186C81.0793 23.4151 74.0705 16.1431 65.2214 15.0276C59.2264 14.2721 53.3575 16.2688 49.1206 20.5061C44.8836 24.7434 42.8866 30.6117 43.6423 36.6069C44.1641 40.747 46.1013 44.6836 49.0976 47.6913C50.6504 49.2503 52.4554 50.5226 54.4085 51.4642C53.4026 51.9051 52.1819 52.3461 50.9228 52.8002C50.3335 53.0126 49.7236 53.2341 49.1007 53.4655L38.1195 44.0832C36.6295 42.8075 34.4646 42.8072 32.9726 44.0822C32.1683 44.7695 31.6795 45.7288 31.5968 46.7838C31.5138 47.8386 31.8469 48.8627 32.5342 49.6668L39.8022 58.1736C38.6743 59.0163 37.6875 59.9194 36.8303 60.8932C32.2367 58.7237 29.0292 55.2106 27.7892 50.9786C26.5748 46.8339 27.2923 42.3873 29.8096 38.4577C33.769 32.277 31.8122 28.3655 30.0857 24.9147C29.3641 23.4726 28.6826 22.1101 28.3935 20.5887C27.5797 16.307 28.3946 12.653 30.8158 9.72823C34.8535 4.85057 42.6029 2.94649 47.2382 2.79026C58.3558 2.64015 69.0242 6.57115 77.3608 13.9086C77.9377 14.4164 78.817 14.3604 79.325 13.7834C79.8328 13.2065 79.7768 12.3272 79.1998 11.8192C70.1469 3.85159 58.5035 -0.33806 46.4166 0.0213442C34.2746 0.38279 22.8544 5.315 14.2606 13.9088C5.66679 22.5026 0.734394 33.923 0.372948 46.0652C0.0131728 58.1528 4.20301 69.7953 12.1711 78.8482C12.4461 79.1608 12.8302 79.3204 13.2163 79.3204C13.5429 79.3204 13.8707 79.2061 14.1351 78.9734C14.712 78.4657 14.7682 77.5862 14.2604 77.0092C6.7604 68.488 2.81641 57.5279 3.15504 46.1479C3.49533 34.7177 8.13809 23.9673 16.2287 15.8771C20.271 11.8346 24.9776 8.65299 30.1015 6.43848C29.5971 6.91126 29.1179 7.41446 28.6718 7.9531C25.6966 11.5471 24.6831 15.9732 25.6591 21.1084C26.0205 23.01 26.8217 24.6113 27.5966 26.1601C29.2589 29.483 30.5722 32.108 27.4659 36.9565C24.5076 41.5744 23.6739 46.8322 25.1182 51.7616C25.9754 54.6872 27.6073 57.3119 29.8764 59.4904C29.255 59.5175 28.6384 59.6138 28.0471 59.7812C27.4975 59.9326 26.9425 60.1589 26.3974 60.4536C26.3866 60.4593 26.376 60.4653 26.3657 60.4714C26.1313 60.6063 25.8988 60.7508 25.6745 60.9015C25.6426 60.9228 25.6114 60.9457 25.5813 60.9698L23.9098 62.3061C23.5544 61.755 23.2062 61.2362 22.8351 60.7173C22.0194 59.5815 20.6543 58.9976 19.2731 59.1924C17.2323 59.4808 15.8067 61.3758 16.0949 63.4166C16.3018 64.8811 17.2143 69.0155 17.3629 69.6532C17.3629 69.6532 17.4295 69.9061 17.4544 69.9677L17.6095 70.3531C17.616 70.3694 17.6229 70.3855 17.6301 70.4015C17.7849 70.7477 17.9719 71.0795 18.1788 71.3775C18.6007 71.9972 19.1583 72.5555 19.7873 72.989C21.0651 73.8762 22.6211 74.2637 24.164 74.0807C24.9214 73.9944 25.6964 73.754 26.4132 73.3814L27.7133 72.695L29.8543 79.4473C31.0001 83.0604 34.3425 85.4009 37.9649 85.4009C38.6594 85.4009 39.3643 85.3148 40.0661 85.1352C48.4891 82.9786 64.2029 75.5107 74.806 49.7243C75.0494 49.1324 75.4524 48.5656 76.0043 48.0394C80.2794 43.9624 82.4238 38.2325 81.8872 32.3186ZM74.0835 46.0253C73.2476 46.8224 72.6245 47.7108 72.2319 48.666C62.091 73.3289 47.2937 80.4118 39.376 82.4389C36.4444 83.1894 33.4272 81.5059 32.5078 78.606L29.8634 70.2666C29.7387 69.8734 29.4461 69.556 29.0646 69.3995C28.6833 69.2431 28.2519 69.2641 27.8871 69.4565L25.1217 70.9162C24.7119 71.1292 24.2718 71.2674 23.8428 71.3162C22.9698 71.42 22.094 71.2019 21.3711 70.7002C21.0184 70.457 20.7102 70.1497 20.4729 69.8011C20.3615 69.6408 20.2636 69.4678 20.1808 69.2867L20.07 69.0067C19.8819 68.1994 19.0328 64.3161 18.8508 63.0273C18.7773 62.5061 19.1412 62.0222 19.6624 61.9487C20.0157 61.8984 20.3645 62.0493 20.5725 62.3387C21.1792 63.1874 21.7329 64.0558 22.3779 65.0986C22.5874 65.4372 22.9319 65.6699 23.3244 65.7378C23.7168 65.8055 24.1194 65.7022 24.4304 65.4535L27.2722 63.1819C27.4238 63.0815 27.5799 62.9848 27.737 62.8939C28.0918 62.7035 28.4449 62.5592 28.7961 62.4623C29.5431 62.2506 30.3458 62.2077 31.1242 62.3397C32.6794 62.5942 34.12 63.596 34.883 64.9535C35.0847 65.3129 35.2452 65.684 35.3639 66.0681L35.5395 66.6188L36.9711 71.6705C37.1806 72.4099 37.9499 72.8394 38.6895 72.6299C39.4289 72.4204 39.8584 71.6512 39.649 70.9116L38.2112 65.8385C38.2071 65.8241 38.2028 65.8098 38.1982 65.7955L38.0193 65.2346C37.9271 64.9364 37.815 64.6403 37.6864 64.3482C38.6745 62.8388 39.9701 61.5019 41.615 60.2961L43.5031 62.5059C43.8568 62.9167 44.3077 63.2361 44.8086 63.4307C45.1977 63.5927 48.8159 65.0268 55.2453 65.2307C55.2603 65.231 55.2753 65.2312 55.2902 65.2312C56.0383 65.2312 56.6564 64.6369 56.6803 63.8838C56.7046 63.1156 56.1018 62.4731 55.3336 62.4488C49.2434 62.2556 45.9067 60.8733 45.8776 60.8609C45.8588 60.8529 45.8401 60.8453 45.8212 60.838C45.7436 60.8085 45.6694 60.756 45.616 60.6939L34.6501 47.8592C34.4458 47.6201 34.347 47.3158 34.3714 47.0022C34.3961 46.6888 34.5414 46.4034 34.7806 46.1991C35.2172 45.8262 35.8744 45.8258 36.3104 46.1991L47.7935 56.0103C48.0598 56.2378 48.4023 56.3563 48.7519 56.3428C51.6403 56.2302 54.6929 56.7022 57.8238 57.7459C58.553 57.9888 59.341 57.5949 59.5841 56.8657C59.8272 56.1367 59.4331 55.3485 58.7039 55.1056C57.5299 54.7143 56.3636 54.3972 55.2087 54.1526C56.2526 53.7123 57.1436 53.2592 57.8466 52.7361C58.6074 52.9356 59.3802 53.0874 60.1608 53.1885C61.5049 53.3627 62.8609 53.4002 64.1907 53.3002C64.957 53.2425 65.5316 52.5743 65.4739 51.808C65.416 51.0417 64.7475 50.4667 63.9818 50.5248C62.8405 50.6107 61.6752 50.5782 60.5185 50.4283C57.3924 50.0231 54.5135 48.6868 52.1737 46.7181C53.4865 46.2131 54.5524 45.2883 55.1364 44.1041C55.4763 43.4148 55.1931 42.5804 54.5038 42.2405C53.8145 41.9004 52.9801 42.1839 52.64 42.873C52.2827 43.5976 51.4562 44.1481 50.4828 44.3095C50.2765 44.3437 50.0708 44.3578 49.8674 44.3555C48.0264 42.0572 46.7829 39.2719 46.4032 36.2598C45.756 31.1242 47.4634 26.0998 51.0883 22.4751C54.7129 18.8505 59.7379 17.1432 64.8731 17.7902C72.4347 18.7432 78.4244 24.9594 79.115 32.5709C79.5749 37.6335 77.7408 42.5377 74.0835 46.0253Z" fill="#AB86E4"/>
<path d="M83.5324 16.1519C83.0247 15.5751 82.1452 15.5188 81.5682 16.0267C80.9913 16.5343 80.9351 17.4138 81.4429 17.9909C88.9429 26.5121 92.8869 37.4722 92.5481 48.852C92.208 60.2822 87.565 71.0326 79.4744 79.123C71.3842 87.2132 60.6336 91.8562 49.2036 92.1964C37.8227 92.5351 26.8636 88.5913 18.3425 81.0913C17.7658 80.5836 16.8863 80.6395 16.3783 81.2165C15.8705 81.7934 15.9265 82.6729 16.5035 83.1807C25.197 90.8323 36.2789 94.9999 47.8502 94.9999C48.3282 94.9999 48.8071 94.9928 49.2865 94.9785C61.4287 94.6173 72.8486 89.6853 81.4427 81.0911C90.0367 72.4971 94.9689 61.0771 95.3302 48.9347C95.6899 36.8471 91.5001 25.2046 83.5324 16.1519Z" fill="#AB86E4"/>
</g>
<defs>
<clipPath id="clip0">
<rect width="95" height="95" fill="white" transform="translate(0.351562)"/>
</clipPath>
</defs>
</svg>
