<svg width="96" height="95" viewBox="0 0 96 95" fill="none" xmlns="http://www.w3.org/2000/svg">
<g clip-path="url(#clip0)">
<path d="M58.0887 32.8071C57.4645 32.359 56.5948 32.5017 56.1466 33.126C55.7834 33.632 55.0767 33.9462 54.3022 33.9462C53.5278 33.9462 52.821 33.632 52.4579 33.126C52.0096 32.5019 51.14 32.359 50.5158 32.8071C49.8914 33.2554 49.7485 34.1248 50.1968 34.7494C51.0869 35.9894 52.6219 36.7297 54.3024 36.7297C55.9829 36.7297 57.5179 35.9896 58.408 34.7494C58.8559 34.1248 58.713 33.2552 58.0887 32.8071Z" fill="#7DBC91"/>
<path d="M82.3872 32.3186C81.5793 23.4151 74.5705 16.1431 65.7214 15.0276C59.7264 14.2721 53.8575 16.2688 49.6206 20.5061C45.3836 24.7434 43.3866 30.6117 44.1423 36.6069C44.6641 40.747 46.6013 44.6836 49.5976 47.6913C51.1504 49.2503 52.9554 50.5226 54.9085 51.4642C53.9026 51.9051 52.6819 52.3461 51.4228 52.8002C50.8335 53.0126 50.2236 53.2341 49.6007 53.4655L38.6195 44.0832C37.1295 42.8075 34.9646 42.8072 33.4726 44.0822C32.6683 44.7695 32.1795 45.7288 32.0968 46.7838C32.0138 47.8386 32.3469 48.8627 33.0342 49.6668L40.3022 58.1736C39.1743 59.0163 38.1875 59.9194 37.3303 60.8932C32.7367 58.7237 29.5292 55.2106 28.2892 50.9786C27.0748 46.8339 27.7923 42.3873 30.3096 38.4577C34.269 32.277 32.3122 28.3655 30.5857 24.9147C29.8641 23.4726 29.1826 22.1101 28.8935 20.5887C28.0797 16.307 28.8946 12.653 31.3158 9.72823C35.3535 4.85057 43.1029 2.94649 47.7382 2.79026C58.8558 2.64015 69.5242 6.57115 77.8608 13.9086C78.4377 14.4164 79.317 14.3604 79.825 13.7834C80.3328 13.2065 80.2768 12.3272 79.6998 11.8192C70.6469 3.85159 59.0035 -0.33806 46.9166 0.0213442C34.7746 0.38279 23.3544 5.315 14.7606 13.9088C6.16679 22.5026 1.23439 33.923 0.872948 46.0652C0.513173 58.1528 4.70301 69.7953 12.6711 78.8482C12.9461 79.1608 13.3302 79.3204 13.7163 79.3204C14.0429 79.3204 14.3707 79.2061 14.6351 78.9734C15.212 78.4657 15.2682 77.5862 14.7604 77.0092C7.2604 68.488 3.31641 57.5279 3.65504 46.1479C3.99533 34.7177 8.63809 23.9673 16.7287 15.8771C20.771 11.8346 25.4776 8.65299 30.6015 6.43848C30.0971 6.91126 29.6179 7.41446 29.1718 7.9531C26.1966 11.5471 25.1831 15.9732 26.1591 21.1084C26.5205 23.01 27.3217 24.6113 28.0966 26.1601C29.7589 29.483 31.0722 32.108 27.9659 36.9565C25.0076 41.5744 24.1739 46.8322 25.6182 51.7616C26.4754 54.6872 28.1073 57.3119 30.3764 59.4904C29.755 59.5175 29.1384 59.6138 28.5471 59.7812C27.9975 59.9326 27.4425 60.1589 26.8974 60.4536C26.8866 60.4593 26.876 60.4653 26.8657 60.4714C26.6313 60.6063 26.3988 60.7508 26.1745 60.9015C26.1426 60.9228 26.1114 60.9457 26.0813 60.9698L24.4098 62.3061C24.0544 61.755 23.7062 61.2362 23.3351 60.7173C22.5194 59.5815 21.1543 58.9976 19.7731 59.1924C17.7323 59.4808 16.3067 61.3758 16.5949 63.4166C16.8018 64.8811 17.7143 69.0155 17.8629 69.6532C17.8629 69.6532 17.9295 69.9061 17.9544 69.9677L18.1095 70.3531C18.116 70.3694 18.1229 70.3855 18.1301 70.4015C18.2849 70.7477 18.4719 71.0795 18.6788 71.3775C19.1007 71.9972 19.6583 72.5555 20.2873 72.989C21.5651 73.8762 23.1211 74.2637 24.664 74.0807C25.4214 73.9944 26.1964 73.754 26.9132 73.3814L28.2133 72.695L30.3543 79.4473C31.5001 83.0604 34.8425 85.4009 38.4649 85.4009C39.1594 85.4009 39.8643 85.3148 40.5661 85.1352C48.9891 82.9786 64.7029 75.5107 75.306 49.7243C75.5494 49.1324 75.9524 48.5656 76.5043 48.0394C80.7794 43.9624 82.9238 38.2325 82.3872 32.3186ZM74.5835 46.0253C73.7476 46.8224 73.1245 47.7108 72.7319 48.666C62.591 73.3289 47.7937 80.4118 39.876 82.4389C36.9444 83.1894 33.9272 81.5059 33.0078 78.606L30.3634 70.2666C30.2387 69.8734 29.9461 69.556 29.5646 69.3995C29.1833 69.2431 28.7519 69.2641 28.3871 69.4565L25.6217 70.9162C25.2119 71.1292 24.7718 71.2674 24.3428 71.3162C23.4698 71.42 22.594 71.2019 21.8711 70.7002C21.5184 70.457 21.2102 70.1497 20.9729 69.8011C20.8615 69.6408 20.7636 69.4678 20.6808 69.2867L20.57 69.0067C20.3819 68.1994 19.5328 64.3161 19.3508 63.0273C19.2773 62.5061 19.6412 62.0222 20.1624 61.9487C20.5157 61.8984 20.8645 62.0493 21.0725 62.3387C21.6792 63.1874 22.2329 64.0558 22.8779 65.0986C23.0874 65.4372 23.4319 65.6699 23.8244 65.7378C24.2168 65.8055 24.6194 65.7022 24.9304 65.4535L27.7722 63.1819C27.9238 63.0815 28.0799 62.9848 28.237 62.8939C28.5918 62.7035 28.9449 62.5592 29.2961 62.4623C30.0431 62.2506 30.8458 62.2077 31.6242 62.3397C33.1794 62.5942 34.62 63.596 35.383 64.9535C35.5847 65.3129 35.7452 65.684 35.8639 66.0681L36.0395 66.6188L37.4711 71.6705C37.6806 72.4099 38.4499 72.8394 39.1895 72.6299C39.9289 72.4204 40.3584 71.6512 40.149 70.9116L38.7112 65.8385C38.7071 65.8241 38.7028 65.8098 38.6982 65.7955L38.5193 65.2346C38.4271 64.9364 38.315 64.6403 38.1864 64.3482C39.1745 62.8388 40.4701 61.5019 42.115 60.2961L44.0031 62.5059C44.3568 62.9167 44.8077 63.2361 45.3086 63.4307C45.6977 63.5927 49.3159 65.0268 55.7453 65.2307C55.7603 65.231 55.7753 65.2312 55.7902 65.2312C56.5383 65.2312 57.1564 64.6369 57.1803 63.8838C57.2046 63.1156 56.6018 62.4731 55.8336 62.4488C49.7434 62.2556 46.4067 60.8733 46.3776 60.8609C46.3588 60.8529 46.3401 60.8453 46.3212 60.838C46.2436 60.8085 46.1694 60.756 46.116 60.6939L35.1501 47.8592C34.9458 47.6201 34.847 47.3158 34.8714 47.0022C34.8961 46.6888 35.0414 46.4034 35.2806 46.1991C35.7172 45.8262 36.3744 45.8258 36.8104 46.1991L48.2935 56.0103C48.5598 56.2378 48.9023 56.3563 49.2519 56.3428C52.1403 56.2302 55.1929 56.7022 58.3238 57.7459C59.053 57.9888 59.841 57.5949 60.0841 56.8657C60.3272 56.1367 59.9331 55.3485 59.2039 55.1056C58.0299 54.7143 56.8636 54.3972 55.7087 54.1526C56.7526 53.7123 57.6436 53.2592 58.3466 52.7361C59.1074 52.9356 59.8802 53.0874 60.6608 53.1885C62.0049 53.3627 63.3609 53.4002 64.6907 53.3002C65.457 53.2425 66.0316 52.5743 65.9739 51.808C65.916 51.0417 65.2475 50.4667 64.4818 50.5248C63.3405 50.6107 62.1752 50.5782 61.0185 50.4283C57.8924 50.0231 55.0135 48.6868 52.6737 46.7181C53.9865 46.2131 55.0524 45.2883 55.6364 44.1041C55.9763 43.4148 55.6931 42.5804 55.0038 42.2405C54.3145 41.9004 53.4801 42.1839 53.14 42.873C52.7827 43.5976 51.9562 44.1481 50.9828 44.3095C50.7765 44.3437 50.5708 44.3578 50.3674 44.3555C48.5264 42.0572 47.2829 39.2719 46.9032 36.2598C46.256 31.1242 47.9634 26.0998 51.5883 22.4751C55.2129 18.8505 60.2379 17.1432 65.3731 17.7902C72.9347 18.7432 78.9244 24.9594 79.615 32.5709C80.0749 37.6335 78.2408 42.5377 74.5835 46.0253Z" fill="#7DBC91"/>
<path d="M84.0324 16.1519C83.5247 15.5751 82.6452 15.5188 82.0682 16.0267C81.4913 16.5343 81.4351 17.4138 81.9429 17.9909C89.4429 26.5121 93.3869 37.4722 93.0481 48.852C92.708 60.2822 88.065 71.0326 79.9744 79.123C71.8842 87.2132 61.1336 91.8562 49.7036 92.1964C38.3227 92.5351 27.3636 88.5913 18.8425 81.0913C18.2658 80.5836 17.3863 80.6395 16.8783 81.2165C16.3705 81.7934 16.4265 82.6729 17.0035 83.1807C25.697 90.8323 36.7789 94.9999 48.3502 94.9999C48.8282 94.9999 49.3071 94.9928 49.7865 94.9785C61.9287 94.6173 73.3486 89.6853 81.9427 81.0911C90.5367 72.4971 95.4689 61.0771 95.8302 48.9347C96.1899 36.8471 92.0001 25.2046 84.0324 16.1519Z" fill="#7DBC91"/>
</g>
<defs>
<clipPath id="clip0">
<rect width="95" height="95" fill="white" transform="translate(0.851562)"/>
</clipPath>
</defs>
</svg>
