<svg width="30" height="30" viewBox="0 0 30 30" fill="none" xmlns="http://www.w3.org/2000/svg">
<path d="M23.0049 13.2927C23.137 13.1878 23.3333 13.2859 23.3333 13.4518V20.375C23.3333 21.2721 22.6055 22 21.7083 22H7.625C6.72786 22 6 21.2721 6 20.375V13.4552C6 13.2859 6.19297 13.1911 6.32839 13.2961C7.08672 13.8852 8.09219 14.6333 11.5453 17.1419C12.2596 17.6633 13.4648 18.7602 14.6667 18.7534C15.8753 18.7635 17.1042 17.643 17.7914 17.1419C21.2445 14.6333 22.2466 13.8818 23.0049 13.2927ZM14.6667 17.6667C15.4521 17.6802 16.5828 16.6781 17.1516 16.2651C21.644 13.0049 21.9859 12.7206 23.0219 11.9081C23.2182 11.7557 23.3333 11.5188 23.3333 11.2682V10.625C23.3333 9.72786 22.6055 9 21.7083 9H7.625C6.72786 9 6 9.72786 6 10.625V11.2682C6 11.5188 6.1151 11.7523 6.31146 11.9081C7.3474 12.7172 7.68932 13.0049 12.1818 16.2651C12.7505 16.6781 13.8812 17.6802 14.6667 17.6667Z" fill="url(#paint0_linear)"/>
<defs>
<linearGradient id="paint0_linear" x1="6" y1="15.5" x2="23.3333" y2="15.5" gradientUnits="userSpaceOnUse">
<stop stop-color="#6288E4"/>
<stop offset="1" stop-color="#AB86E4"/>
</linearGradient>
</defs>
</svg>
