<svg width="18" height="13" viewBox="0 0 18 13" fill="none" xmlns="http://www.w3.org/2000/svg">
<path d="M17.0049 4.29271C17.137 4.18776 17.3333 4.28594 17.3333 4.45182V11.375C17.3333 12.2721 16.6055 13 15.7083 13H1.625C0.727864 13 0 12.2721 0 11.375V4.45521C0 4.28594 0.192969 4.19115 0.328385 4.29609C1.08672 4.88516 2.09219 5.63333 5.54531 8.14193C6.25963 8.66328 7.46484 9.76016 8.66666 9.75339C9.87526 9.76354 11.1042 8.64297 11.7914 8.14193C15.2445 5.63333 16.2466 4.88177 17.0049 4.29271ZM8.66666 8.66667C9.45208 8.68021 10.5828 7.67813 11.1516 7.2651C15.644 4.00495 15.9859 3.72057 17.0219 2.90807C17.2182 2.75573 17.3333 2.51875 17.3333 2.26823V1.625C17.3333 0.727865 16.6055 0 15.7083 0H1.625C0.727864 0 0 0.727865 0 1.625V2.26823C0 2.51875 0.115104 2.75234 0.311458 2.90807C1.3474 3.71719 1.68932 4.00495 6.18177 7.2651C6.75052 7.67813 7.88125 8.68021 8.66666 8.66667Z" fill="white"/>
</svg>
