<svg width="62" height="85" viewBox="0 0 62 85" fill="none" xmlns="http://www.w3.org/2000/svg">
<path d="M58.6855 4.98047H49.8037V2.24121C49.8037 1.00539 48.7983 0 47.5625 0H41.7915C41.1037 0 40.5463 0.55748 40.5463 1.24512C40.5463 1.93275 41.1037 2.49023 41.7915 2.49023H47.3135V4.98047H14.9404V2.49023H36.479C37.1668 2.49023 37.7241 1.93275 37.7241 1.24512C37.7241 0.55748 37.1668 0 36.479 0H14.6914C13.4556 0 12.4502 1.00539 12.4502 2.24121V4.98047H3.56836C1.78336 4.98047 0.331055 6.43277 0.331055 8.21777V15.8077C0.331055 16.4953 0.888369 17.0528 1.57617 17.0528C2.26397 17.0528 2.82129 16.4953 2.82129 15.8077V8.21777C2.82129 7.80589 3.15647 7.4707 3.56836 7.4707H17.0986V9.96094H6.55664C5.86884 9.96094 5.31152 10.5184 5.31152 11.2061V78.7744C5.31152 79.4621 5.86884 80.0195 6.55664 80.0195H55.6973C56.3851 80.0195 56.9424 79.4621 56.9424 78.7744V74.3224C56.9424 73.6347 56.3851 73.0773 55.6973 73.0773C55.0095 73.0773 54.4521 73.6347 54.4521 74.3224V77.5293H7.80176V12.4512H17.0986V12.7439C17.0986 14.7794 18.7548 16.4355 20.7903 16.4355H41.4634C43.4991 16.4355 45.1551 14.7794 45.1551 12.7439V12.4512H54.452V69.0175C54.452 69.7051 55.0093 70.2626 55.6971 70.2626C56.3849 70.2626 56.9422 69.7051 56.9422 69.0175V11.2061C56.9422 10.5184 56.3849 9.96094 55.6971 9.96094H45.1551V7.4707H58.6855C59.0974 7.4707 59.4326 7.80589 59.4326 8.21777V81.7627C59.4326 82.1746 59.0974 82.5098 58.6855 82.5098H3.56836C3.15647 82.5098 2.82129 82.1746 2.82129 81.7627V21.1356C2.82129 20.448 2.26397 19.8905 1.57617 19.8905C0.888369 19.8905 0.331055 20.448 0.331055 21.1356V81.7627C0.331055 83.5477 1.78336 85 3.56836 85H58.6855C60.4705 85 61.9229 83.5477 61.9229 81.7627V8.21777C61.9229 6.43277 60.4705 4.98047 58.6855 4.98047ZM42.665 12.7439C42.665 13.4064 42.126 13.9453 41.4636 13.9453H20.7903C20.1279 13.9453 19.5889 13.4063 19.5889 12.7439V12.4512H42.665V12.7439ZM42.665 9.96094H19.5889V7.4707H42.665V9.96094Z" fill="#AB86E4"/>
<path d="M21.7275 22.0762C19.2102 22.0762 17.1621 24.1241 17.1621 26.6416V27.8867H15.917C13.3997 27.8867 11.3516 29.9347 11.3516 32.4521C11.3516 34.9696 13.3997 37.0176 15.917 37.0176H17.1621V38.2627C17.1621 40.7802 19.2102 42.8281 21.7275 42.8281C24.2448 42.8281 26.293 40.7802 26.293 38.2627V37.0176H27.5381C30.0554 37.0176 32.1035 34.9696 32.1035 32.4521C32.1035 29.9347 30.0554 27.8867 27.5381 27.8867H26.293V26.6416C26.293 24.1243 24.2448 22.0762 21.7275 22.0762ZM27.5381 30.377C28.6824 30.377 29.6133 31.3078 29.6133 32.4521C29.6133 33.5965 28.6824 34.5273 27.5381 34.5273H25.7119C24.6592 34.5273 23.8027 35.3838 23.8027 36.4365V38.2627C23.8027 39.407 22.8719 40.3379 21.7275 40.3379C20.5832 40.3379 19.6523 39.407 19.6523 38.2627V36.4365C19.6523 35.3838 18.7959 34.5273 17.7432 34.5273H15.917C14.7726 34.5273 13.8418 33.5965 13.8418 32.4521C13.8418 31.3078 14.7726 30.377 15.917 30.377H17.7432C18.7959 30.377 19.6523 29.5205 19.6523 28.4678V26.6416C19.6523 25.4973 20.5832 24.5664 21.7275 24.5664C22.8719 24.5664 23.8027 25.4973 23.8027 26.6416V28.4678C23.8027 29.5205 24.6592 30.377 25.7119 30.377H27.5381Z" fill="#AB86E4"/>
<path d="M36.6836 26.8242H48.2144C48.9022 26.8242 49.4595 26.2667 49.4595 25.5791C49.4595 24.8915 48.9022 24.334 48.2144 24.334H36.6836C35.9958 24.334 35.4385 24.8915 35.4385 25.5791C35.4385 26.2667 35.9958 26.8242 36.6836 26.8242Z" fill="#AB86E4"/>
<path d="M36.6836 31.8047H48.2144C48.9022 31.8047 49.4595 31.2472 49.4595 30.5596C49.4595 29.8719 48.9022 29.3145 48.2144 29.3145H36.6836C35.9958 29.3145 35.4385 29.8719 35.4385 30.5596C35.4385 31.2472 35.9958 31.8047 36.6836 31.8047Z" fill="#AB86E4"/>
<path d="M36.6836 36.7852H48.2144C48.9022 36.7852 49.4595 36.2277 49.4595 35.54C49.4595 34.8524 48.9022 34.2949 48.2144 34.2949H36.6836C35.9958 34.2949 35.4385 34.8524 35.4385 35.54C35.4385 36.2277 35.9958 36.7852 36.6836 36.7852Z" fill="#AB86E4"/>
<path d="M36.6836 41.7656H43.5786C44.2664 41.7656 44.8237 41.2081 44.8237 40.5205C44.8237 39.8329 44.2664 39.2754 43.5786 39.2754H36.6836C35.9958 39.2754 35.4385 39.8329 35.4385 40.5205C35.4385 41.2081 35.9958 41.7656 36.6836 41.7656Z" fill="#AB86E4"/>
<path d="M48.7025 49.8262H13.5557C12.8679 49.8262 12.3105 50.3837 12.3105 51.0713C12.3105 51.7589 12.8679 52.3164 13.5557 52.3164H48.7023C49.3901 52.3164 49.9475 51.7589 49.9475 51.0713C49.9475 50.3837 49.3901 49.8262 48.7025 49.8262V49.8262Z" fill="#AB86E4"/>
<path d="M48.7025 54.8066H13.5557C12.8679 54.8066 12.3105 55.3641 12.3105 56.0518C12.3105 56.7394 12.8679 57.2969 13.5557 57.2969H48.7023C49.3901 57.2969 49.9475 56.7394 49.9475 56.0518C49.9475 55.3641 49.3901 54.8066 48.7025 54.8066V54.8066Z" fill="#AB86E4"/>
<path d="M49.9476 61.0322C49.9476 60.3446 49.3903 59.7871 48.7025 59.7871H13.5557C12.8679 59.7871 12.3105 60.3446 12.3105 61.0322C12.3105 61.7199 12.8679 62.2773 13.5557 62.2773H48.7023C49.3901 62.2773 49.9476 61.7199 49.9476 61.0322V61.0322Z" fill="#AB86E4"/>
<path d="M13.5557 64.7676C12.8679 64.7676 12.3105 65.3251 12.3105 66.0127C12.3105 66.7003 12.8679 67.2578 13.5557 67.2578H34.5721C35.2599 67.2578 35.8172 66.7003 35.8172 66.0127C35.8172 65.3251 35.2599 64.7676 34.5721 64.7676H13.5557Z" fill="#AB86E4"/>
</svg>
