<svg width="96" height="96" viewBox="0 0 96 96" fill="none" xmlns="http://www.w3.org/2000/svg">
<g clip-path="url(#clip0)">
<path d="M95.3516 32.4814C95.3493 31.0392 94.9252 29.5765 93.9872 28.3708L86.46 18.7395C85.1992 17.1386 83.2808 16.3235 81.3637 16.3203C80.2228 16.3203 79.0611 16.6127 78.0347 17.2529L70.6952 21.8192C69.9233 22.3114 68.6 22.6493 67.3217 22.6406C66.3287 22.6449 65.369 22.4461 64.7354 22.1331L57.5481 18.6517C56.3888 18.0936 55.0964 17.8648 53.7969 17.8626C51.9304 17.8713 50.0403 18.33 48.5214 19.3826L47.6827 19.9709C47.0123 19.6364 45.9879 19.1267 44.8275 18.5493C43.4359 17.867 41.7996 17.5919 40.1467 17.5865C38.6536 17.5908 37.1609 17.8208 35.8502 18.3745L30.9547 20.4634C30.158 20.8089 28.8907 21.0345 27.632 21.0289C26.3732 21.0343 25.1082 20.8087 24.3114 20.4634L19.4115 18.3734C18.5177 17.9923 17.5623 17.8294 16.6155 17.8283C15.5252 17.8294 14.4414 18.0442 13.4341 18.4522C12.4281 18.8625 11.4942 19.4681 10.7505 20.2992L1.82945 30.2901C0.84067 31.3943 0.349528 32.7848 0.351569 34.1536C0.349528 35.7859 1.04793 37.4233 2.395 38.5709L10.7168 45.6707L6.76908 49.7889C5.68085 50.9246 5.13905 52.3971 5.13905 53.8531C5.13701 55.4022 5.75228 56.9664 6.97095 58.1181L7.77177 58.879C8.52639 59.5949 9.43316 60.0502 10.382 60.2931C9.90612 61.1685 9.64598 62.1283 9.64802 63.09C9.64598 64.6402 10.2613 66.2033 11.4777 67.3563L11.4757 67.3552L12.2789 68.1194C13.4222 69.2032 14.9044 69.743 16.3646 69.742C17.1495 69.7432 17.9353 69.5854 18.6738 69.2767C18.933 70.3282 19.4683 71.3277 20.3103 72.1265L21.1135 72.8908C22.2569 73.9746 23.7366 74.5143 25.1993 74.5134C26.3426 74.5145 27.4911 74.1775 28.4799 73.5235C28.7692 74.454 29.2648 75.3359 30.0192 76.0527L30.8224 76.8169C31.9634 77.9007 33.4455 78.4405 34.9061 78.4396C36.4616 78.4407 38.0324 77.8297 39.1927 76.6184L42.6817 72.975L47.4218 77.3621C48.5565 78.4145 50.0128 78.9381 51.4504 78.935C53.0298 78.9383 54.6231 78.3056 55.7857 77.0609L56.5424 76.2503C57.1955 75.5487 57.6219 74.7184 57.8692 73.8517L59.7054 75.5465C60.8421 76.5947 62.2964 77.116 63.732 77.1149C65.3134 77.116 66.9111 76.4833 68.0749 75.2378L68.8273 74.428C69.6962 73.4997 70.1853 72.3499 70.3363 71.1756C70.821 71.2997 71.3121 71.3839 71.8075 71.3839C73.3889 71.3839 74.9822 70.7523 76.1471 69.5079L76.9017 68.6982C77.9564 67.5678 78.4811 66.1181 78.4789 64.6889C78.4789 64.2452 78.4152 63.8038 78.3169 63.3676C79.6285 63.1937 80.9002 62.6087 81.8673 61.5702L82.624 60.7595C83.6786 59.6292 84.2011 58.1795 84.2011 56.7491C84.2032 55.1753 83.5686 53.5872 82.3163 52.4301L80.9012 51.123L93.6739 37.001C94.8205 35.7296 95.3495 34.0931 95.3516 32.4814ZM11.8581 57.2881C11.1814 57.2861 10.5195 57.0441 10.0024 56.5541L9.2003 55.7932C8.64533 55.2685 8.37128 54.5702 8.36905 53.8533C8.37128 53.1809 8.61193 52.5244 9.10753 52.0073L17.1929 43.5699C17.7197 43.0203 18.4225 42.7452 19.1436 42.7442C19.8182 42.7453 20.4778 42.9882 20.9992 43.4794L21.798 44.2414C21.798 44.2414 22.625 45.4643 22.627 46.1822C22.625 46.7198 22.463 47.2434 22.1489 47.6968C22.122 47.7237 13.4222 56.7905 13.4222 56.7905C12.9602 57.1174 12.414 57.2857 11.8581 57.2881ZM18.3155 65.704C17.7898 66.2513 17.0881 66.5254 16.367 66.5276C15.6904 66.5265 15.0306 66.2836 14.5114 65.7936L13.7082 65.0303L13.7061 65.0292C13.1556 64.5067 12.8791 63.8062 12.8791 63.0893C12.8791 62.4168 13.122 61.7604 13.6152 61.2433C13.6152 61.2433 24.3929 50.0242 24.4836 49.916C24.9987 49.4206 25.6624 49.1647 26.3478 49.1636C27.0245 49.1647 27.6843 49.4065 28.2035 49.8976L29.0067 50.6619C29.5592 51.1844 29.8337 51.8839 29.8357 52.6018C29.8335 53.2742 29.5908 53.9316 29.0972 54.4487L18.3155 65.704ZM27.1488 70.474C26.6243 71.0227 25.9227 71.2971 25.2015 71.2992C24.5248 71.298 23.865 71.0552 23.3458 70.564L22.5404 69.8007C21.9878 69.2771 21.7114 68.5777 21.7114 67.8608C21.7114 67.2607 21.9155 66.6787 22.306 66.194L29.8118 58.36C30.3181 57.9034 30.9527 57.6628 31.6103 57.6628C32.287 57.6639 32.9468 57.9056 33.4659 58.3968L34.2714 59.161C34.8219 59.6835 35.0984 60.3831 35.1004 61.0998C35.0982 61.7735 34.8533 62.4309 34.3619 62.9468L27.1488 70.474ZM41.4103 69.6472L36.8559 74.4006C36.3311 74.9489 35.6285 75.2233 34.9074 75.2253C34.2308 75.2242 33.571 74.9813 33.0518 74.4902L32.2486 73.7268C31.698 73.2043 31.4216 72.5039 31.4195 71.787C31.4216 71.1132 31.6645 70.4558 32.158 69.9409L36.7104 65.1878C37.2372 64.6395 37.94 64.3642 38.6611 64.363C39.3357 64.3642 39.9976 64.6059 40.5167 65.0982L41.3222 65.8615C41.8727 66.384 42.1469 67.0835 42.1492 67.8003C42.1466 68.4738 41.9037 69.1312 41.4103 69.6472ZM80.976 56.7534C80.975 57.4136 80.7385 58.0602 80.2592 58.574L79.5046 59.3837C78.9778 59.9472 78.2631 60.2322 77.5313 60.2333C76.8674 60.2322 76.2174 59.999 75.7016 59.5221L62.9851 47.762L60.7862 50.1164L74.3976 62.726C74.9644 63.2507 75.2492 63.9632 75.2535 64.6907C75.2492 65.3535 75.0149 65.999 74.5367 66.513L73.7843 67.3227C73.2576 67.8862 72.5428 68.1701 71.8111 68.1723C71.1472 68.1703 70.4952 67.9359 69.9834 67.462L57.2636 55.7021L55.0669 58.0565L66.3552 68.4954C66.8993 69.0167 67.1779 69.7109 67.1779 70.4232C67.1779 71.0839 66.9436 71.7304 66.4654 72.2432L65.7108 73.0529C65.1861 73.6164 64.4693 73.9014 63.7355 73.9035C63.0694 73.9014 62.4196 73.6671 61.9058 73.1932L50.6402 62.7922H50.6381L50.6361 62.7902L48.4437 65.1488L48.4459 65.1509L48.488 65.1908L54.1305 70.3983C54.6303 70.9121 54.8894 71.5706 54.8914 72.2517C54.8894 72.9091 54.6571 73.5524 54.1789 74.0655L53.4243 74.8761C52.8975 75.4396 52.185 75.7224 51.4553 75.7246C50.7914 75.7226 50.1414 75.4894 49.6276 75.0134L44.7149 70.4644C45.1424 69.6257 45.381 68.7156 45.381 67.8023C45.3831 66.2532 44.7678 64.6913 43.5513 63.5374L42.7459 62.7731C41.6049 61.6902 40.1248 61.1496 38.6644 61.1516C38.551 61.1516 38.4367 61.1776 38.3256 61.1841C38.3256 61.1572 38.3319 61.129 38.3319 61.1021C38.3339 59.5529 36.5022 56.8348 36.5022 56.8348L35.699 56.0728C34.8451 55.2631 33.8033 54.758 32.7197 54.555C32.9431 53.9225 33.0694 53.264 33.0694 52.6044C33.0694 51.0552 32.4562 49.492 31.2397 48.3394L30.4365 47.5751C29.2932 46.4913 27.8134 45.9505 26.3528 45.9516C26.1823 45.9516 26.014 45.9861 25.8444 46.0013C25.798 44.5138 25.1989 43.0274 24.0331 41.9198V41.9187L23.2321 41.1578C22.0888 40.0729 20.609 39.532 19.1484 39.5332C17.5905 39.532 16.0221 40.143 14.8619 41.3543L12.9534 43.346L4.49873 36.1349C3.89106 35.6146 3.58769 34.8956 3.58547 34.1573C3.58751 33.5387 3.7981 32.9331 4.24713 32.4302L13.168 22.4395C13.5221 22.0422 14.0457 21.6828 14.6589 21.4332C15.2721 21.1839 15.9683 21.0469 16.6192 21.0479C17.1861 21.0479 17.718 21.1505 18.1435 21.334L23.0412 23.4238C24.4218 24.0057 26.0248 24.2443 27.6357 24.2495C29.2485 24.2441 30.8494 24.0055 32.2302 23.4238L37.1257 21.3349C37.8803 21.0057 39.019 20.8016 40.1514 20.8059C41.4036 20.7983 42.6579 21.0575 43.3855 21.4288C43.8475 21.6587 44.2857 21.8769 44.6926 22.0808L39.6999 25.5904C38.0957 26.7185 37.231 28.5126 37.2333 30.323C37.2312 31.5212 37.6111 32.741 38.384 33.7762L38.382 33.774L39.0414 34.6601C40.2937 36.3249 42.2464 37.1808 44.1981 37.1851C45.3003 37.1851 46.423 36.9066 47.4237 36.3063L50.4095 34.5132C51.0185 34.1408 51.9381 33.9055 52.889 33.9098C54.0063 33.9033 55.1322 34.2337 55.8091 34.7312L64.0695 40.6533C65.9079 41.9703 68.9022 44.4132 70.5616 45.9505L80.1226 54.7905C80.6887 55.3154 80.9737 56.0248 80.976 56.7534ZM91.2766 34.852L78.5395 48.9361L72.7566 43.5905C70.9453 41.9184 67.9584 39.4799 65.9548 38.0408L57.6967 32.1187C56.2965 31.1268 54.5823 30.698 52.8875 30.6917C51.4452 30.6959 49.9922 31.0102 48.7379 31.7571L45.7543 33.5502C45.2966 33.8254 44.757 33.9658 44.1965 33.9669C43.1945 33.9703 42.1918 33.5027 41.6328 32.7416L40.9754 31.8565L40.9732 31.8543C40.6234 31.3826 40.4605 30.8536 40.4581 30.3182C40.4623 29.5084 40.8359 28.7226 41.5593 28.212L50.3874 22.0092C51.1508 21.4566 52.5088 21.069 53.7987 21.0787C54.6947 21.0744 55.5507 21.2546 56.1368 21.544L63.324 25.0254C64.5493 25.6138 65.9322 25.8545 67.3234 25.8578C69.111 25.8491 70.918 25.4605 72.4068 24.5462L79.7486 19.9789C80.2171 19.6865 80.7795 19.5353 81.3658 19.5353C82.3568 19.5332 83.3498 19.9823 83.9122 20.7152L91.4395 30.3465C91.8735 30.8982 92.1249 31.6764 92.1249 32.4829C92.1262 33.3849 91.8076 34.2723 91.2766 34.852Z" fill="#AB86E4"/>
</g>
<defs>
<clipPath id="clip0">
<rect width="95" height="95" fill="white" transform="translate(0.351562 0.126953)"/>
</clipPath>
</defs>
</svg>
