<svg width="95" height="95" viewBox="0 0 95 95" fill="none" xmlns="http://www.w3.org/2000/svg">
<g clip-path="url(#clip0)">
<path d="M95 32.3545C94.9978 30.9122 94.5736 29.4496 93.6357 28.2439L86.1084 18.6125C84.8476 17.0116 82.9293 16.1965 81.0122 16.1934C79.8713 16.1934 78.7095 16.4858 77.6831 17.1259L70.3436 21.6922C69.5717 22.1845 68.2484 22.5224 66.9702 22.5136C65.9771 22.5179 65.0175 22.3192 64.3838 22.0062L57.1965 18.5248C56.0372 17.9666 54.7449 17.7379 53.4453 17.7356C51.5789 17.7443 49.6887 18.203 48.1698 19.2556L47.3312 19.844C46.6608 19.5095 45.6364 18.9998 44.476 18.4223C43.0844 17.7401 41.448 17.4649 39.7952 17.4595C38.3021 17.4638 36.8094 17.6939 35.4986 18.2476L30.6032 20.3364C29.8064 20.6819 28.5392 20.9076 27.2804 20.902C26.0217 20.9074 24.7566 20.6817 23.9599 20.3364L19.0599 18.2464C18.1662 17.8653 17.2108 17.7024 16.2639 17.7013C15.1737 17.7024 14.0899 17.9173 13.0825 18.3253C12.0765 18.7355 11.1427 19.3412 10.399 20.1722L1.47789 30.1632C0.489108 31.2674 -0.00203468 32.6579 6.33494e-06 34.0266C-0.00203468 35.6589 0.696364 37.2963 2.04343 38.444L10.3652 45.5437L6.41752 49.6619C5.32928 50.7977 4.78749 52.2702 4.78749 53.7262C4.78545 55.2753 5.40072 56.8394 6.61939 57.9911L7.42021 58.7521C8.17483 59.4679 9.0816 59.9232 10.0305 60.1661C9.55456 61.0415 9.29442 62.0014 9.29646 62.9631C9.29442 64.5133 9.90969 66.0763 11.1261 67.2293L11.1241 67.2282L11.9273 67.9925C13.0707 69.0763 14.5528 69.616 16.0131 69.6151C16.7979 69.6162 17.5837 69.4585 18.3222 69.1497C18.5814 70.2012 19.1167 71.2008 19.9587 71.9996L20.762 72.7638C21.9053 73.8476 23.385 74.3874 24.8477 74.3864C25.991 74.3875 27.1396 74.0506 28.1284 73.3965C28.4176 74.3271 28.9132 75.209 29.6677 75.9257L30.4709 76.69C31.6118 77.7738 33.094 78.3135 34.5546 78.3126C36.11 78.3137 37.6809 77.7027 38.8411 76.4915L42.3301 72.8481L47.0703 77.2351C48.2049 78.2875 49.6613 78.8112 51.0989 78.808C52.6782 78.8114 54.2715 78.1786 55.4342 76.934L56.1908 76.1233C56.844 75.4218 57.2703 74.5915 57.5177 73.7248L59.3539 75.4196C60.4905 76.4677 61.9448 76.9891 63.3804 76.988C64.9618 76.9891 66.5596 76.3564 67.7233 75.1108L68.4757 74.3011C69.3446 73.3728 69.8337 72.223 69.9848 71.0486C70.4694 71.1728 70.9605 71.257 71.456 71.257C73.0374 71.257 74.6307 70.6254 75.7955 69.3809L76.5502 68.5712C77.6048 67.4408 78.1295 65.9912 78.1273 64.5619C78.1273 64.1183 78.0637 63.6768 77.9653 63.2406C79.2769 63.0668 80.5487 62.4817 81.5158 61.4432L82.2724 60.6326C83.3271 59.5022 83.8496 58.0526 83.8496 56.6222C83.8516 55.0484 83.217 53.4603 81.9648 52.3032L80.5496 50.996L93.3223 36.874C94.469 35.6027 94.998 33.9662 95 32.3545ZM11.5065 57.1612C10.8298 57.1591 10.168 56.9172 9.65086 56.4272L8.84874 55.6662C8.29377 55.1415 8.01971 54.4433 8.01749 53.7263C8.01971 53.0539 8.26037 52.3975 8.75596 51.8803L16.8414 43.443C17.3681 42.8934 18.071 42.6182 18.792 42.6173C19.4667 42.6184 20.1263 42.8613 20.6477 43.3524L21.4464 44.1145C21.4464 44.1145 22.2734 45.3374 22.2755 46.0553C22.2734 46.5928 22.1114 47.1164 21.7973 47.5699C21.7704 47.5968 13.0707 56.6635 13.0707 56.6635C12.6087 56.9905 12.0624 57.1588 11.5065 57.1612ZM17.9639 65.577C17.4383 66.1244 16.7365 66.3984 16.0155 66.4007C15.3388 66.3996 14.679 66.1567 14.1598 65.6667L13.3566 64.9033L13.3546 64.9022C12.804 64.3797 12.5276 63.6793 12.5276 62.9623C12.5276 62.2899 12.7705 61.6334 13.2636 61.1163C13.2636 61.1163 24.0413 49.8972 24.132 49.789C24.6471 49.2936 25.3108 49.0378 25.9962 49.0366C26.6729 49.0378 27.3327 49.2795 27.8519 49.7707L28.6551 50.5349C29.2077 51.0574 29.4821 51.7569 29.4841 52.4748C29.4819 53.1473 29.2392 53.8046 28.7457 54.3218L17.9639 65.577ZM26.7972 70.3471C26.2727 70.8957 25.5711 71.1702 24.8499 71.1722C24.1732 71.1711 23.5134 70.9282 22.9943 70.4371L22.1888 69.6737C21.6363 69.1501 21.3598 68.4508 21.3598 67.7338C21.3598 67.1338 21.5639 66.5517 21.9545 66.0671L29.4602 58.2331C29.9666 57.7765 30.6011 57.5358 31.2587 57.5358C31.9354 57.5369 32.5952 57.7787 33.1144 58.2698L33.9198 59.0341C34.4703 59.5566 34.7468 60.2561 34.7489 60.9729C34.7466 61.6466 34.5017 62.304 34.0104 62.8198L26.7972 70.3471ZM41.0587 69.5203L36.5043 74.2736C35.9796 74.8219 35.2769 75.0963 34.5559 75.0984C33.8792 75.0973 33.2194 74.8544 32.7002 74.3632L31.897 73.5999C31.3465 73.0774 31.07 72.377 31.068 71.66C31.07 70.9863 31.3129 70.3289 31.8065 69.814L36.3588 65.0608C36.8856 64.5126 37.5885 64.2372 38.3095 64.2361C38.9841 64.2372 39.646 64.479 40.1652 64.9712L40.9706 65.7346C41.5211 66.2571 41.7954 66.9566 41.7976 67.6733C41.795 68.3469 41.5521 69.0043 41.0587 69.5203ZM80.6244 56.6264C80.6235 57.2866 80.3869 57.9332 79.9076 58.447L79.153 59.2568C78.6262 59.8203 77.9115 60.1053 77.1797 60.1064C76.5158 60.1053 75.8659 59.872 75.35 59.3952L62.6336 47.635L60.4347 49.9894L74.046 62.599C74.6129 63.1237 74.8977 63.8362 74.9019 64.5638C74.8977 65.2265 74.6633 65.8721 74.1852 66.386L73.4328 67.1957C72.906 67.7592 72.1913 68.0431 71.4595 68.0454C70.7956 68.0433 70.1436 67.809 69.6318 67.3351L56.9121 55.5751L54.7154 57.9295L66.0037 68.3684C66.5477 68.8898 66.8264 69.5839 66.8264 70.2962C66.8264 70.957 66.592 71.6034 66.1139 72.1163L65.3593 72.926C64.8345 73.4895 64.1178 73.7745 63.3839 73.7765C62.7178 73.7745 62.068 73.5401 61.5543 73.0663L50.2886 62.6652H50.2865L50.2845 62.6632L48.0921 65.0219L48.0943 65.0239L48.1364 65.0638L53.7789 70.2714C54.2788 70.7851 54.5378 71.4437 54.5398 72.1248C54.5378 72.7822 54.3055 73.4255 53.8273 73.9385L53.0727 74.7492C52.546 75.3127 51.8335 75.5955 51.1037 75.5977C50.4398 75.5956 49.7898 75.3624 49.2761 74.8865L44.3633 70.3374C44.7908 69.4988 45.0294 68.5886 45.0294 67.6754C45.0315 66.1262 44.4162 64.5643 43.1998 63.4104L42.3943 62.6461C41.2534 61.5633 39.7733 61.0226 38.3128 61.0246C38.1995 61.0246 38.0852 61.0506 37.974 61.0571C37.974 61.0302 37.9803 61.002 37.9803 60.9751C37.9824 59.426 36.1507 56.7079 36.1507 56.7079L35.3474 55.9459C34.4935 55.1361 33.4517 54.6311 32.3681 54.4281C32.5915 53.7955 32.7179 53.137 32.7179 52.4774C32.7179 50.9283 32.1046 49.3651 30.8882 48.2124L30.0849 47.4482C28.9416 46.3644 27.4619 45.8235 26.0012 45.8246C25.8307 45.8246 25.6624 45.8591 25.4928 45.8744C25.4465 44.3868 24.8473 42.9004 23.6815 41.7929V41.7918L22.8805 41.0308C21.7372 39.946 20.2575 39.4051 18.7968 39.4062C17.239 39.4051 15.6706 40.0161 14.5103 41.2273L12.6018 43.219L4.14716 36.0079C3.5395 35.4876 3.23613 34.7686 3.2339 34.0304C3.23594 33.4117 3.44654 32.8061 3.89556 32.3033L12.8165 22.3125C13.1705 21.9153 13.6941 21.5558 14.3073 21.3063C14.9206 21.0569 15.6167 20.92 16.2676 20.9209C16.8345 20.9209 17.3665 21.0235 17.7919 21.207L22.6896 23.2968C24.0703 23.8787 25.6732 24.1173 27.2841 24.1225C28.8969 24.1171 30.4978 23.8785 31.8786 23.2968L36.7741 21.2079C37.5287 20.8788 38.6674 20.6747 39.7998 20.679C41.0521 20.6713 42.3064 20.9306 43.0339 21.3018C43.4959 21.5317 43.9342 21.7499 44.3411 21.9538L39.3484 25.4635C37.7441 26.5916 36.8795 28.3856 36.8817 30.196C36.8797 31.3943 37.2595 32.6141 38.0325 33.6492L38.0304 33.647L38.6899 34.5332C39.9421 36.1979 41.8948 37.0538 43.8466 37.0581C44.9487 37.0581 46.0715 36.7796 47.0721 36.1794L50.058 34.3862C50.6669 34.0138 51.5865 33.7786 52.5374 33.7828C53.6548 33.7763 54.7807 34.1068 55.4576 34.6042L63.7179 40.5263C65.5563 41.8434 68.5507 44.2863 70.21 45.8235L79.7711 54.6635C80.3372 55.1885 80.6222 55.8978 80.6244 56.6264ZM90.925 34.725L78.188 48.8092L72.405 43.4636C70.5937 41.7914 67.6068 39.3529 65.6033 37.9138L57.3451 31.9917C55.945 30.9998 54.2307 30.571 52.5359 30.5647C51.0937 30.569 49.6407 30.8833 48.3864 31.6301L45.4028 33.4232C44.945 33.6984 44.4055 33.8389 43.8449 33.84C42.843 33.8433 41.8403 33.3757 41.2812 32.6146L40.6238 31.7296L40.6216 31.7273C40.2718 31.2557 40.1089 30.7267 40.1065 30.1912C40.1108 29.3815 40.4843 28.5957 41.2077 28.0851L50.0359 21.8822C50.7992 21.3297 52.1572 20.9421 53.4472 20.9517C54.3432 20.9474 55.1991 21.1276 55.7852 21.4171L62.9724 24.8985C64.1977 25.4868 65.5806 25.7275 66.9719 25.7308C68.7594 25.7221 70.5665 25.3336 72.0553 24.4192L79.397 19.852C79.8655 19.5596 80.4279 19.4083 81.0142 19.4083C82.0052 19.4063 82.9983 19.8553 83.5607 20.5882L91.0879 30.2196C91.5219 30.7712 91.7733 31.5494 91.7733 32.356C91.7746 33.2579 91.4561 34.1454 90.925 34.725Z" fill="white"/>
</g>
<defs>
<clipPath id="clip0">
<rect width="95" height="95" fill="white"/>
</clipPath>
</defs>
</svg>
