<svg width="29" height="29" viewBox="0 0 29 29" fill="none" xmlns="http://www.w3.org/2000/svg">
<circle cx="14.4922" cy="14.2422" r="14" fill="url(#paint0_linear)"/>
<path d="M14.4922 7.24268C12.5905 7.24268 12.3531 7.25143 11.6064 7.28468C10.8609 7.31968 10.3534 7.43693 9.90719 7.61018C9.44694 7.78868 9.0561 8.02843 8.66702 8.41751C8.27794 8.80659 8.0376 9.19684 7.85969 9.65768C7.68644 10.1039 7.5686 10.6114 7.53419 11.3569C7.49919 12.1036 7.49219 12.341 7.49219 14.2427C7.49219 16.1443 7.50094 16.3818 7.53419 17.1284C7.56919 17.8733 7.68644 18.3814 7.85969 18.8277C8.03819 19.2873 8.27794 19.6788 8.66702 20.0678C9.0561 20.4563 9.44635 20.6973 9.90719 20.8752C10.354 21.0478 10.8615 21.1663 11.6064 21.2007C12.3531 21.2357 12.5905 21.2427 14.4922 21.2427C16.3939 21.2427 16.6313 21.2339 17.3779 21.2007C18.1229 21.1657 18.6309 21.0478 19.0772 20.8752C19.5369 20.6967 19.9283 20.4563 20.3174 20.0678C20.7059 19.6788 20.9468 19.2891 21.1247 18.8277C21.2974 18.3814 21.4158 17.8733 21.4502 17.1284C21.4852 16.3818 21.4922 16.1443 21.4922 14.2427C21.4922 12.341 21.4834 12.1036 21.4502 11.3569C21.4152 10.612 21.2974 10.1033 21.1247 9.65768C20.9462 9.19743 20.7059 8.80659 20.3174 8.41751C19.9283 8.02843 19.5386 7.78809 19.0772 7.61018C18.6309 7.43693 18.1229 7.31909 17.3779 7.28468C16.6313 7.24968 16.3939 7.24268 14.4922 7.24268ZM14.4922 8.50268C16.3606 8.50268 16.5834 8.51201 17.3214 8.54409C18.0039 8.57618 18.3743 8.68934 18.6204 8.78618C18.9483 8.91276 19.1804 9.06443 19.4266 9.30884C19.671 9.55384 19.8227 9.78659 19.9493 10.1144C20.0449 10.3606 20.1593 10.731 20.1902 11.4135C20.2234 12.152 20.231 12.3737 20.231 14.2427C20.231 16.1117 20.2223 16.3339 20.1879 17.0718C20.1523 17.7543 20.0385 18.1248 19.9423 18.3709C19.8116 18.6988 19.6629 18.9309 19.4179 19.1771C19.1734 19.4215 18.9372 19.5732 18.6129 19.6998C18.3679 19.7954 17.9916 19.9098 17.3091 19.9407C16.5659 19.9739 16.3472 19.9815 14.4747 19.9815C12.6016 19.9815 12.3829 19.9728 11.6403 19.9383C10.9572 19.9028 10.5809 19.789 10.3359 19.6928C10.004 19.5621 9.77594 19.4133 9.53152 19.1683C9.28594 18.9239 9.12902 18.6877 9.00652 18.3633C8.91027 18.1183 8.7971 17.7421 8.76152 17.0596C8.73527 16.3246 8.72594 16.0977 8.72594 14.2339C8.72594 12.3696 8.73527 12.1421 8.76152 11.3983C8.7971 10.7158 8.91027 10.3402 9.00652 10.0952C9.12902 9.76268 9.28594 9.53518 9.53152 9.28959C9.77594 9.04518 10.004 8.88768 10.3359 8.76576C10.5809 8.66893 10.949 8.55518 11.6315 8.52018C12.3753 8.49393 12.594 8.48518 14.4659 8.48518L14.4922 8.50268ZM14.4922 10.6482C12.5059 10.6482 10.8977 12.2582 10.8977 14.2427C10.8977 16.2289 12.5077 17.8372 14.4922 17.8372C16.4784 17.8372 18.0867 16.2272 18.0867 14.2427C18.0867 12.2564 16.4767 10.6482 14.4922 10.6482ZM14.4922 16.576C13.203 16.576 12.1589 15.5318 12.1589 14.2427C12.1589 12.9535 13.203 11.9093 14.4922 11.9093C15.7814 11.9093 16.8255 12.9535 16.8255 14.2427C16.8255 15.5318 15.7814 16.576 14.4922 16.576ZM19.069 10.5064C19.069 10.9702 18.6922 11.3464 18.229 11.3464C17.7653 11.3464 17.389 10.9696 17.389 10.5064C17.389 10.0433 17.7659 9.66701 18.229 9.66701C18.6916 9.66643 19.069 10.0433 19.069 10.5064Z" fill="#424A4E"/>
<path d="M14.4922 7.24268C12.5905 7.24268 12.3531 7.25143 11.6064 7.28468C10.8609 7.31968 10.3534 7.43693 9.90719 7.61018C9.44694 7.78868 9.0561 8.02843 8.66702 8.41751C8.27794 8.80659 8.0376 9.19684 7.85969 9.65768C7.68644 10.1039 7.5686 10.6114 7.53419 11.3569C7.49919 12.1036 7.49219 12.341 7.49219 14.2427C7.49219 16.1443 7.50094 16.3818 7.53419 17.1284C7.56919 17.8733 7.68644 18.3814 7.85969 18.8277C8.03819 19.2873 8.27794 19.6788 8.66702 20.0678C9.0561 20.4563 9.44635 20.6973 9.90719 20.8752C10.354 21.0478 10.8615 21.1663 11.6064 21.2007C12.3531 21.2357 12.5905 21.2427 14.4922 21.2427C16.3939 21.2427 16.6313 21.2339 17.3779 21.2007C18.1229 21.1657 18.6309 21.0478 19.0772 20.8752C19.5369 20.6967 19.9283 20.4563 20.3174 20.0678C20.7059 19.6788 20.9468 19.2891 21.1247 18.8277C21.2974 18.3814 21.4158 17.8733 21.4502 17.1284C21.4852 16.3818 21.4922 16.1443 21.4922 14.2427C21.4922 12.341 21.4834 12.1036 21.4502 11.3569C21.4152 10.612 21.2974 10.1033 21.1247 9.65768C20.9462 9.19743 20.7059 8.80659 20.3174 8.41751C19.9283 8.02843 19.5386 7.78809 19.0772 7.61018C18.6309 7.43693 18.1229 7.31909 17.3779 7.28468C16.6313 7.24968 16.3939 7.24268 14.4922 7.24268ZM14.4922 8.50268C16.3606 8.50268 16.5834 8.51201 17.3214 8.54409C18.0039 8.57618 18.3743 8.68934 18.6204 8.78618C18.9483 8.91276 19.1804 9.06443 19.4266 9.30884C19.671 9.55384 19.8227 9.78659 19.9493 10.1144C20.0449 10.3606 20.1593 10.731 20.1902 11.4135C20.2234 12.152 20.231 12.3737 20.231 14.2427C20.231 16.1117 20.2223 16.3339 20.1879 17.0718C20.1523 17.7543 20.0385 18.1248 19.9423 18.3709C19.8116 18.6988 19.6629 18.9309 19.4179 19.1771C19.1734 19.4215 18.9372 19.5732 18.6129 19.6998C18.3679 19.7954 17.9916 19.9098 17.3091 19.9407C16.5659 19.9739 16.3472 19.9815 14.4747 19.9815C12.6016 19.9815 12.3829 19.9728 11.6403 19.9383C10.9572 19.9028 10.5809 19.789 10.3359 19.6928C10.004 19.5621 9.77594 19.4133 9.53152 19.1683C9.28594 18.9239 9.12902 18.6877 9.00652 18.3633C8.91027 18.1183 8.7971 17.7421 8.76152 17.0596C8.73527 16.3246 8.72594 16.0977 8.72594 14.2339C8.72594 12.3696 8.73527 12.1421 8.76152 11.3983C8.7971 10.7158 8.91027 10.3402 9.00652 10.0952C9.12902 9.76268 9.28594 9.53518 9.53152 9.28959C9.77594 9.04518 10.004 8.88768 10.3359 8.76576C10.5809 8.66893 10.949 8.55518 11.6315 8.52018C12.3753 8.49393 12.594 8.48518 14.4659 8.48518L14.4922 8.50268ZM14.4922 10.6482C12.5059 10.6482 10.8977 12.2582 10.8977 14.2427C10.8977 16.2289 12.5077 17.8372 14.4922 17.8372C16.4784 17.8372 18.0867 16.2272 18.0867 14.2427C18.0867 12.2564 16.4767 10.6482 14.4922 10.6482ZM14.4922 16.576C13.203 16.576 12.1589 15.5318 12.1589 14.2427C12.1589 12.9535 13.203 11.9093 14.4922 11.9093C15.7814 11.9093 16.8255 12.9535 16.8255 14.2427C16.8255 15.5318 15.7814 16.576 14.4922 16.576ZM19.069 10.5064C19.069 10.9702 18.6922 11.3464 18.229 11.3464C17.7653 11.3464 17.389 10.9696 17.389 10.5064C17.389 10.0433 17.7659 9.66701 18.229 9.66701C18.6916 9.66643 19.069 10.0433 19.069 10.5064Z" fill="white"/>
<defs>
<linearGradient id="paint0_linear" x1="0.492188" y1="14.2422" x2="28.4922" y2="14.2422" gradientUnits="userSpaceOnUse">
<stop stop-color="#6288E4"/>
<stop offset="1" stop-color="#AB86E4"/>
</linearGradient>
</defs>
</svg>
