<svg width="26" height="26" viewBox="0 0 26 26" fill="none" xmlns="http://www.w3.org/2000/svg">
<circle cx="12.751" cy="13.3418" r="12.5" fill="url(#paint0_linear)"/>
<path d="M14.0134 16.0618C14.6509 15.9168 15.2599 15.6648 15.8134 15.3168C16.2304 15.0378 16.3424 14.4738 16.0634 14.0568C15.7954 13.6558 15.2614 13.5348 14.8459 13.7803C13.5709 14.5778 11.9509 14.5778 10.6759 13.7803C10.2524 13.5133 9.69341 13.6403 9.42591 14.0628C9.42591 14.0638 9.42591 14.0648 9.42491 14.0653C9.15791 14.4888 9.28491 15.0483 9.70841 15.3153L9.70941 15.3163C10.2619 15.6638 10.8704 15.9163 11.5074 16.0603L9.77491 17.7928C9.42141 18.1403 9.41491 18.7078 9.76091 19.0613L9.77591 19.0763C9.94791 19.2533 10.1809 19.3413 10.4129 19.3413C10.6454 19.3413 10.8779 19.2533 11.0504 19.0763L12.7609 17.3743L14.4629 19.0773C14.8229 19.4248 15.3979 19.4153 15.7459 19.0548C16.0849 18.7033 16.0849 18.1458 15.7459 17.7948L14.0134 16.0618V16.0618ZM12.7609 13.5358C14.4709 13.5338 15.8559 12.1488 15.8584 10.4393C15.8584 8.7318 14.4684 7.3418 12.7609 7.3418C11.0534 7.3418 9.66341 8.7318 9.66341 10.4403C9.66591 12.1503 11.0514 13.5353 12.7609 13.5363V13.5358ZM12.7609 9.1573C13.4689 9.1583 14.0424 9.7323 14.0429 10.4398C14.0429 11.1478 13.4689 11.7213 12.7609 11.7223C12.0534 11.7213 11.4799 11.1483 11.4784 10.4403C11.4794 9.7318 12.0534 9.1583 12.7609 9.1568V9.1573Z" fill="white"/>
<defs>
<linearGradient id="paint0_linear" x1="0.250977" y1="13.3418" x2="25.251" y2="13.3418" gradientUnits="userSpaceOnUse">
<stop stop-color="#6288E4"/>
<stop offset="1" stop-color="#AB86E4"/>
</linearGradient>
</defs>
</svg>
