<svg width="26" height="25" viewBox="0 0 26 25" fill="none" xmlns="http://www.w3.org/2000/svg">
<circle cx="12.751" cy="12.5" r="12.5" fill="url(#paint0_linear)"/>
<path d="M19.2908 12.5397C19.2908 8.92793 16.3629 6 12.7512 6C9.13935 6 6.21143 8.92793 6.21143 12.5397C6.21143 15.8039 8.60291 18.5094 11.7293 19V14.4301H10.0688V12.5397H11.7293V11.0989C11.7293 9.45992 12.7056 8.55458 14.1994 8.55458C14.9149 8.55458 15.6634 8.6823 15.6634 8.6823V10.2917H14.8387C14.0263 10.2917 13.773 10.7958 13.773 11.313V12.5397H15.5867L15.2968 14.4301H13.773V19C16.8994 18.5094 19.2908 15.8039 19.2908 12.5397Z" fill="white"/>
<defs>
<linearGradient id="paint0_linear" x1="0.250977" y1="12.5" x2="25.251" y2="12.5" gradientUnits="userSpaceOnUse">
<stop stop-color="#6288E4"/>
<stop offset="1" stop-color="#AB86E4"/>
</linearGradient>
</defs>
</svg>
