<svg width="20" height="21" viewBox="0 0 20 21" fill="none" xmlns="http://www.w3.org/2000/svg">
<path d="M10 0.787109C7.28333 0.787109 6.94417 0.799609 5.8775 0.847109C4.8125 0.897109 4.0875 1.06461 3.45 1.31211C2.7925 1.56711 2.23417 1.90961 1.67833 2.46544C1.1225 3.02128 0.779167 3.57878 0.525 4.23711C0.2775 4.87461 0.109167 5.59961 0.06 6.66461C0.01 7.73128 0 8.07044 0 10.7871C0 13.5038 0.0125 13.8429 0.06 14.9096C0.11 15.9738 0.2775 16.6996 0.525 17.3371C0.78 17.9938 1.1225 18.5529 1.67833 19.1088C2.23417 19.6638 2.79167 20.0079 3.45 20.2621C4.08833 20.5088 4.81333 20.6779 5.8775 20.7271C6.94417 20.7771 7.28333 20.7871 10 20.7871C12.7167 20.7871 13.0558 20.7746 14.1225 20.7271C15.1867 20.6771 15.9125 20.5088 16.55 20.2621C17.2067 20.0071 17.7658 19.6638 18.3217 19.1088C18.8767 18.5529 19.2208 17.9963 19.475 17.3371C19.7217 16.6996 19.8908 15.9738 19.94 14.9096C19.99 13.8429 20 13.5038 20 10.7871C20 8.07044 19.9875 7.73128 19.94 6.66461C19.89 5.60044 19.7217 4.87378 19.475 4.23711C19.22 3.57961 18.8767 3.02128 18.3217 2.46544C17.7658 1.90961 17.2092 1.56628 16.55 1.31211C15.9125 1.06461 15.1867 0.896276 14.1225 0.847109C13.0558 0.797109 12.7167 0.787109 10 0.787109ZM10 2.58711C12.6692 2.58711 12.9875 2.60044 14.0417 2.64628C15.0167 2.69211 15.5458 2.85378 15.8975 2.99211C16.3658 3.17294 16.6975 3.38961 17.0492 3.73878C17.3983 4.08878 17.615 4.42128 17.7958 4.88961C17.9325 5.24128 18.0958 5.77044 18.14 6.74544C18.1875 7.80044 18.1983 8.11711 18.1983 10.7871C18.1983 13.4571 18.1858 13.7746 18.1367 14.8288C18.0858 15.8038 17.9233 16.3329 17.7858 16.6846C17.5992 17.1529 17.3867 17.4846 17.0367 17.8363C16.6875 18.1854 16.35 18.4021 15.8867 18.5829C15.5367 18.7196 14.9992 18.8829 14.0242 18.9271C12.9625 18.9746 12.65 18.9854 9.975 18.9854C7.29917 18.9854 6.98667 18.9729 5.92583 18.9238C4.95 18.8729 4.4125 18.7104 4.0625 18.5729C3.58833 18.3863 3.2625 18.1738 2.91333 17.8238C2.5625 17.4746 2.33833 17.1371 2.16333 16.6738C2.02583 16.3238 1.86417 15.7863 1.81333 14.8113C1.77583 13.7613 1.7625 13.4371 1.7625 10.7746C1.7625 8.11128 1.77583 7.78628 1.81333 6.72378C1.86417 5.74878 2.02583 5.21211 2.16333 4.86211C2.33833 4.38711 2.5625 4.06211 2.91333 3.71128C3.2625 3.36211 3.58833 3.13711 4.0625 2.96294C4.4125 2.82461 4.93833 2.66211 5.91333 2.61211C6.97583 2.57461 7.28833 2.56211 9.9625 2.56211L10 2.58711ZM10 5.65211C7.1625 5.65211 4.865 7.95211 4.865 10.7871C4.865 13.6246 7.165 15.9221 10 15.9221C12.8375 15.9221 15.135 13.6221 15.135 10.7871C15.135 7.94961 12.835 5.65211 10 5.65211ZM10 14.1204C8.15833 14.1204 6.66667 12.6288 6.66667 10.7871C6.66667 8.94544 8.15833 7.45378 10 7.45378C11.8417 7.45378 13.3333 8.94544 13.3333 10.7871C13.3333 12.6288 11.8417 14.1204 10 14.1204ZM16.5383 5.44961C16.5383 6.11211 16 6.64961 15.3383 6.64961C14.6758 6.64961 14.1383 6.11128 14.1383 5.44961C14.1383 4.78794 14.6767 4.25044 15.3383 4.25044C15.9992 4.24961 16.5383 4.78794 16.5383 5.44961Z" fill="#424A4E"/>
<path d="M10 0.787109C7.28333 0.787109 6.94417 0.799609 5.8775 0.847109C4.8125 0.897109 4.0875 1.06461 3.45 1.31211C2.7925 1.56711 2.23417 1.90961 1.67833 2.46544C1.1225 3.02128 0.779167 3.57878 0.525 4.23711C0.2775 4.87461 0.109167 5.59961 0.06 6.66461C0.01 7.73128 0 8.07044 0 10.7871C0 13.5038 0.0125 13.8429 0.06 14.9096C0.11 15.9738 0.2775 16.6996 0.525 17.3371C0.78 17.9938 1.1225 18.5529 1.67833 19.1088C2.23417 19.6638 2.79167 20.0079 3.45 20.2621C4.08833 20.5088 4.81333 20.6779 5.8775 20.7271C6.94417 20.7771 7.28333 20.7871 10 20.7871C12.7167 20.7871 13.0558 20.7746 14.1225 20.7271C15.1867 20.6771 15.9125 20.5088 16.55 20.2621C17.2067 20.0071 17.7658 19.6638 18.3217 19.1088C18.8767 18.5529 19.2208 17.9963 19.475 17.3371C19.7217 16.6996 19.8908 15.9738 19.94 14.9096C19.99 13.8429 20 13.5038 20 10.7871C20 8.07044 19.9875 7.73128 19.94 6.66461C19.89 5.60044 19.7217 4.87378 19.475 4.23711C19.22 3.57961 18.8767 3.02128 18.3217 2.46544C17.7658 1.90961 17.2092 1.56628 16.55 1.31211C15.9125 1.06461 15.1867 0.896276 14.1225 0.847109C13.0558 0.797109 12.7167 0.787109 10 0.787109ZM10 2.58711C12.6692 2.58711 12.9875 2.60044 14.0417 2.64628C15.0167 2.69211 15.5458 2.85378 15.8975 2.99211C16.3658 3.17294 16.6975 3.38961 17.0492 3.73878C17.3983 4.08878 17.615 4.42128 17.7958 4.88961C17.9325 5.24128 18.0958 5.77044 18.14 6.74544C18.1875 7.80044 18.1983 8.11711 18.1983 10.7871C18.1983 13.4571 18.1858 13.7746 18.1367 14.8288C18.0858 15.8038 17.9233 16.3329 17.7858 16.6846C17.5992 17.1529 17.3867 17.4846 17.0367 17.8363C16.6875 18.1854 16.35 18.4021 15.8867 18.5829C15.5367 18.7196 14.9992 18.8829 14.0242 18.9271C12.9625 18.9746 12.65 18.9854 9.975 18.9854C7.29917 18.9854 6.98667 18.9729 5.92583 18.9238C4.95 18.8729 4.4125 18.7104 4.0625 18.5729C3.58833 18.3863 3.2625 18.1738 2.91333 17.8238C2.5625 17.4746 2.33833 17.1371 2.16333 16.6738C2.02583 16.3238 1.86417 15.7863 1.81333 14.8113C1.77583 13.7613 1.7625 13.4371 1.7625 10.7746C1.7625 8.11128 1.77583 7.78628 1.81333 6.72378C1.86417 5.74878 2.02583 5.21211 2.16333 4.86211C2.33833 4.38711 2.5625 4.06211 2.91333 3.71128C3.2625 3.36211 3.58833 3.13711 4.0625 2.96294C4.4125 2.82461 4.93833 2.66211 5.91333 2.61211C6.97583 2.57461 7.28833 2.56211 9.9625 2.56211L10 2.58711ZM10 5.65211C7.1625 5.65211 4.865 7.95211 4.865 10.7871C4.865 13.6246 7.165 15.9221 10 15.9221C12.8375 15.9221 15.135 13.6221 15.135 10.7871C15.135 7.94961 12.835 5.65211 10 5.65211ZM10 14.1204C8.15833 14.1204 6.66667 12.6288 6.66667 10.7871C6.66667 8.94544 8.15833 7.45378 10 7.45378C11.8417 7.45378 13.3333 8.94544 13.3333 10.7871C13.3333 12.6288 11.8417 14.1204 10 14.1204ZM16.5383 5.44961C16.5383 6.11211 16 6.64961 15.3383 6.64961C14.6758 6.64961 14.1383 6.11128 14.1383 5.44961C14.1383 4.78794 14.6767 4.25044 15.3383 4.25044C15.9992 4.24961 16.5383 4.78794 16.5383 5.44961Z" fill="url(#paint0_linear)"/>
<defs>
<linearGradient id="paint0_linear" x1="0" y1="10.7871" x2="20" y2="10.7871" gradientUnits="userSpaceOnUse">
<stop stop-color="#6288E4"/>
<stop offset="1" stop-color="#AB86E4"/>
</linearGradient>
</defs>
</svg>
