<svg width="18" height="26" viewBox="0 0 18 26" fill="none" xmlns="http://www.w3.org/2000/svg">
<path d="M8.99979 0.614258C4.13595 0.614258 0.202148 4.54806 0.202148 9.41189C0.202148 14.6528 5.75723 21.8794 8.04461 24.6318C8.54734 25.2351 9.4648 25.2351 9.96753 24.6318C12.2423 21.8794 17.7974 14.6528 17.7974 9.41189C17.7974 4.54806 13.8636 0.614258 8.99979 0.614258ZM8.99979 12.5539C8.16647 12.5539 7.36729 12.2229 6.77805 11.6336C6.18881 11.0444 5.85777 10.2452 5.85777 9.41189C5.85777 8.57858 6.18881 7.7794 6.77805 7.19016C7.36729 6.60091 8.16647 6.26988 8.99979 6.26988C9.8331 6.26988 10.6323 6.60091 11.2215 7.19016C11.8108 7.7794 12.1418 8.57858 12.1418 9.41189C12.1418 10.2452 11.8108 11.0444 11.2215 11.6336C10.6323 12.2229 9.8331 12.5539 8.99979 12.5539V12.5539Z" fill="#30353A"/>
</svg>
