<svg width="18" height="25" viewBox="0 0 18 25" fill="none" xmlns="http://www.w3.org/2000/svg">
<path d="M8.79764 0C3.9338 0 0 3.9338 0 8.79764C0 14.0385 5.55508 21.2651 7.84247 24.0175C8.34519 24.6208 9.26266 24.6208 9.76538 24.0175C12.0402 21.2651 17.5953 14.0385 17.5953 8.79764C17.5953 3.9338 13.6615 0 8.79764 0ZM8.79764 11.9396C7.96432 11.9396 7.16514 11.6086 6.5759 11.0194C5.98666 10.4301 5.65562 9.63095 5.65562 8.79764C5.65562 7.96432 5.98666 7.16514 6.5759 6.5759C7.16514 5.98666 7.96432 5.65562 8.79764 5.65562C9.63095 5.65562 10.4301 5.98666 11.0194 6.5759C11.6086 7.16514 11.9397 7.96432 11.9397 8.79764C11.9397 9.63095 11.6086 10.4301 11.0194 11.0194C10.4301 11.6086 9.63095 11.9396 8.79764 11.9396Z" fill="white"/>
</svg>
