<svg width="96" height="95" viewBox="0 0 96 95" fill="none" xmlns="http://www.w3.org/2000/svg">
<path d="M90.3975 12.8508H66.0682C63.4648 5.37771 56.3491 0 48 0C44.9591 0 42.0504 0.693574 39.355 2.06161C37.7506 2.87598 39.0099 5.35729 40.6147 4.54349C42.9162 3.37547 45.4009 2.7832 48 2.7832C57.012 2.7832 64.3439 10.1151 64.3439 19.1271C64.3439 28.1391 57.012 35.471 48 35.471C38.988 35.471 31.6561 28.1391 31.6561 19.1271C31.6561 15.2297 33.0507 11.4555 35.583 8.4999C36.7538 7.13372 34.6401 5.32223 33.4695 6.68896C31.9046 8.5153 30.7152 10.6103 29.9368 12.8506H5.60254C2.78891 12.8506 0.5 15.1395 0.5 17.9531V89.8975C0.5 92.7111 2.78891 95 5.60254 95H90.3975C93.2111 95 95.5 92.7111 95.5 89.8975V29.6875V17.9533C95.5 15.1397 93.2111 12.8508 90.3975 12.8508ZM90.3975 15.634C91.6764 15.634 92.7168 16.6744 92.7168 17.9533V28.2959H64.782C66.8874 24.4579 67.604 19.9379 66.8063 15.634H90.3975ZM5.60254 15.634H29.1969C28.3968 19.9392 29.1117 24.4562 31.2178 28.2959H3.2832V17.9533C3.2832 16.6744 4.32356 15.634 5.60254 15.634ZM90.3975 92.2168H5.60254C4.32356 92.2168 3.2832 91.1764 3.2832 89.8975V31.0791H33.0789C36.5872 35.4502 41.972 38.2542 48 38.2542C54.039 38.2542 59.4325 35.4402 62.9404 31.0554C63.0217 31.0702 92.7168 31.0791 92.7168 31.0791V89.8975C92.7168 91.1764 91.6764 92.2168 90.3975 92.2168Z" fill="#7DBC91"/>
<path d="M77.533 67.2227H18.4675C8.17331 67.2227 8.15568 83.2161 18.4675 83.2161H77.5328C87.8271 83.2161 87.8447 67.2227 77.533 67.2227ZM77.533 80.4329H18.4675C11.759 80.4329 11.7128 70.0059 18.4675 70.0059H77.5328C84.2414 70.0059 84.2874 80.4329 77.533 80.4329Z" fill="#7DBC91"/>
<path d="M22.9791 73.8281C21.1882 73.8281 21.1852 76.6113 22.9791 76.6113C24.7698 76.6113 24.7727 73.8281 22.9791 73.8281Z" fill="#7DBC91"/>
<path d="M30.1285 73.8281C28.3376 73.8281 28.3346 76.6113 30.1285 76.6113C31.9194 76.6113 31.9223 73.8281 30.1285 73.8281Z" fill="#7DBC91"/>
<path d="M37.2769 73.8281C35.486 73.8281 35.483 76.6113 37.2769 76.6113C39.0678 76.6113 39.0708 73.8281 37.2769 73.8281Z" fill="#7DBC91"/>
<path d="M44.4253 73.8281C42.6344 73.8281 42.6315 76.6113 44.4253 76.6113C46.2162 76.6113 46.2192 73.8281 44.4253 73.8281Z" fill="#7DBC91"/>
<path d="M51.5748 73.8281C49.7839 73.8281 49.7809 76.6113 51.5748 76.6113C53.3657 76.6113 53.3686 73.8281 51.5748 73.8281Z" fill="#7DBC91"/>
<path d="M58.7232 73.8281C56.9323 73.8281 56.9293 76.6113 58.7232 76.6113C60.5139 76.6113 60.5169 73.8281 58.7232 73.8281Z" fill="#7DBC91"/>
<path d="M65.8716 73.8281C64.0807 73.8281 64.0778 76.6113 65.8716 76.6113C67.6625 76.6113 67.6655 73.8281 65.8716 73.8281Z" fill="#7DBC91"/>
<path d="M73.0211 73.8281C71.2301 73.8281 71.2272 76.6113 73.0211 76.6113C74.812 76.6113 74.8149 73.8281 73.0211 73.8281Z" fill="#7DBC91"/>
<path d="M77.533 46.2227H18.4675C8.17331 46.2227 8.15568 62.2161 18.4675 62.2161H65.3112C67.1104 62.2161 67.1104 59.4329 65.3112 59.4329H18.4675C11.759 59.4329 11.7128 49.0059 18.4675 49.0059H77.5328C84.2412 49.0059 84.2874 59.4329 77.5328 59.4329H72.733C70.9338 59.4329 70.9338 62.2161 72.733 62.2161H77.5328C87.8271 62.2161 87.8447 46.2227 77.533 46.2227V46.2227Z" fill="#7DBC91"/>
<path d="M47.9999 7.8125C45.2711 7.8125 43.0512 10.0324 43.0512 12.7612V16.0435C41.4208 16.2148 40.1455 17.5973 40.1455 19.2722V26.4538C40.1455 28.2442 41.6022 29.7009 43.3926 29.7009H52.6072C54.3975 29.7009 55.8543 28.2442 55.8543 26.4538V19.2722C55.8543 17.5971 54.5792 16.2148 52.9486 16.0435V12.7612C52.9486 10.0324 50.7287 7.8125 47.9999 7.8125ZM45.8344 12.761C45.8344 10.0521 50.1656 9.92811 50.1656 12.761V16.025H45.8344V12.761ZM53.0711 26.4538C53.0711 26.7095 52.8629 26.9177 52.6072 26.9177H43.3926C43.1369 26.9177 42.9287 26.7095 42.9287 26.4538V19.2722C42.9287 19.0166 43.1369 18.8084 43.3926 18.8084H52.6072C52.8629 18.8084 53.0711 19.0166 53.0711 19.2722V26.4538Z" fill="#7DBC91"/>
<path d="M74.4129 54.2197C74.4129 53.4512 73.7898 52.8281 73.0213 52.8281H22.9793C21.1801 52.8281 21.1801 55.6113 22.9793 55.6113H73.0213C73.7898 55.6113 74.4129 54.9883 74.4129 54.2197Z" fill="#7DBC91"/>
<path d="M48.0005 21.4707C46.2096 21.4707 46.2067 24.2539 48.0005 24.2539C49.7914 24.2539 49.7944 21.4707 48.0005 21.4707V21.4707Z" fill="#7DBC91"/>
</svg>
