<svg width="12" height="12" viewBox="0 0 12 12" fill="none" xmlns="http://www.w3.org/2000/svg">
<g clip-path="url(#clip0)">
<path d="M1.75947 4.4414C1.90178 4.54182 2.33075 4.84007 3.04642 5.33601C3.76211 5.83194 4.31038 6.2138 4.69124 6.4816C4.73309 6.51095 4.82199 6.57476 4.95799 6.67312C5.09401 6.77154 5.20703 6.85108 5.29697 6.91174C5.38697 6.97239 5.49577 7.04042 5.62348 7.11573C5.75114 7.19098 5.87149 7.24758 5.98449 7.28504C6.09751 7.32282 6.20213 7.34153 6.29838 7.34153H6.30469H6.31102C6.40727 7.34153 6.51193 7.3228 6.62495 7.28504C6.73791 7.24758 6.85836 7.19091 6.98592 7.11573C7.11354 7.04033 7.22234 6.97237 7.31234 6.91174C7.40234 6.85108 7.51528 6.77154 7.65134 6.67312C7.78732 6.57468 7.87633 6.51095 7.91818 6.4816C8.30315 6.2138 9.2826 5.53367 10.8562 4.44127C11.1617 4.22791 11.417 3.97046 11.622 3.66911C11.8272 3.36789 11.9297 3.05189 11.9297 2.72129C11.9297 2.44502 11.8302 2.20853 11.6314 2.01184C11.4326 1.81511 11.1972 1.7168 10.9252 1.7168H1.68411C1.36187 1.7168 1.11388 1.8256 0.940188 2.0432C0.766521 2.26084 0.679688 2.53289 0.679688 2.85931C0.679688 3.12298 0.79482 3.4087 1.02498 3.7163C1.25511 4.02392 1.50002 4.26564 1.75947 4.4414Z" fill="white"/>
<path d="M11.3018 5.11452C9.92918 6.04356 8.88692 6.76558 8.17552 7.28043C7.93696 7.45614 7.74344 7.5933 7.59482 7.69159C7.4462 7.78995 7.24854 7.89039 7.00157 7.99288C6.75468 8.09553 6.52459 8.14669 6.3111 8.14669H6.3047H6.29839C6.08495 8.14669 5.85472 8.09553 5.60784 7.99288C5.36095 7.89039 5.16316 7.78995 5.01458 7.69159C4.86605 7.5933 4.67246 7.45614 4.43393 7.28043C3.86888 6.86611 2.82886 6.14405 1.31382 5.11452C1.0752 4.95558 0.863843 4.7734 0.679688 4.56836V9.55287C0.679688 9.82927 0.777999 10.0656 0.974732 10.2623C1.17142 10.4591 1.40793 10.5575 1.68417 10.5575H10.9253C11.2014 10.5575 11.4379 10.4591 11.6346 10.2623C11.8314 10.0656 11.9297 9.82929 11.9297 9.55287V4.56836C11.7497 4.76916 11.5405 4.95134 11.3018 5.11452Z" fill="white"/>
</g>
<defs>
<clipPath id="clip0">
<rect x="0.679688" y="0.511719" width="11.25" height="11.25" fill="white"/>
</clipPath>
</defs>
</svg>
