<svg width="24" height="24" viewBox="0 0 24 24" fill="none" xmlns="http://www.w3.org/2000/svg">
<g clip-path="url(#clip0)">
<path d="M2.90956 8.6096C3.19418 8.81045 4.05213 9.40696 5.48347 10.3988C6.91484 11.3907 8.01138 12.1544 8.77311 12.69C8.8568 12.7487 9.0346 12.8763 9.3066 13.073C9.57865 13.2699 9.80469 13.429 9.98456 13.5503C10.1646 13.6716 10.3822 13.8076 10.6376 13.9583C10.8929 14.1088 11.1336 14.222 11.3596 14.2969C11.5856 14.3724 11.7949 14.4099 11.9874 14.4099H12H12.0127C12.2052 14.4099 12.4145 14.3724 12.6405 14.2969C12.8664 14.222 13.1074 14.1086 13.3625 13.9583C13.6177 13.8075 13.8353 13.6715 14.0153 13.5503C14.1953 13.429 14.4212 13.2699 14.6933 13.073C14.9653 12.8762 15.1433 12.7487 15.227 12.69C15.9969 12.1544 17.9558 10.7941 21.103 8.60934C21.714 8.18262 22.2245 7.66774 22.6346 7.06503C23.045 6.46258 23.25 5.83058 23.25 5.16938C23.25 4.61685 23.0511 4.14387 22.6534 3.75049C22.2558 3.35702 21.7849 3.1604 21.241 3.1604H2.75885C2.11436 3.1604 1.61838 3.378 1.271 3.8132C0.923667 4.24849 0.75 4.79258 0.75 5.44542C0.75 5.97276 0.980266 6.5442 1.44058 7.1594C1.90085 7.77465 2.39067 8.25809 2.90956 8.6096Z" fill="white"/>
<path d="M21.9942 9.95291C19.249 11.811 17.1645 13.255 15.7417 14.2847C15.2646 14.6362 14.8775 14.9105 14.5803 15.1071C14.283 15.3038 13.8877 15.5047 13.3938 15.7096C12.9 15.9149 12.4398 16.0173 12.0128 16.0173H12H11.9874C11.5605 16.0173 11.1001 15.9149 10.6063 15.7096C10.1125 15.5047 9.71694 15.3038 9.41979 15.1071C9.12272 14.9105 8.73554 14.6362 8.25848 14.2847C7.12839 13.4561 5.04835 12.012 2.01826 9.95291C1.54102 9.63504 1.11831 9.27069 0.75 8.8606V18.8296C0.75 19.3824 0.946623 19.8551 1.34009 20.2486C1.73347 20.6421 2.20649 20.8388 2.75897 20.8388H21.2412C21.7935 20.8388 22.2665 20.6421 22.6599 20.2486C23.0535 19.855 23.25 19.3825 23.25 18.8296V8.8606C22.89 9.2622 22.4716 9.62655 21.9942 9.95291Z" fill="white"/>
</g>
<defs>
<clipPath id="clip0">
<rect width="22.5" height="22.5" fill="white" transform="translate(0.75 0.75)"/>
</clipPath>
</defs>
</svg>
