<svg width="85" height="98" viewBox="0 0 85 98" fill="none" xmlns="http://www.w3.org/2000/svg">
<path d="M33.125 38.0625C33.9879 38.0625 34.6875 37.3629 34.6875 36.5C34.6875 35.6371 33.9879 34.9375 33.125 34.9375C32.2621 34.9375 31.5625 35.6371 31.5625 36.5C31.5625 37.3629 32.2621 38.0625 33.125 38.0625Z" fill="#AB86E4"/>
<path d="M51.875 38.0625C52.7379 38.0625 53.4375 37.3629 53.4375 36.5C53.4375 35.6371 52.7379 34.9375 51.875 34.9375C51.0121 34.9375 50.3125 35.6371 50.3125 36.5C50.3125 37.3629 51.0121 38.0625 51.875 38.0625Z" fill="#AB86E4"/>
<path d="M42.5 52.125C40.7766 52.125 39.375 50.7234 39.375 49H36.25C36.25 52.4469 39.0531 55.25 42.5 55.25C45.9469 55.25 48.75 52.4469 48.75 49H45.625C45.625 50.7234 44.2234 52.125 42.5 52.125Z" fill="#AB86E4"/>
<path d="M71.8672 74.1562C75.925 70.9328 78.125 67.15 78.2313 66.9625L79.05 65.5281L77.5734 64.7891C72.3234 62.1656 69.0625 56.8922 69.0625 51.0297L69.0641 25.3297C69.0641 18.7125 66.4859 12.4922 61.8016 7.81563C57.1156 3.1375 50.8828 0.5625 44.2484 0.5625H43.8422C37.5203 0.5625 31.575 3.02656 27.1047 7.49844L24.4281 10.175C19.2594 12.3812 15.9375 17.3953 15.9375 23.0391V51.0187C15.9375 56.8891 12.6766 62.1656 7.42656 64.7891L5.95 65.5281L6.76875 66.9625C6.875 67.1484 9.07344 70.9312 13.1328 74.1562C5.26563 78.4922 0.3125 86.725 0.3125 95.875V97.4375H84.6875V95.875C84.6875 86.725 79.7344 78.4906 71.8672 74.1562V74.1562ZM43.8406 3.6875H44.2469C50.0469 3.6875 55.4969 5.93906 59.5922 10.0266C63.6844 14.1125 65.9391 19.5469 65.9391 25.3281L65.9375 51.0297C65.9375 57.4937 69.2312 63.3625 74.6422 66.7281C73.5656 68.2203 71.5125 70.6938 68.6469 72.6406L53.2234 66.3297C51.4547 65.6062 50.3125 63.9031 50.3125 61.9906V60.8688C58.0016 55.5547 62.8125 46.7453 62.8125 37.0469V27.2719L44.9063 25.4812C36.8734 24.6797 30 19.3828 27.1281 11.8937L29.3141 9.70781C33.1938 5.825 38.3531 3.6875 43.8406 3.6875V3.6875ZM55 70.875C55 73.4594 52.5469 75.5625 49.5312 75.5625C47.7234 75.5625 46.1 74.8016 45.0969 73.6C47.6641 72.8609 49.7812 71.0672 50.9312 68.6563C51.2828 68.8703 51.6531 69.0625 52.0422 69.2219L54.9328 70.4047C54.9516 70.5625 55 70.7156 55 70.875ZM30.0672 70.4047L32.9578 69.2219C33.3484 69.0625 33.7172 68.8703 34.0688 68.6563C35.2188 71.0672 37.3359 72.8609 39.9031 73.6C38.9 74.8016 37.2766 75.5625 35.4688 75.5625C32.4531 75.5625 30 73.4594 30 70.875C30 70.7156 30.0484 70.5625 30.0672 70.4047ZM42.5 61.4094C32.1969 57.7453 25.3125 48.0219 25.3125 37.0484V33.8344C25.3125 31.1484 26.6656 28.6844 28.9312 27.2438L33.2797 24.4766C36.5875 26.7266 40.4578 28.1797 44.5938 28.5922L59.6875 30.1016V37.0484C59.6875 48.0234 52.8031 57.7469 42.5 61.4094V61.4094ZM42.0063 64.5453L42.5 64.7094L42.9938 64.5453C44.4734 64.0516 45.8922 63.4484 47.2422 62.7453C47.3672 64.0453 47.7922 65.2703 48.4906 66.3219C47.7422 68.9875 45.3281 70.875 42.5 70.875C39.6703 70.875 37.2563 68.9875 36.5078 66.3219C37.2078 65.2703 37.6328 64.0453 37.7563 62.7453C39.1063 63.4469 40.5266 64.0516 42.0063 64.5453V64.5453ZM42.5 75.3516C42.9312 75.9094 43.4437 76.4047 44.0125 76.8391L46.9078 94.3125H38.0922L40.9875 76.8391C41.5562 76.4047 42.0688 75.9109 42.5 75.3516ZM10.3578 66.7281C15.7687 63.3609 19.0625 57.4891 19.0625 51.0187V23.0391C19.0625 19.1109 21.1359 15.5781 24.4562 13.6531C25.8719 17.0516 28.0109 20.0359 30.6734 22.4297L27.2547 24.6047C24.0813 26.625 22.1875 30.075 22.1875 33.8344V37.0484C22.1875 46.7453 26.9984 55.5563 34.6875 60.8703V61.9922C34.6875 63.9047 33.5453 65.6062 31.775 66.3297L16.3516 72.6391C13.4875 70.6922 11.4344 68.2203 10.3578 66.7281V66.7281ZM16.9281 75.7797L26.9234 71.6906C27.3734 75.6172 31.0328 78.6875 35.4688 78.6875C36.1891 78.6875 36.8828 78.5813 37.5578 78.4266L34.925 94.3125H19.0625V84.9375H15.9375V94.3125H3.49219C4.075 86.1016 9.21875 78.9344 16.9281 75.7797V75.7797ZM69.0625 94.3125V84.9375H65.9375V94.3125H50.075L47.4422 78.4266C48.1172 78.5813 48.8109 78.6875 49.5312 78.6875C53.9672 78.6875 57.6266 75.6172 58.0766 71.6922L68.0719 75.7812C75.7813 78.9344 80.925 86.1016 81.5078 94.3125H69.0625Z" fill="#AB86E4"/>
<path d="M59.4496 24.2576L62.5324 23.742C62.3402 22.5936 62.0449 21.4529 61.6559 20.3545L58.709 21.3967C59.0371 22.3248 59.2871 23.2873 59.4496 24.2576V24.2576Z" fill="#AB86E4"/>
<path d="M57.3891 18.5312L60.0938 16.9688C56.4703 10.7031 49.7297 6.8125 42.5 6.8125V9.9375C48.6172 9.9375 54.3219 13.2313 57.3891 18.5312V18.5312Z" fill="#AB86E4"/>
</svg>
