<svg width="85" height="98" viewBox="0 0 85 98" fill="none" xmlns="http://www.w3.org/2000/svg">
<path d="M33.4375 38.0625C34.3004 38.0625 35 37.3629 35 36.5C35 35.6371 34.3004 34.9375 33.4375 34.9375C32.5746 34.9375 31.875 35.6371 31.875 36.5C31.875 37.3629 32.5746 38.0625 33.4375 38.0625Z" fill="white"/>
<path d="M52.1875 38.0625C53.0504 38.0625 53.75 37.3629 53.75 36.5C53.75 35.6371 53.0504 34.9375 52.1875 34.9375C51.3246 34.9375 50.625 35.6371 50.625 36.5C50.625 37.3629 51.3246 38.0625 52.1875 38.0625Z" fill="white"/>
<path d="M42.8125 52.125C41.0891 52.125 39.6875 50.7234 39.6875 49H36.5625C36.5625 52.4469 39.3656 55.25 42.8125 55.25C46.2594 55.25 49.0625 52.4469 49.0625 49H45.9375C45.9375 50.7234 44.5359 52.125 42.8125 52.125Z" fill="white"/>
<path d="M72.1797 74.1562C76.2375 70.9328 78.4375 67.15 78.5438 66.9625L79.3625 65.5281L77.8859 64.7891C72.6359 62.1656 69.375 56.8922 69.375 51.0297L69.3766 25.3297C69.3766 18.7125 66.7984 12.4922 62.1141 7.81563C57.4281 3.1375 51.1953 0.5625 44.5609 0.5625H44.1547C37.8328 0.5625 31.8875 3.02656 27.4172 7.49844L24.7406 10.175C19.5719 12.3812 16.25 17.3953 16.25 23.0391V51.0187C16.25 56.8891 12.9891 62.1656 7.73906 64.7891L6.2625 65.5281L7.08125 66.9625C7.1875 67.1484 9.38594 70.9312 13.4453 74.1562C5.57813 78.4922 0.625 86.725 0.625 95.875V97.4375H85V95.875C85 86.725 80.0469 78.4906 72.1797 74.1562V74.1562ZM44.1531 3.6875H44.5594C50.3594 3.6875 55.8094 5.93906 59.9047 10.0266C63.9969 14.1125 66.2516 19.5469 66.2516 25.3281L66.25 51.0297C66.25 57.4937 69.5437 63.3625 74.9547 66.7281C73.8781 68.2203 71.825 70.6938 68.9594 72.6406L53.5359 66.3297C51.7672 65.6062 50.625 63.9031 50.625 61.9906V60.8688C58.3141 55.5547 63.125 46.7453 63.125 37.0469V27.2719L45.2188 25.4812C37.1859 24.6797 30.3125 19.3828 27.4406 11.8937L29.6266 9.70781C33.5063 5.825 38.6656 3.6875 44.1531 3.6875V3.6875ZM55.3125 70.875C55.3125 73.4594 52.8594 75.5625 49.8438 75.5625C48.0359 75.5625 46.4125 74.8016 45.4094 73.6C47.9766 72.8609 50.0937 71.0672 51.2437 68.6563C51.5953 68.8703 51.9656 69.0625 52.3547 69.2219L55.2453 70.4047C55.2641 70.5625 55.3125 70.7156 55.3125 70.875ZM30.3797 70.4047L33.2703 69.2219C33.6609 69.0625 34.0297 68.8703 34.3813 68.6563C35.5313 71.0672 37.6484 72.8609 40.2156 73.6C39.2125 74.8016 37.5891 75.5625 35.7812 75.5625C32.7656 75.5625 30.3125 73.4594 30.3125 70.875C30.3125 70.7156 30.3609 70.5625 30.3797 70.4047ZM42.8125 61.4094C32.5094 57.7453 25.625 48.0219 25.625 37.0484V33.8344C25.625 31.1484 26.9781 28.6844 29.2437 27.2438L33.5922 24.4766C36.9 26.7266 40.7703 28.1797 44.9063 28.5922L60 30.1016V37.0484C60 48.0234 53.1156 57.7469 42.8125 61.4094V61.4094ZM42.3188 64.5453L42.8125 64.7094L43.3063 64.5453C44.7859 64.0516 46.2047 63.4484 47.5547 62.7453C47.6797 64.0453 48.1047 65.2703 48.8031 66.3219C48.0547 68.9875 45.6406 70.875 42.8125 70.875C39.9828 70.875 37.5688 68.9875 36.8203 66.3219C37.5203 65.2703 37.9453 64.0453 38.0688 62.7453C39.4188 63.4469 40.8391 64.0516 42.3188 64.5453V64.5453ZM42.8125 75.3516C43.2437 75.9094 43.7562 76.4047 44.325 76.8391L47.2203 94.3125H38.4047L41.3 76.8391C41.8687 76.4047 42.3813 75.9109 42.8125 75.3516ZM10.6703 66.7281C16.0812 63.3609 19.375 57.4891 19.375 51.0187V23.0391C19.375 19.1109 21.4484 15.5781 24.7687 13.6531C26.1844 17.0516 28.3234 20.0359 30.9859 22.4297L27.5672 24.6047C24.3938 26.625 22.5 30.075 22.5 33.8344V37.0484C22.5 46.7453 27.3109 55.5563 35 60.8703V61.9922C35 63.9047 33.8578 65.6062 32.0875 66.3297L16.6641 72.6391C13.8 70.6922 11.7469 68.2203 10.6703 66.7281V66.7281ZM17.2406 75.7797L27.2359 71.6906C27.6859 75.6172 31.3453 78.6875 35.7812 78.6875C36.5016 78.6875 37.1953 78.5813 37.8703 78.4266L35.2375 94.3125H19.375V84.9375H16.25V94.3125H3.80469C4.3875 86.1016 9.53125 78.9344 17.2406 75.7797V75.7797ZM69.375 94.3125V84.9375H66.25V94.3125H50.3875L47.7547 78.4266C48.4297 78.5813 49.1234 78.6875 49.8438 78.6875C54.2797 78.6875 57.9391 75.6172 58.3891 71.6922L68.3844 75.7812C76.0938 78.9344 81.2375 86.1016 81.8203 94.3125H69.375Z" fill="white"/>
<path d="M59.7621 24.2576L62.8449 23.742C62.6527 22.5936 62.3574 21.4529 61.9684 20.3545L59.0215 21.3967C59.3496 22.3248 59.5996 23.2873 59.7621 24.2576V24.2576Z" fill="white"/>
<path d="M57.7016 18.5312L60.4063 16.9688C56.7828 10.7031 50.0422 6.8125 42.8125 6.8125V9.9375C48.9297 9.9375 54.6344 13.2313 57.7016 18.5312V18.5312Z" fill="white"/>
</svg>
