<svg width="50" height="67" viewBox="0 0 50 67" fill="none" xmlns="http://www.w3.org/2000/svg">
<path d="M22.4433 65.0201C3.80712 38.0032 0.3479 35.2304 0.3479 25.3013C0.3479 11.7006 11.3734 0.675049 24.9741 0.675049C38.5749 0.675049 49.6004 11.7006 49.6004 25.3013C49.6004 35.2304 46.1412 38.0032 27.505 65.0201C26.282 66.7868 23.6661 66.7866 22.4433 65.0201ZM24.9741 35.5622C30.6411 35.5622 35.2351 30.9683 35.2351 25.3013C35.2351 19.6343 30.6411 15.0404 24.9741 15.0404C19.3072 15.0404 14.7132 19.6343 14.7132 25.3013C14.7132 30.9683 19.3072 35.5622 24.9741 35.5622Z" fill="url(#paint0_linear)"/>
<defs>
<linearGradient id="paint0_linear" x1="0.3479" y1="33.51" x2="49.6004" y2="33.51" gradientUnits="userSpaceOnUse">
<stop stop-color="#6288E4"/>
<stop offset="1" stop-color="#AB86E4"/>
</linearGradient>
</defs>
</svg>
