<svg width="96" height="96" viewBox="0 0 96 96" fill="none" xmlns="http://www.w3.org/2000/svg">
<g clip-path="url(#clip0)">
<path d="M51.7732 43.9394C55.75 43.9394 58.9853 40.5885 58.9853 36.4697C58.9853 32.3509 55.75 29 51.7732 29C51.7577 29 51.7422 29.0003 51.7269 29.0009H45.8355C45.8349 29.0009 45.8344 29.0008 45.8339 29.0008C45.131 29.0008 44.5612 29.591 44.5612 30.319V30.3191V42.6212V46.5758H43.2884C42.5855 46.5758 42.0156 47.166 42.0156 47.8939C42.0156 48.6219 42.5855 49.2121 43.2884 49.2121H44.5611V56.6818C44.5611 57.4098 45.1309 58 45.8338 58C46.5367 58 47.1065 57.4098 47.1065 56.6818V49.2121H51.7732C52.4761 49.2121 53.0459 48.6219 53.0459 47.8939C53.0459 47.166 52.4761 46.5758 51.7732 46.5758H47.1065V43.9394H51.7732ZM51.7732 31.6372C51.7869 31.6372 51.8007 31.637 51.8143 31.6365C54.3687 31.6594 56.4399 33.8187 56.4399 36.4697C56.4399 39.1348 54.3464 41.303 51.7732 41.303H47.1065V31.6372H51.7732Z" fill="#AB86E4"/>
<path d="M26.9639 43.9022C26.9639 56.382 37.0805 66.4987 49.5604 66.4987C62.0402 66.4987 72.1569 56.382 72.1569 43.9022C72.1569 31.4223 62.0402 21.3057 49.5604 21.3057C37.0866 21.3194 26.9783 31.4284 26.9639 43.9022ZM49.5604 24.4222C60.3191 24.4222 69.0403 33.1434 69.0403 43.9022C69.0403 54.6609 60.3191 63.3821 49.5604 63.3821C38.8016 63.3821 30.0804 54.6609 30.0804 43.9022C30.0926 33.1487 38.8069 24.4344 49.5604 24.4222Z" fill="#AB86E4"/>
<path d="M79.8385 70.3404L67.6318 76.1079C65.9464 72.9731 62.7135 70.978 59.1556 70.8776L47.8871 70.5679C46.1028 70.5169 44.352 70.065 42.7656 69.2455L41.619 68.6513C35.748 65.591 28.7503 65.5986 22.8854 68.6711L22.957 66.0734C22.9805 65.2129 22.3026 64.4961 21.442 64.4725L9.08542 64.1324C8.22487 64.1088 7.50889 64.7868 7.4853 65.6473L6.73888 92.7634C6.71529 93.624 7.39323 94.3407 8.25378 94.3643L20.6104 94.7044H20.653C21.4976 94.7044 22.1885 94.0326 22.2113 93.1888L22.2471 91.8915L25.4572 90.1727C26.7172 89.4947 28.1903 89.3334 29.5667 89.723L48.7362 95.1031C48.7697 95.113 48.8032 95.1206 48.8374 95.1282C50.2229 95.4181 51.6351 95.5635 53.0504 95.5627C56.0482 95.5642 59.0111 94.9182 61.7358 93.6674C61.8027 93.6369 61.8674 93.6012 61.929 93.5608L89.7231 75.5829C90.4155 75.1347 90.6392 74.2255 90.2336 73.5072C88.1701 69.8459 83.5934 68.4512 79.8385 70.3404V70.3404ZM9.89728 91.2919L10.5577 67.2908L19.7986 67.545L19.1381 91.5468L9.89728 91.2919ZM60.3319 90.8841C56.9468 92.4119 53.166 92.8334 49.5275 92.0901L30.4097 86.7236C28.258 86.1157 25.9548 86.3675 23.9864 87.4259L22.346 88.3047L22.785 72.3469C27.9833 68.8894 34.6501 68.5341 40.1862 71.4186L41.3329 72.0128C43.337 73.0476 45.5474 73.6183 47.8018 73.6837L59.0712 73.9934C62.2364 74.0847 64.9246 76.3384 65.5668 79.4397L48.7811 78.9764C47.9205 78.9528 47.2045 79.6315 47.1802 80.4913C47.1566 81.3518 47.8353 82.0686 48.6951 82.0922L67.2194 82.6019H67.2628C68.1066 82.6012 68.7967 81.9293 68.8195 81.0863C68.8385 80.4091 68.7883 79.7312 68.6689 79.0646L81.1891 73.1488C81.2012 73.1435 81.2134 73.1374 81.2256 73.1313C83.0015 72.2327 85.1487 72.5333 86.6096 73.8853L60.3319 90.8841Z" fill="#AB86E4"/>
<path d="M51.1185 16.9244V2.12077C51.1185 1.26022 50.4208 0.5625 49.5602 0.5625C48.6997 0.5625 48.002 1.26022 48.002 2.12077V16.9244C48.002 17.7849 48.6997 18.4827 49.5602 18.4827C50.4208 18.4827 51.1185 17.7849 51.1185 16.9244Z" fill="#AB86E4"/>
<path d="M62.805 16.924V9.91179C62.805 9.05124 62.1073 8.35352 61.2467 8.35352C60.3862 8.35352 59.6885 9.05124 59.6885 9.91179V16.924C59.6885 17.7846 60.3862 18.4823 61.2467 18.4823C62.1073 18.4823 62.805 17.7846 62.805 16.924Z" fill="#AB86E4"/>
<path d="M39.431 16.924V9.91179C39.431 9.05124 38.7333 8.35352 37.8727 8.35352C37.0122 8.35352 36.3145 9.05124 36.3145 9.91179V16.924C36.3145 17.7846 37.0122 18.4823 37.8727 18.4823C38.7333 18.4823 39.431 17.7846 39.431 16.924Z" fill="#AB86E4"/>
</g>
<defs>
<clipPath id="clip0">
<rect width="95" height="95" fill="white" transform="translate(0.949219 0.5625)"/>
</clipPath>
</defs>
</svg>
