<svg width="96" height="96" viewBox="0 0 96 96" fill="none" xmlns="http://www.w3.org/2000/svg">
<g clip-path="url(#clip0)">
<path d="M51.2732 43.9394C55.25 43.9394 58.4853 40.5885 58.4853 36.4697C58.4853 32.3509 55.25 29 51.2732 29C51.2577 29 51.2422 29.0003 51.2269 29.0009H45.3355C45.3349 29.0009 45.3344 29.0008 45.3339 29.0008C44.631 29.0008 44.0612 29.591 44.0612 30.319V30.3191V42.6212V46.5758H42.7884C42.0855 46.5758 41.5156 47.166 41.5156 47.8939C41.5156 48.6219 42.0855 49.2121 42.7884 49.2121H44.0611V56.6818C44.0611 57.4098 44.6309 58 45.3338 58C46.0367 58 46.6065 57.4098 46.6065 56.6818V49.2121H51.2732C51.9761 49.2121 52.5459 48.6219 52.5459 47.8939C52.5459 47.166 51.9761 46.5758 51.2732 46.5758H46.6065V43.9394H51.2732ZM51.2732 31.6372C51.2869 31.6372 51.3007 31.637 51.3143 31.6365C53.8687 31.6594 55.9399 33.8187 55.9399 36.4697C55.9399 39.1348 53.8464 41.303 51.2732 41.303H46.6065V31.6372H51.2732Z" fill="#7DBC91"/>
<path d="M26.4639 43.9022C26.4639 56.382 36.5805 66.4987 49.0604 66.4987C61.5402 66.4987 71.6569 56.382 71.6569 43.9022C71.6569 31.4223 61.5402 21.3057 49.0604 21.3057C36.5866 21.3194 26.4783 31.4284 26.4639 43.9022ZM49.0604 24.4222C59.8191 24.4222 68.5403 33.1434 68.5403 43.9022C68.5403 54.6609 59.8191 63.3821 49.0604 63.3821C38.3016 63.3821 29.5804 54.6609 29.5804 43.9022C29.5926 33.1487 38.3069 24.4344 49.0604 24.4222Z" fill="#7DBC91"/>
<path d="M79.3385 70.3404L67.1318 76.1079C65.4464 72.9731 62.2135 70.978 58.6556 70.8776L47.3871 70.5679C45.6028 70.5169 43.852 70.065 42.2656 69.2455L41.119 68.6513C35.248 65.591 28.2503 65.5986 22.3854 68.6711L22.457 66.0734C22.4805 65.2129 21.8026 64.4961 20.942 64.4725L8.58542 64.1324C7.72487 64.1088 7.00889 64.7868 6.9853 65.6473L6.23888 92.7634C6.21529 93.624 6.89323 94.3407 7.75378 94.3643L20.1104 94.7044H20.153C20.9976 94.7044 21.6885 94.0326 21.7113 93.1888L21.7471 91.8915L24.9572 90.1727C26.2172 89.4947 27.6903 89.3334 29.0667 89.723L48.2362 95.1031C48.2697 95.113 48.3032 95.1206 48.3374 95.1282C49.7229 95.4181 51.1351 95.5635 52.5504 95.5627C55.5482 95.5642 58.5111 94.9182 61.2358 93.6674C61.3027 93.6369 61.3674 93.6012 61.429 93.5608L89.2231 75.5829C89.9155 75.1347 90.1392 74.2255 89.7336 73.5072C87.6701 69.8459 83.0934 68.4512 79.3385 70.3404V70.3404ZM9.39728 91.2919L10.0577 67.2908L19.2986 67.545L18.6381 91.5468L9.39728 91.2919ZM59.8319 90.8841C56.4468 92.4119 52.666 92.8334 49.0275 92.0901L29.9097 86.7236C27.758 86.1157 25.4548 86.3675 23.4864 87.4259L21.846 88.3047L22.285 72.3469C27.4833 68.8894 34.1501 68.5341 39.6862 71.4186L40.8329 72.0128C42.837 73.0476 45.0474 73.6183 47.3018 73.6837L58.5712 73.9934C61.7364 74.0847 64.4246 76.3384 65.0668 79.4397L48.2811 78.9764C47.4205 78.9528 46.7045 79.6315 46.6802 80.4913C46.6566 81.3518 47.3353 82.0686 48.1951 82.0922L66.7194 82.6019H66.7628C67.6066 82.6012 68.2967 81.9293 68.3195 81.0863C68.3385 80.4091 68.2883 79.7312 68.1689 79.0646L80.6891 73.1488C80.7012 73.1435 80.7134 73.1374 80.7256 73.1313C82.5015 72.2327 84.6487 72.5333 86.1096 73.8853L59.8319 90.8841Z" fill="#7DBC91"/>
<path d="M50.6185 16.9244V2.12077C50.6185 1.26022 49.9208 0.5625 49.0602 0.5625C48.1997 0.5625 47.502 1.26022 47.502 2.12077V16.9244C47.502 17.7849 48.1997 18.4827 49.0602 18.4827C49.9208 18.4827 50.6185 17.7849 50.6185 16.9244Z" fill="#7DBC91"/>
<path d="M62.305 16.924V9.91179C62.305 9.05124 61.6073 8.35352 60.7467 8.35352C59.8862 8.35352 59.1885 9.05124 59.1885 9.91179V16.924C59.1885 17.7846 59.8862 18.4823 60.7467 18.4823C61.6073 18.4823 62.305 17.7846 62.305 16.924Z" fill="#7DBC91"/>
<path d="M38.931 16.924V9.91179C38.931 9.05124 38.2333 8.35352 37.3727 8.35352C36.5122 8.35352 35.8145 9.05124 35.8145 9.91179V16.924C35.8145 17.7846 36.5122 18.4823 37.3727 18.4823C38.2333 18.4823 38.931 17.7846 38.931 16.924Z" fill="#7DBC91"/>
</g>
<defs>
<clipPath id="clip0">
<rect width="95" height="95" fill="white" transform="translate(0.449219 0.5625)"/>
</clipPath>
</defs>
</svg>
