<svg width="69" height="69" viewBox="0 0 69 69" fill="none" xmlns="http://www.w3.org/2000/svg">
<path d="M17.25 0C14.8781 0 12.9375 1.94062 12.9375 4.3125V64.6875C12.9375 67.0594 14.8781 69 17.25 69H60.375C62.7469 69 64.6875 67.0594 64.6875 64.6875V17.25L47.4375 0H17.25Z" fill="#E2E5E7"/>
<path d="M51.75 17.25H64.6875L47.4375 0V12.9375C47.4375 15.3094 49.3781 17.25 51.75 17.25Z" fill="#B0B7BD"/>
<path d="M64.6875 30.1875L51.75 17.25H64.6875V30.1875Z" fill="#CAD1D8"/>
<path d="M56.0625 56.0625C56.0625 57.2484 55.0922 58.2188 53.9062 58.2188H6.46875C5.28281 58.2188 4.3125 57.2484 4.3125 56.0625V34.5C4.3125 33.3141 5.28281 32.3438 6.46875 32.3438H53.9062C55.0922 32.3438 56.0625 33.3141 56.0625 34.5V56.0625Z" fill="#F15642"/>
<path d="M13.7109 40.8538C13.7109 40.2846 14.1594 39.6636 14.8818 39.6636H18.8644C21.1069 39.6636 23.1251 41.1643 23.1251 44.0408C23.1251 46.7663 21.1069 48.2843 18.8644 48.2843H15.9858V50.5613C15.9858 51.3203 15.5028 51.7494 14.8818 51.7494C14.3125 51.7494 13.7109 51.3203 13.7109 50.5613V40.8538ZM15.9858 41.8349V46.1302H18.8644C20.0201 46.1302 20.9344 45.1103 20.9344 44.0408C20.9344 42.8354 20.0201 41.8349 18.8644 41.8349H15.9858Z" fill="white"/>
<path d="M26.5047 51.7499C25.9355 51.7499 25.3145 51.4394 25.3145 50.6825V40.8888C25.3145 40.27 25.9355 39.8193 26.5047 39.8193H30.4528C38.3317 39.8193 38.1592 51.7499 30.608 51.7499H26.5047ZM27.5915 41.9238V49.6475H30.4528C35.1081 49.6475 35.3151 41.9238 30.4528 41.9238H27.5915Z" fill="white"/>
<path d="M40.9508 42.0615V44.8021H45.3474C45.9684 44.8021 46.5894 45.4231 46.5894 46.0247C46.5894 46.594 45.9684 47.0597 45.3474 47.0597H40.9508V50.6801C40.9508 51.2838 40.5217 51.7474 39.9179 51.7474C39.1589 51.7474 38.6953 51.2838 38.6953 50.6801V40.8864C38.6953 40.2676 39.1611 39.8169 39.9179 39.8169H45.9705C46.7295 39.8169 47.178 40.2676 47.178 40.8864C47.178 41.4384 46.7295 42.0594 45.9705 42.0594H40.9508V42.0615Z" fill="white"/>
<path d="M53.9062 58.2188H12.9375V60.375H53.9062C55.0922 60.375 56.0625 59.4047 56.0625 58.2188V56.0625C56.0625 57.2484 55.0922 58.2188 53.9062 58.2188Z" fill="#CAD1D8"/>
</svg>
