<svg width="18" height="20" viewBox="0 0 18 20" fill="none" xmlns="http://www.w3.org/2000/svg">
<path d="M8.43368 10.7766C8.45439 10.7766 8.4751 10.7766 8.49995 10.7766C8.50823 10.7766 8.51651 10.7766 8.5248 10.7766C8.53722 10.7766 8.55379 10.7766 8.56621 10.7766C9.77971 10.7558 10.7613 10.3293 11.4861 9.51335C13.0806 7.71588 12.8155 4.6345 12.7865 4.34044C12.683 2.13295 11.6393 1.07683 10.7779 0.583972C10.1359 0.215365 9.38626 0.0165666 8.54965 0H8.52066C8.51651 0 8.50823 0 8.50409 0H8.47924C8.01952 0 7.11664 0.0745496 6.25103 0.567405C5.38129 1.06026 4.32103 2.11638 4.21749 4.34044C4.1885 4.6345 3.92343 7.71588 5.51796 9.51335C6.23861 10.3293 7.22018 10.7558 8.43368 10.7766ZM5.32331 4.44398C5.32331 4.43156 5.32745 4.41913 5.32745 4.41085C5.46412 1.44129 7.57222 1.12239 8.4751 1.12239H8.49166C8.49995 1.12239 8.51237 1.12239 8.5248 1.12239C9.64304 1.14724 11.5441 1.60282 11.6724 4.41085C11.6724 4.42327 11.6724 4.4357 11.6766 4.44398C11.6807 4.47297 11.9706 7.28929 10.6536 8.772C10.1318 9.36011 9.43596 9.65003 8.52066 9.65831C8.51237 9.65831 8.50823 9.65831 8.49995 9.65831C8.49166 9.65831 8.48752 9.65831 8.47924 9.65831C7.56808 9.65003 6.86814 9.36011 6.35043 8.772C5.03753 7.29758 5.31917 4.46883 5.32331 4.44398Z" fill="white"/>
<path d="M17.0109 15.8874C17.0109 15.8833 17.0109 15.8792 17.0109 15.875C17.0109 15.8419 17.0067 15.8088 17.0067 15.7715C16.9819 14.9514 16.928 13.0338 15.1305 12.4209C15.1181 12.4167 15.1016 12.4126 15.0891 12.4085C13.2213 11.9322 11.6681 10.8553 11.6516 10.8429C11.3989 10.6648 11.051 10.727 10.8729 10.9796C10.6948 11.2322 10.757 11.5801 11.0096 11.7582C11.08 11.8079 12.7284 12.9552 14.7909 13.4853C15.7559 13.829 15.8636 14.8603 15.8926 15.8046C15.8926 15.8419 15.8926 15.875 15.8968 15.9082C15.9009 16.2809 15.876 16.8566 15.8098 17.1879C15.1388 17.569 12.5089 18.886 8.50806 18.886C4.5238 18.886 1.87729 17.5648 1.2022 17.1838C1.13594 16.8524 1.10695 16.2768 1.11523 15.904C1.11523 15.8709 1.11937 15.8377 1.11937 15.8005C1.14836 14.8562 1.25605 13.8249 2.22105 13.4811C4.28359 12.951 5.93196 11.7996 6.00237 11.7541C6.25501 11.576 6.31713 11.2281 6.13904 10.9754C5.96095 10.7228 5.61305 10.6607 5.36041 10.8388C5.34385 10.8512 3.79901 11.928 1.92285 12.4043C1.90628 12.4085 1.89386 12.4126 1.88143 12.4167C0.0839601 13.0338 0.0301188 14.9514 0.00526895 15.7673C0.00526895 15.8046 0.00526885 15.8377 0.00112721 15.8709C0.00112721 15.875 0.00112721 15.8792 0.00112721 15.8833C-0.00301444 16.0987 -0.00715599 17.2045 0.212351 17.7595C0.253768 17.8672 0.328317 17.9583 0.427717 18.0204C0.551966 18.1032 3.52981 20.0001 8.5122 20.0001C13.4946 20.0001 16.4724 18.0991 16.5967 18.0204C16.6919 17.9583 16.7706 17.8672 16.8121 17.7595C17.0191 17.2086 17.015 16.1028 17.0109 15.8874Z" fill="white"/>
</svg>
