<svg width="96" height="96" viewBox="0 0 96 96" fill="none" xmlns="http://www.w3.org/2000/svg">
<g clip-path="url(#clip0)">
<path d="M77.9481 83.6147L74.401 72.9716C73.1614 69.2559 69.9988 66.5131 66.1436 65.8114L55.9035 63.9481V63.1544C57.6856 62.1202 59.2362 60.7365 60.4712 59.0985H63.5648C66.0992 59.0985 68.1616 57.0361 68.1616 54.5018V36.1147C68.1616 25.1314 59.2255 16.1953 48.2422 16.1953C37.259 16.1953 28.3229 25.1314 28.3229 36.1147V46.8405C28.3229 49.7947 30.4236 52.2662 33.2093 52.8423C34.0689 57.246 36.8208 60.9725 40.581 63.1544V63.9481L30.3393 65.8114C26.4857 66.5131 23.3216 69.2559 22.0835 72.9716L21.4706 74.8118L16.2518 69.593C15.6542 68.9954 15.6542 68.0224 16.2518 67.4248L22.3042 61.3739L10.944 50.0138L4.10402 56.8538C2.07837 58.8794 0.962891 61.5731 0.962891 64.4385C0.962891 67.3038 2.07837 69.996 4.10402 72.0216L24.8125 92.7301C26.8381 94.7557 29.5318 95.8727 32.3972 95.8727C35.2625 95.8727 37.9547 94.7557 39.9328 92.776L47.3964 85.9376L45.0689 83.6147H77.9481ZM65.0971 54.5018C65.0971 55.3476 64.4091 56.034 63.5648 56.034H62.2762C62.7206 55.0212 63.0577 53.9532 63.2752 52.8423C63.931 52.706 64.5348 52.4455 65.0971 52.1176V54.5018ZM63.5648 49.479V44.2019C64.4765 44.7336 65.0971 45.7112 65.0971 46.8405C65.0971 47.9697 64.4765 48.9473 63.5648 49.479ZM32.9197 49.479C32.008 48.9473 31.3874 47.9697 31.3874 46.8405C31.3874 45.7112 32.008 44.7336 32.9197 44.2019V49.479ZM32.9197 39.1792V40.929C32.3742 41.0715 31.8624 41.286 31.3874 41.5634V36.1147C31.3874 26.8215 38.9491 19.2598 48.2422 19.2598C57.5354 19.2598 65.0971 26.8215 65.0971 36.1147V41.5634C64.6221 41.286 64.1103 41.07 63.5648 40.929V39.1792H62.0326C57.5017 39.1792 53.242 37.414 50.0365 34.2101L48.2422 32.4158L46.448 34.2101C43.2425 37.414 38.9828 39.1792 34.4519 39.1792H32.9197ZM35.9842 49.905V42.1855C40.5856 41.8392 44.8759 39.9407 48.2422 36.7398C51.6086 39.9407 55.8989 41.8407 60.5003 42.1855V49.905C60.5003 52.139 59.8905 54.229 58.8424 56.034H48.2422V59.0985H56.3234C54.1629 61.0001 51.3389 62.1631 48.2422 62.1631C41.4835 62.1631 35.9842 56.6638 35.9842 49.905ZM52.839 64.5212V64.5932L48.2422 69.19L43.6455 64.5932V64.5212C45.0981 64.9778 46.641 65.2276 48.2422 65.2276C49.8435 65.2276 51.3864 64.9778 52.839 64.5212ZM24.9887 73.94C25.8728 71.2861 28.1329 69.3264 30.8864 68.8238L41.5968 66.8778L48.2422 73.5232L54.8861 66.8793L65.5951 68.8253C68.3485 69.3279 70.6086 71.2861 71.4927 73.9415L73.6977 80.5502H42.0044L36.0363 74.582L29.4047 80.5808C28.827 81.1615 27.8172 81.1615 27.2381 80.5808L23.8916 77.2343L24.9887 73.94ZM10.9425 54.347L17.9694 61.3739L16.3054 63.038L9.27845 56.011L10.9425 54.347ZM37.8106 90.5665C36.3642 92.0099 34.4397 92.8082 32.3941 92.8082C30.3485 92.8082 28.424 92.0099 26.976 90.5635L6.26757 69.8565C4.82112 68.4101 4.02434 66.4856 4.02434 64.44C4.02434 62.3929 4.82112 60.4684 6.26757 59.0219L7.11031 58.1792L14.1372 65.2061L14.0821 65.2613C12.2909 67.054 12.2909 69.9699 14.0821 71.7627L25.0699 82.7505C25.9387 83.6177 27.0925 84.0973 28.3214 84.0973C29.5502 84.0973 30.704 83.6193 31.5161 82.8041L31.631 82.7014L38.6902 89.7606L37.8106 90.5665ZM40.9518 87.6859L33.908 80.6421L35.9321 78.8126L42.9636 85.8441L40.9518 87.6859Z" fill="#7DBC91"/>
<path d="M91.1451 0.873047H69.6935C67.1591 0.873047 65.0967 2.93547 65.0967 5.46982V17.7279C65.0967 20.2622 67.1591 22.3247 69.6935 22.3247H73.7861L72.2018 31.5657L86.9881 22.3247H91.1451C93.6794 22.3247 95.7418 20.2622 95.7418 17.7279V5.46982C95.7418 2.93547 93.6794 0.873047 91.1451 0.873047ZM92.6773 17.7279C92.6773 18.5722 91.9893 19.2601 91.1451 19.2601H86.1085L76.3772 25.3417L77.4206 19.2601H69.6935C68.8492 19.2601 68.1612 18.5722 68.1612 17.7279V5.46982C68.1612 4.62555 68.8492 3.93756 69.6935 3.93756H91.1451C91.9893 3.93756 92.6773 4.62555 92.6773 5.46982V17.7279Z" fill="#7DBC91"/>
<path d="M89.6127 7.00195H71.2256V10.0665H89.6127V7.00195Z" fill="#7DBC91"/>
<path d="M83.4837 13.1309H71.2256V16.1954H83.4837V13.1309Z" fill="#7DBC91"/>
<path d="M89.6124 13.1309H86.5479V16.1954H89.6124V13.1309Z" fill="#7DBC91"/>
<path d="M48.2418 5.46973C28.2213 5.46973 10.9758 19.3183 6.49239 38.6355L3.58876 33.795L0.960938 35.3717L6.34682 44.3462L15.3213 38.9603L13.7446 36.3325L9.59215 38.8239C13.9346 21.1524 29.8256 8.53424 48.2418 8.53424C52.2671 8.53424 56.2387 9.13182 60.0463 10.3117L60.9534 7.38505C56.8516 6.11327 52.575 5.46973 48.2418 5.46973Z" fill="#7DBC91"/>
<path d="M94.9975 34.8009L86.0231 29.415L80.6387 38.391L83.2665 39.9677L85.948 35.4981C87.3592 39.6275 88.0809 43.947 88.0809 48.3737C88.0809 57.486 84.9244 66.3945 79.1953 73.4567L81.5749 75.3874C87.7468 67.7812 91.1454 58.1862 91.1454 48.3737C91.1454 43.6865 90.39 39.1096 88.9175 34.7274L93.4208 37.4287L94.9975 34.8009Z" fill="#7DBC91"/>
</g>
<defs>
<clipPath id="clip0">
<rect width="95" height="95" fill="white" transform="translate(0.851562 0.873047)"/>
</clipPath>
</defs>
</svg>
