<svg width="96" height="96" viewBox="0 0 96 96" fill="none" xmlns="http://www.w3.org/2000/svg">
<g clip-path="url(#clip0)">
<path d="M77.4481 83.6147L73.901 72.9716C72.6614 69.2559 69.4988 66.5131 65.6436 65.8114L55.4035 63.9481V63.1544C57.1856 62.1202 58.7362 60.7365 59.9712 59.0985H63.0648C65.5992 59.0985 67.6616 57.0361 67.6616 54.5018V36.1147C67.6616 25.1314 58.7255 16.1953 47.7422 16.1953C36.759 16.1953 27.8229 25.1314 27.8229 36.1147V46.8405C27.8229 49.7947 29.9236 52.2662 32.7093 52.8423C33.5689 57.246 36.3208 60.9725 40.081 63.1544V63.9481L29.8393 65.8114C25.9857 66.5131 22.8216 69.2559 21.5835 72.9716L20.9706 74.8118L15.7518 69.593C15.1542 68.9954 15.1542 68.0224 15.7518 67.4248L21.8042 61.3739L10.444 50.0138L3.60402 56.8538C1.57837 58.8794 0.462891 61.5731 0.462891 64.4385C0.462891 67.3038 1.57837 69.996 3.60402 72.0216L24.3125 92.7301C26.3381 94.7557 29.0318 95.8727 31.8972 95.8727C34.7625 95.8727 37.4547 94.7557 39.4328 92.776L46.8964 85.9376L44.5689 83.6147H77.4481ZM64.5971 54.5018C64.5971 55.3476 63.9091 56.034 63.0648 56.034H61.7762C62.2206 55.0212 62.5577 53.9532 62.7752 52.8423C63.431 52.706 64.0348 52.4455 64.5971 52.1176V54.5018ZM63.0648 49.479V44.2019C63.9765 44.7336 64.5971 45.7112 64.5971 46.8405C64.5971 47.9697 63.9765 48.9473 63.0648 49.479ZM32.4197 49.479C31.508 48.9473 30.8874 47.9697 30.8874 46.8405C30.8874 45.7112 31.508 44.7336 32.4197 44.2019V49.479ZM32.4197 39.1792V40.929C31.8742 41.0715 31.3624 41.286 30.8874 41.5634V36.1147C30.8874 26.8215 38.4491 19.2598 47.7422 19.2598C57.0354 19.2598 64.5971 26.8215 64.5971 36.1147V41.5634C64.1221 41.286 63.6103 41.07 63.0648 40.929V39.1792H61.5326C57.0017 39.1792 52.742 37.414 49.5365 34.2101L47.7422 32.4158L45.948 34.2101C42.7425 37.414 38.4828 39.1792 33.9519 39.1792H32.4197ZM35.4842 49.905V42.1855C40.0856 41.8392 44.3759 39.9407 47.7422 36.7398C51.1086 39.9407 55.3989 41.8407 60.0003 42.1855V49.905C60.0003 52.139 59.3905 54.229 58.3424 56.034H47.7422V59.0985H55.8234C53.6629 61.0001 50.8389 62.1631 47.7422 62.1631C40.9835 62.1631 35.4842 56.6638 35.4842 49.905ZM52.339 64.5212V64.5932L47.7422 69.19L43.1455 64.5932V64.5212C44.5981 64.9778 46.141 65.2276 47.7422 65.2276C49.3435 65.2276 50.8864 64.9778 52.339 64.5212ZM24.4887 73.94C25.3728 71.2861 27.6329 69.3264 30.3864 68.8238L41.0968 66.8778L47.7422 73.5232L54.3861 66.8793L65.0951 68.8253C67.8485 69.3279 70.1086 71.2861 70.9927 73.9415L73.1977 80.5502H41.5044L35.5363 74.582L28.9047 80.5808C28.327 81.1615 27.3172 81.1615 26.7381 80.5808L23.3916 77.2343L24.4887 73.94ZM10.4425 54.347L17.4694 61.3739L15.8054 63.038L8.77845 56.011L10.4425 54.347ZM37.3106 90.5665C35.8642 92.0099 33.9397 92.8082 31.8941 92.8082C29.8485 92.8082 27.924 92.0099 26.476 90.5635L5.76757 69.8565C4.32112 68.4101 3.52434 66.4856 3.52434 64.44C3.52434 62.3929 4.32112 60.4684 5.76757 59.0219L6.61031 58.1792L13.6372 65.2061L13.5821 65.2613C11.7909 67.054 11.7909 69.9699 13.5821 71.7627L24.5699 82.7505C25.4387 83.6177 26.5925 84.0973 27.8214 84.0973C29.0502 84.0973 30.204 83.6193 31.0161 82.8041L31.131 82.7014L38.1902 89.7606L37.3106 90.5665ZM40.4518 87.6859L33.408 80.6421L35.4321 78.8126L42.4636 85.8441L40.4518 87.6859Z" fill="#AB86E4"/>
<path d="M90.6451 0.873047H69.1935C66.6591 0.873047 64.5967 2.93547 64.5967 5.46982V17.7279C64.5967 20.2622 66.6591 22.3247 69.1935 22.3247H73.2861L71.7018 31.5657L86.4881 22.3247H90.6451C93.1794 22.3247 95.2418 20.2622 95.2418 17.7279V5.46982C95.2418 2.93547 93.1794 0.873047 90.6451 0.873047ZM92.1773 17.7279C92.1773 18.5722 91.4893 19.2601 90.6451 19.2601H85.6085L75.8772 25.3417L76.9206 19.2601H69.1935C68.3492 19.2601 67.6612 18.5722 67.6612 17.7279V5.46982C67.6612 4.62555 68.3492 3.93756 69.1935 3.93756H90.6451C91.4893 3.93756 92.1773 4.62555 92.1773 5.46982V17.7279Z" fill="#AB86E4"/>
<path d="M89.1127 7.00195H70.7256V10.0665H89.1127V7.00195Z" fill="#AB86E4"/>
<path d="M82.9837 13.1309H70.7256V16.1954H82.9837V13.1309Z" fill="#AB86E4"/>
<path d="M89.1124 13.1309H86.0479V16.1954H89.1124V13.1309Z" fill="#AB86E4"/>
<path d="M47.7418 5.46973C27.7213 5.46973 10.4758 19.3183 5.99239 38.6355L3.08876 33.795L0.460938 35.3717L5.84682 44.3462L14.8213 38.9603L13.2446 36.3325L9.09215 38.8239C13.4346 21.1524 29.3256 8.53424 47.7418 8.53424C51.7671 8.53424 55.7387 9.13182 59.5463 10.3117L60.4534 7.38505C56.3516 6.11327 52.075 5.46973 47.7418 5.46973Z" fill="#AB86E4"/>
<path d="M94.4975 34.8009L85.5231 29.415L80.1387 38.391L82.7665 39.9677L85.448 35.4981C86.8592 39.6275 87.5809 43.947 87.5809 48.3737C87.5809 57.486 84.4244 66.3945 78.6953 73.4567L81.0749 75.3874C87.2468 67.7812 90.6454 58.1862 90.6454 48.3737C90.6454 43.6865 89.89 39.1096 88.4175 34.7274L92.9208 37.4287L94.4975 34.8009Z" fill="#AB86E4"/>
</g>
<defs>
<clipPath id="clip0">
<rect width="95" height="95" fill="white" transform="translate(0.351562 0.873047)"/>
</clipPath>
</defs>
</svg>
