<svg width="30" height="31" viewBox="0 0 30 31" fill="none" xmlns="http://www.w3.org/2000/svg">
<g clip-path="url(#clip0)">
<path d="M17.4013 9.41064C17.0773 9.41064 16.8145 9.67317 16.8145 9.99658C16.8145 10.3198 17.0773 10.5823 17.4013 10.5823C17.7253 10.5823 17.9882 10.3198 17.9882 9.99658C17.9882 9.67317 17.7253 9.41064 17.4013 9.41064Z" fill="white"/>
<path d="M13.8419 20.8548C14.071 20.6257 14.071 20.2549 13.8419 20.0258C13.6126 19.7974 13.2411 19.7974 13.0115 20.0258C12.7826 20.2549 12.7826 20.6257 13.0115 20.8548C13.2411 21.0832 13.6126 21.0832 13.8419 20.8548Z" fill="white"/>
<path d="M6.78965 30.3344C7.01715 30.5633 7.38751 30.5658 7.61799 30.3392L10.4635 27.5414C10.9469 27.0589 11.0939 26.3445 10.8814 25.7236L11.4934 25.1344C11.823 24.8167 12.2569 24.6417 12.7155 24.6417H20.518C21.9023 24.6417 23.2106 24.1111 24.2024 23.1477C24.2432 23.1081 23.8926 23.5204 29.5254 16.8013C30.3608 15.8148 30.2359 14.3335 29.2465 13.4988C28.2634 12.6718 26.7906 12.7906 25.9529 13.7601L22.4896 17.3129C22.0522 16.7757 21.3853 16.4408 20.6648 16.4408H14.1199C13.1886 16.0519 12.2005 15.8551 11.1809 15.8551C8.35551 15.8551 5.88724 17.157 4.5624 19.6005C4.00444 19.495 3.41598 19.6635 2.99264 20.086L0.200549 22.8809C-0.0274045 23.1091 -0.0278632 23.4782 0.199632 23.7069L6.78965 30.3344ZM11.1806 17.0265C12.0796 17.0265 12.9488 17.2071 13.7645 17.5632C13.8388 17.5958 13.9188 17.6125 13.9998 17.6125H20.6648C21.3012 17.6125 21.8387 18.1304 21.8387 18.7839C21.8387 19.43 21.3122 19.9555 20.6648 19.9555H15.8762C15.5521 19.9555 15.2893 20.2178 15.2893 20.5412C15.2893 20.8649 15.5521 21.1269 15.8762 21.1269H20.6648C21.9594 21.1269 23.0124 20.0759 23.0124 18.7839C23.0124 18.6809 23.0051 18.5788 22.9918 18.4776C26.3421 15.0405 26.8145 14.5576 26.8347 14.5335C27.253 14.0408 27.9955 13.9783 28.4895 14.3939C28.984 14.8112 29.0466 15.5518 28.6271 16.0474L23.3629 22.3283C22.5941 23.0649 21.5849 23.4702 20.518 23.4702H12.7155C11.9509 23.4702 11.2272 23.7621 10.6782 24.2915L10.1794 24.7719L5.58131 20.183C6.65595 18.1709 8.67245 17.0265 11.1806 17.0265ZM3.82327 20.9139C4.01683 20.7207 4.31404 20.6859 4.55002 20.8315C4.63969 20.8859 9.65971 25.9085 9.69067 25.9499C9.86244 26.1809 9.8379 26.5089 9.63678 26.7098L7.21093 29.095L1.44398 23.2954L3.82327 20.9139Z" fill="white"/>
<path d="M9.18462 12.9263H23.2707C24.2417 12.9263 25.0315 12.138 25.0315 11.1689C25.0315 9.69239 25.0315 3.32695 25.0315 2.26517C25.0315 1.29608 24.2417 0.507812 23.2707 0.507812H9.18462C8.21364 0.507812 7.42383 1.29608 7.42383 2.26517V11.1689C7.42383 12.138 8.21364 12.9263 9.18462 12.9263ZM23.8576 5.19394H8.59777V4.02252H23.8576V5.19394ZM23.2707 11.7548H9.18462C8.86104 11.7548 8.59777 11.4919 8.59777 11.1689V6.36559H23.8576V11.1689C23.8576 11.4919 23.5943 11.7548 23.2707 11.7548ZM9.18462 1.67946H23.2707C23.5943 1.67946 23.8576 1.94222 23.8576 2.26517V2.85088H8.59777V2.26517C8.59777 1.94222 8.86104 1.67946 9.18462 1.67946Z" fill="white"/>
<path d="M22.0986 9.41064H19.7509C19.4269 9.41064 19.1641 9.67294 19.1641 9.99658C19.1641 10.32 19.4269 10.5823 19.7509 10.5823H22.0986C22.4228 10.5823 22.6857 10.32 22.6857 9.99658C22.6857 9.67294 22.4228 9.41064 22.0986 9.41064Z" fill="white"/>
</g>
<defs>
<clipPath id="clip0">
<rect y="0.507812" width="30" height="30" fill="white"/>
</clipPath>
</defs>
</svg>
