<svg width="30" height="31" viewBox="0 0 30 31" fill="none" xmlns="http://www.w3.org/2000/svg">
<g clip-path="url(#clip0)">
<path d="M12.1816 10.8813C11.9389 10.8813 11.7422 11.0781 11.7422 11.3208V11.7905C11.7422 12.0332 11.9389 12.2299 12.1816 12.2299C12.4243 12.2299 12.6211 12.0332 12.6211 11.7905V11.3208C12.6211 11.0781 12.4243 10.8813 12.1816 10.8813Z" fill="white"/>
<path d="M17.8164 10.8813C17.5737 10.8813 17.377 11.0781 17.377 11.3208V11.7905C17.377 12.0332 17.5737 12.2299 17.8164 12.2299C18.0591 12.2299 18.2559 12.0332 18.2559 11.7905V11.3208C18.2559 11.0781 18.0591 10.8813 17.8164 10.8813Z" fill="white"/>
<path d="M24.0692 23.354L21.6586 22.5032C21.9832 21.9771 22.6826 20.7784 23.3884 19.1462C24.971 15.4864 25.3033 12.5934 25.3033 10.8109C25.3033 5.12975 20.6813 0.507812 15.0002 0.507812H14.0608C12.8291 0.507812 11.6698 0.882754 10.7963 1.56367C10.4111 1.86402 10.1003 2.20891 9.86967 2.58432C8.39293 3.45561 7.22463 4.66563 6.43906 6.02424C5.5949 7.4841 5.16688 9.13416 5.16688 10.9287C5.16688 14.2831 6.07238 17.3873 6.83205 19.4007C7.38195 20.8581 7.92734 21.9548 8.23912 22.5395L5.93123 23.354C4.63121 23.8128 3.75781 25.0473 3.75781 26.4259V30.0684C3.75781 30.3111 3.95457 30.5078 4.19727 30.5078C4.43996 30.5078 4.63672 30.3111 4.63672 30.0684V26.4259C4.63672 25.4192 5.27451 24.5178 6.22373 24.1828L6.94074 23.9297C8.6232 26.2553 11.6831 27.6896 15.0003 27.6896C16.4959 27.6896 17.9836 27.3942 19.3023 26.8354C19.5258 26.7406 19.6302 26.4827 19.5355 26.2593C19.4407 26.0358 19.1829 25.9314 18.9594 26.0262C17.7482 26.5394 16.3791 26.8107 15.0003 26.8107C12.0634 26.8107 9.35873 25.6005 7.80963 23.623L11.0748 22.4706C12 22.1441 12.6215 21.2656 12.6215 20.2846V18.7876C13.3592 19.0763 14.1615 19.2351 15.0003 19.2351C15.839 19.2351 16.6413 19.0763 17.379 18.7876V20.2846C17.379 21.2656 18.0005 22.1441 18.9257 22.4706L22.1907 23.623C21.7399 24.1982 21.1859 24.7146 20.5378 25.1624C20.3381 25.3003 20.2881 25.574 20.4261 25.7737C20.5114 25.8972 20.6485 25.9634 20.788 25.9634C20.8742 25.9634 20.9612 25.9381 21.0374 25.8855C21.8454 25.3272 22.524 24.6701 23.0595 23.9296L23.7768 24.1828C24.7261 24.5178 25.3638 25.4192 25.3638 26.4259V30.0684C25.3638 30.3111 25.5605 30.5078 25.8032 30.5078C26.0459 30.5078 26.2427 30.3111 26.2427 30.0684V26.4259C26.2426 25.0473 25.3692 23.8128 24.0692 23.354ZM11.7426 20.2846C11.7426 20.8937 11.3567 21.4391 10.7823 21.6419L9.079 22.243C8.40371 20.9907 6.04572 16.2368 6.04572 10.9287C6.04572 9.29066 6.43402 7.78861 7.19984 6.46422C7.76 5.49549 8.50092 4.65602 9.40795 3.95775C9.39969 4.04963 9.39406 4.14197 9.39406 4.23514C9.39406 4.95596 9.72477 5.60084 10.2424 6.02635C9.18283 6.56453 8.45469 7.66451 8.45469 8.93207V10.3411C8.45469 10.3578 8.44115 10.3714 8.42445 10.3714H8.18961C7.2998 10.3714 6.57594 11.0952 6.57594 11.985C6.57594 12.703 7.04738 13.3128 7.69689 13.5215C7.40434 14.0598 7.04562 14.8531 7.04562 15.5078C7.04562 16.2681 7.6642 16.8866 8.42445 16.8866C8.88728 16.8866 9.29727 16.6571 9.54746 16.3063C10.1093 17.1505 10.8614 17.8577 11.7426 18.3653V20.2846ZM7.92453 15.5078C7.92453 15.088 8.17818 14.4957 8.42445 14.0276C8.67078 14.4957 8.92437 15.088 8.92437 15.5078C8.92437 15.7835 8.70008 16.0077 8.42445 16.0077C8.14883 16.0077 7.92453 15.7835 7.92453 15.5078ZM19.2181 21.6419C18.6437 21.4391 18.2578 20.8937 18.2578 20.2846V18.3654C19.139 17.8577 19.8911 17.1505 20.4529 16.3063C20.7031 16.6572 21.1131 16.8866 21.5759 16.8866C22.3362 16.8866 22.9548 16.2681 22.9548 15.5078C22.9548 14.8531 22.5961 14.0598 22.3035 13.5216C22.953 13.3128 23.4245 12.7031 23.4245 11.9851C23.4245 11.0953 22.7006 10.3714 21.8107 10.3714H21.5759C21.5592 10.3714 21.5456 10.3579 21.5456 10.3412V8.93213C21.5456 7.13588 20.0843 5.67449 18.288 5.67449H17.8184C17.5757 5.67449 17.3789 5.87125 17.3789 6.11395C17.3789 6.35664 17.5757 6.5534 17.8184 6.5534H18.288C19.5996 6.5534 20.6667 7.62051 20.6667 8.93213V10.3412C20.6667 10.8425 21.0746 11.2503 21.5759 11.2503H21.8107C22.2159 11.2503 22.5455 11.5799 22.5455 11.9851C22.5455 12.3903 22.216 12.7199 21.8107 12.7199H21.5453C21.5454 12.7098 21.5457 12.6998 21.5457 12.6897C21.5457 12.447 21.3489 12.2502 21.1063 12.2502C20.8636 12.2502 20.6668 12.447 20.6668 12.6897C20.6668 15.8143 18.1248 18.3562 15.0002 18.3562C11.8756 18.3562 9.33365 15.8142 9.33365 12.6897C9.33365 12.447 9.13689 12.2502 8.8942 12.2502C8.6515 12.2502 8.45475 12.447 8.45475 12.6897C8.45475 12.6998 8.4551 12.7098 8.45516 12.7199H8.18967C7.78449 12.7199 7.4549 12.3903 7.4549 11.9851C7.4549 11.5799 7.78449 11.2503 8.18967 11.2503H8.42451C8.92584 11.2503 9.33365 10.8425 9.33365 10.3412V8.93213C9.33365 7.62051 10.4007 6.5534 11.7124 6.5534H15.9397C16.1824 6.5534 16.3792 6.35664 16.3792 6.11395C16.3792 5.87125 16.1824 5.67449 15.9397 5.67449H11.7124C10.9187 5.67449 10.2731 5.02879 10.2731 4.2352C10.2731 2.66459 11.9723 1.38678 14.0609 1.38678H15.0002C20.1967 1.38678 24.4244 5.61443 24.4244 10.8109C24.4244 16.2588 21.3116 21.4076 20.8088 22.2034L19.2181 21.6419ZM21.076 15.5078C21.076 15.088 21.3297 14.4957 21.5759 14.0276C21.8223 14.4957 22.0759 15.088 22.0759 15.5078C22.0759 15.7835 21.8516 16.0077 21.5759 16.0077C21.3003 16.0077 21.076 15.7835 21.076 15.5078Z" fill="white"/>
<path d="M16.7227 14.729C16.5522 14.5562 16.274 14.5543 16.1013 14.7248C15.9409 14.8831 15.5565 15.0679 15.0009 15.0679C14.4452 15.0679 14.0608 14.8831 13.9004 14.7248C13.7276 14.5543 13.4494 14.5562 13.279 14.729C13.1085 14.9017 13.1104 15.1799 13.2831 15.3504C13.6616 15.7238 14.3037 15.9467 15.0009 15.9467C15.698 15.9467 16.3401 15.7238 16.7186 15.3504C16.8914 15.1799 16.8932 14.9017 16.7227 14.729Z" fill="white"/>
<path d="M12.6679 9.44868C12.564 9.22931 12.302 9.13579 12.0826 9.23968L11.5248 9.50388C11.3055 9.60776 11.212 9.86979 11.3158 10.0892C11.391 10.2478 11.5487 10.3406 11.7133 10.3406C11.7763 10.3406 11.8404 10.3269 11.9011 10.2982L12.4589 10.034C12.6782 9.93009 12.7718 9.66806 12.6679 9.44868Z" fill="white"/>
<path d="M18.4765 9.50336L17.9187 9.23916C17.6994 9.13533 17.4374 9.22879 17.3334 9.44817C17.2295 9.66754 17.3231 9.92958 17.5424 10.0335L18.1002 10.2977C18.161 10.3264 18.225 10.3401 18.2881 10.3401C18.4526 10.3401 18.6104 10.2472 18.6855 10.0887C18.7894 9.86928 18.6958 9.60725 18.4765 9.50336Z" fill="white"/>
</g>
<defs>
<clipPath id="clip0">
<rect y="0.507812" width="30" height="30" fill="white"/>
</clipPath>
</defs>
</svg>
