<svg width="27" height="26" viewBox="0 0 27 26" fill="none" xmlns="http://www.w3.org/2000/svg">
<path d="M27 10.9632C27 9.5068 25.8151 8.32191 24.3587 8.32191H17.9887L18.916 5.79203C18.919 5.78386 18.9219 5.77574 18.9246 5.76751C19.3716 4.4269 19.2591 3.02026 18.5993 1.69932C18.1014 0.703535 17.1007 0.0849609 15.9877 0.0849609H15.6783C14.9288 0.0849609 14.2949 0.670471 14.235 1.41777C14.1302 2.72458 13.5697 3.96236 12.6567 4.90356L7.55531 10.0828H7.04347V9.20237C7.04347 8.71615 6.64928 8.32191 6.16301 8.32191H0.880453C0.394189 8.32191 0 8.71615 0 9.20237V25.0502C0 25.5364 0.394189 25.9307 0.880453 25.9307H6.16307C6.64928 25.9307 7.04352 25.5365 7.04352 25.0502V24.1698H21.7174C23.1739 24.1698 24.3587 22.9849 24.3587 21.5284C24.3587 21.0578 24.2351 20.6157 24.0185 20.2326C24.7521 19.7628 25.2392 18.9406 25.2392 18.0067C25.2392 17.5361 25.1156 17.0939 24.899 16.7108C25.6325 16.241 26.1197 15.4188 26.1197 14.4849C26.1197 14.0143 25.996 13.5721 25.7794 13.1891C26.5129 12.7194 27 11.8971 27 10.9632ZM5.28261 10.9632V23.2893V24.1698H1.76085V10.0828H5.28261V10.9632ZM24.3587 11.8437H23.4782H21.7174C21.2312 11.8437 20.8369 12.2379 20.8369 12.7241C20.8369 13.2104 21.2311 13.6046 21.7174 13.6046H23.4782C23.9637 13.6046 24.3587 13.9996 24.3587 14.485C24.3587 14.9705 23.9637 15.3655 23.4782 15.3655H22.5978H20.8369C20.3507 15.3655 19.9565 15.7597 19.9565 16.2459C19.9565 16.7322 20.3507 17.1264 20.8369 17.1264H22.5978C23.0833 17.1264 23.4782 17.5214 23.4782 18.0068C23.4782 18.4923 23.0833 18.8873 22.5978 18.8873H21.7173C21.6712 18.8873 21.6263 18.8919 21.582 18.8987H19.898C19.4118 18.8987 19.0175 19.2929 19.0175 19.7792C19.0175 20.2654 19.4117 20.6596 19.898 20.6596H21.6589C21.6983 20.6596 21.7369 20.6561 21.775 20.6511C22.2336 20.6811 22.5978 21.0626 22.5978 21.5286C22.5978 22.0141 22.2028 22.4091 21.7173 22.4091H7.04347V11.8436H7.92392C8.15975 11.8436 8.38566 11.749 8.5512 11.581L13.9136 6.13676C13.9151 6.13528 13.9165 6.13375 13.9179 6.13228C15.0495 4.96695 15.7687 3.45421 15.9615 1.84571H15.9877C16.4294 1.84571 16.8266 2.09135 17.0241 2.48643C17.4752 3.3893 17.5537 4.30176 17.2579 5.19888L15.9016 8.8993C15.8025 9.16935 15.8418 9.47073 16.0065 9.70651C16.1712 9.94228 16.4406 10.0828 16.7282 10.0828H24.3587C24.8442 10.0828 25.2391 10.4777 25.2391 10.9632C25.2391 11.4487 24.8442 11.8437 24.3587 11.8437Z" fill="white"/>
</svg>
