<svg width="95" height="95" viewBox="0 0 95 95" fill="none" xmlns="http://www.w3.org/2000/svg">
<g clip-path="url(#clip0)">
<path d="M90.2499 0H4.74987C2.0499 0.0861581 -0.0729631 2.33781 -0.000133915 5.03817V74.1285C-0.0729631 76.8289 2.0499 79.0805 4.74987 79.1667H32.2714L29.1047 85.5H23.7499C21.1265 85.5 18.9999 87.6266 18.9999 90.25C18.9999 92.8734 21.1265 95 23.7499 95H71.2499C73.8732 95 75.9999 92.8734 75.9999 90.25C75.9999 87.6266 73.8732 85.5 71.2499 85.5H65.895L62.7284 79.1667H90.2499C92.9498 79.0805 95.0727 76.8289 94.9999 74.1285V5.03817C95.0727 2.33781 92.9498 0.0861581 90.2499 0V0ZM72.8332 90.25C72.8332 91.1245 72.1243 91.8333 71.2499 91.8333H23.7499C22.8754 91.8333 22.1665 91.1245 22.1665 90.25C22.1665 89.3756 22.8754 88.6667 23.7499 88.6667H71.2499C72.1243 88.6667 72.8332 89.3756 72.8332 90.25ZM62.3547 85.5H32.645L35.8117 79.1667H59.188L62.3547 85.5ZM90.2499 76H4.74987C3.80522 75.9024 3.10625 75.0763 3.16653 74.1285V69.6667H9.49987C10.3743 69.6667 11.0832 68.9578 11.0832 68.0833C11.0832 67.2089 10.3743 66.5 9.49987 66.5H3.16653V5.03817C3.10625 4.09041 3.80522 3.26422 4.74987 3.16667H90.2499C91.1945 3.26422 91.8935 4.09041 91.8332 5.03817V66.5H15.8332C14.9587 66.5 14.2499 67.2089 14.2499 68.0833C14.2499 68.9578 14.9587 69.6667 15.8332 69.6667H91.8332V74.1285C91.8935 75.0763 91.1945 75.9024 90.2499 76Z" fill="white"/>
<path d="M7.91634 15.833C8.79079 15.833 9.49967 15.1241 9.49967 14.2497V9.49967H14.2497C15.1241 9.49967 15.833 8.79079 15.833 7.91634C15.833 7.04189 15.1241 6.33301 14.2497 6.33301H7.91634C7.04189 6.33301 6.33301 7.04189 6.33301 7.91634V14.2497C6.33301 15.1241 7.04189 15.833 7.91634 15.833Z" fill="white"/>
<path d="M15.833 61.7497C15.833 60.8752 15.1241 60.1663 14.2497 60.1663H9.49967V55.4163C9.49967 54.5419 8.79079 53.833 7.91634 53.833C7.04189 53.833 6.33301 54.5419 6.33301 55.4163V61.7497C6.33301 62.6241 7.04189 63.333 7.91634 63.333H14.2497C15.1241 63.333 15.833 62.6241 15.833 61.7497Z" fill="white"/>
<path d="M87.0832 53.833C86.2087 53.833 85.4998 54.5419 85.4998 55.4163V60.1663H80.7498C79.8754 60.1663 79.1665 60.8752 79.1665 61.7497C79.1665 62.6241 79.8754 63.333 80.7498 63.333H87.0832C87.9576 63.333 88.6665 62.6241 88.6665 61.7497V55.4163C88.6665 54.5419 87.9576 53.833 87.0832 53.833Z" fill="white"/>
<path d="M80.7498 9.49967H85.4998V14.2497C85.4998 15.1241 86.2087 15.833 87.0832 15.833C87.9576 15.833 88.6665 15.1241 88.6665 14.2497V7.91634C88.6665 7.04189 87.9576 6.33301 87.0832 6.33301H80.7498C79.8754 6.33301 79.1665 7.04189 79.1665 7.91634C79.1665 8.79079 79.8754 9.49967 80.7498 9.49967Z" fill="white"/>
<path d="M12.6775 41.2377C12.7452 42.0933 13.1599 42.8839 13.8254 43.4259C33.4286 59.4133 61.5709 59.4133 81.1741 43.4259C81.8396 42.8839 82.2543 42.0933 82.322 41.2377C82.3932 40.3702 82.1118 39.5107 81.5414 38.8532L62.4338 16.9415C61.3461 15.6899 59.4797 15.4832 58.1445 16.4665C55.1383 18.9597 51.4013 20.4049 47.4998 20.5831C43.5963 20.4011 39.8587 18.9514 36.8534 16.4538C35.5187 15.4708 33.6529 15.6775 32.5658 16.9288L13.4581 38.8532C12.8872 39.5104 12.6057 40.3702 12.6775 41.2377V41.2377ZM34.9534 18.9871C43.3768 25.3078 51.6228 25.2761 60.0461 19.0172L79.1538 40.9353L79.1696 40.9733C70.223 48.2608 59.0387 52.2431 47.4998 52.2498C35.9578 52.2502 24.7722 48.252 15.8458 40.9353L34.9534 18.9871Z" fill="white"/>
</g>
<defs>
<clipPath id="clip0">
<rect width="95" height="95" fill="white"/>
</clipPath>
</defs>
</svg>
