<svg width="96" height="96" viewBox="0 0 96 96" fill="none" xmlns="http://www.w3.org/2000/svg">
<g clip-path="url(#clip0)">
<path d="M90.6014 0.563477H5.10143C2.40146 0.649635 0.278599 2.90128 0.351429 5.60164V74.692C0.278599 77.3923 2.40146 79.644 5.10143 79.7301H32.6229L29.4563 86.0635H24.1014C21.4781 86.0635 19.3514 88.1901 19.3514 90.8135C19.3514 93.4368 21.4781 95.5635 24.1014 95.5635H71.6014C74.2248 95.5635 76.3514 93.4368 76.3514 90.8135C76.3514 88.1901 74.2248 86.0635 71.6014 86.0635H66.2466L63.0799 79.7301H90.6014C93.3014 79.644 95.4243 77.3923 95.3514 74.692V5.60164C95.4243 2.90128 93.3014 0.649635 90.6014 0.563477V0.563477ZM73.1848 90.8135C73.1848 91.6879 72.4759 92.3968 71.6014 92.3968H24.1014C23.227 92.3968 22.5181 91.6879 22.5181 90.8135C22.5181 89.939 23.227 89.2301 24.1014 89.2301H71.6014C72.4759 89.2301 73.1848 89.939 73.1848 90.8135ZM62.7063 86.0635H32.9966L36.1633 79.7301H59.5396L62.7063 86.0635ZM90.6014 76.5635H5.10143C4.15678 76.4659 3.45781 75.6397 3.5181 74.692V70.2301H9.85143C10.7259 70.2301 11.4348 69.5213 11.4348 68.6468C11.4348 67.7724 10.7259 67.0635 9.85143 67.0635H3.5181V5.60164C3.45781 4.65389 4.15678 3.8277 5.10143 3.73014H90.6014C91.5461 3.8277 92.2451 4.65389 92.1848 5.60164V67.0635H16.1848C15.3103 67.0635 14.6014 67.7724 14.6014 68.6468C14.6014 69.5213 15.3103 70.2301 16.1848 70.2301H92.1848V74.692C92.2451 75.6397 91.5461 76.4659 90.6014 76.5635Z" fill="#AB86E4"/>
<path d="M8.2679 16.3965C9.14235 16.3965 9.85124 15.6876 9.85124 14.8132V10.0632H14.6012C15.4757 10.0632 16.1846 9.35427 16.1846 8.47982C16.1846 7.60537 15.4757 6.89648 14.6012 6.89648H8.2679C7.39345 6.89648 6.68457 7.60537 6.68457 8.47982V14.8132C6.68457 15.6876 7.39345 16.3965 8.2679 16.3965Z" fill="#AB86E4"/>
<path d="M16.1846 62.3131C16.1846 61.4387 15.4757 60.7298 14.6012 60.7298H9.85124V55.9798C9.85124 55.1054 9.14235 54.3965 8.2679 54.3965C7.39345 54.3965 6.68457 55.1054 6.68457 55.9798V62.3131C6.68457 63.1876 7.39345 63.8965 8.2679 63.8965H14.6012C15.4757 63.8965 16.1846 63.1876 16.1846 62.3131Z" fill="#AB86E4"/>
<path d="M87.4352 54.3965C86.5608 54.3965 85.8519 55.1054 85.8519 55.9798V60.7298H81.1019C80.2274 60.7298 79.5186 61.4387 79.5186 62.3131C79.5186 63.1876 80.2274 63.8965 81.1019 63.8965H87.4352C88.3097 63.8965 89.0186 63.1876 89.0186 62.3131V55.9798C89.0186 55.1054 88.3097 54.3965 87.4352 54.3965Z" fill="#AB86E4"/>
<path d="M81.1019 10.0632H85.8519V14.8132C85.8519 15.6876 86.5608 16.3965 87.4352 16.3965C88.3097 16.3965 89.0186 15.6876 89.0186 14.8132V8.47982C89.0186 7.60537 88.3097 6.89648 87.4352 6.89648H81.1019C80.2274 6.89648 79.5186 7.60537 79.5186 8.47982C79.5186 9.35427 80.2274 10.0632 81.1019 10.0632Z" fill="#AB86E4"/>
<path d="M13.0286 41.8012C13.0962 42.6568 13.511 43.4474 14.1765 43.9894C33.7797 59.9768 61.922 59.9768 81.5252 43.9894C82.1906 43.4474 82.6054 42.6568 82.6731 41.8012C82.7443 40.9337 82.4629 40.0741 81.8925 39.4167L62.7848 17.5049C61.6971 16.2534 59.8308 16.0467 58.4956 17.0299C55.4894 19.5232 51.7523 20.9684 47.8508 21.1466C43.9474 20.9646 40.2098 19.5149 37.2045 17.0173C35.8698 16.0342 34.004 16.241 32.9168 17.4923L13.8092 39.4167C13.2383 40.0739 12.9568 40.9336 13.0286 41.8012V41.8012ZM35.3045 19.5506C43.7278 25.8713 51.9738 25.8396 60.3972 19.5807L79.5048 41.4988L79.5207 41.5368C70.5741 48.8243 59.3898 52.8066 47.8508 52.8133C36.3089 52.8137 25.1233 48.8155 16.1968 41.4988L35.3045 19.5506Z" fill="#AB86E4"/>
</g>
<defs>
<clipPath id="clip0">
<rect width="95" height="95" fill="white" transform="translate(0.351562 0.563477)"/>
</clipPath>
</defs>
</svg>
