<svg width="96" height="96" viewBox="0 0 96 96" fill="none" xmlns="http://www.w3.org/2000/svg">
<g clip-path="url(#clip0)">
<path d="M91.1014 0.563477H5.60143C2.90146 0.649635 0.778599 2.90128 0.851429 5.60164V74.692C0.778599 77.3923 2.90146 79.644 5.60143 79.7301H33.1229L29.9563 86.0635H24.6014C21.9781 86.0635 19.8514 88.1901 19.8514 90.8135C19.8514 93.4368 21.9781 95.5635 24.6014 95.5635H72.1014C74.7248 95.5635 76.8514 93.4368 76.8514 90.8135C76.8514 88.1901 74.7248 86.0635 72.1014 86.0635H66.7466L63.5799 79.7301H91.1014C93.8014 79.644 95.9243 77.3923 95.8514 74.692V5.60164C95.9243 2.90128 93.8014 0.649635 91.1014 0.563477V0.563477ZM73.6848 90.8135C73.6848 91.6879 72.9759 92.3968 72.1014 92.3968H24.6014C23.727 92.3968 23.0181 91.6879 23.0181 90.8135C23.0181 89.939 23.727 89.2301 24.6014 89.2301H72.1014C72.9759 89.2301 73.6848 89.939 73.6848 90.8135ZM63.2063 86.0635H33.4966L36.6633 79.7301H60.0396L63.2063 86.0635ZM91.1014 76.5635H5.60143C4.65678 76.4659 3.95781 75.6397 4.0181 74.692V70.2301H10.3514C11.2259 70.2301 11.9348 69.5213 11.9348 68.6468C11.9348 67.7724 11.2259 67.0635 10.3514 67.0635H4.0181V5.60164C3.95781 4.65389 4.65678 3.8277 5.60143 3.73014H91.1014C92.0461 3.8277 92.7451 4.65389 92.6848 5.60164V67.0635H16.6848C15.8103 67.0635 15.1014 67.7724 15.1014 68.6468C15.1014 69.5213 15.8103 70.2301 16.6848 70.2301H92.6848V74.692C92.7451 75.6397 92.0461 76.4659 91.1014 76.5635Z" fill="#7DBC91"/>
<path d="M8.7679 16.3965C9.64235 16.3965 10.3512 15.6876 10.3512 14.8132V10.0632H15.1012C15.9757 10.0632 16.6846 9.35427 16.6846 8.47982C16.6846 7.60537 15.9757 6.89648 15.1012 6.89648H8.7679C7.89345 6.89648 7.18457 7.60537 7.18457 8.47982V14.8132C7.18457 15.6876 7.89345 16.3965 8.7679 16.3965Z" fill="#7DBC91"/>
<path d="M16.6846 62.3131C16.6846 61.4387 15.9757 60.7298 15.1012 60.7298H10.3512V55.9798C10.3512 55.1054 9.64235 54.3965 8.7679 54.3965C7.89345 54.3965 7.18457 55.1054 7.18457 55.9798V62.3131C7.18457 63.1876 7.89345 63.8965 8.7679 63.8965H15.1012C15.9757 63.8965 16.6846 63.1876 16.6846 62.3131Z" fill="#7DBC91"/>
<path d="M87.9352 54.3965C87.0608 54.3965 86.3519 55.1054 86.3519 55.9798V60.7298H81.6019C80.7274 60.7298 80.0186 61.4387 80.0186 62.3131C80.0186 63.1876 80.7274 63.8965 81.6019 63.8965H87.9352C88.8097 63.8965 89.5186 63.1876 89.5186 62.3131V55.9798C89.5186 55.1054 88.8097 54.3965 87.9352 54.3965Z" fill="#7DBC91"/>
<path d="M81.6019 10.0632H86.3519V14.8132C86.3519 15.6876 87.0608 16.3965 87.9352 16.3965C88.8097 16.3965 89.5186 15.6876 89.5186 14.8132V8.47982C89.5186 7.60537 88.8097 6.89648 87.9352 6.89648H81.6019C80.7274 6.89648 80.0186 7.60537 80.0186 8.47982C80.0186 9.35427 80.7274 10.0632 81.6019 10.0632Z" fill="#7DBC91"/>
<path d="M13.5286 41.8012C13.5962 42.6568 14.011 43.4474 14.6765 43.9894C34.2797 59.9768 62.422 59.9768 82.0252 43.9894C82.6906 43.4474 83.1054 42.6568 83.1731 41.8012C83.2443 40.9337 82.9629 40.0741 82.3925 39.4167L63.2848 17.5049C62.1971 16.2534 60.3308 16.0467 58.9956 17.0299C55.9894 19.5232 52.2523 20.9684 48.3508 21.1466C44.4474 20.9646 40.7098 19.5149 37.7045 17.0173C36.3698 16.0342 34.504 16.241 33.4168 17.4923L14.3092 39.4167C13.7383 40.0739 13.4568 40.9336 13.5286 41.8012V41.8012ZM35.8045 19.5506C44.2278 25.8713 52.4738 25.8396 60.8972 19.5807L80.0048 41.4988L80.0207 41.5368C71.0741 48.8243 59.8898 52.8066 48.3508 52.8133C36.8089 52.8137 25.6233 48.8155 16.6968 41.4988L35.8045 19.5506Z" fill="#7DBC91"/>
</g>
<defs>
<clipPath id="clip0">
<rect width="95" height="95" fill="white" transform="translate(0.851562 0.563477)"/>
</clipPath>
</defs>
</svg>
