<svg width="12" height="13" viewBox="0 0 12 13" fill="none" xmlns="http://www.w3.org/2000/svg">
<path d="M5.74355 0.493206C4.74095 0.506747 2.58366 0.671331 1.37689 1.77706C0.481053 2.66768 0.168032 3.98071 0.131574 5.60675C0.100324 7.22654 0.0638655 10.2682 2.99616 11.0969V12.3573C2.99616 12.3573 2.97637 12.8625 3.3097 12.9666C3.72116 13.0969 3.95553 12.7067 4.34616 12.2901L5.07532 11.4672C7.08053 11.6338 8.61699 11.2489 8.79407 11.1916C9.20032 11.0614 11.4925 10.7692 11.8675 7.72706C12.2529 4.58591 11.68 2.60675 10.6488 1.71091L10.6436 1.70987C10.3311 1.42341 9.08105 0.511956 6.28418 0.501539C6.28418 0.501539 6.07793 0.488518 5.74355 0.493206ZM5.77845 1.37706C6.0623 1.3755 6.23678 1.38748 6.23678 1.38748C8.60137 1.39268 9.73209 2.10623 9.99772 2.34581C10.8675 3.09008 11.3144 4.87498 10.9873 7.49789C10.6748 10.0396 8.81543 10.201 8.47168 10.3104C8.32584 10.3573 6.97168 10.6906 5.26751 10.5812C5.26751 10.5812 3.9972 12.113 3.60137 12.5088C3.53887 12.5765 3.46595 12.5974 3.41907 12.587C3.35137 12.5713 3.33053 12.488 3.33574 12.3734L3.34616 10.2802C0.861261 9.59268 1.00709 6.99789 1.03314 5.64373C1.06439 4.28956 1.31959 3.17914 2.0748 2.42914C3.09407 1.50727 4.92637 1.38227 5.77793 1.37706H5.77845ZM5.96595 2.73123C5.94545 2.73116 5.92515 2.73514 5.90619 2.74293C5.88724 2.75073 5.87001 2.76219 5.85549 2.77665C5.84098 2.79112 5.82946 2.80831 5.8216 2.82724C5.81374 2.84617 5.8097 2.86646 5.8097 2.88696C5.8097 2.9284 5.82616 2.96814 5.85546 2.99744C5.88477 3.02674 5.92451 3.04321 5.96595 3.04321C6.35316 3.03582 6.738 3.1052 7.09826 3.24733C7.45851 3.38947 7.78705 3.60155 8.06491 3.87133C8.63262 4.42341 8.90918 5.163 8.91959 6.13175C8.91959 6.15227 8.92364 6.17258 8.93149 6.19154C8.93934 6.2105 8.95085 6.22772 8.96536 6.24223C8.97987 6.25674 8.99709 6.26825 9.01605 6.2761C9.03501 6.28396 9.05532 6.288 9.07584 6.288V6.28331C9.11728 6.28331 9.15703 6.26685 9.18633 6.23754C9.21563 6.20824 9.23209 6.1685 9.23209 6.12706C9.25141 5.67148 9.1778 5.21673 9.01573 4.79052C8.85366 4.3643 8.60653 3.97553 8.28939 3.64789C7.66959 3.04373 6.8873 2.73123 5.96543 2.73123H5.96595ZM3.90657 3.0906C3.79581 3.07482 3.68296 3.09684 3.58626 3.1531H3.58001C3.36647 3.2781 3.16959 3.43435 2.98209 3.64268C2.84147 3.80935 2.76282 3.9755 2.74199 4.13696C2.72974 4.23165 2.73863 4.32788 2.76803 4.41873L2.77845 4.42393C2.93898 4.89589 3.14846 5.34974 3.40345 5.7781C3.73398 6.37801 4.14007 6.93305 4.61178 7.42966L4.62741 7.4505L4.64824 7.46612L4.66387 7.48175L4.67949 7.49737C5.17805 7.97028 5.73457 8.37805 6.33574 8.71091C7.02324 9.08591 7.44095 9.263 7.69095 9.33591V9.34112C7.76387 9.36195 7.83053 9.37237 7.89824 9.37237C8.11164 9.3568 8.31369 9.27026 8.4722 9.12654C8.67532 8.94425 8.83678 8.74216 8.95657 8.52862V8.52341C9.07636 8.29946 9.0347 8.08539 8.86282 7.93956C8.51644 7.63654 8.14141 7.36791 7.74303 7.13748C7.47741 6.99164 7.20657 7.08018 7.0972 7.22602L6.86282 7.52237C6.74303 7.66821 6.52428 7.64737 6.52428 7.64737L6.51803 7.65258C4.89303 7.23591 4.46074 5.5906 4.46074 5.5906C4.46074 5.5906 4.43991 5.36664 4.59095 5.25206L4.88262 5.01768C5.02324 4.9031 5.1222 4.63227 4.97116 4.36664C4.74103 3.96807 4.47238 3.59301 4.16907 3.24685C4.1031 3.16503 4.00996 3.10958 3.90657 3.0906ZM6.23626 3.55414C6.19482 3.55428 6.15513 3.57088 6.12593 3.60028C6.09672 3.62968 6.08039 3.66947 6.08053 3.71091C6.08067 3.75235 6.09726 3.79204 6.12667 3.82125C6.15606 3.85045 6.19586 3.86678 6.2373 3.86664C6.75853 3.87569 7.25488 4.09109 7.61751 4.4656C7.78111 4.64608 7.90689 4.85751 7.9874 5.08742C8.06791 5.31732 8.10152 5.56103 8.08626 5.80414C8.0864 5.84549 8.10292 5.8851 8.13221 5.91429C8.1615 5.94348 8.20116 5.95987 8.24251 5.95987L8.24772 5.96612C8.26828 5.96612 8.28864 5.96206 8.30763 5.95418C8.32663 5.94629 8.34387 5.93474 8.35839 5.92017C8.3729 5.90561 8.3844 5.88832 8.39223 5.86931C8.40005 5.85029 8.40404 5.82991 8.40397 5.80935C8.41959 5.18956 8.22689 4.66873 7.84668 4.25206C7.46647 3.83539 6.93522 3.60102 6.25814 3.55414C6.25085 3.55363 6.24354 3.55363 6.23626 3.55414ZM6.49147 4.39737C6.47057 4.39676 6.44976 4.40026 6.43022 4.40769C6.41068 4.41512 6.3928 4.42632 6.37759 4.44066C6.36238 4.455 6.35014 4.4722 6.34157 4.49127C6.33301 4.51033 6.32828 4.5309 6.32767 4.5518C6.32705 4.57269 6.33056 4.59351 6.33799 4.61305C6.34541 4.63259 6.35662 4.65047 6.37096 4.66568C6.3853 4.68089 6.40249 4.69313 6.42156 4.7017C6.44063 4.71026 6.4612 4.71499 6.48209 4.7156C6.99772 4.74164 7.24772 5.00206 7.27897 5.53852C7.28032 5.57905 7.29738 5.61747 7.32654 5.64565C7.35569 5.67384 7.39467 5.68958 7.43522 5.68956H7.44043C7.46141 5.68891 7.48205 5.68403 7.50111 5.67523C7.52016 5.66642 7.53725 5.65387 7.55135 5.63831C7.56545 5.62275 7.57627 5.60452 7.58316 5.58469C7.59005 5.56486 7.59288 5.54384 7.59147 5.52289C7.55501 4.82498 7.1748 4.43383 6.49772 4.39737C6.49564 4.39733 6.49355 4.39733 6.49147 4.39737Z" fill="white"/>
</svg>
