<svg width="20" height="13" viewBox="0 0 20 13" fill="none" xmlns="http://www.w3.org/2000/svg">
<path d="M9.75019 12.1255H10.9477C10.9477 12.1255 11.3085 12.0863 11.4927 11.8888C11.6677 11.7047 11.6677 11.3638 11.6677 11.3638C11.6677 11.3638 11.6419 9.758 12.3919 9.52217C13.131 9.288 14.0686 11.0722 15.0677 11.758C15.8311 12.2822 16.4052 12.1697 16.4052 12.1697L19.0811 12.133C19.0811 12.133 20.4828 12.0455 19.8202 10.9447C19.7694 10.8572 19.4444 10.1322 17.8444 8.64466C16.1677 7.09382 16.3927 7.34382 18.4077 4.65547C19.6319 3.01796 20.1328 2.01712 19.9703 1.59212C19.8319 1.19212 18.9202 1.29129 18.9202 1.29129L15.9186 1.31712C15.9186 1.31712 15.6936 1.29129 15.5311 1.39212C15.3686 1.49129 15.2694 1.71795 15.2694 1.71795C15.2694 1.71795 14.7927 2.99213 14.1561 4.06797C12.8035 6.34215 12.266 6.46715 12.0535 6.31715C11.5502 5.99131 11.6794 5.00047 11.6794 4.29047C11.6794 2.08962 12.016 1.16545 11.0285 0.92795C10.7035 0.852117 10.461 0.80295 9.62436 0.789616C8.54935 0.77795 7.64268 0.79795 7.12851 1.04878C6.79101 1.21795 6.52851 1.59212 6.67934 1.61129C6.87934 1.63629 7.32851 1.73295 7.56602 2.05879C7.87852 2.48046 7.86518 3.42213 7.86518 3.42213C7.86518 3.42213 8.04102 6.01881 7.45351 6.34131C7.04101 6.55965 6.49101 6.10798 5.291 4.04464C4.6785 2.99463 4.21516 1.81962 4.21516 1.81962C4.21516 1.81962 4.12766 1.60629 3.966 1.48129C3.77683 1.34379 3.50183 1.29379 3.50183 1.29379L0.63931 1.31879C0.63931 1.31879 0.214307 1.33212 0.0651398 1.51879C-0.0731943 1.68129 0.0518064 2.03129 0.0518064 2.03129C0.0518064 2.03129 2.29015 7.27049 4.8285 9.90884C7.15351 12.3272 9.79186 12.1713 9.79186 12.1713L9.75019 12.1255Z" fill="#424A4E"/>
<path d="M9.75019 12.1255H10.9477C10.9477 12.1255 11.3085 12.0863 11.4927 11.8888C11.6677 11.7047 11.6677 11.3638 11.6677 11.3638C11.6677 11.3638 11.6419 9.758 12.3919 9.52217C13.131 9.288 14.0686 11.0722 15.0677 11.758C15.8311 12.2822 16.4052 12.1697 16.4052 12.1697L19.0811 12.133C19.0811 12.133 20.4828 12.0455 19.8202 10.9447C19.7694 10.8572 19.4444 10.1322 17.8444 8.64466C16.1677 7.09382 16.3927 7.34382 18.4077 4.65547C19.6319 3.01796 20.1328 2.01712 19.9703 1.59212C19.8319 1.19212 18.9202 1.29129 18.9202 1.29129L15.9186 1.31712C15.9186 1.31712 15.6936 1.29129 15.5311 1.39212C15.3686 1.49129 15.2694 1.71795 15.2694 1.71795C15.2694 1.71795 14.7927 2.99213 14.1561 4.06797C12.8035 6.34215 12.266 6.46715 12.0535 6.31715C11.5502 5.99131 11.6794 5.00047 11.6794 4.29047C11.6794 2.08962 12.016 1.16545 11.0285 0.92795C10.7035 0.852117 10.461 0.80295 9.62436 0.789616C8.54935 0.77795 7.64268 0.79795 7.12851 1.04878C6.79101 1.21795 6.52851 1.59212 6.67934 1.61129C6.87934 1.63629 7.32851 1.73295 7.56602 2.05879C7.87852 2.48046 7.86518 3.42213 7.86518 3.42213C7.86518 3.42213 8.04102 6.01881 7.45351 6.34131C7.04101 6.55965 6.49101 6.10798 5.291 4.04464C4.6785 2.99463 4.21516 1.81962 4.21516 1.81962C4.21516 1.81962 4.12766 1.60629 3.966 1.48129C3.77683 1.34379 3.50183 1.29379 3.50183 1.29379L0.63931 1.31879C0.63931 1.31879 0.214307 1.33212 0.0651398 1.51879C-0.0731943 1.68129 0.0518064 2.03129 0.0518064 2.03129C0.0518064 2.03129 2.29015 7.27049 4.8285 9.90884C7.15351 12.3272 9.79186 12.1713 9.79186 12.1713L9.75019 12.1255Z" fill="url(#paint0_linear)"/>
<defs>
<linearGradient id="paint0_linear" x1="0" y1="6.48347" x2="20" y2="6.48347" gradientUnits="userSpaceOnUse">
<stop stop-color="#6288E4"/>
<stop offset="1" stop-color="#AB86E4"/>
</linearGradient>
</defs>
</svg>
