<svg width="18" height="14" viewBox="0 0 18 14" fill="none" xmlns="http://www.w3.org/2000/svg">
<path d="M17.3846 2.67368C17.2832 2.31025 17.0898 1.97912 16.8229 1.71232C16.5561 1.44551 16.225 1.25204 15.8616 1.15062C14.4975 0.785167 9.00779 0.785167 9.00779 0.785167C9.00779 0.785167 3.5319 0.777872 2.15399 1.15062C1.79056 1.25204 1.45943 1.44551 1.19263 1.71232C0.925821 1.97912 0.732353 2.31025 0.630924 2.67368C0.372353 4.0702 0.244877 5.48782 0.250158 6.90807C0.245875 8.32295 0.373348 9.73516 0.630924 11.1264C0.732353 11.4898 0.925821 11.821 1.19263 12.0878C1.45943 12.3546 1.79056 12.548 2.15399 12.6495C3.51658 13.0156 9.00779 13.0156 9.00779 13.0156C9.00779 13.0156 14.4829 13.0156 15.8616 12.6495C16.225 12.548 16.5561 12.3546 16.8229 12.0878C17.0898 11.821 17.2832 11.4898 17.3846 11.1264C17.6368 9.73465 17.7589 8.32245 17.7494 6.90807C17.7599 5.48833 17.6378 4.0707 17.3846 2.67368ZM7.25568 9.52748V4.28063L11.8249 6.90807L7.25568 9.52748Z" fill="#424A4E"/>
<path d="M17.3846 2.67368C17.2832 2.31025 17.0898 1.97912 16.8229 1.71232C16.5561 1.44551 16.225 1.25204 15.8616 1.15062C14.4975 0.785167 9.00779 0.785167 9.00779 0.785167C9.00779 0.785167 3.5319 0.777872 2.15399 1.15062C1.79056 1.25204 1.45943 1.44551 1.19263 1.71232C0.925821 1.97912 0.732353 2.31025 0.630924 2.67368C0.372353 4.0702 0.244877 5.48782 0.250158 6.90807C0.245875 8.32295 0.373348 9.73516 0.630924 11.1264C0.732353 11.4898 0.925821 11.821 1.19263 12.0878C1.45943 12.3546 1.79056 12.548 2.15399 12.6495C3.51658 13.0156 9.00779 13.0156 9.00779 13.0156C9.00779 13.0156 14.4829 13.0156 15.8616 12.6495C16.225 12.548 16.5561 12.3546 16.8229 12.0878C17.0898 11.821 17.2832 11.4898 17.3846 11.1264C17.6368 9.73465 17.7589 8.32245 17.7494 6.90807C17.7599 5.48833 17.6378 4.0707 17.3846 2.67368ZM7.25568 9.52748V4.28063L11.8249 6.90807L7.25568 9.52748Z" fill="white"/>
</svg>
