<svg width="101" height="90" viewBox="0 0 101 90" fill="none" xmlns="http://www.w3.org/2000/svg">
<path d="M50.1792 0C22.4651 0 0 22.467 0 50.1792C0 65.3693 6.75998 78.9725 17.4245 88.1752C18.5568 86.6736 20.0073 85.403 21.7531 84.5301L39.0091 77.1301C39.9445 76.6624 40.7057 75.1513 41.2416 74.0739C41.7244 73.1006 41.003 71.955 39.9161 71.955H27.7122C27.7122 71.955 23.3002 71.5233 19.8975 70.0615C17.9035 69.2056 17.2181 68.0751 18.464 66.3009C22.1091 61.1125 29.6436 48.8953 29.8878 36.2786C29.8878 36.2786 30.3063 16.8564 49.4672 16.6992C60.6448 16.792 65.9241 23.3702 68.3838 28.8369C69.7547 31.8874 70.3436 35.2125 70.5633 38.549C71.3586 50.5749 77.4823 61.5746 80.3359 66.2744C81.3035 67.8687 80.8358 69.9914 79.2357 70.9496C76.6094 72.5193 73.396 71.955 73.396 71.955H61.1106C59.9101 71.955 59.3799 73.6327 60.3229 74.3769C61.0917 74.9828 61.8245 75.5301 62.2203 75.7459L76.5734 84.4317C78.6298 85.5526 80.2696 87.2133 81.3925 89.175C81.4417 89.2223 81.4966 89.2659 81.544 89.317C93.0057 80.1219 100.358 66.0168 100.358 50.1792C100.358 22.467 77.8932 0 50.1792 0Z" fill="#3F4862"/>
</svg>
