<svg width="10" height="10" viewBox="0 0 10 10" fill="none" xmlns="http://www.w3.org/2000/svg">
<path d="M5.88439 4.9999L9.81676 1.06752C10.0611 0.823414 10.0611 0.427342 9.81676 0.183236C9.57245 -0.0610786 9.17679 -0.0610786 8.93248 0.183236L5.0001 4.11561L1.06752 0.183236C0.823206 -0.0610786 0.42755 -0.0610786 0.183236 0.183236C-0.0610786 0.427342 -0.0610786 0.823414 0.183236 1.06752L4.11582 4.9999L0.183236 8.93227C-0.0610786 9.17638 -0.0610786 9.57245 0.183236 9.81656C0.305393 9.93851 0.46549 9.99958 0.625378 9.99958C0.785266 9.99958 0.945363 9.93851 1.06752 9.81635L5.0001 5.88397L8.93248 9.81635C9.05464 9.93851 9.21473 9.99958 9.37462 9.99958C9.53451 9.99958 9.69461 9.93851 9.81676 9.81635C10.0611 9.57224 10.0611 9.17617 9.81676 8.93206L5.88439 4.9999Z" fill="white"/>
</svg>
