<svg width="16" height="21" viewBox="0 0 16 21" fill="none" xmlns="http://www.w3.org/2000/svg">
<path d="M12.0799 0.464844H2.01386C1.33798 0.464844 0.787598 1.01561 0.787598 1.69136V19.2382C0.787598 19.9149 1.33798 20.4648 2.01386 20.4648H14.3439C15.0204 20.4648 15.5702 19.9149 15.5702 19.2382V4.25732L12.0799 0.464844ZM12.3694 2.30018L13.8992 3.96283H12.3694V2.30018ZM14.5403 19.2382C14.5403 19.3462 14.4519 19.4349 14.3433 19.4349H2.01386C1.90548 19.4349 1.81755 19.3462 1.81755 19.2382V1.69136C1.81755 1.58307 1.90548 1.49531 2.01386 1.49531H11.3389V4.47802C11.3389 4.76201 11.5702 4.99223 11.8544 4.99223H14.5403V19.2382ZM3.63439 5.94271H12.3804C12.5934 5.94271 12.7662 6.11551 12.7662 6.32857C12.7662 6.54162 12.5934 6.71443 12.3804 6.71443H3.63439C3.42138 6.71443 3.24853 6.54162 3.24853 6.32857C3.24853 6.11556 3.42138 5.94271 3.63439 5.94271ZM12.7662 8.92155C12.7662 9.13456 12.5934 9.30741 12.3804 9.30741H3.63439C3.42138 9.30741 3.24853 9.13461 3.24853 8.92155C3.24853 8.7085 3.42138 8.53569 3.63439 8.53569H12.3804C12.5934 8.53569 12.7662 8.70854 12.7662 8.92155ZM12.7662 11.4296C12.7662 11.6427 12.5934 11.8155 12.3804 11.8155H3.63439C3.42138 11.8155 3.24853 11.6427 3.24853 11.4296C3.24853 11.2166 3.42138 11.0438 3.63439 11.0438H12.3804C12.5934 11.0438 12.7662 11.2166 12.7662 11.4296ZM12.7662 13.9804C12.7662 14.1935 12.5934 14.3663 12.3804 14.3663H3.63439C3.42138 14.3663 3.24853 14.1935 3.24853 13.9804C3.24853 13.7674 3.42138 13.5945 3.63439 13.5945H12.3804C12.5934 13.5945 12.7662 13.7674 12.7662 13.9804Z" fill="#30353A"/>
</svg>
