<svg width="18" height="21" viewBox="0 0 18 21" fill="none" xmlns="http://www.w3.org/2000/svg">
<path d="M9.10653 11.2414C9.12724 11.2414 9.14795 11.2414 9.1728 11.2414C9.18108 11.2414 9.18936 11.2414 9.19765 11.2414C9.21007 11.2414 9.22664 11.2414 9.23906 11.2414C10.4526 11.2207 11.4341 10.7941 12.1589 9.9782C13.7535 8.18073 13.4884 5.09934 13.4594 4.80529C13.3559 2.59779 12.3122 1.54167 11.4507 1.04882C10.8087 0.680209 10.0591 0.48141 9.2225 0.464844H9.19351C9.18936 0.464844 9.18108 0.464844 9.17694 0.464844H9.15209C8.69237 0.464844 7.78949 0.539393 6.92389 1.03225C6.05414 1.5251 4.99388 2.58122 4.89034 4.80529C4.86135 5.09934 4.59628 8.18073 6.19082 9.9782C6.91146 10.7941 7.89303 11.2207 9.10653 11.2414ZM5.99616 4.90883C5.99616 4.8964 6.0003 4.88398 6.0003 4.87569C6.13697 1.90614 8.24507 1.58723 9.14795 1.58723H9.16452C9.1728 1.58723 9.18522 1.58723 9.19765 1.58723C10.3159 1.61208 12.2169 2.06766 12.3453 4.87569C12.3453 4.88812 12.3453 4.90054 12.3494 4.90883C12.3536 4.93782 12.6435 7.75414 11.3265 9.23684C10.8046 9.82496 10.1088 10.1149 9.19351 10.1232C9.18522 10.1232 9.18108 10.1232 9.1728 10.1232C9.16452 10.1232 9.16037 10.1232 9.15209 10.1232C8.24093 10.1149 7.54099 9.82496 7.02329 9.23684C5.71038 7.76242 5.99202 4.93368 5.99616 4.90883Z" fill="#30353A"/>
<path d="M17.6837 16.3535C17.6837 16.3494 17.6837 16.3452 17.6837 16.3411C17.6837 16.3079 17.6796 16.2748 17.6796 16.2375C17.6547 15.4175 17.6009 13.4999 15.8034 12.8869C15.791 12.8828 15.7744 12.8787 15.762 12.8745C13.8941 12.3982 12.341 11.3214 12.3244 11.309C12.0718 11.1309 11.7239 11.193 11.5458 11.4457C11.3677 11.6983 11.4298 12.0462 11.6825 12.2243C11.7529 12.274 13.4012 13.4212 15.4638 13.9514C16.4288 14.2951 16.5365 15.3264 16.5655 16.2707C16.5655 16.308 16.5655 16.3411 16.5696 16.3742C16.5737 16.747 16.5489 17.3227 16.4826 17.654C15.8117 18.035 13.1817 19.3521 9.18091 19.3521C5.19665 19.3521 2.55014 18.0309 1.87506 17.6498C1.80879 17.3185 1.7798 16.7428 1.78808 16.3701C1.78808 16.3369 1.79222 16.3038 1.79222 16.2665C1.82121 15.3222 1.9289 14.291 2.8939 13.9472C4.95644 13.4171 6.60481 12.2657 6.67522 12.2201C6.92786 12.0421 6.98998 11.6942 6.81189 11.4415C6.6338 11.1889 6.28591 11.1267 6.03327 11.3048C6.0167 11.3173 4.47187 12.3941 2.5957 12.8704C2.57913 12.8745 2.56671 12.8787 2.55428 12.8828C0.756812 13.4999 0.70297 15.4175 0.678121 16.2334C0.678121 16.2707 0.67812 16.3038 0.673979 16.3369C0.673979 16.3411 0.673979 16.3452 0.673979 16.3494C0.669837 16.5647 0.665696 17.6706 0.885203 18.2255C0.926619 18.3332 1.00117 18.4243 1.10057 18.4865C1.22482 18.5693 4.20266 20.4662 9.18506 20.4662C14.1675 20.4662 17.1453 18.5651 17.2695 18.4865C17.3648 18.4243 17.4435 18.3332 17.4849 18.2255C17.692 17.6747 17.6878 16.5689 17.6837 16.3535Z" fill="#30353A"/>
</svg>
